<?xml version="1.0" encoding="UTF-8"?>
<svg xmlns="http://www.w3.org/2000/svg" width="1100" height="620" viewBox="0 0 1100 620">
  <rect width="100%" height="100%" fill="#ffffff"/>
  <text x="72" y="30" font-family="Arial, sans-serif" font-size="22" font-weight="700" fill="#111827">Training progress</text>
  <text x="1068" y="30" text-anchor="end" font-family="Arial, sans-serif" font-size="13" fill="#4b5563">Final champion epoch: 83</text>
  <g font-family="Arial, sans-serif">
    <line x1="72.0" y1="54.0" x2="72.0" y2="542.0" stroke="#eef2f7" stroke-width="1"/>
    <text x="72.0" y="566.0" text-anchor="middle" font-size="12" fill="#4b5563">1</text>
    <line x1="172.6" y1="54.0" x2="172.6" y2="542.0" stroke="#eef2f7" stroke-width="1"/>
    <text x="172.6" y="566.0" text-anchor="middle" font-size="12" fill="#4b5563">11</text>
    <line x1="273.2" y1="54.0" x2="273.2" y2="542.0" stroke="#eef2f7" stroke-width="1"/>
    <text x="273.2" y="566.0" text-anchor="middle" font-size="12" fill="#4b5563">21</text>
    <line x1="373.8" y1="54.0" x2="373.8" y2="542.0" stroke="#eef2f7" stroke-width="1"/>
    <text x="373.8" y="566.0" text-anchor="middle" font-size="12" fill="#4b5563">31</text>
    <line x1="474.4" y1="54.0" x2="474.4" y2="542.0" stroke="#eef2f7" stroke-width="1"/>
    <text x="474.4" y="566.0" text-anchor="middle" font-size="12" fill="#4b5563">41</text>
    <line x1="575.0" y1="54.0" x2="575.0" y2="542.0" stroke="#eef2f7" stroke-width="1"/>
    <text x="575.0" y="566.0" text-anchor="middle" font-size="12" fill="#4b5563">51</text>
    <line x1="675.6" y1="54.0" x2="675.6" y2="542.0" stroke="#eef2f7" stroke-width="1"/>
    <text x="675.6" y="566.0" text-anchor="middle" font-size="12" fill="#4b5563">61</text>
    <line x1="776.2" y1="54.0" x2="776.2" y2="542.0" stroke="#eef2f7" stroke-width="1"/>
    <text x="776.2" y="566.0" text-anchor="middle" font-size="12" fill="#4b5563">71</text>
    <line x1="876.8" y1="54.0" x2="876.8" y2="542.0" stroke="#eef2f7" stroke-width="1"/>
    <text x="876.8" y="566.0" text-anchor="middle" font-size="12" fill="#4b5563">81</text>
    <line x1="977.5" y1="54.0" x2="977.5" y2="542.0" stroke="#eef2f7" stroke-width="1"/>
    <text x="977.5" y="566.0" text-anchor="middle" font-size="12" fill="#4b5563">91</text>
    <line x1="72.0" y1="542.0" x2="1068.0" y2="542.0" stroke="#d8dee9" stroke-width="1" opacity="0.55"/>
    <text x="60.0" y="546.0" text-anchor="end" font-size="12" fill="#4b5563">-5123.0</text>
    <line x1="72.0" y1="444.4" x2="1068.0" y2="444.4" stroke="#d8dee9" stroke-width="1" opacity="0.55"/>
    <text x="60.0" y="448.4" text-anchor="end" font-size="12" fill="#4b5563">-3641.8</text>
    <line x1="72.0" y1="346.8" x2="1068.0" y2="346.8" stroke="#d8dee9" stroke-width="1" opacity="0.55"/>
    <text x="60.0" y="350.8" text-anchor="end" font-size="12" fill="#4b5563">-2160.6</text>
    <line x1="72.0" y1="249.2" x2="1068.0" y2="249.2" stroke="#d8dee9" stroke-width="1" opacity="0.55"/>
    <text x="60.0" y="253.2" text-anchor="end" font-size="12" fill="#4b5563">-679.4</text>
    <line x1="72.0" y1="151.6" x2="1068.0" y2="151.6" stroke="#d8dee9" stroke-width="1" opacity="0.55"/>
    <text x="60.0" y="155.6" text-anchor="end" font-size="12" fill="#4b5563">801.8</text>
    <line x1="72.0" y1="54.0" x2="1068.0" y2="54.0" stroke="#d8dee9" stroke-width="1" opacity="0.55"/>
    <text x="60.0" y="58.0" text-anchor="end" font-size="12" fill="#4b5563">2283.0</text>
    <line x1="72.0" y1="54.0" x2="72.0" y2="542.0" stroke="#111827" stroke-width="1.4"/>
    <line x1="72.0" y1="542.0" x2="1068.0" y2="542.0" stroke="#111827" stroke-width="1.4"/>
    <text x="570.0" y="596.0" text-anchor="middle" font-size="13" fill="#111827">Epoch</text>
    <text x="20" y="298.0" transform="rotate(-90 20 298.0)" text-anchor="middle" font-size="13" fill="#111827">Goals / goal diff</text>
    <polyline fill="none" stroke="#2563eb" stroke-width="2.4" points="72.0,204.0 82.1,204.0 92.1,204.0 102.2,204.0 112.2,204.0 122.3,204.0 132.4,204.0 142.4,204.0 152.5,204.0 162.5,204.0 172.6,204.0 182.7,204.0 192.7,204.0 202.8,204.0 212.8,204.1 222.9,204.0 233.0,204.0 243.0,204.0 253.1,204.3 263.2,204.0 273.2,204.0 283.3,204.0 293.3,204.0 303.4,204.0 313.5,204.3 323.5,204.0 333.6,204.0 343.6,204.0 353.7,204.0 363.8,204.0 373.8,204.0 383.9,204.0 393.9,204.0 404.0,204.0 414.1,204.0 424.1,204.0 434.2,204.2 444.2,204.0 454.3,204.0 464.4,204.0 474.4,204.0 484.5,204.3 494.5,204.0 504.6,204.0 514.7,204.0 524.7,204.0 534.8,204.3 544.8,204.0 554.9,204.0 565.0,204.0 575.0,204.1 585.1,204.0 595.2,204.0 605.2,204.0 615.3,204.0 625.3,204.0 635.4,204.0 645.5,204.0 655.5,204.0 665.6,204.0 675.6,204.0 685.7,204.0 695.8,204.0 705.8,204.0 715.9,204.0 725.9,204.1 736.0,204.0 746.1,204.0 756.1,204.0 766.2,204.0 776.2,204.1 786.3,204.0 796.4,204.0 806.4,204.0 816.5,204.0 826.5,204.0 836.6,204.0 846.7,204.2 856.7,204.0 866.8,204.0 876.8,204.0 886.9,204.0 897.0,204.0 907.0,204.3 917.1,204.0 927.2,204.0 937.2,204.0 947.3,204.3 957.3,204.0 967.4,204.0 977.5,204.0 987.5,204.2 997.6,204.1 1007.6,204.0 1017.7,204.0 1027.8,204.0 1037.8,204.0 1047.9,204.0 1057.9,204.0 1068.0,204.0"/>
    <polyline fill="none" stroke="#ef4444" stroke-width="2.4" points="72.0,204.0 82.1,204.0 92.1,204.0 102.2,204.0 112.2,204.0 122.3,204.0 132.4,204.0 142.4,204.0 152.5,204.0 162.5,204.0 172.6,204.0 182.7,204.0 192.7,204.0 202.8,204.0 212.8,204.1 222.9,204.0 233.0,204.0 243.0,204.0 253.1,204.2 263.2,204.0 273.2,204.0 283.3,204.0 293.3,204.0 303.4,204.0 313.5,204.1 323.5,204.0 333.6,204.0 343.6,204.0 353.7,204.0 363.8,204.0 373.8,204.0 383.9,204.0 393.9,204.0 404.0,204.0 414.1,204.0 424.1,204.0 434.2,204.1 444.2,204.0 454.3,204.0 464.4,204.0 474.4,204.0 484.5,204.2 494.5,204.0 504.6,204.0 514.7,204.0 524.7,204.0 534.8,204.2 544.8,204.0 554.9,204.0 565.0,204.0 575.0,204.1 585.1,204.0 595.2,204.0 605.2,204.0 615.3,204.0 625.3,204.0 635.4,204.0 645.5,204.0 655.5,204.0 665.6,204.0 675.6,204.0 685.7,204.0 695.8,204.0 705.8,204.0 715.9,204.0 725.9,204.0 736.0,204.0 746.1,204.0 756.1,204.0 766.2,204.0 776.2,204.0 786.3,204.0 796.4,204.0 806.4,204.0 816.5,204.0 826.5,204.0 836.6,204.0 846.7,204.1 856.7,204.0 866.8,204.0 876.8,204.0 886.9,204.0 897.0,204.0 907.0,204.2 917.1,204.0 927.2,204.0 937.2,204.0 947.3,204.2 957.3,204.0 967.4,204.0 977.5,204.0 987.5,204.1 997.6,204.0 1007.6,204.0 1017.7,204.0 1027.8,204.0 1037.8,204.0 1047.9,204.0 1057.9,204.0 1068.0,204.0"/>
    <polyline fill="none" stroke="#7c3aed" stroke-width="2" stroke-dasharray="6 5" points="72.0,241.0 82.1,303.6 92.1,284.0 102.2,224.7 112.2,249.7 122.3,162.9 132.4,54.0 142.4,378.8 152.5,542.0 162.5,512.5 172.6,347.8 182.7,245.4 192.7,406.9 202.8,380.6 212.8,239.5 222.9,232.7 233.0,358.6 243.0,451.5 253.1,218.2 263.2,408.6 273.2,364.7 283.3,227.1 293.3,403.4 303.4,308.2 313.5,219.8 323.5,471.4 333.6,208.4 343.6,254.2 353.7,417.3 363.8,176.7 373.8,215.2 383.9,519.2 393.9,91.2 404.0,91.4 414.1,260.8 424.1,256.9 434.2,213.3 444.2,203.0 454.3,308.4 464.4,273.4 474.4,205.5 484.5,214.2 494.5,245.8 504.6,422.8 514.7,218.1 524.7,301.8 534.8,217.0 544.8,305.8 554.9,400.6 565.0,190.3 575.0,221.4 585.1,269.0 595.2,180.1 605.2,221.8 615.3,181.4 625.3,258.5 635.4,237.5 645.5,326.7 655.5,380.3 665.6,220.1 675.6,462.2 685.7,167.6 695.8,301.8 705.8,355.9 715.9,304.6 725.9,254.8 736.0,205.7 746.1,321.3 756.1,129.2 766.2,185.7 776.2,248.1 786.3,204.8 796.4,271.3 806.4,428.7 816.5,232.2 826.5,161.5 836.6,311.6 846.7,216.5 856.7,264.6 866.8,280.1 876.8,237.6 886.9,156.5 897.0,163.0 907.0,215.2 917.1,313.9 927.2,321.3 937.2,270.3 947.3,213.9 957.3,328.9 967.4,372.4 977.5,374.2 987.5,214.1 997.6,251.0 1007.6,278.0 1017.7,351.3 1027.8,206.1 1037.8,257.9 1047.9,221.1 1057.9,286.0 1068.0,224.9"/>
    <circle cx="122.3" cy="162.9" r="5" fill="#16a34a"><title>Accepted epoch 6, diff 631</title></circle>
    <circle cx="132.4" cy="54.0" r="5" fill="#16a34a"><title>Accepted epoch 7, diff 2283</title></circle>
    <circle cx="363.8" cy="176.7" r="5" fill="#16a34a"><title>Accepted epoch 30, diff 421</title></circle>
    <circle cx="393.9" cy="91.2" r="5" fill="#16a34a"><title>Accepted epoch 33, diff 1719</title></circle>
    <circle cx="404.0" cy="91.4" r="5" fill="#16a34a"><title>Accepted epoch 34, diff 1716</title></circle>
    <circle cx="444.2" cy="203.0" r="5" fill="#16a34a"><title>Accepted epoch 38, diff 21</title></circle>
    <circle cx="565.0" cy="190.3" r="5" fill="#16a34a"><title>Accepted epoch 50, diff 214</title></circle>
    <circle cx="595.2" cy="180.1" r="5" fill="#16a34a"><title>Accepted epoch 53, diff 369</title></circle>
    <circle cx="615.3" cy="181.4" r="5" fill="#16a34a"><title>Accepted epoch 55, diff 349</title></circle>
    <circle cx="685.7" cy="167.6" r="5" fill="#16a34a"><title>Accepted epoch 62, diff 559</title></circle>
    <circle cx="756.1" cy="129.2" r="5" fill="#16a34a"><title>Accepted epoch 69, diff 1142</title></circle>
    <circle cx="766.2" cy="185.7" r="5" fill="#16a34a"><title>Accepted epoch 70, diff 285</title></circle>
    <circle cx="826.5" cy="161.5" r="5" fill="#16a34a"><title>Accepted epoch 76, diff 651</title></circle>
    <circle cx="886.9" cy="156.5" r="5" fill="#16a34a"><title>Accepted epoch 82, diff 727</title></circle>
    <circle cx="897.0" cy="163.0" r="5" fill="#16a34a"><title>Accepted epoch 83, diff 629</title></circle>
    <g transform="translate(72, 566.0)" font-size="13" fill="#111827">
      <rect x="0" y="-12" width="14" height="4" fill="#2563eb"/><text x="22" y="-7">Candidate avg goals</text>
      <rect x="190" y="-12" width="14" height="4" fill="#ef4444"/><text x="212" y="-7">Baseline avg goals</text>
      <rect x="378" y="-12" width="14" height="4" fill="#7c3aed"/><text x="400" y="-7">Goal diff</text>
      <circle cx="548" cy="-10" r="5" fill="#16a34a"/><text x="562" y="-7">Accepted improvement</text>
    </g>
  </g>
</svg>
