<svg xmlns="http://www.w3.org/2000/svg" viewBox="0 0 880 660" font-family="ui-monospace,Menlo,monospace"><rect width="880" height="520" fill="#2a6318"/><rect x="0" y="0" width="80" height="520" fill="black" fill-opacity="0.06"/><rect x="80" y="0" width="80" height="520" fill="white" fill-opacity="0.025"/><rect x="160" y="0" width="80" height="520" fill="black" fill-opacity="0.06"/><rect x="240" y="0" width="80" height="520" fill="white" fill-opacity="0.025"/><rect x="320" y="0" width="80" height="520" fill="black" fill-opacity="0.06"/><rect x="400" y="0" width="80" height="520" fill="white" fill-opacity="0.025"/><rect x="480" y="0" width="80" height="520" fill="black" fill-opacity="0.06"/><rect x="560" y="0" width="80" height="520" fill="white" fill-opacity="0.025"/><rect x="640" y="0" width="80" height="520" fill="black" fill-opacity="0.06"/><rect x="720" y="0" width="80" height="520" fill="white" fill-opacity="0.025"/><rect x="800" y="0" width="80" height="520" fill="black" fill-opacity="0.06"/><rect x="18" y="8" width="844" height="504" fill="none" stroke="rgba(255,255,255,0.82)" stroke-width="2"/><line x1="440" y1="8" x2="440" y2="512" stroke="rgba(255,255,255,0.82)" stroke-width="2"/><circle cx="440" cy="260" r="62" fill="none" stroke="rgba(255,255,255,0.82)" stroke-width="2"/><circle cx="440" cy="260" r="3" fill="rgba(255,255,255,0.8)"/><rect x="18" y="172" width="106" height="176" fill="none" stroke="rgba(255,255,255,0.82)" stroke-width="2"/><rect x="756" y="172" width="106" height="176" fill="none" stroke="rgba(255,255,255,0.82)" stroke-width="2"/><rect x="18" y="214" width="54" height="92" fill="none" stroke="rgba(255,255,255,0.82)" stroke-width="2"/><rect x="808" y="214" width="54" height="92" fill="none" stroke="rgba(255,255,255,0.82)" stroke-width="2"/><rect x="-8" y="195" width="26" height="130" fill="rgba(255,255,255,0.1)" stroke="rgba(255,255,255,0.9)" stroke-width="3"/><rect x="862" y="195" width="26" height="130" fill="rgba(255,255,255,0.1)" stroke="rgba(255,255,255,0.9)" stroke-width="3"/><circle cx="18" cy="260" r="150" fill="none" stroke="#ff6b35" stroke-width="1" stroke-opacity="0.18" stroke-dasharray="4,4"/><circle cx="18" cy="260" r="700" fill="none" stroke="#ff6b35" stroke-width="1" stroke-opacity="0.18" stroke-dasharray="4,4"/><circle cx="18" cy="260" r="100" fill="none" stroke="#5b9bff" stroke-width="1" stroke-opacity="0.18" stroke-dasharray="4,4"/><circle cx="18" cy="260" r="500" fill="none" stroke="#5b9bff" stroke-width="1" stroke-opacity="0.18" stroke-dasharray="4,4"/><circle cx="18" cy="260" r="100" fill="none" stroke="#5b9bff" stroke-width="1" stroke-opacity="0.18" stroke-dasharray="4,4"/><circle cx="18" cy="260" r="500" fill="none" stroke="#5b9bff" stroke-width="1" stroke-opacity="0.18" stroke-dasharray="4,4"/><circle cx="18" cy="260" r="40" fill="none" stroke="#84cc16" stroke-width="1" stroke-opacity="0.18" stroke-dasharray="4,4"/><circle cx="18" cy="260" r="320" fill="none" stroke="#84cc16" stroke-width="1" stroke-opacity="0.18" stroke-dasharray="4,4"/><circle cx="18" cy="260" r="0" fill="none" stroke="#fbbf24" stroke-width="1" stroke-opacity="0.18" stroke-dasharray="4,4"/><circle cx="18" cy="260" r="241" fill="none" stroke="#fbbf24" stroke-width="1" stroke-opacity="0.18" stroke-dasharray="4,4"/><line x1="398" y1="60" x2="398" y2="460" stroke="#ff6b35" stroke-width="1" stroke-opacity="0.22" stroke-dasharray="2,3"/><circle cx="398" cy="260" r="20" fill="#ff6b35" fill-opacity="0.05" stroke="#ff6b35" stroke-width="1" stroke-opacity="0.25"/><circle cx="398" cy="260" r="30" fill="none" stroke="#ff6b35" stroke-width="2" stroke-opacity="0.5" stroke-dasharray="6,3"/><circle cx="398" cy="260" r="13" fill="#ff6b35" stroke="white" stroke-width="2.5"/><text x="398" y="264" fill="white" font-size="10" font-weight="bold" text-anchor="middle">FWD</text><line x1="307" y1="40" x2="307" y2="280" stroke="#5b9bff" stroke-width="1" stroke-opacity="0.22" stroke-dasharray="2,3"/><circle cx="307" cy="280" r="20" fill="#5b9bff" fill-opacity="0.05" stroke="#5b9bff" stroke-width="1" stroke-opacity="0.25"/><circle cx="307" cy="280" r="85" fill="none" stroke="#5b9bff" stroke-width="2" stroke-opacity="0.5" stroke-dasharray="6,3"/><circle cx="307" cy="280" r="13" fill="#5b9bff" stroke="white" stroke-width="2.5"/><text x="307" y="284" fill="white" font-size="10" font-weight="bold" text-anchor="middle">MID-T</text><line x1="207" y1="240" x2="207" y2="480" stroke="#5b9bff" stroke-width="1" stroke-opacity="0.22" stroke-dasharray="2,3"/><circle cx="207" cy="480" r="20" fill="#5b9bff" fill-opacity="0.05" stroke="#5b9bff" stroke-width="1" stroke-opacity="0.25"/><circle cx="207" cy="480" r="20" fill="none" stroke="#5b9bff" stroke-width="2" stroke-opacity="0.5" stroke-dasharray="6,3"/><circle cx="207" cy="480" r="13" fill="#5b9bff" stroke="white" stroke-width="2.5"/><text x="207" y="484" fill="white" font-size="10" font-weight="bold" text-anchor="middle">MID-B</text><line x1="338" y1="60" x2="338" y2="460" stroke="#84cc16" stroke-width="1" stroke-opacity="0.22" stroke-dasharray="2,3"/><circle cx="338" cy="260" r="30" fill="#84cc16" fill-opacity="0.05" stroke="#84cc16" stroke-width="1" stroke-opacity="0.25"/><circle cx="338" cy="260" r="15" fill="none" stroke="#84cc16" stroke-width="2" stroke-opacity="0.5" stroke-dasharray="6,3"/><circle cx="338" cy="260" r="13" fill="#84cc16" stroke="white" stroke-width="2.5"/><text x="338" y="264" fill="white" font-size="10" font-weight="bold" text-anchor="middle">DEF</text><line x1="112" y1="112" x2="112" y2="378" stroke="#fbbf24" stroke-width="1" stroke-opacity="0.22" stroke-dasharray="2,3"/><circle cx="112" cy="318" r="200" fill="#fbbf24" fill-opacity="0.05" stroke="#fbbf24" stroke-width="1" stroke-opacity="0.25"/><circle cx="112" cy="318" r="200" fill="none" stroke="#fbbf24" stroke-width="2" stroke-opacity="0.5" stroke-dasharray="6,3"/><circle cx="112" cy="318" r="13" fill="#fbbf24" stroke="white" stroke-width="2.5"/><text x="112" y="321" fill="white" font-size="10" font-weight="bold" text-anchor="middle">GK</text><text x="10" y="22" fill="rgba(255,255,255,0.95)" font-size="16" font-weight="bold">forge-fc</text><text x="10" y="38" fill="rgba(255,255,255,0.7)" font-size="11">forge-fc</text><text x="870" y="22" fill="rgba(255,255,255,0.55)" font-size="9" text-anchor="end">solid: preferred · faint: own_goal min/max · dashed ring: opponent pref</text><rect y="520" width="880" height="140" fill="#0a0a0a"/><text x="10" y="538" fill="white" font-size="11" font-weight="bold">Spatial preferences (min / preferred / max)</text><text x="10" y="556" fill="rgba(255,255,255,0.55)" font-size="9">slot     own_goal              side                 ball                 teammate           opponent</text><text x="10" y="575" fill="#ff6b35" font-size="10" xml:space="preserve">FWD      150/ 380/ 700       60/ 260/ 460        20/  20/ 280        40/ 220/ 220      30/  30/ 260</text><text x="10" y="589" fill="#5b9bff" font-size="10" xml:space="preserve">MID-T    100/ 290/ 500       40/ 280/ 280        20/  20/ 280        40/ 100/ 220      20/  85/ 220</text><text x="10" y="603" fill="#5b9bff" font-size="10" xml:space="preserve">MID-B    100/ 290/ 500      240/ 480/ 480        20/  20/ 280        40/  40/ 220      20/  20/ 220</text><text x="10" y="617" fill="#84cc16" font-size="10" xml:space="preserve">DEF       40/ 320/ 320       60/ 260/ 460        30/  30/ 320        50/  50/ 220      15/  15/ 150</text><text x="10" y="631" fill="#fbbf24" font-size="10" xml:space="preserve">GK         0/ 110/ 241      112/ 318/ 378       177/ 269/ 683         7/ 156/ 197       9/ 230/ 292</text></svg>