<?xml version="1.0" encoding="UTF-8"?>
<svg xmlns="http://www.w3.org/2000/svg" width="1100" height="620" viewBox="0 0 1100 620">
  <rect width="100%" height="100%" fill="#ffffff"/>
  <text x="72" y="30" font-family="Arial, sans-serif" font-size="22" font-weight="700" fill="#111827">Training progress</text>
  <text x="1068" y="30" text-anchor="end" font-family="Arial, sans-serif" font-size="13" fill="#4b5563">Final champion epoch: 100</text>
  <g font-family="Arial, sans-serif">
    <line x1="72.0" y1="54.0" x2="72.0" y2="542.0" stroke="#eef2f7" stroke-width="1"/>
    <text x="72.0" y="566.0" text-anchor="middle" font-size="12" fill="#4b5563">1</text>
    <line x1="172.6" y1="54.0" x2="172.6" y2="542.0" stroke="#eef2f7" stroke-width="1"/>
    <text x="172.6" y="566.0" text-anchor="middle" font-size="12" fill="#4b5563">11</text>
    <line x1="273.2" y1="54.0" x2="273.2" y2="542.0" stroke="#eef2f7" stroke-width="1"/>
    <text x="273.2" y="566.0" text-anchor="middle" font-size="12" fill="#4b5563">21</text>
    <line x1="373.8" y1="54.0" x2="373.8" y2="542.0" stroke="#eef2f7" stroke-width="1"/>
    <text x="373.8" y="566.0" text-anchor="middle" font-size="12" fill="#4b5563">31</text>
    <line x1="474.4" y1="54.0" x2="474.4" y2="542.0" stroke="#eef2f7" stroke-width="1"/>
    <text x="474.4" y="566.0" text-anchor="middle" font-size="12" fill="#4b5563">41</text>
    <line x1="575.0" y1="54.0" x2="575.0" y2="542.0" stroke="#eef2f7" stroke-width="1"/>
    <text x="575.0" y="566.0" text-anchor="middle" font-size="12" fill="#4b5563">51</text>
    <line x1="675.6" y1="54.0" x2="675.6" y2="542.0" stroke="#eef2f7" stroke-width="1"/>
    <text x="675.6" y="566.0" text-anchor="middle" font-size="12" fill="#4b5563">61</text>
    <line x1="776.2" y1="54.0" x2="776.2" y2="542.0" stroke="#eef2f7" stroke-width="1"/>
    <text x="776.2" y="566.0" text-anchor="middle" font-size="12" fill="#4b5563">71</text>
    <line x1="876.8" y1="54.0" x2="876.8" y2="542.0" stroke="#eef2f7" stroke-width="1"/>
    <text x="876.8" y="566.0" text-anchor="middle" font-size="12" fill="#4b5563">81</text>
    <line x1="977.5" y1="54.0" x2="977.5" y2="542.0" stroke="#eef2f7" stroke-width="1"/>
    <text x="977.5" y="566.0" text-anchor="middle" font-size="12" fill="#4b5563">91</text>
    <line x1="72.0" y1="542.0" x2="1068.0" y2="542.0" stroke="#d8dee9" stroke-width="1" opacity="0.55"/>
    <text x="60.0" y="546.0" text-anchor="end" font-size="12" fill="#4b5563">-1124.0</text>
    <line x1="72.0" y1="444.4" x2="1068.0" y2="444.4" stroke="#d8dee9" stroke-width="1" opacity="0.55"/>
    <text x="60.0" y="448.4" text-anchor="end" font-size="12" fill="#4b5563">-668.0</text>
    <line x1="72.0" y1="346.8" x2="1068.0" y2="346.8" stroke="#d8dee9" stroke-width="1" opacity="0.55"/>
    <text x="60.0" y="350.8" text-anchor="end" font-size="12" fill="#4b5563">-212.0</text>
    <line x1="72.0" y1="249.2" x2="1068.0" y2="249.2" stroke="#d8dee9" stroke-width="1" opacity="0.55"/>
    <text x="60.0" y="253.2" text-anchor="end" font-size="12" fill="#4b5563">244.0</text>
    <line x1="72.0" y1="151.6" x2="1068.0" y2="151.6" stroke="#d8dee9" stroke-width="1" opacity="0.55"/>
    <text x="60.0" y="155.6" text-anchor="end" font-size="12" fill="#4b5563">700.0</text>
    <line x1="72.0" y1="54.0" x2="1068.0" y2="54.0" stroke="#d8dee9" stroke-width="1" opacity="0.55"/>
    <text x="60.0" y="58.0" text-anchor="end" font-size="12" fill="#4b5563">1156.0</text>
    <line x1="72.0" y1="54.0" x2="72.0" y2="542.0" stroke="#111827" stroke-width="1.4"/>
    <line x1="72.0" y1="542.0" x2="1068.0" y2="542.0" stroke="#111827" stroke-width="1.4"/>
    <text x="570.0" y="596.0" text-anchor="middle" font-size="13" fill="#111827">Epoch</text>
    <text x="20" y="298.0" transform="rotate(-90 20 298.0)" text-anchor="middle" font-size="13" fill="#111827">Goals / goal diff</text>
    <polyline fill="none" stroke="#2563eb" stroke-width="2.4" points="72.0,301.2 82.1,301.2 92.1,301.2 102.2,301.2 112.2,301.2 122.3,301.2 132.4,301.2 142.4,301.2 152.5,301.2 162.5,301.2 172.6,301.2 182.7,301.3 192.7,301.2 202.8,301.2 212.8,301.2 222.9,301.2 233.0,301.2 243.0,301.2 253.1,301.2 263.2,301.2 273.2,301.2 283.3,301.2 293.3,301.2 303.4,301.2 313.5,301.2 323.5,301.2 333.6,301.2 343.6,301.2 353.7,301.2 363.8,301.3 373.8,301.2 383.9,301.2 393.9,301.2 404.0,301.2 414.1,301.2 424.1,301.4 434.2,301.2 444.2,301.2 454.3,301.2 464.4,301.3 474.4,301.2 484.5,301.2 494.5,301.2 504.6,301.2 514.7,301.2 524.7,301.3 534.8,301.2 544.8,301.2 554.9,301.2 565.0,301.2 575.0,301.3 585.1,301.2 595.2,301.3 605.2,301.2 615.3,301.3 625.3,301.2 635.4,301.2 645.5,301.2 655.5,301.2 665.6,301.2 675.6,301.2 685.7,301.2 695.8,301.2 705.8,301.2 715.9,301.2 725.9,301.2 736.0,301.2 746.1,301.2 756.1,301.2 766.2,301.2 776.2,301.2 786.3,301.2 796.4,301.2 806.4,301.2 816.5,301.2 826.5,301.2 836.6,301.3 846.7,301.2 856.7,301.2 866.8,301.2 876.8,301.2 886.9,301.2 897.0,301.4 907.0,301.2 917.1,301.3 927.2,301.2 937.2,301.3 947.3,301.2 957.3,301.3 967.4,301.2 977.5,301.2 987.5,301.2 997.6,301.2 1007.6,301.2 1017.7,301.2 1027.8,301.2 1037.8,301.2 1047.9,301.2 1057.9,301.2 1068.0,301.2"/>
    <polyline fill="none" stroke="#ef4444" stroke-width="2.4" points="72.0,301.2 82.1,301.2 92.1,301.2 102.2,301.2 112.2,301.2 122.3,301.2 132.4,301.2 142.4,301.2 152.5,301.2 162.5,301.2 172.6,301.2 182.7,301.2 192.7,301.2 202.8,301.2 212.8,301.2 222.9,301.2 233.0,301.2 243.0,301.2 253.1,301.2 263.2,301.2 273.2,301.2 283.3,301.2 293.3,301.2 303.4,301.2 313.5,301.2 323.5,301.2 333.6,301.2 343.6,301.2 353.7,301.2 363.8,301.2 373.8,301.2 383.9,301.2 393.9,301.2 404.0,301.2 414.1,301.2 424.1,301.0 434.2,301.2 444.2,301.2 454.3,301.2 464.4,301.1 474.4,301.2 484.5,301.2 494.5,301.2 504.6,301.2 514.7,301.2 524.7,301.2 534.8,301.2 544.8,301.2 554.9,301.2 565.0,301.2 575.0,301.2 585.1,301.2 595.2,301.2 605.2,301.2 615.3,301.2 625.3,301.2 635.4,301.2 645.5,301.2 655.5,301.2 665.6,301.2 675.6,301.2 685.7,301.2 695.8,301.2 705.8,301.2 715.9,301.2 725.9,301.2 736.0,301.2 746.1,301.2 756.1,301.2 766.2,301.2 776.2,301.2 786.3,301.2 796.4,301.2 806.4,301.2 816.5,301.2 826.5,301.2 836.6,301.2 846.7,301.2 856.7,301.2 866.8,301.2 876.8,301.2 886.9,301.2 897.0,301.2 907.0,301.2 917.1,301.2 927.2,301.2 937.2,301.1 947.3,301.2 957.3,301.2 967.4,301.2 977.5,301.2 987.5,301.2 997.6,301.2 1007.6,301.2 1017.7,301.2 1027.8,301.2 1037.8,301.2 1047.9,301.2 1057.9,301.2 1068.0,301.2"/>
    <polyline fill="none" stroke="#7c3aed" stroke-width="2" stroke-dasharray="6 5" points="72.0,72.8 82.1,299.9 92.1,202.5 102.2,326.7 112.2,318.3 122.3,119.3 132.4,250.1 142.4,204.5 152.5,342.5 162.5,132.8 172.6,320.5 182.7,313.6 192.7,123.8 202.8,293.9 212.8,188.8 222.9,389.2 233.0,280.2 243.0,234.6 253.1,271.7 263.2,364.1 273.2,340.0 283.3,256.0 293.3,184.6 303.4,409.5 313.5,460.5 323.5,307.6 333.6,303.6 343.6,395.0 353.7,54.0 363.8,313.4 373.8,372.9 383.9,444.8 393.9,129.8 404.0,120.1 414.1,319.4 424.1,333.3 434.2,320.3 444.2,425.8 454.3,346.6 464.4,324.8 474.4,445.3 484.5,328.4 494.5,387.0 504.6,440.8 514.7,67.1 524.7,308.9 534.8,374.8 544.8,315.1 554.9,376.6 565.0,264.6 575.0,310.2 585.1,329.5 595.2,309.3 605.2,427.5 615.3,316.0 625.3,489.1 635.4,416.4 645.5,332.5 655.5,301.0 665.6,321.5 675.6,447.2 685.7,311.3 695.8,333.5 705.8,240.2 715.9,336.3 725.9,183.9 736.0,283.2 746.1,470.3 756.1,351.1 766.2,342.5 776.2,486.6 786.3,370.3 796.4,398.0 806.4,308.5 816.5,206.0 826.5,201.5 836.6,314.9 846.7,227.4 856.7,316.4 866.8,542.0 876.8,402.0 886.9,246.0 897.0,322.2 907.0,319.4 917.1,311.3 927.2,310.8 937.2,322.6 947.3,357.7 957.3,309.8 967.4,307.2 977.5,233.6 987.5,292.9 997.6,407.4 1007.6,212.2 1017.7,230.6 1027.8,338.0 1037.8,370.8 1047.9,375.7 1057.9,353.4 1068.0,255.4"/>
    <circle cx="72.0" cy="72.8" r="5" fill="#16a34a"><title>Accepted epoch 1, diff 1068</title></circle>
    <circle cx="82.1" cy="299.9" r="5" fill="#16a34a"><title>Accepted epoch 2, diff 7</title></circle>
    <circle cx="92.1" cy="202.5" r="5" fill="#16a34a"><title>Accepted epoch 3, diff 462</title></circle>
    <circle cx="122.3" cy="119.3" r="5" fill="#16a34a"><title>Accepted epoch 6, diff 851</title></circle>
    <circle cx="132.4" cy="250.1" r="5" fill="#16a34a"><title>Accepted epoch 7, diff 240</title></circle>
    <circle cx="142.4" cy="204.5" r="5" fill="#16a34a"><title>Accepted epoch 8, diff 453</title></circle>
    <circle cx="162.5" cy="132.8" r="5" fill="#16a34a"><title>Accepted epoch 10, diff 788</title></circle>
    <circle cx="192.7" cy="123.8" r="5" fill="#16a34a"><title>Accepted epoch 13, diff 830</title></circle>
    <circle cx="202.8" cy="293.9" r="5" fill="#16a34a"><title>Accepted epoch 14, diff 35</title></circle>
    <circle cx="212.8" cy="188.8" r="5" fill="#16a34a"><title>Accepted epoch 15, diff 526</title></circle>
    <circle cx="233.0" cy="280.2" r="5" fill="#16a34a"><title>Accepted epoch 17, diff 99</title></circle>
    <circle cx="243.0" cy="234.6" r="5" fill="#16a34a"><title>Accepted epoch 18, diff 312</title></circle>
    <circle cx="253.1" cy="271.7" r="5" fill="#16a34a"><title>Accepted epoch 19, diff 139</title></circle>
    <circle cx="283.3" cy="256.0" r="5" fill="#16a34a"><title>Accepted epoch 22, diff 212</title></circle>
    <circle cx="293.3" cy="184.6" r="5" fill="#16a34a"><title>Accepted epoch 23, diff 546</title></circle>
    <circle cx="353.7" cy="54.0" r="5" fill="#16a34a"><title>Accepted epoch 29, diff 1156</title></circle>
    <circle cx="393.9" cy="129.8" r="5" fill="#16a34a"><title>Accepted epoch 33, diff 802</title></circle>
    <circle cx="404.0" cy="120.1" r="5" fill="#16a34a"><title>Accepted epoch 34, diff 847</title></circle>
    <circle cx="514.7" cy="67.1" r="5" fill="#16a34a"><title>Accepted epoch 45, diff 1095</title></circle>
    <circle cx="565.0" cy="264.6" r="5" fill="#16a34a"><title>Accepted epoch 50, diff 172</title></circle>
    <circle cx="655.5" cy="301.0" r="5" fill="#16a34a"><title>Accepted epoch 59, diff 2</title></circle>
    <circle cx="705.8" cy="240.2" r="5" fill="#16a34a"><title>Accepted epoch 64, diff 286</title></circle>
    <circle cx="725.9" cy="183.9" r="5" fill="#16a34a"><title>Accepted epoch 66, diff 549</title></circle>
    <circle cx="736.0" cy="283.2" r="5" fill="#16a34a"><title>Accepted epoch 67, diff 85</title></circle>
    <circle cx="816.5" cy="206.0" r="5" fill="#16a34a"><title>Accepted epoch 75, diff 446</title></circle>
    <circle cx="826.5" cy="201.5" r="5" fill="#16a34a"><title>Accepted epoch 76, diff 467</title></circle>
    <circle cx="846.7" cy="227.4" r="5" fill="#16a34a"><title>Accepted epoch 78, diff 346</title></circle>
    <circle cx="886.9" cy="246.0" r="5" fill="#16a34a"><title>Accepted epoch 82, diff 259</title></circle>
    <circle cx="977.5" cy="233.6" r="5" fill="#16a34a"><title>Accepted epoch 91, diff 317</title></circle>
    <circle cx="987.5" cy="292.9" r="5" fill="#16a34a"><title>Accepted epoch 92, diff 40</title></circle>
    <circle cx="1007.6" cy="212.2" r="5" fill="#16a34a"><title>Accepted epoch 94, diff 417</title></circle>
    <circle cx="1017.7" cy="230.6" r="5" fill="#16a34a"><title>Accepted epoch 95, diff 331</title></circle>
    <circle cx="1068.0" cy="255.4" r="5" fill="#16a34a"><title>Accepted epoch 100, diff 215</title></circle>
    <g transform="translate(72, 566.0)" font-size="13" fill="#111827">
      <rect x="0" y="-12" width="14" height="4" fill="#2563eb"/><text x="22" y="-7">Candidate avg goals</text>
      <rect x="190" y="-12" width="14" height="4" fill="#ef4444"/><text x="212" y="-7">Baseline avg goals</text>
      <rect x="378" y="-12" width="14" height="4" fill="#7c3aed"/><text x="400" y="-7">Goal diff</text>
      <circle cx="548" cy="-10" r="5" fill="#16a34a"/><text x="562" y="-7">Accepted improvement</text>
    </g>
  </g>
</svg>
