<?xml version="1.0" encoding="UTF-8"?>
<svg xmlns="http://www.w3.org/2000/svg" width="1100" height="620" viewBox="0 0 1100 620">
  <rect width="100%" height="100%" fill="#ffffff"/>
  <text x="72" y="30" font-family="Arial, sans-serif" font-size="22" font-weight="700" fill="#111827">Training progress</text>
  <text x="1068" y="30" text-anchor="end" font-family="Arial, sans-serif" font-size="13" fill="#4b5563">Final champion epoch: 95</text>
  <g font-family="Arial, sans-serif">
    <line x1="72.0" y1="54.0" x2="72.0" y2="542.0" stroke="#eef2f7" stroke-width="1"/>
    <text x="72.0" y="566.0" text-anchor="middle" font-size="12" fill="#4b5563">1</text>
    <line x1="172.6" y1="54.0" x2="172.6" y2="542.0" stroke="#eef2f7" stroke-width="1"/>
    <text x="172.6" y="566.0" text-anchor="middle" font-size="12" fill="#4b5563">11</text>
    <line x1="273.2" y1="54.0" x2="273.2" y2="542.0" stroke="#eef2f7" stroke-width="1"/>
    <text x="273.2" y="566.0" text-anchor="middle" font-size="12" fill="#4b5563">21</text>
    <line x1="373.8" y1="54.0" x2="373.8" y2="542.0" stroke="#eef2f7" stroke-width="1"/>
    <text x="373.8" y="566.0" text-anchor="middle" font-size="12" fill="#4b5563">31</text>
    <line x1="474.4" y1="54.0" x2="474.4" y2="542.0" stroke="#eef2f7" stroke-width="1"/>
    <text x="474.4" y="566.0" text-anchor="middle" font-size="12" fill="#4b5563">41</text>
    <line x1="575.0" y1="54.0" x2="575.0" y2="542.0" stroke="#eef2f7" stroke-width="1"/>
    <text x="575.0" y="566.0" text-anchor="middle" font-size="12" fill="#4b5563">51</text>
    <line x1="675.6" y1="54.0" x2="675.6" y2="542.0" stroke="#eef2f7" stroke-width="1"/>
    <text x="675.6" y="566.0" text-anchor="middle" font-size="12" fill="#4b5563">61</text>
    <line x1="776.2" y1="54.0" x2="776.2" y2="542.0" stroke="#eef2f7" stroke-width="1"/>
    <text x="776.2" y="566.0" text-anchor="middle" font-size="12" fill="#4b5563">71</text>
    <line x1="876.8" y1="54.0" x2="876.8" y2="542.0" stroke="#eef2f7" stroke-width="1"/>
    <text x="876.8" y="566.0" text-anchor="middle" font-size="12" fill="#4b5563">81</text>
    <line x1="977.5" y1="54.0" x2="977.5" y2="542.0" stroke="#eef2f7" stroke-width="1"/>
    <text x="977.5" y="566.0" text-anchor="middle" font-size="12" fill="#4b5563">91</text>
    <line x1="72.0" y1="542.0" x2="1068.0" y2="542.0" stroke="#d8dee9" stroke-width="1" opacity="0.55"/>
    <text x="60.0" y="546.0" text-anchor="end" font-size="12" fill="#4b5563">-4975.0</text>
    <line x1="72.0" y1="444.4" x2="1068.0" y2="444.4" stroke="#d8dee9" stroke-width="1" opacity="0.55"/>
    <text x="60.0" y="448.4" text-anchor="end" font-size="12" fill="#4b5563">-3454.0</text>
    <line x1="72.0" y1="346.8" x2="1068.0" y2="346.8" stroke="#d8dee9" stroke-width="1" opacity="0.55"/>
    <text x="60.0" y="350.8" text-anchor="end" font-size="12" fill="#4b5563">-1933.0</text>
    <line x1="72.0" y1="249.2" x2="1068.0" y2="249.2" stroke="#d8dee9" stroke-width="1" opacity="0.55"/>
    <text x="60.0" y="253.2" text-anchor="end" font-size="12" fill="#4b5563">-412.0</text>
    <line x1="72.0" y1="151.6" x2="1068.0" y2="151.6" stroke="#d8dee9" stroke-width="1" opacity="0.55"/>
    <text x="60.0" y="155.6" text-anchor="end" font-size="12" fill="#4b5563">1109.0</text>
    <line x1="72.0" y1="54.0" x2="1068.0" y2="54.0" stroke="#d8dee9" stroke-width="1" opacity="0.55"/>
    <text x="60.0" y="58.0" text-anchor="end" font-size="12" fill="#4b5563">2630.0</text>
    <line x1="72.0" y1="54.0" x2="72.0" y2="542.0" stroke="#111827" stroke-width="1.4"/>
    <line x1="72.0" y1="542.0" x2="1068.0" y2="542.0" stroke="#111827" stroke-width="1.4"/>
    <text x="570.0" y="596.0" text-anchor="middle" font-size="13" fill="#111827">Epoch</text>
    <text x="20" y="298.0" transform="rotate(-90 20 298.0)" text-anchor="middle" font-size="13" fill="#111827">Goals / goal diff</text>
    <polyline fill="none" stroke="#2563eb" stroke-width="2.4" points="72.0,222.4 82.1,222.4 92.1,222.3 102.2,222.4 112.2,222.4 122.3,222.4 132.4,222.4 142.4,222.4 152.5,222.4 162.5,222.4 172.6,222.4 182.7,222.4 192.7,222.6 202.8,222.4 212.8,222.4 222.9,222.6 233.0,222.4 243.0,222.6 253.1,222.4 263.2,222.4 273.2,222.4 283.3,222.6 293.3,222.4 303.4,222.4 313.5,222.7 323.5,222.4 333.6,222.4 343.6,222.4 353.7,222.4 363.8,222.5 373.8,222.4 383.9,222.4 393.9,222.4 404.0,222.4 414.1,222.6 424.1,222.4 434.2,222.4 444.2,222.4 454.3,222.4 464.4,222.4 474.4,222.4 484.5,222.4 494.5,222.4 504.6,222.4 514.7,222.4 524.7,222.4 534.8,222.6 544.8,222.4 554.9,222.6 565.0,222.4 575.0,222.4 585.1,222.4 595.2,222.4 605.2,222.4 615.3,222.4 625.3,222.4 635.4,222.4 645.5,222.4 655.5,222.4 665.6,222.4 675.6,222.6 685.7,222.4 695.8,222.4 705.8,222.4 715.9,222.4 725.9,222.4 736.0,222.5 746.1,222.4 756.1,222.4 766.2,222.4 776.2,222.3 786.3,222.4 796.4,222.4 806.4,222.4 816.5,222.4 826.5,222.4 836.6,222.4 846.7,222.6 856.7,222.4 866.8,222.4 876.8,222.3 886.9,222.3 897.0,222.6 907.0,222.3 917.1,222.4 927.2,222.4 937.2,222.4 947.3,222.3 957.3,222.4 967.4,222.3 977.5,222.3 987.5,222.4 997.6,222.4 1007.6,222.4 1017.7,222.3 1027.8,222.4 1037.8,222.4 1047.9,222.4 1057.9,222.4 1068.0,222.4"/>
    <polyline fill="none" stroke="#ef4444" stroke-width="2.4" points="72.0,222.4 82.1,222.4 92.1,222.4 102.2,222.3 112.2,222.3 122.3,222.4 132.4,222.4 142.4,222.4 152.5,222.4 162.5,222.4 172.6,222.4 182.7,222.3 192.7,222.5 202.8,222.4 212.8,222.4 222.9,222.5 233.0,222.4 243.0,222.5 253.1,222.4 263.2,222.4 273.2,222.4 283.3,222.5 293.3,222.4 303.4,222.4 313.5,222.6 323.5,222.4 333.6,222.3 343.6,222.4 353.7,222.4 363.8,222.4 373.8,222.4 383.9,222.4 393.9,222.4 404.0,222.3 414.1,222.5 424.1,222.4 434.2,222.3 444.2,222.3 454.3,222.4 464.4,222.4 474.4,222.4 484.5,222.4 494.5,222.4 504.6,222.4 514.7,222.4 524.7,222.4 534.8,222.4 544.8,222.4 554.9,222.5 565.0,222.4 575.0,222.4 585.1,222.3 595.2,222.3 605.2,222.3 615.3,222.4 625.3,222.4 635.4,222.4 645.5,222.4 655.5,222.4 665.6,222.4 675.6,222.5 685.7,222.3 695.8,222.4 705.8,222.4 715.9,222.3 725.9,222.4 736.0,222.4 746.1,222.4 756.1,222.3 766.2,222.4 776.2,222.4 786.3,222.3 796.4,222.4 806.4,222.3 816.5,222.4 826.5,222.4 836.6,222.4 846.7,222.5 856.7,222.4 866.8,222.3 876.8,222.4 886.9,222.4 897.0,222.5 907.0,222.4 917.1,222.4 927.2,222.4 937.2,222.4 947.3,222.4 957.3,222.4 967.4,222.4 977.5,222.4 987.5,222.3 997.6,222.3 1007.6,222.4 1017.7,222.3 1027.8,222.3 1037.8,222.3 1047.9,222.3 1057.9,222.4 1068.0,222.3"/>
    <polyline fill="none" stroke="#7c3aed" stroke-width="2" stroke-dasharray="6 5" points="72.0,433.7 82.1,310.0 92.1,78.0 102.2,367.6 112.2,475.6 122.3,386.3 132.4,462.0 142.4,227.2 152.5,364.2 162.5,446.9 172.6,167.8 182.7,356.7 192.7,234.9 202.8,529.7 212.8,465.8 222.9,235.8 233.0,146.1 243.0,233.1 253.1,214.2 263.2,376.4 273.2,186.0 283.3,232.9 293.3,498.8 303.4,259.3 313.5,231.5 323.5,140.1 333.6,349.2 343.6,223.4 353.7,160.3 363.8,233.0 373.8,291.9 383.9,370.0 393.9,255.2 404.0,284.0 414.1,230.1 424.1,242.3 434.2,452.7 444.2,259.2 454.3,432.1 464.4,339.7 474.4,166.0 484.5,253.8 494.5,287.8 504.6,239.7 514.7,116.0 524.7,195.2 534.8,238.0 544.8,367.5 554.9,235.4 565.0,368.7 575.0,246.6 585.1,527.8 595.2,287.1 605.2,526.0 615.3,381.3 625.3,273.4 635.4,202.4 645.5,194.3 655.5,191.8 665.6,542.0 675.6,235.3 685.7,444.3 695.8,306.5 705.8,231.5 715.9,438.7 725.9,242.3 736.0,235.0 746.1,203.6 756.1,453.1 766.2,292.8 776.2,181.4 786.3,238.5 796.4,234.6 806.4,317.0 816.5,316.9 826.5,258.6 836.6,147.2 846.7,235.5 856.7,274.4 866.8,420.0 876.8,136.1 886.9,176.2 897.0,233.2 907.0,132.4 917.1,288.6 927.2,331.7 937.2,206.8 947.3,183.6 957.3,238.6 967.4,164.6 977.5,54.0 987.5,355.7 997.6,333.9 1007.6,276.5 1017.7,170.5 1027.8,470.3 1037.8,360.8 1047.9,297.8 1057.9,361.5 1068.0,265.2"/>
    <circle cx="92.1" cy="78.0" r="5" fill="#16a34a"><title>Accepted epoch 3, diff 2256</title></circle>
    <circle cx="172.6" cy="167.8" r="5" fill="#16a34a"><title>Accepted epoch 11, diff 856</title></circle>
    <circle cx="233.0" cy="146.1" r="5" fill="#16a34a"><title>Accepted epoch 17, diff 1194</title></circle>
    <circle cx="253.1" cy="214.2" r="5" fill="#16a34a"><title>Accepted epoch 19, diff 133</title></circle>
    <circle cx="273.2" cy="186.0" r="5" fill="#16a34a"><title>Accepted epoch 21, diff 573</title></circle>
    <circle cx="323.5" cy="140.1" r="5" fill="#16a34a"><title>Accepted epoch 26, diff 1288</title></circle>
    <circle cx="353.7" cy="160.3" r="5" fill="#16a34a"><title>Accepted epoch 29, diff 974</title></circle>
    <circle cx="474.4" cy="166.0" r="5" fill="#16a34a"><title>Accepted epoch 41, diff 885</title></circle>
    <circle cx="514.7" cy="116.0" r="5" fill="#16a34a"><title>Accepted epoch 45, diff 1664</title></circle>
    <circle cx="524.7" cy="195.2" r="5" fill="#16a34a"><title>Accepted epoch 46, diff 429</title></circle>
    <circle cx="635.4" cy="202.4" r="5" fill="#16a34a"><title>Accepted epoch 57, diff 318</title></circle>
    <circle cx="645.5" cy="194.3" r="5" fill="#16a34a"><title>Accepted epoch 58, diff 443</title></circle>
    <circle cx="655.5" cy="191.8" r="5" fill="#16a34a"><title>Accepted epoch 59, diff 482</title></circle>
    <circle cx="746.1" cy="203.6" r="5" fill="#16a34a"><title>Accepted epoch 68, diff 299</title></circle>
    <circle cx="776.2" cy="181.4" r="5" fill="#16a34a"><title>Accepted epoch 71, diff 644</title></circle>
    <circle cx="836.6" cy="147.2" r="5" fill="#16a34a"><title>Accepted epoch 77, diff 1177</title></circle>
    <circle cx="876.8" cy="136.1" r="5" fill="#16a34a"><title>Accepted epoch 81, diff 1351</title></circle>
    <circle cx="886.9" cy="176.2" r="5" fill="#16a34a"><title>Accepted epoch 82, diff 725</title></circle>
    <circle cx="907.0" cy="132.4" r="5" fill="#16a34a"><title>Accepted epoch 84, diff 1408</title></circle>
    <circle cx="937.2" cy="206.8" r="5" fill="#16a34a"><title>Accepted epoch 87, diff 249</title></circle>
    <circle cx="947.3" cy="183.6" r="5" fill="#16a34a"><title>Accepted epoch 88, diff 611</title></circle>
    <circle cx="967.4" cy="164.6" r="5" fill="#16a34a"><title>Accepted epoch 90, diff 906</title></circle>
    <circle cx="977.5" cy="54.0" r="5" fill="#16a34a"><title>Accepted epoch 91, diff 2630</title></circle>
    <circle cx="1017.7" cy="170.5" r="5" fill="#16a34a"><title>Accepted epoch 95, diff 815</title></circle>
    <g transform="translate(72, 566.0)" font-size="13" fill="#111827">
      <rect x="0" y="-12" width="14" height="4" fill="#2563eb"/><text x="22" y="-7">Candidate avg goals</text>
      <rect x="190" y="-12" width="14" height="4" fill="#ef4444"/><text x="212" y="-7">Baseline avg goals</text>
      <rect x="378" y="-12" width="14" height="4" fill="#7c3aed"/><text x="400" y="-7">Goal diff</text>
      <circle cx="548" cy="-10" r="5" fill="#16a34a"/><text x="562" y="-7">Accepted improvement</text>
    </g>
  </g>
</svg>
