<?xml version="1.0" encoding="UTF-8"?>
<svg xmlns="http://www.w3.org/2000/svg" width="1100" height="620" viewBox="0 0 1100 620">
  <rect width="100%" height="100%" fill="#ffffff"/>
  <text x="72" y="30" font-family="Arial, sans-serif" font-size="22" font-weight="700" fill="#111827">Training progress</text>
  <text x="1068" y="30" text-anchor="end" font-family="Arial, sans-serif" font-size="13" fill="#4b5563">Final champion epoch: 200</text>
  <g font-family="Arial, sans-serif">
    <line x1="72.0" y1="54.0" x2="72.0" y2="542.0" stroke="#eef2f7" stroke-width="1"/>
    <text x="72.0" y="566.0" text-anchor="middle" font-size="12" fill="#4b5563">1</text>
    <line x1="172.1" y1="54.0" x2="172.1" y2="542.0" stroke="#eef2f7" stroke-width="1"/>
    <text x="172.1" y="566.0" text-anchor="middle" font-size="12" fill="#4b5563">21</text>
    <line x1="272.2" y1="54.0" x2="272.2" y2="542.0" stroke="#eef2f7" stroke-width="1"/>
    <text x="272.2" y="566.0" text-anchor="middle" font-size="12" fill="#4b5563">41</text>
    <line x1="372.3" y1="54.0" x2="372.3" y2="542.0" stroke="#eef2f7" stroke-width="1"/>
    <text x="372.3" y="566.0" text-anchor="middle" font-size="12" fill="#4b5563">61</text>
    <line x1="472.4" y1="54.0" x2="472.4" y2="542.0" stroke="#eef2f7" stroke-width="1"/>
    <text x="472.4" y="566.0" text-anchor="middle" font-size="12" fill="#4b5563">81</text>
    <line x1="572.5" y1="54.0" x2="572.5" y2="542.0" stroke="#eef2f7" stroke-width="1"/>
    <text x="572.5" y="566.0" text-anchor="middle" font-size="12" fill="#4b5563">101</text>
    <line x1="672.6" y1="54.0" x2="672.6" y2="542.0" stroke="#eef2f7" stroke-width="1"/>
    <text x="672.6" y="566.0" text-anchor="middle" font-size="12" fill="#4b5563">121</text>
    <line x1="772.7" y1="54.0" x2="772.7" y2="542.0" stroke="#eef2f7" stroke-width="1"/>
    <text x="772.7" y="566.0" text-anchor="middle" font-size="12" fill="#4b5563">141</text>
    <line x1="872.8" y1="54.0" x2="872.8" y2="542.0" stroke="#eef2f7" stroke-width="1"/>
    <text x="872.8" y="566.0" text-anchor="middle" font-size="12" fill="#4b5563">161</text>
    <line x1="972.9" y1="54.0" x2="972.9" y2="542.0" stroke="#eef2f7" stroke-width="1"/>
    <text x="972.9" y="566.0" text-anchor="middle" font-size="12" fill="#4b5563">181</text>
    <line x1="72.0" y1="542.0" x2="1068.0" y2="542.0" stroke="#d8dee9" stroke-width="1" opacity="0.55"/>
    <text x="60.0" y="546.0" text-anchor="end" font-size="12" fill="#4b5563">-1093.0</text>
    <line x1="72.0" y1="444.4" x2="1068.0" y2="444.4" stroke="#d8dee9" stroke-width="1" opacity="0.55"/>
    <text x="60.0" y="448.4" text-anchor="end" font-size="12" fill="#4b5563">-773.8</text>
    <line x1="72.0" y1="346.8" x2="1068.0" y2="346.8" stroke="#d8dee9" stroke-width="1" opacity="0.55"/>
    <text x="60.0" y="350.8" text-anchor="end" font-size="12" fill="#4b5563">-454.6</text>
    <line x1="72.0" y1="249.2" x2="1068.0" y2="249.2" stroke="#d8dee9" stroke-width="1" opacity="0.55"/>
    <text x="60.0" y="253.2" text-anchor="end" font-size="12" fill="#4b5563">-135.4</text>
    <line x1="72.0" y1="151.6" x2="1068.0" y2="151.6" stroke="#d8dee9" stroke-width="1" opacity="0.55"/>
    <text x="60.0" y="155.6" text-anchor="end" font-size="12" fill="#4b5563">183.8</text>
    <line x1="72.0" y1="54.0" x2="1068.0" y2="54.0" stroke="#d8dee9" stroke-width="1" opacity="0.55"/>
    <text x="60.0" y="58.0" text-anchor="end" font-size="12" fill="#4b5563">503.0</text>
    <line x1="72.0" y1="54.0" x2="72.0" y2="542.0" stroke="#111827" stroke-width="1.4"/>
    <line x1="72.0" y1="542.0" x2="1068.0" y2="542.0" stroke="#111827" stroke-width="1.4"/>
    <text x="570.0" y="596.0" text-anchor="middle" font-size="13" fill="#111827">Epoch</text>
    <text x="20" y="298.0" transform="rotate(-90 20 298.0)" text-anchor="middle" font-size="13" fill="#111827">Goals / goal diff</text>
    <polyline fill="none" stroke="#2563eb" stroke-width="2.4" points="72.0,206.1 77.0,207.4 82.0,206.2 87.0,205.9 92.0,206.0 97.0,205.9 102.0,206.0 107.0,205.9 112.0,207.5 117.0,205.9 122.1,206.0 127.1,205.9 132.1,205.9 137.1,206.0 142.1,206.0 147.1,207.8 152.1,206.8 157.1,206.0 162.1,206.9 167.1,207.5 172.1,205.9 177.1,206.1 182.1,205.9 187.1,206.4 192.1,205.9 197.1,205.9 202.1,206.1 207.1,206.0 212.1,206.1 217.1,206.4 222.2,207.3 227.2,206.4 232.2,207.0 237.2,206.0 242.2,205.9 247.2,207.5 252.2,205.9 257.2,205.9 262.2,206.0 267.2,207.2 272.2,206.7 277.2,206.1 282.2,206.0 287.2,205.9 292.2,205.9 297.2,206.0 302.2,205.9 307.2,206.0 312.2,206.7 317.2,205.9 322.3,206.2 327.3,205.9 332.3,206.1 337.3,206.8 342.3,206.5 347.3,206.6 352.3,205.9 357.3,205.9 362.3,205.9 367.3,205.9 372.3,207.6 377.3,206.0 382.3,205.9 387.3,206.0 392.3,206.0 397.3,206.1 402.3,207.8 407.3,205.9 412.3,205.9 417.3,206.6 422.4,206.3 427.4,206.5 432.4,206.3 437.4,207.5 442.4,207.8 447.4,205.9 452.4,206.0 457.4,206.0 462.4,207.2 467.4,207.6 472.4,205.9 477.4,207.8 482.4,205.9 487.4,207.0 492.4,206.0 497.4,205.9 502.4,205.9 507.4,206.0 512.4,205.9 517.4,207.5 522.5,206.0 527.5,205.9 532.5,205.9 537.5,205.9 542.5,206.2 547.5,207.6 552.5,205.9 557.5,205.9 562.5,206.0 567.5,205.9 572.5,205.9 577.5,206.2 582.5,206.4 587.5,206.0 592.5,206.0 597.5,206.0 602.5,205.9 607.5,206.0 612.5,205.9 617.5,207.1 622.6,206.0 627.6,206.0 632.6,206.0 637.6,206.1 642.6,205.9 647.6,206.2 652.6,205.9 657.6,206.0 662.6,206.0 667.6,206.3 672.6,205.9 677.6,205.9 682.6,205.9 687.6,206.0 692.6,206.5 697.6,205.9 702.6,205.9 707.6,205.9 712.6,206.3 717.6,206.0 722.7,205.9 727.7,206.0 732.7,207.6 737.7,206.2 742.7,206.4 747.7,206.1 752.7,207.6 757.7,206.0 762.7,206.0 767.7,205.9 772.7,206.0 777.7,205.9 782.7,205.9 787.7,206.1 792.7,206.2 797.7,206.8 802.7,205.9 807.7,206.6 812.7,206.0 817.7,206.0 822.8,206.0 827.8,206.0 832.8,206.0 837.8,206.0 842.8,206.0 847.8,206.2 852.8,206.1 857.8,206.0 862.8,206.0 867.8,206.0 872.8,206.4 877.8,206.0 882.8,206.2 887.8,206.0 892.8,206.0 897.8,206.1 902.8,206.0 907.8,206.0 912.8,206.0 917.8,205.9 922.9,206.0 927.9,206.0 932.9,206.2 937.9,206.0 942.9,206.0 947.9,206.0 952.9,206.0 957.9,206.4 962.9,206.2 967.9,206.0 972.9,206.3 977.9,206.0 982.9,206.0 987.9,206.0 992.9,206.0 997.9,207.6 1002.9,206.1 1007.9,207.8 1012.9,207.0 1017.9,206.5 1023.0,206.0 1028.0,206.0 1033.0,206.0 1038.0,206.0 1043.0,206.0 1048.0,206.1 1053.0,206.5 1058.0,206.0 1063.0,206.0 1068.0,206.0"/>
    <polyline fill="none" stroke="#ef4444" stroke-width="2.4" points="72.0,205.9 77.0,206.9 82.0,206.1 87.0,205.9 92.0,206.0 97.0,205.9 102.0,205.9 107.0,205.9 112.0,206.8 117.0,205.9 122.1,205.9 127.1,205.9 132.1,205.9 137.1,206.0 142.1,205.9 147.1,207.0 152.1,206.5 157.1,205.9 162.1,206.4 167.1,207.2 172.1,205.9 177.1,205.9 182.1,205.9 187.1,206.2 192.1,205.9 197.1,205.9 202.1,206.0 207.1,205.9 212.1,205.9 217.1,206.2 222.2,206.8 227.2,206.0 232.2,206.7 237.2,205.9 242.2,205.9 247.2,207.1 252.2,205.9 257.2,205.9 262.2,205.9 267.2,206.8 272.2,206.3 277.2,206.0 282.2,205.9 287.2,205.9 292.2,205.9 297.2,205.8 302.2,205.9 307.2,205.9 312.2,206.4 317.2,205.9 322.3,206.0 327.3,205.9 332.3,205.9 337.3,206.4 342.3,206.2 347.3,206.3 352.3,205.9 357.3,205.9 362.3,205.9 367.3,205.9 372.3,207.0 377.3,206.0 382.3,205.9 387.3,206.0 392.3,205.9 397.3,205.9 402.3,207.2 407.3,205.9 412.3,205.9 417.3,206.3 422.4,205.9 427.4,206.1 432.4,206.1 437.4,207.0 442.4,207.2 447.4,205.9 452.4,206.0 457.4,205.9 462.4,206.7 467.4,207.0 472.4,205.9 477.4,207.3 482.4,205.9 487.4,206.4 492.4,205.8 497.4,205.9 502.4,205.9 507.4,206.0 512.4,205.9 517.4,207.0 522.5,205.8 527.5,205.9 532.5,205.9 537.5,205.9 542.5,206.1 547.5,207.0 552.5,205.9 557.5,205.9 562.5,205.9 567.5,205.9 572.5,205.9 577.5,205.9 582.5,206.1 587.5,205.9 592.5,206.0 597.5,205.9 602.5,205.9 607.5,205.9 612.5,205.9 617.5,206.5 622.6,205.9 627.6,205.9 632.6,206.0 637.6,206.0 642.6,205.9 647.6,206.0 652.6,205.9 657.6,205.9 662.6,205.9 667.6,206.0 672.6,205.9 677.6,205.9 682.6,205.9 687.6,205.9 692.6,206.2 697.6,205.9 702.6,205.9 707.6,205.9 712.6,206.0 717.6,205.9 722.7,205.9 727.7,205.9 732.7,206.8 737.7,206.0 742.7,206.0 747.7,206.0 752.7,206.7 757.7,206.0 762.7,206.0 767.7,205.9 772.7,205.9 777.7,205.9 782.7,205.9 787.7,206.0 792.7,206.0 797.7,206.3 802.7,205.9 807.7,206.3 812.7,205.9 817.7,205.9 822.8,205.9 827.8,205.9 832.8,206.0 837.8,206.0 842.8,205.9 847.8,206.0 852.8,206.0 857.8,206.0 862.8,206.0 867.8,206.0 872.8,206.2 877.8,206.0 882.8,206.1 887.8,206.0 892.8,206.0 897.8,206.0 902.8,206.0 907.8,206.0 912.8,206.0 917.8,206.0 922.9,206.0 927.9,205.9 932.9,206.0 937.9,205.9 942.9,206.0 947.9,206.0 952.9,206.0 957.9,206.2 962.9,206.1 967.9,205.9 972.9,206.1 977.9,206.0 982.9,206.0 987.9,206.0 992.9,206.0 997.9,207.0 1002.9,206.0 1007.9,207.3 1012.9,206.4 1017.9,206.2 1023.0,206.0 1028.0,206.0 1033.0,206.0 1038.0,206.0 1043.0,206.0 1048.0,206.0 1053.0,206.3 1058.0,205.9 1063.0,206.0 1068.0,206.0"/>
    <polyline fill="none" stroke="#7c3aed" stroke-width="2" stroke-dasharray="6 5" points="72.0,371.4 77.0,252.1 82.0,370.2 87.0,199.5 92.0,516.6 97.0,400.7 102.0,399.2 107.0,84.0 112.0,277.8 117.0,192.5 122.1,451.8 127.1,411.7 132.1,213.3 137.1,436.2 142.1,356.7 147.1,287.6 152.1,250.0 157.1,418.2 162.1,260.1 167.1,242.7 172.1,372.6 177.1,320.6 182.1,254.0 187.1,274.5 192.1,188.2 197.1,288.2 202.1,360.7 207.1,365.3 212.1,357.6 217.1,303.5 222.2,255.5 227.2,265.3 232.2,239.3 237.2,467.1 242.2,417.9 247.2,252.1 252.2,210.6 257.2,175.7 262.2,542.0 267.2,247.9 272.2,247.9 277.2,390.6 282.2,517.8 287.2,189.8 292.2,162.5 297.2,334.7 302.2,174.8 307.2,434.7 312.2,254.3 317.2,295.2 322.3,280.9 327.3,386.7 332.3,297.4 337.3,253.1 342.3,262.8 347.3,269.3 352.3,126.5 357.3,171.7 362.3,316.7 367.3,248.2 372.3,264.7 377.3,390.6 382.3,306.9 387.3,481.2 392.3,453.0 397.3,306.6 402.3,261.6 407.3,371.1 412.3,366.8 417.3,276.9 422.4,251.2 427.4,250.9 432.4,275.1 437.4,261.0 442.4,268.0 447.4,158.9 452.4,325.2 457.4,447.2 462.4,264.1 467.4,263.4 472.4,413.6 477.4,256.7 482.4,287.6 487.4,261.0 492.4,283.9 497.4,112.7 502.4,290.7 507.4,508.7 512.4,105.1 517.4,259.8 522.5,402.3 527.5,124.0 532.5,321.2 537.5,278.7 542.5,323.1 547.5,261.6 552.5,219.7 557.5,264.1 562.5,472.6 567.5,358.5 572.5,454.2 577.5,266.5 582.5,267.1 587.5,372.9 592.5,456.7 597.5,450.0 602.5,338.7 607.5,377.2 612.5,118.8 617.5,268.3 622.6,392.8 627.6,501.6 632.6,337.1 637.6,439.9 642.6,202.3 647.6,339.6 652.6,166.2 657.6,481.8 662.6,357.3 667.6,280.9 672.6,405.6 677.6,181.2 682.6,341.1 687.6,516.6 692.6,265.9 697.6,269.9 702.6,380.6 707.6,54.0 712.6,279.3 717.6,456.7 722.7,182.1 727.7,495.8 732.7,281.2 737.7,286.7 742.7,258.3 747.7,359.5 752.7,289.1 757.7,223.7 762.7,540.8 767.7,239.0 772.7,484.5 777.7,351.8 782.7,148.5 787.7,363.1 792.7,313.6 797.7,255.5 802.7,208.1 807.7,246.3 812.7,366.8 817.7,287.3 822.8,230.7 827.8,511.7 832.8,516.3 837.8,328.0 842.8,352.7 847.8,297.7 852.8,481.8 857.8,202.3 862.8,240.2 867.8,254.9 872.8,281.8 877.8,291.3 882.8,388.2 887.8,411.4 892.8,213.3 897.8,469.2 902.8,274.5 907.8,413.3 912.8,283.6 917.8,114.5 922.9,424.0 927.9,472.3 932.9,335.3 937.9,455.5 942.9,291.0 947.9,276.9 952.9,305.6 957.9,286.7 962.9,327.0 967.9,408.7 972.9,323.7 977.9,331.9 982.9,434.4 987.9,433.8 992.9,354.3 997.9,267.1 1002.9,359.2 1007.9,262.2 1012.9,269.0 1017.9,254.3 1023.0,230.1 1028.0,214.2 1033.0,343.6 1038.0,329.5 1043.0,215.7 1048.0,455.8 1053.0,274.8 1058.0,470.8 1063.0,224.9 1068.0,207.2"/>
    <circle cx="87.0" cy="199.5" r="5" fill="#16a34a"><title>Accepted epoch 4, diff 27</title></circle>
    <circle cx="107.0" cy="84.0" r="5" fill="#16a34a"><title>Accepted epoch 8, diff 405</title></circle>
    <circle cx="117.0" cy="192.5" r="5" fill="#16a34a"><title>Accepted epoch 10, diff 50</title></circle>
    <circle cx="192.1" cy="188.2" r="5" fill="#16a34a"><title>Accepted epoch 25, diff 64</title></circle>
    <circle cx="257.2" cy="175.7" r="5" fill="#16a34a"><title>Accepted epoch 38, diff 105</title></circle>
    <circle cx="287.2" cy="189.8" r="5" fill="#16a34a"><title>Accepted epoch 44, diff 59</title></circle>
    <circle cx="292.2" cy="162.5" r="5" fill="#16a34a"><title>Accepted epoch 45, diff 148</title></circle>
    <circle cx="302.2" cy="174.8" r="5" fill="#16a34a"><title>Accepted epoch 47, diff 108</title></circle>
    <circle cx="352.3" cy="126.5" r="5" fill="#16a34a"><title>Accepted epoch 57, diff 266</title></circle>
    <circle cx="357.3" cy="171.7" r="5" fill="#16a34a"><title>Accepted epoch 58, diff 118</title></circle>
    <circle cx="447.4" cy="158.9" r="5" fill="#16a34a"><title>Accepted epoch 76, diff 160</title></circle>
    <circle cx="497.4" cy="112.7" r="5" fill="#16a34a"><title>Accepted epoch 86, diff 311</title></circle>
    <circle cx="512.4" cy="105.1" r="5" fill="#16a34a"><title>Accepted epoch 89, diff 336</title></circle>
    <circle cx="527.5" cy="124.0" r="5" fill="#16a34a"><title>Accepted epoch 92, diff 274</title></circle>
    <circle cx="612.5" cy="118.8" r="5" fill="#16a34a"><title>Accepted epoch 109, diff 291</title></circle>
    <circle cx="642.6" cy="202.3" r="5" fill="#16a34a"><title>Accepted epoch 115, diff 18</title></circle>
    <circle cx="652.6" cy="166.2" r="5" fill="#16a34a"><title>Accepted epoch 117, diff 136</title></circle>
    <circle cx="677.6" cy="181.2" r="5" fill="#16a34a"><title>Accepted epoch 122, diff 87</title></circle>
    <circle cx="707.6" cy="54.0" r="5" fill="#16a34a"><title>Accepted epoch 128, diff 503</title></circle>
    <circle cx="722.7" cy="182.1" r="5" fill="#16a34a"><title>Accepted epoch 131, diff 84</title></circle>
    <circle cx="782.7" cy="148.5" r="5" fill="#16a34a"><title>Accepted epoch 143, diff 194</title></circle>
    <circle cx="857.8" cy="202.3" r="5" fill="#16a34a"><title>Accepted epoch 158, diff 18</title></circle>
    <circle cx="917.8" cy="114.5" r="5" fill="#16a34a"><title>Accepted epoch 170, diff 305</title></circle>
    <circle cx="1068.0" cy="207.2" r="5" fill="#16a34a"><title>Accepted epoch 200, diff 2</title></circle>
    <g transform="translate(72, 566.0)" font-size="13" fill="#111827">
      <rect x="0" y="-12" width="14" height="4" fill="#2563eb"/><text x="22" y="-7">Candidate avg goals</text>
      <rect x="190" y="-12" width="14" height="4" fill="#ef4444"/><text x="212" y="-7">Baseline avg goals</text>
      <rect x="378" y="-12" width="14" height="4" fill="#7c3aed"/><text x="400" y="-7">Goal diff</text>
      <circle cx="548" cy="-10" r="5" fill="#16a34a"/><text x="562" y="-7">Accepted improvement</text>
    </g>
  </g>
</svg>
