<?xml version="1.0" encoding="UTF-8"?>
<svg xmlns="http://www.w3.org/2000/svg" width="1100" height="620" viewBox="0 0 1100 620">
  <rect width="100%" height="100%" fill="#ffffff"/>
  <text x="72" y="30" font-family="Arial, sans-serif" font-size="22" font-weight="700" fill="#111827">Training progress</text>
  <text x="1068" y="30" text-anchor="end" font-family="Arial, sans-serif" font-size="13" fill="#4b5563">Final champion epoch: 95</text>
  <g font-family="Arial, sans-serif">
    <line x1="72.0" y1="54.0" x2="72.0" y2="542.0" stroke="#eef2f7" stroke-width="1"/>
    <text x="72.0" y="566.0" text-anchor="middle" font-size="12" fill="#4b5563">1</text>
    <line x1="172.6" y1="54.0" x2="172.6" y2="542.0" stroke="#eef2f7" stroke-width="1"/>
    <text x="172.6" y="566.0" text-anchor="middle" font-size="12" fill="#4b5563">11</text>
    <line x1="273.2" y1="54.0" x2="273.2" y2="542.0" stroke="#eef2f7" stroke-width="1"/>
    <text x="273.2" y="566.0" text-anchor="middle" font-size="12" fill="#4b5563">21</text>
    <line x1="373.8" y1="54.0" x2="373.8" y2="542.0" stroke="#eef2f7" stroke-width="1"/>
    <text x="373.8" y="566.0" text-anchor="middle" font-size="12" fill="#4b5563">31</text>
    <line x1="474.4" y1="54.0" x2="474.4" y2="542.0" stroke="#eef2f7" stroke-width="1"/>
    <text x="474.4" y="566.0" text-anchor="middle" font-size="12" fill="#4b5563">41</text>
    <line x1="575.0" y1="54.0" x2="575.0" y2="542.0" stroke="#eef2f7" stroke-width="1"/>
    <text x="575.0" y="566.0" text-anchor="middle" font-size="12" fill="#4b5563">51</text>
    <line x1="675.6" y1="54.0" x2="675.6" y2="542.0" stroke="#eef2f7" stroke-width="1"/>
    <text x="675.6" y="566.0" text-anchor="middle" font-size="12" fill="#4b5563">61</text>
    <line x1="776.2" y1="54.0" x2="776.2" y2="542.0" stroke="#eef2f7" stroke-width="1"/>
    <text x="776.2" y="566.0" text-anchor="middle" font-size="12" fill="#4b5563">71</text>
    <line x1="876.8" y1="54.0" x2="876.8" y2="542.0" stroke="#eef2f7" stroke-width="1"/>
    <text x="876.8" y="566.0" text-anchor="middle" font-size="12" fill="#4b5563">81</text>
    <line x1="977.5" y1="54.0" x2="977.5" y2="542.0" stroke="#eef2f7" stroke-width="1"/>
    <text x="977.5" y="566.0" text-anchor="middle" font-size="12" fill="#4b5563">91</text>
    <line x1="72.0" y1="542.0" x2="1068.0" y2="542.0" stroke="#d8dee9" stroke-width="1" opacity="0.55"/>
    <text x="60.0" y="546.0" text-anchor="end" font-size="12" fill="#4b5563">-4790.0</text>
    <line x1="72.0" y1="444.4" x2="1068.0" y2="444.4" stroke="#d8dee9" stroke-width="1" opacity="0.55"/>
    <text x="60.0" y="448.4" text-anchor="end" font-size="12" fill="#4b5563">-3096.6</text>
    <line x1="72.0" y1="346.8" x2="1068.0" y2="346.8" stroke="#d8dee9" stroke-width="1" opacity="0.55"/>
    <text x="60.0" y="350.8" text-anchor="end" font-size="12" fill="#4b5563">-1403.2</text>
    <line x1="72.0" y1="249.2" x2="1068.0" y2="249.2" stroke="#d8dee9" stroke-width="1" opacity="0.55"/>
    <text x="60.0" y="253.2" text-anchor="end" font-size="12" fill="#4b5563">290.2</text>
    <line x1="72.0" y1="151.6" x2="1068.0" y2="151.6" stroke="#d8dee9" stroke-width="1" opacity="0.55"/>
    <text x="60.0" y="155.6" text-anchor="end" font-size="12" fill="#4b5563">1983.6</text>
    <line x1="72.0" y1="54.0" x2="1068.0" y2="54.0" stroke="#d8dee9" stroke-width="1" opacity="0.55"/>
    <text x="60.0" y="58.0" text-anchor="end" font-size="12" fill="#4b5563">3677.0</text>
    <line x1="72.0" y1="54.0" x2="72.0" y2="542.0" stroke="#111827" stroke-width="1.4"/>
    <line x1="72.0" y1="542.0" x2="1068.0" y2="542.0" stroke="#111827" stroke-width="1.4"/>
    <text x="570.0" y="596.0" text-anchor="middle" font-size="13" fill="#111827">Epoch</text>
    <text x="20" y="298.0" transform="rotate(-90 20 298.0)" text-anchor="middle" font-size="13" fill="#111827">Goals / goal diff</text>
    <polyline fill="none" stroke="#2563eb" stroke-width="2.4" points="72.0,265.6 82.1,265.6 92.1,265.6 102.2,265.6 112.2,265.6 122.3,265.6 132.4,265.6 142.4,265.6 152.5,265.6 162.5,265.6 172.6,265.6 182.7,265.6 192.7,265.6 202.8,265.6 212.8,265.6 222.9,265.6 233.0,265.6 243.0,265.6 253.1,265.6 263.2,265.6 273.2,265.6 283.3,265.6 293.3,265.6 303.4,265.6 313.5,265.6 323.5,265.6 333.6,265.6 343.6,265.6 353.7,265.6 363.8,265.6 373.8,265.7 383.9,265.6 393.9,265.6 404.0,265.6 414.1,265.6 424.1,265.6 434.2,265.6 444.2,265.7 454.3,265.6 464.4,265.6 474.4,265.8 484.5,265.6 494.5,265.8 504.6,265.6 514.7,265.6 524.7,265.6 534.8,265.6 544.8,265.6 554.9,265.6 565.0,265.6 575.0,265.6 585.1,265.6 595.2,265.6 605.2,265.6 615.3,265.6 625.3,265.6 635.4,265.6 645.5,265.6 655.5,265.6 665.6,265.6 675.6,265.6 685.7,265.6 695.8,265.6 705.8,265.6 715.9,265.8 725.9,265.6 736.0,265.6 746.1,265.6 756.1,265.6 766.2,265.6 776.2,265.6 786.3,265.6 796.4,265.8 806.4,265.6 816.5,265.6 826.5,265.6 836.6,265.7 846.7,265.6 856.7,265.6 866.8,265.6 876.8,265.6 886.9,265.6 897.0,265.7 907.0,265.6 917.1,265.6 927.2,265.6 937.2,265.6 947.3,265.6 957.3,265.6 967.4,265.6 977.5,265.6 987.5,265.6 997.6,265.6 1007.6,265.6 1017.7,265.6 1027.8,265.6 1037.8,265.6 1047.9,265.6 1057.9,265.8 1068.0,265.6"/>
    <polyline fill="none" stroke="#ef4444" stroke-width="2.4" points="72.0,265.6 82.1,265.6 92.1,265.6 102.2,265.6 112.2,265.6 122.3,265.6 132.4,265.6 142.4,265.6 152.5,265.6 162.5,265.6 172.6,265.6 182.7,265.6 192.7,265.6 202.8,265.6 212.8,265.6 222.9,265.6 233.0,265.6 243.0,265.6 253.1,265.6 263.2,265.6 273.2,265.6 283.3,265.6 293.3,265.6 303.4,265.6 313.5,265.6 323.5,265.6 333.6,265.6 343.6,265.6 353.7,265.6 363.8,265.6 373.8,265.6 383.9,265.6 393.9,265.6 404.0,265.6 414.1,265.6 424.1,265.6 434.2,265.6 444.2,265.6 454.3,265.6 464.4,265.6 474.4,265.7 484.5,265.6 494.5,265.7 504.6,265.6 514.7,265.6 524.7,265.6 534.8,265.6 544.8,265.5 554.9,265.6 565.0,265.6 575.0,265.6 585.1,265.6 595.2,265.6 605.2,265.6 615.3,265.6 625.3,265.6 635.4,265.6 645.5,265.6 655.5,265.6 665.6,265.6 675.6,265.6 685.7,265.6 695.8,265.6 705.8,265.6 715.9,265.7 725.9,265.6 736.0,265.6 746.1,265.6 756.1,265.6 766.2,265.6 776.2,265.6 786.3,265.6 796.4,265.6 806.4,265.6 816.5,265.6 826.5,265.6 836.6,265.6 846.7,265.6 856.7,265.6 866.8,265.6 876.8,265.6 886.9,265.6 897.0,265.6 907.0,265.6 917.1,265.6 927.2,265.6 937.2,265.6 947.3,265.6 957.3,265.6 967.4,265.6 977.5,265.6 987.5,265.6 997.6,265.6 1007.6,265.6 1017.7,265.6 1027.8,265.6 1037.8,265.6 1047.9,265.6 1057.9,265.7 1068.0,265.6"/>
    <polyline fill="none" stroke="#7c3aed" stroke-width="2" stroke-dasharray="6 5" points="72.0,231.7 82.1,206.1 92.1,439.4 102.2,56.4 112.2,521.3 122.3,481.8 132.4,334.0 142.4,305.6 152.5,369.6 162.5,467.4 172.6,487.4 182.7,301.0 192.7,287.4 202.8,201.8 212.8,370.5 222.9,415.5 233.0,302.6 243.0,246.5 253.1,326.6 263.2,329.4 273.2,173.3 283.3,219.9 293.3,262.5 303.4,311.6 313.5,351.3 323.5,463.2 333.6,542.0 343.6,371.2 353.7,234.3 363.8,190.8 373.8,276.1 383.9,65.8 393.9,495.0 404.0,282.1 414.1,54.0 424.1,274.3 434.2,242.5 444.2,276.8 454.3,249.0 464.4,267.1 474.4,275.8 484.5,394.5 494.5,276.5 504.6,232.1 514.7,343.4 524.7,285.1 534.8,214.7 544.8,357.7 554.9,371.4 565.0,424.8 575.0,262.5 585.1,343.3 595.2,284.3 605.2,216.5 615.3,464.8 625.3,265.6 635.4,456.9 645.5,303.8 655.5,397.0 665.6,286.8 675.6,247.3 685.7,355.0 695.8,303.2 705.8,265.7 715.9,278.7 725.9,400.9 736.0,450.2 746.1,535.8 756.1,239.6 766.2,444.8 776.2,403.0 786.3,292.9 796.4,280.6 806.4,276.0 816.5,379.1 826.5,260.8 836.6,278.9 846.7,333.4 856.7,288.2 866.8,281.8 876.8,357.5 886.9,208.7 897.0,279.4 907.0,345.8 917.1,438.8 927.2,305.4 937.2,398.4 947.3,356.8 957.3,306.5 967.4,244.5 977.5,282.4 987.5,199.3 997.6,215.4 1007.6,332.4 1017.7,186.0 1027.8,480.8 1037.8,336.1 1047.9,276.4 1057.9,275.2 1068.0,271.1"/>
    <circle cx="72.0" cy="231.7" r="5" fill="#16a34a"><title>Accepted epoch 1, diff 593</title></circle>
    <circle cx="82.1" cy="206.1" r="5" fill="#16a34a"><title>Accepted epoch 2, diff 1038</title></circle>
    <circle cx="102.2" cy="56.4" r="5" fill="#16a34a"><title>Accepted epoch 4, diff 3635</title></circle>
    <circle cx="202.8" cy="201.8" r="5" fill="#16a34a"><title>Accepted epoch 14, diff 1112</title></circle>
    <circle cx="243.0" cy="246.5" r="5" fill="#16a34a"><title>Accepted epoch 18, diff 337</title></circle>
    <circle cx="273.2" cy="173.3" r="5" fill="#16a34a"><title>Accepted epoch 21, diff 1607</title></circle>
    <circle cx="283.3" cy="219.9" r="5" fill="#16a34a"><title>Accepted epoch 22, diff 798</title></circle>
    <circle cx="293.3" cy="262.5" r="5" fill="#16a34a"><title>Accepted epoch 23, diff 60</title></circle>
    <circle cx="353.7" cy="234.3" r="5" fill="#16a34a"><title>Accepted epoch 29, diff 548</title></circle>
    <circle cx="363.8" cy="190.8" r="5" fill="#16a34a"><title>Accepted epoch 30, diff 1303</title></circle>
    <circle cx="383.9" cy="65.8" r="5" fill="#16a34a"><title>Accepted epoch 32, diff 3473</title></circle>
    <circle cx="414.1" cy="54.0" r="5" fill="#16a34a"><title>Accepted epoch 35, diff 3677</title></circle>
    <circle cx="434.2" cy="242.5" r="5" fill="#16a34a"><title>Accepted epoch 37, diff 407</title></circle>
    <circle cx="454.3" cy="249.0" r="5" fill="#16a34a"><title>Accepted epoch 39, diff 294</title></circle>
    <circle cx="504.6" cy="232.1" r="5" fill="#16a34a"><title>Accepted epoch 44, diff 587</title></circle>
    <circle cx="534.8" cy="214.7" r="5" fill="#16a34a"><title>Accepted epoch 47, diff 889</title></circle>
    <circle cx="575.0" cy="262.5" r="5" fill="#16a34a"><title>Accepted epoch 51, diff 59</title></circle>
    <circle cx="605.2" cy="216.5" r="5" fill="#16a34a"><title>Accepted epoch 54, diff 857</title></circle>
    <circle cx="625.3" cy="265.6" r="5" fill="#16a34a"><title>Accepted epoch 56, diff 5</title></circle>
    <circle cx="675.6" cy="247.3" r="5" fill="#16a34a"><title>Accepted epoch 61, diff 323</title></circle>
    <circle cx="705.8" cy="265.7" r="5" fill="#16a34a"><title>Accepted epoch 64, diff 4</title></circle>
    <circle cx="756.1" cy="239.6" r="5" fill="#16a34a"><title>Accepted epoch 69, diff 456</title></circle>
    <circle cx="826.5" cy="260.8" r="5" fill="#16a34a"><title>Accepted epoch 76, diff 89</title></circle>
    <circle cx="886.9" cy="208.7" r="5" fill="#16a34a"><title>Accepted epoch 82, diff 993</title></circle>
    <circle cx="967.4" cy="244.5" r="5" fill="#16a34a"><title>Accepted epoch 90, diff 372</title></circle>
    <circle cx="987.5" cy="199.3" r="5" fill="#16a34a"><title>Accepted epoch 92, diff 1156</title></circle>
    <circle cx="997.6" cy="215.4" r="5" fill="#16a34a"><title>Accepted epoch 93, diff 877</title></circle>
    <circle cx="1017.7" cy="186.0" r="5" fill="#16a34a"><title>Accepted epoch 95, diff 1386</title></circle>
    <g transform="translate(72, 566.0)" font-size="13" fill="#111827">
      <rect x="0" y="-12" width="14" height="4" fill="#2563eb"/><text x="22" y="-7">Candidate avg goals</text>
      <rect x="190" y="-12" width="14" height="4" fill="#ef4444"/><text x="212" y="-7">Baseline avg goals</text>
      <rect x="378" y="-12" width="14" height="4" fill="#7c3aed"/><text x="400" y="-7">Goal diff</text>
      <circle cx="548" cy="-10" r="5" fill="#16a34a"/><text x="562" y="-7">Accepted improvement</text>
    </g>
  </g>
</svg>
