<?xml version="1.0" encoding="UTF-8"?>
<svg xmlns="http://www.w3.org/2000/svg" width="1100" height="620" viewBox="0 0 1100 620">
  <rect width="100%" height="100%" fill="#ffffff"/>
  <text x="72" y="30" font-family="Arial, sans-serif" font-size="22" font-weight="700" fill="#111827">Training progress</text>
  <text x="1068" y="30" text-anchor="end" font-family="Arial, sans-serif" font-size="13" fill="#4b5563">Final champion epoch: 98</text>
  <g font-family="Arial, sans-serif">
    <line x1="72.0" y1="54.0" x2="72.0" y2="542.0" stroke="#eef2f7" stroke-width="1"/>
    <text x="72.0" y="566.0" text-anchor="middle" font-size="12" fill="#4b5563">1</text>
    <line x1="172.6" y1="54.0" x2="172.6" y2="542.0" stroke="#eef2f7" stroke-width="1"/>
    <text x="172.6" y="566.0" text-anchor="middle" font-size="12" fill="#4b5563">11</text>
    <line x1="273.2" y1="54.0" x2="273.2" y2="542.0" stroke="#eef2f7" stroke-width="1"/>
    <text x="273.2" y="566.0" text-anchor="middle" font-size="12" fill="#4b5563">21</text>
    <line x1="373.8" y1="54.0" x2="373.8" y2="542.0" stroke="#eef2f7" stroke-width="1"/>
    <text x="373.8" y="566.0" text-anchor="middle" font-size="12" fill="#4b5563">31</text>
    <line x1="474.4" y1="54.0" x2="474.4" y2="542.0" stroke="#eef2f7" stroke-width="1"/>
    <text x="474.4" y="566.0" text-anchor="middle" font-size="12" fill="#4b5563">41</text>
    <line x1="575.0" y1="54.0" x2="575.0" y2="542.0" stroke="#eef2f7" stroke-width="1"/>
    <text x="575.0" y="566.0" text-anchor="middle" font-size="12" fill="#4b5563">51</text>
    <line x1="675.6" y1="54.0" x2="675.6" y2="542.0" stroke="#eef2f7" stroke-width="1"/>
    <text x="675.6" y="566.0" text-anchor="middle" font-size="12" fill="#4b5563">61</text>
    <line x1="776.2" y1="54.0" x2="776.2" y2="542.0" stroke="#eef2f7" stroke-width="1"/>
    <text x="776.2" y="566.0" text-anchor="middle" font-size="12" fill="#4b5563">71</text>
    <line x1="876.8" y1="54.0" x2="876.8" y2="542.0" stroke="#eef2f7" stroke-width="1"/>
    <text x="876.8" y="566.0" text-anchor="middle" font-size="12" fill="#4b5563">81</text>
    <line x1="977.5" y1="54.0" x2="977.5" y2="542.0" stroke="#eef2f7" stroke-width="1"/>
    <text x="977.5" y="566.0" text-anchor="middle" font-size="12" fill="#4b5563">91</text>
    <line x1="72.0" y1="542.0" x2="1068.0" y2="542.0" stroke="#d8dee9" stroke-width="1" opacity="0.55"/>
    <text x="60.0" y="546.0" text-anchor="end" font-size="12" fill="#4b5563">-1460.0</text>
    <line x1="72.0" y1="444.4" x2="1068.0" y2="444.4" stroke="#d8dee9" stroke-width="1" opacity="0.55"/>
    <text x="60.0" y="448.4" text-anchor="end" font-size="12" fill="#4b5563">-1033.4</text>
    <line x1="72.0" y1="346.8" x2="1068.0" y2="346.8" stroke="#d8dee9" stroke-width="1" opacity="0.55"/>
    <text x="60.0" y="350.8" text-anchor="end" font-size="12" fill="#4b5563">-606.8</text>
    <line x1="72.0" y1="249.2" x2="1068.0" y2="249.2" stroke="#d8dee9" stroke-width="1" opacity="0.55"/>
    <text x="60.0" y="253.2" text-anchor="end" font-size="12" fill="#4b5563">-180.2</text>
    <line x1="72.0" y1="151.6" x2="1068.0" y2="151.6" stroke="#d8dee9" stroke-width="1" opacity="0.55"/>
    <text x="60.0" y="155.6" text-anchor="end" font-size="12" fill="#4b5563">246.4</text>
    <line x1="72.0" y1="54.0" x2="1068.0" y2="54.0" stroke="#d8dee9" stroke-width="1" opacity="0.55"/>
    <text x="60.0" y="58.0" text-anchor="end" font-size="12" fill="#4b5563">673.0</text>
    <line x1="72.0" y1="54.0" x2="72.0" y2="542.0" stroke="#111827" stroke-width="1.4"/>
    <line x1="72.0" y1="542.0" x2="1068.0" y2="542.0" stroke="#111827" stroke-width="1.4"/>
    <text x="570.0" y="596.0" text-anchor="middle" font-size="13" fill="#111827">Epoch</text>
    <text x="20" y="298.0" transform="rotate(-90 20 298.0)" text-anchor="middle" font-size="13" fill="#111827">Goals / goal diff</text>
    <polyline fill="none" stroke="#2563eb" stroke-width="2.4" points="72.0,206.6 82.1,206.6 92.1,207.7 102.2,206.6 112.2,206.6 122.3,206.6 132.4,207.8 142.4,206.6 152.5,206.5 162.5,206.6 172.6,206.7 182.7,206.6 192.7,206.6 202.8,206.6 212.8,206.7 222.9,207.7 233.0,206.6 243.0,207.1 253.1,206.9 263.2,206.6 273.2,206.5 283.3,206.6 293.3,206.6 303.4,206.9 313.5,207.3 323.5,207.7 333.6,206.6 343.6,207.6 353.7,206.7 363.8,208.0 373.8,206.6 383.9,207.3 393.9,206.7 404.0,206.6 414.1,206.5 424.1,206.5 434.2,206.6 444.2,207.1 454.3,207.8 464.4,206.6 474.4,206.6 484.5,206.5 494.5,206.6 504.6,207.8 514.7,206.7 524.7,206.7 534.8,206.6 544.8,207.0 554.9,206.6 565.0,208.0 575.0,206.6 585.1,206.6 595.2,207.5 605.2,206.6 615.3,206.8 625.3,206.6 635.4,206.6 645.5,206.6 655.5,206.6 665.6,206.6 675.6,206.6 685.7,206.6 695.8,206.9 705.8,206.6 715.9,206.6 725.9,206.7 736.0,207.8 746.1,207.3 756.1,206.6 766.2,207.1 776.2,206.7 786.3,207.7 796.4,206.6 806.4,207.9 816.5,207.5 826.5,206.6 836.6,207.1 846.7,206.6 856.7,206.8 866.8,206.6 876.8,206.7 886.9,207.8 897.0,208.0 907.0,206.6 917.1,206.6 927.2,206.6 937.2,206.6 947.3,206.6 957.3,206.6 967.4,206.6 977.5,206.6 987.5,206.6 997.6,206.6 1007.6,206.6 1017.7,206.6 1027.8,207.0 1037.8,206.7 1047.9,206.6 1057.9,207.7 1068.0,207.8"/>
    <polyline fill="none" stroke="#ef4444" stroke-width="2.4" points="72.0,206.6 82.1,206.6 92.1,207.4 102.2,206.5 112.2,206.6 122.3,206.5 132.4,207.3 142.4,206.6 152.5,206.5 162.5,206.5 172.6,206.6 182.7,206.6 192.7,206.5 202.8,206.5 212.8,206.6 222.9,207.3 233.0,206.6 243.0,206.7 253.1,206.7 263.2,206.6 273.2,206.5 283.3,206.6 293.3,206.6 303.4,206.7 313.5,206.9 323.5,207.1 333.6,206.5 343.6,207.2 353.7,206.6 363.8,207.6 373.8,206.5 383.9,207.0 393.9,206.6 404.0,206.5 414.1,206.5 424.1,206.5 434.2,206.5 444.2,206.7 454.3,207.3 464.4,206.5 474.4,206.5 484.5,206.5 494.5,206.6 504.6,207.3 514.7,206.6 524.7,206.6 534.8,206.5 544.8,206.7 554.9,206.6 565.0,207.5 575.0,206.6 585.1,206.6 595.2,207.0 605.2,206.6 615.3,206.6 625.3,206.6 635.4,206.6 645.5,206.6 655.5,206.6 665.6,206.6 675.6,206.6 685.7,206.6 695.8,206.7 705.8,206.6 715.9,206.6 725.9,206.6 736.0,207.4 746.1,207.1 756.1,206.6 766.2,207.0 776.2,206.5 786.3,207.4 796.4,206.6 806.4,207.3 816.5,207.3 826.5,206.6 836.6,206.8 846.7,206.6 856.7,206.7 866.8,206.6 876.8,206.7 886.9,207.4 897.0,207.6 907.0,206.6 917.1,206.6 927.2,206.6 937.2,206.6 947.3,206.6 957.3,206.6 967.4,206.6 977.5,206.6 987.5,206.6 997.6,206.6 1007.6,206.6 1017.7,206.6 1027.8,206.7 1037.8,206.6 1047.9,206.6 1057.9,207.1 1068.0,207.4"/>
    <polyline fill="none" stroke="#7c3aed" stroke-width="2" stroke-dasharray="6 5" points="72.0,226.7 82.1,240.7 92.1,243.9 102.2,319.8 112.2,430.6 122.3,315.3 132.4,255.3 142.4,395.1 152.5,186.5 162.5,407.7 172.6,448.4 182.7,482.7 192.7,410.2 202.8,346.8 212.8,300.6 222.9,243.7 233.0,472.4 243.0,243.0 253.1,263.8 263.2,539.9 273.2,143.0 283.3,392.4 293.3,391.2 303.4,255.1 313.5,251.2 323.5,267.5 333.6,325.8 343.6,246.6 353.7,308.9 363.8,242.5 373.8,531.2 383.9,232.5 393.9,372.5 404.0,284.4 414.1,149.6 424.1,90.4 434.2,448.2 444.2,248.2 454.3,251.2 464.4,527.4 474.4,319.8 484.5,192.6 494.5,182.6 504.6,255.8 514.7,306.6 524.7,367.0 534.8,407.9 544.8,241.6 554.9,54.0 565.0,254.9 575.0,297.4 585.1,332.9 595.2,257.8 605.2,176.9 615.3,285.8 625.3,499.0 635.4,215.3 645.5,542.0 655.5,407.2 665.6,340.4 675.6,87.2 685.7,269.7 695.8,249.6 705.8,200.9 715.9,324.2 725.9,506.1 736.0,247.8 746.1,228.8 756.1,424.4 766.2,247.6 776.2,260.1 786.3,242.3 796.4,472.0 806.4,269.1 816.5,232.9 826.5,369.5 836.6,235.9 846.7,151.9 856.7,269.3 866.8,181.0 876.8,329.7 886.9,244.6 897.0,242.1 907.0,353.9 917.1,502.4 927.2,364.0 937.2,231.8 947.3,100.0 957.3,239.3 967.4,306.1 977.5,175.9 987.5,226.3 997.6,128.8 1007.6,281.4 1017.7,224.4 1027.8,253.5 1037.8,494.4 1047.9,174.6 1057.9,270.7 1068.0,249.4"/>
    <circle cx="152.5" cy="186.5" r="5" fill="#16a34a"><title>Accepted epoch 9, diff 94</title></circle>
    <circle cx="273.2" cy="143.0" r="5" fill="#16a34a"><title>Accepted epoch 21, diff 284</title></circle>
    <circle cx="414.1" cy="149.6" r="5" fill="#16a34a"><title>Accepted epoch 35, diff 255</title></circle>
    <circle cx="424.1" cy="90.4" r="5" fill="#16a34a"><title>Accepted epoch 36, diff 514</title></circle>
    <circle cx="484.5" cy="192.6" r="5" fill="#16a34a"><title>Accepted epoch 42, diff 67</title></circle>
    <circle cx="494.5" cy="182.6" r="5" fill="#16a34a"><title>Accepted epoch 43, diff 111</title></circle>
    <circle cx="554.9" cy="54.0" r="5" fill="#16a34a"><title>Accepted epoch 49, diff 673</title></circle>
    <circle cx="605.2" cy="176.9" r="5" fill="#16a34a"><title>Accepted epoch 54, diff 136</title></circle>
    <circle cx="675.6" cy="87.2" r="5" fill="#16a34a"><title>Accepted epoch 61, diff 528</title></circle>
    <circle cx="705.8" cy="200.9" r="5" fill="#16a34a"><title>Accepted epoch 64, diff 31</title></circle>
    <circle cx="846.7" cy="151.9" r="5" fill="#16a34a"><title>Accepted epoch 78, diff 245</title></circle>
    <circle cx="866.8" cy="181.0" r="5" fill="#16a34a"><title>Accepted epoch 80, diff 118</title></circle>
    <circle cx="947.3" cy="100.0" r="5" fill="#16a34a"><title>Accepted epoch 88, diff 472</title></circle>
    <circle cx="977.5" cy="175.9" r="5" fill="#16a34a"><title>Accepted epoch 91, diff 140</title></circle>
    <circle cx="997.6" cy="128.8" r="5" fill="#16a34a"><title>Accepted epoch 93, diff 346</title></circle>
    <circle cx="1047.9" cy="174.6" r="5" fill="#16a34a"><title>Accepted epoch 98, diff 146</title></circle>
    <g transform="translate(72, 566.0)" font-size="13" fill="#111827">
      <rect x="0" y="-12" width="14" height="4" fill="#2563eb"/><text x="22" y="-7">Candidate avg goals</text>
      <rect x="190" y="-12" width="14" height="4" fill="#ef4444"/><text x="212" y="-7">Baseline avg goals</text>
      <rect x="378" y="-12" width="14" height="4" fill="#7c3aed"/><text x="400" y="-7">Goal diff</text>
      <circle cx="548" cy="-10" r="5" fill="#16a34a"/><text x="562" y="-7">Accepted improvement</text>
    </g>
  </g>
</svg>
