<?xml version="1.0" encoding="UTF-8"?>
<svg xmlns="http://www.w3.org/2000/svg" width="900" height="480" viewBox="0 0 900 480">
  <rect width="100%" height="100%" fill="#ffffff"/>
  <text x="72" y="34" font-family="Arial, sans-serif" font-size="20" font-weight="700" fill="#111827">Improvement per session</text>
  <text x="868" y="34" text-anchor="end" font-family="Arial, sans-serif" font-size="12" fill="#6b7280">9/17 sessions improved baseline</text>
  <line x1="72.0" y1="408.0" x2="868.0" y2="408.0" stroke="#e5e7eb" stroke-width="1"/>
  <text x="64.0" y="412.0" text-anchor="end" font-family="Arial, sans-serif" font-size="11" fill="#6b7280">0</text>
  <line x1="72.0" y1="337.2" x2="868.0" y2="337.2" stroke="#e5e7eb" stroke-width="1"/>
  <text x="64.0" y="341.2" text-anchor="end" font-family="Arial, sans-serif" font-size="11" fill="#6b7280">849</text>
  <line x1="72.0" y1="266.4" x2="868.0" y2="266.4" stroke="#e5e7eb" stroke-width="1"/>
  <text x="64.0" y="270.4" text-anchor="end" font-family="Arial, sans-serif" font-size="11" fill="#6b7280">1698</text>
  <line x1="72.0" y1="195.6" x2="868.0" y2="195.6" stroke="#e5e7eb" stroke-width="1"/>
  <text x="64.0" y="199.6" text-anchor="end" font-family="Arial, sans-serif" font-size="11" fill="#6b7280">2547</text>
  <line x1="72.0" y1="124.8" x2="868.0" y2="124.8" stroke="#e5e7eb" stroke-width="1"/>
  <text x="64.0" y="128.8" text-anchor="end" font-family="Arial, sans-serif" font-size="11" fill="#6b7280">3397</text>
  <line x1="72.0" y1="54.0" x2="868.0" y2="54.0" stroke="#e5e7eb" stroke-width="1"/>
  <text x="64.0" y="58.0" text-anchor="end" font-family="Arial, sans-serif" font-size="11" fill="#6b7280">4246</text>
  <line x1="72.0" y1="54.0" x2="72.0" y2="408.0" stroke="#374151" stroke-width="1.4"/>
  <line x1="72.0" y1="408.0" x2="868.0" y2="408.0" stroke="#374151" stroke-width="1.4"/>
  <rect x="81.4" y="404.0" width="28.1" height="4" fill="#d1d5db" rx="2"/>
  <text x="95.4" y="398.0" text-anchor="middle" font-family="Arial, sans-serif" font-size="11" fill="#9ca3af">—</text>
  <text x="95.4" y="428.0" text-anchor="middle" font-family="Arial, sans-serif" font-size="11" fill="#374151">session-1</text>
  <rect x="128.2" y="392.2" width="28.1" height="15.8" fill="#16b04a" rx="3"/>
  <text x="142.2" y="386.2" text-anchor="middle" font-family="Arial, sans-serif" font-size="12" font-weight="600" fill="#111827">+190</text>
  <text x="142.2" y="428.0" text-anchor="middle" font-family="Arial, sans-serif" font-size="11" fill="#374151">session-2</text>
  <rect x="175.0" y="396.3" width="28.1" height="11.7" fill="#16b14a" rx="3"/>
  <text x="189.1" y="390.3" text-anchor="middle" font-family="Arial, sans-serif" font-size="12" font-weight="600" fill="#111827">+140</text>
  <text x="189.1" y="428.0" text-anchor="middle" font-family="Arial, sans-serif" font-size="11" fill="#374151">session-3</text>
  <rect x="221.8" y="397.7" width="28.1" height="10.3" fill="#16b14a" rx="3"/>
  <text x="235.9" y="391.7" text-anchor="middle" font-family="Arial, sans-serif" font-size="12" font-weight="600" fill="#111827">+124</text>
  <text x="235.9" y="428.0" text-anchor="middle" font-family="Arial, sans-serif" font-size="11" fill="#374151">session-4</text>
  <rect x="268.7" y="398.7" width="28.1" height="9.3" fill="#16b14a" rx="3"/>
  <text x="282.7" y="392.7" text-anchor="middle" font-family="Arial, sans-serif" font-size="12" font-weight="600" fill="#111827">+111</text>
  <text x="282.7" y="428.0" text-anchor="middle" font-family="Arial, sans-serif" font-size="11" fill="#374151">session-5</text>
  <rect x="315.5" y="400.2" width="28.1" height="7.8" fill="#16b24a" rx="3"/>
  <text x="329.5" y="394.2" text-anchor="middle" font-family="Arial, sans-serif" font-size="12" font-weight="600" fill="#111827">+93</text>
  <text x="329.5" y="428.0" text-anchor="middle" font-family="Arial, sans-serif" font-size="11" fill="#374151">session-6</text>
  <rect x="362.3" y="327.9" width="28.1" height="80.1" fill="#16a14a" rx="3"/>
  <text x="376.4" y="321.9" text-anchor="middle" font-family="Arial, sans-serif" font-size="12" font-weight="600" fill="#111827">+961</text>
  <text x="376.4" y="428.0" text-anchor="middle" font-family="Arial, sans-serif" font-size="11" fill="#374151">session-7</text>
  <rect x="409.1" y="404.0" width="28.1" height="4" fill="#d1d5db" rx="2"/>
  <text x="423.2" y="398.0" text-anchor="middle" font-family="Arial, sans-serif" font-size="11" fill="#9ca3af">—</text>
  <text x="423.2" y="428.0" text-anchor="middle" font-family="Arial, sans-serif" font-size="11" fill="#374151">session-8</text>
  <rect x="456.0" y="404.0" width="28.1" height="4" fill="#d1d5db" rx="2"/>
  <text x="470.0" y="398.0" text-anchor="middle" font-family="Arial, sans-serif" font-size="11" fill="#9ca3af">—</text>
  <text x="470.0" y="428.0" text-anchor="middle" font-family="Arial, sans-serif" font-size="11" fill="#374151">session-9</text>
  <rect x="502.8" y="404.0" width="28.1" height="4" fill="#d1d5db" rx="2"/>
  <text x="516.8" y="398.0" text-anchor="middle" font-family="Arial, sans-serif" font-size="11" fill="#9ca3af">—</text>
  <text x="516.8" y="428.0" text-anchor="middle" font-family="Arial, sans-serif" font-size="11" fill="#374151">session-10</text>
  <rect x="549.6" y="404.0" width="28.1" height="4" fill="#d1d5db" rx="2"/>
  <text x="563.6" y="398.0" text-anchor="middle" font-family="Arial, sans-serif" font-size="11" fill="#9ca3af">—</text>
  <text x="563.6" y="428.0" text-anchor="middle" font-family="Arial, sans-serif" font-size="11" fill="#374151">session-11</text>
  <rect x="596.4" y="404.0" width="28.1" height="4" fill="#d1d5db" rx="2"/>
  <text x="610.5" y="398.0" text-anchor="middle" font-family="Arial, sans-serif" font-size="11" fill="#9ca3af">—</text>
  <text x="610.5" y="428.0" text-anchor="middle" font-family="Arial, sans-serif" font-size="11" fill="#374151">session-12</text>
  <rect x="643.2" y="382.0" width="28.1" height="26.0" fill="#16ae4a" rx="3"/>
  <text x="657.3" y="376.0" text-anchor="middle" font-family="Arial, sans-serif" font-size="12" font-weight="600" fill="#111827">+312</text>
  <text x="657.3" y="428.0" text-anchor="middle" font-family="Arial, sans-serif" font-size="11" fill="#374151">session-13</text>
  <rect x="690.1" y="337.7" width="28.1" height="70.3" fill="#16a44a" rx="3"/>
  <text x="704.1" y="331.7" text-anchor="middle" font-family="Arial, sans-serif" font-size="12" font-weight="600" fill="#111827">+843</text>
  <text x="704.1" y="428.0" text-anchor="middle" font-family="Arial, sans-serif" font-size="11" fill="#374151">session-14</text>
  <rect x="736.9" y="100.2" width="28.1" height="307.8" fill="#166e4a" rx="3"/>
  <text x="750.9" y="94.2" text-anchor="middle" font-family="Arial, sans-serif" font-size="12" font-weight="600" fill="#111827">+3692</text>
  <text x="750.9" y="428.0" text-anchor="middle" font-family="Arial, sans-serif" font-size="11" fill="#374151">session-15</text>
  <rect x="783.7" y="404.0" width="28.1" height="4" fill="#d1d5db" rx="2"/>
  <text x="797.8" y="398.0" text-anchor="middle" font-family="Arial, sans-serif" font-size="11" fill="#9ca3af">—</text>
  <text x="797.8" y="428.0" text-anchor="middle" font-family="Arial, sans-serif" font-size="11" fill="#374151">session-16</text>
  <rect x="830.5" y="404.0" width="28.1" height="4" fill="#d1d5db" rx="2"/>
  <text x="844.6" y="398.0" text-anchor="middle" font-family="Arial, sans-serif" font-size="11" fill="#9ca3af">—</text>
  <text x="844.6" y="428.0" text-anchor="middle" font-family="Arial, sans-serif" font-size="11" fill="#374151">session-17</text>
  <text x="14" y="231.0" transform="rotate(-90 14 231.0)" text-anchor="middle" font-family="Arial, sans-serif" font-size="12" fill="#374151">Goal diff vs prev baseline</text>
</svg>
