<?xml version="1.0" encoding="UTF-8"?>
<svg xmlns="http://www.w3.org/2000/svg" width="1100" height="620" viewBox="0 0 1100 620">
  <rect width="100%" height="100%" fill="#ffffff"/>
  <text x="72" y="30" font-family="Arial, sans-serif" font-size="22" font-weight="700" fill="#111827">Training progress</text>
  <text x="1068" y="30" text-anchor="end" font-family="Arial, sans-serif" font-size="13" fill="#4b5563">Final champion epoch: 93</text>
  <g font-family="Arial, sans-serif">
    <line x1="72.0" y1="54.0" x2="72.0" y2="542.0" stroke="#eef2f7" stroke-width="1"/>
    <text x="72.0" y="566.0" text-anchor="middle" font-size="12" fill="#4b5563">1</text>
    <line x1="172.6" y1="54.0" x2="172.6" y2="542.0" stroke="#eef2f7" stroke-width="1"/>
    <text x="172.6" y="566.0" text-anchor="middle" font-size="12" fill="#4b5563">11</text>
    <line x1="273.2" y1="54.0" x2="273.2" y2="542.0" stroke="#eef2f7" stroke-width="1"/>
    <text x="273.2" y="566.0" text-anchor="middle" font-size="12" fill="#4b5563">21</text>
    <line x1="373.8" y1="54.0" x2="373.8" y2="542.0" stroke="#eef2f7" stroke-width="1"/>
    <text x="373.8" y="566.0" text-anchor="middle" font-size="12" fill="#4b5563">31</text>
    <line x1="474.4" y1="54.0" x2="474.4" y2="542.0" stroke="#eef2f7" stroke-width="1"/>
    <text x="474.4" y="566.0" text-anchor="middle" font-size="12" fill="#4b5563">41</text>
    <line x1="575.0" y1="54.0" x2="575.0" y2="542.0" stroke="#eef2f7" stroke-width="1"/>
    <text x="575.0" y="566.0" text-anchor="middle" font-size="12" fill="#4b5563">51</text>
    <line x1="675.6" y1="54.0" x2="675.6" y2="542.0" stroke="#eef2f7" stroke-width="1"/>
    <text x="675.6" y="566.0" text-anchor="middle" font-size="12" fill="#4b5563">61</text>
    <line x1="776.2" y1="54.0" x2="776.2" y2="542.0" stroke="#eef2f7" stroke-width="1"/>
    <text x="776.2" y="566.0" text-anchor="middle" font-size="12" fill="#4b5563">71</text>
    <line x1="876.8" y1="54.0" x2="876.8" y2="542.0" stroke="#eef2f7" stroke-width="1"/>
    <text x="876.8" y="566.0" text-anchor="middle" font-size="12" fill="#4b5563">81</text>
    <line x1="977.5" y1="54.0" x2="977.5" y2="542.0" stroke="#eef2f7" stroke-width="1"/>
    <text x="977.5" y="566.0" text-anchor="middle" font-size="12" fill="#4b5563">91</text>
    <line x1="72.0" y1="542.0" x2="1068.0" y2="542.0" stroke="#d8dee9" stroke-width="1" opacity="0.55"/>
    <text x="60.0" y="546.0" text-anchor="end" font-size="12" fill="#4b5563">-1465.0</text>
    <line x1="72.0" y1="444.4" x2="1068.0" y2="444.4" stroke="#d8dee9" stroke-width="1" opacity="0.55"/>
    <text x="60.0" y="448.4" text-anchor="end" font-size="12" fill="#4b5563">-1047.6</text>
    <line x1="72.0" y1="346.8" x2="1068.0" y2="346.8" stroke="#d8dee9" stroke-width="1" opacity="0.55"/>
    <text x="60.0" y="350.8" text-anchor="end" font-size="12" fill="#4b5563">-630.2</text>
    <line x1="72.0" y1="249.2" x2="1068.0" y2="249.2" stroke="#d8dee9" stroke-width="1" opacity="0.55"/>
    <text x="60.0" y="253.2" text-anchor="end" font-size="12" fill="#4b5563">-212.8</text>
    <line x1="72.0" y1="151.6" x2="1068.0" y2="151.6" stroke="#d8dee9" stroke-width="1" opacity="0.55"/>
    <text x="60.0" y="155.6" text-anchor="end" font-size="12" fill="#4b5563">204.6</text>
    <line x1="72.0" y1="54.0" x2="1068.0" y2="54.0" stroke="#d8dee9" stroke-width="1" opacity="0.55"/>
    <text x="60.0" y="58.0" text-anchor="end" font-size="12" fill="#4b5563">622.0</text>
    <line x1="72.0" y1="54.0" x2="72.0" y2="542.0" stroke="#111827" stroke-width="1.4"/>
    <line x1="72.0" y1="542.0" x2="1068.0" y2="542.0" stroke="#111827" stroke-width="1.4"/>
    <text x="570.0" y="596.0" text-anchor="middle" font-size="13" fill="#111827">Epoch</text>
    <text x="20" y="298.0" transform="rotate(-90 20 298.0)" text-anchor="middle" font-size="13" fill="#111827">Goals / goal diff</text>
    <polyline fill="none" stroke="#2563eb" stroke-width="2.4" points="72.0,198.0 82.1,199.2 92.1,199.2 102.2,198.0 112.2,198.0 122.3,198.0 132.4,198.5 142.4,198.0 152.5,198.7 162.5,199.3 172.6,198.0 182.7,199.1 192.7,198.0 202.8,199.3 212.8,198.2 222.9,198.1 233.0,198.1 243.0,198.0 253.1,198.0 263.2,198.0 273.2,198.3 283.3,198.0 293.3,199.2 303.4,198.0 313.5,199.1 323.5,199.2 333.6,198.0 343.6,198.0 353.7,198.0 363.8,198.1 373.8,198.0 383.9,199.3 393.9,198.1 404.0,198.9 414.1,199.1 424.1,199.4 434.2,198.0 444.2,198.1 454.3,198.0 464.4,198.0 474.4,198.0 484.5,198.4 494.5,198.0 504.6,198.0 514.7,198.0 524.7,198.0 534.8,198.0 544.8,199.0 554.9,198.0 565.0,198.0 575.0,198.1 585.1,198.0 595.2,198.2 605.2,198.0 615.3,198.0 625.3,198.0 635.4,198.1 645.5,198.5 655.5,198.0 665.6,198.0 675.6,198.0 685.7,198.0 695.8,198.1 705.8,198.0 715.9,198.0 725.9,198.1 736.0,198.0 746.1,198.0 756.1,198.0 766.2,198.2 776.2,198.0 786.3,198.0 796.4,198.0 806.4,198.4 816.5,198.0 826.5,198.0 836.6,199.2 846.7,198.9 856.7,198.0 866.8,198.0 876.8,199.4 886.9,198.0 897.0,199.2 907.0,199.4 917.1,198.0 927.2,198.0 937.2,198.2 947.3,198.1 957.3,198.5 967.4,198.0 977.5,198.0 987.5,199.3 997.6,198.0 1007.6,198.1 1017.7,198.7 1027.8,198.0 1037.8,198.0 1047.9,198.1 1057.9,198.0 1068.0,198.0"/>
    <polyline fill="none" stroke="#ef4444" stroke-width="2.4" points="72.0,198.0 82.1,198.8 92.1,198.6 102.2,198.0 112.2,198.0 122.3,198.0 132.4,198.2 142.4,198.0 152.5,198.4 162.5,198.8 172.6,198.0 182.7,198.7 192.7,198.0 202.8,198.9 212.8,198.1 222.9,198.0 233.0,198.0 243.0,198.0 253.1,198.0 263.2,198.0 273.2,198.1 283.3,198.0 293.3,198.7 303.4,198.0 313.5,198.6 323.5,198.8 333.6,198.0 343.6,198.0 353.7,198.0 363.8,198.0 373.8,198.0 383.9,198.9 393.9,198.0 404.0,198.5 414.1,198.7 424.1,198.5 434.2,198.0 444.2,197.9 454.3,198.0 464.4,198.0 474.4,198.0 484.5,198.1 494.5,198.0 504.6,198.0 514.7,198.0 524.7,198.0 534.8,198.0 544.8,198.6 554.9,197.9 565.0,198.0 575.0,198.0 585.1,198.0 595.2,198.0 605.2,198.0 615.3,198.0 625.3,198.0 635.4,198.0 645.5,198.3 655.5,198.0 665.6,198.0 675.6,198.0 685.7,198.0 695.8,198.0 705.8,198.0 715.9,198.0 725.9,198.0 736.0,198.0 746.1,198.0 756.1,197.9 766.2,198.1 776.2,198.0 786.3,198.0 796.4,198.0 806.4,198.2 816.5,198.0 826.5,198.0 836.6,198.9 846.7,198.4 856.7,198.0 866.8,198.0 876.8,198.8 886.9,198.0 897.0,198.7 907.0,198.5 917.1,198.0 927.2,198.0 937.2,198.1 947.3,198.0 957.3,198.1 967.4,198.0 977.5,198.0 987.5,198.8 997.6,198.0 1007.6,197.9 1017.7,198.2 1027.8,198.0 1037.8,198.0 1047.9,198.0 1057.9,197.9 1068.0,198.0"/>
    <polyline fill="none" stroke="#7c3aed" stroke-width="2" stroke-dasharray="6 5" points="72.0,54.0 82.1,247.1 92.1,258.6 102.2,384.4 112.2,324.1 122.3,369.4 132.4,236.4 142.4,172.8 152.5,230.3 162.5,242.7 172.6,218.1 182.7,241.8 192.7,308.9 202.8,237.8 212.8,292.7 222.9,302.6 233.0,290.9 243.0,330.2 253.1,357.5 263.2,265.8 273.2,256.3 283.3,126.0 293.3,250.2 303.4,316.6 313.5,247.1 323.5,241.8 333.6,233.8 343.6,257.9 353.7,95.9 363.8,416.2 373.8,240.1 383.9,237.6 393.9,542.0 404.0,238.3 414.1,240.1 424.1,288.3 434.2,246.7 444.2,277.8 454.3,215.8 464.4,424.2 474.4,329.9 484.5,247.1 494.5,166.2 504.6,533.8 514.7,416.9 524.7,260.9 534.8,279.4 544.8,237.3 554.9,353.3 565.0,245.5 575.0,414.6 585.1,398.0 595.2,257.0 605.2,231.2 615.3,308.4 625.3,212.8 635.4,532.6 645.5,245.3 655.5,300.7 665.6,270.8 675.6,224.0 685.7,143.6 695.8,393.5 705.8,455.7 715.9,173.5 725.9,441.7 736.0,268.4 746.1,421.8 756.1,367.6 766.2,260.0 776.2,322.7 786.3,362.9 796.4,272.6 806.4,258.8 816.5,204.1 826.5,229.8 836.6,231.0 846.7,243.6 856.7,515.6 866.8,147.8 876.8,258.1 886.9,243.2 897.0,245.7 907.0,287.1 917.1,216.7 927.2,280.6 937.2,344.4 947.3,523.1 957.3,239.9 967.4,472.8 977.5,396.1 987.5,243.9 997.6,182.6 1007.6,269.1 1017.7,253.2 1027.8,327.8 1037.8,474.7 1047.9,486.1 1057.9,445.4 1068.0,341.8"/>
    <circle cx="72.0" cy="54.0" r="5" fill="#16a34a"><title>Accepted epoch 1, diff 622</title></circle>
    <circle cx="142.4" cy="172.8" r="5" fill="#16a34a"><title>Accepted epoch 8, diff 114</title></circle>
    <circle cx="283.3" cy="126.0" r="5" fill="#16a34a"><title>Accepted epoch 22, diff 314</title></circle>
    <circle cx="353.7" cy="95.9" r="5" fill="#16a34a"><title>Accepted epoch 29, diff 443</title></circle>
    <circle cx="494.5" cy="166.2" r="5" fill="#16a34a"><title>Accepted epoch 43, diff 142</title></circle>
    <circle cx="685.7" cy="143.6" r="5" fill="#16a34a"><title>Accepted epoch 62, diff 239</title></circle>
    <circle cx="715.9" cy="173.5" r="5" fill="#16a34a"><title>Accepted epoch 65, diff 111</title></circle>
    <circle cx="866.8" cy="147.8" r="5" fill="#16a34a"><title>Accepted epoch 80, diff 221</title></circle>
    <circle cx="997.6" cy="182.6" r="5" fill="#16a34a"><title>Accepted epoch 93, diff 72</title></circle>
    <g transform="translate(72, 566.0)" font-size="13" fill="#111827">
      <rect x="0" y="-12" width="14" height="4" fill="#2563eb"/><text x="22" y="-7">Candidate avg goals</text>
      <rect x="190" y="-12" width="14" height="4" fill="#ef4444"/><text x="212" y="-7">Baseline avg goals</text>
      <rect x="378" y="-12" width="14" height="4" fill="#7c3aed"/><text x="400" y="-7">Goal diff</text>
      <circle cx="548" cy="-10" r="5" fill="#16a34a"/><text x="562" y="-7">Accepted improvement</text>
    </g>
  </g>
</svg>
