<?xml version="1.0" encoding="UTF-8"?>
<svg xmlns="http://www.w3.org/2000/svg" width="1100" height="520" viewBox="0 0 1100 520">
<rect width="100%" height="100%" fill="#ffffff"/>
<text x="80" y="34" font-family="Arial, sans-serif" font-size="20" font-weight="700" fill="#111827">Procentuell förbättring per accepterad session</text>
<text x="80" y="52" font-family="Arial, sans-serif" font-size="11" fill="#6b7280">Sorterat v1 → v2 → v3, internt på sessionsnummer. Bars = delta vs föregående session. Linje = kumulativ förbättring per version.</text>
<line x1="80" y1="60.0" x2="1040" y2="60.0" stroke="#e5e7eb" stroke-width="1"/>
<text x="72" y="64.0" text-anchor="end" font-family="Arial, sans-serif" font-size="11" fill="#6b7280">+9.5%</text>
<line x1="80" y1="130.0" x2="1040" y2="130.0" stroke="#e5e7eb" stroke-width="1"/>
<text x="72" y="134.0" text-anchor="end" font-family="Arial, sans-serif" font-size="11" fill="#6b7280">+7.6%</text>
<line x1="80" y1="200.0" x2="1040" y2="200.0" stroke="#e5e7eb" stroke-width="1"/>
<text x="72" y="204.0" text-anchor="end" font-family="Arial, sans-serif" font-size="11" fill="#6b7280">+5.7%</text>
<line x1="80" y1="270.0" x2="1040" y2="270.0" stroke="#e5e7eb" stroke-width="1"/>
<text x="72" y="274.0" text-anchor="end" font-family="Arial, sans-serif" font-size="11" fill="#6b7280">+3.8%</text>
<line x1="80" y1="340.0" x2="1040" y2="340.0" stroke="#e5e7eb" stroke-width="1"/>
<text x="72" y="344.0" text-anchor="end" font-family="Arial, sans-serif" font-size="11" fill="#6b7280">+1.9%</text>
<line x1="80" y1="410.0" x2="1040" y2="410.0" stroke="#e5e7eb" stroke-width="1"/>
<text x="72" y="414.0" text-anchor="end" font-family="Arial, sans-serif" font-size="11" fill="#6b7280">+0.0%</text>
<line x1="80" y1="410.0" x2="1040" y2="410.0" stroke="#374151" stroke-width="1.4"/>
<line x1="656.0" y1="60" x2="656.0" y2="410" stroke="#9ca3af" stroke-width="1" stroke-dasharray="4 3"/>
<line x1="848.0" y1="60" x2="848.0" y2="410" stroke="#9ca3af" stroke-width="1" stroke-dasharray="4 3"/>
<rect x="91.2" y="105.7" width="41.6" height="304.3" fill="#3b82f6" rx="3"/>
<text x="112.0" y="99.7" text-anchor="middle" font-family="Arial, sans-serif" font-size="11" font-weight="600" fill="#111827">+8.23%</text>
<text x="112.0" y="428.0" text-anchor="end" font-family="Arial, sans-serif" font-size="10" fill="#374151" transform="rotate(-45 112.0 428.0)">v1-session-2</text>
<rect x="155.2" y="321.2" width="41.6" height="88.8" fill="#3b82f6" rx="3"/>
<text x="176.0" y="315.2" text-anchor="middle" font-family="Arial, sans-serif" font-size="11" font-weight="600" fill="#111827">+2.40%</text>
<text x="176.0" y="428.0" text-anchor="end" font-family="Arial, sans-serif" font-size="10" fill="#374151" transform="rotate(-45 176.0 428.0)">v1-session-3</text>
<rect x="219.2" y="331.4" width="41.6" height="78.6" fill="#3b82f6" rx="3"/>
<text x="240.0" y="325.4" text-anchor="middle" font-family="Arial, sans-serif" font-size="11" font-weight="600" fill="#111827">+2.13%</text>
<text x="240.0" y="428.0" text-anchor="end" font-family="Arial, sans-serif" font-size="10" fill="#374151" transform="rotate(-45 240.0 428.0)">v1-session-4</text>
<rect x="283.2" y="339.1" width="41.6" height="70.9" fill="#3b82f6" rx="3"/>
<text x="304.0" y="333.1" text-anchor="middle" font-family="Arial, sans-serif" font-size="11" font-weight="600" fill="#111827">+1.92%</text>
<text x="304.0" y="428.0" text-anchor="end" font-family="Arial, sans-serif" font-size="10" fill="#374151" transform="rotate(-45 304.0 428.0)">v1-session-5</text>
<rect x="347.2" y="352.2" width="41.6" height="57.8" fill="#3b82f6" rx="3"/>
<text x="368.0" y="346.2" text-anchor="middle" font-family="Arial, sans-serif" font-size="11" font-weight="600" fill="#111827">+1.56%</text>
<text x="368.0" y="428.0" text-anchor="end" font-family="Arial, sans-serif" font-size="10" fill="#374151" transform="rotate(-45 368.0 428.0)">v1-session-6</text>
<rect x="411.2" y="353.0" width="41.6" height="57.0" fill="#3b82f6" rx="3"/>
<text x="432.0" y="347.0" text-anchor="middle" font-family="Arial, sans-serif" font-size="11" font-weight="600" fill="#111827">+1.54%</text>
<text x="432.0" y="428.0" text-anchor="end" font-family="Arial, sans-serif" font-size="10" fill="#374151" transform="rotate(-45 432.0 428.0)">v1-session-7</text>
<rect x="475.2" y="408.1" width="41.6" height="1.9" fill="#3b82f6" rx="3"/>
<text x="496.0" y="402.1" text-anchor="middle" font-family="Arial, sans-serif" font-size="11" font-weight="600" fill="#111827">+0.05%</text>
<text x="496.0" y="428.0" text-anchor="end" font-family="Arial, sans-serif" font-size="10" fill="#374151" transform="rotate(-45 496.0 428.0)">v1-session-13</text>
<rect x="539.2" y="405.0" width="41.6" height="5.0" fill="#3b82f6" rx="3"/>
<text x="560.0" y="399.0" text-anchor="middle" font-family="Arial, sans-serif" font-size="11" font-weight="600" fill="#111827">+0.14%</text>
<text x="560.0" y="428.0" text-anchor="end" font-family="Arial, sans-serif" font-size="10" fill="#374151" transform="rotate(-45 560.0 428.0)">v1-session-14</text>
<rect x="603.2" y="407.8" width="41.6" height="2.2" fill="#3b82f6" rx="3"/>
<text x="624.0" y="401.8" text-anchor="middle" font-family="Arial, sans-serif" font-size="11" font-weight="600" fill="#111827">+0.06%</text>
<text x="624.0" y="428.0" text-anchor="end" font-family="Arial, sans-serif" font-size="10" fill="#374151" transform="rotate(-45 624.0 428.0)">v1-session-15</text>
<rect x="667.2" y="377.8" width="41.6" height="32.2" fill="#a855f7" rx="3"/>
<text x="688.0" y="371.8" text-anchor="middle" font-family="Arial, sans-serif" font-size="11" font-weight="600" fill="#111827">+0.87%</text>
<text x="688.0" y="428.0" text-anchor="end" font-family="Arial, sans-serif" font-size="10" fill="#374151" transform="rotate(-45 688.0 428.0)">v2-session-2</text>
<rect x="731.2" y="394.7" width="41.6" height="15.3" fill="#a855f7" rx="3"/>
<text x="752.0" y="388.7" text-anchor="middle" font-family="Arial, sans-serif" font-size="11" font-weight="600" fill="#111827">+0.41%</text>
<text x="752.0" y="428.0" text-anchor="end" font-family="Arial, sans-serif" font-size="10" fill="#374151" transform="rotate(-45 752.0 428.0)">v2-session-3</text>
<rect x="795.2" y="409.8" width="41.6" height="0.2" fill="#a855f7" rx="3"/>
<text x="816.0" y="403.8" text-anchor="middle" font-family="Arial, sans-serif" font-size="11" font-weight="600" fill="#111827">+0.01%</text>
<text x="816.0" y="428.0" text-anchor="end" font-family="Arial, sans-serif" font-size="10" fill="#374151" transform="rotate(-45 816.0 428.0)">v2-session-6</text>
<rect x="859.2" y="397.3" width="41.6" height="12.7" fill="#16a34a" rx="3"/>
<text x="880.0" y="391.3" text-anchor="middle" font-family="Arial, sans-serif" font-size="11" font-weight="600" fill="#111827">+0.34%</text>
<text x="880.0" y="428.0" text-anchor="end" font-family="Arial, sans-serif" font-size="10" fill="#374151" transform="rotate(-45 880.0 428.0)">v3-session-2</text>
<rect x="923.2" y="382.4" width="41.6" height="27.6" fill="#16a34a" rx="3"/>
<text x="944.0" y="376.4" text-anchor="middle" font-family="Arial, sans-serif" font-size="11" font-weight="600" fill="#111827">+0.75%</text>
<text x="944.0" y="428.0" text-anchor="end" font-family="Arial, sans-serif" font-size="10" fill="#374151" transform="rotate(-45 944.0 428.0)">v3-session-5</text>
<rect x="987.2" y="405.1" width="41.6" height="4.9" fill="#16a34a" rx="3"/>
<text x="1008.0" y="399.1" text-anchor="middle" font-family="Arial, sans-serif" font-size="11" font-weight="600" fill="#111827">+0.13%</text>
<text x="1008.0" y="428.0" text-anchor="end" font-family="Arial, sans-serif" font-size="10" fill="#374151" transform="rotate(-45 1008.0 428.0)">v3-session-6</text>
<circle cx="112.0" cy="105.7" r="4" fill="#dc2626"/>
<line x1="112.0" y1="105.7" x2="176.0" y2="16.8" stroke="#dc2626" stroke-width="2"/>
<circle cx="176.0" cy="16.8" r="4" fill="#dc2626"/>
<line x1="176.0" y1="16.8" x2="240.0" y2="-61.8" stroke="#dc2626" stroke-width="2"/>
<circle cx="240.0" cy="-61.8" r="4" fill="#dc2626"/>
<line x1="240.0" y1="-61.8" x2="304.0" y2="-132.7" stroke="#dc2626" stroke-width="2"/>
<circle cx="304.0" cy="-132.7" r="4" fill="#dc2626"/>
<line x1="304.0" y1="-132.7" x2="368.0" y2="-190.5" stroke="#dc2626" stroke-width="2"/>
<circle cx="368.0" cy="-190.5" r="4" fill="#dc2626"/>
<line x1="368.0" y1="-190.5" x2="432.0" y2="-247.5" stroke="#dc2626" stroke-width="2"/>
<circle cx="432.0" cy="-247.5" r="4" fill="#dc2626"/>
<line x1="432.0" y1="-247.5" x2="496.0" y2="-249.3" stroke="#dc2626" stroke-width="2"/>
<circle cx="496.0" cy="-249.3" r="4" fill="#dc2626"/>
<line x1="496.0" y1="-249.3" x2="560.0" y2="-254.4" stroke="#dc2626" stroke-width="2"/>
<circle cx="560.0" cy="-254.4" r="4" fill="#dc2626"/>
<line x1="560.0" y1="-254.4" x2="624.0" y2="-256.6" stroke="#dc2626" stroke-width="2"/>
<circle cx="624.0" cy="-256.6" r="4" fill="#dc2626"/>
<circle cx="688.0" cy="377.8" r="4" fill="#dc2626"/>
<line x1="688.0" y1="377.8" x2="752.0" y2="362.5" stroke="#dc2626" stroke-width="2"/>
<circle cx="752.0" cy="362.5" r="4" fill="#dc2626"/>
<line x1="752.0" y1="362.5" x2="816.0" y2="362.3" stroke="#dc2626" stroke-width="2"/>
<circle cx="816.0" cy="362.3" r="4" fill="#dc2626"/>
<circle cx="880.0" cy="397.3" r="4" fill="#dc2626"/>
<line x1="880.0" y1="397.3" x2="944.0" y2="369.7" stroke="#dc2626" stroke-width="2"/>
<circle cx="944.0" cy="369.7" r="4" fill="#dc2626"/>
<line x1="944.0" y1="369.7" x2="1008.0" y2="364.8" stroke="#dc2626" stroke-width="2"/>
<circle cx="1008.0" cy="364.8" r="4" fill="#dc2626"/>
<g transform="translate(80 485)" font-family="Arial, sans-serif" font-size="12">
<rect x="0" y="-10" width="14" height="14" fill="#3b82f6"/><text x="22" y="2">v1 delta</text>
<rect x="100" y="-10" width="14" height="14" fill="#a855f7"/><text x="122" y="2">v2 delta</text>
<rect x="200" y="-10" width="14" height="14" fill="#16a34a"/><text x="222" y="2">v3 delta</text>
<line x1="290" y1="-3" x2="320" y2="-3" stroke="#dc2626" stroke-width="2"/><circle cx="305" cy="-3" r="4" fill="#dc2626"/><text x="328" y="2">Kumulativt per version</text>
</g>
</svg>