<?xml version="1.0" encoding="UTF-8"?>
<svg xmlns="http://www.w3.org/2000/svg" width="1100" height="620" viewBox="0 0 1100 620">
  <rect width="100%" height="100%" fill="#ffffff"/>
  <text x="72" y="30" font-family="Arial, sans-serif" font-size="22" font-weight="700" fill="#111827">Training progress</text>
  <text x="1068" y="30" text-anchor="end" font-family="Arial, sans-serif" font-size="13" fill="#4b5563">Final champion epoch: 99</text>
  <g font-family="Arial, sans-serif">
    <line x1="72.0" y1="54.0" x2="72.0" y2="542.0" stroke="#eef2f7" stroke-width="1"/>
    <text x="72.0" y="566.0" text-anchor="middle" font-size="12" fill="#4b5563">1</text>
    <line x1="172.6" y1="54.0" x2="172.6" y2="542.0" stroke="#eef2f7" stroke-width="1"/>
    <text x="172.6" y="566.0" text-anchor="middle" font-size="12" fill="#4b5563">11</text>
    <line x1="273.2" y1="54.0" x2="273.2" y2="542.0" stroke="#eef2f7" stroke-width="1"/>
    <text x="273.2" y="566.0" text-anchor="middle" font-size="12" fill="#4b5563">21</text>
    <line x1="373.8" y1="54.0" x2="373.8" y2="542.0" stroke="#eef2f7" stroke-width="1"/>
    <text x="373.8" y="566.0" text-anchor="middle" font-size="12" fill="#4b5563">31</text>
    <line x1="474.4" y1="54.0" x2="474.4" y2="542.0" stroke="#eef2f7" stroke-width="1"/>
    <text x="474.4" y="566.0" text-anchor="middle" font-size="12" fill="#4b5563">41</text>
    <line x1="575.0" y1="54.0" x2="575.0" y2="542.0" stroke="#eef2f7" stroke-width="1"/>
    <text x="575.0" y="566.0" text-anchor="middle" font-size="12" fill="#4b5563">51</text>
    <line x1="675.6" y1="54.0" x2="675.6" y2="542.0" stroke="#eef2f7" stroke-width="1"/>
    <text x="675.6" y="566.0" text-anchor="middle" font-size="12" fill="#4b5563">61</text>
    <line x1="776.2" y1="54.0" x2="776.2" y2="542.0" stroke="#eef2f7" stroke-width="1"/>
    <text x="776.2" y="566.0" text-anchor="middle" font-size="12" fill="#4b5563">71</text>
    <line x1="876.8" y1="54.0" x2="876.8" y2="542.0" stroke="#eef2f7" stroke-width="1"/>
    <text x="876.8" y="566.0" text-anchor="middle" font-size="12" fill="#4b5563">81</text>
    <line x1="977.5" y1="54.0" x2="977.5" y2="542.0" stroke="#eef2f7" stroke-width="1"/>
    <text x="977.5" y="566.0" text-anchor="middle" font-size="12" fill="#4b5563">91</text>
    <line x1="72.0" y1="542.0" x2="1068.0" y2="542.0" stroke="#d8dee9" stroke-width="1" opacity="0.55"/>
    <text x="60.0" y="546.0" text-anchor="end" font-size="12" fill="#4b5563">-2181.0</text>
    <line x1="72.0" y1="444.4" x2="1068.0" y2="444.4" stroke="#d8dee9" stroke-width="1" opacity="0.55"/>
    <text x="60.0" y="448.4" text-anchor="end" font-size="12" fill="#4b5563">-1293.4</text>
    <line x1="72.0" y1="346.8" x2="1068.0" y2="346.8" stroke="#d8dee9" stroke-width="1" opacity="0.55"/>
    <text x="60.0" y="350.8" text-anchor="end" font-size="12" fill="#4b5563">-405.8</text>
    <line x1="72.0" y1="249.2" x2="1068.0" y2="249.2" stroke="#d8dee9" stroke-width="1" opacity="0.55"/>
    <text x="60.0" y="253.2" text-anchor="end" font-size="12" fill="#4b5563">481.8</text>
    <line x1="72.0" y1="151.6" x2="1068.0" y2="151.6" stroke="#d8dee9" stroke-width="1" opacity="0.55"/>
    <text x="60.0" y="155.6" text-anchor="end" font-size="12" fill="#4b5563">1369.4</text>
    <line x1="72.0" y1="54.0" x2="1068.0" y2="54.0" stroke="#d8dee9" stroke-width="1" opacity="0.55"/>
    <text x="60.0" y="58.0" text-anchor="end" font-size="12" fill="#4b5563">2257.0</text>
    <line x1="72.0" y1="54.0" x2="72.0" y2="542.0" stroke="#111827" stroke-width="1.4"/>
    <line x1="72.0" y1="542.0" x2="1068.0" y2="542.0" stroke="#111827" stroke-width="1.4"/>
    <text x="570.0" y="596.0" text-anchor="middle" font-size="13" fill="#111827">Epoch</text>
    <text x="20" y="298.0" transform="rotate(-90 20 298.0)" text-anchor="middle" font-size="13" fill="#111827">Goals / goal diff</text>
    <polyline fill="none" stroke="#2563eb" stroke-width="2.4" points="72.0,302.0 82.1,302.0 92.1,302.0 102.2,302.0 112.2,302.0 122.3,302.0 132.4,302.0 142.4,302.0 152.5,302.0 162.5,302.0 172.6,302.0 182.7,302.0 192.7,302.0 202.8,302.0 212.8,302.0 222.9,302.0 233.0,302.0 243.0,302.0 253.1,302.0 263.2,302.0 273.2,302.0 283.3,302.0 293.3,302.0 303.4,302.0 313.5,302.0 323.5,302.0 333.6,302.0 343.6,302.0 353.7,302.0 363.8,302.0 373.8,302.0 383.9,302.0 393.9,302.0 404.0,302.0 414.1,302.0 424.1,302.0 434.2,302.0 444.2,302.1 454.3,302.0 464.4,302.0 474.4,302.0 484.5,302.0 494.5,302.0 504.6,302.0 514.7,302.0 524.7,302.0 534.8,302.0 544.8,302.0 554.9,302.0 565.0,302.0 575.0,301.9 585.1,301.9 595.2,302.0 605.2,301.9 615.3,301.9 625.3,301.9 635.4,301.9 645.5,301.9 655.5,301.9 665.6,302.0 675.6,302.0 685.7,302.0 695.8,301.9 705.8,301.9 715.9,301.9 725.9,301.9 736.0,301.9 746.1,301.9 756.1,301.9 766.2,301.9 776.2,301.9 786.3,301.9 796.4,301.9 806.4,301.9 816.5,301.9 826.5,301.9 836.6,301.9 846.7,301.9 856.7,302.0 866.8,301.9 876.8,302.1 886.9,301.9 897.0,301.9 907.0,301.9 917.1,302.0 927.2,301.9 937.2,301.9 947.3,301.9 957.3,301.9 967.4,301.9 977.5,301.9 987.5,301.9 997.6,301.9 1007.6,301.9 1017.7,301.9 1027.8,301.9 1037.8,301.9 1047.9,301.9 1057.9,301.9 1068.0,301.9"/>
    <polyline fill="none" stroke="#ef4444" stroke-width="2.4" points="72.0,302.0 82.1,302.0 92.1,302.0 102.2,302.0 112.2,302.0 122.3,302.0 132.4,302.0 142.4,302.0 152.5,302.0 162.5,302.0 172.6,302.0 182.7,302.0 192.7,302.0 202.8,302.0 212.8,302.0 222.9,302.0 233.0,302.0 243.0,302.0 253.1,302.0 263.2,302.0 273.2,302.0 283.3,302.0 293.3,302.0 303.4,302.0 313.5,302.0 323.5,302.0 333.6,302.0 343.6,302.0 353.7,302.0 363.8,302.0 373.8,302.0 383.9,302.0 393.9,302.0 404.0,302.0 414.1,302.0 424.1,302.0 434.2,302.0 444.2,301.9 454.3,302.0 464.4,302.0 474.4,302.0 484.5,302.0 494.5,302.0 504.6,302.0 514.7,302.0 524.7,302.0 534.8,302.0 544.8,302.0 554.9,302.0 565.0,302.0 575.0,301.9 585.1,301.9 595.2,302.0 605.2,301.9 615.3,301.9 625.3,301.9 635.4,301.9 645.5,301.9 655.5,301.9 665.6,301.9 675.6,301.9 685.7,302.0 695.8,301.9 705.8,301.9 715.9,301.9 725.9,301.9 736.0,301.9 746.1,301.9 756.1,301.9 766.2,301.9 776.2,301.9 786.3,301.9 796.4,301.9 806.4,301.9 816.5,301.9 826.5,301.9 836.6,301.9 846.7,301.9 856.7,301.9 866.8,301.9 876.8,301.9 886.9,301.9 897.0,301.9 907.0,301.9 917.1,301.9 927.2,301.9 937.2,301.9 947.3,301.9 957.3,301.9 967.4,301.9 977.5,301.9 987.5,301.9 997.6,301.9 1007.6,301.9 1017.7,301.9 1027.8,301.9 1037.8,301.9 1047.9,301.9 1057.9,301.9 1068.0,301.9"/>
    <polyline fill="none" stroke="#7c3aed" stroke-width="2" stroke-dasharray="6 5" points="72.0,408.6 82.1,285.2 92.1,274.5 102.2,315.6 112.2,318.3 122.3,349.6 132.4,199.4 142.4,295.3 152.5,252.9 162.5,217.7 172.6,316.1 182.7,261.8 192.7,427.0 202.8,333.3 212.8,387.1 222.9,309.3 233.0,339.2 243.0,298.1 253.1,299.0 263.2,349.7 273.2,317.4 283.3,219.2 293.3,327.2 303.4,308.9 313.5,226.2 323.5,337.9 333.6,292.0 343.6,323.1 353.7,323.3 363.8,203.1 373.8,336.8 383.9,272.3 393.9,285.4 404.0,246.8 414.1,231.0 424.1,162.1 434.2,277.4 444.2,313.8 454.3,317.7 464.4,222.9 474.4,159.1 484.5,343.1 494.5,474.6 504.6,204.9 514.7,304.6 524.7,312.4 534.8,312.7 544.8,420.2 554.9,332.9 565.0,179.1 575.0,236.2 585.1,294.6 595.2,317.0 605.2,334.8 615.3,216.5 625.3,344.7 635.4,250.9 645.5,395.4 655.5,321.1 665.6,314.7 675.6,312.7 685.7,312.1 695.8,292.0 705.8,197.4 715.9,520.3 725.9,388.8 736.0,333.2 746.1,265.6 756.1,154.7 766.2,201.9 776.2,271.3 786.3,280.7 796.4,309.3 806.4,133.6 816.5,350.7 826.5,285.8 836.6,405.5 846.7,286.5 856.7,314.3 866.8,72.7 876.8,314.5 886.9,129.5 897.0,399.1 907.0,289.2 917.1,315.8 927.2,109.9 937.2,156.5 947.3,370.8 957.3,347.2 967.4,438.5 977.5,538.5 987.5,272.2 997.6,326.6 1007.6,282.7 1017.7,259.8 1027.8,220.9 1037.8,264.8 1047.9,542.0 1057.9,54.0 1068.0,505.2"/>
    <circle cx="82.1" cy="285.2" r="5" fill="#16a34a"><title>Accepted epoch 2, diff 154</title></circle>
    <circle cx="92.1" cy="274.5" r="5" fill="#16a34a"><title>Accepted epoch 3, diff 252</title></circle>
    <circle cx="132.4" cy="199.4" r="5" fill="#16a34a"><title>Accepted epoch 7, diff 935</title></circle>
    <circle cx="142.4" cy="295.3" r="5" fill="#16a34a"><title>Accepted epoch 8, diff 63</title></circle>
    <circle cx="152.5" cy="252.9" r="5" fill="#16a34a"><title>Accepted epoch 9, diff 448</title></circle>
    <circle cx="162.5" cy="217.7" r="5" fill="#16a34a"><title>Accepted epoch 10, diff 768</title></circle>
    <circle cx="182.7" cy="261.8" r="5" fill="#16a34a"><title>Accepted epoch 12, diff 367</title></circle>
    <circle cx="243.0" cy="298.1" r="5" fill="#16a34a"><title>Accepted epoch 18, diff 37</title></circle>
    <circle cx="253.1" cy="299.0" r="5" fill="#16a34a"><title>Accepted epoch 19, diff 29</title></circle>
    <circle cx="283.3" cy="219.2" r="5" fill="#16a34a"><title>Accepted epoch 22, diff 755</title></circle>
    <circle cx="313.5" cy="226.2" r="5" fill="#16a34a"><title>Accepted epoch 25, diff 691</title></circle>
    <circle cx="333.6" cy="292.0" r="5" fill="#16a34a"><title>Accepted epoch 27, diff 93</title></circle>
    <circle cx="363.8" cy="203.1" r="5" fill="#16a34a"><title>Accepted epoch 30, diff 901</title></circle>
    <circle cx="383.9" cy="272.3" r="5" fill="#16a34a"><title>Accepted epoch 32, diff 272</title></circle>
    <circle cx="393.9" cy="285.4" r="5" fill="#16a34a"><title>Accepted epoch 33, diff 153</title></circle>
    <circle cx="404.0" cy="246.8" r="5" fill="#16a34a"><title>Accepted epoch 34, diff 504</title></circle>
    <circle cx="414.1" cy="231.0" r="5" fill="#16a34a"><title>Accepted epoch 35, diff 647</title></circle>
    <circle cx="424.1" cy="162.1" r="5" fill="#16a34a"><title>Accepted epoch 36, diff 1274</title></circle>
    <circle cx="434.2" cy="277.4" r="5" fill="#16a34a"><title>Accepted epoch 37, diff 225</title></circle>
    <circle cx="464.4" cy="222.9" r="5" fill="#16a34a"><title>Accepted epoch 40, diff 721</title></circle>
    <circle cx="474.4" cy="159.1" r="5" fill="#16a34a"><title>Accepted epoch 41, diff 1301</title></circle>
    <circle cx="504.6" cy="204.9" r="5" fill="#16a34a"><title>Accepted epoch 44, diff 885</title></circle>
    <circle cx="565.0" cy="179.1" r="5" fill="#16a34a"><title>Accepted epoch 50, diff 1119</title></circle>
    <circle cx="575.0" cy="236.2" r="5" fill="#16a34a"><title>Accepted epoch 51, diff 600</title></circle>
    <circle cx="585.1" cy="294.6" r="5" fill="#16a34a"><title>Accepted epoch 52, diff 69</title></circle>
    <circle cx="615.3" cy="216.5" r="5" fill="#16a34a"><title>Accepted epoch 55, diff 779</title></circle>
    <circle cx="635.4" cy="250.9" r="5" fill="#16a34a"><title>Accepted epoch 57, diff 466</title></circle>
    <circle cx="695.8" cy="292.0" r="5" fill="#16a34a"><title>Accepted epoch 63, diff 93</title></circle>
    <circle cx="705.8" cy="197.4" r="5" fill="#16a34a"><title>Accepted epoch 64, diff 953</title></circle>
    <circle cx="746.1" cy="265.6" r="5" fill="#16a34a"><title>Accepted epoch 68, diff 333</title></circle>
    <circle cx="756.1" cy="154.7" r="5" fill="#16a34a"><title>Accepted epoch 69, diff 1341</title></circle>
    <circle cx="766.2" cy="201.9" r="5" fill="#16a34a"><title>Accepted epoch 70, diff 912</title></circle>
    <circle cx="776.2" cy="271.3" r="5" fill="#16a34a"><title>Accepted epoch 71, diff 281</title></circle>
    <circle cx="786.3" cy="280.7" r="5" fill="#16a34a"><title>Accepted epoch 72, diff 195</title></circle>
    <circle cx="806.4" cy="133.6" r="5" fill="#16a34a"><title>Accepted epoch 74, diff 1533</title></circle>
    <circle cx="826.5" cy="285.8" r="5" fill="#16a34a"><title>Accepted epoch 76, diff 149</title></circle>
    <circle cx="846.7" cy="286.5" r="5" fill="#16a34a"><title>Accepted epoch 78, diff 143</title></circle>
    <circle cx="866.8" cy="72.7" r="5" fill="#16a34a"><title>Accepted epoch 80, diff 2087</title></circle>
    <circle cx="886.9" cy="129.5" r="5" fill="#16a34a"><title>Accepted epoch 82, diff 1570</title></circle>
    <circle cx="907.0" cy="289.2" r="5" fill="#16a34a"><title>Accepted epoch 84, diff 118</title></circle>
    <circle cx="927.2" cy="109.9" r="5" fill="#16a34a"><title>Accepted epoch 86, diff 1749</title></circle>
    <circle cx="937.2" cy="156.5" r="5" fill="#16a34a"><title>Accepted epoch 87, diff 1325</title></circle>
    <circle cx="987.5" cy="272.2" r="5" fill="#16a34a"><title>Accepted epoch 92, diff 273</title></circle>
    <circle cx="1007.6" cy="282.7" r="5" fill="#16a34a"><title>Accepted epoch 94, diff 177</title></circle>
    <circle cx="1017.7" cy="259.8" r="5" fill="#16a34a"><title>Accepted epoch 95, diff 385</title></circle>
    <circle cx="1027.8" cy="220.9" r="5" fill="#16a34a"><title>Accepted epoch 96, diff 739</title></circle>
    <circle cx="1037.8" cy="264.8" r="5" fill="#16a34a"><title>Accepted epoch 97, diff 340</title></circle>
    <circle cx="1057.9" cy="54.0" r="5" fill="#16a34a"><title>Accepted epoch 99, diff 2257</title></circle>
    <g transform="translate(72, 566.0)" font-size="13" fill="#111827">
      <rect x="0" y="-12" width="14" height="4" fill="#2563eb"/><text x="22" y="-7">Candidate avg goals</text>
      <rect x="190" y="-12" width="14" height="4" fill="#ef4444"/><text x="212" y="-7">Baseline avg goals</text>
      <rect x="378" y="-12" width="14" height="4" fill="#7c3aed"/><text x="400" y="-7">Goal diff</text>
      <circle cx="548" cy="-10" r="5" fill="#16a34a"/><text x="562" y="-7">Accepted improvement</text>
    </g>
  </g>
</svg>
