<?xml version="1.0" encoding="UTF-8"?>
<svg xmlns="http://www.w3.org/2000/svg" width="1100" height="620" viewBox="0 0 1100 620">
  <rect width="100%" height="100%" fill="#ffffff"/>
  <text x="72" y="30" font-family="Arial, sans-serif" font-size="22" font-weight="700" fill="#111827">Training progress</text>
  <text x="1068" y="30" text-anchor="end" font-family="Arial, sans-serif" font-size="13" fill="#4b5563">Final champion epoch: 26</text>
  <g font-family="Arial, sans-serif">
    <line x1="72.0" y1="54.0" x2="72.0" y2="542.0" stroke="#eef2f7" stroke-width="1"/>
    <text x="72.0" y="566.0" text-anchor="middle" font-size="12" fill="#4b5563">1</text>
    <line x1="172.6" y1="54.0" x2="172.6" y2="542.0" stroke="#eef2f7" stroke-width="1"/>
    <text x="172.6" y="566.0" text-anchor="middle" font-size="12" fill="#4b5563">11</text>
    <line x1="273.2" y1="54.0" x2="273.2" y2="542.0" stroke="#eef2f7" stroke-width="1"/>
    <text x="273.2" y="566.0" text-anchor="middle" font-size="12" fill="#4b5563">21</text>
    <line x1="373.8" y1="54.0" x2="373.8" y2="542.0" stroke="#eef2f7" stroke-width="1"/>
    <text x="373.8" y="566.0" text-anchor="middle" font-size="12" fill="#4b5563">31</text>
    <line x1="474.4" y1="54.0" x2="474.4" y2="542.0" stroke="#eef2f7" stroke-width="1"/>
    <text x="474.4" y="566.0" text-anchor="middle" font-size="12" fill="#4b5563">41</text>
    <line x1="575.0" y1="54.0" x2="575.0" y2="542.0" stroke="#eef2f7" stroke-width="1"/>
    <text x="575.0" y="566.0" text-anchor="middle" font-size="12" fill="#4b5563">51</text>
    <line x1="675.6" y1="54.0" x2="675.6" y2="542.0" stroke="#eef2f7" stroke-width="1"/>
    <text x="675.6" y="566.0" text-anchor="middle" font-size="12" fill="#4b5563">61</text>
    <line x1="776.2" y1="54.0" x2="776.2" y2="542.0" stroke="#eef2f7" stroke-width="1"/>
    <text x="776.2" y="566.0" text-anchor="middle" font-size="12" fill="#4b5563">71</text>
    <line x1="876.8" y1="54.0" x2="876.8" y2="542.0" stroke="#eef2f7" stroke-width="1"/>
    <text x="876.8" y="566.0" text-anchor="middle" font-size="12" fill="#4b5563">81</text>
    <line x1="977.5" y1="54.0" x2="977.5" y2="542.0" stroke="#eef2f7" stroke-width="1"/>
    <text x="977.5" y="566.0" text-anchor="middle" font-size="12" fill="#4b5563">91</text>
    <line x1="72.0" y1="542.0" x2="1068.0" y2="542.0" stroke="#d8dee9" stroke-width="1" opacity="0.55"/>
    <text x="60.0" y="546.0" text-anchor="end" font-size="12" fill="#4b5563">-493.0</text>
    <line x1="72.0" y1="444.4" x2="1068.0" y2="444.4" stroke="#d8dee9" stroke-width="1" opacity="0.55"/>
    <text x="60.0" y="448.4" text-anchor="end" font-size="12" fill="#4b5563">-355.8</text>
    <line x1="72.0" y1="346.8" x2="1068.0" y2="346.8" stroke="#d8dee9" stroke-width="1" opacity="0.55"/>
    <text x="60.0" y="350.8" text-anchor="end" font-size="12" fill="#4b5563">-218.6</text>
    <line x1="72.0" y1="249.2" x2="1068.0" y2="249.2" stroke="#d8dee9" stroke-width="1" opacity="0.55"/>
    <text x="60.0" y="253.2" text-anchor="end" font-size="12" fill="#4b5563">-81.4</text>
    <line x1="72.0" y1="151.6" x2="1068.0" y2="151.6" stroke="#d8dee9" stroke-width="1" opacity="0.55"/>
    <text x="60.0" y="155.6" text-anchor="end" font-size="12" fill="#4b5563">55.8</text>
    <line x1="72.0" y1="54.0" x2="1068.0" y2="54.0" stroke="#d8dee9" stroke-width="1" opacity="0.55"/>
    <text x="60.0" y="58.0" text-anchor="end" font-size="12" fill="#4b5563">193.0</text>
    <line x1="72.0" y1="54.0" x2="72.0" y2="542.0" stroke="#111827" stroke-width="1.4"/>
    <line x1="72.0" y1="542.0" x2="1068.0" y2="542.0" stroke="#111827" stroke-width="1.4"/>
    <text x="570.0" y="596.0" text-anchor="middle" font-size="13" fill="#111827">Epoch</text>
    <text x="20" y="298.0" transform="rotate(-90 20 298.0)" text-anchor="middle" font-size="13" fill="#111827">Goals / goal diff</text>
    <polyline fill="none" stroke="#2563eb" stroke-width="2.4" points="72.0,190.4 82.1,191.3 92.1,191.3 102.2,191.3 112.2,190.4 122.3,190.6 132.4,191.3 142.4,191.3 152.5,190.5 162.5,190.2 172.6,190.7 182.7,190.2 192.7,191.3 202.8,191.2 212.8,190.5 222.9,191.3 233.0,190.6 243.0,190.8 253.1,190.4 263.2,191.3 273.2,190.3 283.3,190.3 293.3,190.4 303.4,190.2 313.5,191.3 323.5,189.5 333.6,190.2 343.6,188.6 353.7,188.6 363.8,190.1 373.8,191.3 383.9,188.8 393.9,188.8 404.0,188.6 414.1,188.5 424.1,191.3 434.2,189.2 444.2,188.7 454.3,188.4 464.4,189.1 474.4,189.3 484.5,188.8 494.5,188.8 504.6,188.9 514.7,188.4 524.7,188.4 534.8,189.0 544.8,188.5 554.9,188.8 565.0,190.5 575.0,188.7 585.1,189.6 595.2,188.9 605.2,190.3 615.3,191.3 625.3,190.6 635.4,191.3 645.5,188.9 655.5,188.9 665.6,191.2 675.6,190.4 685.7,188.7 695.8,188.5 705.8,188.5 715.9,189.9 725.9,190.4 736.0,188.7 746.1,190.2 756.1,191.2 766.2,188.9 776.2,190.7 786.3,188.7 796.4,189.2 806.4,189.0 816.5,188.7 826.5,189.2 836.6,190.3 846.7,190.5 856.7,188.7 866.8,189.3 876.8,190.2 886.9,188.4 897.0,190.4 907.0,188.5 917.1,191.2 927.2,188.7 937.2,190.1 947.3,188.9 957.3,191.3 967.4,188.8 977.5,188.7 987.5,188.6 997.6,188.5 1007.6,190.3 1017.7,188.6 1027.8,188.7 1037.8,190.4 1047.9,190.6 1057.9,190.6 1068.0,188.6"/>
    <polyline fill="none" stroke="#ef4444" stroke-width="2.4" points="72.0,189.9 82.1,190.4 92.1,190.5 102.2,190.5 112.2,189.9 122.3,190.2 132.4,190.5 142.4,189.5 152.5,190.2 162.5,189.9 172.6,190.3 182.7,189.8 192.7,190.6 202.8,189.6 212.8,190.2 222.9,190.5 233.0,190.3 243.0,190.4 253.1,190.1 263.2,190.6 273.2,190.0 283.3,190.0 293.3,190.0 303.4,190.1 313.5,190.0 323.5,189.7 333.6,189.3 343.6,187.9 353.7,188.0 363.8,189.1 373.8,189.9 383.9,188.0 393.9,188.1 404.0,188.2 414.1,187.9 424.1,190.0 434.2,188.3 444.2,188.1 454.3,187.7 464.4,188.0 474.4,188.7 484.5,188.0 494.5,187.9 504.6,187.9 514.7,188.0 524.7,187.8 534.8,187.7 544.8,188.0 554.9,188.2 565.0,189.7 575.0,188.2 585.1,188.7 595.2,188.2 605.2,189.2 615.3,190.1 625.3,189.8 635.4,190.1 645.5,187.9 655.5,188.4 665.6,187.7 675.6,189.3 685.7,187.9 695.8,188.0 705.8,187.9 715.9,189.1 725.9,189.3 736.0,187.9 746.1,189.4 756.1,189.4 766.2,187.9 776.2,189.9 786.3,188.2 796.4,188.3 806.4,187.7 816.5,188.1 826.5,188.3 836.6,189.7 846.7,189.5 856.7,188.1 866.8,188.1 876.8,189.4 886.9,187.9 897.0,189.6 907.0,187.6 917.1,188.3 927.2,187.7 937.2,188.9 947.3,188.1 957.3,190.3 967.4,188.0 977.5,188.0 987.5,188.1 997.6,187.7 1007.6,189.5 1017.7,188.1 1027.8,187.9 1037.8,189.8 1047.9,189.6 1057.9,189.7 1068.0,188.1"/>
    <polyline fill="none" stroke="#7c3aed" stroke-width="2" stroke-dasharray="6 5" points="72.0,236.1 82.1,285.2 92.1,266.0 102.2,266.0 112.2,236.1 122.3,232.6 132.4,267.4 142.4,366.3 152.5,231.8 162.5,232.6 172.6,234.7 182.7,229.7 192.7,261.7 202.8,351.4 212.8,232.6 222.9,273.8 233.0,224.0 243.0,225.4 253.1,240.4 263.2,264.6 273.2,242.5 283.3,239.0 293.3,228.3 303.4,253.9 313.5,318.6 323.5,54.0 333.6,280.9 343.6,258.9 353.7,275.9 363.8,283.8 373.8,325.7 383.9,274.5 393.9,264.6 404.0,268.8 414.1,246.8 424.1,322.2 434.2,281.6 444.2,251.8 454.3,266.0 464.4,294.4 474.4,248.9 484.5,270.3 494.5,280.2 504.6,291.6 514.7,286.6 524.7,256.7 534.8,321.5 544.8,273.1 554.9,250.3 565.0,271.0 575.0,273.8 585.1,280.2 595.2,255.3 605.2,299.4 615.3,305.1 625.3,275.2 635.4,311.5 645.5,295.9 655.5,266.7 665.6,542.0 675.6,305.8 685.7,262.4 695.8,249.6 705.8,257.5 715.9,264.6 725.9,301.6 736.0,266.7 746.1,270.3 756.1,376.3 766.2,287.3 776.2,272.4 786.3,255.3 796.4,285.2 806.4,313.7 816.5,260.3 826.5,285.2 836.6,255.3 846.7,292.3 856.7,246.8 866.8,315.1 876.8,263.9 886.9,243.2 897.0,272.4 907.0,275.9 917.1,478.0 927.2,290.2 937.2,304.4 947.3,270.3 957.3,290.9 967.4,275.2 977.5,261.0 987.5,245.4 997.6,273.1 1007.6,279.5 1017.7,253.9 1027.8,263.9 1037.8,250.3 1047.9,282.3 1057.9,284.5 1068.0,256.7"/>
    <circle cx="323.5" cy="54.0" r="5" fill="#16a34a"><title>Accepted epoch 26, diff 193</title></circle>
    <g transform="translate(72, 566.0)" font-size="13" fill="#111827">
      <rect x="0" y="-12" width="14" height="4" fill="#2563eb"/><text x="22" y="-7">Candidate avg goals</text>
      <rect x="190" y="-12" width="14" height="4" fill="#ef4444"/><text x="212" y="-7">Baseline avg goals</text>
      <rect x="378" y="-12" width="14" height="4" fill="#7c3aed"/><text x="400" y="-7">Goal diff</text>
      <circle cx="548" cy="-10" r="5" fill="#16a34a"/><text x="562" y="-7">Accepted improvement</text>
    </g>
  </g>
</svg>
