<?xml version="1.0" encoding="UTF-8"?>
<svg xmlns="http://www.w3.org/2000/svg" width="1100" height="620" viewBox="0 0 1100 620">
  <rect width="100%" height="100%" fill="#ffffff"/>
  <text x="72" y="30" font-family="Arial, sans-serif" font-size="22" font-weight="700" fill="#111827">Training progress</text>
  <text x="1068" y="30" text-anchor="end" font-family="Arial, sans-serif" font-size="13" fill="#4b5563">Final champion epoch: 80</text>
  <g font-family="Arial, sans-serif">
    <line x1="72.0" y1="54" x2="72.0" y2="542" stroke="#eef2f7" stroke-width="1"/>
    <text x="72.0" y="566" text-anchor="middle" font-size="12" fill="#4b5563">1</text>
    <line x1="172.6" y1="54" x2="172.6" y2="542" stroke="#eef2f7" stroke-width="1"/>
    <text x="172.6" y="566" text-anchor="middle" font-size="12" fill="#4b5563">11</text>
    <line x1="273.2" y1="54" x2="273.2" y2="542" stroke="#eef2f7" stroke-width="1"/>
    <text x="273.2" y="566" text-anchor="middle" font-size="12" fill="#4b5563">21</text>
    <line x1="373.8" y1="54" x2="373.8" y2="542" stroke="#eef2f7" stroke-width="1"/>
    <text x="373.8" y="566" text-anchor="middle" font-size="12" fill="#4b5563">31</text>
    <line x1="474.4" y1="54" x2="474.4" y2="542" stroke="#eef2f7" stroke-width="1"/>
    <text x="474.4" y="566" text-anchor="middle" font-size="12" fill="#4b5563">41</text>
    <line x1="575.0" y1="54" x2="575.0" y2="542" stroke="#eef2f7" stroke-width="1"/>
    <text x="575.0" y="566" text-anchor="middle" font-size="12" fill="#4b5563">51</text>
    <line x1="675.6" y1="54" x2="675.6" y2="542" stroke="#eef2f7" stroke-width="1"/>
    <text x="675.6" y="566" text-anchor="middle" font-size="12" fill="#4b5563">61</text>
    <line x1="776.2" y1="54" x2="776.2" y2="542" stroke="#eef2f7" stroke-width="1"/>
    <text x="776.2" y="566" text-anchor="middle" font-size="12" fill="#4b5563">71</text>
    <line x1="876.8" y1="54" x2="876.8" y2="542" stroke="#eef2f7" stroke-width="1"/>
    <text x="876.8" y="566" text-anchor="middle" font-size="12" fill="#4b5563">81</text>
    <line x1="977.5" y1="54" x2="977.5" y2="542" stroke="#eef2f7" stroke-width="1"/>
    <text x="977.5" y="566" text-anchor="middle" font-size="12" fill="#4b5563">91</text>
    <line x1="72" y1="542.0" x2="1068" y2="542.0" stroke="#d8dee9" stroke-width="1" opacity="0.55"/>
    <text x="60" y="546.0" text-anchor="end" font-size="12" fill="#4b5563">-2501.0</text>
    <line x1="72" y1="444.4" x2="1068" y2="444.4" stroke="#d8dee9" stroke-width="1" opacity="0.55"/>
    <text x="60" y="448.4" text-anchor="end" font-size="12" fill="#4b5563">-1998.0</text>
    <line x1="72" y1="346.8" x2="1068" y2="346.8" stroke="#d8dee9" stroke-width="1" opacity="0.55"/>
    <text x="60" y="350.8" text-anchor="end" font-size="12" fill="#4b5563">-1495.0</text>
    <line x1="72" y1="249.2" x2="1068" y2="249.2" stroke="#d8dee9" stroke-width="1" opacity="0.55"/>
    <text x="60" y="253.2" text-anchor="end" font-size="12" fill="#4b5563">-992.0</text>
    <line x1="72" y1="151.6" x2="1068" y2="151.6" stroke="#d8dee9" stroke-width="1" opacity="0.55"/>
    <text x="60" y="155.6" text-anchor="end" font-size="12" fill="#4b5563">-489.0</text>
    <line x1="72" y1="54.0" x2="1068" y2="54.0" stroke="#d8dee9" stroke-width="1" opacity="0.55"/>
    <text x="60" y="58.0" text-anchor="end" font-size="12" fill="#4b5563">14.0</text>
    <line x1="72" y1="542" x2="1068" y2="542" stroke="#111827" stroke-width="1.4"/>
    <line x1="72" y1="54" x2="72" y2="542" stroke="#111827" stroke-width="1.4"/>
    <text x="570" y="596" text-anchor="middle" font-size="13" fill="#111827">Epoch</text>
    <text x="20" y="298" transform="rotate(-90 20 298)" text-anchor="middle" font-size="13" fill="#111827">Goals / goal diff</text>
    <polyline fill="none" stroke="#2563eb" stroke-width="2.4" points="72.0,56.5 82.1,56.5 92.1,56.5 102.2,56.7 112.2,56.5 122.3,56.7 132.4,56.5 142.4,56.4 152.5,56.2 162.5,56.5 172.6,56.7 182.7,56.5 192.7,56.5 202.8,56.5 212.8,56.5 222.9,56.5 233.0,56.4 243.0,56.5 253.1,56.4 263.2,56.7 273.2,56.5 283.3,56.5 293.3,56.7 303.4,56.7 313.5,56.4 323.5,56.3 333.6,56.5 343.6,56.4 353.7,56.5 363.8,56.4 373.8,56.4 383.9,56.4 393.9,56.7 404.0,56.7 414.1,56.3 424.1,56.7 434.2,56.7 444.2,56.7 454.3,56.4 464.4,56.4 474.4,56.7 484.5,56.7 494.5,56.4 504.6,56.7 514.7,56.5 524.7,56.3 534.8,56.4 544.8,56.7 554.9,56.7 565.0,56.4 575.0,56.7 585.1,56.4 595.2,56.7 605.2,56.4 615.3,56.3 625.3,56.7 635.4,56.5 645.5,56.7 655.5,56.5 665.6,56.3 675.6,56.5 685.7,56.7 695.8,56.7 705.8,56.4 715.9,56.7 725.9,56.7 736.0,56.7 746.1,56.7 756.1,56.7 766.2,56.4 776.2,56.4 786.3,56.7 796.4,56.5 806.4,56.5 816.5,56.7 826.5,56.7 836.6,56.7 846.7,56.7 856.7,56.4 866.8,56.2 876.8,56.0 886.9,56.1 897.0,56.0 907.0,55.9 917.1,56.0 927.2,56.2 937.2,56.1 947.3,56.0 957.3,56.0 967.4,56.0 977.5,55.9 987.5,56.6 997.6,56.6 1007.6,56.0 1017.7,56.1 1027.8,55.9 1037.8,56.0 1047.9,56.4 1057.9,56.6 1068.0,56.1"/>
    <polyline fill="none" stroke="#ef4444" stroke-width="2.4" points="72.0,56.4 82.1,56.4 92.1,56.4 102.2,56.3 112.2,56.4 122.3,56.5 132.4,56.4 142.4,56.4 152.5,56.2 162.5,56.4 172.6,56.3 182.7,56.4 192.7,56.4 202.8,56.4 212.8,56.4 222.9,56.4 233.0,56.4 243.0,56.4 253.1,56.3 263.2,56.5 273.2,56.4 283.3,56.4 293.3,56.2 303.4,56.5 313.5,56.4 323.5,56.3 333.6,56.4 343.6,56.3 353.7,56.4 363.8,56.4 373.8,56.3 383.9,56.4 393.9,56.5 404.0,56.5 414.1,56.3 424.1,56.3 434.2,56.5 444.2,56.5 454.3,56.3 464.4,56.3 474.4,56.5 484.5,56.4 494.5,56.3 504.6,56.5 514.7,56.4 524.7,56.3 534.8,56.3 544.8,56.5 554.9,56.5 565.0,56.4 575.0,56.5 585.1,56.3 595.2,56.5 605.2,56.3 615.3,56.3 625.3,56.5 635.4,56.4 645.5,56.5 655.5,56.4 665.6,56.3 675.6,56.3 685.7,56.5 695.8,56.2 705.8,56.4 715.9,56.4 725.9,56.5 736.0,56.3 746.1,56.4 756.1,56.2 766.2,56.4 776.2,56.3 786.3,56.3 796.4,56.4 806.4,56.4 816.5,56.5 826.5,56.5 836.6,56.5 846.7,56.5 856.7,56.3 866.8,56.2 876.8,55.8 886.9,55.9 897.0,55.8 907.0,55.8 917.1,55.9 927.2,56.0 937.2,55.9 947.3,55.8 957.3,55.8 967.4,55.9 977.5,55.8 987.5,56.4 997.6,56.4 1007.6,55.8 1017.7,55.7 1027.8,55.8 1037.8,55.8 1047.9,56.2 1057.9,56.3 1068.0,55.9"/>
    <polyline fill="none" stroke="#7c3aed" stroke-width="2" stroke-dasharray="6 5" points="72.0,139.6 82.1,172.6 92.1,166.3 102.2,495.4 112.2,168.7 122.3,255.6 132.4,139.0 142.4,123.9 152.5,58.9 162.5,158.2 172.6,501.1 182.7,143.6 192.7,171.0 202.8,145.8 212.8,161.3 222.9,142.5 233.0,130.3 243.0,148.1 253.1,129.5 263.2,273.1 273.2,147.7 283.3,162.5 293.3,529.0 303.4,288.6 313.5,110.3 323.5,96.3 333.6,143.8 343.6,141.9 353.7,134.1 363.8,137.2 373.8,141.3 383.9,127.9 393.9,253.7 404.0,304.1 414.1,87.4 424.1,463.2 434.2,253.5 444.2,259.5 454.3,162.5 464.4,143.6 474.4,260.6 484.5,405.4 494.5,115.7 504.6,258.5 514.7,147.9 524.7,113.8 534.8,128.3 544.8,255.8 554.9,269.6 565.0,116.9 575.0,254.6 585.1,130.5 595.2,256.0 605.2,140.2 615.3,60.6 625.3,294.8 635.4,164.6 645.5,253.3 655.5,145.6 665.6,73.6 675.6,181.3 685.7,298.9 695.8,542.0 705.8,122.5 715.9,403.5 725.9,274.0 736.0,458.2 746.1,329.1 756.1,528.8 766.2,129.5 776.2,146.2 786.3,464.4 796.4,188.5 806.4,171.4 816.5,261.0 826.5,288.8 836.6,271.3 846.7,253.1 856.7,176.0 866.8,54.0 876.8,240.5 886.9,249.6 897.0,188.5 907.0,158.8 917.1,136.5 927.2,313.2 937.2,227.1 947.3,214.5 957.3,240.5 967.4,165.6 977.5,140.2 987.5,291.9 997.6,263.6 1007.6,281.8 1017.7,394.7 1027.8,110.3 1037.8,177.4 1047.9,287.4 1057.9,303.9 1068.0,201.3"/>
    <circle cx="866.8" cy="54.0" r="5" fill="#16a34a"><title>Accepted epoch 80, diff 14</title></circle>
    <g transform="translate(72, 566)" font-size="13" fill="#111827">
      <rect x="0" y="-12" width="14" height="4" fill="#2563eb"/><text x="22" y="-7">Candidate avg goals</text>
      <rect x="190" y="-12" width="14" height="4" fill="#ef4444"/><text x="212" y="-7">Baseline avg goals</text>
      <rect x="378" y="-12" width="14" height="4" fill="#7c3aed"/><text x="400" y="-7">Goal diff</text>
      <circle cx="548" cy="-10" r="5" fill="#16a34a"/><text x="562" y="-7">Accepted improvement</text>
    </g>
  </g>
</svg>
