<?xml version="1.0" encoding="UTF-8"?>
<svg xmlns="http://www.w3.org/2000/svg" width="1100" height="620" viewBox="0 0 1100 620">
  <rect width="100%" height="100%" fill="#ffffff"/>
  <text x="72" y="30" font-family="Arial, sans-serif" font-size="22" font-weight="700" fill="#111827">Training progress</text>
  <text x="1068" y="30" text-anchor="end" font-family="Arial, sans-serif" font-size="13" fill="#4b5563">Final champion epoch: 99</text>
  <g font-family="Arial, sans-serif">
    <line x1="72.0" y1="54.0" x2="72.0" y2="542.0" stroke="#eef2f7" stroke-width="1"/>
    <text x="72.0" y="566.0" text-anchor="middle" font-size="12" fill="#4b5563">1</text>
    <line x1="172.6" y1="54.0" x2="172.6" y2="542.0" stroke="#eef2f7" stroke-width="1"/>
    <text x="172.6" y="566.0" text-anchor="middle" font-size="12" fill="#4b5563">11</text>
    <line x1="273.2" y1="54.0" x2="273.2" y2="542.0" stroke="#eef2f7" stroke-width="1"/>
    <text x="273.2" y="566.0" text-anchor="middle" font-size="12" fill="#4b5563">21</text>
    <line x1="373.8" y1="54.0" x2="373.8" y2="542.0" stroke="#eef2f7" stroke-width="1"/>
    <text x="373.8" y="566.0" text-anchor="middle" font-size="12" fill="#4b5563">31</text>
    <line x1="474.4" y1="54.0" x2="474.4" y2="542.0" stroke="#eef2f7" stroke-width="1"/>
    <text x="474.4" y="566.0" text-anchor="middle" font-size="12" fill="#4b5563">41</text>
    <line x1="575.0" y1="54.0" x2="575.0" y2="542.0" stroke="#eef2f7" stroke-width="1"/>
    <text x="575.0" y="566.0" text-anchor="middle" font-size="12" fill="#4b5563">51</text>
    <line x1="675.6" y1="54.0" x2="675.6" y2="542.0" stroke="#eef2f7" stroke-width="1"/>
    <text x="675.6" y="566.0" text-anchor="middle" font-size="12" fill="#4b5563">61</text>
    <line x1="776.2" y1="54.0" x2="776.2" y2="542.0" stroke="#eef2f7" stroke-width="1"/>
    <text x="776.2" y="566.0" text-anchor="middle" font-size="12" fill="#4b5563">71</text>
    <line x1="876.8" y1="54.0" x2="876.8" y2="542.0" stroke="#eef2f7" stroke-width="1"/>
    <text x="876.8" y="566.0" text-anchor="middle" font-size="12" fill="#4b5563">81</text>
    <line x1="977.5" y1="54.0" x2="977.5" y2="542.0" stroke="#eef2f7" stroke-width="1"/>
    <text x="977.5" y="566.0" text-anchor="middle" font-size="12" fill="#4b5563">91</text>
    <line x1="72.0" y1="542.0" x2="1068.0" y2="542.0" stroke="#d8dee9" stroke-width="1" opacity="0.55"/>
    <text x="60.0" y="546.0" text-anchor="end" font-size="12" fill="#4b5563">-1143.0</text>
    <line x1="72.0" y1="444.4" x2="1068.0" y2="444.4" stroke="#d8dee9" stroke-width="1" opacity="0.55"/>
    <text x="60.0" y="448.4" text-anchor="end" font-size="12" fill="#4b5563">-716.4</text>
    <line x1="72.0" y1="346.8" x2="1068.0" y2="346.8" stroke="#d8dee9" stroke-width="1" opacity="0.55"/>
    <text x="60.0" y="350.8" text-anchor="end" font-size="12" fill="#4b5563">-289.8</text>
    <line x1="72.0" y1="249.2" x2="1068.0" y2="249.2" stroke="#d8dee9" stroke-width="1" opacity="0.55"/>
    <text x="60.0" y="253.2" text-anchor="end" font-size="12" fill="#4b5563">136.8</text>
    <line x1="72.0" y1="151.6" x2="1068.0" y2="151.6" stroke="#d8dee9" stroke-width="1" opacity="0.55"/>
    <text x="60.0" y="155.6" text-anchor="end" font-size="12" fill="#4b5563">563.4</text>
    <line x1="72.0" y1="54.0" x2="1068.0" y2="54.0" stroke="#d8dee9" stroke-width="1" opacity="0.55"/>
    <text x="60.0" y="58.0" text-anchor="end" font-size="12" fill="#4b5563">990.0</text>
    <line x1="72.0" y1="54.0" x2="72.0" y2="542.0" stroke="#111827" stroke-width="1.4"/>
    <line x1="72.0" y1="542.0" x2="1068.0" y2="542.0" stroke="#111827" stroke-width="1.4"/>
    <text x="570.0" y="596.0" text-anchor="middle" font-size="13" fill="#111827">Epoch</text>
    <text x="20" y="298.0" transform="rotate(-90 20 298.0)" text-anchor="middle" font-size="13" fill="#111827">Goals / goal diff</text>
    <polyline fill="none" stroke="#2563eb" stroke-width="2.4" points="72.0,280.4 82.1,280.2 92.1,280.3 102.2,280.2 112.2,280.2 122.3,280.2 132.4,280.2 142.4,280.2 152.5,280.2 162.5,280.3 172.6,280.2 182.7,280.2 192.7,280.2 202.8,280.2 212.8,280.3 222.9,280.2 233.0,280.2 243.0,280.3 253.1,280.3 263.2,280.2 273.2,280.3 283.3,280.3 293.3,280.2 303.4,280.3 313.5,280.2 323.5,280.2 333.6,280.3 343.6,280.2 353.7,280.2 363.8,280.2 373.8,280.2 383.9,280.2 393.9,280.2 404.0,280.3 414.1,280.2 424.1,280.2 434.2,280.2 444.2,280.2 454.3,280.2 464.4,280.3 474.4,280.2 484.5,280.3 494.5,280.3 504.6,280.2 514.7,280.2 524.7,280.2 534.8,280.2 544.8,280.2 554.9,280.3 565.0,280.3 575.0,280.2 585.1,280.2 595.2,280.3 605.2,280.2 615.3,280.2 625.3,280.2 635.4,280.2 645.5,280.4 655.5,280.2 665.6,280.3 675.6,280.2 685.7,280.4 695.8,280.3 705.8,280.2 715.9,280.3 725.9,280.2 736.0,280.3 746.1,280.3 756.1,280.2 766.2,280.3 776.2,280.2 786.3,280.4 796.4,280.2 806.4,280.2 816.5,280.2 826.5,280.2 836.6,280.2 846.7,280.3 856.7,280.2 866.8,280.2 876.8,280.2 886.9,280.2 897.0,280.2 907.0,280.3 917.1,280.3 927.2,280.3 937.2,280.3 947.3,280.3 957.3,280.4 967.4,280.3 977.5,280.3 987.5,280.3 997.6,280.4 1007.6,280.3 1017.7,280.3 1027.8,280.3 1037.8,280.3 1047.9,280.3 1057.9,280.3 1068.0,280.3"/>
    <polyline fill="none" stroke="#ef4444" stroke-width="2.4" points="72.0,280.3 82.1,280.2 92.1,280.2 102.2,280.2 112.2,280.2 122.3,280.2 132.4,280.2 142.4,280.2 152.5,280.2 162.5,280.2 172.6,280.2 182.7,280.2 192.7,280.2 202.8,280.2 212.8,280.2 222.9,280.2 233.0,280.2 243.0,280.3 253.1,280.1 263.2,280.3 273.2,280.2 283.3,280.2 293.3,280.2 303.4,280.2 313.5,280.2 323.5,280.2 333.6,280.2 343.6,280.2 353.7,280.2 363.8,280.2 373.8,280.2 383.9,280.2 393.9,280.2 404.0,280.2 414.1,280.2 424.1,280.2 434.2,280.2 444.2,280.2 454.3,280.2 464.4,280.2 474.4,280.2 484.5,280.2 494.5,280.1 504.6,280.2 514.7,280.2 524.7,280.2 534.8,280.2 544.8,280.2 554.9,280.2 565.0,280.2 575.0,280.2 585.1,280.2 595.2,280.2 605.2,280.2 615.3,280.2 625.3,280.2 635.4,280.2 645.5,280.1 655.5,280.2 665.6,280.1 675.6,280.2 685.7,280.1 695.8,280.2 705.8,280.2 715.9,280.2 725.9,280.2 736.0,280.3 746.1,280.2 756.1,280.2 766.2,280.2 776.2,280.2 786.3,280.1 796.4,280.2 806.4,280.2 816.5,280.2 826.5,280.2 836.6,280.2 846.7,280.2 856.7,280.3 866.8,280.2 876.8,280.2 886.9,280.2 897.0,280.3 907.0,280.2 917.1,280.3 927.2,280.2 937.2,280.2 947.3,280.3 957.3,280.0 967.4,280.3 977.5,280.2 987.5,280.3 997.6,280.3 1007.6,280.3 1017.7,280.2 1027.8,280.2 1037.8,280.2 1047.9,280.3 1057.9,280.3 1068.0,280.3"/>
    <polyline fill="none" stroke="#7c3aed" stroke-width="2" stroke-dasharray="6 5" points="72.0,293.5 82.1,524.4 92.1,290.3 102.2,370.0 112.2,102.5 122.3,445.2 132.4,95.9 142.4,502.4 152.5,473.1 162.5,312.8 172.6,176.4 182.7,54.0 192.7,447.1 202.8,94.3 212.8,366.3 222.9,491.0 233.0,542.0 243.0,348.4 253.1,300.4 263.2,249.8 273.2,399.9 283.3,288.7 293.3,86.7 303.4,431.3 313.5,295.1 323.5,380.2 333.6,291.9 343.6,300.6 353.7,221.5 363.8,137.7 373.8,361.7 383.9,185.1 393.9,429.2 404.0,307.5 414.1,229.0 424.1,365.4 434.2,156.5 444.2,500.6 454.3,223.3 464.4,293.3 474.4,361.9 484.5,298.6 494.5,301.8 504.6,198.6 514.7,163.6 524.7,250.1 534.8,149.2 544.8,190.4 554.9,401.3 565.0,313.2 575.0,203.2 585.1,338.2 595.2,290.8 605.2,484.8 615.3,463.5 625.3,460.1 635.4,373.2 645.5,313.0 655.5,368.8 665.6,304.3 675.6,182.3 685.7,307.3 695.8,307.5 705.8,222.2 715.9,303.1 725.9,342.0 736.0,287.8 746.1,296.1 756.1,304.5 766.2,311.2 776.2,427.6 786.3,307.0 796.4,194.9 806.4,472.4 816.5,228.6 826.5,445.7 836.6,116.5 846.7,291.0 856.7,266.1 866.8,219.0 876.8,444.8 886.9,304.3 897.0,262.2 907.0,291.9 917.1,534.9 927.2,370.6 937.2,296.3 947.3,179.4 957.3,319.2 967.4,503.6 977.5,317.1 987.5,331.7 997.6,291.7 1007.6,397.2 1017.7,317.6 1027.8,293.5 1037.8,289.4 1047.9,293.3 1057.9,199.7 1068.0,376.8"/>
    <circle cx="112.2" cy="102.5" r="5" fill="#16a34a"><title>Accepted epoch 5, diff 778</title></circle>
    <circle cx="132.4" cy="95.9" r="5" fill="#16a34a"><title>Accepted epoch 7, diff 807</title></circle>
    <circle cx="172.6" cy="176.4" r="5" fill="#16a34a"><title>Accepted epoch 11, diff 455</title></circle>
    <circle cx="182.7" cy="54.0" r="5" fill="#16a34a"><title>Accepted epoch 12, diff 990</title></circle>
    <circle cx="202.8" cy="94.3" r="5" fill="#16a34a"><title>Accepted epoch 14, diff 814</title></circle>
    <circle cx="263.2" cy="249.8" r="5" fill="#16a34a"><title>Accepted epoch 20, diff 134</title></circle>
    <circle cx="293.3" cy="86.7" r="5" fill="#16a34a"><title>Accepted epoch 23, diff 847</title></circle>
    <circle cx="353.7" cy="221.5" r="5" fill="#16a34a"><title>Accepted epoch 29, diff 258</title></circle>
    <circle cx="363.8" cy="137.7" r="5" fill="#16a34a"><title>Accepted epoch 30, diff 624</title></circle>
    <circle cx="383.9" cy="185.1" r="5" fill="#16a34a"><title>Accepted epoch 32, diff 417</title></circle>
    <circle cx="414.1" cy="229.0" r="5" fill="#16a34a"><title>Accepted epoch 35, diff 225</title></circle>
    <circle cx="434.2" cy="156.5" r="5" fill="#16a34a"><title>Accepted epoch 37, diff 542</title></circle>
    <circle cx="454.3" cy="223.3" r="5" fill="#16a34a"><title>Accepted epoch 39, diff 250</title></circle>
    <circle cx="504.6" cy="198.6" r="5" fill="#16a34a"><title>Accepted epoch 44, diff 358</title></circle>
    <circle cx="514.7" cy="163.6" r="5" fill="#16a34a"><title>Accepted epoch 45, diff 511</title></circle>
    <circle cx="524.7" cy="250.1" r="5" fill="#16a34a"><title>Accepted epoch 46, diff 133</title></circle>
    <circle cx="534.8" cy="149.2" r="5" fill="#16a34a"><title>Accepted epoch 47, diff 574</title></circle>
    <circle cx="544.8" cy="190.4" r="5" fill="#16a34a"><title>Accepted epoch 48, diff 394</title></circle>
    <circle cx="575.0" cy="203.2" r="5" fill="#16a34a"><title>Accepted epoch 51, diff 338</title></circle>
    <circle cx="675.6" cy="182.3" r="5" fill="#16a34a"><title>Accepted epoch 61, diff 429</title></circle>
    <circle cx="705.8" cy="222.2" r="5" fill="#16a34a"><title>Accepted epoch 64, diff 255</title></circle>
    <circle cx="796.4" cy="194.9" r="5" fill="#16a34a"><title>Accepted epoch 73, diff 374</title></circle>
    <circle cx="816.5" cy="228.6" r="5" fill="#16a34a"><title>Accepted epoch 75, diff 227</title></circle>
    <circle cx="836.6" cy="116.5" r="5" fill="#16a34a"><title>Accepted epoch 77, diff 717</title></circle>
    <circle cx="856.7" cy="266.1" r="5" fill="#16a34a"><title>Accepted epoch 79, diff 63</title></circle>
    <circle cx="866.8" cy="219.0" r="5" fill="#16a34a"><title>Accepted epoch 80, diff 269</title></circle>
    <circle cx="897.0" cy="262.2" r="5" fill="#16a34a"><title>Accepted epoch 83, diff 80</title></circle>
    <circle cx="947.3" cy="179.4" r="5" fill="#16a34a"><title>Accepted epoch 88, diff 442</title></circle>
    <circle cx="1057.9" cy="199.7" r="5" fill="#16a34a"><title>Accepted epoch 99, diff 353</title></circle>
    <g transform="translate(72, 566.0)" font-size="13" fill="#111827">
      <rect x="0" y="-12" width="14" height="4" fill="#2563eb"/><text x="22" y="-7">Candidate avg goals</text>
      <rect x="190" y="-12" width="14" height="4" fill="#ef4444"/><text x="212" y="-7">Baseline avg goals</text>
      <rect x="378" y="-12" width="14" height="4" fill="#7c3aed"/><text x="400" y="-7">Goal diff</text>
      <circle cx="548" cy="-10" r="5" fill="#16a34a"/><text x="562" y="-7">Accepted improvement</text>
    </g>
  </g>
</svg>
