<?xml version="1.0" encoding="UTF-8"?>
<svg xmlns="http://www.w3.org/2000/svg" width="1100" height="620" viewBox="0 0 1100 620">
  <rect width="100%" height="100%" fill="#ffffff"/>
  <text x="72" y="30" font-family="Arial, sans-serif" font-size="22" font-weight="700" fill="#111827">Training progress</text>
  <text x="1068" y="30" text-anchor="end" font-family="Arial, sans-serif" font-size="13" fill="#4b5563">Final champion epoch: 96</text>
  <g font-family="Arial, sans-serif">
    <line x1="72.0" y1="54.0" x2="72.0" y2="542.0" stroke="#eef2f7" stroke-width="1"/>
    <text x="72.0" y="566.0" text-anchor="middle" font-size="12" fill="#4b5563">1</text>
    <line x1="172.6" y1="54.0" x2="172.6" y2="542.0" stroke="#eef2f7" stroke-width="1"/>
    <text x="172.6" y="566.0" text-anchor="middle" font-size="12" fill="#4b5563">11</text>
    <line x1="273.2" y1="54.0" x2="273.2" y2="542.0" stroke="#eef2f7" stroke-width="1"/>
    <text x="273.2" y="566.0" text-anchor="middle" font-size="12" fill="#4b5563">21</text>
    <line x1="373.8" y1="54.0" x2="373.8" y2="542.0" stroke="#eef2f7" stroke-width="1"/>
    <text x="373.8" y="566.0" text-anchor="middle" font-size="12" fill="#4b5563">31</text>
    <line x1="474.4" y1="54.0" x2="474.4" y2="542.0" stroke="#eef2f7" stroke-width="1"/>
    <text x="474.4" y="566.0" text-anchor="middle" font-size="12" fill="#4b5563">41</text>
    <line x1="575.0" y1="54.0" x2="575.0" y2="542.0" stroke="#eef2f7" stroke-width="1"/>
    <text x="575.0" y="566.0" text-anchor="middle" font-size="12" fill="#4b5563">51</text>
    <line x1="675.6" y1="54.0" x2="675.6" y2="542.0" stroke="#eef2f7" stroke-width="1"/>
    <text x="675.6" y="566.0" text-anchor="middle" font-size="12" fill="#4b5563">61</text>
    <line x1="776.2" y1="54.0" x2="776.2" y2="542.0" stroke="#eef2f7" stroke-width="1"/>
    <text x="776.2" y="566.0" text-anchor="middle" font-size="12" fill="#4b5563">71</text>
    <line x1="876.8" y1="54.0" x2="876.8" y2="542.0" stroke="#eef2f7" stroke-width="1"/>
    <text x="876.8" y="566.0" text-anchor="middle" font-size="12" fill="#4b5563">81</text>
    <line x1="977.5" y1="54.0" x2="977.5" y2="542.0" stroke="#eef2f7" stroke-width="1"/>
    <text x="977.5" y="566.0" text-anchor="middle" font-size="12" fill="#4b5563">91</text>
    <line x1="72.0" y1="542.0" x2="1068.0" y2="542.0" stroke="#d8dee9" stroke-width="1" opacity="0.55"/>
    <text x="60.0" y="546.0" text-anchor="end" font-size="12" fill="#4b5563">-2565.0</text>
    <line x1="72.0" y1="444.4" x2="1068.0" y2="444.4" stroke="#d8dee9" stroke-width="1" opacity="0.55"/>
    <text x="60.0" y="448.4" text-anchor="end" font-size="12" fill="#4b5563">-1573.4</text>
    <line x1="72.0" y1="346.8" x2="1068.0" y2="346.8" stroke="#d8dee9" stroke-width="1" opacity="0.55"/>
    <text x="60.0" y="350.8" text-anchor="end" font-size="12" fill="#4b5563">-581.8</text>
    <line x1="72.0" y1="249.2" x2="1068.0" y2="249.2" stroke="#d8dee9" stroke-width="1" opacity="0.55"/>
    <text x="60.0" y="253.2" text-anchor="end" font-size="12" fill="#4b5563">409.8</text>
    <line x1="72.0" y1="151.6" x2="1068.0" y2="151.6" stroke="#d8dee9" stroke-width="1" opacity="0.55"/>
    <text x="60.0" y="155.6" text-anchor="end" font-size="12" fill="#4b5563">1401.4</text>
    <line x1="72.0" y1="54.0" x2="1068.0" y2="54.0" stroke="#d8dee9" stroke-width="1" opacity="0.55"/>
    <text x="60.0" y="58.0" text-anchor="end" font-size="12" fill="#4b5563">2393.0</text>
    <line x1="72.0" y1="54.0" x2="72.0" y2="542.0" stroke="#111827" stroke-width="1.4"/>
    <line x1="72.0" y1="542.0" x2="1068.0" y2="542.0" stroke="#111827" stroke-width="1.4"/>
    <text x="570.0" y="596.0" text-anchor="middle" font-size="13" fill="#111827">Epoch</text>
    <text x="20" y="298.0" transform="rotate(-90 20 298.0)" text-anchor="middle" font-size="13" fill="#111827">Goals / goal diff</text>
    <polyline fill="none" stroke="#2563eb" stroke-width="2.4" points="72.0,289.3 82.1,289.4 92.1,289.3 102.2,289.3 112.2,289.3 122.3,289.3 132.4,289.3 142.4,289.3 152.5,289.3 162.5,289.3 172.6,289.3 182.7,289.3 192.7,289.3 202.8,289.3 212.8,289.3 222.9,289.3 233.0,289.4 243.0,289.3 253.1,289.3 263.2,289.3 273.2,289.3 283.3,289.3 293.3,289.3 303.4,289.3 313.5,289.3 323.5,289.3 333.6,289.3 343.6,289.3 353.7,289.3 363.8,289.3 373.8,289.3 383.9,289.3 393.9,289.3 404.0,289.2 414.1,289.2 424.1,289.3 434.2,289.3 444.2,289.2 454.3,289.2 464.4,289.2 474.4,289.2 484.5,289.3 494.5,289.2 504.6,289.2 514.7,289.2 524.7,289.2 534.8,289.2 544.8,289.2 554.9,289.2 565.0,289.2 575.0,289.2 585.1,289.3 595.2,289.2 605.2,289.2 615.3,289.2 625.3,289.2 635.4,289.3 645.5,289.2 655.5,289.2 665.6,289.2 675.6,289.3 685.7,289.2 695.8,289.2 705.8,289.2 715.9,289.2 725.9,289.3 736.0,289.2 746.1,289.3 756.1,289.2 766.2,289.2 776.2,289.2 786.3,289.4 796.4,289.2 806.4,289.3 816.5,289.2 826.5,289.2 836.6,289.2 846.7,289.3 856.7,289.2 866.8,289.2 876.8,289.2 886.9,289.2 897.0,289.2 907.0,289.4 917.1,289.3 927.2,289.2 937.2,289.2 947.3,289.2 957.3,289.2 967.4,289.2 977.5,289.2 987.5,289.2 997.6,289.2 1007.6,289.2 1017.7,289.2 1027.8,289.2 1037.8,289.2 1047.9,289.2 1057.9,289.2 1068.0,289.2"/>
    <polyline fill="none" stroke="#ef4444" stroke-width="2.4" points="72.0,289.3 82.1,289.3 92.1,289.3 102.2,289.3 112.2,289.3 122.3,289.3 132.4,289.3 142.4,289.3 152.5,289.3 162.5,289.3 172.6,289.3 182.7,289.3 192.7,289.3 202.8,289.3 212.8,289.3 222.9,289.3 233.0,289.1 243.0,289.3 253.1,289.3 263.2,289.3 273.2,289.3 283.3,289.3 293.3,289.2 303.4,289.3 313.5,289.3 323.5,289.3 333.6,289.3 343.6,289.3 353.7,289.3 363.8,289.2 373.8,289.3 383.9,289.3 393.9,289.3 404.0,289.3 414.1,289.2 424.1,289.3 434.2,289.3 444.2,289.2 454.3,289.2 464.4,289.2 474.4,289.2 484.5,289.3 494.5,289.2 504.6,289.2 514.7,289.2 524.7,289.2 534.8,289.2 544.8,289.2 554.9,289.2 565.0,289.2 575.0,289.2 585.1,289.2 595.2,289.2 605.2,289.2 615.3,289.2 625.3,289.2 635.4,289.2 645.5,289.2 655.5,289.2 665.6,289.2 675.6,289.2 685.7,289.2 695.8,289.2 705.8,289.2 715.9,289.2 725.9,289.3 736.0,289.2 746.1,289.3 756.1,289.2 766.2,289.2 776.2,289.2 786.3,289.2 796.4,289.2 806.4,289.2 816.5,289.2 826.5,289.2 836.6,289.2 846.7,289.2 856.7,289.2 866.8,289.2 876.8,289.2 886.9,289.2 897.0,289.2 907.0,289.3 917.1,289.2 927.2,289.2 937.2,289.2 947.3,289.2 957.3,289.2 967.4,289.2 977.5,289.2 987.5,289.2 997.6,289.2 1007.6,289.2 1017.7,289.2 1027.8,289.2 1037.8,289.2 1047.9,289.2 1057.9,289.2 1068.0,289.2"/>
    <polyline fill="none" stroke="#7c3aed" stroke-width="2" stroke-dasharray="6 5" points="72.0,494.8 82.1,296.0 92.1,385.5 102.2,302.1 112.2,377.0 122.3,324.3 132.4,299.1 142.4,300.7 152.5,422.5 162.5,324.9 172.6,396.0 182.7,432.7 192.7,347.3 202.8,358.5 212.8,113.9 222.9,220.7 233.0,312.2 243.0,300.6 253.1,354.2 263.2,179.0 273.2,517.9 283.3,313.7 293.3,302.8 303.4,251.1 313.5,364.4 323.5,236.0 333.6,385.4 343.6,310.3 353.7,216.7 363.8,420.6 373.8,529.6 383.9,426.2 393.9,478.1 404.0,178.4 414.1,312.4 424.1,323.2 434.2,297.8 444.2,151.4 454.3,312.2 464.4,219.8 474.4,535.6 484.5,298.2 494.5,263.5 504.6,326.7 514.7,145.1 524.7,267.6 534.8,106.5 544.8,366.3 554.9,328.8 565.0,345.6 575.0,258.0 585.1,307.0 595.2,368.0 605.2,541.1 615.3,343.0 625.3,346.5 635.4,303.7 645.5,270.9 655.5,282.4 665.6,387.7 675.6,300.8 685.7,272.6 695.8,401.2 705.8,481.2 715.9,346.3 725.9,298.2 736.0,314.6 746.1,310.2 756.1,276.7 766.2,54.0 776.2,343.9 786.3,304.2 796.4,93.7 806.4,300.6 816.5,146.2 826.5,195.9 836.6,443.5 846.7,321.1 856.7,296.9 866.8,352.4 876.8,339.0 886.9,162.3 897.0,348.0 907.0,299.3 917.1,316.4 927.2,411.3 937.2,393.2 947.3,441.1 957.3,293.3 967.4,340.8 977.5,315.6 987.5,225.5 997.6,260.3 1007.6,331.9 1017.7,295.9 1027.8,279.8 1037.8,369.1 1047.9,542.0 1057.9,332.7 1068.0,335.4"/>
    <circle cx="212.8" cy="113.9" r="5" fill="#16a34a"><title>Accepted epoch 15, diff 1784</title></circle>
    <circle cx="222.9" cy="220.7" r="5" fill="#16a34a"><title>Accepted epoch 16, diff 699</title></circle>
    <circle cx="263.2" cy="179.0" r="5" fill="#16a34a"><title>Accepted epoch 20, diff 1123</title></circle>
    <circle cx="303.4" cy="251.1" r="5" fill="#16a34a"><title>Accepted epoch 24, diff 391</title></circle>
    <circle cx="323.5" cy="236.0" r="5" fill="#16a34a"><title>Accepted epoch 26, diff 544</title></circle>
    <circle cx="353.7" cy="216.7" r="5" fill="#16a34a"><title>Accepted epoch 29, diff 740</title></circle>
    <circle cx="404.0" cy="178.4" r="5" fill="#16a34a"><title>Accepted epoch 34, diff 1129</title></circle>
    <circle cx="444.2" cy="151.4" r="5" fill="#16a34a"><title>Accepted epoch 38, diff 1403</title></circle>
    <circle cx="464.4" cy="219.8" r="5" fill="#16a34a"><title>Accepted epoch 40, diff 708</title></circle>
    <circle cx="494.5" cy="263.5" r="5" fill="#16a34a"><title>Accepted epoch 43, diff 265</title></circle>
    <circle cx="514.7" cy="145.1" r="5" fill="#16a34a"><title>Accepted epoch 45, diff 1467</title></circle>
    <circle cx="524.7" cy="267.6" r="5" fill="#16a34a"><title>Accepted epoch 46, diff 223</title></circle>
    <circle cx="534.8" cy="106.5" r="5" fill="#16a34a"><title>Accepted epoch 47, diff 1860</title></circle>
    <circle cx="575.0" cy="258.0" r="5" fill="#16a34a"><title>Accepted epoch 51, diff 320</title></circle>
    <circle cx="645.5" cy="270.9" r="5" fill="#16a34a"><title>Accepted epoch 58, diff 189</title></circle>
    <circle cx="655.5" cy="282.4" r="5" fill="#16a34a"><title>Accepted epoch 59, diff 72</title></circle>
    <circle cx="685.7" cy="272.6" r="5" fill="#16a34a"><title>Accepted epoch 62, diff 172</title></circle>
    <circle cx="756.1" cy="276.7" r="5" fill="#16a34a"><title>Accepted epoch 69, diff 130</title></circle>
    <circle cx="766.2" cy="54.0" r="5" fill="#16a34a"><title>Accepted epoch 70, diff 2393</title></circle>
    <circle cx="796.4" cy="93.7" r="5" fill="#16a34a"><title>Accepted epoch 73, diff 1990</title></circle>
    <circle cx="816.5" cy="146.2" r="5" fill="#16a34a"><title>Accepted epoch 75, diff 1456</title></circle>
    <circle cx="826.5" cy="195.9" r="5" fill="#16a34a"><title>Accepted epoch 76, diff 951</title></circle>
    <circle cx="886.9" cy="162.3" r="5" fill="#16a34a"><title>Accepted epoch 82, diff 1293</title></circle>
    <circle cx="987.5" cy="225.5" r="5" fill="#16a34a"><title>Accepted epoch 92, diff 651</title></circle>
    <circle cx="997.6" cy="260.3" r="5" fill="#16a34a"><title>Accepted epoch 93, diff 297</title></circle>
    <circle cx="1027.8" cy="279.8" r="5" fill="#16a34a"><title>Accepted epoch 96, diff 99</title></circle>
    <g transform="translate(72, 566.0)" font-size="13" fill="#111827">
      <rect x="0" y="-12" width="14" height="4" fill="#2563eb"/><text x="22" y="-7">Candidate avg goals</text>
      <rect x="190" y="-12" width="14" height="4" fill="#ef4444"/><text x="212" y="-7">Baseline avg goals</text>
      <rect x="378" y="-12" width="14" height="4" fill="#7c3aed"/><text x="400" y="-7">Goal diff</text>
      <circle cx="548" cy="-10" r="5" fill="#16a34a"/><text x="562" y="-7">Accepted improvement</text>
    </g>
  </g>
</svg>
