<?xml version="1.0" encoding="UTF-8"?>
<svg xmlns="http://www.w3.org/2000/svg" width="1100" height="620" viewBox="0 0 1100 620">
  <rect width="100%" height="100%" fill="#ffffff"/>
  <text x="72" y="30" font-family="Arial, sans-serif" font-size="22" font-weight="700" fill="#111827">Training progress</text>
  <text x="1068" y="30" text-anchor="end" font-family="Arial, sans-serif" font-size="13" fill="#4b5563">Final champion epoch: 90</text>
  <g font-family="Arial, sans-serif">
    <line x1="72.0" y1="54.0" x2="72.0" y2="542.0" stroke="#eef2f7" stroke-width="1"/>
    <text x="72.0" y="566.0" text-anchor="middle" font-size="12" fill="#4b5563">1</text>
    <line x1="172.6" y1="54.0" x2="172.6" y2="542.0" stroke="#eef2f7" stroke-width="1"/>
    <text x="172.6" y="566.0" text-anchor="middle" font-size="12" fill="#4b5563">11</text>
    <line x1="273.2" y1="54.0" x2="273.2" y2="542.0" stroke="#eef2f7" stroke-width="1"/>
    <text x="273.2" y="566.0" text-anchor="middle" font-size="12" fill="#4b5563">21</text>
    <line x1="373.8" y1="54.0" x2="373.8" y2="542.0" stroke="#eef2f7" stroke-width="1"/>
    <text x="373.8" y="566.0" text-anchor="middle" font-size="12" fill="#4b5563">31</text>
    <line x1="474.4" y1="54.0" x2="474.4" y2="542.0" stroke="#eef2f7" stroke-width="1"/>
    <text x="474.4" y="566.0" text-anchor="middle" font-size="12" fill="#4b5563">41</text>
    <line x1="575.0" y1="54.0" x2="575.0" y2="542.0" stroke="#eef2f7" stroke-width="1"/>
    <text x="575.0" y="566.0" text-anchor="middle" font-size="12" fill="#4b5563">51</text>
    <line x1="675.6" y1="54.0" x2="675.6" y2="542.0" stroke="#eef2f7" stroke-width="1"/>
    <text x="675.6" y="566.0" text-anchor="middle" font-size="12" fill="#4b5563">61</text>
    <line x1="776.2" y1="54.0" x2="776.2" y2="542.0" stroke="#eef2f7" stroke-width="1"/>
    <text x="776.2" y="566.0" text-anchor="middle" font-size="12" fill="#4b5563">71</text>
    <line x1="876.8" y1="54.0" x2="876.8" y2="542.0" stroke="#eef2f7" stroke-width="1"/>
    <text x="876.8" y="566.0" text-anchor="middle" font-size="12" fill="#4b5563">81</text>
    <line x1="977.5" y1="54.0" x2="977.5" y2="542.0" stroke="#eef2f7" stroke-width="1"/>
    <text x="977.5" y="566.0" text-anchor="middle" font-size="12" fill="#4b5563">91</text>
    <line x1="72.0" y1="542.0" x2="1068.0" y2="542.0" stroke="#d8dee9" stroke-width="1" opacity="0.55"/>
    <text x="60.0" y="546.0" text-anchor="end" font-size="12" fill="#4b5563">-1443.0</text>
    <line x1="72.0" y1="444.4" x2="1068.0" y2="444.4" stroke="#d8dee9" stroke-width="1" opacity="0.55"/>
    <text x="60.0" y="448.4" text-anchor="end" font-size="12" fill="#4b5563">-1012.0</text>
    <line x1="72.0" y1="346.8" x2="1068.0" y2="346.8" stroke="#d8dee9" stroke-width="1" opacity="0.55"/>
    <text x="60.0" y="350.8" text-anchor="end" font-size="12" fill="#4b5563">-581.0</text>
    <line x1="72.0" y1="249.2" x2="1068.0" y2="249.2" stroke="#d8dee9" stroke-width="1" opacity="0.55"/>
    <text x="60.0" y="253.2" text-anchor="end" font-size="12" fill="#4b5563">-150.0</text>
    <line x1="72.0" y1="151.6" x2="1068.0" y2="151.6" stroke="#d8dee9" stroke-width="1" opacity="0.55"/>
    <text x="60.0" y="155.6" text-anchor="end" font-size="12" fill="#4b5563">281.0</text>
    <line x1="72.0" y1="54.0" x2="1068.0" y2="54.0" stroke="#d8dee9" stroke-width="1" opacity="0.55"/>
    <text x="60.0" y="58.0" text-anchor="end" font-size="12" fill="#4b5563">712.0</text>
    <line x1="72.0" y1="54.0" x2="72.0" y2="542.0" stroke="#111827" stroke-width="1.4"/>
    <line x1="72.0" y1="542.0" x2="1068.0" y2="542.0" stroke="#111827" stroke-width="1.4"/>
    <text x="570.0" y="596.0" text-anchor="middle" font-size="13" fill="#111827">Epoch</text>
    <text x="20" y="298.0" transform="rotate(-90 20 298.0)" text-anchor="middle" font-size="13" fill="#111827">Goals / goal diff</text>
    <polyline fill="none" stroke="#2563eb" stroke-width="2.4" points="72.0,213.8 82.1,213.9 92.1,214.8 102.2,213.8 112.2,213.8 122.3,214.0 132.4,213.8 142.4,213.8 152.5,214.0 162.5,214.2 172.6,214.0 182.7,215.0 192.7,214.0 202.8,213.9 212.8,213.8 222.9,213.9 233.0,213.8 243.0,213.9 253.1,214.1 263.2,213.8 273.2,213.8 283.3,213.8 293.3,214.2 303.4,213.8 313.5,214.1 323.5,213.8 333.6,213.9 343.6,213.8 353.7,213.8 363.8,214.3 373.8,213.8 383.9,214.0 393.9,213.9 404.0,213.8 414.1,214.0 424.1,214.1 434.2,214.0 444.2,214.0 454.3,213.8 464.4,213.8 474.4,213.9 484.5,213.9 494.5,213.8 504.6,213.9 514.7,213.8 524.7,213.9 534.8,214.6 544.8,213.9 554.9,213.8 565.0,215.2 575.0,213.8 585.1,213.9 595.2,214.0 605.2,213.9 615.3,213.8 625.3,213.8 635.4,213.9 645.5,213.9 655.5,213.9 665.6,213.9 675.6,213.9 685.7,213.9 695.8,213.9 705.8,213.8 715.9,214.3 725.9,213.8 736.0,213.8 746.1,213.8 756.1,213.8 766.2,213.8 776.2,215.0 786.3,213.8 796.4,213.9 806.4,213.9 816.5,213.8 826.5,215.0 836.6,213.9 846.7,213.8 856.7,214.8 866.8,213.8 876.8,213.8 886.9,213.9 897.0,213.8 907.0,213.8 917.1,214.0 927.2,213.8 937.2,213.8 947.3,213.8 957.3,213.8 967.4,213.8 977.5,213.9 987.5,213.8 997.6,213.9 1007.6,213.9 1017.7,213.9 1027.8,214.0 1037.8,215.2 1047.9,213.9 1057.9,214.4 1068.0,213.9"/>
    <polyline fill="none" stroke="#ef4444" stroke-width="2.4" points="72.0,213.8 82.1,213.8 92.1,214.3 102.2,213.8 112.2,213.8 122.3,213.9 132.4,213.8 142.4,213.8 152.5,213.9 162.5,214.0 172.6,213.9 182.7,214.7 192.7,213.9 202.8,213.9 212.8,213.8 222.9,213.8 233.0,213.8 243.0,213.8 253.1,213.8 263.2,213.8 273.2,213.8 283.3,213.8 293.3,214.0 303.4,213.8 313.5,213.9 323.5,213.8 333.6,213.8 343.6,213.8 353.7,213.8 363.8,213.9 373.8,213.8 383.9,213.9 393.9,213.8 404.0,213.8 414.1,213.8 424.1,213.9 434.2,213.9 444.2,213.9 454.3,213.8 464.4,213.8 474.4,213.9 484.5,213.9 494.5,213.8 504.6,213.8 514.7,213.8 524.7,213.8 534.8,214.1 544.8,213.8 554.9,213.8 565.0,214.8 575.0,213.8 585.1,213.8 595.2,213.7 605.2,213.8 615.3,213.8 625.3,213.8 635.4,213.9 645.5,213.8 655.5,213.9 665.6,213.9 675.6,213.8 685.7,213.9 695.8,213.9 705.8,213.9 715.9,214.0 725.9,213.8 736.0,213.8 746.1,213.8 756.1,213.8 766.2,213.8 776.2,214.6 786.3,213.8 796.4,213.9 806.4,213.8 816.5,213.8 826.5,214.6 836.6,213.9 846.7,213.8 856.7,214.4 866.8,213.8 876.8,213.8 886.9,213.8 897.0,213.8 907.0,213.8 917.1,213.8 927.2,213.8 937.2,213.8 947.3,213.8 957.3,213.8 967.4,213.8 977.5,213.9 987.5,213.8 997.6,213.9 1007.6,213.9 1017.7,213.9 1027.8,213.9 1037.8,214.7 1047.9,213.9 1057.9,214.0 1068.0,213.9"/>
    <polyline fill="none" stroke="#7c3aed" stroke-width="2" stroke-dasharray="6 5" points="72.0,253.0 82.1,434.7 92.1,256.0 102.2,326.9 112.2,131.4 122.3,370.4 132.4,223.6 142.4,261.9 152.5,345.2 162.5,261.0 172.6,289.5 182.7,246.9 192.7,356.1 202.8,473.6 212.8,253.5 222.9,482.7 233.0,131.0 243.0,386.0 253.1,255.1 263.2,171.3 273.2,217.5 283.3,377.4 293.3,263.2 303.4,475.4 313.5,306.9 323.5,190.8 333.6,542.0 343.6,256.2 353.7,469.1 363.8,249.7 373.8,524.6 383.9,354.7 393.9,416.5 404.0,265.7 414.1,278.9 424.1,272.5 434.2,343.2 444.2,343.6 454.3,209.8 464.4,186.5 474.4,526.6 484.5,522.5 494.5,119.9 504.6,532.7 514.7,184.9 524.7,496.3 534.8,266.9 544.8,366.5 554.9,302.2 565.0,258.7 575.0,296.1 585.1,478.8 595.2,278.6 605.2,363.1 615.3,286.1 625.3,185.8 635.4,380.5 645.5,393.7 655.5,177.6 665.6,175.6 675.6,469.8 685.7,293.8 695.8,408.6 705.8,55.1 715.9,251.2 725.9,54.0 736.0,167.7 746.1,506.9 756.1,376.5 766.2,192.6 776.2,258.9 786.3,380.8 796.4,495.4 806.4,438.7 816.5,425.4 826.5,255.3 836.6,400.2 846.7,367.0 856.7,259.8 866.8,127.8 876.8,257.6 886.9,517.3 897.0,273.0 907.0,230.0 917.1,299.2 927.2,171.1 937.2,347.7 947.3,480.0 957.3,85.9 967.4,174.7 977.5,502.1 987.5,263.9 997.6,321.7 1007.6,351.8 1017.7,264.1 1027.8,497.2 1037.8,270.7 1047.9,465.9 1057.9,252.1 1068.0,483.3"/>
    <circle cx="112.2" cy="131.4" r="5" fill="#16a34a"><title>Accepted epoch 5, diff 370</title></circle>
    <circle cx="233.0" cy="131.0" r="5" fill="#16a34a"><title>Accepted epoch 17, diff 372</title></circle>
    <circle cx="263.2" cy="171.3" r="5" fill="#16a34a"><title>Accepted epoch 20, diff 194</title></circle>
    <circle cx="323.5" cy="190.8" r="5" fill="#16a34a"><title>Accepted epoch 26, diff 108</title></circle>
    <circle cx="454.3" cy="209.8" r="5" fill="#16a34a"><title>Accepted epoch 39, diff 24</title></circle>
    <circle cx="464.4" cy="186.5" r="5" fill="#16a34a"><title>Accepted epoch 40, diff 127</title></circle>
    <circle cx="494.5" cy="119.9" r="5" fill="#16a34a"><title>Accepted epoch 43, diff 421</title></circle>
    <circle cx="514.7" cy="184.9" r="5" fill="#16a34a"><title>Accepted epoch 45, diff 134</title></circle>
    <circle cx="625.3" cy="185.8" r="5" fill="#16a34a"><title>Accepted epoch 56, diff 130</title></circle>
    <circle cx="655.5" cy="177.6" r="5" fill="#16a34a"><title>Accepted epoch 59, diff 166</title></circle>
    <circle cx="665.6" cy="175.6" r="5" fill="#16a34a"><title>Accepted epoch 60, diff 175</title></circle>
    <circle cx="705.8" cy="55.1" r="5" fill="#16a34a"><title>Accepted epoch 64, diff 707</title></circle>
    <circle cx="725.9" cy="54.0" r="5" fill="#16a34a"><title>Accepted epoch 66, diff 712</title></circle>
    <circle cx="736.0" cy="167.7" r="5" fill="#16a34a"><title>Accepted epoch 67, diff 210</title></circle>
    <circle cx="766.2" cy="192.6" r="5" fill="#16a34a"><title>Accepted epoch 70, diff 100</title></circle>
    <circle cx="866.8" cy="127.8" r="5" fill="#16a34a"><title>Accepted epoch 80, diff 386</title></circle>
    <circle cx="927.2" cy="171.1" r="5" fill="#16a34a"><title>Accepted epoch 86, diff 195</title></circle>
    <circle cx="957.3" cy="85.9" r="5" fill="#16a34a"><title>Accepted epoch 89, diff 571</title></circle>
    <circle cx="967.4" cy="174.7" r="5" fill="#16a34a"><title>Accepted epoch 90, diff 179</title></circle>
    <g transform="translate(72, 566.0)" font-size="13" fill="#111827">
      <rect x="0" y="-12" width="14" height="4" fill="#2563eb"/><text x="22" y="-7">Candidate avg goals</text>
      <rect x="190" y="-12" width="14" height="4" fill="#ef4444"/><text x="212" y="-7">Baseline avg goals</text>
      <rect x="378" y="-12" width="14" height="4" fill="#7c3aed"/><text x="400" y="-7">Goal diff</text>
      <circle cx="548" cy="-10" r="5" fill="#16a34a"/><text x="562" y="-7">Accepted improvement</text>
    </g>
  </g>
</svg>
