<?xml version="1.0" encoding="UTF-8"?>
<svg xmlns="http://www.w3.org/2000/svg" width="1100" height="620" viewBox="0 0 1100 620">
  <rect width="100%" height="100%" fill="#ffffff"/>
  <text x="72" y="30" font-family="Arial, sans-serif" font-size="22" font-weight="700" fill="#111827">Training progress</text>
  <text x="1068" y="30" text-anchor="end" font-family="Arial, sans-serif" font-size="13" fill="#4b5563">Final champion epoch: 999</text>
  <g font-family="Arial, sans-serif">
    <line x1="72.0" y1="54.0" x2="72.0" y2="542.0" stroke="#eef2f7" stroke-width="1"/>
    <text x="72.0" y="566.0" text-anchor="middle" font-size="12" fill="#4b5563">1</text>
    <line x1="171.7" y1="54.0" x2="171.7" y2="542.0" stroke="#eef2f7" stroke-width="1"/>
    <text x="171.7" y="566.0" text-anchor="middle" font-size="12" fill="#4b5563">101</text>
    <line x1="271.4" y1="54.0" x2="271.4" y2="542.0" stroke="#eef2f7" stroke-width="1"/>
    <text x="271.4" y="566.0" text-anchor="middle" font-size="12" fill="#4b5563">201</text>
    <line x1="371.1" y1="54.0" x2="371.1" y2="542.0" stroke="#eef2f7" stroke-width="1"/>
    <text x="371.1" y="566.0" text-anchor="middle" font-size="12" fill="#4b5563">301</text>
    <line x1="470.8" y1="54.0" x2="470.8" y2="542.0" stroke="#eef2f7" stroke-width="1"/>
    <text x="470.8" y="566.0" text-anchor="middle" font-size="12" fill="#4b5563">401</text>
    <line x1="570.5" y1="54.0" x2="570.5" y2="542.0" stroke="#eef2f7" stroke-width="1"/>
    <text x="570.5" y="566.0" text-anchor="middle" font-size="12" fill="#4b5563">501</text>
    <line x1="670.2" y1="54.0" x2="670.2" y2="542.0" stroke="#eef2f7" stroke-width="1"/>
    <text x="670.2" y="566.0" text-anchor="middle" font-size="12" fill="#4b5563">601</text>
    <line x1="769.9" y1="54.0" x2="769.9" y2="542.0" stroke="#eef2f7" stroke-width="1"/>
    <text x="769.9" y="566.0" text-anchor="middle" font-size="12" fill="#4b5563">701</text>
    <line x1="869.6" y1="54.0" x2="869.6" y2="542.0" stroke="#eef2f7" stroke-width="1"/>
    <text x="869.6" y="566.0" text-anchor="middle" font-size="12" fill="#4b5563">801</text>
    <line x1="969.3" y1="54.0" x2="969.3" y2="542.0" stroke="#eef2f7" stroke-width="1"/>
    <text x="969.3" y="566.0" text-anchor="middle" font-size="12" fill="#4b5563">901</text>
    <line x1="72.0" y1="542.0" x2="1068.0" y2="542.0" stroke="#d8dee9" stroke-width="1" opacity="0.55"/>
    <text x="60.0" y="546.0" text-anchor="end" font-size="12" fill="#4b5563">-532.0</text>
    <line x1="72.0" y1="444.4" x2="1068.0" y2="444.4" stroke="#d8dee9" stroke-width="1" opacity="0.55"/>
    <text x="60.0" y="448.4" text-anchor="end" font-size="12" fill="#4b5563">-352.8</text>
    <line x1="72.0" y1="346.8" x2="1068.0" y2="346.8" stroke="#d8dee9" stroke-width="1" opacity="0.55"/>
    <text x="60.0" y="350.8" text-anchor="end" font-size="12" fill="#4b5563">-173.6</text>
    <line x1="72.0" y1="249.2" x2="1068.0" y2="249.2" stroke="#d8dee9" stroke-width="1" opacity="0.55"/>
    <text x="60.0" y="253.2" text-anchor="end" font-size="12" fill="#4b5563">5.6</text>
    <line x1="72.0" y1="151.6" x2="1068.0" y2="151.6" stroke="#d8dee9" stroke-width="1" opacity="0.55"/>
    <text x="60.0" y="155.6" text-anchor="end" font-size="12" fill="#4b5563">184.8</text>
    <line x1="72.0" y1="54.0" x2="1068.0" y2="54.0" stroke="#d8dee9" stroke-width="1" opacity="0.55"/>
    <text x="60.0" y="58.0" text-anchor="end" font-size="12" fill="#4b5563">364.0</text>
    <line x1="72.0" y1="54.0" x2="72.0" y2="542.0" stroke="#111827" stroke-width="1.4"/>
    <line x1="72.0" y1="542.0" x2="1068.0" y2="542.0" stroke="#111827" stroke-width="1.4"/>
    <text x="570.0" y="596.0" text-anchor="middle" font-size="13" fill="#111827">Epoch</text>
    <text x="20" y="298.0" transform="rotate(-90 20 298.0)" text-anchor="middle" font-size="13" fill="#111827">Goals / goal diff</text>
    <polyline fill="none" stroke="#2563eb" stroke-width="2.4" points="72.0,248.9 73.0,248.9 74.0,248.8 75.0,251.8 76.0,249.0 77.0,248.8 78.0,249.2 79.0,248.9 80.0,248.9 81.0,248.9 82.0,248.9 83.0,248.8 84.0,249.7 85.0,248.9 86.0,251.9 87.0,248.9 88.0,248.9 88.9,249.2 89.9,249.0 90.9,251.9 91.9,249.0 92.9,249.3 93.9,248.9 94.9,252.2 95.9,249.8 96.9,249.0 97.9,249.2 98.9,250.6 99.9,249.1 100.9,249.4 101.9,252.2 102.9,249.2 103.9,250.1 104.9,248.9 105.9,249.0 106.9,248.9 107.9,248.9 108.9,249.1 109.9,249.1 110.9,251.8 111.9,250.5 112.9,249.0 113.9,250.0 114.9,249.8 115.9,248.9 116.9,249.6 117.9,249.0 118.9,249.3 119.9,249.0 120.9,248.9 121.8,249.0 122.8,249.5 123.8,249.0 124.8,249.0 125.8,249.1 126.8,249.1 127.8,251.0 128.8,251.8 129.8,249.3 130.8,249.0 131.8,249.0 132.8,249.7 133.8,249.0 134.8,249.1 135.8,249.0 136.8,249.1 137.8,249.0 138.8,250.0 139.8,251.9 140.8,252.0 141.8,249.1 142.8,249.2 143.8,249.1 144.8,251.8 145.8,249.0 146.8,250.6 147.8,249.0 148.8,249.2 149.8,249.3 150.8,249.8 151.8,249.5 152.8,249.4 153.8,249.0 154.8,249.0 155.7,249.0 156.7,249.0 157.7,249.0 158.7,250.8 159.7,249.0 160.7,249.0 161.7,249.3 162.7,249.0 163.7,249.3 164.7,249.1 165.7,248.9 166.7,249.0 167.7,252.2 168.7,249.0 169.7,249.2 170.7,249.0 171.7,249.1 172.7,249.1 173.7,249.2 174.7,249.3 175.7,249.4 176.7,249.2 177.7,249.2 178.7,250.2 179.7,249.3 180.7,249.9 181.7,249.4 182.7,249.7 183.7,249.7 184.7,249.5 185.7,249.8 186.7,250.1 187.7,249.1 188.6,252.2 189.6,249.1 190.6,249.1 191.6,249.3 192.6,251.7 193.6,251.8 194.6,251.8 195.6,251.2 196.6,249.1 197.6,249.3 198.6,249.1 199.6,248.9 200.6,251.9 201.6,249.1 202.6,249.5 203.6,249.0 204.6,249.1 205.6,249.1 206.6,249.3 207.6,249.0 208.6,249.5 209.6,251.7 210.6,249.1 211.6,249.0 212.6,249.7 213.6,251.7 214.6,249.1 215.6,249.0 216.6,249.1 217.6,249.6 218.6,249.7 219.6,249.2 220.6,249.1 221.5,249.0 222.5,249.1 223.5,251.8 224.5,252.2 225.5,249.5 226.5,249.0 227.5,251.9 228.5,249.0 229.5,249.9 230.5,249.3 231.5,249.0 232.5,249.1 233.5,252.2 234.5,249.6 235.5,249.1 236.5,249.2 237.5,249.1 238.5,249.0 239.5,249.5 240.5,249.0 241.5,249.2 242.5,251.1 243.5,249.0 244.5,252.2 245.5,249.0 246.5,249.0 247.5,249.6 248.5,249.1 249.5,249.6 250.5,249.4 251.5,249.0 252.5,249.1 253.5,249.0 254.5,249.3 255.4,249.1 256.4,249.8 257.4,249.0 258.4,249.1 259.4,249.2 260.4,249.0 261.4,249.0 262.4,249.0 263.4,250.2 264.4,252.0 265.4,249.0 266.4,249.0 267.4,249.0 268.4,249.5 269.4,249.1 270.4,249.2 271.4,249.4 272.4,249.1 273.4,249.0 274.4,249.1 275.4,249.0 276.4,249.0 277.4,249.8 278.4,249.1 279.4,249.4 280.4,249.0 281.4,249.0 282.4,249.2 283.4,251.8 284.4,249.4 285.4,251.8 286.4,249.1 287.4,249.5 288.3,249.0 289.3,249.6 290.3,249.5 291.3,249.7 292.3,249.0 293.3,250.0 294.3,249.9 295.3,249.1 296.3,249.1 297.3,251.2 298.3,249.1 299.3,249.2 300.3,249.1 301.3,249.3 302.3,249.4 303.3,249.1 304.3,249.3 305.3,249.7 306.3,250.2 307.3,251.2 308.3,251.7 309.3,249.2 310.3,251.4 311.3,249.5 312.3,249.2 313.3,249.3 314.3,249.2 315.3,249.3 316.3,249.1 317.3,249.5 318.3,249.2 319.3,251.1 320.3,249.2 321.2,249.2 322.2,249.4 323.2,249.7 324.2,249.2 325.2,250.0 326.2,249.1 327.2,249.1 328.2,249.0 329.2,249.1 330.2,249.1 331.2,251.7 332.2,249.1 333.2,249.1 334.2,249.6 335.2,249.0 336.2,249.6 337.2,249.0 338.2,249.0 339.2,249.3 340.2,249.3 341.2,249.6 342.2,249.1 343.2,249.3 344.2,249.0 345.2,249.0 346.2,249.1 347.2,249.0 348.2,250.1 349.2,249.0 350.2,249.6 351.2,249.2 352.2,250.0 353.2,249.0 354.2,251.2 355.1,249.4 356.1,249.0 357.1,251.0 358.1,250.9 359.1,249.0 360.1,252.2 361.1,249.2 362.1,249.4 363.1,249.1 364.1,251.3 365.1,249.1 366.1,249.2 367.1,249.3 368.1,249.1 369.1,249.1 370.1,249.2 371.1,249.2 372.1,249.1 373.1,249.2 374.1,249.2 375.1,251.9 376.1,249.1 377.1,249.0 378.1,249.0 379.1,251.5 380.1,252.2 381.1,249.0 382.1,249.1 383.1,249.0 384.1,249.0 385.1,248.9 386.1,249.1 387.1,249.0 388.0,249.2 389.0,248.9 390.0,249.0 391.0,249.2 392.0,251.6 393.0,249.5 394.0,249.0 395.0,249.1 396.0,249.0 397.0,249.1 398.0,249.0 399.0,249.0 400.0,249.0 401.0,249.2 402.0,249.1 403.0,251.7 404.0,249.2 405.0,250.8 406.0,249.0 407.0,249.0 408.0,249.0 409.0,249.5 410.0,249.6 411.0,249.0 412.0,251.2 413.0,251.7 414.0,249.0 415.0,248.9 416.0,250.7 417.0,249.3 418.0,248.9 419.0,249.1 420.0,251.9 420.9,249.0 421.9,248.9 422.9,248.9 423.9,248.9 424.9,249.1 425.9,251.8 426.9,248.9 427.9,248.9 428.9,249.5 429.9,248.9 430.9,249.0 431.9,249.2 432.9,249.8 433.9,249.9 434.9,249.9 435.9,248.9 436.9,249.1 437.9,249.2 438.9,248.9 439.9,248.9 440.9,248.9 441.9,249.4 442.9,249.1 443.9,248.9 444.9,249.0 445.9,248.9 446.9,249.5 447.9,249.0 448.9,248.9 449.9,251.9 450.9,249.7 451.9,249.0 452.9,249.0 453.8,249.0 454.8,248.9 455.8,252.1 456.8,251.7 457.8,248.9 458.8,251.7 459.8,249.0 460.8,249.5 461.8,249.7 462.8,248.9 463.8,249.0 464.8,251.5 465.8,248.9 466.8,249.0 467.8,249.0 468.8,248.9 469.8,249.6 470.8,249.2 471.8,248.9 472.8,248.9 473.8,248.9 474.8,248.8 475.8,248.9 476.8,249.7 477.8,249.1 478.8,250.0 479.8,250.7 480.8,248.8 481.8,249.1 482.8,248.9 483.8,252.2 484.8,249.0 485.8,249.2 486.8,248.9 487.7,248.9 488.7,251.7 489.7,251.7 490.7,248.9 491.7,248.9 492.7,249.1 493.7,248.9 494.7,249.0 495.7,249.3 496.7,251.7 497.7,248.9 498.7,248.9 499.7,248.9 500.7,249.1 501.7,248.9 502.7,251.4 503.7,249.2 504.7,248.8 505.7,250.1 506.7,251.8 507.7,251.4 508.7,248.9 509.7,252.2 510.7,249.2 511.7,249.3 512.7,249.1 513.7,248.9 514.7,248.9 515.7,249.3 516.7,248.9 517.7,248.9 518.7,249.1 519.7,248.9 520.6,248.9 521.6,250.1 522.6,252.2 523.6,248.8 524.6,249.4 525.6,249.0 526.6,248.9 527.6,249.3 528.6,248.9 529.6,249.1 530.6,249.1 531.6,249.2 532.6,248.9 533.6,249.0 534.6,249.1 535.6,248.9 536.6,249.1 537.6,249.2 538.6,248.9 539.6,249.2 540.6,249.0 541.6,249.4 542.6,248.9 543.6,250.8 544.6,248.8 545.6,248.9 546.6,249.4 547.6,248.9 548.6,248.9 549.6,248.9 550.6,248.9 551.6,249.6 552.6,249.3 553.5,249.8 554.5,249.1 555.5,251.3 556.5,249.2 557.5,249.4 558.5,249.1 559.5,248.8 560.5,249.0 561.5,248.8 562.5,248.8 563.5,249.9 564.5,251.8 565.5,249.1 566.5,248.9 567.5,249.1 568.5,249.9 569.5,250.1 570.5,248.9 571.5,249.2 572.5,249.3 573.5,250.6 574.5,249.0 575.5,251.7 576.5,249.1 577.5,249.0 578.5,249.0 579.5,248.9 580.5,249.0 581.5,252.1 582.5,249.1 583.5,249.5 584.5,249.0 585.5,249.4 586.5,250.4 587.4,249.1 588.4,249.0 589.4,250.2 590.4,249.0 591.4,249.1 592.4,249.0 593.4,249.0 594.4,250.3 595.4,252.2 596.4,249.0 597.4,249.0 598.4,249.0 599.4,249.0 600.4,249.5 601.4,249.0 602.4,249.0 603.4,249.1 604.4,249.0 605.4,249.0 606.4,251.9 607.4,249.2 608.4,249.9 609.4,248.9 610.4,251.9 611.4,249.2 612.4,249.1 613.4,251.9 614.4,249.0 615.4,251.1 616.4,251.9 617.4,249.0 618.4,249.0 619.4,249.2 620.3,249.7 621.3,250.6 622.3,251.8 623.3,249.7 624.3,249.4 625.3,249.4 626.3,249.3 627.3,249.4 628.3,252.2 629.3,249.6 630.3,251.1 631.3,250.5 632.3,249.7 633.3,249.6 634.3,249.4 635.3,252.2 636.3,249.4 637.3,249.5 638.3,249.5 639.3,249.5 640.3,249.6 641.3,249.5 642.3,249.4 643.3,252.2 644.3,249.3 645.3,249.9 646.3,249.3 647.3,249.3 648.3,249.5 649.3,252.2 650.3,249.9 651.3,249.3 652.3,249.1 653.2,251.0 654.2,249.1 655.2,249.0 656.2,249.0 657.2,249.0 658.2,249.0 659.2,249.1 660.2,251.3 661.2,251.1 662.2,249.1 663.2,249.0 664.2,250.6 665.2,251.8 666.2,249.0 667.2,249.1 668.2,249.1 669.2,251.7 670.2,251.8 671.2,249.1 672.2,248.9 673.2,249.1 674.2,249.0 675.2,249.1 676.2,249.1 677.2,249.1 678.2,249.6 679.2,249.0 680.2,249.1 681.2,249.0 682.2,249.1 683.2,249.0 684.2,251.8 685.2,249.0 686.2,249.1 687.1,250.4 688.1,249.2 689.1,250.0 690.1,249.0 691.1,249.0 692.1,250.1 693.1,249.4 694.1,249.0 695.1,249.0 696.1,249.3 697.1,249.6 698.1,252.1 699.1,249.0 700.1,249.1 701.1,251.8 702.1,249.2 703.1,250.6 704.1,249.0 705.1,249.0 706.1,248.9 707.1,249.0 708.1,250.4 709.1,249.0 710.1,248.9 711.1,249.0 712.1,252.2 713.1,250.2 714.1,248.9 715.1,249.1 716.1,252.2 717.1,249.2 718.1,248.9 719.1,249.4 720.0,249.0 721.0,249.0 722.0,249.0 723.0,249.0 724.0,249.0 725.0,249.1 726.0,251.0 727.0,251.9 728.0,248.9 729.0,249.0 730.0,249.0 731.0,249.3 732.0,249.1 733.0,249.3 734.0,249.0 735.0,248.9 736.0,249.1 737.0,249.0 738.0,249.1 739.0,248.9 740.0,249.2 741.0,249.0 742.0,249.5 743.0,249.6 744.0,249.1 745.0,249.3 746.0,249.1 747.0,249.0 748.0,251.4 749.0,249.8 750.0,249.0 751.0,249.0 752.0,248.9 752.9,249.5 753.9,248.9 754.9,251.9 755.9,249.0 756.9,249.1 757.9,249.0 758.9,249.0 759.9,251.4 760.9,250.8 761.9,249.4 762.9,248.9 763.9,249.2 764.9,249.1 765.9,249.6 766.9,248.9 767.9,249.0 768.9,248.9 769.9,249.0 770.9,249.1 771.9,249.1 772.9,249.3 773.9,249.2 774.9,249.5 775.9,249.3 776.9,249.0 777.9,249.1 778.9,249.0 779.9,250.1 780.9,249.1 781.9,249.1 782.9,249.0 783.9,249.0 784.9,249.0 785.8,249.1 786.8,249.1 787.8,249.0 788.8,251.7 789.8,249.0 790.8,249.1 791.8,249.0 792.8,252.2 793.8,249.0 794.8,249.0 795.8,249.0 796.8,249.1 797.8,249.0 798.8,249.1 799.8,250.2 800.8,249.2 801.8,251.3 802.8,250.8 803.8,249.1 804.8,249.1 805.8,249.2 806.8,249.2 807.8,250.6 808.8,249.2 809.8,249.2 810.8,249.2 811.8,250.3 812.8,251.8 813.8,249.2 814.8,249.1 815.8,250.0 816.8,249.3 817.8,249.2 818.8,249.0 819.7,250.4 820.7,249.0 821.7,248.9 822.7,249.1 823.7,249.0 824.7,249.1 825.7,249.4 826.7,249.0 827.7,249.1 828.7,249.1 829.7,249.0 830.7,251.4 831.7,249.0 832.7,249.0 833.7,249.1 834.7,249.3 835.7,249.0 836.7,251.5 837.7,249.0 838.7,249.0 839.7,251.9 840.7,249.9 841.7,252.2 842.7,251.8 843.7,249.0 844.7,250.1 845.7,249.1 846.7,249.0 847.7,249.2 848.7,249.1 849.7,249.1 850.7,249.4 851.7,249.0 852.6,249.1 853.6,249.0 854.6,249.0 855.6,249.0 856.6,249.0 857.6,249.5 858.6,249.5 859.6,249.0 860.6,249.2 861.6,249.0 862.6,249.4 863.6,249.0 864.6,249.0 865.6,249.0 866.6,252.2 867.6,249.1 868.6,249.1 869.6,249.3 870.6,249.0 871.6,248.9 872.6,249.9 873.6,249.5 874.6,249.3 875.6,249.0 876.6,249.1 877.6,249.0 878.6,249.5 879.6,249.0 880.6,249.1 881.6,249.0 882.6,249.0 883.6,249.0 884.6,249.1 885.5,249.0 886.5,249.0 887.5,249.2 888.5,249.0 889.5,249.5 890.5,249.1 891.5,252.2 892.5,249.0 893.5,249.0 894.5,249.0 895.5,251.8 896.5,248.9 897.5,248.9 898.5,248.9 899.5,252.2 900.5,248.9 901.5,251.8 902.5,249.7 903.5,249.3 904.5,249.9 905.5,249.1 906.5,248.9 907.5,249.0 908.5,249.0 909.5,249.1 910.5,249.0 911.5,249.0 912.5,250.2 913.5,248.9 914.5,249.1 915.5,251.8 916.5,250.1 917.5,250.9 918.5,251.9 919.4,251.8 920.4,249.0 921.4,251.8 922.4,249.0 923.4,249.0 924.4,249.0 925.4,249.2 926.4,249.6 927.4,251.8 928.4,249.1 929.4,250.0 930.4,249.0 931.4,249.1 932.4,249.2 933.4,252.2 934.4,249.3 935.4,252.1 936.4,249.1 937.4,249.0 938.4,249.2 939.4,250.7 940.4,249.5 941.4,249.7 942.4,252.2 943.4,249.3 944.4,249.0 945.4,249.1 946.4,249.0 947.4,251.6 948.4,249.1 949.4,249.1 950.4,249.1 951.4,249.3 952.3,252.2 953.3,249.0 954.3,249.0 955.3,252.2 956.3,249.1 957.3,249.1 958.3,251.8 959.3,249.0 960.3,249.3 961.3,250.8 962.3,251.8 963.3,249.4 964.3,249.4 965.3,249.0 966.3,249.2 967.3,249.0 968.3,249.1 969.3,249.2 970.3,249.2 971.3,249.1 972.3,249.2 973.3,249.2 974.3,249.7 975.3,251.8 976.3,249.1 977.3,249.4 978.3,251.7 979.3,252.2 980.3,249.1 981.3,249.4 982.3,251.6 983.3,251.7 984.3,249.1 985.2,249.1 986.2,249.9 987.2,252.2 988.2,249.3 989.2,250.1 990.2,249.2 991.2,252.2 992.2,249.4 993.2,249.0 994.2,252.2 995.2,249.1 996.2,249.0 997.2,249.0 998.2,249.1 999.2,249.1 1000.2,249.1 1001.2,249.1 1002.2,251.8 1003.2,249.0 1004.2,249.5 1005.2,249.0 1006.2,249.1 1007.2,249.0 1008.2,249.9 1009.2,249.1 1010.2,251.2 1011.2,249.5 1012.2,249.2 1013.2,249.1 1014.2,249.3 1015.2,249.2 1016.2,249.3 1017.2,249.1 1018.2,250.0 1019.1,249.1 1020.1,249.3 1021.1,249.0 1022.1,252.2 1023.1,249.2 1024.1,251.8 1025.1,249.1 1026.1,249.0 1027.1,251.8 1028.1,249.1 1029.1,250.5 1030.1,249.1 1031.1,249.0 1032.1,249.0 1033.1,249.0 1034.1,249.0 1035.1,249.0 1036.1,249.0 1037.1,249.0 1038.1,249.0 1039.1,252.2 1040.1,249.9 1041.1,249.1 1042.1,249.1 1043.1,249.0 1044.1,251.8 1045.1,249.2 1046.1,249.3 1047.1,249.0 1048.1,249.0 1049.1,249.2 1050.1,249.1 1051.1,250.0 1052.0,249.0 1053.0,249.2 1054.0,249.1 1055.0,249.5 1056.0,249.5 1057.0,250.2 1058.0,249.5 1059.0,249.0 1060.0,249.8 1061.0,250.0 1062.0,249.0 1063.0,250.6 1064.0,249.0 1065.0,249.2 1066.0,249.0 1067.0,249.0 1068.0,252.2"/>
    <polyline fill="none" stroke="#ef4444" stroke-width="2.4" points="72.0,248.8 73.0,248.8 74.0,248.9 75.0,250.9 76.0,248.9 77.0,248.9 78.0,248.9 79.0,248.8 80.0,248.9 81.0,248.9 82.0,248.9 83.0,248.9 84.0,249.0 85.0,248.9 86.0,250.1 87.0,248.9 88.0,248.9 88.9,249.1 89.9,249.0 90.9,250.7 91.9,249.0 92.9,249.0 93.9,248.9 94.9,250.6 95.9,249.5 96.9,248.9 97.9,249.0 98.9,249.8 99.9,249.0 100.9,249.0 101.9,251.3 102.9,249.0 103.9,249.3 104.9,248.9 105.9,248.8 106.9,248.9 107.9,248.9 108.9,248.9 109.9,248.8 110.9,250.6 111.9,249.9 112.9,248.8 113.9,249.3 114.9,249.3 115.9,248.9 116.9,249.1 117.9,248.8 118.9,248.8 119.9,248.8 120.9,248.9 121.8,249.0 122.8,249.3 123.8,249.0 124.8,248.9 125.8,249.0 126.8,249.0 127.8,250.1 128.8,251.0 129.8,249.1 130.8,249.0 131.8,249.0 132.8,249.4 133.8,249.1 134.8,249.0 135.8,249.1 136.8,249.0 137.8,249.1 138.8,249.3 139.8,250.9 140.8,250.4 141.8,249.1 142.8,249.2 143.8,249.0 144.8,250.8 145.8,249.0 146.8,249.8 147.8,249.0 148.8,249.0 149.8,249.1 150.8,249.4 151.8,249.2 152.8,249.1 153.8,249.0 154.8,249.0 155.7,248.9 156.7,248.9 157.7,249.0 158.7,250.2 159.7,249.0 160.7,248.9 161.7,249.2 162.7,249.0 163.7,249.1 164.7,248.8 165.7,249.0 166.7,249.0 167.7,250.9 168.7,249.1 169.7,249.1 170.7,249.1 171.7,249.0 172.7,249.2 173.7,249.2 174.7,249.1 175.7,249.3 176.7,249.1 177.7,249.2 178.7,249.7 179.7,249.2 180.7,249.5 181.7,249.3 182.7,249.4 183.7,249.5 184.7,249.4 185.7,249.5 186.7,249.6 187.7,249.2 188.6,250.7 189.6,249.1 190.6,249.1 191.6,249.2 192.6,250.1 193.6,250.7 194.6,250.7 195.6,250.3 196.6,249.1 197.6,249.2 198.6,249.1 199.6,249.0 200.6,250.9 201.6,249.0 202.6,249.2 203.6,249.0 204.6,248.9 205.6,249.0 206.6,249.1 207.6,248.9 208.6,249.3 209.6,250.7 210.6,249.0 211.6,248.9 212.6,249.3 213.6,250.6 214.6,249.0 215.6,249.1 216.6,249.0 217.6,249.2 218.6,249.3 219.6,249.0 220.6,249.0 221.5,249.0 222.5,249.0 223.5,251.0 224.5,251.4 225.5,249.1 226.5,249.0 227.5,250.8 228.5,249.0 229.5,249.4 230.5,249.1 231.5,249.0 232.5,249.1 233.5,251.2 234.5,249.3 235.5,249.1 236.5,249.0 237.5,249.1 238.5,249.1 239.5,249.3 240.5,249.1 241.5,249.1 242.5,250.5 243.5,249.0 244.5,251.2 245.5,249.0 246.5,249.0 247.5,249.3 248.5,248.9 249.5,249.3 250.5,248.9 251.5,249.0 252.5,249.0 253.5,249.0 254.5,248.8 255.4,249.0 256.4,249.5 257.4,249.1 258.4,249.0 259.4,249.0 260.4,249.1 261.4,249.1 262.4,249.0 263.4,249.6 264.4,251.4 265.4,249.0 266.4,249.1 267.4,249.1 268.4,249.2 269.4,249.0 270.4,249.1 271.4,249.2 272.4,249.0 273.4,249.1 274.4,249.0 275.4,249.0 276.4,249.0 277.4,249.2 278.4,249.1 279.4,249.2 280.4,249.0 281.4,249.0 282.4,249.0 283.4,250.8 284.4,249.1 285.4,249.7 286.4,248.9 287.4,249.2 288.3,249.0 289.3,249.3 290.3,249.3 291.3,249.5 292.3,249.0 293.3,249.3 294.3,249.4 295.3,249.1 296.3,249.1 297.3,250.4 298.3,249.2 299.3,249.2 300.3,249.1 301.3,249.2 302.3,249.3 303.3,249.1 304.3,249.2 305.3,249.3 306.3,249.3 307.3,250.0 308.3,250.9 309.3,249.2 310.3,250.7 311.3,249.3 312.3,249.3 313.3,249.2 314.3,249.1 315.3,249.2 316.3,249.1 317.3,249.3 318.3,249.2 319.3,250.2 320.3,249.1 321.2,249.2 322.2,249.2 323.2,249.4 324.2,249.2 325.2,249.5 326.2,249.1 327.2,249.1 328.2,248.9 329.2,248.9 330.2,249.0 331.2,250.5 332.2,248.9 333.2,249.1 334.2,249.3 335.2,249.0 336.2,249.1 337.2,249.0 338.2,249.0 339.2,249.1 340.2,249.1 341.2,249.2 342.2,248.9 343.2,249.1 344.2,249.0 345.2,249.0 346.2,249.0 347.2,249.0 348.2,249.5 349.2,249.0 350.2,249.4 351.2,248.9 352.2,249.2 353.2,249.0 354.2,250.5 355.1,249.1 356.1,249.0 357.1,250.3 358.1,249.9 359.1,249.0 360.1,250.2 361.1,249.1 362.1,249.2 363.1,249.1 364.1,250.6 365.1,249.2 366.1,249.1 367.1,249.1 368.1,249.2 369.1,249.1 370.1,249.1 371.1,249.1 372.1,249.1 373.1,249.1 374.1,249.1 375.1,250.8 376.1,249.1 377.1,249.0 378.1,249.0 379.1,250.5 380.1,251.3 381.1,249.0 382.1,249.0 383.1,248.9 384.1,249.0 385.1,249.0 386.1,248.9 387.1,248.9 388.0,248.8 389.0,249.0 390.0,249.0 391.0,249.0 392.0,250.8 393.0,249.2 394.0,249.0 395.0,249.0 396.0,249.1 397.0,249.0 398.0,249.0 399.0,249.0 400.0,249.0 401.0,249.1 402.0,249.0 403.0,250.4 404.0,249.1 405.0,250.0 406.0,249.0 407.0,249.0 408.0,248.9 409.0,249.3 410.0,249.4 411.0,249.0 412.0,250.4 413.0,250.9 414.0,249.0 415.0,249.0 416.0,249.9 417.0,249.2 418.0,248.9 419.0,248.8 420.0,251.0 420.9,248.9 421.9,248.9 422.9,248.9 423.9,248.9 424.9,249.1 425.9,251.0 426.9,248.8 427.9,248.9 428.9,249.1 429.9,248.9 430.9,248.8 431.9,249.0 432.9,249.2 433.9,249.0 434.9,249.4 435.9,248.9 436.9,249.1 437.9,249.1 438.9,248.9 439.9,248.9 440.9,248.9 441.9,249.2 442.9,249.0 443.9,249.0 444.9,248.9 445.9,248.9 446.9,249.2 447.9,248.9 448.9,248.9 449.9,250.9 450.9,249.2 451.9,249.0 452.9,248.9 453.8,248.8 454.8,248.9 455.8,250.3 456.8,250.7 457.8,248.9 458.8,250.7 459.8,249.0 460.8,249.1 461.8,249.0 462.8,248.9 463.8,248.9 464.8,250.8 465.8,248.9 466.8,248.9 467.8,248.9 468.8,248.9 469.8,248.8 470.8,248.9 471.8,248.8 472.8,248.8 473.8,248.8 474.8,248.9 475.8,248.8 476.8,249.2 477.8,248.6 478.8,249.2 479.8,249.9 480.8,248.9 481.8,248.9 482.8,248.9 483.8,250.7 484.8,248.9 485.8,249.0 486.8,248.9 487.7,248.8 488.7,251.0 489.7,250.8 490.7,248.8 491.7,248.8 492.7,248.7 493.7,248.9 494.7,248.8 495.7,249.1 496.7,250.8 497.7,248.9 498.7,248.8 499.7,248.8 500.7,249.0 501.7,248.8 502.7,250.5 503.7,248.7 504.7,248.9 505.7,249.4 506.7,250.9 507.7,250.4 508.7,248.9 509.7,250.5 510.7,248.8 511.7,249.1 512.7,249.0 513.7,248.8 514.7,248.9 515.7,249.1 516.7,248.9 517.7,248.8 518.7,249.0 519.7,248.9 520.6,248.9 521.6,249.1 522.6,251.1 523.6,248.9 524.6,248.8 525.6,249.0 526.6,248.8 527.6,249.0 528.6,249.0 529.6,249.1 530.6,249.0 531.6,249.0 532.6,248.9 533.6,248.9 534.6,249.1 535.6,248.9 536.6,249.1 537.6,249.1 538.6,248.9 539.6,249.0 540.6,248.9 541.6,249.3 542.6,248.9 543.6,250.2 544.6,248.9 545.6,248.8 546.6,249.2 547.6,248.8 548.6,248.8 549.6,248.8 550.6,248.8 551.6,249.2 552.6,248.9 553.5,249.4 554.5,248.9 555.5,250.1 556.5,249.0 557.5,248.9 558.5,249.0 559.5,248.9 560.5,248.9 561.5,248.9 562.5,248.8 563.5,249.4 564.5,251.0 565.5,249.0 566.5,248.9 567.5,248.9 568.5,249.4 569.5,249.1 570.5,249.0 571.5,249.1 572.5,249.1 573.5,249.9 574.5,249.0 575.5,250.9 576.5,249.1 577.5,249.0 578.5,248.9 579.5,249.0 580.5,249.0 581.5,250.1 582.5,249.0 583.5,249.1 584.5,248.9 585.5,249.1 586.5,250.0 587.4,249.0 588.4,249.0 589.4,249.5 590.4,248.9 591.4,249.1 592.4,249.0 593.4,248.9 594.4,249.8 595.4,251.4 596.4,249.0 597.4,249.0 598.4,248.9 599.4,249.0 600.4,249.2 601.4,249.0 602.4,249.0 603.4,248.9 604.4,249.0 605.4,249.0 606.4,250.9 607.4,249.1 608.4,249.4 609.4,249.0 610.4,251.0 611.4,249.1 612.4,249.0 613.4,251.2 614.4,249.0 615.4,250.5 616.4,251.2 617.4,249.0 618.4,249.0 619.4,249.2 620.3,249.6 621.3,250.0 622.3,251.2 623.3,249.6 624.3,249.4 625.3,249.4 626.3,249.4 627.3,249.4 628.3,250.8 629.3,249.0 630.3,250.4 631.3,249.7 632.3,249.5 633.3,249.4 634.3,249.4 635.3,251.1 636.3,249.4 637.3,249.5 638.3,249.5 639.3,249.6 640.3,249.5 641.3,249.6 642.3,249.4 643.3,251.4 644.3,249.2 645.3,249.6 646.3,249.2 647.3,249.3 648.3,249.4 649.3,250.8 650.3,249.5 651.3,249.3 652.3,249.2 653.2,250.3 654.2,248.9 655.2,249.1 656.2,249.1 657.2,249.0 658.2,249.0 659.2,249.1 660.2,250.5 661.2,250.5 662.2,249.0 663.2,249.1 664.2,249.8 665.2,250.8 666.2,249.1 667.2,249.1 668.2,249.0 669.2,251.0 670.2,250.7 671.2,249.0 672.2,249.0 673.2,249.0 674.2,249.0 675.2,249.0 676.2,249.0 677.2,249.0 678.2,249.3 679.2,249.0 680.2,249.0 681.2,249.0 682.2,248.9 683.2,249.0 684.2,250.9 685.2,249.0 686.2,249.0 687.1,249.7 688.1,249.0 689.1,249.5 690.1,249.0 691.1,249.0 692.1,249.5 693.1,249.2 694.1,249.0 695.1,249.0 696.1,249.1 697.1,249.2 698.1,249.5 699.1,249.0 700.1,249.0 701.1,250.9 702.1,249.1 703.1,250.1 704.1,249.0 705.1,249.0 706.1,249.0 707.1,248.9 708.1,249.9 709.1,248.9 710.1,249.0 711.1,248.9 712.1,251.3 713.1,249.7 714.1,248.9 715.1,249.0 716.1,251.3 717.1,249.0 718.1,248.9 719.1,249.2 720.0,249.0 721.0,248.9 722.0,248.9 723.0,249.0 724.0,248.9 725.0,249.0 726.0,250.3 727.0,251.2 728.0,249.0 729.0,248.9 730.0,248.8 731.0,249.0 732.0,249.0 733.0,249.1 734.0,248.9 735.0,248.9 736.0,249.0 737.0,248.9 738.0,249.0 739.0,248.9 740.0,249.1 741.0,249.0 742.0,249.3 743.0,249.3 744.0,249.1 745.0,249.2 746.0,249.1 747.0,249.0 748.0,250.4 749.0,249.3 750.0,248.9 751.0,249.0 752.0,248.9 752.9,249.2 753.9,248.9 754.9,251.1 755.9,248.9 756.9,249.0 757.9,248.9 758.9,248.9 759.9,250.7 760.9,249.9 761.9,249.3 762.9,249.0 763.9,249.0 764.9,249.0 765.9,249.1 766.9,248.9 767.9,248.9 768.9,249.0 769.9,249.0 770.9,249.1 771.9,249.1 772.9,249.2 773.9,249.1 774.9,249.3 775.9,249.3 776.9,249.1 777.9,249.0 778.9,249.0 779.9,249.7 780.9,249.0 781.9,249.0 782.9,249.1 783.9,249.1 784.9,249.1 785.8,249.0 786.8,249.1 787.8,249.1 788.8,250.7 789.8,249.0 790.8,249.1 791.8,249.0 792.8,251.0 793.8,249.0 794.8,249.0 795.8,249.0 796.8,248.9 797.8,249.0 798.8,248.9 799.8,249.3 800.8,249.0 801.8,250.3 802.8,249.8 803.8,249.0 804.8,249.1 805.8,249.2 806.8,249.3 807.8,250.0 808.8,249.2 809.8,249.2 810.8,249.1 811.8,249.8 812.8,250.5 813.8,249.1 814.8,249.0 815.8,249.4 816.8,249.2 817.8,249.1 818.8,249.1 819.7,249.4 820.7,249.0 821.7,249.0 822.7,249.0 823.7,248.9 824.7,249.0 825.7,249.1 826.7,248.9 827.7,248.9 828.7,248.9 829.7,248.9 830.7,250.3 831.7,249.0 832.7,249.0 833.7,249.0 834.7,249.1 835.7,249.0 836.7,250.7 837.7,249.0 838.7,249.0 839.7,251.0 840.7,249.2 841.7,251.4 842.7,250.9 843.7,249.0 844.7,249.5 845.7,249.0 846.7,249.0 847.7,248.8 848.7,248.9 849.7,249.1 850.7,249.3 851.7,249.0 852.6,249.0 853.6,249.0 854.6,249.1 855.6,249.0 856.6,249.0 857.6,249.3 858.6,249.4 859.6,249.0 860.6,249.1 861.6,249.0 862.6,249.0 863.6,249.0 864.6,249.0 865.6,249.0 866.6,250.9 867.6,249.0 868.6,249.0 869.6,249.2 870.6,249.1 871.6,249.1 872.6,249.4 873.6,249.2 874.6,249.2 875.6,249.0 876.6,249.1 877.6,249.0 878.6,249.2 879.6,249.0 880.6,249.0 881.6,249.0 882.6,249.0 883.6,249.0 884.6,249.0 885.5,249.0 886.5,249.1 887.5,249.0 888.5,248.9 889.5,249.2 890.5,248.9 891.5,250.9 892.5,249.0 893.5,248.9 894.5,249.0 895.5,250.9 896.5,248.9 897.5,249.0 898.5,249.0 899.5,250.8 900.5,249.0 901.5,250.8 902.5,249.2 903.5,249.0 904.5,249.3 905.5,248.9 906.5,248.9 907.5,248.9 908.5,248.9 909.5,249.0 910.5,248.9 911.5,248.9 912.5,249.6 913.5,249.0 914.5,249.1 915.5,250.5 916.5,249.5 917.5,249.6 918.5,250.9 919.4,250.6 920.4,249.0 921.4,250.7 922.4,248.9 923.4,249.0 924.4,249.0 925.4,249.0 926.4,249.2 927.4,250.8 928.4,249.0 929.4,249.2 930.4,249.0 931.4,249.0 932.4,249.1 933.4,251.2 934.4,249.1 935.4,249.2 936.4,249.0 937.4,248.9 938.4,249.1 939.4,249.9 940.4,249.2 941.4,249.3 942.4,250.7 943.4,249.1 944.4,249.0 945.4,248.9 946.4,249.0 947.4,250.8 948.4,249.0 949.4,249.0 950.4,248.9 951.4,249.1 952.3,250.9 953.3,249.0 954.3,249.0 955.3,251.1 956.3,249.0 957.3,249.0 958.3,251.0 959.3,249.0 960.3,249.2 961.3,250.1 962.3,251.1 963.3,249.2 964.3,249.2 965.3,249.0 966.3,249.0 967.3,249.1 968.3,249.1 969.3,249.0 970.3,249.1 971.3,249.1 972.3,249.2 973.3,249.1 974.3,249.4 975.3,251.0 976.3,249.0 977.3,249.3 978.3,250.9 979.3,251.1 980.3,249.1 981.3,249.1 982.3,250.9 983.3,250.8 984.3,249.1 985.2,249.1 986.2,249.7 987.2,251.1 988.2,249.2 989.2,249.7 990.2,249.2 991.2,251.1 992.2,249.3 993.2,249.1 994.2,251.3 995.2,249.0 996.2,249.0 997.2,249.0 998.2,249.0 999.2,249.1 1000.2,249.0 1001.2,249.0 1002.2,250.9 1003.2,249.1 1004.2,249.2 1005.2,249.0 1006.2,249.0 1007.2,249.1 1008.2,249.5 1009.2,249.0 1010.2,250.6 1011.2,249.3 1012.2,249.0 1013.2,248.9 1014.2,249.2 1015.2,248.9 1016.2,249.1 1017.2,249.0 1018.2,249.4 1019.1,249.0 1020.1,249.1 1021.1,249.0 1022.1,251.1 1023.1,249.1 1024.1,251.2 1025.1,249.0 1026.1,249.0 1027.1,250.6 1028.1,249.1 1029.1,249.9 1030.1,249.0 1031.1,249.0 1032.1,249.0 1033.1,249.0 1034.1,248.9 1035.1,249.0 1036.1,249.0 1037.1,249.0 1038.1,249.0 1039.1,251.2 1040.1,249.5 1041.1,249.1 1042.1,249.1 1043.1,249.0 1044.1,251.1 1045.1,249.0 1046.1,249.1 1047.1,249.0 1048.1,249.0 1049.1,249.1 1050.1,248.9 1051.1,249.4 1052.0,249.0 1053.0,249.0 1054.0,249.0 1055.0,249.2 1056.0,249.1 1057.0,249.7 1058.0,249.2 1059.0,248.9 1060.0,249.5 1061.0,249.5 1062.0,249.0 1063.0,249.9 1064.0,248.9 1065.0,248.7 1066.0,248.9 1067.0,249.0 1068.0,250.9"/>
    <polyline fill="none" stroke="#7c3aed" stroke-width="2" stroke-dasharray="6 5" points="72.0,332.3 73.0,344.3 74.0,238.1 75.0,336.7 76.0,360.1 77.0,141.7 78.0,522.4 79.0,354.6 80.0,280.6 81.0,274.0 82.0,279.5 83.0,161.8 84.0,354.1 85.0,324.1 86.0,432.0 87.0,218.5 88.0,305.1 88.9,375.9 89.9,296.4 90.9,365.5 91.9,270.8 92.9,491.3 93.9,222.3 94.9,408.6 95.9,435.2 96.9,395.5 97.9,429.8 98.9,339.9 99.9,403.1 100.9,439.1 101.9,343.8 102.9,419.5 103.9,330.1 104.9,197.8 105.9,365.0 106.9,254.4 107.9,251.7 108.9,374.8 109.9,471.7 110.9,370.4 111.9,311.6 112.9,435.8 113.9,324.1 114.9,353.0 115.9,265.3 116.9,398.2 117.9,414.6 118.9,428.2 119.9,359.5 120.9,196.7 121.8,240.8 122.8,438.5 123.8,278.4 124.8,326.3 125.8,331.2 126.8,323.6 127.8,339.4 128.8,330.7 129.8,450.0 130.8,220.1 131.8,247.9 132.8,394.9 133.8,202.7 134.8,365.0 135.8,211.4 136.8,271.9 137.8,166.2 138.8,337.8 139.8,347.0 140.8,414.0 141.8,217.9 142.8,265.3 143.8,299.1 144.8,353.0 145.8,275.7 146.8,336.1 147.8,247.3 148.8,431.4 149.8,465.2 150.8,365.5 151.8,405.3 152.8,453.2 153.8,255.0 154.8,249.5 155.7,383.5 156.7,294.7 157.7,296.4 158.7,311.1 159.7,275.7 160.7,371.5 161.7,367.2 162.7,296.9 163.7,430.3 164.7,509.3 165.7,196.2 166.7,276.8 167.7,387.3 168.7,217.9 169.7,278.9 170.7,187.4 171.7,323.1 172.7,192.9 173.7,277.8 174.7,375.3 175.7,347.0 176.7,331.2 177.7,234.8 178.7,344.8 179.7,283.3 180.7,402.0 181.7,357.4 182.7,457.6 183.7,461.9 184.7,394.4 185.7,420.5 186.7,345.9 187.7,219.6 188.6,402.6 189.6,243.5 190.6,262.1 191.6,353.0 192.6,405.8 193.6,359.5 194.6,355.7 195.6,339.9 196.6,264.8 197.6,386.2 198.6,222.3 199.6,152.0 200.6,343.8 201.6,294.2 202.6,465.8 203.6,178.2 204.6,490.3 205.6,319.2 206.6,484.3 207.6,386.2 208.6,423.3 209.6,355.7 210.6,305.1 211.6,337.8 212.6,391.7 213.6,371.5 214.6,288.7 215.6,174.9 216.6,302.4 217.6,402.6 218.6,388.4 219.6,420.5 220.6,335.6 221.5,254.4 222.5,294.7 223.5,336.1 224.5,334.5 225.5,420.5 226.5,280.0 227.5,364.4 228.5,300.2 229.5,374.2 230.5,420.5 231.5,260.4 232.5,244.1 233.5,358.5 234.5,424.9 235.5,246.3 236.5,387.3 237.5,299.6 238.5,173.3 239.5,485.9 240.5,248.4 241.5,316.0 242.5,312.2 243.5,232.1 244.5,354.1 245.5,257.2 246.5,287.1 247.5,412.9 248.5,412.9 249.5,473.9 250.5,375.9 251.5,228.8 252.5,389.0 253.5,261.5 254.5,384.1 255.4,373.2 256.4,391.1 257.4,215.2 258.4,289.3 259.4,464.1 260.4,196.7 261.4,215.2 262.4,318.7 263.4,316.5 264.4,315.4 265.4,284.4 266.4,183.1 267.4,232.1 268.4,419.5 269.4,356.8 270.4,379.7 271.4,387.9 272.4,289.8 273.4,223.9 274.4,359.5 275.4,192.9 276.4,301.3 277.4,374.2 278.4,329.6 279.4,400.9 280.4,267.5 281.4,253.3 282.4,444.0 283.4,350.3 284.4,445.6 285.4,464.1 286.4,468.5 287.4,430.9 288.3,235.4 289.3,393.3 290.3,462.5 291.3,432.0 292.3,265.9 293.3,314.3 294.3,343.8 295.3,245.7 296.3,252.2 297.3,323.6 298.3,220.1 299.3,225.6 300.3,264.2 301.3,400.4 302.3,384.6 303.3,264.8 304.3,299.6 305.3,414.0 306.3,350.3 307.3,365.0 308.3,335.0 309.3,313.2 310.3,322.0 311.3,444.5 312.3,148.2 313.3,326.3 314.3,334.5 315.3,296.4 316.3,257.7 317.3,390.0 318.3,264.2 319.3,341.6 320.3,297.5 321.2,271.3 322.2,412.4 323.2,417.8 324.2,280.0 325.2,359.0 326.2,218.5 327.2,261.0 328.2,347.6 329.2,402.0 330.2,339.4 331.2,369.9 332.2,414.0 333.2,299.6 334.2,422.7 335.2,256.6 336.2,391.1 337.2,216.8 338.2,243.5 339.2,396.6 340.2,460.8 341.2,402.0 342.2,363.4 343.2,422.7 344.2,253.3 345.2,273.5 346.2,363.4 347.2,246.8 348.2,349.2 349.2,235.4 350.2,478.8 351.2,465.2 352.2,332.3 353.2,280.6 354.2,323.6 355.1,459.2 356.1,245.2 357.1,323.6 358.1,351.4 359.1,194.0 360.1,448.9 361.1,347.0 362.1,451.0 363.1,228.3 364.1,329.0 365.1,178.7 366.1,299.1 367.1,466.8 368.1,186.9 369.1,289.3 370.1,330.7 371.1,337.2 372.1,238.1 373.1,404.8 374.1,289.3 375.1,362.3 376.1,331.2 377.1,245.7 378.1,291.5 379.1,355.2 380.1,348.1 381.1,280.6 382.1,352.5 383.1,305.6 384.1,293.6 385.1,229.4 386.1,466.8 387.1,360.6 388.0,491.3 389.0,185.3 390.0,294.7 391.0,438.5 392.0,331.8 393.0,464.1 394.0,208.7 395.0,338.3 396.0,229.4 397.0,330.1 398.0,235.4 399.0,287.7 400.0,228.3 401.0,369.3 402.0,296.9 403.0,385.1 404.0,368.8 405.0,328.0 406.0,263.1 407.0,290.4 408.0,345.9 409.0,489.2 410.0,442.3 411.0,228.3 412.0,328.0 413.0,331.8 414.0,236.5 415.0,175.5 416.0,331.8 417.0,375.9 418.0,237.0 419.0,502.8 420.0,336.1 420.9,324.7 421.9,272.4 422.9,262.6 423.9,224.5 424.9,331.8 425.9,331.2 426.9,338.3 427.9,284.4 428.9,403.7 429.9,247.9 430.9,386.8 431.9,396.0 432.9,341.0 433.9,333.9 434.9,361.2 435.9,245.2 436.9,300.2 437.9,379.7 438.9,256.1 439.9,260.4 440.9,246.8 441.9,460.3 442.9,299.6 443.9,193.4 444.9,368.8 445.9,281.7 446.9,417.3 447.9,384.1 448.9,225.0 449.9,353.6 450.9,381.3 451.9,343.2 452.9,355.7 453.8,412.4 454.8,272.4 455.8,430.9 456.8,350.8 457.8,191.2 458.8,356.8 459.8,329.0 460.8,381.9 461.8,344.8 462.8,238.1 463.8,341.6 464.8,323.1 465.8,213.6 466.8,385.7 467.8,345.4 468.8,213.0 469.8,348.7 470.8,448.3 471.8,328.0 472.8,313.8 473.8,340.5 474.8,136.2 475.8,308.9 476.8,360.6 477.8,408.6 478.8,339.4 479.8,331.8 480.8,218.5 481.8,456.5 482.8,276.8 483.8,401.5 484.8,270.2 485.8,467.9 486.8,248.4 487.7,365.0 488.7,328.5 489.7,343.2 490.7,281.1 491.7,347.6 492.7,458.1 493.7,252.2 494.7,455.9 495.7,390.0 496.7,338.8 497.7,227.7 498.7,378.6 499.7,308.3 500.7,377.0 501.7,284.4 502.7,342.7 503.7,406.4 504.7,243.0 505.7,326.3 506.7,345.4 507.7,358.5 508.7,259.3 509.7,421.1 510.7,457.0 511.7,479.9 512.7,336.7 513.7,391.7 514.7,298.5 515.7,436.3 516.7,236.5 517.7,306.2 518.7,341.0 519.7,223.4 520.6,277.3 521.6,347.6 522.6,361.7 523.6,225.0 524.6,368.8 525.6,305.1 526.6,296.9 527.6,386.2 528.6,157.5 529.6,284.4 530.6,332.9 531.6,475.6 532.6,233.7 533.6,374.2 534.6,255.0 535.6,261.5 536.6,290.9 537.6,403.1 538.6,285.5 539.6,445.6 540.6,349.7 541.6,405.3 542.6,194.0 543.6,313.2 544.6,214.7 545.6,311.6 546.6,484.3 547.6,260.4 548.6,356.8 549.6,393.3 550.6,280.6 551.6,385.7 552.6,392.2 553.5,365.5 554.5,372.6 555.5,374.2 556.5,477.7 557.5,353.0 558.5,296.4 559.5,249.5 560.5,335.0 561.5,196.7 562.5,244.1 563.5,353.0 564.5,335.6 565.5,331.8 566.5,269.1 567.5,393.9 568.5,391.1 569.5,350.3 570.5,192.3 571.5,415.1 572.5,465.2 573.5,329.0 574.5,241.4 575.5,342.1 576.5,225.6 577.5,246.3 578.5,311.6 579.5,201.6 580.5,294.2 581.5,460.3 582.5,308.3 583.5,411.8 584.5,304.0 585.5,481.5 586.5,341.0 587.4,351.4 588.4,339.9 589.4,326.9 590.4,327.4 591.4,314.3 592.4,304.0 593.4,281.1 594.4,336.7 595.4,337.8 596.4,262.1 597.4,296.9 598.4,349.2 599.4,294.7 600.4,463.0 601.4,277.8 602.4,238.1 603.4,385.1 604.4,289.3 605.4,242.4 606.4,343.2 607.4,337.8 608.4,350.8 609.4,147.1 610.4,337.2 611.4,397.1 612.4,307.8 613.4,323.1 614.4,261.0 615.4,321.4 616.4,317.1 617.4,258.8 618.4,249.5 619.4,251.2 620.3,365.5 621.3,324.7 622.3,316.0 623.3,356.8 624.3,274.0 625.3,227.7 626.3,192.9 627.3,301.3 628.3,396.0 629.3,368.8 630.3,328.0 631.3,336.7 632.3,375.9 633.3,420.0 634.3,283.8 635.3,366.1 636.3,195.1 637.3,240.3 638.3,256.6 639.3,177.1 640.3,367.2 641.3,226.1 642.3,241.9 643.3,334.5 644.3,306.7 645.3,408.6 646.3,269.1 647.3,234.8 648.3,323.6 649.3,398.2 650.3,351.4 651.3,304.5 652.3,131.3 653.2,324.1 654.2,439.6 655.2,143.3 656.2,150.4 657.2,208.7 658.2,216.8 659.2,253.3 660.2,329.6 661.2,308.3 662.2,275.7 663.2,193.4 664.2,331.8 665.2,356.3 666.2,199.4 667.2,258.8 668.2,296.9 669.2,322.5 670.2,364.4 671.2,393.3 672.2,156.9 673.2,316.0 674.2,175.5 675.2,349.7 676.2,307.8 677.2,319.2 678.2,458.1 679.2,228.8 680.2,324.1 681.2,286.0 682.2,370.4 683.2,239.7 684.2,343.2 685.2,216.3 686.2,323.6 687.1,339.9 688.1,425.4 689.1,367.7 690.1,294.2 691.1,302.4 692.1,345.9 693.1,454.9 694.1,233.2 695.1,292.6 696.1,436.9 697.1,399.8 698.1,518.0 699.1,191.2 700.1,374.2 701.1,338.8 702.1,335.6 703.1,308.3 704.1,208.7 705.1,262.1 706.1,186.9 707.1,336.7 708.1,332.9 709.1,258.2 710.1,130.8 711.1,397.1 712.1,342.1 713.1,330.1 714.1,262.1 715.1,396.6 716.1,342.1 717.1,459.2 718.1,258.2 719.1,486.4 720.0,297.5 721.0,304.5 722.0,317.6 723.0,294.2 724.0,359.0 725.0,375.3 726.0,325.8 727.0,324.7 728.0,181.4 729.0,277.8 730.0,465.8 731.0,478.8 732.0,332.9 733.0,403.1 734.0,294.2 735.0,256.6 736.0,335.0 737.0,292.0 738.0,422.7 739.0,268.6 740.0,402.0 741.0,238.1 742.0,479.9 743.0,458.1 744.0,301.8 745.0,347.6 746.0,238.1 747.0,232.1 748.0,346.5 749.0,347.0 750.0,347.0 751.0,282.2 752.0,243.5 752.9,415.1 753.9,251.7 754.9,329.0 755.9,362.8 756.9,324.7 757.9,314.3 758.9,281.1 759.9,318.7 760.9,336.1 761.9,412.4 762.9,235.9 763.9,400.4 764.9,370.4 765.9,385.7 766.9,274.0 767.9,396.0 768.9,235.9 769.9,230.5 770.9,258.8 771.9,214.1 772.9,342.1 773.9,362.3 774.9,493.5 775.9,319.8 776.9,160.2 777.9,408.0 778.9,239.2 779.9,369.3 780.9,344.8 781.9,329.0 782.9,121.0 783.9,188.0 784.9,208.7 785.8,368.3 786.8,292.6 787.8,190.2 788.8,353.0 789.8,225.0 790.8,277.3 791.8,249.0 792.8,372.1 793.8,215.8 794.8,253.3 795.8,210.9 796.8,418.9 797.8,222.3 798.8,428.7 799.8,342.7 800.8,383.0 801.8,344.8 802.8,350.3 803.8,320.9 804.8,245.2 805.8,203.8 806.8,186.3 807.8,310.0 808.8,203.8 809.8,219.0 810.8,342.1 811.8,338.8 812.8,376.4 813.8,373.7 814.8,291.5 815.8,331.2 816.8,343.2 817.8,332.9 818.8,206.0 819.7,353.0 820.7,219.0 821.7,128.6 822.7,253.9 823.7,366.6 824.7,264.2 825.7,439.1 826.7,270.8 827.7,487.0 828.7,452.7 829.7,312.7 830.7,357.9 831.7,244.6 832.7,219.0 833.7,393.3 834.7,513.1 835.7,256.6 836.7,335.0 837.7,253.3 838.7,269.1 839.7,349.7 840.7,330.7 841.7,338.3 842.7,348.7 843.7,338.3 844.7,350.3 845.7,286.0 846.7,264.2 847.7,430.9 848.7,463.0 849.7,301.8 850.7,445.1 851.7,253.3 852.6,298.5 853.6,211.4 854.6,171.1 855.6,228.8 856.6,269.1 857.6,454.3 858.6,366.1 859.6,288.7 860.6,348.7 861.6,241.9 862.6,402.6 863.6,274.6 864.6,304.5 865.6,265.3 866.6,381.3 867.6,347.6 868.6,310.5 869.6,400.9 870.6,185.8 871.6,54.0 872.6,356.8 873.6,435.8 874.6,318.2 875.6,240.8 876.6,278.9 877.6,261.0 878.6,480.5 879.6,314.3 880.6,332.9 881.6,304.0 882.6,281.1 883.6,201.1 884.6,282.2 885.5,316.0 886.5,156.4 887.5,373.7 888.5,346.5 889.5,429.8 890.5,453.8 891.5,380.2 892.5,270.8 893.5,313.2 894.5,248.4 895.5,351.4 896.5,246.8 897.5,215.8 898.5,213.6 899.5,394.4 900.5,201.1 901.5,353.0 902.5,371.0 903.5,467.9 904.5,357.9 905.5,387.3 906.5,284.4 907.5,398.8 908.5,366.6 909.5,331.8 910.5,299.6 911.5,267.5 912.5,323.1 913.5,200.5 914.5,294.2 915.5,384.1 916.5,316.5 917.5,384.1 918.5,352.5 919.4,373.2 920.4,329.0 921.4,363.4 922.4,265.9 923.4,220.1 924.4,301.8 925.4,488.6 926.4,402.6 927.4,353.0 928.4,341.0 929.4,349.2 930.4,303.4 931.4,384.6 932.4,375.9 933.4,355.7 934.4,515.3 935.4,542.0 936.4,378.6 937.4,331.2 938.4,388.4 939.4,325.2 940.4,438.0 941.4,440.7 942.4,406.9 943.4,451.0 944.4,240.8 945.4,437.4 946.4,271.3 947.4,332.3 948.4,286.6 949.4,364.4 950.4,414.6 951.4,445.6 952.3,387.9 953.3,203.8 954.3,220.1 955.3,366.6 956.3,333.9 957.3,359.0 958.3,333.9 959.3,204.3 960.3,346.5 961.3,320.3 962.3,317.1 963.3,426.0 964.3,463.0 965.3,274.0 966.3,389.5 967.3,208.7 968.3,299.1 969.3,389.5 970.3,349.7 971.3,323.1 972.3,269.1 973.3,303.4 974.3,399.3 975.3,338.3 976.3,375.9 977.3,331.8 978.3,336.7 979.3,361.2 980.3,218.5 981.3,399.3 982.3,326.9 983.3,342.7 984.3,302.9 985.2,292.0 986.2,418.4 987.2,365.0 988.2,373.2 989.2,357.9 990.2,304.5 991.2,366.6 992.2,347.0 993.2,181.4 994.2,348.7 995.2,344.3 996.2,207.6 997.2,234.3 998.2,349.7 999.2,298.0 1000.2,321.4 1001.2,296.4 1002.2,342.7 1003.2,198.9 1004.2,397.7 1005.2,215.2 1006.2,314.3 1007.2,85.6 1008.2,380.2 1009.2,302.9 1010.2,315.4 1011.2,475.0 1012.2,404.2 1013.2,442.3 1014.2,337.8 1015.2,455.4 1016.2,371.0 1017.2,350.8 1018.2,332.3 1019.1,331.8 1020.1,426.0 1021.1,268.0 1022.1,363.4 1023.1,359.5 1024.1,313.2 1025.1,276.2 1026.1,261.5 1027.1,373.7 1028.1,272.4 1029.1,307.3 1030.1,339.9 1031.1,274.0 1032.1,174.4 1033.1,287.1 1034.1,356.8 1035.1,323.6 1036.1,200.5 1037.1,273.5 1038.1,242.4 1039.1,354.6 1040.1,384.6 1041.1,289.8 1042.1,289.8 1043.1,213.6 1044.1,330.7 1045.1,507.1 1046.1,416.2 1047.1,171.6 1048.1,246.8 1049.1,353.6 1050.1,455.9 1051.1,345.4 1052.0,201.6 1053.0,426.0 1054.0,378.6 1055.0,460.3 1056.0,431.4 1057.0,335.0 1058.0,462.5 1059.0,373.2 1060.0,425.4 1061.0,358.5 1062.0,250.6 1063.0,328.5 1064.0,338.8 1065.0,441.8 1066.0,379.2 1067.0,221.8 1068.0,383.0"/>
    <circle cx="74.0" cy="238.1" r="5" fill="#16a34a"><title>Accepted epoch 3, diff 26</title></circle>
    <circle cx="77.0" cy="141.7" r="5" fill="#16a34a"><title>Accepted epoch 6, diff 203</title></circle>
    <circle cx="83.0" cy="161.8" r="5" fill="#16a34a"><title>Accepted epoch 12, diff 166</title></circle>
    <circle cx="87.0" cy="218.5" r="5" fill="#16a34a"><title>Accepted epoch 16, diff 62</title></circle>
    <circle cx="93.9" cy="222.3" r="5" fill="#16a34a"><title>Accepted epoch 23, diff 55</title></circle>
    <circle cx="104.9" cy="197.8" r="5" fill="#16a34a"><title>Accepted epoch 34, diff 100</title></circle>
    <circle cx="107.9" cy="251.7" r="5" fill="#16a34a"><title>Accepted epoch 37, diff 1</title></circle>
    <circle cx="120.9" cy="196.7" r="5" fill="#16a34a"><title>Accepted epoch 50, diff 102</title></circle>
    <circle cx="121.8" cy="240.8" r="5" fill="#16a34a"><title>Accepted epoch 51, diff 21</title></circle>
    <circle cx="130.8" cy="220.1" r="5" fill="#16a34a"><title>Accepted epoch 60, diff 59</title></circle>
    <circle cx="131.8" cy="247.9" r="5" fill="#16a34a"><title>Accepted epoch 61, diff 8</title></circle>
    <circle cx="133.8" cy="202.7" r="5" fill="#16a34a"><title>Accepted epoch 63, diff 91</title></circle>
    <circle cx="135.8" cy="211.4" r="5" fill="#16a34a"><title>Accepted epoch 65, diff 75</title></circle>
    <circle cx="137.8" cy="166.2" r="5" fill="#16a34a"><title>Accepted epoch 67, diff 158</title></circle>
    <circle cx="141.8" cy="217.9" r="5" fill="#16a34a"><title>Accepted epoch 71, diff 63</title></circle>
    <circle cx="147.8" cy="247.3" r="5" fill="#16a34a"><title>Accepted epoch 77, diff 9</title></circle>
    <circle cx="154.8" cy="249.5" r="5" fill="#16a34a"><title>Accepted epoch 84, diff 5</title></circle>
    <circle cx="165.7" cy="196.2" r="5" fill="#16a34a"><title>Accepted epoch 95, diff 103</title></circle>
    <circle cx="168.7" cy="217.9" r="5" fill="#16a34a"><title>Accepted epoch 98, diff 63</title></circle>
    <circle cx="170.7" cy="187.4" r="5" fill="#16a34a"><title>Accepted epoch 100, diff 119</title></circle>
    <circle cx="172.7" cy="192.9" r="5" fill="#16a34a"><title>Accepted epoch 102, diff 109</title></circle>
    <circle cx="177.7" cy="234.8" r="5" fill="#16a34a"><title>Accepted epoch 107, diff 32</title></circle>
    <circle cx="187.7" cy="219.6" r="5" fill="#16a34a"><title>Accepted epoch 117, diff 60</title></circle>
    <circle cx="189.6" cy="243.5" r="5" fill="#16a34a"><title>Accepted epoch 119, diff 16</title></circle>
    <circle cx="198.6" cy="222.3" r="5" fill="#16a34a"><title>Accepted epoch 128, diff 55</title></circle>
    <circle cx="199.6" cy="152.0" r="5" fill="#16a34a"><title>Accepted epoch 129, diff 184</title></circle>
    <circle cx="203.6" cy="178.2" r="5" fill="#16a34a"><title>Accepted epoch 133, diff 136</title></circle>
    <circle cx="215.6" cy="174.9" r="5" fill="#16a34a"><title>Accepted epoch 145, diff 142</title></circle>
    <circle cx="232.5" cy="244.1" r="5" fill="#16a34a"><title>Accepted epoch 162, diff 15</title></circle>
    <circle cx="235.5" cy="246.3" r="5" fill="#16a34a"><title>Accepted epoch 165, diff 11</title></circle>
    <circle cx="238.5" cy="173.3" r="5" fill="#16a34a"><title>Accepted epoch 168, diff 145</title></circle>
    <circle cx="240.5" cy="248.4" r="5" fill="#16a34a"><title>Accepted epoch 170, diff 7</title></circle>
    <circle cx="243.5" cy="232.1" r="5" fill="#16a34a"><title>Accepted epoch 173, diff 37</title></circle>
    <circle cx="251.5" cy="228.8" r="5" fill="#16a34a"><title>Accepted epoch 181, diff 43</title></circle>
    <circle cx="257.4" cy="215.2" r="5" fill="#16a34a"><title>Accepted epoch 187, diff 68</title></circle>
    <circle cx="260.4" cy="196.7" r="5" fill="#16a34a"><title>Accepted epoch 190, diff 102</title></circle>
    <circle cx="261.4" cy="215.2" r="5" fill="#16a34a"><title>Accepted epoch 191, diff 68</title></circle>
    <circle cx="266.4" cy="183.1" r="5" fill="#16a34a"><title>Accepted epoch 196, diff 127</title></circle>
    <circle cx="267.4" cy="232.1" r="5" fill="#16a34a"><title>Accepted epoch 197, diff 37</title></circle>
    <circle cx="273.4" cy="223.9" r="5" fill="#16a34a"><title>Accepted epoch 203, diff 52</title></circle>
    <circle cx="275.4" cy="192.9" r="5" fill="#16a34a"><title>Accepted epoch 205, diff 109</title></circle>
    <circle cx="288.3" cy="235.4" r="5" fill="#16a34a"><title>Accepted epoch 218, diff 31</title></circle>
    <circle cx="295.3" cy="245.7" r="5" fill="#16a34a"><title>Accepted epoch 225, diff 12</title></circle>
    <circle cx="298.3" cy="220.1" r="5" fill="#16a34a"><title>Accepted epoch 228, diff 59</title></circle>
    <circle cx="299.3" cy="225.6" r="5" fill="#16a34a"><title>Accepted epoch 229, diff 49</title></circle>
    <circle cx="312.3" cy="148.2" r="5" fill="#16a34a"><title>Accepted epoch 242, diff 191</title></circle>
    <circle cx="326.2" cy="218.5" r="5" fill="#16a34a"><title>Accepted epoch 256, diff 62</title></circle>
    <circle cx="337.2" cy="216.8" r="5" fill="#16a34a"><title>Accepted epoch 267, diff 65</title></circle>
    <circle cx="338.2" cy="243.5" r="5" fill="#16a34a"><title>Accepted epoch 268, diff 16</title></circle>
    <circle cx="347.2" cy="246.8" r="5" fill="#16a34a"><title>Accepted epoch 277, diff 10</title></circle>
    <circle cx="349.2" cy="235.4" r="5" fill="#16a34a"><title>Accepted epoch 279, diff 31</title></circle>
    <circle cx="356.1" cy="245.2" r="5" fill="#16a34a"><title>Accepted epoch 286, diff 13</title></circle>
    <circle cx="359.1" cy="194.0" r="5" fill="#16a34a"><title>Accepted epoch 289, diff 107</title></circle>
    <circle cx="363.1" cy="228.3" r="5" fill="#16a34a"><title>Accepted epoch 293, diff 44</title></circle>
    <circle cx="365.1" cy="178.7" r="5" fill="#16a34a"><title>Accepted epoch 295, diff 135</title></circle>
    <circle cx="368.1" cy="186.9" r="5" fill="#16a34a"><title>Accepted epoch 298, diff 120</title></circle>
    <circle cx="372.1" cy="238.1" r="5" fill="#16a34a"><title>Accepted epoch 302, diff 26</title></circle>
    <circle cx="377.1" cy="245.7" r="5" fill="#16a34a"><title>Accepted epoch 307, diff 12</title></circle>
    <circle cx="385.1" cy="229.4" r="5" fill="#16a34a"><title>Accepted epoch 315, diff 42</title></circle>
    <circle cx="389.0" cy="185.3" r="5" fill="#16a34a"><title>Accepted epoch 319, diff 123</title></circle>
    <circle cx="394.0" cy="208.7" r="5" fill="#16a34a"><title>Accepted epoch 324, diff 80</title></circle>
    <circle cx="396.0" cy="229.4" r="5" fill="#16a34a"><title>Accepted epoch 326, diff 42</title></circle>
    <circle cx="398.0" cy="235.4" r="5" fill="#16a34a"><title>Accepted epoch 328, diff 31</title></circle>
    <circle cx="400.0" cy="228.3" r="5" fill="#16a34a"><title>Accepted epoch 330, diff 44</title></circle>
    <circle cx="411.0" cy="228.3" r="5" fill="#16a34a"><title>Accepted epoch 341, diff 44</title></circle>
    <circle cx="414.0" cy="236.5" r="5" fill="#16a34a"><title>Accepted epoch 344, diff 29</title></circle>
    <circle cx="415.0" cy="175.5" r="5" fill="#16a34a"><title>Accepted epoch 345, diff 141</title></circle>
    <circle cx="418.0" cy="237.0" r="5" fill="#16a34a"><title>Accepted epoch 348, diff 28</title></circle>
    <circle cx="423.9" cy="224.5" r="5" fill="#16a34a"><title>Accepted epoch 354, diff 51</title></circle>
    <circle cx="429.9" cy="247.9" r="5" fill="#16a34a"><title>Accepted epoch 360, diff 8</title></circle>
    <circle cx="435.9" cy="245.2" r="5" fill="#16a34a"><title>Accepted epoch 366, diff 13</title></circle>
    <circle cx="440.9" cy="246.8" r="5" fill="#16a34a"><title>Accepted epoch 371, diff 10</title></circle>
    <circle cx="443.9" cy="193.4" r="5" fill="#16a34a"><title>Accepted epoch 374, diff 108</title></circle>
    <circle cx="448.9" cy="225.0" r="5" fill="#16a34a"><title>Accepted epoch 379, diff 50</title></circle>
    <circle cx="457.8" cy="191.2" r="5" fill="#16a34a"><title>Accepted epoch 388, diff 112</title></circle>
    <circle cx="462.8" cy="238.1" r="5" fill="#16a34a"><title>Accepted epoch 393, diff 26</title></circle>
    <circle cx="465.8" cy="213.6" r="5" fill="#16a34a"><title>Accepted epoch 396, diff 71</title></circle>
    <circle cx="468.8" cy="213.0" r="5" fill="#16a34a"><title>Accepted epoch 399, diff 72</title></circle>
    <circle cx="474.8" cy="136.2" r="5" fill="#16a34a"><title>Accepted epoch 405, diff 213</title></circle>
    <circle cx="480.8" cy="218.5" r="5" fill="#16a34a"><title>Accepted epoch 411, diff 62</title></circle>
    <circle cx="486.8" cy="248.4" r="5" fill="#16a34a"><title>Accepted epoch 417, diff 7</title></circle>
    <circle cx="497.7" cy="227.7" r="5" fill="#16a34a"><title>Accepted epoch 428, diff 45</title></circle>
    <circle cx="504.7" cy="243.0" r="5" fill="#16a34a"><title>Accepted epoch 435, diff 17</title></circle>
    <circle cx="516.7" cy="236.5" r="5" fill="#16a34a"><title>Accepted epoch 447, diff 29</title></circle>
    <circle cx="519.7" cy="223.4" r="5" fill="#16a34a"><title>Accepted epoch 450, diff 53</title></circle>
    <circle cx="523.6" cy="225.0" r="5" fill="#16a34a"><title>Accepted epoch 454, diff 50</title></circle>
    <circle cx="528.6" cy="157.5" r="5" fill="#16a34a"><title>Accepted epoch 459, diff 174</title></circle>
    <circle cx="532.6" cy="233.7" r="5" fill="#16a34a"><title>Accepted epoch 463, diff 34</title></circle>
    <circle cx="542.6" cy="194.0" r="5" fill="#16a34a"><title>Accepted epoch 473, diff 107</title></circle>
    <circle cx="544.6" cy="214.7" r="5" fill="#16a34a"><title>Accepted epoch 475, diff 69</title></circle>
    <circle cx="559.5" cy="249.5" r="5" fill="#16a34a"><title>Accepted epoch 490, diff 5</title></circle>
    <circle cx="561.5" cy="196.7" r="5" fill="#16a34a"><title>Accepted epoch 492, diff 102</title></circle>
    <circle cx="562.5" cy="244.1" r="5" fill="#16a34a"><title>Accepted epoch 493, diff 15</title></circle>
    <circle cx="570.5" cy="192.3" r="5" fill="#16a34a"><title>Accepted epoch 501, diff 110</title></circle>
    <circle cx="574.5" cy="241.4" r="5" fill="#16a34a"><title>Accepted epoch 505, diff 20</title></circle>
    <circle cx="576.5" cy="225.6" r="5" fill="#16a34a"><title>Accepted epoch 507, diff 49</title></circle>
    <circle cx="577.5" cy="246.3" r="5" fill="#16a34a"><title>Accepted epoch 508, diff 11</title></circle>
    <circle cx="579.5" cy="201.6" r="5" fill="#16a34a"><title>Accepted epoch 510, diff 93</title></circle>
    <circle cx="602.4" cy="238.1" r="5" fill="#16a34a"><title>Accepted epoch 533, diff 26</title></circle>
    <circle cx="605.4" cy="242.4" r="5" fill="#16a34a"><title>Accepted epoch 536, diff 18</title></circle>
    <circle cx="609.4" cy="147.1" r="5" fill="#16a34a"><title>Accepted epoch 540, diff 193</title></circle>
    <circle cx="618.4" cy="249.5" r="5" fill="#16a34a"><title>Accepted epoch 549, diff 5</title></circle>
    <circle cx="619.4" cy="251.2" r="5" fill="#16a34a"><title>Accepted epoch 550, diff 2</title></circle>
    <circle cx="625.3" cy="227.7" r="5" fill="#16a34a"><title>Accepted epoch 556, diff 45</title></circle>
    <circle cx="626.3" cy="192.9" r="5" fill="#16a34a"><title>Accepted epoch 557, diff 109</title></circle>
    <circle cx="636.3" cy="195.1" r="5" fill="#16a34a"><title>Accepted epoch 567, diff 105</title></circle>
    <circle cx="637.3" cy="240.3" r="5" fill="#16a34a"><title>Accepted epoch 568, diff 22</title></circle>
    <circle cx="639.3" cy="177.1" r="5" fill="#16a34a"><title>Accepted epoch 570, diff 138</title></circle>
    <circle cx="641.3" cy="226.1" r="5" fill="#16a34a"><title>Accepted epoch 572, diff 48</title></circle>
    <circle cx="642.3" cy="241.9" r="5" fill="#16a34a"><title>Accepted epoch 573, diff 19</title></circle>
    <circle cx="647.3" cy="234.8" r="5" fill="#16a34a"><title>Accepted epoch 578, diff 32</title></circle>
    <circle cx="652.3" cy="131.3" r="5" fill="#16a34a"><title>Accepted epoch 583, diff 222</title></circle>
    <circle cx="655.2" cy="143.3" r="5" fill="#16a34a"><title>Accepted epoch 586, diff 200</title></circle>
    <circle cx="656.2" cy="150.4" r="5" fill="#16a34a"><title>Accepted epoch 587, diff 187</title></circle>
    <circle cx="657.2" cy="208.7" r="5" fill="#16a34a"><title>Accepted epoch 588, diff 80</title></circle>
    <circle cx="658.2" cy="216.8" r="5" fill="#16a34a"><title>Accepted epoch 589, diff 65</title></circle>
    <circle cx="663.2" cy="193.4" r="5" fill="#16a34a"><title>Accepted epoch 594, diff 108</title></circle>
    <circle cx="666.2" cy="199.4" r="5" fill="#16a34a"><title>Accepted epoch 597, diff 97</title></circle>
    <circle cx="672.2" cy="156.9" r="5" fill="#16a34a"><title>Accepted epoch 603, diff 175</title></circle>
    <circle cx="674.2" cy="175.5" r="5" fill="#16a34a"><title>Accepted epoch 605, diff 141</title></circle>
    <circle cx="679.2" cy="228.8" r="5" fill="#16a34a"><title>Accepted epoch 610, diff 43</title></circle>
    <circle cx="683.2" cy="239.7" r="5" fill="#16a34a"><title>Accepted epoch 614, diff 23</title></circle>
    <circle cx="685.2" cy="216.3" r="5" fill="#16a34a"><title>Accepted epoch 616, diff 66</title></circle>
    <circle cx="694.1" cy="233.2" r="5" fill="#16a34a"><title>Accepted epoch 625, diff 35</title></circle>
    <circle cx="699.1" cy="191.2" r="5" fill="#16a34a"><title>Accepted epoch 630, diff 112</title></circle>
    <circle cx="704.1" cy="208.7" r="5" fill="#16a34a"><title>Accepted epoch 635, diff 80</title></circle>
    <circle cx="706.1" cy="186.9" r="5" fill="#16a34a"><title>Accepted epoch 637, diff 120</title></circle>
    <circle cx="710.1" cy="130.8" r="5" fill="#16a34a"><title>Accepted epoch 641, diff 223</title></circle>
    <circle cx="728.0" cy="181.4" r="5" fill="#16a34a"><title>Accepted epoch 659, diff 130</title></circle>
    <circle cx="741.0" cy="238.1" r="5" fill="#16a34a"><title>Accepted epoch 672, diff 26</title></circle>
    <circle cx="746.0" cy="238.1" r="5" fill="#16a34a"><title>Accepted epoch 677, diff 26</title></circle>
    <circle cx="747.0" cy="232.1" r="5" fill="#16a34a"><title>Accepted epoch 678, diff 37</title></circle>
    <circle cx="752.0" cy="243.5" r="5" fill="#16a34a"><title>Accepted epoch 683, diff 16</title></circle>
    <circle cx="753.9" cy="251.7" r="5" fill="#16a34a"><title>Accepted epoch 685, diff 1</title></circle>
    <circle cx="762.9" cy="235.9" r="5" fill="#16a34a"><title>Accepted epoch 694, diff 30</title></circle>
    <circle cx="768.9" cy="235.9" r="5" fill="#16a34a"><title>Accepted epoch 700, diff 30</title></circle>
    <circle cx="769.9" cy="230.5" r="5" fill="#16a34a"><title>Accepted epoch 701, diff 40</title></circle>
    <circle cx="771.9" cy="214.1" r="5" fill="#16a34a"><title>Accepted epoch 703, diff 70</title></circle>
    <circle cx="776.9" cy="160.2" r="5" fill="#16a34a"><title>Accepted epoch 708, diff 169</title></circle>
    <circle cx="778.9" cy="239.2" r="5" fill="#16a34a"><title>Accepted epoch 710, diff 24</title></circle>
    <circle cx="782.9" cy="121.0" r="5" fill="#16a34a"><title>Accepted epoch 714, diff 241</title></circle>
    <circle cx="783.9" cy="188.0" r="5" fill="#16a34a"><title>Accepted epoch 715, diff 118</title></circle>
    <circle cx="784.9" cy="208.7" r="5" fill="#16a34a"><title>Accepted epoch 716, diff 80</title></circle>
    <circle cx="787.8" cy="190.2" r="5" fill="#16a34a"><title>Accepted epoch 719, diff 114</title></circle>
    <circle cx="789.8" cy="225.0" r="5" fill="#16a34a"><title>Accepted epoch 721, diff 50</title></circle>
    <circle cx="791.8" cy="249.0" r="5" fill="#16a34a"><title>Accepted epoch 723, diff 6</title></circle>
    <circle cx="793.8" cy="215.8" r="5" fill="#16a34a"><title>Accepted epoch 725, diff 67</title></circle>
    <circle cx="795.8" cy="210.9" r="5" fill="#16a34a"><title>Accepted epoch 727, diff 76</title></circle>
    <circle cx="797.8" cy="222.3" r="5" fill="#16a34a"><title>Accepted epoch 729, diff 55</title></circle>
    <circle cx="804.8" cy="245.2" r="5" fill="#16a34a"><title>Accepted epoch 736, diff 13</title></circle>
    <circle cx="805.8" cy="203.8" r="5" fill="#16a34a"><title>Accepted epoch 737, diff 89</title></circle>
    <circle cx="806.8" cy="186.3" r="5" fill="#16a34a"><title>Accepted epoch 738, diff 121</title></circle>
    <circle cx="808.8" cy="203.8" r="5" fill="#16a34a"><title>Accepted epoch 740, diff 89</title></circle>
    <circle cx="809.8" cy="219.0" r="5" fill="#16a34a"><title>Accepted epoch 741, diff 61</title></circle>
    <circle cx="818.8" cy="206.0" r="5" fill="#16a34a"><title>Accepted epoch 750, diff 85</title></circle>
    <circle cx="820.7" cy="219.0" r="5" fill="#16a34a"><title>Accepted epoch 752, diff 61</title></circle>
    <circle cx="821.7" cy="128.6" r="5" fill="#16a34a"><title>Accepted epoch 753, diff 227</title></circle>
    <circle cx="831.7" cy="244.6" r="5" fill="#16a34a"><title>Accepted epoch 763, diff 14</title></circle>
    <circle cx="832.7" cy="219.0" r="5" fill="#16a34a"><title>Accepted epoch 764, diff 61</title></circle>
    <circle cx="853.6" cy="211.4" r="5" fill="#16a34a"><title>Accepted epoch 785, diff 75</title></circle>
    <circle cx="854.6" cy="171.1" r="5" fill="#16a34a"><title>Accepted epoch 786, diff 149</title></circle>
    <circle cx="855.6" cy="228.8" r="5" fill="#16a34a"><title>Accepted epoch 787, diff 43</title></circle>
    <circle cx="861.6" cy="241.9" r="5" fill="#16a34a"><title>Accepted epoch 793, diff 19</title></circle>
    <circle cx="870.6" cy="185.8" r="5" fill="#16a34a"><title>Accepted epoch 802, diff 122</title></circle>
    <circle cx="871.6" cy="54.0" r="5" fill="#16a34a"><title>Accepted epoch 803, diff 364</title></circle>
    <circle cx="875.6" cy="240.8" r="5" fill="#16a34a"><title>Accepted epoch 807, diff 21</title></circle>
    <circle cx="883.6" cy="201.1" r="5" fill="#16a34a"><title>Accepted epoch 815, diff 94</title></circle>
    <circle cx="886.5" cy="156.4" r="5" fill="#16a34a"><title>Accepted epoch 818, diff 176</title></circle>
    <circle cx="894.5" cy="248.4" r="5" fill="#16a34a"><title>Accepted epoch 826, diff 7</title></circle>
    <circle cx="896.5" cy="246.8" r="5" fill="#16a34a"><title>Accepted epoch 828, diff 10</title></circle>
    <circle cx="897.5" cy="215.8" r="5" fill="#16a34a"><title>Accepted epoch 829, diff 67</title></circle>
    <circle cx="898.5" cy="213.6" r="5" fill="#16a34a"><title>Accepted epoch 830, diff 71</title></circle>
    <circle cx="900.5" cy="201.1" r="5" fill="#16a34a"><title>Accepted epoch 832, diff 94</title></circle>
    <circle cx="913.5" cy="200.5" r="5" fill="#16a34a"><title>Accepted epoch 845, diff 95</title></circle>
    <circle cx="923.4" cy="220.1" r="5" fill="#16a34a"><title>Accepted epoch 855, diff 59</title></circle>
    <circle cx="944.4" cy="240.8" r="5" fill="#16a34a"><title>Accepted epoch 876, diff 21</title></circle>
    <circle cx="953.3" cy="203.8" r="5" fill="#16a34a"><title>Accepted epoch 885, diff 89</title></circle>
    <circle cx="954.3" cy="220.1" r="5" fill="#16a34a"><title>Accepted epoch 886, diff 59</title></circle>
    <circle cx="959.3" cy="204.3" r="5" fill="#16a34a"><title>Accepted epoch 891, diff 88</title></circle>
    <circle cx="967.3" cy="208.7" r="5" fill="#16a34a"><title>Accepted epoch 899, diff 80</title></circle>
    <circle cx="980.3" cy="218.5" r="5" fill="#16a34a"><title>Accepted epoch 912, diff 62</title></circle>
    <circle cx="993.2" cy="181.4" r="5" fill="#16a34a"><title>Accepted epoch 925, diff 130</title></circle>
    <circle cx="996.2" cy="207.6" r="5" fill="#16a34a"><title>Accepted epoch 928, diff 82</title></circle>
    <circle cx="997.2" cy="234.3" r="5" fill="#16a34a"><title>Accepted epoch 929, diff 33</title></circle>
    <circle cx="1003.2" cy="198.9" r="5" fill="#16a34a"><title>Accepted epoch 935, diff 98</title></circle>
    <circle cx="1005.2" cy="215.2" r="5" fill="#16a34a"><title>Accepted epoch 937, diff 68</title></circle>
    <circle cx="1007.2" cy="85.6" r="5" fill="#16a34a"><title>Accepted epoch 939, diff 306</title></circle>
    <circle cx="1032.1" cy="174.4" r="5" fill="#16a34a"><title>Accepted epoch 964, diff 143</title></circle>
    <circle cx="1036.1" cy="200.5" r="5" fill="#16a34a"><title>Accepted epoch 968, diff 95</title></circle>
    <circle cx="1038.1" cy="242.4" r="5" fill="#16a34a"><title>Accepted epoch 970, diff 18</title></circle>
    <circle cx="1043.1" cy="213.6" r="5" fill="#16a34a"><title>Accepted epoch 975, diff 71</title></circle>
    <circle cx="1047.1" cy="171.6" r="5" fill="#16a34a"><title>Accepted epoch 979, diff 148</title></circle>
    <circle cx="1048.1" cy="246.8" r="5" fill="#16a34a"><title>Accepted epoch 980, diff 10</title></circle>
    <circle cx="1052.0" cy="201.6" r="5" fill="#16a34a"><title>Accepted epoch 984, diff 93</title></circle>
    <circle cx="1062.0" cy="250.6" r="5" fill="#16a34a"><title>Accepted epoch 994, diff 3</title></circle>
    <circle cx="1067.0" cy="221.8" r="5" fill="#16a34a"><title>Accepted epoch 999, diff 56</title></circle>
    <g transform="translate(72, 566.0)" font-size="13" fill="#111827">
      <rect x="0" y="-12" width="14" height="4" fill="#2563eb"/><text x="22" y="-7">Candidate avg goals</text>
      <rect x="190" y="-12" width="14" height="4" fill="#ef4444"/><text x="212" y="-7">Baseline avg goals</text>
      <rect x="378" y="-12" width="14" height="4" fill="#7c3aed"/><text x="400" y="-7">Goal diff</text>
      <circle cx="548" cy="-10" r="5" fill="#16a34a"/><text x="562" y="-7">Accepted improvement</text>
    </g>
  </g>
</svg>
