<?xml version="1.0" encoding="UTF-8"?>
<svg xmlns="http://www.w3.org/2000/svg" width="1100" height="620" viewBox="0 0 1100 620">
  <rect width="100%" height="100%" fill="#ffffff"/>
  <text x="72" y="30" font-family="Arial, sans-serif" font-size="22" font-weight="700" fill="#111827">Training progress</text>
  <text x="1068" y="30" text-anchor="end" font-family="Arial, sans-serif" font-size="13" fill="#4b5563">Final champion epoch: 100</text>
  <g font-family="Arial, sans-serif">
    <line x1="72.0" y1="54.0" x2="72.0" y2="542.0" stroke="#eef2f7" stroke-width="1"/>
    <text x="72.0" y="566.0" text-anchor="middle" font-size="12" fill="#4b5563">1</text>
    <line x1="172.6" y1="54.0" x2="172.6" y2="542.0" stroke="#eef2f7" stroke-width="1"/>
    <text x="172.6" y="566.0" text-anchor="middle" font-size="12" fill="#4b5563">11</text>
    <line x1="273.2" y1="54.0" x2="273.2" y2="542.0" stroke="#eef2f7" stroke-width="1"/>
    <text x="273.2" y="566.0" text-anchor="middle" font-size="12" fill="#4b5563">21</text>
    <line x1="373.8" y1="54.0" x2="373.8" y2="542.0" stroke="#eef2f7" stroke-width="1"/>
    <text x="373.8" y="566.0" text-anchor="middle" font-size="12" fill="#4b5563">31</text>
    <line x1="474.4" y1="54.0" x2="474.4" y2="542.0" stroke="#eef2f7" stroke-width="1"/>
    <text x="474.4" y="566.0" text-anchor="middle" font-size="12" fill="#4b5563">41</text>
    <line x1="575.0" y1="54.0" x2="575.0" y2="542.0" stroke="#eef2f7" stroke-width="1"/>
    <text x="575.0" y="566.0" text-anchor="middle" font-size="12" fill="#4b5563">51</text>
    <line x1="675.6" y1="54.0" x2="675.6" y2="542.0" stroke="#eef2f7" stroke-width="1"/>
    <text x="675.6" y="566.0" text-anchor="middle" font-size="12" fill="#4b5563">61</text>
    <line x1="776.2" y1="54.0" x2="776.2" y2="542.0" stroke="#eef2f7" stroke-width="1"/>
    <text x="776.2" y="566.0" text-anchor="middle" font-size="12" fill="#4b5563">71</text>
    <line x1="876.8" y1="54.0" x2="876.8" y2="542.0" stroke="#eef2f7" stroke-width="1"/>
    <text x="876.8" y="566.0" text-anchor="middle" font-size="12" fill="#4b5563">81</text>
    <line x1="977.5" y1="54.0" x2="977.5" y2="542.0" stroke="#eef2f7" stroke-width="1"/>
    <text x="977.5" y="566.0" text-anchor="middle" font-size="12" fill="#4b5563">91</text>
    <line x1="72.0" y1="542.0" x2="1068.0" y2="542.0" stroke="#d8dee9" stroke-width="1" opacity="0.55"/>
    <text x="60.0" y="546.0" text-anchor="end" font-size="12" fill="#4b5563">-1146.0</text>
    <line x1="72.0" y1="444.4" x2="1068.0" y2="444.4" stroke="#d8dee9" stroke-width="1" opacity="0.55"/>
    <text x="60.0" y="448.4" text-anchor="end" font-size="12" fill="#4b5563">-712.0</text>
    <line x1="72.0" y1="346.8" x2="1068.0" y2="346.8" stroke="#d8dee9" stroke-width="1" opacity="0.55"/>
    <text x="60.0" y="350.8" text-anchor="end" font-size="12" fill="#4b5563">-278.0</text>
    <line x1="72.0" y1="249.2" x2="1068.0" y2="249.2" stroke="#d8dee9" stroke-width="1" opacity="0.55"/>
    <text x="60.0" y="253.2" text-anchor="end" font-size="12" fill="#4b5563">156.0</text>
    <line x1="72.0" y1="151.6" x2="1068.0" y2="151.6" stroke="#d8dee9" stroke-width="1" opacity="0.55"/>
    <text x="60.0" y="155.6" text-anchor="end" font-size="12" fill="#4b5563">590.0</text>
    <line x1="72.0" y1="54.0" x2="1068.0" y2="54.0" stroke="#d8dee9" stroke-width="1" opacity="0.55"/>
    <text x="60.0" y="58.0" text-anchor="end" font-size="12" fill="#4b5563">1024.0</text>
    <line x1="72.0" y1="54.0" x2="72.0" y2="542.0" stroke="#111827" stroke-width="1.4"/>
    <line x1="72.0" y1="542.0" x2="1068.0" y2="542.0" stroke="#111827" stroke-width="1.4"/>
    <text x="570.0" y="596.0" text-anchor="middle" font-size="13" fill="#111827">Epoch</text>
    <text x="20" y="298.0" transform="rotate(-90 20 298.0)" text-anchor="middle" font-size="13" fill="#111827">Goals / goal diff</text>
    <polyline fill="none" stroke="#2563eb" stroke-width="2.4" points="72.0,284.1 82.1,284.1 92.1,284.1 102.2,284.1 112.2,284.1 122.3,284.1 132.4,284.1 142.4,284.1 152.5,284.1 162.5,284.2 172.6,284.1 182.7,284.1 192.7,284.1 202.8,284.1 212.8,284.1 222.9,284.1 233.0,284.1 243.0,284.1 253.1,284.1 263.2,284.1 273.2,284.1 283.3,284.1 293.3,284.1 303.4,284.1 313.5,284.1 323.5,284.1 333.6,284.1 343.6,284.1 353.7,284.1 363.8,284.1 373.8,284.1 383.9,284.1 393.9,284.1 404.0,284.1 414.1,284.1 424.1,284.2 434.2,284.0 444.2,284.0 454.3,284.1 464.4,284.0 474.4,284.0 484.5,284.0 494.5,284.1 504.6,284.0 514.7,284.0 524.7,284.0 534.8,284.0 544.8,284.0 554.9,284.0 565.0,284.1 575.0,284.0 585.1,284.0 595.2,284.0 605.2,284.0 615.3,284.0 625.3,284.1 635.4,284.1 645.5,284.0 655.5,284.2 665.6,284.0 675.6,284.1 685.7,284.2 695.8,284.0 705.8,284.1 715.9,284.1 725.9,284.1 736.0,284.1 746.1,284.1 756.1,284.2 766.2,284.0 776.2,284.0 786.3,284.0 796.4,284.0 806.4,284.0 816.5,284.0 826.5,284.2 836.6,284.0 846.7,284.0 856.7,284.2 866.8,284.0 876.8,284.0 886.9,284.1 897.0,284.0 907.0,284.0 917.1,284.1 927.2,284.0 937.2,284.0 947.3,284.0 957.3,284.0 967.4,284.0 977.5,284.0 987.5,284.2 997.6,284.1 1007.6,284.0 1017.7,284.0 1027.8,284.1 1037.8,284.0 1047.9,284.1 1057.9,284.2 1068.0,284.0"/>
    <polyline fill="none" stroke="#ef4444" stroke-width="2.4" points="72.0,284.1 82.1,284.1 92.1,284.1 102.2,284.1 112.2,284.1 122.3,284.1 132.4,284.1 142.4,284.1 152.5,284.1 162.5,284.0 172.6,284.1 182.7,284.1 192.7,284.1 202.8,284.1 212.8,284.1 222.9,284.1 233.0,284.1 243.0,284.1 253.1,284.1 263.2,284.1 273.2,284.1 283.3,284.1 293.3,284.1 303.4,284.1 313.5,284.1 323.5,284.1 333.6,284.1 343.6,284.1 353.7,284.0 363.8,284.1 373.8,284.1 383.9,284.1 393.9,284.1 404.0,284.1 414.1,284.1 424.1,283.9 434.2,284.1 444.2,284.0 454.3,284.0 464.4,284.0 474.4,284.0 484.5,284.0 494.5,284.0 504.6,284.0 514.7,284.0 524.7,284.0 534.8,284.1 544.8,284.0 554.9,284.0 565.0,284.0 575.0,284.0 585.1,284.0 595.2,284.0 605.2,284.0 615.3,284.0 625.3,284.0 635.4,284.0 645.5,284.0 655.5,284.0 665.6,284.1 675.6,284.0 685.7,284.1 695.8,284.0 705.8,284.0 715.9,284.0 725.9,284.0 736.0,284.0 746.1,284.0 756.1,283.8 766.2,284.0 776.2,284.0 786.3,284.0 796.4,284.0 806.4,284.0 816.5,284.0 826.5,283.7 836.6,284.0 846.7,284.0 856.7,283.9 866.8,284.1 876.8,284.0 886.9,284.0 897.0,284.0 907.0,284.0 917.1,284.0 927.2,284.0 937.2,284.1 947.3,284.0 957.3,284.0 967.4,284.0 977.5,284.0 987.5,284.0 997.6,284.0 1007.6,284.0 1017.7,284.0 1027.8,284.0 1037.8,284.0 1047.9,284.0 1057.9,283.8 1068.0,284.0"/>
    <polyline fill="none" stroke="#7c3aed" stroke-width="2" stroke-dasharray="6 5" points="72.0,178.6 82.1,464.6 92.1,268.5 102.2,157.9 112.2,399.4 122.3,94.9 132.4,340.7 142.4,257.7 152.5,189.4 162.5,298.0 172.6,327.9 182.7,225.8 192.7,124.2 202.8,359.4 212.8,207.6 222.9,227.8 233.0,236.4 243.0,203.1 253.1,371.5 263.2,255.0 273.2,293.1 283.3,238.0 293.3,344.6 303.4,267.2 313.5,246.5 323.5,351.3 333.6,321.2 343.6,447.8 353.7,292.2 363.8,526.5 373.8,278.2 383.9,380.1 393.9,195.0 404.0,425.3 414.1,450.7 424.1,312.2 434.2,261.8 444.2,428.7 454.3,316.7 464.4,267.2 474.4,126.4 484.5,346.6 494.5,309.0 504.6,542.0 514.7,446.2 524.7,183.1 534.8,260.7 544.8,490.5 554.9,286.8 565.0,300.9 575.0,237.3 585.1,187.1 595.2,117.9 605.2,263.1 615.3,426.0 625.3,296.2 635.4,308.8 645.5,461.3 655.5,301.1 665.6,218.6 675.6,390.9 685.7,295.5 695.8,54.7 705.8,371.5 715.9,384.1 725.9,308.8 736.0,455.9 746.1,304.7 756.1,323.6 766.2,375.6 776.2,281.4 786.3,399.4 796.4,376.7 806.4,336.5 816.5,58.9 826.5,327.5 836.6,342.5 846.7,395.8 856.7,314.9 866.8,261.8 876.8,320.0 886.9,296.0 897.0,260.2 907.0,494.5 917.1,293.1 927.2,381.9 937.2,274.2 947.3,409.3 957.3,195.9 967.4,54.0 977.5,269.2 987.5,303.6 997.6,338.9 1007.6,344.1 1017.7,482.4 1027.8,303.2 1037.8,218.6 1047.9,294.2 1057.9,327.0 1068.0,275.3"/>
    <circle cx="72.0" cy="178.6" r="5" fill="#16a34a"><title>Accepted epoch 1, diff 470</title></circle>
    <circle cx="92.1" cy="268.5" r="5" fill="#16a34a"><title>Accepted epoch 3, diff 70</title></circle>
    <circle cx="102.2" cy="157.9" r="5" fill="#16a34a"><title>Accepted epoch 4, diff 562</title></circle>
    <circle cx="122.3" cy="94.9" r="5" fill="#16a34a"><title>Accepted epoch 6, diff 842</title></circle>
    <circle cx="142.4" cy="257.7" r="5" fill="#16a34a"><title>Accepted epoch 8, diff 118</title></circle>
    <circle cx="152.5" cy="189.4" r="5" fill="#16a34a"><title>Accepted epoch 9, diff 422</title></circle>
    <circle cx="182.7" cy="225.8" r="5" fill="#16a34a"><title>Accepted epoch 12, diff 260</title></circle>
    <circle cx="192.7" cy="124.2" r="5" fill="#16a34a"><title>Accepted epoch 13, diff 712</title></circle>
    <circle cx="212.8" cy="207.6" r="5" fill="#16a34a"><title>Accepted epoch 15, diff 341</title></circle>
    <circle cx="222.9" cy="227.8" r="5" fill="#16a34a"><title>Accepted epoch 16, diff 251</title></circle>
    <circle cx="233.0" cy="236.4" r="5" fill="#16a34a"><title>Accepted epoch 17, diff 213</title></circle>
    <circle cx="243.0" cy="203.1" r="5" fill="#16a34a"><title>Accepted epoch 18, diff 361</title></circle>
    <circle cx="263.2" cy="255.0" r="5" fill="#16a34a"><title>Accepted epoch 20, diff 130</title></circle>
    <circle cx="283.3" cy="238.0" r="5" fill="#16a34a"><title>Accepted epoch 22, diff 206</title></circle>
    <circle cx="303.4" cy="267.2" r="5" fill="#16a34a"><title>Accepted epoch 24, diff 76</title></circle>
    <circle cx="313.5" cy="246.5" r="5" fill="#16a34a"><title>Accepted epoch 25, diff 168</title></circle>
    <circle cx="373.8" cy="278.2" r="5" fill="#16a34a"><title>Accepted epoch 31, diff 27</title></circle>
    <circle cx="393.9" cy="195.0" r="5" fill="#16a34a"><title>Accepted epoch 33, diff 397</title></circle>
    <circle cx="434.2" cy="261.8" r="5" fill="#16a34a"><title>Accepted epoch 37, diff 100</title></circle>
    <circle cx="464.4" cy="267.2" r="5" fill="#16a34a"><title>Accepted epoch 40, diff 76</title></circle>
    <circle cx="474.4" cy="126.4" r="5" fill="#16a34a"><title>Accepted epoch 41, diff 702</title></circle>
    <circle cx="524.7" cy="183.1" r="5" fill="#16a34a"><title>Accepted epoch 46, diff 450</title></circle>
    <circle cx="534.8" cy="260.7" r="5" fill="#16a34a"><title>Accepted epoch 47, diff 105</title></circle>
    <circle cx="575.0" cy="237.3" r="5" fill="#16a34a"><title>Accepted epoch 51, diff 209</title></circle>
    <circle cx="585.1" cy="187.1" r="5" fill="#16a34a"><title>Accepted epoch 52, diff 432</title></circle>
    <circle cx="595.2" cy="117.9" r="5" fill="#16a34a"><title>Accepted epoch 53, diff 740</title></circle>
    <circle cx="605.2" cy="263.1" r="5" fill="#16a34a"><title>Accepted epoch 54, diff 94</title></circle>
    <circle cx="665.6" cy="218.6" r="5" fill="#16a34a"><title>Accepted epoch 60, diff 292</title></circle>
    <circle cx="695.8" cy="54.7" r="5" fill="#16a34a"><title>Accepted epoch 63, diff 1021</title></circle>
    <circle cx="776.2" cy="281.4" r="5" fill="#16a34a"><title>Accepted epoch 71, diff 13</title></circle>
    <circle cx="816.5" cy="58.9" r="5" fill="#16a34a"><title>Accepted epoch 75, diff 1002</title></circle>
    <circle cx="866.8" cy="261.8" r="5" fill="#16a34a"><title>Accepted epoch 80, diff 100</title></circle>
    <circle cx="897.0" cy="260.2" r="5" fill="#16a34a"><title>Accepted epoch 83, diff 107</title></circle>
    <circle cx="937.2" cy="274.2" r="5" fill="#16a34a"><title>Accepted epoch 87, diff 45</title></circle>
    <circle cx="957.3" cy="195.9" r="5" fill="#16a34a"><title>Accepted epoch 89, diff 393</title></circle>
    <circle cx="967.4" cy="54.0" r="5" fill="#16a34a"><title>Accepted epoch 90, diff 1024</title></circle>
    <circle cx="977.5" cy="269.2" r="5" fill="#16a34a"><title>Accepted epoch 91, diff 67</title></circle>
    <circle cx="1037.8" cy="218.6" r="5" fill="#16a34a"><title>Accepted epoch 97, diff 292</title></circle>
    <circle cx="1068.0" cy="275.3" r="5" fill="#16a34a"><title>Accepted epoch 100, diff 40</title></circle>
    <g transform="translate(72, 566.0)" font-size="13" fill="#111827">
      <rect x="0" y="-12" width="14" height="4" fill="#2563eb"/><text x="22" y="-7">Candidate avg goals</text>
      <rect x="190" y="-12" width="14" height="4" fill="#ef4444"/><text x="212" y="-7">Baseline avg goals</text>
      <rect x="378" y="-12" width="14" height="4" fill="#7c3aed"/><text x="400" y="-7">Goal diff</text>
      <circle cx="548" cy="-10" r="5" fill="#16a34a"/><text x="562" y="-7">Accepted improvement</text>
    </g>
  </g>
</svg>
