<?xml version="1.0" encoding="UTF-8"?>
<svg xmlns="http://www.w3.org/2000/svg" width="1100" height="620" viewBox="0 0 1100 620">
  <rect width="100%" height="100%" fill="#ffffff"/>
  <text x="72" y="30" font-family="Arial, sans-serif" font-size="22" font-weight="700" fill="#111827">Training progress</text>
  <text x="1068" y="30" text-anchor="end" font-family="Arial, sans-serif" font-size="13" fill="#4b5563">Final champion epoch: 82</text>
  <g font-family="Arial, sans-serif">
    <line x1="72.0" y1="54.0" x2="72.0" y2="542.0" stroke="#eef2f7" stroke-width="1"/>
    <text x="72.0" y="566.0" text-anchor="middle" font-size="12" fill="#4b5563">1</text>
    <line x1="172.6" y1="54.0" x2="172.6" y2="542.0" stroke="#eef2f7" stroke-width="1"/>
    <text x="172.6" y="566.0" text-anchor="middle" font-size="12" fill="#4b5563">11</text>
    <line x1="273.2" y1="54.0" x2="273.2" y2="542.0" stroke="#eef2f7" stroke-width="1"/>
    <text x="273.2" y="566.0" text-anchor="middle" font-size="12" fill="#4b5563">21</text>
    <line x1="373.8" y1="54.0" x2="373.8" y2="542.0" stroke="#eef2f7" stroke-width="1"/>
    <text x="373.8" y="566.0" text-anchor="middle" font-size="12" fill="#4b5563">31</text>
    <line x1="474.4" y1="54.0" x2="474.4" y2="542.0" stroke="#eef2f7" stroke-width="1"/>
    <text x="474.4" y="566.0" text-anchor="middle" font-size="12" fill="#4b5563">41</text>
    <line x1="575.0" y1="54.0" x2="575.0" y2="542.0" stroke="#eef2f7" stroke-width="1"/>
    <text x="575.0" y="566.0" text-anchor="middle" font-size="12" fill="#4b5563">51</text>
    <line x1="675.6" y1="54.0" x2="675.6" y2="542.0" stroke="#eef2f7" stroke-width="1"/>
    <text x="675.6" y="566.0" text-anchor="middle" font-size="12" fill="#4b5563">61</text>
    <line x1="776.2" y1="54.0" x2="776.2" y2="542.0" stroke="#eef2f7" stroke-width="1"/>
    <text x="776.2" y="566.0" text-anchor="middle" font-size="12" fill="#4b5563">71</text>
    <line x1="876.8" y1="54.0" x2="876.8" y2="542.0" stroke="#eef2f7" stroke-width="1"/>
    <text x="876.8" y="566.0" text-anchor="middle" font-size="12" fill="#4b5563">81</text>
    <line x1="977.5" y1="54.0" x2="977.5" y2="542.0" stroke="#eef2f7" stroke-width="1"/>
    <text x="977.5" y="566.0" text-anchor="middle" font-size="12" fill="#4b5563">91</text>
    <line x1="72.0" y1="542.0" x2="1068.0" y2="542.0" stroke="#d8dee9" stroke-width="1" opacity="0.55"/>
    <text x="60.0" y="546.0" text-anchor="end" font-size="12" fill="#4b5563">-5107.0</text>
    <line x1="72.0" y1="444.4" x2="1068.0" y2="444.4" stroke="#d8dee9" stroke-width="1" opacity="0.55"/>
    <text x="60.0" y="448.4" text-anchor="end" font-size="12" fill="#4b5563">-3408.6</text>
    <line x1="72.0" y1="346.8" x2="1068.0" y2="346.8" stroke="#d8dee9" stroke-width="1" opacity="0.55"/>
    <text x="60.0" y="350.8" text-anchor="end" font-size="12" fill="#4b5563">-1710.2</text>
    <line x1="72.0" y1="249.2" x2="1068.0" y2="249.2" stroke="#d8dee9" stroke-width="1" opacity="0.55"/>
    <text x="60.0" y="253.2" text-anchor="end" font-size="12" fill="#4b5563">-11.8</text>
    <line x1="72.0" y1="151.6" x2="1068.0" y2="151.6" stroke="#d8dee9" stroke-width="1" opacity="0.55"/>
    <text x="60.0" y="155.6" text-anchor="end" font-size="12" fill="#4b5563">1686.6</text>
    <line x1="72.0" y1="54.0" x2="1068.0" y2="54.0" stroke="#d8dee9" stroke-width="1" opacity="0.55"/>
    <text x="60.0" y="58.0" text-anchor="end" font-size="12" fill="#4b5563">3385.0</text>
    <line x1="72.0" y1="54.0" x2="72.0" y2="542.0" stroke="#111827" stroke-width="1.4"/>
    <line x1="72.0" y1="542.0" x2="1068.0" y2="542.0" stroke="#111827" stroke-width="1.4"/>
    <text x="570.0" y="596.0" text-anchor="middle" font-size="13" fill="#111827">Epoch</text>
    <text x="20" y="298.0" transform="rotate(-90 20 298.0)" text-anchor="middle" font-size="13" fill="#111827">Goals / goal diff</text>
    <polyline fill="none" stroke="#2563eb" stroke-width="2.4" points="72.0,248.2 82.1,248.2 92.1,248.2 102.2,248.2 112.2,248.3 122.3,248.2 132.4,248.2 142.4,248.2 152.5,248.2 162.5,248.2 172.6,248.2 182.7,248.2 192.7,248.2 202.8,248.4 212.8,248.2 222.9,248.2 233.0,248.2 243.0,248.2 253.1,248.2 263.2,248.2 273.2,248.2 283.3,248.2 293.3,248.2 303.4,248.2 313.5,248.2 323.5,248.2 333.6,248.2 343.6,248.2 353.7,248.2 363.8,248.2 373.8,248.2 383.9,248.2 393.9,248.2 404.0,248.2 414.1,248.2 424.1,248.2 434.2,248.2 444.2,248.2 454.3,248.2 464.4,248.2 474.4,248.2 484.5,248.2 494.5,248.2 504.6,248.2 514.7,248.4 524.7,248.2 534.8,248.4 544.8,248.2 554.9,248.3 565.0,248.2 575.0,248.2 585.1,248.2 595.2,248.2 605.2,248.2 615.3,248.2 625.3,248.2 635.4,248.2 645.5,248.2 655.5,248.2 665.6,248.2 675.6,248.2 685.7,248.2 695.8,248.2 705.8,248.2 715.9,248.2 725.9,248.2 736.0,248.2 746.1,248.2 756.1,248.2 766.2,248.2 776.2,248.2 786.3,248.2 796.4,248.2 806.4,248.3 816.5,248.2 826.5,248.2 836.6,248.2 846.7,248.3 856.7,248.2 866.8,248.2 876.8,248.2 886.9,248.2 897.0,248.2 907.0,248.2 917.1,248.2 927.2,248.4 937.2,248.2 947.3,248.2 957.3,248.2 967.4,248.2 977.5,248.2 987.5,248.2 997.6,248.2 1007.6,248.2 1017.7,248.2 1027.8,248.2 1037.8,248.2 1047.9,248.2 1057.9,248.2 1068.0,248.3"/>
    <polyline fill="none" stroke="#ef4444" stroke-width="2.4" points="72.0,248.2 82.1,248.2 92.1,248.2 102.2,248.2 112.2,248.2 122.3,248.2 132.4,248.2 142.4,248.2 152.5,248.2 162.5,248.2 172.6,248.2 182.7,248.2 192.7,248.2 202.8,248.3 212.8,248.2 222.9,248.2 233.0,248.2 243.0,248.2 253.1,248.2 263.2,248.2 273.2,248.2 283.3,248.2 293.3,248.2 303.4,248.2 313.5,248.2 323.5,248.2 333.6,248.2 343.6,248.2 353.7,248.2 363.8,248.2 373.8,248.2 383.9,248.2 393.9,248.2 404.0,248.2 414.1,248.2 424.1,248.2 434.2,248.2 444.2,248.2 454.3,248.2 464.4,248.2 474.4,248.2 484.5,248.2 494.5,248.2 504.6,248.2 514.7,248.2 524.7,248.2 534.8,248.3 544.8,248.2 554.9,248.2 565.0,248.2 575.0,248.2 585.1,248.2 595.2,248.1 605.2,248.2 615.3,248.2 625.3,248.1 635.4,248.2 645.5,248.2 655.5,248.2 665.6,248.2 675.6,248.2 685.7,248.2 695.8,248.1 705.8,248.2 715.9,248.1 725.9,248.2 736.0,248.2 746.1,248.1 756.1,248.1 766.2,248.2 776.2,248.2 786.3,248.2 796.4,248.1 806.4,248.2 816.5,248.1 826.5,248.2 836.6,248.2 846.7,248.3 856.7,248.2 866.8,248.2 876.8,248.2 886.9,248.2 897.0,248.2 907.0,248.2 917.1,248.2 927.2,248.3 937.2,248.2 947.3,248.2 957.3,248.1 967.4,248.2 977.5,248.2 987.5,248.1 997.6,248.2 1007.6,248.2 1017.7,248.2 1027.8,248.2 1037.8,248.2 1047.9,248.1 1057.9,248.1 1068.0,248.2"/>
    <polyline fill="none" stroke="#7c3aed" stroke-width="2" stroke-dasharray="6 5" points="72.0,279.2 82.1,262.4 92.1,298.3 102.2,117.4 112.2,267.8 122.3,255.0 132.4,242.5 142.4,193.5 152.5,517.4 162.5,283.7 172.6,236.0 182.7,437.5 192.7,54.0 202.8,259.7 212.8,371.2 222.9,220.2 233.0,143.2 243.0,501.9 253.1,351.5 263.2,264.4 273.2,542.0 283.3,238.9 293.3,270.2 303.4,264.6 313.5,238.3 323.5,352.5 333.6,412.4 343.6,515.6 353.7,361.4 363.8,237.9 373.8,300.9 383.9,321.1 393.9,441.4 404.0,261.9 414.1,335.4 424.1,296.3 434.2,200.8 444.2,192.7 454.3,517.5 464.4,237.6 474.4,312.4 484.5,289.4 494.5,508.0 504.6,515.6 514.7,263.2 524.7,485.9 534.8,258.5 544.8,174.8 554.9,257.1 565.0,167.3 575.0,352.6 585.1,233.4 595.2,310.8 605.2,514.8 615.3,374.4 625.3,291.8 635.4,176.7 645.5,355.1 655.5,297.9 665.6,455.2 675.6,335.4 685.7,392.2 695.8,323.8 705.8,338.8 715.9,504.2 725.9,367.4 736.0,226.7 746.1,415.6 756.1,501.7 766.2,493.2 776.2,212.8 786.3,357.8 796.4,362.4 806.4,258.5 816.5,391.3 826.5,310.8 836.6,268.2 846.7,258.5 856.7,422.4 866.8,529.0 876.8,512.6 886.9,228.6 897.0,366.2 907.0,321.2 917.1,407.2 927.2,258.5 937.2,359.8 947.3,263.6 957.3,474.1 967.4,306.2 977.5,274.2 987.5,362.3 997.6,439.4 1007.6,538.6 1017.7,449.5 1027.8,281.9 1037.8,254.2 1047.9,367.4 1057.9,288.4 1068.0,259.2"/>
    <circle cx="102.2" cy="117.4" r="5" fill="#16a34a"><title>Accepted epoch 4, diff 2282</title></circle>
    <circle cx="132.4" cy="242.5" r="5" fill="#16a34a"><title>Accepted epoch 7, diff 105</title></circle>
    <circle cx="142.4" cy="193.5" r="5" fill="#16a34a"><title>Accepted epoch 8, diff 958</title></circle>
    <circle cx="172.6" cy="236.0" r="5" fill="#16a34a"><title>Accepted epoch 11, diff 218</title></circle>
    <circle cx="192.7" cy="54.0" r="5" fill="#16a34a"><title>Accepted epoch 13, diff 3385</title></circle>
    <circle cx="222.9" cy="220.2" r="5" fill="#16a34a"><title>Accepted epoch 16, diff 492</title></circle>
    <circle cx="233.0" cy="143.2" r="5" fill="#16a34a"><title>Accepted epoch 17, diff 1833</title></circle>
    <circle cx="283.3" cy="238.9" r="5" fill="#16a34a"><title>Accepted epoch 22, diff 168</title></circle>
    <circle cx="313.5" cy="238.3" r="5" fill="#16a34a"><title>Accepted epoch 25, diff 178</title></circle>
    <circle cx="363.8" cy="237.9" r="5" fill="#16a34a"><title>Accepted epoch 30, diff 185</title></circle>
    <circle cx="434.2" cy="200.8" r="5" fill="#16a34a"><title>Accepted epoch 37, diff 830</title></circle>
    <circle cx="444.2" cy="192.7" r="5" fill="#16a34a"><title>Accepted epoch 38, diff 972</title></circle>
    <circle cx="464.4" cy="237.6" r="5" fill="#16a34a"><title>Accepted epoch 40, diff 190</title></circle>
    <circle cx="544.8" cy="174.8" r="5" fill="#16a34a"><title>Accepted epoch 48, diff 1283</title></circle>
    <circle cx="565.0" cy="167.3" r="5" fill="#16a34a"><title>Accepted epoch 50, diff 1413</title></circle>
    <circle cx="585.1" cy="233.4" r="5" fill="#16a34a"><title>Accepted epoch 52, diff 263</title></circle>
    <circle cx="635.4" cy="176.7" r="5" fill="#16a34a"><title>Accepted epoch 57, diff 1250</title></circle>
    <circle cx="736.0" cy="226.7" r="5" fill="#16a34a"><title>Accepted epoch 67, diff 379</title></circle>
    <circle cx="776.2" cy="212.8" r="5" fill="#16a34a"><title>Accepted epoch 71, diff 621</title></circle>
    <circle cx="886.9" cy="228.6" r="5" fill="#16a34a"><title>Accepted epoch 82, diff 347</title></circle>
    <g transform="translate(72, 566.0)" font-size="13" fill="#111827">
      <rect x="0" y="-12" width="14" height="4" fill="#2563eb"/><text x="22" y="-7">Candidate avg goals</text>
      <rect x="190" y="-12" width="14" height="4" fill="#ef4444"/><text x="212" y="-7">Baseline avg goals</text>
      <rect x="378" y="-12" width="14" height="4" fill="#7c3aed"/><text x="400" y="-7">Goal diff</text>
      <circle cx="548" cy="-10" r="5" fill="#16a34a"/><text x="562" y="-7">Accepted improvement</text>
    </g>
  </g>
</svg>
