<?xml version="1.0" encoding="UTF-8"?>
<svg xmlns="http://www.w3.org/2000/svg" width="1100" height="620" viewBox="0 0 1100 620">
  <rect width="100%" height="100%" fill="#ffffff"/>
  <text x="72" y="30" font-family="Arial, sans-serif" font-size="22" font-weight="700" fill="#111827">Training progress</text>
  <text x="1068" y="30" text-anchor="end" font-family="Arial, sans-serif" font-size="13" fill="#4b5563">Final champion epoch: 99</text>
  <g font-family="Arial, sans-serif">
    <line x1="72.0" y1="54.0" x2="72.0" y2="542.0" stroke="#eef2f7" stroke-width="1"/>
    <text x="72.0" y="566.0" text-anchor="middle" font-size="12" fill="#4b5563">1</text>
    <line x1="172.6" y1="54.0" x2="172.6" y2="542.0" stroke="#eef2f7" stroke-width="1"/>
    <text x="172.6" y="566.0" text-anchor="middle" font-size="12" fill="#4b5563">11</text>
    <line x1="273.2" y1="54.0" x2="273.2" y2="542.0" stroke="#eef2f7" stroke-width="1"/>
    <text x="273.2" y="566.0" text-anchor="middle" font-size="12" fill="#4b5563">21</text>
    <line x1="373.8" y1="54.0" x2="373.8" y2="542.0" stroke="#eef2f7" stroke-width="1"/>
    <text x="373.8" y="566.0" text-anchor="middle" font-size="12" fill="#4b5563">31</text>
    <line x1="474.4" y1="54.0" x2="474.4" y2="542.0" stroke="#eef2f7" stroke-width="1"/>
    <text x="474.4" y="566.0" text-anchor="middle" font-size="12" fill="#4b5563">41</text>
    <line x1="575.0" y1="54.0" x2="575.0" y2="542.0" stroke="#eef2f7" stroke-width="1"/>
    <text x="575.0" y="566.0" text-anchor="middle" font-size="12" fill="#4b5563">51</text>
    <line x1="675.6" y1="54.0" x2="675.6" y2="542.0" stroke="#eef2f7" stroke-width="1"/>
    <text x="675.6" y="566.0" text-anchor="middle" font-size="12" fill="#4b5563">61</text>
    <line x1="776.2" y1="54.0" x2="776.2" y2="542.0" stroke="#eef2f7" stroke-width="1"/>
    <text x="776.2" y="566.0" text-anchor="middle" font-size="12" fill="#4b5563">71</text>
    <line x1="876.8" y1="54.0" x2="876.8" y2="542.0" stroke="#eef2f7" stroke-width="1"/>
    <text x="876.8" y="566.0" text-anchor="middle" font-size="12" fill="#4b5563">81</text>
    <line x1="977.5" y1="54.0" x2="977.5" y2="542.0" stroke="#eef2f7" stroke-width="1"/>
    <text x="977.5" y="566.0" text-anchor="middle" font-size="12" fill="#4b5563">91</text>
    <line x1="72.0" y1="542.0" x2="1068.0" y2="542.0" stroke="#d8dee9" stroke-width="1" opacity="0.55"/>
    <text x="60.0" y="546.0" text-anchor="end" font-size="12" fill="#4b5563">-1440.0</text>
    <line x1="72.0" y1="444.4" x2="1068.0" y2="444.4" stroke="#d8dee9" stroke-width="1" opacity="0.55"/>
    <text x="60.0" y="448.4" text-anchor="end" font-size="12" fill="#4b5563">-592.2</text>
    <line x1="72.0" y1="346.8" x2="1068.0" y2="346.8" stroke="#d8dee9" stroke-width="1" opacity="0.55"/>
    <text x="60.0" y="350.8" text-anchor="end" font-size="12" fill="#4b5563">255.6</text>
    <line x1="72.0" y1="249.2" x2="1068.0" y2="249.2" stroke="#d8dee9" stroke-width="1" opacity="0.55"/>
    <text x="60.0" y="253.2" text-anchor="end" font-size="12" fill="#4b5563">1103.4</text>
    <line x1="72.0" y1="151.6" x2="1068.0" y2="151.6" stroke="#d8dee9" stroke-width="1" opacity="0.55"/>
    <text x="60.0" y="155.6" text-anchor="end" font-size="12" fill="#4b5563">1951.2</text>
    <line x1="72.0" y1="54.0" x2="1068.0" y2="54.0" stroke="#d8dee9" stroke-width="1" opacity="0.55"/>
    <text x="60.0" y="58.0" text-anchor="end" font-size="12" fill="#4b5563">2799.0</text>
    <line x1="72.0" y1="54.0" x2="72.0" y2="542.0" stroke="#111827" stroke-width="1.4"/>
    <line x1="72.0" y1="542.0" x2="1068.0" y2="542.0" stroke="#111827" stroke-width="1.4"/>
    <text x="570.0" y="596.0" text-anchor="middle" font-size="13" fill="#111827">Epoch</text>
    <text x="20" y="298.0" transform="rotate(-90 20 298.0)" text-anchor="middle" font-size="13" fill="#111827">Goals / goal diff</text>
    <polyline fill="none" stroke="#2563eb" stroke-width="2.4" points="72.0,375.9 82.1,375.9 92.1,375.8 102.2,375.8 112.2,375.8 122.3,375.8 132.4,376.1 142.4,375.9 152.5,376.0 162.5,375.9 172.6,375.9 182.7,375.8 192.7,375.4 202.8,375.7 212.8,375.9 222.9,375.5 233.0,375.6 243.0,375.7 253.1,375.4 263.2,375.5 273.2,376.2 283.3,375.9 293.3,376.2 303.4,375.9 313.5,375.7 323.5,375.8 333.6,375.3 343.6,375.5 353.7,375.7 363.8,375.4 373.8,375.7 383.9,375.4 393.9,375.9 404.0,375.7 414.1,375.7 424.1,375.7 434.2,375.7 444.2,375.7 454.3,376.1 464.4,375.9 474.4,375.9 484.5,375.7 494.5,376.2 504.6,375.8 514.7,375.8 524.7,375.7 534.8,375.8 544.8,375.8 554.9,375.7 565.0,376.1 575.0,375.8 585.1,375.8 595.2,375.7 605.2,376.2 615.3,375.8 625.3,376.1 635.4,375.8 645.5,375.7 655.5,375.9 665.6,375.7 675.6,375.9 685.7,376.0 695.8,375.8 705.8,375.8 715.9,376.0 725.9,375.7 736.0,376.0 746.1,375.8 756.1,375.9 766.2,376.2 776.2,375.8 786.3,375.9 796.4,375.7 806.4,375.8 816.5,376.0 826.5,375.9 836.6,376.0 846.7,375.8 856.7,375.9 866.8,375.9 876.8,375.7 886.9,375.8 897.0,375.9 907.0,375.7 917.1,376.2 927.2,375.9 937.2,375.8 947.3,375.8 957.3,375.9 967.4,375.5 977.5,375.2 987.5,375.6 997.6,375.7 1007.6,375.9 1017.7,375.9 1027.8,375.8 1037.8,375.9 1047.9,375.9 1057.9,375.9 1068.0,376.0"/>
    <polyline fill="none" stroke="#ef4444" stroke-width="2.4" points="72.0,375.9 82.1,375.9 92.1,376.0 102.2,375.9 112.2,375.8 122.3,375.9 132.4,375.3 142.4,375.9 152.5,376.0 162.5,376.0 172.6,375.7 182.7,375.8 192.7,376.0 202.8,375.8 212.8,375.6 222.9,375.8 233.0,375.1 243.0,375.6 253.1,375.8 263.2,375.5 273.2,375.0 283.3,375.4 293.3,375.2 303.4,375.1 313.5,375.7 323.5,375.2 333.6,375.9 343.6,375.6 353.7,375.3 363.8,375.5 373.8,375.3 383.9,375.8 393.9,375.8 404.0,375.3 414.1,375.7 424.1,375.2 434.2,375.7 444.2,375.7 454.3,375.2 464.4,375.3 474.4,375.4 484.5,375.7 494.5,375.5 504.6,375.7 514.7,375.7 524.7,375.7 534.8,375.6 544.8,375.5 554.9,375.7 565.0,375.6 575.0,375.7 585.1,375.3 595.2,375.6 605.2,375.5 615.3,375.7 625.3,374.5 635.4,375.6 645.5,375.7 655.5,375.4 665.6,375.8 675.6,375.6 685.7,375.5 695.8,375.7 705.8,375.7 715.9,375.7 725.9,375.7 736.0,374.8 746.1,375.6 756.1,375.2 766.2,374.8 776.2,375.7 786.3,375.7 796.4,375.7 806.4,375.8 816.5,375.4 826.5,375.7 836.6,375.5 846.7,375.8 856.7,375.8 866.8,375.6 876.8,375.8 886.9,375.3 897.0,375.5 907.0,375.8 917.1,375.6 927.2,375.5 937.2,375.7 947.3,375.7 957.3,375.2 967.4,375.6 977.5,375.2 987.5,375.9 997.6,375.8 1007.6,375.8 1017.7,375.6 1027.8,375.9 1037.8,375.5 1047.9,375.9 1057.9,376.0 1068.0,376.0"/>
    <polyline fill="none" stroke="#7c3aed" stroke-width="2" stroke-dasharray="6 5" points="72.0,443.7 82.1,431.4 92.1,355.5 102.2,365.6 112.2,411.0 122.3,341.3 132.4,456.1 142.4,358.6 152.5,338.5 162.5,366.6 172.6,388.0 182.7,386.1 192.7,318.2 202.8,297.9 212.8,409.1 222.9,340.0 233.0,425.5 243.0,410.0 253.1,330.9 263.2,261.6 273.2,494.9 283.3,433.3 293.3,472.6 303.4,457.3 313.5,396.9 323.5,439.1 333.6,315.7 343.6,334.0 353.7,418.7 363.8,325.3 373.8,407.9 383.9,345.1 393.9,389.5 404.0,414.4 414.1,336.0 424.1,432.1 434.2,386.2 444.2,311.2 454.3,468.8 464.4,429.6 474.4,421.7 484.5,412.1 494.5,445.9 504.6,387.6 514.7,387.6 524.7,428.8 534.8,391.4 544.8,404.9 554.9,407.9 565.0,420.8 575.0,388.1 585.1,421.4 595.2,387.9 605.2,446.9 615.3,398.7 625.3,542.0 635.4,399.5 645.5,455.2 655.5,425.7 665.6,361.4 675.6,405.4 685.7,425.6 695.8,387.5 705.8,386.4 715.9,404.4 725.9,358.0 736.0,495.5 746.1,401.7 756.1,444.5 766.2,520.2 776.2,388.3 786.3,393.1 796.4,424.5 806.4,337.4 816.5,441.0 826.5,395.9 836.6,423.9 846.7,367.6 856.7,408.5 866.8,401.0 876.8,367.7 886.9,423.5 897.0,419.5 907.0,364.5 917.1,433.4 927.2,414.8 937.2,385.4 947.3,389.1 957.3,447.1 967.4,249.7 977.5,54.0 987.5,345.6 997.6,354.9 1007.6,388.8 1017.7,402.8 1027.8,357.1 1037.8,422.7 1047.9,400.4 1057.9,368.2 1068.0,384.3"/>
    <circle cx="92.1" cy="355.5" r="5" fill="#16a34a"><title>Accepted epoch 3, diff 180</title></circle>
    <circle cx="102.2" cy="365.6" r="5" fill="#16a34a"><title>Accepted epoch 4, diff 92</title></circle>
    <circle cx="122.3" cy="341.3" r="5" fill="#16a34a"><title>Accepted epoch 6, diff 303</title></circle>
    <circle cx="142.4" cy="358.6" r="5" fill="#16a34a"><title>Accepted epoch 8, diff 153</title></circle>
    <circle cx="152.5" cy="338.5" r="5" fill="#16a34a"><title>Accepted epoch 9, diff 328</title></circle>
    <circle cx="162.5" cy="366.6" r="5" fill="#16a34a"><title>Accepted epoch 10, diff 84</title></circle>
    <circle cx="192.7" cy="318.2" r="5" fill="#16a34a"><title>Accepted epoch 13, diff 504</title></circle>
    <circle cx="202.8" cy="297.9" r="5" fill="#16a34a"><title>Accepted epoch 14, diff 680</title></circle>
    <circle cx="222.9" cy="340.0" r="5" fill="#16a34a"><title>Accepted epoch 16, diff 315</title></circle>
    <circle cx="253.1" cy="330.9" r="5" fill="#16a34a"><title>Accepted epoch 19, diff 394</title></circle>
    <circle cx="263.2" cy="261.6" r="5" fill="#16a34a"><title>Accepted epoch 20, diff 996</title></circle>
    <circle cx="333.6" cy="315.7" r="5" fill="#16a34a"><title>Accepted epoch 27, diff 526</title></circle>
    <circle cx="343.6" cy="334.0" r="5" fill="#16a34a"><title>Accepted epoch 28, diff 367</title></circle>
    <circle cx="363.8" cy="325.3" r="5" fill="#16a34a"><title>Accepted epoch 30, diff 442</title></circle>
    <circle cx="383.9" cy="345.1" r="5" fill="#16a34a"><title>Accepted epoch 32, diff 270</title></circle>
    <circle cx="414.1" cy="336.0" r="5" fill="#16a34a"><title>Accepted epoch 35, diff 349</title></circle>
    <circle cx="444.2" cy="311.2" r="5" fill="#16a34a"><title>Accepted epoch 38, diff 565</title></circle>
    <circle cx="665.6" cy="361.4" r="5" fill="#16a34a"><title>Accepted epoch 60, diff 129</title></circle>
    <circle cx="725.9" cy="358.0" r="5" fill="#16a34a"><title>Accepted epoch 66, diff 158</title></circle>
    <circle cx="806.4" cy="337.4" r="5" fill="#16a34a"><title>Accepted epoch 74, diff 337</title></circle>
    <circle cx="846.7" cy="367.6" r="5" fill="#16a34a"><title>Accepted epoch 78, diff 75</title></circle>
    <circle cx="876.8" cy="367.7" r="5" fill="#16a34a"><title>Accepted epoch 81, diff 74</title></circle>
    <circle cx="907.0" cy="364.5" r="5" fill="#16a34a"><title>Accepted epoch 84, diff 102</title></circle>
    <circle cx="967.4" cy="249.7" r="5" fill="#16a34a"><title>Accepted epoch 90, diff 1099</title></circle>
    <circle cx="977.5" cy="54.0" r="5" fill="#16a34a"><title>Accepted epoch 91, diff 2799</title></circle>
    <circle cx="987.5" cy="345.6" r="5" fill="#16a34a"><title>Accepted epoch 92, diff 266</title></circle>
    <circle cx="997.6" cy="354.9" r="5" fill="#16a34a"><title>Accepted epoch 93, diff 185</title></circle>
    <circle cx="1027.8" cy="357.1" r="5" fill="#16a34a"><title>Accepted epoch 96, diff 166</title></circle>
    <circle cx="1057.9" cy="368.2" r="5" fill="#16a34a"><title>Accepted epoch 99, diff 70</title></circle>
    <g transform="translate(72, 566.0)" font-size="13" fill="#111827">
      <rect x="0" y="-12" width="14" height="4" fill="#2563eb"/><text x="22" y="-7">Candidate avg goals</text>
      <rect x="190" y="-12" width="14" height="4" fill="#ef4444"/><text x="212" y="-7">Baseline avg goals</text>
      <rect x="378" y="-12" width="14" height="4" fill="#7c3aed"/><text x="400" y="-7">Goal diff</text>
      <circle cx="548" cy="-10" r="5" fill="#16a34a"/><text x="562" y="-7">Accepted improvement</text>
    </g>
  </g>
</svg>
