<?xml version="1.0" encoding="UTF-8"?>
<svg xmlns="http://www.w3.org/2000/svg" width="1100" height="620" viewBox="0 0 1100 620">
  <rect width="100%" height="100%" fill="#ffffff"/>
  <text x="72" y="30" font-family="Arial, sans-serif" font-size="22" font-weight="700" fill="#111827">Training progress</text>
  <text x="1068" y="30" text-anchor="end" font-family="Arial, sans-serif" font-size="13" fill="#4b5563">Final champion epoch: 100</text>
  <g font-family="Arial, sans-serif">
    <line x1="72.0" y1="54.0" x2="72.0" y2="542.0" stroke="#eef2f7" stroke-width="1"/>
    <text x="72.0" y="566.0" text-anchor="middle" font-size="12" fill="#4b5563">1</text>
    <line x1="172.6" y1="54.0" x2="172.6" y2="542.0" stroke="#eef2f7" stroke-width="1"/>
    <text x="172.6" y="566.0" text-anchor="middle" font-size="12" fill="#4b5563">11</text>
    <line x1="273.2" y1="54.0" x2="273.2" y2="542.0" stroke="#eef2f7" stroke-width="1"/>
    <text x="273.2" y="566.0" text-anchor="middle" font-size="12" fill="#4b5563">21</text>
    <line x1="373.8" y1="54.0" x2="373.8" y2="542.0" stroke="#eef2f7" stroke-width="1"/>
    <text x="373.8" y="566.0" text-anchor="middle" font-size="12" fill="#4b5563">31</text>
    <line x1="474.4" y1="54.0" x2="474.4" y2="542.0" stroke="#eef2f7" stroke-width="1"/>
    <text x="474.4" y="566.0" text-anchor="middle" font-size="12" fill="#4b5563">41</text>
    <line x1="575.0" y1="54.0" x2="575.0" y2="542.0" stroke="#eef2f7" stroke-width="1"/>
    <text x="575.0" y="566.0" text-anchor="middle" font-size="12" fill="#4b5563">51</text>
    <line x1="675.6" y1="54.0" x2="675.6" y2="542.0" stroke="#eef2f7" stroke-width="1"/>
    <text x="675.6" y="566.0" text-anchor="middle" font-size="12" fill="#4b5563">61</text>
    <line x1="776.2" y1="54.0" x2="776.2" y2="542.0" stroke="#eef2f7" stroke-width="1"/>
    <text x="776.2" y="566.0" text-anchor="middle" font-size="12" fill="#4b5563">71</text>
    <line x1="876.8" y1="54.0" x2="876.8" y2="542.0" stroke="#eef2f7" stroke-width="1"/>
    <text x="876.8" y="566.0" text-anchor="middle" font-size="12" fill="#4b5563">81</text>
    <line x1="977.5" y1="54.0" x2="977.5" y2="542.0" stroke="#eef2f7" stroke-width="1"/>
    <text x="977.5" y="566.0" text-anchor="middle" font-size="12" fill="#4b5563">91</text>
    <line x1="72.0" y1="542.0" x2="1068.0" y2="542.0" stroke="#d8dee9" stroke-width="1" opacity="0.55"/>
    <text x="60.0" y="546.0" text-anchor="end" font-size="12" fill="#4b5563">-2715.0</text>
    <line x1="72.0" y1="444.4" x2="1068.0" y2="444.4" stroke="#d8dee9" stroke-width="1" opacity="0.55"/>
    <text x="60.0" y="448.4" text-anchor="end" font-size="12" fill="#4b5563">-1643.2</text>
    <line x1="72.0" y1="346.8" x2="1068.0" y2="346.8" stroke="#d8dee9" stroke-width="1" opacity="0.55"/>
    <text x="60.0" y="350.8" text-anchor="end" font-size="12" fill="#4b5563">-571.4</text>
    <line x1="72.0" y1="249.2" x2="1068.0" y2="249.2" stroke="#d8dee9" stroke-width="1" opacity="0.55"/>
    <text x="60.0" y="253.2" text-anchor="end" font-size="12" fill="#4b5563">500.4</text>
    <line x1="72.0" y1="151.6" x2="1068.0" y2="151.6" stroke="#d8dee9" stroke-width="1" opacity="0.55"/>
    <text x="60.0" y="155.6" text-anchor="end" font-size="12" fill="#4b5563">1572.2</text>
    <line x1="72.0" y1="54.0" x2="1068.0" y2="54.0" stroke="#d8dee9" stroke-width="1" opacity="0.55"/>
    <text x="60.0" y="58.0" text-anchor="end" font-size="12" fill="#4b5563">2644.0</text>
    <line x1="72.0" y1="54.0" x2="72.0" y2="542.0" stroke="#111827" stroke-width="1.4"/>
    <line x1="72.0" y1="542.0" x2="1068.0" y2="542.0" stroke="#111827" stroke-width="1.4"/>
    <text x="570.0" y="596.0" text-anchor="middle" font-size="13" fill="#111827">Epoch</text>
    <text x="20" y="298.0" transform="rotate(-90 20 298.0)" text-anchor="middle" font-size="13" fill="#111827">Goals / goal diff</text>
    <polyline fill="none" stroke="#2563eb" stroke-width="2.4" points="72.0,294.5 82.1,294.5 92.1,294.6 102.2,294.5 112.2,294.5 122.3,294.5 132.4,294.5 142.4,294.5 152.5,294.5 162.5,294.5 172.6,294.5 182.7,294.5 192.7,294.5 202.8,294.5 212.8,294.5 222.9,294.5 233.0,294.5 243.0,294.5 253.1,294.5 263.2,294.5 273.2,294.5 283.3,294.5 293.3,294.5 303.4,294.5 313.5,294.5 323.5,294.5 333.6,294.5 343.6,294.5 353.7,294.5 363.8,294.5 373.8,294.5 383.9,294.5 393.9,294.5 404.0,294.5 414.1,294.5 424.1,294.5 434.2,294.5 444.2,294.5 454.3,294.5 464.4,294.6 474.4,294.5 484.5,294.5 494.5,294.6 504.6,294.7 514.7,294.5 524.7,294.5 534.8,294.5 544.8,294.5 554.9,294.5 565.0,294.5 575.0,294.5 585.1,294.5 595.2,294.5 605.2,294.5 615.3,294.5 625.3,294.5 635.4,294.5 645.5,294.5 655.5,294.5 665.6,294.5 675.6,294.5 685.7,294.5 695.8,294.5 705.8,294.7 715.9,294.5 725.9,294.5 736.0,294.5 746.1,294.5 756.1,294.5 766.2,294.5 776.2,294.5 786.3,294.5 796.4,294.5 806.4,294.5 816.5,294.7 826.5,294.5 836.6,294.5 846.7,294.5 856.7,294.5 866.8,294.5 876.8,294.5 886.9,294.5 897.0,294.5 907.0,294.5 917.1,294.5 927.2,294.5 937.2,294.5 947.3,294.5 957.3,294.5 967.4,294.5 977.5,294.5 987.5,294.5 997.6,294.5 1007.6,294.5 1017.7,294.5 1027.8,294.5 1037.8,294.5 1047.9,294.5 1057.9,294.5 1068.0,294.5"/>
    <polyline fill="none" stroke="#ef4444" stroke-width="2.4" points="72.0,294.5 82.1,294.5 92.1,294.5 102.2,294.5 112.2,294.5 122.3,294.5 132.4,294.5 142.4,294.5 152.5,294.5 162.5,294.5 172.6,294.5 182.7,294.5 192.7,294.5 202.8,294.5 212.8,294.5 222.9,294.5 233.0,294.5 243.0,294.5 253.1,294.5 263.2,294.4 273.2,294.5 283.3,294.5 293.3,294.5 303.4,294.5 313.5,294.5 323.5,294.5 333.6,294.5 343.6,294.5 353.7,294.5 363.8,294.5 373.8,294.5 383.9,294.5 393.9,294.5 404.0,294.5 414.1,294.5 424.1,294.5 434.2,294.5 444.2,294.5 454.3,294.5 464.4,294.4 474.4,294.5 484.5,294.5 494.5,294.5 504.6,294.5 514.7,294.5 524.7,294.5 534.8,294.5 544.8,294.5 554.9,294.5 565.0,294.5 575.0,294.5 585.1,294.5 595.2,294.5 605.2,294.5 615.3,294.5 625.3,294.5 635.4,294.5 645.5,294.5 655.5,294.5 665.6,294.5 675.6,294.5 685.7,294.5 695.8,294.5 705.8,294.5 715.9,294.5 725.9,294.5 736.0,294.5 746.1,294.5 756.1,294.5 766.2,294.5 776.2,294.5 786.3,294.5 796.4,294.5 806.4,294.5 816.5,294.4 826.5,294.5 836.6,294.5 846.7,294.5 856.7,294.5 866.8,294.5 876.8,294.5 886.9,294.5 897.0,294.5 907.0,294.5 917.1,294.5 927.2,294.5 937.2,294.5 947.3,294.5 957.3,294.5 967.4,294.5 977.5,294.5 987.5,294.5 997.6,294.5 1007.6,294.5 1017.7,294.5 1027.8,294.5 1037.8,294.5 1047.9,294.5 1057.9,294.5 1068.0,294.5"/>
    <polyline fill="none" stroke="#7c3aed" stroke-width="2" stroke-dasharray="6 5" points="72.0,208.3 82.1,124.9 92.1,305.6 102.2,464.1 112.2,304.4 122.3,459.1 132.4,361.0 142.4,268.7 152.5,323.7 162.5,219.5 172.6,535.7 182.7,295.0 192.7,422.2 202.8,298.9 212.8,129.3 222.9,519.6 233.0,337.6 243.0,361.9 253.1,238.5 263.2,307.9 273.2,207.8 283.3,337.7 293.3,169.2 303.4,265.7 313.5,402.6 323.5,124.3 333.6,323.7 343.6,400.0 353.7,294.1 363.8,271.9 373.8,392.4 383.9,542.0 393.9,426.0 404.0,288.9 414.1,328.1 424.1,274.2 434.2,311.2 444.2,264.0 454.3,265.7 464.4,314.4 474.4,417.0 484.5,397.2 494.5,301.3 504.6,305.9 514.7,413.8 524.7,183.2 534.8,443.1 544.8,392.8 554.9,451.0 565.0,54.0 575.0,321.7 585.1,263.2 595.2,420.9 605.2,383.2 615.3,235.6 625.3,339.7 635.4,384.4 645.5,466.8 655.5,344.0 665.6,357.1 675.6,352.8 685.7,356.0 695.8,130.7 705.8,316.7 715.9,340.0 725.9,419.5 736.0,205.1 746.1,302.3 756.1,279.7 766.2,453.9 776.2,108.0 786.3,387.6 796.4,353.1 806.4,393.7 816.5,318.0 826.5,313.9 836.6,185.0 846.7,455.5 856.7,336.2 866.8,253.5 876.8,323.5 886.9,149.4 897.0,202.2 907.0,387.0 917.1,491.3 927.2,195.2 937.2,355.4 947.3,340.8 957.3,329.1 967.4,319.5 977.5,159.8 987.5,242.1 997.6,476.1 1007.6,300.9 1017.7,312.2 1027.8,233.0 1037.8,419.8 1047.9,525.9 1057.9,202.2 1068.0,238.4"/>
    <circle cx="72.0" cy="208.3" r="5" fill="#16a34a"><title>Accepted epoch 1, diff 949</title></circle>
    <circle cx="82.1" cy="124.9" r="5" fill="#16a34a"><title>Accepted epoch 2, diff 1865</title></circle>
    <circle cx="142.4" cy="268.7" r="5" fill="#16a34a"><title>Accepted epoch 8, diff 286</title></circle>
    <circle cx="162.5" cy="219.5" r="5" fill="#16a34a"><title>Accepted epoch 10, diff 827</title></circle>
    <circle cx="212.8" cy="129.3" r="5" fill="#16a34a"><title>Accepted epoch 15, diff 1817</title></circle>
    <circle cx="253.1" cy="238.5" r="5" fill="#16a34a"><title>Accepted epoch 19, diff 618</title></circle>
    <circle cx="273.2" cy="207.8" r="5" fill="#16a34a"><title>Accepted epoch 21, diff 955</title></circle>
    <circle cx="293.3" cy="169.2" r="5" fill="#16a34a"><title>Accepted epoch 23, diff 1379</title></circle>
    <circle cx="303.4" cy="265.7" r="5" fill="#16a34a"><title>Accepted epoch 24, diff 319</title></circle>
    <circle cx="323.5" cy="124.3" r="5" fill="#16a34a"><title>Accepted epoch 26, diff 1872</title></circle>
    <circle cx="353.7" cy="294.1" r="5" fill="#16a34a"><title>Accepted epoch 29, diff 7</title></circle>
    <circle cx="363.8" cy="271.9" r="5" fill="#16a34a"><title>Accepted epoch 30, diff 251</title></circle>
    <circle cx="404.0" cy="288.9" r="5" fill="#16a34a"><title>Accepted epoch 34, diff 64</title></circle>
    <circle cx="424.1" cy="274.2" r="5" fill="#16a34a"><title>Accepted epoch 36, diff 226</title></circle>
    <circle cx="444.2" cy="264.0" r="5" fill="#16a34a"><title>Accepted epoch 38, diff 338</title></circle>
    <circle cx="454.3" cy="265.7" r="5" fill="#16a34a"><title>Accepted epoch 39, diff 319</title></circle>
    <circle cx="524.7" cy="183.2" r="5" fill="#16a34a"><title>Accepted epoch 46, diff 1225</title></circle>
    <circle cx="565.0" cy="54.0" r="5" fill="#16a34a"><title>Accepted epoch 50, diff 2644</title></circle>
    <circle cx="585.1" cy="263.2" r="5" fill="#16a34a"><title>Accepted epoch 52, diff 347</title></circle>
    <circle cx="615.3" cy="235.6" r="5" fill="#16a34a"><title>Accepted epoch 55, diff 650</title></circle>
    <circle cx="695.8" cy="130.7" r="5" fill="#16a34a"><title>Accepted epoch 63, diff 1802</title></circle>
    <circle cx="736.0" cy="205.1" r="5" fill="#16a34a"><title>Accepted epoch 67, diff 985</title></circle>
    <circle cx="756.1" cy="279.7" r="5" fill="#16a34a"><title>Accepted epoch 69, diff 165</title></circle>
    <circle cx="776.2" cy="108.0" r="5" fill="#16a34a"><title>Accepted epoch 71, diff 2051</title></circle>
    <circle cx="836.6" cy="185.0" r="5" fill="#16a34a"><title>Accepted epoch 77, diff 1205</title></circle>
    <circle cx="866.8" cy="253.5" r="5" fill="#16a34a"><title>Accepted epoch 80, diff 453</title></circle>
    <circle cx="886.9" cy="149.4" r="5" fill="#16a34a"><title>Accepted epoch 82, diff 1596</title></circle>
    <circle cx="897.0" cy="202.2" r="5" fill="#16a34a"><title>Accepted epoch 83, diff 1016</title></circle>
    <circle cx="927.2" cy="195.2" r="5" fill="#16a34a"><title>Accepted epoch 86, diff 1093</title></circle>
    <circle cx="977.5" cy="159.8" r="5" fill="#16a34a"><title>Accepted epoch 91, diff 1482</title></circle>
    <circle cx="987.5" cy="242.1" r="5" fill="#16a34a"><title>Accepted epoch 92, diff 578</title></circle>
    <circle cx="1027.8" cy="233.0" r="5" fill="#16a34a"><title>Accepted epoch 96, diff 678</title></circle>
    <circle cx="1057.9" cy="202.2" r="5" fill="#16a34a"><title>Accepted epoch 99, diff 1016</title></circle>
    <circle cx="1068.0" cy="238.4" r="5" fill="#16a34a"><title>Accepted epoch 100, diff 619</title></circle>
    <g transform="translate(72, 566.0)" font-size="13" fill="#111827">
      <rect x="0" y="-12" width="14" height="4" fill="#2563eb"/><text x="22" y="-7">Candidate avg goals</text>
      <rect x="190" y="-12" width="14" height="4" fill="#ef4444"/><text x="212" y="-7">Baseline avg goals</text>
      <rect x="378" y="-12" width="14" height="4" fill="#7c3aed"/><text x="400" y="-7">Goal diff</text>
      <circle cx="548" cy="-10" r="5" fill="#16a34a"/><text x="562" y="-7">Accepted improvement</text>
    </g>
  </g>
</svg>
