<?xml version="1.0" encoding="UTF-8"?>
<svg xmlns="http://www.w3.org/2000/svg" width="1100" height="620" viewBox="0 0 1100 620">
  <rect width="100%" height="100%" fill="#ffffff"/>
  <text x="72" y="30" font-family="Arial, sans-serif" font-size="22" font-weight="700" fill="#111827">Training progress</text>
  <text x="1068" y="30" text-anchor="end" font-family="Arial, sans-serif" font-size="13" fill="#4b5563">Final champion epoch: 99</text>
  <g font-family="Arial, sans-serif">
    <line x1="72.0" y1="54.0" x2="72.0" y2="542.0" stroke="#eef2f7" stroke-width="1"/>
    <text x="72.0" y="566.0" text-anchor="middle" font-size="12" fill="#4b5563">1</text>
    <line x1="172.6" y1="54.0" x2="172.6" y2="542.0" stroke="#eef2f7" stroke-width="1"/>
    <text x="172.6" y="566.0" text-anchor="middle" font-size="12" fill="#4b5563">11</text>
    <line x1="273.2" y1="54.0" x2="273.2" y2="542.0" stroke="#eef2f7" stroke-width="1"/>
    <text x="273.2" y="566.0" text-anchor="middle" font-size="12" fill="#4b5563">21</text>
    <line x1="373.8" y1="54.0" x2="373.8" y2="542.0" stroke="#eef2f7" stroke-width="1"/>
    <text x="373.8" y="566.0" text-anchor="middle" font-size="12" fill="#4b5563">31</text>
    <line x1="474.4" y1="54.0" x2="474.4" y2="542.0" stroke="#eef2f7" stroke-width="1"/>
    <text x="474.4" y="566.0" text-anchor="middle" font-size="12" fill="#4b5563">41</text>
    <line x1="575.0" y1="54.0" x2="575.0" y2="542.0" stroke="#eef2f7" stroke-width="1"/>
    <text x="575.0" y="566.0" text-anchor="middle" font-size="12" fill="#4b5563">51</text>
    <line x1="675.6" y1="54.0" x2="675.6" y2="542.0" stroke="#eef2f7" stroke-width="1"/>
    <text x="675.6" y="566.0" text-anchor="middle" font-size="12" fill="#4b5563">61</text>
    <line x1="776.2" y1="54.0" x2="776.2" y2="542.0" stroke="#eef2f7" stroke-width="1"/>
    <text x="776.2" y="566.0" text-anchor="middle" font-size="12" fill="#4b5563">71</text>
    <line x1="876.8" y1="54.0" x2="876.8" y2="542.0" stroke="#eef2f7" stroke-width="1"/>
    <text x="876.8" y="566.0" text-anchor="middle" font-size="12" fill="#4b5563">81</text>
    <line x1="977.5" y1="54.0" x2="977.5" y2="542.0" stroke="#eef2f7" stroke-width="1"/>
    <text x="977.5" y="566.0" text-anchor="middle" font-size="12" fill="#4b5563">91</text>
    <line x1="72.0" y1="542.0" x2="1068.0" y2="542.0" stroke="#d8dee9" stroke-width="1" opacity="0.55"/>
    <text x="60.0" y="546.0" text-anchor="end" font-size="12" fill="#4b5563">-1200.0</text>
    <line x1="72.0" y1="444.4" x2="1068.0" y2="444.4" stroke="#d8dee9" stroke-width="1" opacity="0.55"/>
    <text x="60.0" y="448.4" text-anchor="end" font-size="12" fill="#4b5563">-611.2</text>
    <line x1="72.0" y1="346.8" x2="1068.0" y2="346.8" stroke="#d8dee9" stroke-width="1" opacity="0.55"/>
    <text x="60.0" y="350.8" text-anchor="end" font-size="12" fill="#4b5563">-22.4</text>
    <line x1="72.0" y1="249.2" x2="1068.0" y2="249.2" stroke="#d8dee9" stroke-width="1" opacity="0.55"/>
    <text x="60.0" y="253.2" text-anchor="end" font-size="12" fill="#4b5563">566.4</text>
    <line x1="72.0" y1="151.6" x2="1068.0" y2="151.6" stroke="#d8dee9" stroke-width="1" opacity="0.55"/>
    <text x="60.0" y="155.6" text-anchor="end" font-size="12" fill="#4b5563">1155.2</text>
    <line x1="72.0" y1="54.0" x2="1068.0" y2="54.0" stroke="#d8dee9" stroke-width="1" opacity="0.55"/>
    <text x="60.0" y="58.0" text-anchor="end" font-size="12" fill="#4b5563">1744.0</text>
    <line x1="72.0" y1="54.0" x2="72.0" y2="542.0" stroke="#111827" stroke-width="1.4"/>
    <line x1="72.0" y1="542.0" x2="1068.0" y2="542.0" stroke="#111827" stroke-width="1.4"/>
    <text x="570.0" y="596.0" text-anchor="middle" font-size="13" fill="#111827">Epoch</text>
    <text x="20" y="298.0" transform="rotate(-90 20 298.0)" text-anchor="middle" font-size="13" fill="#111827">Goals / goal diff</text>
    <polyline fill="none" stroke="#2563eb" stroke-width="2.4" points="72.0,342.8 82.1,342.8 92.1,342.8 102.2,342.8 112.2,342.8 122.3,342.8 132.4,342.8 142.4,342.8 152.5,342.8 162.5,342.8 172.6,342.8 182.7,342.8 192.7,343.0 202.8,342.8 212.8,342.8 222.9,342.8 233.0,342.8 243.0,342.8 253.1,342.8 263.2,342.8 273.2,342.8 283.3,342.8 293.3,342.8 303.4,342.8 313.5,342.8 323.5,342.9 333.6,342.9 343.6,343.0 353.7,342.9 363.8,342.9 373.8,342.9 383.9,342.9 393.9,342.9 404.0,342.9 414.1,342.9 424.1,342.9 434.2,342.9 444.2,342.9 454.3,342.9 464.4,342.9 474.4,342.9 484.5,342.9 494.5,342.9 504.6,342.9 514.7,342.9 524.7,342.9 534.8,342.9 544.8,342.9 554.9,342.9 565.0,342.9 575.0,342.9 585.1,342.9 595.2,342.9 605.2,342.9 615.3,342.9 625.3,342.9 635.4,342.9 645.5,342.9 655.5,342.9 665.6,342.9 675.6,342.9 685.7,342.8 695.8,342.9 705.8,342.9 715.9,342.9 725.9,342.9 736.0,342.9 746.1,342.8 756.1,342.9 766.2,343.0 776.2,342.9 786.3,342.9 796.4,342.9 806.4,342.9 816.5,342.9 826.5,342.9 836.6,342.9 846.7,342.9 856.7,342.9 866.8,342.9 876.8,342.9 886.9,342.9 897.0,342.9 907.0,342.8 917.1,342.9 927.2,342.9 937.2,342.8 947.3,342.8 957.3,342.8 967.4,342.8 977.5,342.8 987.5,342.8 997.6,342.8 1007.6,342.8 1017.7,342.8 1027.8,342.9 1037.8,342.8 1047.9,342.8 1057.9,342.8 1068.0,342.8"/>
    <polyline fill="none" stroke="#ef4444" stroke-width="2.4" points="72.0,342.8 82.1,342.8 92.1,342.8 102.2,342.8 112.2,342.8 122.3,342.8 132.4,342.8 142.4,342.8 152.5,342.8 162.5,342.8 172.6,342.8 182.7,342.8 192.7,342.7 202.8,342.8 212.8,342.8 222.9,342.8 233.0,342.8 243.0,342.8 253.1,342.8 263.2,342.7 273.2,342.8 283.3,342.8 293.3,342.8 303.4,342.8 313.5,342.9 323.5,342.9 333.6,342.9 343.6,342.9 353.7,342.9 363.8,342.9 373.8,342.9 383.9,342.9 393.9,342.9 404.0,342.9 414.1,342.9 424.1,342.9 434.2,342.9 444.2,342.9 454.3,342.9 464.4,342.8 474.4,342.9 484.5,342.9 494.5,342.9 504.6,342.9 514.7,342.9 524.7,342.9 534.8,342.9 544.8,342.9 554.9,342.9 565.0,342.9 575.0,342.9 585.1,342.9 595.2,342.9 605.2,342.9 615.3,342.9 625.3,342.7 635.4,342.9 645.5,342.9 655.5,342.8 665.6,342.9 675.6,342.9 685.7,342.9 695.8,342.9 705.8,342.9 715.9,342.9 725.9,342.9 736.0,342.9 746.1,342.9 756.1,342.9 766.2,342.6 776.2,342.9 786.3,342.9 796.4,342.9 806.4,342.8 816.5,342.9 826.5,342.7 836.6,342.9 846.7,342.9 856.7,342.9 866.8,342.9 876.8,342.9 886.9,342.9 897.0,342.9 907.0,342.8 917.1,342.9 927.2,342.9 937.2,342.9 947.3,342.8 957.3,342.8 967.4,342.8 977.5,342.8 987.5,342.8 997.6,342.8 1007.6,342.8 1017.7,342.8 1027.8,342.8 1037.8,342.8 1047.9,342.8 1057.9,342.8 1068.0,342.8"/>
    <polyline fill="none" stroke="#7c3aed" stroke-width="2" stroke-dasharray="6 5" points="72.0,230.4 82.1,218.3 92.1,331.8 102.2,242.1 112.2,352.2 122.3,185.0 132.4,330.2 142.4,408.2 152.5,303.3 162.5,300.3 172.6,54.0 182.7,204.3 192.7,369.9 202.8,407.6 212.8,526.9 222.9,290.9 233.0,230.2 243.0,429.3 253.1,339.9 263.2,356.3 273.2,436.9 283.3,90.6 293.3,293.2 303.4,441.2 313.5,333.3 323.5,465.8 333.6,344.9 343.6,352.4 353.7,369.8 363.8,452.7 373.8,452.2 383.9,322.5 393.9,406.4 404.0,362.1 414.1,448.3 424.1,434.1 434.2,318.6 444.2,491.9 454.3,357.7 464.4,353.7 474.4,309.9 484.5,432.8 494.5,349.7 504.6,232.9 514.7,252.9 524.7,425.3 534.8,448.2 544.8,191.9 554.9,495.3 565.0,197.2 575.0,336.8 585.1,169.4 595.2,540.0 605.2,298.5 615.3,324.0 625.3,356.0 635.4,283.4 645.5,411.4 655.5,353.5 665.6,481.3 675.6,293.5 685.7,336.1 695.8,266.7 705.8,420.3 715.9,247.1 725.9,448.8 736.0,325.2 746.1,325.4 756.1,241.1 766.2,374.1 776.2,342.6 786.3,363.8 796.4,356.5 806.4,355.4 816.5,417.3 826.5,360.2 836.6,330.2 846.7,315.1 856.7,390.8 866.8,284.9 876.8,198.7 886.9,333.0 897.0,216.1 907.0,457.5 917.1,542.0 927.2,361.2 937.2,252.9 947.3,382.7 957.3,418.7 967.4,476.2 977.5,278.4 987.5,443.5 997.6,337.8 1007.6,377.9 1017.7,325.2 1027.8,363.3 1037.8,215.5 1047.9,304.0 1057.9,253.9 1068.0,353.0"/>
    <circle cx="72.0" cy="230.4" r="5" fill="#16a34a"><title>Accepted epoch 1, diff 680</title></circle>
    <circle cx="82.1" cy="218.3" r="5" fill="#16a34a"><title>Accepted epoch 2, diff 753</title></circle>
    <circle cx="92.1" cy="331.8" r="5" fill="#16a34a"><title>Accepted epoch 3, diff 68</title></circle>
    <circle cx="102.2" cy="242.1" r="5" fill="#16a34a"><title>Accepted epoch 4, diff 609</title></circle>
    <circle cx="122.3" cy="185.0" r="5" fill="#16a34a"><title>Accepted epoch 6, diff 954</title></circle>
    <circle cx="132.4" cy="330.2" r="5" fill="#16a34a"><title>Accepted epoch 7, diff 78</title></circle>
    <circle cx="152.5" cy="303.3" r="5" fill="#16a34a"><title>Accepted epoch 9, diff 240</title></circle>
    <circle cx="162.5" cy="300.3" r="5" fill="#16a34a"><title>Accepted epoch 10, diff 258</title></circle>
    <circle cx="172.6" cy="54.0" r="5" fill="#16a34a"><title>Accepted epoch 11, diff 1744</title></circle>
    <circle cx="182.7" cy="204.3" r="5" fill="#16a34a"><title>Accepted epoch 12, diff 837</title></circle>
    <circle cx="222.9" cy="290.9" r="5" fill="#16a34a"><title>Accepted epoch 16, diff 315</title></circle>
    <circle cx="233.0" cy="230.2" r="5" fill="#16a34a"><title>Accepted epoch 17, diff 681</title></circle>
    <circle cx="253.1" cy="339.9" r="5" fill="#16a34a"><title>Accepted epoch 19, diff 19</title></circle>
    <circle cx="283.3" cy="90.6" r="5" fill="#16a34a"><title>Accepted epoch 22, diff 1523</title></circle>
    <circle cx="293.3" cy="293.2" r="5" fill="#16a34a"><title>Accepted epoch 23, diff 301</title></circle>
    <circle cx="313.5" cy="333.3" r="5" fill="#16a34a"><title>Accepted epoch 25, diff 59</title></circle>
    <circle cx="383.9" cy="322.5" r="5" fill="#16a34a"><title>Accepted epoch 32, diff 124</title></circle>
    <circle cx="434.2" cy="318.6" r="5" fill="#16a34a"><title>Accepted epoch 37, diff 148</title></circle>
    <circle cx="474.4" cy="309.9" r="5" fill="#16a34a"><title>Accepted epoch 41, diff 200</title></circle>
    <circle cx="504.6" cy="232.9" r="5" fill="#16a34a"><title>Accepted epoch 44, diff 665</title></circle>
    <circle cx="514.7" cy="252.9" r="5" fill="#16a34a"><title>Accepted epoch 45, diff 544</title></circle>
    <circle cx="544.8" cy="191.9" r="5" fill="#16a34a"><title>Accepted epoch 48, diff 912</title></circle>
    <circle cx="565.0" cy="197.2" r="5" fill="#16a34a"><title>Accepted epoch 50, diff 880</title></circle>
    <circle cx="575.0" cy="336.8" r="5" fill="#16a34a"><title>Accepted epoch 51, diff 38</title></circle>
    <circle cx="585.1" cy="169.4" r="5" fill="#16a34a"><title>Accepted epoch 52, diff 1048</title></circle>
    <circle cx="605.2" cy="298.5" r="5" fill="#16a34a"><title>Accepted epoch 54, diff 269</title></circle>
    <circle cx="615.3" cy="324.0" r="5" fill="#16a34a"><title>Accepted epoch 55, diff 115</title></circle>
    <circle cx="635.4" cy="283.4" r="5" fill="#16a34a"><title>Accepted epoch 57, diff 360</title></circle>
    <circle cx="675.6" cy="293.5" r="5" fill="#16a34a"><title>Accepted epoch 61, diff 299</title></circle>
    <circle cx="685.7" cy="336.1" r="5" fill="#16a34a"><title>Accepted epoch 62, diff 42</title></circle>
    <circle cx="695.8" cy="266.7" r="5" fill="#16a34a"><title>Accepted epoch 63, diff 461</title></circle>
    <circle cx="715.9" cy="247.1" r="5" fill="#16a34a"><title>Accepted epoch 65, diff 579</title></circle>
    <circle cx="736.0" cy="325.2" r="5" fill="#16a34a"><title>Accepted epoch 67, diff 108</title></circle>
    <circle cx="746.1" cy="325.4" r="5" fill="#16a34a"><title>Accepted epoch 68, diff 107</title></circle>
    <circle cx="756.1" cy="241.1" r="5" fill="#16a34a"><title>Accepted epoch 69, diff 615</title></circle>
    <circle cx="776.2" cy="342.6" r="5" fill="#16a34a"><title>Accepted epoch 71, diff 3</title></circle>
    <circle cx="836.6" cy="330.2" r="5" fill="#16a34a"><title>Accepted epoch 77, diff 78</title></circle>
    <circle cx="846.7" cy="315.1" r="5" fill="#16a34a"><title>Accepted epoch 78, diff 169</title></circle>
    <circle cx="866.8" cy="284.9" r="5" fill="#16a34a"><title>Accepted epoch 80, diff 351</title></circle>
    <circle cx="876.8" cy="198.7" r="5" fill="#16a34a"><title>Accepted epoch 81, diff 871</title></circle>
    <circle cx="886.9" cy="333.0" r="5" fill="#16a34a"><title>Accepted epoch 82, diff 61</title></circle>
    <circle cx="897.0" cy="216.1" r="5" fill="#16a34a"><title>Accepted epoch 83, diff 766</title></circle>
    <circle cx="937.2" cy="252.9" r="5" fill="#16a34a"><title>Accepted epoch 87, diff 544</title></circle>
    <circle cx="977.5" cy="278.4" r="5" fill="#16a34a"><title>Accepted epoch 91, diff 390</title></circle>
    <circle cx="997.6" cy="337.8" r="5" fill="#16a34a"><title>Accepted epoch 93, diff 32</title></circle>
    <circle cx="1017.7" cy="325.2" r="5" fill="#16a34a"><title>Accepted epoch 95, diff 108</title></circle>
    <circle cx="1037.8" cy="215.5" r="5" fill="#16a34a"><title>Accepted epoch 97, diff 770</title></circle>
    <circle cx="1047.9" cy="304.0" r="5" fill="#16a34a"><title>Accepted epoch 98, diff 236</title></circle>
    <circle cx="1057.9" cy="253.9" r="5" fill="#16a34a"><title>Accepted epoch 99, diff 538</title></circle>
    <g transform="translate(72, 566.0)" font-size="13" fill="#111827">
      <rect x="0" y="-12" width="14" height="4" fill="#2563eb"/><text x="22" y="-7">Candidate avg goals</text>
      <rect x="190" y="-12" width="14" height="4" fill="#ef4444"/><text x="212" y="-7">Baseline avg goals</text>
      <rect x="378" y="-12" width="14" height="4" fill="#7c3aed"/><text x="400" y="-7">Goal diff</text>
      <circle cx="548" cy="-10" r="5" fill="#16a34a"/><text x="562" y="-7">Accepted improvement</text>
    </g>
  </g>
</svg>
