<svg xmlns="http://www.w3.org/2000/svg" viewBox="0 0 880 660" font-family="ui-monospace,Menlo,monospace"><rect width="880" height="520" fill="#2a6318"/><rect x="0" y="0" width="80" height="520" fill="black" fill-opacity="0.06"/><rect x="80" y="0" width="80" height="520" fill="white" fill-opacity="0.025"/><rect x="160" y="0" width="80" height="520" fill="black" fill-opacity="0.06"/><rect x="240" y="0" width="80" height="520" fill="white" fill-opacity="0.025"/><rect x="320" y="0" width="80" height="520" fill="black" fill-opacity="0.06"/><rect x="400" y="0" width="80" height="520" fill="white" fill-opacity="0.025"/><rect x="480" y="0" width="80" height="520" fill="black" fill-opacity="0.06"/><rect x="560" y="0" width="80" height="520" fill="white" fill-opacity="0.025"/><rect x="640" y="0" width="80" height="520" fill="black" fill-opacity="0.06"/><rect x="720" y="0" width="80" height="520" fill="white" fill-opacity="0.025"/><rect x="800" y="0" width="80" height="520" fill="black" fill-opacity="0.06"/><rect x="18" y="8" width="844" height="504" fill="none" stroke="rgba(255,255,255,0.82)" stroke-width="2"/><line x1="440" y1="8" x2="440" y2="512" stroke="rgba(255,255,255,0.82)" stroke-width="2"/><circle cx="440" cy="260" r="62" fill="none" stroke="rgba(255,255,255,0.82)" stroke-width="2"/><circle cx="440" cy="260" r="3" fill="rgba(255,255,255,0.8)"/><rect x="18" y="172" width="106" height="176" fill="none" stroke="rgba(255,255,255,0.82)" stroke-width="2"/><rect x="756" y="172" width="106" height="176" fill="none" stroke="rgba(255,255,255,0.82)" stroke-width="2"/><rect x="18" y="214" width="54" height="92" fill="none" stroke="rgba(255,255,255,0.82)" stroke-width="2"/><rect x="808" y="214" width="54" height="92" fill="none" stroke="rgba(255,255,255,0.82)" stroke-width="2"/><rect x="-8" y="195" width="26" height="130" fill="rgba(255,255,255,0.1)" stroke="rgba(255,255,255,0.9)" stroke-width="3"/><rect x="862" y="195" width="26" height="130" fill="rgba(255,255,255,0.1)" stroke="rgba(255,255,255,0.9)" stroke-width="3"/><circle cx="18" cy="260" r="66" fill="none" stroke="#ff6b35" stroke-width="1" stroke-opacity="0.18" stroke-dasharray="4,4"/><circle cx="18" cy="260" r="560" fill="none" stroke="#ff6b35" stroke-width="1" stroke-opacity="0.18" stroke-dasharray="4,4"/><circle cx="18" cy="260" r="137" fill="none" stroke="#5b9bff" stroke-width="1" stroke-opacity="0.18" stroke-dasharray="4,4"/><circle cx="18" cy="260" r="243" fill="none" stroke="#5b9bff" stroke-width="1" stroke-opacity="0.18" stroke-dasharray="4,4"/><circle cx="18" cy="260" r="775" fill="none" stroke="#5b9bff" stroke-width="1" stroke-opacity="0.18" stroke-dasharray="4,4"/><circle cx="18" cy="260" r="784" fill="none" stroke="#5b9bff" stroke-width="1" stroke-opacity="0.18" stroke-dasharray="4,4"/><circle cx="18" cy="260" r="480" fill="none" stroke="#84cc16" stroke-width="1" stroke-opacity="0.18" stroke-dasharray="4,4"/><circle cx="18" cy="260" r="816" fill="none" stroke="#84cc16" stroke-width="1" stroke-opacity="0.18" stroke-dasharray="4,4"/><circle cx="18" cy="260" r="0" fill="none" stroke="#fbbf24" stroke-width="1" stroke-opacity="0.18" stroke-dasharray="4,4"/><circle cx="18" cy="260" r="200" fill="none" stroke="#fbbf24" stroke-width="1" stroke-opacity="0.18" stroke-dasharray="4,4"/><line x1="191" y1="87" x2="191" y2="503" stroke="#ff6b35" stroke-width="1" stroke-opacity="0.22" stroke-dasharray="2,3"/><circle cx="191" cy="464" r="21" fill="#ff6b35" fill-opacity="0.05" stroke="#ff6b35" stroke-width="1" stroke-opacity="0.25"/><circle cx="191" cy="464" r="57" fill="none" stroke="#ff6b35" stroke-width="2" stroke-opacity="0.5" stroke-dasharray="6,3"/><circle cx="191" cy="464" r="13" fill="#ff6b35" stroke="white" stroke-width="2.5"/><text x="191" y="467" fill="white" font-size="10" font-weight="bold" text-anchor="middle">FWD</text><line x1="251" y1="116" x2="251" y2="283" stroke="#5b9bff" stroke-width="1" stroke-opacity="0.22" stroke-dasharray="2,3"/><circle cx="251" cy="192" r="200" fill="#5b9bff" fill-opacity="0.05" stroke="#5b9bff" stroke-width="1" stroke-opacity="0.25"/><circle cx="251" cy="192" r="15" fill="none" stroke="#5b9bff" stroke-width="2" stroke-opacity="0.5" stroke-dasharray="6,3"/><circle cx="251" cy="192" r="13" fill="#5b9bff" stroke="white" stroke-width="2.5"/><text x="251" y="196" fill="white" font-size="10" font-weight="bold" text-anchor="middle">MID-T</text><line x1="797" y1="165" x2="797" y2="218" stroke="#5b9bff" stroke-width="1" stroke-opacity="0.22" stroke-dasharray="2,3"/><circle cx="797" cy="174" r="200" fill="#5b9bff" fill-opacity="0.05" stroke="#5b9bff" stroke-width="1" stroke-opacity="0.25"/><circle cx="797" cy="174" r="31" fill="none" stroke="#5b9bff" stroke-width="2" stroke-opacity="0.5" stroke-dasharray="6,3"/><circle cx="797" cy="174" r="13" fill="#5b9bff" stroke="white" stroke-width="2.5"/><text x="797" y="178" fill="white" font-size="10" font-weight="bold" text-anchor="middle">MID-B</text><line x1="804" y1="92" x2="804" y2="422" stroke="#84cc16" stroke-width="1" stroke-opacity="0.22" stroke-dasharray="2,3"/><circle cx="804" cy="341" r="30" fill="#84cc16" fill-opacity="0.05" stroke="#84cc16" stroke-width="1" stroke-opacity="0.25"/><circle cx="804" cy="341" r="84" fill="none" stroke="#84cc16" stroke-width="2" stroke-opacity="0.5" stroke-dasharray="6,3"/><circle cx="804" cy="341" r="13" fill="#84cc16" stroke="white" stroke-width="2.5"/><text x="804" y="345" fill="white" font-size="10" font-weight="bold" text-anchor="middle">DEF</text><line x1="39" y1="130" x2="39" y2="390" stroke="#fbbf24" stroke-width="1" stroke-opacity="0.22" stroke-dasharray="2,3"/><circle cx="39" cy="260" r="60" fill="#fbbf24" fill-opacity="0.05" stroke="#fbbf24" stroke-width="1" stroke-opacity="0.25"/><circle cx="39" cy="260" r="200" fill="none" stroke="#fbbf24" stroke-width="2" stroke-opacity="0.5" stroke-dasharray="6,3"/><circle cx="39" cy="260" r="13" fill="#fbbf24" stroke="white" stroke-width="2.5"/><text x="39" y="264" fill="white" font-size="10" font-weight="bold" text-anchor="middle">GK</text><text x="10" y="22" fill="rgba(255,255,255,0.95)" font-size="16" font-weight="bold">glacier-fc</text><text x="10" y="38" fill="rgba(255,255,255,0.7)" font-size="11">glacier-fc: champion after 2 adaptive anneal sessions</text><text x="870" y="22" fill="rgba(255,255,255,0.55)" font-size="9" text-anchor="end">solid: preferred · faint: own_goal min/max · dashed ring: opponent pref</text><rect y="520" width="880" height="140" fill="#0a0a0a"/><text x="10" y="538" fill="white" font-size="11" font-weight="bold">Spatial preferences (min / preferred / max)</text><text x="10" y="556" fill="rgba(255,255,255,0.55)" font-size="9">slot     own_goal              side                 ball                 teammate           opponent</text><text x="10" y="575" fill="#ff6b35" font-size="10" xml:space="preserve">FWD       66/ 267/ 560       87/ 464/ 503        21/  21/ 128        29/ 210/ 352      13/  57/ 389</text><text x="10" y="589" fill="#5b9bff" font-size="10" xml:space="preserve">MID-T    137/ 243/ 243      116/ 192/ 283        41/ 213/ 520        71/ 104/ 133       0/   7/ 205</text><text x="10" y="603" fill="#5b9bff" font-size="10" xml:space="preserve">MID-B    775/ 784/ 784      165/ 174/ 218        90/ 412/ 685         8/  61/  95      31/  31/ 110</text><text x="10" y="617" fill="#84cc16" font-size="10" xml:space="preserve">DEF      480/ 790/ 816       92/ 341/ 422         0/  30/  30        80/  98/  99      48/  84/  85</text><text x="10" y="631" fill="#fbbf24" font-size="10" xml:space="preserve">GK         0/   0/ 200      130/ 260/ 390         0/  60/ 200        62/ 223/ 349     154/ 269/ 337</text></svg>