<?xml version="1.0" encoding="UTF-8"?>
<svg xmlns="http://www.w3.org/2000/svg" width="1100" height="620" viewBox="0 0 1100 620">
  <rect width="100%" height="100%" fill="#ffffff"/>
  <text x="72" y="30" font-family="Arial, sans-serif" font-size="22" font-weight="700" fill="#111827">Training progress</text>
  <text x="1068" y="30" text-anchor="end" font-family="Arial, sans-serif" font-size="13" fill="#4b5563">Final champion epoch: 100</text>
  <g font-family="Arial, sans-serif">
    <line x1="72.0" y1="54.0" x2="72.0" y2="542.0" stroke="#eef2f7" stroke-width="1"/>
    <text x="72.0" y="566.0" text-anchor="middle" font-size="12" fill="#4b5563">1</text>
    <line x1="172.6" y1="54.0" x2="172.6" y2="542.0" stroke="#eef2f7" stroke-width="1"/>
    <text x="172.6" y="566.0" text-anchor="middle" font-size="12" fill="#4b5563">11</text>
    <line x1="273.2" y1="54.0" x2="273.2" y2="542.0" stroke="#eef2f7" stroke-width="1"/>
    <text x="273.2" y="566.0" text-anchor="middle" font-size="12" fill="#4b5563">21</text>
    <line x1="373.8" y1="54.0" x2="373.8" y2="542.0" stroke="#eef2f7" stroke-width="1"/>
    <text x="373.8" y="566.0" text-anchor="middle" font-size="12" fill="#4b5563">31</text>
    <line x1="474.4" y1="54.0" x2="474.4" y2="542.0" stroke="#eef2f7" stroke-width="1"/>
    <text x="474.4" y="566.0" text-anchor="middle" font-size="12" fill="#4b5563">41</text>
    <line x1="575.0" y1="54.0" x2="575.0" y2="542.0" stroke="#eef2f7" stroke-width="1"/>
    <text x="575.0" y="566.0" text-anchor="middle" font-size="12" fill="#4b5563">51</text>
    <line x1="675.6" y1="54.0" x2="675.6" y2="542.0" stroke="#eef2f7" stroke-width="1"/>
    <text x="675.6" y="566.0" text-anchor="middle" font-size="12" fill="#4b5563">61</text>
    <line x1="776.2" y1="54.0" x2="776.2" y2="542.0" stroke="#eef2f7" stroke-width="1"/>
    <text x="776.2" y="566.0" text-anchor="middle" font-size="12" fill="#4b5563">71</text>
    <line x1="876.8" y1="54.0" x2="876.8" y2="542.0" stroke="#eef2f7" stroke-width="1"/>
    <text x="876.8" y="566.0" text-anchor="middle" font-size="12" fill="#4b5563">81</text>
    <line x1="977.5" y1="54.0" x2="977.5" y2="542.0" stroke="#eef2f7" stroke-width="1"/>
    <text x="977.5" y="566.0" text-anchor="middle" font-size="12" fill="#4b5563">91</text>
    <line x1="72.0" y1="542.0" x2="1068.0" y2="542.0" stroke="#d8dee9" stroke-width="1" opacity="0.55"/>
    <text x="60.0" y="546.0" text-anchor="end" font-size="12" fill="#4b5563">-902.0</text>
    <line x1="72.0" y1="444.4" x2="1068.0" y2="444.4" stroke="#d8dee9" stroke-width="1" opacity="0.55"/>
    <text x="60.0" y="448.4" text-anchor="end" font-size="12" fill="#4b5563">-529.8</text>
    <line x1="72.0" y1="346.8" x2="1068.0" y2="346.8" stroke="#d8dee9" stroke-width="1" opacity="0.55"/>
    <text x="60.0" y="350.8" text-anchor="end" font-size="12" fill="#4b5563">-157.6</text>
    <line x1="72.0" y1="249.2" x2="1068.0" y2="249.2" stroke="#d8dee9" stroke-width="1" opacity="0.55"/>
    <text x="60.0" y="253.2" text-anchor="end" font-size="12" fill="#4b5563">214.6</text>
    <line x1="72.0" y1="151.6" x2="1068.0" y2="151.6" stroke="#d8dee9" stroke-width="1" opacity="0.55"/>
    <text x="60.0" y="155.6" text-anchor="end" font-size="12" fill="#4b5563">586.8</text>
    <line x1="72.0" y1="54.0" x2="1068.0" y2="54.0" stroke="#d8dee9" stroke-width="1" opacity="0.55"/>
    <text x="60.0" y="58.0" text-anchor="end" font-size="12" fill="#4b5563">959.0</text>
    <line x1="72.0" y1="54.0" x2="72.0" y2="542.0" stroke="#111827" stroke-width="1.4"/>
    <line x1="72.0" y1="542.0" x2="1068.0" y2="542.0" stroke="#111827" stroke-width="1.4"/>
    <text x="570.0" y="596.0" text-anchor="middle" font-size="13" fill="#111827">Epoch</text>
    <text x="20" y="298.0" transform="rotate(-90 20 298.0)" text-anchor="middle" font-size="13" fill="#111827">Goals / goal diff</text>
    <polyline fill="none" stroke="#2563eb" stroke-width="2.4" points="72.0,305.4 82.1,305.3 92.1,305.3 102.2,305.3 112.2,305.4 122.3,305.3 132.4,305.3 142.4,305.3 152.5,305.4 162.5,305.4 172.6,305.3 182.7,305.3 192.7,305.3 202.8,305.3 212.8,305.3 222.9,305.3 233.0,305.3 243.0,305.3 253.1,305.3 263.2,305.4 273.2,305.4 283.3,305.3 293.3,305.3 303.4,305.3 313.5,305.4 323.5,305.3 333.6,305.3 343.6,305.3 353.7,305.3 363.8,305.3 373.8,305.3 383.9,305.3 393.9,305.3 404.0,305.3 414.1,305.3 424.1,305.3 434.2,305.3 444.2,305.3 454.3,305.3 464.4,305.3 474.4,305.3 484.5,305.3 494.5,305.3 504.6,305.3 514.7,305.4 524.7,305.3 534.8,305.3 544.8,305.3 554.9,305.3 565.0,305.3 575.0,305.3 585.1,305.3 595.2,305.3 605.2,305.4 615.3,305.3 625.3,305.4 635.4,305.4 645.5,305.3 655.5,305.3 665.6,305.3 675.6,305.3 685.7,305.3 695.8,305.2 705.8,305.3 715.9,305.3 725.9,305.3 736.0,305.3 746.1,305.3 756.1,305.3 766.2,305.4 776.2,305.3 786.3,305.3 796.4,305.4 806.4,305.3 816.5,305.2 826.5,305.5 836.6,305.3 846.7,305.3 856.7,305.3 866.8,305.3 876.8,305.3 886.9,305.2 897.0,305.3 907.0,305.3 917.1,305.3 927.2,305.3 937.2,305.3 947.3,305.3 957.3,305.3 967.4,305.2 977.5,305.3 987.5,305.3 997.6,305.3 1007.6,305.3 1017.7,305.5 1027.8,305.3 1037.8,305.3 1047.9,305.3 1057.9,305.3 1068.0,305.3"/>
    <polyline fill="none" stroke="#ef4444" stroke-width="2.4" points="72.0,305.3 82.1,305.3 92.1,305.3 102.2,305.3 112.2,305.3 122.3,305.3 132.4,305.3 142.4,305.3 152.5,305.3 162.5,305.3 172.6,305.3 182.7,305.3 192.7,305.3 202.8,305.3 212.8,305.3 222.9,305.3 233.0,305.3 243.0,305.3 253.1,305.3 263.2,305.3 273.2,305.3 283.3,305.3 293.3,305.3 303.4,305.4 313.5,305.3 323.5,305.4 333.6,305.3 343.6,305.3 353.7,305.3 363.8,305.3 373.8,305.3 383.9,305.3 393.9,305.3 404.0,305.3 414.1,305.3 424.1,305.3 434.2,305.3 444.2,305.3 454.3,305.3 464.4,305.3 474.4,305.3 484.5,305.3 494.5,305.3 504.6,305.3 514.7,305.3 524.7,305.3 534.8,305.3 544.8,305.3 554.9,305.3 565.0,305.3 575.0,305.3 585.1,305.3 595.2,305.3 605.2,305.3 615.3,305.3 625.3,305.1 635.4,305.3 645.5,305.3 655.5,305.3 665.6,305.3 675.6,305.3 685.7,305.3 695.8,305.3 705.8,305.3 715.9,305.3 725.9,305.3 736.0,305.3 746.1,305.3 756.1,305.3 766.2,305.0 776.2,305.3 786.3,305.3 796.4,305.0 806.4,305.3 816.5,305.3 826.5,305.0 836.6,305.3 846.7,305.3 856.7,305.3 866.8,305.3 876.8,305.3 886.9,305.3 897.0,305.3 907.0,305.3 917.1,305.3 927.2,305.3 937.2,305.3 947.3,305.3 957.3,305.2 967.4,305.3 977.5,305.3 987.5,305.2 997.6,305.3 1007.6,305.3 1017.7,305.2 1027.8,305.2 1037.8,305.2 1047.9,305.3 1057.9,305.3 1068.0,305.3"/>
    <polyline fill="none" stroke="#7c3aed" stroke-width="2" stroke-dasharray="6 5" points="72.0,312.3 82.1,255.7 92.1,499.5 102.2,373.9 112.2,326.5 122.3,392.3 132.4,250.1 142.4,232.6 152.5,326.7 162.5,316.7 172.6,296.8 182.7,296.0 192.7,284.0 202.8,397.0 212.8,225.2 222.9,131.1 233.0,285.8 243.0,355.3 253.1,338.0 263.2,317.5 273.2,312.3 283.3,320.7 293.3,285.8 303.4,298.7 313.5,320.4 323.5,295.8 333.6,403.3 343.6,202.2 353.7,290.8 363.8,277.7 373.8,373.4 383.9,134.0 393.9,433.4 404.0,380.2 414.1,346.9 424.1,269.3 434.2,335.6 444.2,312.8 454.3,386.0 464.4,259.6 474.4,291.3 484.5,407.2 494.5,169.6 504.6,319.1 514.7,314.9 524.7,285.5 534.8,358.7 544.8,369.2 554.9,188.0 565.0,54.0 575.0,141.6 585.1,126.6 595.2,160.5 605.2,316.5 615.3,391.7 625.3,332.2 635.4,315.4 645.5,295.2 655.5,252.8 665.6,289.5 675.6,255.4 685.7,191.4 695.8,281.9 705.8,265.1 715.9,402.0 725.9,92.3 736.0,145.3 746.1,278.5 756.1,73.1 766.2,340.3 776.2,303.1 786.3,337.5 796.4,344.0 806.4,399.6 816.5,291.6 826.5,353.5 836.6,496.1 846.7,542.0 856.7,346.4 866.8,356.3 876.8,430.8 886.9,287.4 897.0,247.5 907.0,369.2 917.1,364.2 927.2,281.3 937.2,318.6 947.3,348.2 957.3,327.2 967.4,269.8 977.5,501.1 987.5,327.0 997.6,400.7 1007.6,178.0 1017.7,329.9 1027.8,325.9 1037.8,347.4 1047.9,430.8 1057.9,150.8 1068.0,271.6"/>
    <circle cx="82.1" cy="255.7" r="5" fill="#16a34a"><title>Accepted epoch 2, diff 190</title></circle>
    <circle cx="132.4" cy="250.1" r="5" fill="#16a34a"><title>Accepted epoch 7, diff 211</title></circle>
    <circle cx="142.4" cy="232.6" r="5" fill="#16a34a"><title>Accepted epoch 8, diff 278</title></circle>
    <circle cx="172.6" cy="296.8" r="5" fill="#16a34a"><title>Accepted epoch 11, diff 33</title></circle>
    <circle cx="182.7" cy="296.0" r="5" fill="#16a34a"><title>Accepted epoch 12, diff 36</title></circle>
    <circle cx="192.7" cy="284.0" r="5" fill="#16a34a"><title>Accepted epoch 13, diff 82</title></circle>
    <circle cx="212.8" cy="225.2" r="5" fill="#16a34a"><title>Accepted epoch 15, diff 306</title></circle>
    <circle cx="222.9" cy="131.1" r="5" fill="#16a34a"><title>Accepted epoch 16, diff 665</title></circle>
    <circle cx="233.0" cy="285.8" r="5" fill="#16a34a"><title>Accepted epoch 17, diff 75</title></circle>
    <circle cx="293.3" cy="285.8" r="5" fill="#16a34a"><title>Accepted epoch 23, diff 75</title></circle>
    <circle cx="303.4" cy="298.7" r="5" fill="#16a34a"><title>Accepted epoch 24, diff 26</title></circle>
    <circle cx="323.5" cy="295.8" r="5" fill="#16a34a"><title>Accepted epoch 26, diff 37</title></circle>
    <circle cx="343.6" cy="202.2" r="5" fill="#16a34a"><title>Accepted epoch 28, diff 394</title></circle>
    <circle cx="353.7" cy="290.8" r="5" fill="#16a34a"><title>Accepted epoch 29, diff 56</title></circle>
    <circle cx="363.8" cy="277.7" r="5" fill="#16a34a"><title>Accepted epoch 30, diff 106</title></circle>
    <circle cx="383.9" cy="134.0" r="5" fill="#16a34a"><title>Accepted epoch 32, diff 654</title></circle>
    <circle cx="424.1" cy="269.3" r="5" fill="#16a34a"><title>Accepted epoch 36, diff 138</title></circle>
    <circle cx="464.4" cy="259.6" r="5" fill="#16a34a"><title>Accepted epoch 40, diff 175</title></circle>
    <circle cx="474.4" cy="291.3" r="5" fill="#16a34a"><title>Accepted epoch 41, diff 54</title></circle>
    <circle cx="494.5" cy="169.6" r="5" fill="#16a34a"><title>Accepted epoch 43, diff 518</title></circle>
    <circle cx="524.7" cy="285.5" r="5" fill="#16a34a"><title>Accepted epoch 46, diff 76</title></circle>
    <circle cx="554.9" cy="188.0" r="5" fill="#16a34a"><title>Accepted epoch 49, diff 448</title></circle>
    <circle cx="565.0" cy="54.0" r="5" fill="#16a34a"><title>Accepted epoch 50, diff 959</title></circle>
    <circle cx="575.0" cy="141.6" r="5" fill="#16a34a"><title>Accepted epoch 51, diff 625</title></circle>
    <circle cx="585.1" cy="126.6" r="5" fill="#16a34a"><title>Accepted epoch 52, diff 682</title></circle>
    <circle cx="595.2" cy="160.5" r="5" fill="#16a34a"><title>Accepted epoch 53, diff 553</title></circle>
    <circle cx="645.5" cy="295.2" r="5" fill="#16a34a"><title>Accepted epoch 58, diff 39</title></circle>
    <circle cx="655.5" cy="252.8" r="5" fill="#16a34a"><title>Accepted epoch 59, diff 201</title></circle>
    <circle cx="665.6" cy="289.5" r="5" fill="#16a34a"><title>Accepted epoch 60, diff 61</title></circle>
    <circle cx="675.6" cy="255.4" r="5" fill="#16a34a"><title>Accepted epoch 61, diff 191</title></circle>
    <circle cx="685.7" cy="191.4" r="5" fill="#16a34a"><title>Accepted epoch 62, diff 435</title></circle>
    <circle cx="695.8" cy="281.9" r="5" fill="#16a34a"><title>Accepted epoch 63, diff 90</title></circle>
    <circle cx="705.8" cy="265.1" r="5" fill="#16a34a"><title>Accepted epoch 64, diff 154</title></circle>
    <circle cx="725.9" cy="92.3" r="5" fill="#16a34a"><title>Accepted epoch 66, diff 813</title></circle>
    <circle cx="736.0" cy="145.3" r="5" fill="#16a34a"><title>Accepted epoch 67, diff 611</title></circle>
    <circle cx="746.1" cy="278.5" r="5" fill="#16a34a"><title>Accepted epoch 68, diff 103</title></circle>
    <circle cx="756.1" cy="73.1" r="5" fill="#16a34a"><title>Accepted epoch 69, diff 886</title></circle>
    <circle cx="776.2" cy="303.1" r="5" fill="#16a34a"><title>Accepted epoch 71, diff 9</title></circle>
    <circle cx="816.5" cy="291.6" r="5" fill="#16a34a"><title>Accepted epoch 75, diff 53</title></circle>
    <circle cx="886.9" cy="287.4" r="5" fill="#16a34a"><title>Accepted epoch 82, diff 69</title></circle>
    <circle cx="897.0" cy="247.5" r="5" fill="#16a34a"><title>Accepted epoch 83, diff 221</title></circle>
    <circle cx="927.2" cy="281.3" r="5" fill="#16a34a"><title>Accepted epoch 86, diff 92</title></circle>
    <circle cx="967.4" cy="269.8" r="5" fill="#16a34a"><title>Accepted epoch 90, diff 136</title></circle>
    <circle cx="1007.6" cy="178.0" r="5" fill="#16a34a"><title>Accepted epoch 94, diff 486</title></circle>
    <circle cx="1057.9" cy="150.8" r="5" fill="#16a34a"><title>Accepted epoch 99, diff 590</title></circle>
    <circle cx="1068.0" cy="271.6" r="5" fill="#16a34a"><title>Accepted epoch 100, diff 129</title></circle>
    <g transform="translate(72, 566.0)" font-size="13" fill="#111827">
      <rect x="0" y="-12" width="14" height="4" fill="#2563eb"/><text x="22" y="-7">Candidate avg goals</text>
      <rect x="190" y="-12" width="14" height="4" fill="#ef4444"/><text x="212" y="-7">Baseline avg goals</text>
      <rect x="378" y="-12" width="14" height="4" fill="#7c3aed"/><text x="400" y="-7">Goal diff</text>
      <circle cx="548" cy="-10" r="5" fill="#16a34a"/><text x="562" y="-7">Accepted improvement</text>
    </g>
  </g>
</svg>
