<?xml version="1.0" encoding="UTF-8"?>
<svg xmlns="http://www.w3.org/2000/svg" width="1100" height="620" viewBox="0 0 1100 620">
  <rect width="100%" height="100%" fill="#ffffff"/>
  <text x="72" y="30" font-family="Arial, sans-serif" font-size="22" font-weight="700" fill="#111827">Training progress</text>
  <text x="1068" y="30" text-anchor="end" font-family="Arial, sans-serif" font-size="13" fill="#4b5563">Final champion epoch: 97</text>
  <g font-family="Arial, sans-serif">
    <line x1="72.0" y1="54.0" x2="72.0" y2="542.0" stroke="#eef2f7" stroke-width="1"/>
    <text x="72.0" y="566.0" text-anchor="middle" font-size="12" fill="#4b5563">1</text>
    <line x1="172.6" y1="54.0" x2="172.6" y2="542.0" stroke="#eef2f7" stroke-width="1"/>
    <text x="172.6" y="566.0" text-anchor="middle" font-size="12" fill="#4b5563">11</text>
    <line x1="273.2" y1="54.0" x2="273.2" y2="542.0" stroke="#eef2f7" stroke-width="1"/>
    <text x="273.2" y="566.0" text-anchor="middle" font-size="12" fill="#4b5563">21</text>
    <line x1="373.8" y1="54.0" x2="373.8" y2="542.0" stroke="#eef2f7" stroke-width="1"/>
    <text x="373.8" y="566.0" text-anchor="middle" font-size="12" fill="#4b5563">31</text>
    <line x1="474.4" y1="54.0" x2="474.4" y2="542.0" stroke="#eef2f7" stroke-width="1"/>
    <text x="474.4" y="566.0" text-anchor="middle" font-size="12" fill="#4b5563">41</text>
    <line x1="575.0" y1="54.0" x2="575.0" y2="542.0" stroke="#eef2f7" stroke-width="1"/>
    <text x="575.0" y="566.0" text-anchor="middle" font-size="12" fill="#4b5563">51</text>
    <line x1="675.6" y1="54.0" x2="675.6" y2="542.0" stroke="#eef2f7" stroke-width="1"/>
    <text x="675.6" y="566.0" text-anchor="middle" font-size="12" fill="#4b5563">61</text>
    <line x1="776.2" y1="54.0" x2="776.2" y2="542.0" stroke="#eef2f7" stroke-width="1"/>
    <text x="776.2" y="566.0" text-anchor="middle" font-size="12" fill="#4b5563">71</text>
    <line x1="876.8" y1="54.0" x2="876.8" y2="542.0" stroke="#eef2f7" stroke-width="1"/>
    <text x="876.8" y="566.0" text-anchor="middle" font-size="12" fill="#4b5563">81</text>
    <line x1="977.5" y1="54.0" x2="977.5" y2="542.0" stroke="#eef2f7" stroke-width="1"/>
    <text x="977.5" y="566.0" text-anchor="middle" font-size="12" fill="#4b5563">91</text>
    <line x1="72.0" y1="542.0" x2="1068.0" y2="542.0" stroke="#d8dee9" stroke-width="1" opacity="0.55"/>
    <text x="60.0" y="546.0" text-anchor="end" font-size="12" fill="#4b5563">-1607.0</text>
    <line x1="72.0" y1="444.4" x2="1068.0" y2="444.4" stroke="#d8dee9" stroke-width="1" opacity="0.55"/>
    <text x="60.0" y="448.4" text-anchor="end" font-size="12" fill="#4b5563">-1087.8</text>
    <line x1="72.0" y1="346.8" x2="1068.0" y2="346.8" stroke="#d8dee9" stroke-width="1" opacity="0.55"/>
    <text x="60.0" y="350.8" text-anchor="end" font-size="12" fill="#4b5563">-568.6</text>
    <line x1="72.0" y1="249.2" x2="1068.0" y2="249.2" stroke="#d8dee9" stroke-width="1" opacity="0.55"/>
    <text x="60.0" y="253.2" text-anchor="end" font-size="12" fill="#4b5563">-49.4</text>
    <line x1="72.0" y1="151.6" x2="1068.0" y2="151.6" stroke="#d8dee9" stroke-width="1" opacity="0.55"/>
    <text x="60.0" y="155.6" text-anchor="end" font-size="12" fill="#4b5563">469.8</text>
    <line x1="72.0" y1="54.0" x2="1068.0" y2="54.0" stroke="#d8dee9" stroke-width="1" opacity="0.55"/>
    <text x="60.0" y="58.0" text-anchor="end" font-size="12" fill="#4b5563">989.0</text>
    <line x1="72.0" y1="54.0" x2="72.0" y2="542.0" stroke="#111827" stroke-width="1.4"/>
    <line x1="72.0" y1="542.0" x2="1068.0" y2="542.0" stroke="#111827" stroke-width="1.4"/>
    <text x="570.0" y="596.0" text-anchor="middle" font-size="13" fill="#111827">Epoch</text>
    <text x="20" y="298.0" transform="rotate(-90 20 298.0)" text-anchor="middle" font-size="13" fill="#111827">Goals / goal diff</text>
    <polyline fill="none" stroke="#2563eb" stroke-width="2.4" points="72.0,238.7 82.1,238.7 92.1,238.7 102.2,238.7 112.2,238.7 122.3,238.7 132.4,238.7 142.4,238.7 152.5,238.7 162.5,238.7 172.6,238.7 182.7,238.7 192.7,238.7 202.8,238.7 212.8,238.7 222.9,238.7 233.0,238.7 243.0,238.7 253.1,238.7 263.2,238.7 273.2,238.7 283.3,239.0 293.3,239.0 303.4,238.8 313.5,238.7 323.5,238.7 333.6,238.7 343.6,238.7 353.7,238.8 363.8,238.7 373.8,238.8 383.9,238.7 393.9,238.7 404.0,238.7 414.1,238.7 424.1,238.8 434.2,238.7 444.2,238.7 454.3,238.7 464.4,238.7 474.4,238.7 484.5,238.7 494.5,238.7 504.6,238.7 514.7,238.7 524.7,238.7 534.8,238.7 544.8,238.7 554.9,238.7 565.0,238.7 575.0,238.7 585.1,238.7 595.2,239.5 605.2,238.7 615.3,239.0 625.3,238.7 635.4,238.7 645.5,238.7 655.5,238.7 665.6,238.8 675.6,238.7 685.7,238.7 695.8,238.7 705.8,238.7 715.9,238.7 725.9,239.5 736.0,238.7 746.1,238.7 756.1,238.7 766.2,238.7 776.2,238.7 786.3,238.7 796.4,238.7 806.4,238.7 816.5,238.7 826.5,238.7 836.6,238.7 846.7,238.7 856.7,238.7 866.8,238.7 876.8,238.7 886.9,239.3 897.0,238.7 907.0,238.7 917.1,238.7 927.2,238.7 937.2,239.3 947.3,238.7 957.3,238.7 967.4,238.7 977.5,238.7 987.5,238.7 997.6,238.9 1007.6,238.7 1017.7,238.7 1027.8,238.7 1037.8,238.7 1047.9,238.7 1057.9,238.7 1068.0,238.8"/>
    <polyline fill="none" stroke="#ef4444" stroke-width="2.4" points="72.0,238.7 82.1,238.7 92.1,238.7 102.2,238.7 112.2,238.7 122.3,238.7 132.4,238.7 142.4,238.7 152.5,238.7 162.5,238.7 172.6,238.7 182.7,238.7 192.7,238.7 202.8,238.7 212.8,238.7 222.9,238.7 233.0,238.7 243.0,238.7 253.1,238.7 263.2,238.7 273.2,238.7 283.3,238.8 293.3,238.7 303.4,238.7 313.5,238.7 323.5,238.7 333.6,238.7 343.6,238.7 353.7,238.8 363.8,238.7 373.8,238.7 383.9,238.7 393.9,238.7 404.0,238.7 414.1,238.7 424.1,238.7 434.2,238.7 444.2,238.7 454.3,238.7 464.4,238.7 474.4,238.7 484.5,238.7 494.5,238.7 504.6,238.7 514.7,238.7 524.7,238.7 534.8,238.7 544.8,238.7 554.9,238.7 565.0,238.7 575.0,238.7 585.1,238.7 595.2,239.1 605.2,238.7 615.3,238.8 625.3,238.7 635.4,238.7 645.5,238.7 655.5,238.7 665.6,238.7 675.6,238.7 685.7,238.7 695.8,238.7 705.8,238.7 715.9,238.7 725.9,239.1 736.0,238.7 746.1,238.7 756.1,238.7 766.2,238.7 776.2,238.7 786.3,238.7 796.4,238.7 806.4,238.7 816.5,238.7 826.5,238.7 836.6,238.7 846.7,238.7 856.7,238.7 866.8,238.7 876.8,238.7 886.9,239.0 897.0,238.7 907.0,238.7 917.1,238.7 927.2,238.7 937.2,239.0 947.3,238.7 957.3,238.7 967.4,238.7 977.5,238.7 987.5,238.7 997.6,238.8 1007.6,238.7 1017.7,238.7 1027.8,238.7 1037.8,238.7 1047.9,238.7 1057.9,238.7 1068.0,238.7"/>
    <polyline fill="none" stroke="#7c3aed" stroke-width="2" stroke-dasharray="6 5" points="72.0,256.3 82.1,264.4 92.1,239.5 102.2,323.9 112.2,440.9 122.3,539.6 132.4,249.5 142.4,176.9 152.5,213.2 162.5,243.9 172.6,351.8 182.7,461.0 192.7,454.6 202.8,257.4 212.8,355.9 222.9,309.5 233.0,329.8 243.0,242.7 253.1,225.1 263.2,421.1 273.2,213.2 283.3,288.8 293.3,285.0 303.4,542.0 313.5,193.5 323.5,251.0 333.6,286.0 343.6,212.5 353.7,420.8 363.8,380.3 373.8,411.9 383.9,515.5 393.9,263.2 404.0,375.1 414.1,54.0 424.1,342.7 434.2,319.6 444.2,495.4 454.3,142.4 464.4,301.9 474.4,298.2 484.5,195.4 494.5,232.0 504.6,410.4 514.7,328.1 524.7,267.7 534.8,351.2 544.8,227.9 554.9,326.8 565.0,296.5 575.0,232.4 585.1,401.4 595.2,283.5 605.2,297.8 615.3,305.5 625.3,377.1 635.4,66.8 645.5,212.8 655.5,326.8 665.6,399.5 675.6,179.6 685.7,200.8 695.8,117.5 705.8,229.6 715.9,326.8 725.9,284.5 736.0,234.1 746.1,202.3 756.1,536.0 766.2,123.2 776.2,110.8 786.3,304.6 796.4,169.8 806.4,296.7 816.5,250.4 826.5,183.5 836.6,297.8 846.7,253.4 856.7,92.0 866.8,218.3 876.8,404.0 886.9,272.4 897.0,348.2 907.0,444.4 917.1,198.0 927.2,329.2 937.2,273.6 947.3,270.7 957.3,378.6 967.4,214.3 977.5,143.3 987.5,349.7 997.6,314.9 1007.6,170.2 1017.7,149.7 1027.8,310.8 1037.8,148.4 1047.9,278.3 1057.9,260.4 1068.0,504.8"/>
    <circle cx="92.1" cy="239.5" r="5" fill="#16a34a"><title>Accepted epoch 3, diff 2</title></circle>
    <circle cx="142.4" cy="176.9" r="5" fill="#16a34a"><title>Accepted epoch 8, diff 335</title></circle>
    <circle cx="152.5" cy="213.2" r="5" fill="#16a34a"><title>Accepted epoch 9, diff 142</title></circle>
    <circle cx="253.1" cy="225.1" r="5" fill="#16a34a"><title>Accepted epoch 19, diff 79</title></circle>
    <circle cx="273.2" cy="213.2" r="5" fill="#16a34a"><title>Accepted epoch 21, diff 142</title></circle>
    <circle cx="313.5" cy="193.5" r="5" fill="#16a34a"><title>Accepted epoch 25, diff 247</title></circle>
    <circle cx="343.6" cy="212.5" r="5" fill="#16a34a"><title>Accepted epoch 28, diff 146</title></circle>
    <circle cx="414.1" cy="54.0" r="5" fill="#16a34a"><title>Accepted epoch 35, diff 989</title></circle>
    <circle cx="454.3" cy="142.4" r="5" fill="#16a34a"><title>Accepted epoch 39, diff 519</title></circle>
    <circle cx="484.5" cy="195.4" r="5" fill="#16a34a"><title>Accepted epoch 42, diff 237</title></circle>
    <circle cx="494.5" cy="232.0" r="5" fill="#16a34a"><title>Accepted epoch 43, diff 42</title></circle>
    <circle cx="544.8" cy="227.9" r="5" fill="#16a34a"><title>Accepted epoch 48, diff 64</title></circle>
    <circle cx="575.0" cy="232.4" r="5" fill="#16a34a"><title>Accepted epoch 51, diff 40</title></circle>
    <circle cx="635.4" cy="66.8" r="5" fill="#16a34a"><title>Accepted epoch 57, diff 921</title></circle>
    <circle cx="645.5" cy="212.8" r="5" fill="#16a34a"><title>Accepted epoch 58, diff 144</title></circle>
    <circle cx="675.6" cy="179.6" r="5" fill="#16a34a"><title>Accepted epoch 61, diff 321</title></circle>
    <circle cx="685.7" cy="200.8" r="5" fill="#16a34a"><title>Accepted epoch 62, diff 208</title></circle>
    <circle cx="695.8" cy="117.5" r="5" fill="#16a34a"><title>Accepted epoch 63, diff 651</title></circle>
    <circle cx="705.8" cy="229.6" r="5" fill="#16a34a"><title>Accepted epoch 64, diff 55</title></circle>
    <circle cx="736.0" cy="234.1" r="5" fill="#16a34a"><title>Accepted epoch 67, diff 31</title></circle>
    <circle cx="746.1" cy="202.3" r="5" fill="#16a34a"><title>Accepted epoch 68, diff 200</title></circle>
    <circle cx="766.2" cy="123.2" r="5" fill="#16a34a"><title>Accepted epoch 70, diff 621</title></circle>
    <circle cx="776.2" cy="110.8" r="5" fill="#16a34a"><title>Accepted epoch 71, diff 687</title></circle>
    <circle cx="796.4" cy="169.8" r="5" fill="#16a34a"><title>Accepted epoch 73, diff 373</title></circle>
    <circle cx="826.5" cy="183.5" r="5" fill="#16a34a"><title>Accepted epoch 76, diff 300</title></circle>
    <circle cx="856.7" cy="92.0" r="5" fill="#16a34a"><title>Accepted epoch 79, diff 787</title></circle>
    <circle cx="866.8" cy="218.3" r="5" fill="#16a34a"><title>Accepted epoch 80, diff 115</title></circle>
    <circle cx="917.1" cy="198.0" r="5" fill="#16a34a"><title>Accepted epoch 85, diff 223</title></circle>
    <circle cx="967.4" cy="214.3" r="5" fill="#16a34a"><title>Accepted epoch 90, diff 136</title></circle>
    <circle cx="977.5" cy="143.3" r="5" fill="#16a34a"><title>Accepted epoch 91, diff 514</title></circle>
    <circle cx="1007.6" cy="170.2" r="5" fill="#16a34a"><title>Accepted epoch 94, diff 371</title></circle>
    <circle cx="1017.7" cy="149.7" r="5" fill="#16a34a"><title>Accepted epoch 95, diff 480</title></circle>
    <circle cx="1037.8" cy="148.4" r="5" fill="#16a34a"><title>Accepted epoch 97, diff 487</title></circle>
    <g transform="translate(72, 566.0)" font-size="13" fill="#111827">
      <rect x="0" y="-12" width="14" height="4" fill="#2563eb"/><text x="22" y="-7">Candidate avg goals</text>
      <rect x="190" y="-12" width="14" height="4" fill="#ef4444"/><text x="212" y="-7">Baseline avg goals</text>
      <rect x="378" y="-12" width="14" height="4" fill="#7c3aed"/><text x="400" y="-7">Goal diff</text>
      <circle cx="548" cy="-10" r="5" fill="#16a34a"/><text x="562" y="-7">Accepted improvement</text>
    </g>
  </g>
</svg>
