<?xml version="1.0" encoding="UTF-8"?>
<svg xmlns="http://www.w3.org/2000/svg" width="1100" height="620" viewBox="0 0 1100 620">
  <rect width="100%" height="100%" fill="#ffffff"/>
  <text x="72" y="30" font-family="Arial, sans-serif" font-size="22" font-weight="700" fill="#111827">Training progress</text>
  <text x="1068" y="30" text-anchor="end" font-family="Arial, sans-serif" font-size="13" fill="#4b5563">Final champion epoch: 100</text>
  <g font-family="Arial, sans-serif">
    <line x1="72.0" y1="54.0" x2="72.0" y2="542.0" stroke="#eef2f7" stroke-width="1"/>
    <text x="72.0" y="566.0" text-anchor="middle" font-size="12" fill="#4b5563">1</text>
    <line x1="172.6" y1="54.0" x2="172.6" y2="542.0" stroke="#eef2f7" stroke-width="1"/>
    <text x="172.6" y="566.0" text-anchor="middle" font-size="12" fill="#4b5563">11</text>
    <line x1="273.2" y1="54.0" x2="273.2" y2="542.0" stroke="#eef2f7" stroke-width="1"/>
    <text x="273.2" y="566.0" text-anchor="middle" font-size="12" fill="#4b5563">21</text>
    <line x1="373.8" y1="54.0" x2="373.8" y2="542.0" stroke="#eef2f7" stroke-width="1"/>
    <text x="373.8" y="566.0" text-anchor="middle" font-size="12" fill="#4b5563">31</text>
    <line x1="474.4" y1="54.0" x2="474.4" y2="542.0" stroke="#eef2f7" stroke-width="1"/>
    <text x="474.4" y="566.0" text-anchor="middle" font-size="12" fill="#4b5563">41</text>
    <line x1="575.0" y1="54.0" x2="575.0" y2="542.0" stroke="#eef2f7" stroke-width="1"/>
    <text x="575.0" y="566.0" text-anchor="middle" font-size="12" fill="#4b5563">51</text>
    <line x1="675.6" y1="54.0" x2="675.6" y2="542.0" stroke="#eef2f7" stroke-width="1"/>
    <text x="675.6" y="566.0" text-anchor="middle" font-size="12" fill="#4b5563">61</text>
    <line x1="776.2" y1="54.0" x2="776.2" y2="542.0" stroke="#eef2f7" stroke-width="1"/>
    <text x="776.2" y="566.0" text-anchor="middle" font-size="12" fill="#4b5563">71</text>
    <line x1="876.8" y1="54.0" x2="876.8" y2="542.0" stroke="#eef2f7" stroke-width="1"/>
    <text x="876.8" y="566.0" text-anchor="middle" font-size="12" fill="#4b5563">81</text>
    <line x1="977.5" y1="54.0" x2="977.5" y2="542.0" stroke="#eef2f7" stroke-width="1"/>
    <text x="977.5" y="566.0" text-anchor="middle" font-size="12" fill="#4b5563">91</text>
    <line x1="72.0" y1="542.0" x2="1068.0" y2="542.0" stroke="#d8dee9" stroke-width="1" opacity="0.55"/>
    <text x="60.0" y="546.0" text-anchor="end" font-size="12" fill="#4b5563">-5264.0</text>
    <line x1="72.0" y1="444.4" x2="1068.0" y2="444.4" stroke="#d8dee9" stroke-width="1" opacity="0.55"/>
    <text x="60.0" y="448.4" text-anchor="end" font-size="12" fill="#4b5563">-3756.4</text>
    <line x1="72.0" y1="346.8" x2="1068.0" y2="346.8" stroke="#d8dee9" stroke-width="1" opacity="0.55"/>
    <text x="60.0" y="350.8" text-anchor="end" font-size="12" fill="#4b5563">-2248.8</text>
    <line x1="72.0" y1="249.2" x2="1068.0" y2="249.2" stroke="#d8dee9" stroke-width="1" opacity="0.55"/>
    <text x="60.0" y="253.2" text-anchor="end" font-size="12" fill="#4b5563">-741.2</text>
    <line x1="72.0" y1="151.6" x2="1068.0" y2="151.6" stroke="#d8dee9" stroke-width="1" opacity="0.55"/>
    <text x="60.0" y="155.6" text-anchor="end" font-size="12" fill="#4b5563">766.4</text>
    <line x1="72.0" y1="54.0" x2="1068.0" y2="54.0" stroke="#d8dee9" stroke-width="1" opacity="0.55"/>
    <text x="60.0" y="58.0" text-anchor="end" font-size="12" fill="#4b5563">2274.0</text>
    <line x1="72.0" y1="54.0" x2="72.0" y2="542.0" stroke="#111827" stroke-width="1.4"/>
    <line x1="72.0" y1="542.0" x2="1068.0" y2="542.0" stroke="#111827" stroke-width="1.4"/>
    <text x="570.0" y="596.0" text-anchor="middle" font-size="13" fill="#111827">Epoch</text>
    <text x="20" y="298.0" transform="rotate(-90 20 298.0)" text-anchor="middle" font-size="13" fill="#111827">Goals / goal diff</text>
    <polyline fill="none" stroke="#2563eb" stroke-width="2.4" points="72.0,200.8 82.1,200.8 92.1,200.8 102.2,200.8 112.2,200.8 122.3,200.8 132.4,200.8 142.4,200.8 152.5,200.9 162.5,200.8 172.6,200.8 182.7,200.8 192.7,200.8 202.8,200.8 212.8,200.8 222.9,200.8 233.0,200.8 243.0,200.8 253.1,200.8 263.2,200.8 273.2,200.8 283.3,200.8 293.3,200.8 303.4,200.8 313.5,200.8 323.5,200.8 333.6,200.8 343.6,201.0 353.7,200.8 363.8,201.0 373.8,200.8 383.9,200.8 393.9,200.8 404.0,200.8 414.1,200.8 424.1,200.8 434.2,200.8 444.2,200.8 454.3,200.8 464.4,200.8 474.4,200.8 484.5,200.8 494.5,200.8 504.6,200.8 514.7,200.8 524.7,201.0 534.8,200.8 544.8,200.8 554.9,200.8 565.0,200.8 575.0,200.8 585.1,200.8 595.2,200.8 605.2,200.8 615.3,201.0 625.3,200.8 635.4,200.8 645.5,200.8 655.5,200.8 665.6,200.8 675.6,200.8 685.7,201.1 695.8,200.8 705.8,200.8 715.9,200.8 725.9,200.8 736.0,200.8 746.1,200.8 756.1,200.8 766.2,200.8 776.2,200.8 786.3,200.8 796.4,200.8 806.4,200.8 816.5,200.8 826.5,200.8 836.6,201.1 846.7,200.8 856.7,200.8 866.8,200.8 876.8,200.8 886.9,200.8 897.0,200.9 907.0,200.8 917.1,200.8 927.2,200.8 937.2,200.8 947.3,200.8 957.3,200.8 967.4,200.8 977.5,200.8 987.5,200.8 997.6,200.8 1007.6,201.1 1017.7,200.8 1027.8,200.8 1037.8,200.8 1047.9,200.8 1057.9,200.8 1068.0,200.8"/>
    <polyline fill="none" stroke="#ef4444" stroke-width="2.4" points="72.0,200.8 82.1,200.8 92.1,200.8 102.2,200.8 112.2,200.8 122.3,200.8 132.4,200.8 142.4,200.8 152.5,200.9 162.5,200.8 172.6,200.8 182.7,200.8 192.7,200.8 202.8,200.8 212.8,200.8 222.9,200.8 233.0,200.8 243.0,200.8 253.1,200.8 263.2,200.8 273.2,200.8 283.3,200.8 293.3,200.8 303.4,200.8 313.5,200.8 323.5,200.8 333.6,200.8 343.6,200.9 353.7,200.8 363.8,200.9 373.8,200.8 383.9,200.8 393.9,200.8 404.0,200.8 414.1,200.8 424.1,200.8 434.2,200.8 444.2,200.8 454.3,200.8 464.4,200.8 474.4,200.8 484.5,200.8 494.5,200.8 504.6,200.8 514.7,200.8 524.7,200.9 534.8,200.8 544.8,200.8 554.9,200.8 565.0,200.8 575.0,200.8 585.1,200.8 595.2,200.8 605.2,200.8 615.3,200.9 625.3,200.8 635.4,200.8 645.5,200.8 655.5,200.8 665.6,200.8 675.6,200.8 685.7,201.0 695.8,200.8 705.8,200.8 715.9,200.8 725.9,200.8 736.0,200.8 746.1,200.8 756.1,200.8 766.2,200.8 776.2,200.8 786.3,200.8 796.4,200.8 806.4,200.8 816.5,200.8 826.5,200.8 836.6,201.0 846.7,200.8 856.7,200.8 866.8,200.8 876.8,200.8 886.9,200.8 897.0,200.8 907.0,200.8 917.1,200.8 927.2,200.8 937.2,200.8 947.3,200.8 957.3,200.8 967.4,200.8 977.5,200.8 987.5,200.8 997.6,200.8 1007.6,200.9 1017.7,200.8 1027.8,200.8 1037.8,200.8 1047.9,200.8 1057.9,200.8 1068.0,200.8"/>
    <polyline fill="none" stroke="#7c3aed" stroke-width="2" stroke-dasharray="6 5" points="72.0,216.7 82.1,271.1 92.1,408.2 102.2,314.0 112.2,224.6 122.3,333.5 132.4,121.3 142.4,263.0 152.5,218.5 162.5,350.7 172.6,331.3 182.7,135.8 192.7,332.7 202.8,159.2 212.8,221.7 222.9,186.5 233.0,323.4 243.0,225.9 253.1,190.7 263.2,343.6 273.2,277.3 283.3,149.8 293.3,304.7 303.4,238.6 313.5,204.1 323.5,106.4 333.6,339.2 343.6,213.5 353.7,307.5 363.8,214.9 373.8,117.2 383.9,525.4 393.9,303.0 404.0,111.6 414.1,224.6 424.1,287.5 434.2,241.6 444.2,283.3 454.3,159.5 464.4,280.8 474.4,521.0 484.5,228.3 494.5,196.9 504.6,397.1 514.7,281.9 524.7,214.6 534.8,271.5 544.8,279.6 554.9,159.6 565.0,252.5 575.0,267.6 585.1,333.9 595.2,157.1 605.2,293.5 615.3,214.5 625.3,211.7 635.4,190.7 645.5,171.2 655.5,248.9 665.6,320.3 675.6,87.2 685.7,213.0 695.8,250.5 705.8,166.1 715.9,357.2 725.9,196.9 736.0,500.0 746.1,389.7 756.1,117.2 766.2,542.0 776.2,197.2 786.3,386.6 796.4,272.1 806.4,248.8 816.5,509.9 826.5,121.1 836.6,210.3 846.7,236.4 856.7,228.2 866.8,54.0 876.8,140.4 886.9,217.4 897.0,221.3 907.0,138.2 917.1,262.3 927.2,145.5 937.2,184.3 947.3,247.7 957.3,287.8 967.4,175.5 977.5,195.2 987.5,159.1 997.6,160.3 1007.6,215.3 1017.7,333.9 1027.8,226.1 1037.8,302.2 1047.9,207.5 1057.9,494.7 1068.0,164.5"/>
    <circle cx="132.4" cy="121.3" r="5" fill="#16a34a"><title>Accepted epoch 7, diff 1234</title></circle>
    <circle cx="182.7" cy="135.8" r="5" fill="#16a34a"><title>Accepted epoch 12, diff 1011</title></circle>
    <circle cx="202.8" cy="159.2" r="5" fill="#16a34a"><title>Accepted epoch 14, diff 649</title></circle>
    <circle cx="222.9" cy="186.5" r="5" fill="#16a34a"><title>Accepted epoch 16, diff 227</title></circle>
    <circle cx="253.1" cy="190.7" r="5" fill="#16a34a"><title>Accepted epoch 19, diff 162</title></circle>
    <circle cx="283.3" cy="149.8" r="5" fill="#16a34a"><title>Accepted epoch 22, diff 794</title></circle>
    <circle cx="323.5" cy="106.4" r="5" fill="#16a34a"><title>Accepted epoch 26, diff 1464</title></circle>
    <circle cx="373.8" cy="117.2" r="5" fill="#16a34a"><title>Accepted epoch 31, diff 1297</title></circle>
    <circle cx="404.0" cy="111.6" r="5" fill="#16a34a"><title>Accepted epoch 34, diff 1384</title></circle>
    <circle cx="454.3" cy="159.5" r="5" fill="#16a34a"><title>Accepted epoch 39, diff 644</title></circle>
    <circle cx="494.5" cy="196.9" r="5" fill="#16a34a"><title>Accepted epoch 43, diff 67</title></circle>
    <circle cx="554.9" cy="159.6" r="5" fill="#16a34a"><title>Accepted epoch 49, diff 643</title></circle>
    <circle cx="595.2" cy="157.1" r="5" fill="#16a34a"><title>Accepted epoch 53, diff 682</title></circle>
    <circle cx="635.4" cy="190.7" r="5" fill="#16a34a"><title>Accepted epoch 57, diff 163</title></circle>
    <circle cx="645.5" cy="171.2" r="5" fill="#16a34a"><title>Accepted epoch 58, diff 463</title></circle>
    <circle cx="675.6" cy="87.2" r="5" fill="#16a34a"><title>Accepted epoch 61, diff 1761</title></circle>
    <circle cx="705.8" cy="166.1" r="5" fill="#16a34a"><title>Accepted epoch 64, diff 542</title></circle>
    <circle cx="725.9" cy="196.9" r="5" fill="#16a34a"><title>Accepted epoch 66, diff 66</title></circle>
    <circle cx="756.1" cy="117.2" r="5" fill="#16a34a"><title>Accepted epoch 69, diff 1297</title></circle>
    <circle cx="776.2" cy="197.2" r="5" fill="#16a34a"><title>Accepted epoch 71, diff 62</title></circle>
    <circle cx="826.5" cy="121.1" r="5" fill="#16a34a"><title>Accepted epoch 76, diff 1238</title></circle>
    <circle cx="866.8" cy="54.0" r="5" fill="#16a34a"><title>Accepted epoch 80, diff 2274</title></circle>
    <circle cx="876.8" cy="140.4" r="5" fill="#16a34a"><title>Accepted epoch 81, diff 940</title></circle>
    <circle cx="907.0" cy="138.2" r="5" fill="#16a34a"><title>Accepted epoch 84, diff 973</title></circle>
    <circle cx="927.2" cy="145.5" r="5" fill="#16a34a"><title>Accepted epoch 86, diff 861</title></circle>
    <circle cx="937.2" cy="184.3" r="5" fill="#16a34a"><title>Accepted epoch 87, diff 262</title></circle>
    <circle cx="967.4" cy="175.5" r="5" fill="#16a34a"><title>Accepted epoch 90, diff 397</title></circle>
    <circle cx="977.5" cy="195.2" r="5" fill="#16a34a"><title>Accepted epoch 91, diff 93</title></circle>
    <circle cx="987.5" cy="159.1" r="5" fill="#16a34a"><title>Accepted epoch 92, diff 650</title></circle>
    <circle cx="997.6" cy="160.3" r="5" fill="#16a34a"><title>Accepted epoch 93, diff 632</title></circle>
    <circle cx="1068.0" cy="164.5" r="5" fill="#16a34a"><title>Accepted epoch 100, diff 567</title></circle>
    <g transform="translate(72, 566.0)" font-size="13" fill="#111827">
      <rect x="0" y="-12" width="14" height="4" fill="#2563eb"/><text x="22" y="-7">Candidate avg goals</text>
      <rect x="190" y="-12" width="14" height="4" fill="#ef4444"/><text x="212" y="-7">Baseline avg goals</text>
      <rect x="378" y="-12" width="14" height="4" fill="#7c3aed"/><text x="400" y="-7">Goal diff</text>
      <circle cx="548" cy="-10" r="5" fill="#16a34a"/><text x="562" y="-7">Accepted improvement</text>
    </g>
  </g>
</svg>
