<?xml version="1.0" encoding="UTF-8"?>
<svg xmlns="http://www.w3.org/2000/svg" width="1100" height="620" viewBox="0 0 1100 620">
  <rect width="100%" height="100%" fill="#ffffff"/>
  <text x="72" y="30" font-family="Arial, sans-serif" font-size="22" font-weight="700" fill="#111827">Training progress</text>
  <text x="1068" y="30" text-anchor="end" font-family="Arial, sans-serif" font-size="13" fill="#4b5563">Final champion epoch: 97</text>
  <g font-family="Arial, sans-serif">
    <line x1="72.0" y1="54.0" x2="72.0" y2="542.0" stroke="#eef2f7" stroke-width="1"/>
    <text x="72.0" y="566.0" text-anchor="middle" font-size="12" fill="#4b5563">1</text>
    <line x1="172.6" y1="54.0" x2="172.6" y2="542.0" stroke="#eef2f7" stroke-width="1"/>
    <text x="172.6" y="566.0" text-anchor="middle" font-size="12" fill="#4b5563">11</text>
    <line x1="273.2" y1="54.0" x2="273.2" y2="542.0" stroke="#eef2f7" stroke-width="1"/>
    <text x="273.2" y="566.0" text-anchor="middle" font-size="12" fill="#4b5563">21</text>
    <line x1="373.8" y1="54.0" x2="373.8" y2="542.0" stroke="#eef2f7" stroke-width="1"/>
    <text x="373.8" y="566.0" text-anchor="middle" font-size="12" fill="#4b5563">31</text>
    <line x1="474.4" y1="54.0" x2="474.4" y2="542.0" stroke="#eef2f7" stroke-width="1"/>
    <text x="474.4" y="566.0" text-anchor="middle" font-size="12" fill="#4b5563">41</text>
    <line x1="575.0" y1="54.0" x2="575.0" y2="542.0" stroke="#eef2f7" stroke-width="1"/>
    <text x="575.0" y="566.0" text-anchor="middle" font-size="12" fill="#4b5563">51</text>
    <line x1="675.6" y1="54.0" x2="675.6" y2="542.0" stroke="#eef2f7" stroke-width="1"/>
    <text x="675.6" y="566.0" text-anchor="middle" font-size="12" fill="#4b5563">61</text>
    <line x1="776.2" y1="54.0" x2="776.2" y2="542.0" stroke="#eef2f7" stroke-width="1"/>
    <text x="776.2" y="566.0" text-anchor="middle" font-size="12" fill="#4b5563">71</text>
    <line x1="876.8" y1="54.0" x2="876.8" y2="542.0" stroke="#eef2f7" stroke-width="1"/>
    <text x="876.8" y="566.0" text-anchor="middle" font-size="12" fill="#4b5563">81</text>
    <line x1="977.5" y1="54.0" x2="977.5" y2="542.0" stroke="#eef2f7" stroke-width="1"/>
    <text x="977.5" y="566.0" text-anchor="middle" font-size="12" fill="#4b5563">91</text>
    <line x1="72.0" y1="542.0" x2="1068.0" y2="542.0" stroke="#d8dee9" stroke-width="1" opacity="0.55"/>
    <text x="60.0" y="546.0" text-anchor="end" font-size="12" fill="#4b5563">-421.0</text>
    <line x1="72.0" y1="444.4" x2="1068.0" y2="444.4" stroke="#d8dee9" stroke-width="1" opacity="0.55"/>
    <text x="60.0" y="448.4" text-anchor="end" font-size="12" fill="#4b5563">-292.2</text>
    <line x1="72.0" y1="346.8" x2="1068.0" y2="346.8" stroke="#d8dee9" stroke-width="1" opacity="0.55"/>
    <text x="60.0" y="350.8" text-anchor="end" font-size="12" fill="#4b5563">-163.4</text>
    <line x1="72.0" y1="249.2" x2="1068.0" y2="249.2" stroke="#d8dee9" stroke-width="1" opacity="0.55"/>
    <text x="60.0" y="253.2" text-anchor="end" font-size="12" fill="#4b5563">-34.6</text>
    <line x1="72.0" y1="151.6" x2="1068.0" y2="151.6" stroke="#d8dee9" stroke-width="1" opacity="0.55"/>
    <text x="60.0" y="155.6" text-anchor="end" font-size="12" fill="#4b5563">94.2</text>
    <line x1="72.0" y1="54.0" x2="1068.0" y2="54.0" stroke="#d8dee9" stroke-width="1" opacity="0.55"/>
    <text x="60.0" y="58.0" text-anchor="end" font-size="12" fill="#4b5563">223.0</text>
    <line x1="72.0" y1="54.0" x2="72.0" y2="542.0" stroke="#111827" stroke-width="1.4"/>
    <line x1="72.0" y1="542.0" x2="1068.0" y2="542.0" stroke="#111827" stroke-width="1.4"/>
    <text x="570.0" y="596.0" text-anchor="middle" font-size="13" fill="#111827">Epoch</text>
    <text x="20" y="298.0" transform="rotate(-90 20 298.0)" text-anchor="middle" font-size="13" fill="#111827">Goals / goal diff</text>
    <polyline fill="none" stroke="#2563eb" stroke-width="2.4" points="72.0,217.9 82.1,217.8 92.1,217.7 102.2,217.8 112.2,217.7 122.3,218.0 132.4,217.8 142.4,217.6 152.5,217.8 162.5,217.9 172.6,218.0 182.7,217.7 192.7,217.6 202.8,218.0 212.8,217.7 222.9,217.7 233.0,217.8 243.0,217.7 253.1,217.8 263.2,218.0 273.2,217.8 283.3,217.9 293.3,217.9 303.4,217.7 313.5,218.0 323.5,218.0 333.6,218.0 343.6,218.1 353.7,218.2 363.8,218.3 373.8,218.7 383.9,218.4 393.9,218.3 404.0,218.5 414.1,220.8 424.1,218.3 434.2,218.4 444.2,218.4 454.3,218.2 464.4,218.3 474.4,218.5 484.5,218.4 494.5,218.3 504.6,218.2 514.7,218.2 524.7,218.3 534.8,218.2 544.8,218.2 554.9,218.3 565.0,218.1 575.0,218.0 585.1,218.1 595.2,218.1 605.2,218.1 615.3,218.1 625.3,218.0 635.4,217.9 645.5,218.1 655.5,218.2 665.6,218.1 675.6,218.2 685.7,218.0 695.8,218.1 705.8,218.1 715.9,218.0 725.9,218.1 736.0,218.4 746.1,218.7 756.1,218.8 766.2,218.9 776.2,218.9 786.3,218.9 796.4,218.8 806.4,219.0 816.5,219.2 826.5,219.2 836.6,219.2 846.7,219.4 856.7,219.4 866.8,219.2 876.8,219.4 886.9,219.3 897.0,219.4 907.0,219.1 917.1,219.6 927.2,219.0 937.2,219.2 947.3,219.0 957.3,218.9 967.4,219.0 977.5,218.9 987.5,218.9 997.6,219.5 1007.6,219.1 1017.7,219.0 1027.8,218.9 1037.8,219.0 1047.9,219.4 1057.9,219.5 1068.0,219.2"/>
    <polyline fill="none" stroke="#ef4444" stroke-width="2.4" points="72.0,217.8 82.1,217.8 92.1,217.8 102.2,217.6 112.2,217.8 122.3,217.7 132.4,217.6 142.4,217.8 152.5,217.9 162.5,217.8 172.6,217.8 182.7,217.8 192.7,217.8 202.8,217.8 212.8,217.6 222.9,217.9 233.0,217.7 243.0,217.8 253.1,217.9 263.2,217.9 273.2,217.7 283.3,217.8 293.3,217.9 303.4,217.9 313.5,218.1 323.5,217.9 333.6,218.0 343.6,218.2 353.7,218.4 363.8,218.2 373.8,217.9 383.9,218.2 393.9,218.3 404.0,218.4 414.1,217.7 424.1,218.4 434.2,218.3 444.2,218.3 454.3,218.4 464.4,218.2 474.4,218.2 484.5,218.2 494.5,218.2 504.6,218.2 514.7,218.3 524.7,218.3 534.8,218.2 544.8,218.3 554.9,218.2 565.0,218.3 575.0,218.2 585.1,218.2 595.2,217.9 605.2,218.0 615.3,218.0 625.3,218.2 635.4,218.0 645.5,218.0 655.5,218.1 665.6,218.1 675.6,218.0 685.7,218.1 695.8,218.1 705.8,218.0 715.9,218.0 725.9,218.3 736.0,218.5 746.1,218.7 756.1,218.8 766.2,218.9 776.2,219.0 786.3,218.8 796.4,218.9 806.4,219.1 816.5,219.3 826.5,219.1 836.6,219.3 846.7,219.2 856.7,219.3 866.8,219.1 876.8,219.4 886.9,219.3 897.0,219.2 907.0,219.2 917.1,219.1 927.2,219.1 937.2,218.9 947.3,219.1 957.3,219.0 967.4,219.0 977.5,218.9 987.5,219.0 997.6,218.9 1007.6,219.0 1017.7,219.1 1027.8,219.0 1037.8,219.1 1047.9,219.3 1057.9,219.4 1068.0,219.1"/>
    <polyline fill="none" stroke="#7c3aed" stroke-width="2" stroke-dasharray="6 5" points="72.0,237.4 82.1,214.6 92.1,208.6 102.2,283.6 112.2,207.1 122.3,503.4 132.4,265.4 142.4,204.0 152.5,212.4 162.5,238.1 172.6,244.2 182.7,220.0 192.7,206.3 202.8,269.2 212.8,230.6 222.9,207.8 233.0,239.7 243.0,212.4 253.1,198.0 263.2,226.8 273.2,229.0 283.3,228.3 293.3,226.8 303.4,206.3 313.5,213.9 323.5,232.8 333.6,225.3 343.6,220.7 353.7,54.0 363.8,357.9 373.8,400.3 383.9,289.7 393.9,217.7 404.0,233.6 414.1,532.9 424.1,214.6 434.2,340.4 444.2,255.6 454.3,191.9 464.4,235.1 474.4,542.0 484.5,415.5 494.5,326.0 504.6,228.3 514.7,213.1 524.7,216.9 534.8,225.3 544.8,133.6 554.9,232.1 565.0,181.3 575.0,169.2 585.1,209.3 595.2,239.7 605.2,243.4 615.3,271.5 625.3,194.2 635.4,209.3 645.5,242.7 655.5,229.0 665.6,227.5 675.6,307.9 685.7,210.1 695.8,223.0 705.8,236.6 715.9,224.5 725.9,207.1 736.0,212.4 746.1,220.7 756.1,213.9 766.2,221.5 776.2,200.2 786.3,277.5 796.4,204.0 806.4,213.1 816.5,218.4 826.5,230.6 836.6,199.5 846.7,316.2 856.7,229.0 866.8,234.3 876.8,224.5 886.9,238.9 897.0,387.4 907.0,207.8 917.1,442.7 927.2,213.1 937.2,500.3 947.3,210.9 957.3,212.4 967.4,238.9 977.5,227.5 987.5,212.4 997.6,414.7 1007.6,233.6 1017.7,144.2 1027.8,211.6 1037.8,214.6 1047.9,234.3 1057.9,257.1 1068.0,254.0"/>
    <circle cx="82.1" cy="214.6" r="5" fill="#16a34a"><title>Accepted epoch 2, diff 11</title></circle>
    <circle cx="92.1" cy="208.6" r="5" fill="#16a34a"><title>Accepted epoch 3, diff 19</title></circle>
    <circle cx="112.2" cy="207.1" r="5" fill="#16a34a"><title>Accepted epoch 5, diff 21</title></circle>
    <circle cx="142.4" cy="204.0" r="5" fill="#16a34a"><title>Accepted epoch 8, diff 25</title></circle>
    <circle cx="152.5" cy="212.4" r="5" fill="#16a34a"><title>Accepted epoch 9, diff 14</title></circle>
    <circle cx="182.7" cy="220.0" r="5" fill="#16a34a"><title>Accepted epoch 12, diff 4</title></circle>
    <circle cx="192.7" cy="206.3" r="5" fill="#16a34a"><title>Accepted epoch 13, diff 22</title></circle>
    <circle cx="222.9" cy="207.8" r="5" fill="#16a34a"><title>Accepted epoch 16, diff 20</title></circle>
    <circle cx="243.0" cy="212.4" r="5" fill="#16a34a"><title>Accepted epoch 18, diff 14</title></circle>
    <circle cx="253.1" cy="198.0" r="5" fill="#16a34a"><title>Accepted epoch 19, diff 33</title></circle>
    <circle cx="303.4" cy="206.3" r="5" fill="#16a34a"><title>Accepted epoch 24, diff 22</title></circle>
    <circle cx="313.5" cy="213.9" r="5" fill="#16a34a"><title>Accepted epoch 25, diff 12</title></circle>
    <circle cx="343.6" cy="220.7" r="5" fill="#16a34a"><title>Accepted epoch 28, diff 3</title></circle>
    <circle cx="353.7" cy="54.0" r="5" fill="#16a34a"><title>Accepted epoch 29, diff 223</title></circle>
    <circle cx="393.9" cy="217.7" r="5" fill="#16a34a"><title>Accepted epoch 33, diff 7</title></circle>
    <circle cx="424.1" cy="214.6" r="5" fill="#16a34a"><title>Accepted epoch 36, diff 11</title></circle>
    <circle cx="454.3" cy="191.9" r="5" fill="#16a34a"><title>Accepted epoch 39, diff 41</title></circle>
    <circle cx="514.7" cy="213.1" r="5" fill="#16a34a"><title>Accepted epoch 45, diff 13</title></circle>
    <circle cx="524.7" cy="216.9" r="5" fill="#16a34a"><title>Accepted epoch 46, diff 8</title></circle>
    <circle cx="544.8" cy="133.6" r="5" fill="#16a34a"><title>Accepted epoch 48, diff 118</title></circle>
    <circle cx="565.0" cy="181.3" r="5" fill="#16a34a"><title>Accepted epoch 50, diff 55</title></circle>
    <circle cx="575.0" cy="169.2" r="5" fill="#16a34a"><title>Accepted epoch 51, diff 71</title></circle>
    <circle cx="585.1" cy="209.3" r="5" fill="#16a34a"><title>Accepted epoch 52, diff 18</title></circle>
    <circle cx="625.3" cy="194.2" r="5" fill="#16a34a"><title>Accepted epoch 56, diff 38</title></circle>
    <circle cx="635.4" cy="209.3" r="5" fill="#16a34a"><title>Accepted epoch 57, diff 18</title></circle>
    <circle cx="685.7" cy="210.1" r="5" fill="#16a34a"><title>Accepted epoch 62, diff 17</title></circle>
    <circle cx="725.9" cy="207.1" r="5" fill="#16a34a"><title>Accepted epoch 66, diff 21</title></circle>
    <circle cx="736.0" cy="212.4" r="5" fill="#16a34a"><title>Accepted epoch 67, diff 14</title></circle>
    <circle cx="746.1" cy="220.7" r="5" fill="#16a34a"><title>Accepted epoch 68, diff 3</title></circle>
    <circle cx="756.1" cy="213.9" r="5" fill="#16a34a"><title>Accepted epoch 69, diff 12</title></circle>
    <circle cx="766.2" cy="221.5" r="5" fill="#16a34a"><title>Accepted epoch 70, diff 2</title></circle>
    <circle cx="776.2" cy="200.2" r="5" fill="#16a34a"><title>Accepted epoch 71, diff 30</title></circle>
    <circle cx="796.4" cy="204.0" r="5" fill="#16a34a"><title>Accepted epoch 73, diff 25</title></circle>
    <circle cx="806.4" cy="213.1" r="5" fill="#16a34a"><title>Accepted epoch 74, diff 13</title></circle>
    <circle cx="816.5" cy="218.4" r="5" fill="#16a34a"><title>Accepted epoch 75, diff 6</title></circle>
    <circle cx="836.6" cy="199.5" r="5" fill="#16a34a"><title>Accepted epoch 77, diff 31</title></circle>
    <circle cx="907.0" cy="207.8" r="5" fill="#16a34a"><title>Accepted epoch 84, diff 20</title></circle>
    <circle cx="927.2" cy="213.1" r="5" fill="#16a34a"><title>Accepted epoch 86, diff 13</title></circle>
    <circle cx="947.3" cy="210.9" r="5" fill="#16a34a"><title>Accepted epoch 88, diff 16</title></circle>
    <circle cx="957.3" cy="212.4" r="5" fill="#16a34a"><title>Accepted epoch 89, diff 14</title></circle>
    <circle cx="987.5" cy="212.4" r="5" fill="#16a34a"><title>Accepted epoch 92, diff 14</title></circle>
    <circle cx="1017.7" cy="144.2" r="5" fill="#16a34a"><title>Accepted epoch 95, diff 104</title></circle>
    <circle cx="1027.8" cy="211.6" r="5" fill="#16a34a"><title>Accepted epoch 96, diff 15</title></circle>
    <circle cx="1037.8" cy="214.6" r="5" fill="#16a34a"><title>Accepted epoch 97, diff 11</title></circle>
    <g transform="translate(72, 566.0)" font-size="13" fill="#111827">
      <rect x="0" y="-12" width="14" height="4" fill="#2563eb"/><text x="22" y="-7">Candidate avg goals</text>
      <rect x="190" y="-12" width="14" height="4" fill="#ef4444"/><text x="212" y="-7">Baseline avg goals</text>
      <rect x="378" y="-12" width="14" height="4" fill="#7c3aed"/><text x="400" y="-7">Goal diff</text>
      <circle cx="548" cy="-10" r="5" fill="#16a34a"/><text x="562" y="-7">Accepted improvement</text>
    </g>
  </g>
</svg>
