<?xml version="1.0" encoding="UTF-8"?>
<svg xmlns="http://www.w3.org/2000/svg" width="1100" height="620" viewBox="0 0 1100 620">
  <rect width="100%" height="100%" fill="#ffffff"/>
  <text x="72" y="30" font-family="Arial, sans-serif" font-size="22" font-weight="700" fill="#111827">Training progress</text>
  <text x="1068" y="30" text-anchor="end" font-family="Arial, sans-serif" font-size="13" fill="#4b5563">Final champion epoch: 99</text>
  <g font-family="Arial, sans-serif">
    <line x1="72.0" y1="54.0" x2="72.0" y2="542.0" stroke="#eef2f7" stroke-width="1"/>
    <text x="72.0" y="566.0" text-anchor="middle" font-size="12" fill="#4b5563">1</text>
    <line x1="172.6" y1="54.0" x2="172.6" y2="542.0" stroke="#eef2f7" stroke-width="1"/>
    <text x="172.6" y="566.0" text-anchor="middle" font-size="12" fill="#4b5563">11</text>
    <line x1="273.2" y1="54.0" x2="273.2" y2="542.0" stroke="#eef2f7" stroke-width="1"/>
    <text x="273.2" y="566.0" text-anchor="middle" font-size="12" fill="#4b5563">21</text>
    <line x1="373.8" y1="54.0" x2="373.8" y2="542.0" stroke="#eef2f7" stroke-width="1"/>
    <text x="373.8" y="566.0" text-anchor="middle" font-size="12" fill="#4b5563">31</text>
    <line x1="474.4" y1="54.0" x2="474.4" y2="542.0" stroke="#eef2f7" stroke-width="1"/>
    <text x="474.4" y="566.0" text-anchor="middle" font-size="12" fill="#4b5563">41</text>
    <line x1="575.0" y1="54.0" x2="575.0" y2="542.0" stroke="#eef2f7" stroke-width="1"/>
    <text x="575.0" y="566.0" text-anchor="middle" font-size="12" fill="#4b5563">51</text>
    <line x1="675.6" y1="54.0" x2="675.6" y2="542.0" stroke="#eef2f7" stroke-width="1"/>
    <text x="675.6" y="566.0" text-anchor="middle" font-size="12" fill="#4b5563">61</text>
    <line x1="776.2" y1="54.0" x2="776.2" y2="542.0" stroke="#eef2f7" stroke-width="1"/>
    <text x="776.2" y="566.0" text-anchor="middle" font-size="12" fill="#4b5563">71</text>
    <line x1="876.8" y1="54.0" x2="876.8" y2="542.0" stroke="#eef2f7" stroke-width="1"/>
    <text x="876.8" y="566.0" text-anchor="middle" font-size="12" fill="#4b5563">81</text>
    <line x1="977.5" y1="54.0" x2="977.5" y2="542.0" stroke="#eef2f7" stroke-width="1"/>
    <text x="977.5" y="566.0" text-anchor="middle" font-size="12" fill="#4b5563">91</text>
    <line x1="72.0" y1="542.0" x2="1068.0" y2="542.0" stroke="#d8dee9" stroke-width="1" opacity="0.55"/>
    <text x="60.0" y="546.0" text-anchor="end" font-size="12" fill="#4b5563">-1164.0</text>
    <line x1="72.0" y1="444.4" x2="1068.0" y2="444.4" stroke="#d8dee9" stroke-width="1" opacity="0.55"/>
    <text x="60.0" y="448.4" text-anchor="end" font-size="12" fill="#4b5563">-697.8</text>
    <line x1="72.0" y1="346.8" x2="1068.0" y2="346.8" stroke="#d8dee9" stroke-width="1" opacity="0.55"/>
    <text x="60.0" y="350.8" text-anchor="end" font-size="12" fill="#4b5563">-231.6</text>
    <line x1="72.0" y1="249.2" x2="1068.0" y2="249.2" stroke="#d8dee9" stroke-width="1" opacity="0.55"/>
    <text x="60.0" y="253.2" text-anchor="end" font-size="12" fill="#4b5563">234.6</text>
    <line x1="72.0" y1="151.6" x2="1068.0" y2="151.6" stroke="#d8dee9" stroke-width="1" opacity="0.55"/>
    <text x="60.0" y="155.6" text-anchor="end" font-size="12" fill="#4b5563">700.8</text>
    <line x1="72.0" y1="54.0" x2="1068.0" y2="54.0" stroke="#d8dee9" stroke-width="1" opacity="0.55"/>
    <text x="60.0" y="58.0" text-anchor="end" font-size="12" fill="#4b5563">1167.0</text>
    <line x1="72.0" y1="54.0" x2="72.0" y2="542.0" stroke="#111827" stroke-width="1.4"/>
    <line x1="72.0" y1="542.0" x2="1068.0" y2="542.0" stroke="#111827" stroke-width="1.4"/>
    <text x="570.0" y="596.0" text-anchor="middle" font-size="13" fill="#111827">Epoch</text>
    <text x="20" y="298.0" transform="rotate(-90 20 298.0)" text-anchor="middle" font-size="13" fill="#111827">Goals / goal diff</text>
    <polyline fill="none" stroke="#2563eb" stroke-width="2.4" points="72.0,298.1 82.1,298.2 92.1,298.2 102.2,298.1 112.2,298.2 122.3,298.2 132.4,298.1 142.4,298.1 152.5,298.1 162.5,298.2 172.6,298.2 182.7,298.1 192.7,298.1 202.8,298.1 212.8,298.1 222.9,298.1 233.0,298.1 243.0,298.1 253.1,298.1 263.2,298.1 273.2,298.1 283.3,298.1 293.3,298.1 303.4,298.1 313.5,298.1 323.5,298.1 333.6,298.1 343.6,298.1 353.7,298.1 363.8,298.2 373.8,298.1 383.9,298.1 393.9,298.2 404.0,298.2 414.1,298.1 424.1,298.1 434.2,298.1 444.2,298.1 454.3,298.1 464.4,298.1 474.4,298.1 484.5,298.1 494.5,298.1 504.6,298.1 514.7,298.1 524.7,298.1 534.8,298.1 544.8,298.1 554.9,298.1 565.0,298.1 575.0,298.1 585.1,298.1 595.2,298.1 605.2,298.1 615.3,298.1 625.3,298.1 635.4,298.1 645.5,298.1 655.5,298.1 665.6,298.1 675.6,298.1 685.7,298.1 695.8,298.1 705.8,298.1 715.9,298.2 725.9,298.1 736.0,298.1 746.1,298.1 756.1,298.1 766.2,298.1 776.2,298.1 786.3,298.1 796.4,298.1 806.4,298.1 816.5,298.1 826.5,298.1 836.6,298.1 846.7,298.1 856.7,298.1 866.8,298.1 876.8,298.2 886.9,298.1 897.0,298.2 907.0,298.1 917.1,298.1 927.2,298.1 937.2,298.1 947.3,298.1 957.3,298.1 967.4,298.2 977.5,298.1 987.5,298.1 997.6,298.2 1007.6,298.1 1017.7,298.1 1027.8,298.1 1037.8,298.1 1047.9,298.1 1057.9,298.1 1068.0,298.1"/>
    <polyline fill="none" stroke="#ef4444" stroke-width="2.4" points="72.0,298.1 82.1,298.1 92.1,298.0 102.2,298.1 112.2,298.1 122.3,298.1 132.4,298.1 142.4,298.1 152.5,298.1 162.5,298.1 172.6,297.9 182.7,298.1 192.7,298.1 202.8,298.1 212.8,298.1 222.9,298.1 233.0,298.1 243.0,298.1 253.1,298.1 263.2,298.1 273.2,298.1 283.3,298.1 293.3,298.1 303.4,298.1 313.5,298.1 323.5,298.1 333.6,298.1 343.6,298.1 353.7,298.1 363.8,298.1 373.8,298.1 383.9,298.1 393.9,298.1 404.0,297.9 414.1,298.1 424.1,298.1 434.2,298.1 444.2,298.1 454.3,298.1 464.4,298.1 474.4,298.1 484.5,298.1 494.5,298.1 504.6,298.1 514.7,298.1 524.7,298.1 534.8,298.1 544.8,298.1 554.9,298.1 565.0,298.1 575.0,298.1 585.1,298.1 595.2,298.1 605.2,298.1 615.3,298.0 625.3,298.1 635.4,298.1 645.5,298.0 655.5,298.1 665.6,298.1 675.6,298.1 685.7,298.1 695.8,298.1 705.8,298.1 715.9,298.1 725.9,298.1 736.0,298.1 746.1,298.1 756.1,298.1 766.2,298.1 776.2,298.1 786.3,298.1 796.4,298.1 806.4,298.1 816.5,298.1 826.5,298.1 836.6,298.1 846.7,298.1 856.7,298.0 866.8,298.1 876.8,298.0 886.9,298.1 897.0,298.1 907.0,298.1 917.1,298.1 927.2,298.1 937.2,298.1 947.3,298.1 957.3,298.1 967.4,298.0 977.5,298.1 987.5,298.1 997.6,297.8 1007.6,298.1 1017.7,298.1 1027.8,298.1 1037.8,298.1 1047.9,298.1 1057.9,298.1 1068.0,298.1"/>
    <polyline fill="none" stroke="#7c3aed" stroke-width="2" stroke-dasharray="6 5" points="72.0,303.5 82.1,307.9 92.1,317.6 102.2,411.4 112.2,305.6 122.3,314.2 132.4,369.1 142.4,116.8 152.5,197.0 162.5,311.5 172.6,319.7 182.7,345.8 192.7,348.3 202.8,285.8 212.8,445.1 222.9,348.8 233.0,267.5 243.0,346.0 253.1,382.1 263.2,279.7 273.2,300.4 283.3,358.8 293.3,354.8 303.4,222.7 313.5,362.8 323.5,460.6 333.6,300.6 343.6,231.1 353.7,310.2 363.8,313.2 373.8,524.0 383.9,156.8 393.9,307.9 404.0,329.3 414.1,250.2 424.1,377.0 434.2,324.7 444.2,418.9 454.3,364.7 464.4,340.4 474.4,351.5 484.5,320.1 494.5,384.4 504.6,374.5 514.7,167.1 524.7,54.0 534.8,542.0 544.8,416.0 554.9,314.4 565.0,337.5 575.0,490.5 585.1,211.6 595.2,476.1 605.2,391.9 615.3,307.9 625.3,334.3 635.4,354.0 645.5,308.2 655.5,373.5 665.6,338.3 675.6,365.7 685.7,481.3 695.8,259.0 705.8,310.5 715.9,304.8 725.9,385.2 736.0,345.4 746.1,329.5 756.1,347.5 766.2,386.7 776.2,512.1 786.3,320.1 796.4,315.1 806.4,341.9 816.5,120.8 826.5,306.7 836.6,189.9 846.7,291.2 856.7,310.7 866.8,210.8 876.8,319.0 886.9,461.6 897.0,309.4 907.0,465.2 917.1,410.9 927.2,353.2 937.2,316.3 947.3,128.7 957.3,313.8 967.4,311.5 977.5,86.7 987.5,423.9 997.6,336.0 1007.6,508.3 1017.7,485.1 1027.8,315.5 1037.8,222.5 1047.9,245.8 1057.9,166.0 1068.0,315.5"/>
    <circle cx="142.4" cy="116.8" r="5" fill="#16a34a"><title>Accepted epoch 8, diff 867</title></circle>
    <circle cx="152.5" cy="197.0" r="5" fill="#16a34a"><title>Accepted epoch 9, diff 484</title></circle>
    <circle cx="202.8" cy="285.8" r="5" fill="#16a34a"><title>Accepted epoch 14, diff 60</title></circle>
    <circle cx="233.0" cy="267.5" r="5" fill="#16a34a"><title>Accepted epoch 17, diff 147</title></circle>
    <circle cx="263.2" cy="279.7" r="5" fill="#16a34a"><title>Accepted epoch 20, diff 89</title></circle>
    <circle cx="303.4" cy="222.7" r="5" fill="#16a34a"><title>Accepted epoch 24, diff 361</title></circle>
    <circle cx="343.6" cy="231.1" r="5" fill="#16a34a"><title>Accepted epoch 28, diff 321</title></circle>
    <circle cx="383.9" cy="156.8" r="5" fill="#16a34a"><title>Accepted epoch 32, diff 676</title></circle>
    <circle cx="414.1" cy="250.2" r="5" fill="#16a34a"><title>Accepted epoch 35, diff 230</title></circle>
    <circle cx="514.7" cy="167.1" r="5" fill="#16a34a"><title>Accepted epoch 45, diff 627</title></circle>
    <circle cx="524.7" cy="54.0" r="5" fill="#16a34a"><title>Accepted epoch 46, diff 1167</title></circle>
    <circle cx="585.1" cy="211.6" r="5" fill="#16a34a"><title>Accepted epoch 52, diff 414</title></circle>
    <circle cx="695.8" cy="259.0" r="5" fill="#16a34a"><title>Accepted epoch 63, diff 188</title></circle>
    <circle cx="816.5" cy="120.8" r="5" fill="#16a34a"><title>Accepted epoch 75, diff 848</title></circle>
    <circle cx="836.6" cy="189.9" r="5" fill="#16a34a"><title>Accepted epoch 77, diff 518</title></circle>
    <circle cx="846.7" cy="291.2" r="5" fill="#16a34a"><title>Accepted epoch 78, diff 34</title></circle>
    <circle cx="866.8" cy="210.8" r="5" fill="#16a34a"><title>Accepted epoch 80, diff 418</title></circle>
    <circle cx="947.3" cy="128.7" r="5" fill="#16a34a"><title>Accepted epoch 88, diff 810</title></circle>
    <circle cx="977.5" cy="86.7" r="5" fill="#16a34a"><title>Accepted epoch 91, diff 1011</title></circle>
    <circle cx="1037.8" cy="222.5" r="5" fill="#16a34a"><title>Accepted epoch 97, diff 362</title></circle>
    <circle cx="1047.9" cy="245.8" r="5" fill="#16a34a"><title>Accepted epoch 98, diff 251</title></circle>
    <circle cx="1057.9" cy="166.0" r="5" fill="#16a34a"><title>Accepted epoch 99, diff 632</title></circle>
    <g transform="translate(72, 566.0)" font-size="13" fill="#111827">
      <rect x="0" y="-12" width="14" height="4" fill="#2563eb"/><text x="22" y="-7">Candidate avg goals</text>
      <rect x="190" y="-12" width="14" height="4" fill="#ef4444"/><text x="212" y="-7">Baseline avg goals</text>
      <rect x="378" y="-12" width="14" height="4" fill="#7c3aed"/><text x="400" y="-7">Goal diff</text>
      <circle cx="548" cy="-10" r="5" fill="#16a34a"/><text x="562" y="-7">Accepted improvement</text>
    </g>
  </g>
</svg>
