<?xml version="1.0" encoding="UTF-8"?>
<svg xmlns="http://www.w3.org/2000/svg" width="1100" height="620" viewBox="0 0 1100 620">
  <rect width="100%" height="100%" fill="#ffffff"/>
  <text x="72" y="30" font-family="Arial, sans-serif" font-size="22" font-weight="700" fill="#111827">Training progress</text>
  <text x="1068" y="30" text-anchor="end" font-family="Arial, sans-serif" font-size="13" fill="#4b5563">Final champion epoch: 997</text>
  <g font-family="Arial, sans-serif">
    <line x1="72.0" y1="54.0" x2="72.0" y2="542.0" stroke="#eef2f7" stroke-width="1"/>
    <text x="72.0" y="566.0" text-anchor="middle" font-size="12" fill="#4b5563">1</text>
    <line x1="171.7" y1="54.0" x2="171.7" y2="542.0" stroke="#eef2f7" stroke-width="1"/>
    <text x="171.7" y="566.0" text-anchor="middle" font-size="12" fill="#4b5563">101</text>
    <line x1="271.4" y1="54.0" x2="271.4" y2="542.0" stroke="#eef2f7" stroke-width="1"/>
    <text x="271.4" y="566.0" text-anchor="middle" font-size="12" fill="#4b5563">201</text>
    <line x1="371.1" y1="54.0" x2="371.1" y2="542.0" stroke="#eef2f7" stroke-width="1"/>
    <text x="371.1" y="566.0" text-anchor="middle" font-size="12" fill="#4b5563">301</text>
    <line x1="470.8" y1="54.0" x2="470.8" y2="542.0" stroke="#eef2f7" stroke-width="1"/>
    <text x="470.8" y="566.0" text-anchor="middle" font-size="12" fill="#4b5563">401</text>
    <line x1="570.5" y1="54.0" x2="570.5" y2="542.0" stroke="#eef2f7" stroke-width="1"/>
    <text x="570.5" y="566.0" text-anchor="middle" font-size="12" fill="#4b5563">501</text>
    <line x1="670.2" y1="54.0" x2="670.2" y2="542.0" stroke="#eef2f7" stroke-width="1"/>
    <text x="670.2" y="566.0" text-anchor="middle" font-size="12" fill="#4b5563">601</text>
    <line x1="769.9" y1="54.0" x2="769.9" y2="542.0" stroke="#eef2f7" stroke-width="1"/>
    <text x="769.9" y="566.0" text-anchor="middle" font-size="12" fill="#4b5563">701</text>
    <line x1="869.6" y1="54.0" x2="869.6" y2="542.0" stroke="#eef2f7" stroke-width="1"/>
    <text x="869.6" y="566.0" text-anchor="middle" font-size="12" fill="#4b5563">801</text>
    <line x1="969.3" y1="54.0" x2="969.3" y2="542.0" stroke="#eef2f7" stroke-width="1"/>
    <text x="969.3" y="566.0" text-anchor="middle" font-size="12" fill="#4b5563">901</text>
    <line x1="72.0" y1="542.0" x2="1068.0" y2="542.0" stroke="#d8dee9" stroke-width="1" opacity="0.55"/>
    <text x="60.0" y="546.0" text-anchor="end" font-size="12" fill="#4b5563">-516.0</text>
    <line x1="72.0" y1="444.4" x2="1068.0" y2="444.4" stroke="#d8dee9" stroke-width="1" opacity="0.55"/>
    <text x="60.0" y="448.4" text-anchor="end" font-size="12" fill="#4b5563">-353.6</text>
    <line x1="72.0" y1="346.8" x2="1068.0" y2="346.8" stroke="#d8dee9" stroke-width="1" opacity="0.55"/>
    <text x="60.0" y="350.8" text-anchor="end" font-size="12" fill="#4b5563">-191.2</text>
    <line x1="72.0" y1="249.2" x2="1068.0" y2="249.2" stroke="#d8dee9" stroke-width="1" opacity="0.55"/>
    <text x="60.0" y="253.2" text-anchor="end" font-size="12" fill="#4b5563">-28.8</text>
    <line x1="72.0" y1="151.6" x2="1068.0" y2="151.6" stroke="#d8dee9" stroke-width="1" opacity="0.55"/>
    <text x="60.0" y="155.6" text-anchor="end" font-size="12" fill="#4b5563">133.6</text>
    <line x1="72.0" y1="54.0" x2="1068.0" y2="54.0" stroke="#d8dee9" stroke-width="1" opacity="0.55"/>
    <text x="60.0" y="58.0" text-anchor="end" font-size="12" fill="#4b5563">296.0</text>
    <line x1="72.0" y1="54.0" x2="72.0" y2="542.0" stroke="#111827" stroke-width="1.4"/>
    <line x1="72.0" y1="542.0" x2="1068.0" y2="542.0" stroke="#111827" stroke-width="1.4"/>
    <text x="570.0" y="596.0" text-anchor="middle" font-size="13" fill="#111827">Epoch</text>
    <text x="20" y="298.0" transform="rotate(-90 20 298.0)" text-anchor="middle" font-size="13" fill="#111827">Goals / goal diff</text>
    <polyline fill="none" stroke="#2563eb" stroke-width="2.4" points="72.0,228.5 73.0,229.1 74.0,228.8 75.0,230.3 76.0,229.4 77.0,228.5 78.0,228.5 79.0,228.4 80.0,231.3 81.0,228.4 82.0,228.5 83.0,228.6 84.0,228.5 85.0,228.5 86.0,228.5 87.0,228.8 88.0,228.9 88.9,229.0 89.9,228.6 90.9,231.3 91.9,229.7 92.9,228.5 93.9,229.3 94.9,229.6 95.9,228.5 96.9,231.4 97.9,231.3 98.9,229.5 99.9,229.0 100.9,228.5 101.9,228.4 102.9,228.6 103.9,231.9 104.9,228.8 105.9,231.9 106.9,228.9 107.9,228.4 108.9,228.3 109.9,230.1 110.9,228.6 111.9,228.3 112.9,228.3 113.9,228.4 114.9,228.4 115.9,228.8 116.9,228.4 117.9,228.5 118.9,231.9 119.9,228.5 120.9,230.4 121.8,228.5 122.8,231.6 123.8,228.5 124.8,228.5 125.8,228.7 126.8,228.5 127.8,229.1 128.8,228.7 129.8,228.6 130.8,229.8 131.8,228.6 132.8,228.6 133.8,228.6 134.8,228.5 135.8,228.6 136.8,228.8 137.8,228.6 138.8,228.4 139.8,228.4 140.8,228.4 141.8,228.4 142.8,228.4 143.8,228.4 144.8,228.3 145.8,228.6 146.8,228.5 147.8,228.5 148.8,228.6 149.8,231.5 150.8,228.9 151.8,228.9 152.8,228.4 153.8,231.3 154.8,228.7 155.7,228.5 156.7,229.1 157.7,228.4 158.7,228.4 159.7,231.0 160.7,228.6 161.7,228.6 162.7,230.2 163.7,228.4 164.7,228.6 165.7,231.4 166.7,228.6 167.7,228.7 168.7,228.5 169.7,228.3 170.7,231.4 171.7,228.4 172.7,228.6 173.7,228.8 174.7,228.4 175.7,228.5 176.7,228.5 177.7,228.6 178.7,228.4 179.7,228.3 180.7,228.3 181.7,228.4 182.7,228.5 183.7,231.9 184.7,231.1 185.7,228.6 186.7,228.4 187.7,228.7 188.6,229.4 189.6,228.4 190.6,228.4 191.6,228.9 192.6,229.1 193.6,229.0 194.6,228.6 195.6,228.6 196.6,228.3 197.6,229.6 198.6,231.4 199.6,228.4 200.6,229.4 201.6,228.4 202.6,231.5 203.6,231.4 204.6,228.7 205.6,228.3 206.6,228.5 207.6,228.4 208.6,228.3 209.6,228.4 210.6,229.2 211.6,231.5 212.6,228.4 213.6,229.0 214.6,228.9 215.6,228.5 216.6,228.5 217.6,228.4 218.6,230.7 219.6,228.4 220.6,228.9 221.5,228.4 222.5,228.4 223.5,228.4 224.5,228.4 225.5,228.5 226.5,228.6 227.5,228.3 228.5,228.8 229.5,228.4 230.5,230.5 231.5,228.4 232.5,228.4 233.5,228.4 234.5,228.5 235.5,228.4 236.5,228.3 237.5,228.6 238.5,231.5 239.5,229.5 240.5,228.8 241.5,230.7 242.5,229.2 243.5,228.4 244.5,228.5 245.5,228.4 246.5,228.4 247.5,228.5 248.5,229.0 249.5,228.5 250.5,228.5 251.5,228.4 252.5,231.5 253.5,228.7 254.5,229.0 255.4,228.6 256.4,228.6 257.4,228.6 258.4,228.4 259.4,231.8 260.4,228.8 261.4,228.4 262.4,231.3 263.4,229.0 264.4,228.4 265.4,228.4 266.4,228.4 267.4,230.5 268.4,228.3 269.4,231.3 270.4,228.8 271.4,228.4 272.4,228.4 273.4,228.4 274.4,228.4 275.4,228.8 276.4,228.5 277.4,228.5 278.4,228.4 279.4,228.4 280.4,228.3 281.4,228.6 282.4,228.3 283.4,228.4 284.4,228.4 285.4,228.4 286.4,228.3 287.4,228.4 288.3,228.5 289.3,230.4 290.3,228.4 291.3,228.2 292.3,231.9 293.3,228.3 294.3,228.4 295.3,228.3 296.3,228.4 297.3,228.3 298.3,228.3 299.3,229.6 300.3,231.4 301.3,228.4 302.3,228.3 303.3,228.3 304.3,231.4 305.3,228.6 306.3,228.3 307.3,229.2 308.3,228.3 309.3,231.4 310.3,228.4 311.3,231.4 312.3,228.5 313.3,228.4 314.3,228.3 315.3,228.6 316.3,231.3 317.3,228.3 318.3,228.3 319.3,228.7 320.3,228.3 321.2,228.3 322.2,228.4 323.2,228.4 324.2,228.3 325.2,229.4 326.2,228.3 327.2,228.2 328.2,228.2 329.2,229.4 330.2,228.3 331.2,228.5 332.2,231.3 333.2,230.1 334.2,228.3 335.2,228.4 336.2,228.3 337.2,228.3 338.2,228.3 339.2,229.3 340.2,231.9 341.2,228.3 342.2,230.4 343.2,228.2 344.2,228.6 345.2,228.3 346.2,228.7 347.2,228.2 348.2,228.2 349.2,228.5 350.2,228.2 351.2,229.4 352.2,231.3 353.2,228.2 354.2,228.4 355.1,229.0 356.1,228.2 357.1,231.4 358.1,228.4 359.1,228.3 360.1,228.2 361.1,228.2 362.1,228.4 363.1,231.2 364.1,228.2 365.1,228.2 366.1,231.2 367.1,229.5 368.1,228.7 369.1,228.3 370.1,228.3 371.1,228.2 372.1,228.5 373.1,228.2 374.1,228.3 375.1,228.2 376.1,228.5 377.1,228.5 378.1,228.5 379.1,228.4 380.1,228.8 381.1,228.7 382.1,228.4 383.1,229.2 384.1,228.8 385.1,228.5 386.1,229.9 387.1,228.4 388.0,228.3 389.0,228.3 390.0,228.2 391.0,228.2 392.0,228.4 393.0,230.6 394.0,228.3 395.0,228.2 396.0,228.2 397.0,228.9 398.0,228.3 399.0,228.2 400.0,228.5 401.0,228.6 402.0,228.3 403.0,228.3 404.0,228.2 405.0,228.2 406.0,228.2 407.0,230.1 408.0,228.2 409.0,228.4 410.0,231.5 411.0,228.4 412.0,231.5 413.0,228.2 414.0,231.4 415.0,228.7 416.0,228.5 417.0,228.2 418.0,228.3 419.0,228.2 420.0,228.5 420.9,229.0 421.9,228.3 422.9,231.7 423.9,228.6 424.9,228.2 425.9,228.2 426.9,228.6 427.9,228.5 428.9,228.3 429.9,228.4 430.9,228.3 431.9,231.5 432.9,229.6 433.9,230.2 434.9,228.3 435.9,228.9 436.9,228.3 437.9,228.2 438.9,228.6 439.9,228.9 440.9,231.8 441.9,228.3 442.9,228.2 443.9,228.2 444.9,228.3 445.9,228.2 446.9,228.3 447.9,228.2 448.9,228.5 449.9,228.4 450.9,228.3 451.9,231.9 452.9,230.1 453.8,228.8 454.8,230.1 455.8,228.2 456.8,231.9 457.8,228.4 458.8,228.3 459.8,228.3 460.8,228.8 461.8,228.3 462.8,228.3 463.8,228.3 464.8,228.2 465.8,228.3 466.8,230.3 467.8,228.1 468.8,228.7 469.8,228.2 470.8,228.4 471.8,228.5 472.8,228.2 473.8,228.8 474.8,228.3 475.8,229.2 476.8,228.9 477.8,228.4 478.8,228.3 479.8,228.3 480.8,228.2 481.8,231.5 482.8,228.2 483.8,228.2 484.8,229.5 485.8,230.3 486.8,228.3 487.7,228.6 488.7,228.2 489.7,230.0 490.7,228.2 491.7,229.0 492.7,228.2 493.7,228.7 494.7,228.8 495.7,230.6 496.7,228.9 497.7,228.1 498.7,229.9 499.7,228.2 500.7,228.3 501.7,228.8 502.7,228.2 503.7,229.4 504.7,228.2 505.7,228.2 506.7,228.3 507.7,228.2 508.7,228.3 509.7,228.3 510.7,229.2 511.7,228.2 512.7,228.2 513.7,228.8 514.7,228.9 515.7,228.2 516.7,230.1 517.7,228.9 518.7,228.3 519.7,228.3 520.6,228.5 521.6,228.5 522.6,228.3 523.6,229.9 524.6,228.3 525.6,228.3 526.6,228.3 527.6,228.4 528.6,228.2 529.6,228.7 530.6,228.2 531.6,228.3 532.6,228.6 533.6,228.3 534.6,228.5 535.6,231.3 536.6,228.3 537.6,228.3 538.6,231.9 539.6,228.7 540.6,231.4 541.6,228.1 542.6,228.3 543.6,228.7 544.6,228.4 545.6,228.3 546.6,229.9 547.6,228.3 548.6,228.3 549.6,229.3 550.6,228.2 551.6,228.3 552.6,228.1 553.5,228.2 554.5,228.2 555.5,228.3 556.5,228.4 557.5,228.2 558.5,228.4 559.5,228.2 560.5,228.4 561.5,228.2 562.5,228.2 563.5,231.8 564.5,231.4 565.5,228.2 566.5,228.2 567.5,228.2 568.5,228.3 569.5,229.6 570.5,228.4 571.5,228.3 572.5,228.2 573.5,228.3 574.5,228.2 575.5,231.8 576.5,228.2 577.5,228.2 578.5,228.2 579.5,228.3 580.5,228.3 581.5,228.3 582.5,228.1 583.5,228.2 584.5,229.1 585.5,228.3 586.5,230.9 587.4,228.2 588.4,228.2 589.4,228.2 590.4,228.2 591.4,229.0 592.4,228.3 593.4,228.2 594.4,228.6 595.4,228.3 596.4,228.4 597.4,230.7 598.4,228.8 599.4,228.3 600.4,228.3 601.4,228.3 602.4,228.5 603.4,228.2 604.4,228.2 605.4,228.4 606.4,228.3 607.4,231.5 608.4,228.3 609.4,228.3 610.4,228.6 611.4,231.2 612.4,228.2 613.4,228.2 614.4,228.4 615.4,228.4 616.4,228.3 617.4,228.4 618.4,228.3 619.4,229.6 620.3,228.3 621.3,228.4 622.3,228.4 623.3,228.6 624.3,228.6 625.3,231.4 626.3,228.3 627.3,228.3 628.3,231.8 629.3,228.3 630.3,228.3 631.3,231.4 632.3,231.1 633.3,228.3 634.3,230.4 635.3,229.5 636.3,228.2 637.3,228.3 638.3,228.2 639.3,229.3 640.3,231.1 641.3,231.3 642.3,228.3 643.3,228.7 644.3,228.3 645.3,228.8 646.3,228.7 647.3,228.2 648.3,228.2 649.3,229.0 650.3,228.2 651.3,228.3 652.3,228.6 653.2,231.7 654.2,228.2 655.2,228.9 656.2,228.4 657.2,228.7 658.2,228.3 659.2,228.4 660.2,228.4 661.2,228.3 662.2,228.5 663.2,229.0 664.2,228.2 665.2,228.2 666.2,228.3 667.2,228.4 668.2,228.4 669.2,228.2 670.2,228.3 671.2,228.5 672.2,228.4 673.2,228.4 674.2,228.3 675.2,228.3 676.2,230.4 677.2,228.4 678.2,229.0 679.2,230.2 680.2,228.3 681.2,228.3 682.2,228.5 683.2,228.3 684.2,228.3 685.2,228.3 686.2,228.4 687.1,228.3 688.1,228.4 689.1,228.3 690.1,228.4 691.1,228.4 692.1,228.5 693.1,231.8 694.1,228.6 695.1,229.5 696.1,230.1 697.1,229.7 698.1,228.5 699.1,228.6 700.1,228.5 701.1,229.7 702.1,228.5 703.1,229.3 704.1,228.5 705.1,228.7 706.1,228.5 707.1,228.5 708.1,228.5 709.1,228.7 710.1,231.2 711.1,228.5 712.1,228.5 713.1,231.9 714.1,228.5 715.1,228.6 716.1,228.6 717.1,228.6 718.1,228.6 719.1,229.1 720.0,231.2 721.0,228.6 722.0,228.6 723.0,228.7 724.0,228.7 725.0,228.6 726.0,228.5 727.0,228.7 728.0,228.7 729.0,229.4 730.0,229.2 731.0,228.7 732.0,228.4 733.0,228.4 734.0,231.5 735.0,228.5 736.0,228.5 737.0,231.4 738.0,228.4 739.0,228.4 740.0,231.3 741.0,228.4 742.0,228.4 743.0,228.3 744.0,228.4 745.0,228.6 746.0,228.6 747.0,228.3 748.0,229.5 749.0,228.4 750.0,228.4 751.0,231.8 752.0,228.5 752.9,228.8 753.9,228.4 754.9,228.7 755.9,228.6 756.9,228.5 757.9,228.5 758.9,228.5 759.9,228.7 760.9,228.6 761.9,228.6 762.9,228.6 763.9,228.6 764.9,228.6 765.9,228.6 766.9,228.6 767.9,231.2 768.9,231.5 769.9,228.5 770.9,228.6 771.9,228.7 772.9,228.6 773.9,228.6 774.9,231.4 775.9,228.6 776.9,228.8 777.9,229.4 778.9,228.6 779.9,228.6 780.9,228.7 781.9,228.6 782.9,228.7 783.9,228.7 784.9,228.8 785.8,228.9 786.8,229.9 787.8,228.5 788.8,228.6 789.8,228.5 790.8,228.8 791.8,228.4 792.8,228.6 793.8,228.4 794.8,228.4 795.8,230.3 796.8,228.4 797.8,230.3 798.8,228.4 799.8,228.4 800.8,228.4 801.8,228.8 802.8,228.5 803.8,229.2 804.8,231.9 805.8,228.5 806.8,229.4 807.8,229.0 808.8,228.5 809.8,228.4 810.8,228.5 811.8,228.5 812.8,228.5 813.8,228.4 814.8,229.6 815.8,228.7 816.8,228.6 817.8,228.5 818.8,228.5 819.7,228.6 820.7,228.4 821.7,228.3 822.7,228.4 823.7,228.5 824.7,228.9 825.7,228.5 826.7,231.4 827.7,228.4 828.7,228.3 829.7,228.4 830.7,228.4 831.7,228.6 832.7,228.8 833.7,228.5 834.7,228.3 835.7,230.3 836.7,228.3 837.7,228.3 838.7,228.4 839.7,231.2 840.7,228.3 841.7,228.4 842.7,228.3 843.7,228.4 844.7,228.6 845.7,228.4 846.7,228.3 847.7,228.6 848.7,228.4 849.7,228.4 850.7,228.4 851.7,228.4 852.6,228.5 853.6,228.5 854.6,228.4 855.6,228.9 856.6,231.4 857.6,230.5 858.6,228.4 859.6,228.3 860.6,228.3 861.6,228.6 862.6,229.4 863.6,228.7 864.6,228.4 865.6,228.4 866.6,228.3 867.6,228.7 868.6,228.4 869.6,228.4 870.6,228.4 871.6,228.3 872.6,228.4 873.6,228.4 874.6,231.4 875.6,228.5 876.6,228.6 877.6,228.7 878.6,228.4 879.6,228.3 880.6,228.4 881.6,228.4 882.6,228.3 883.6,228.4 884.6,228.4 885.5,229.4 886.5,228.4 887.5,228.4 888.5,231.5 889.5,228.3 890.5,229.6 891.5,231.0 892.5,228.4 893.5,228.7 894.5,228.3 895.5,229.0 896.5,228.6 897.5,228.5 898.5,228.5 899.5,228.4 900.5,228.6 901.5,231.4 902.5,228.6 903.5,231.3 904.5,229.5 905.5,231.3 906.5,231.2 907.5,228.7 908.5,228.5 909.5,228.4 910.5,231.4 911.5,228.5 912.5,228.7 913.5,231.4 914.5,231.4 915.5,228.6 916.5,228.4 917.5,230.8 918.5,229.0 919.4,229.5 920.4,229.5 921.4,228.6 922.4,228.8 923.4,228.4 924.4,228.4 925.4,228.4 926.4,231.3 927.4,231.1 928.4,228.9 929.4,228.4 930.4,228.4 931.4,228.5 932.4,228.4 933.4,229.4 934.4,229.0 935.4,228.6 936.4,228.5 937.4,228.5 938.4,228.4 939.4,228.3 940.4,228.3 941.4,228.4 942.4,231.3 943.4,228.4 944.4,228.5 945.4,228.5 946.4,228.4 947.4,228.3 948.4,228.8 949.4,228.4 950.4,231.2 951.4,228.4 952.3,229.1 953.3,230.5 954.3,228.7 955.3,228.4 956.3,228.4 957.3,228.4 958.3,228.4 959.3,228.9 960.3,228.5 961.3,228.4 962.3,228.4 963.3,229.1 964.3,229.6 965.3,231.8 966.3,228.8 967.3,228.4 968.3,228.5 969.3,228.5 970.3,228.5 971.3,228.4 972.3,228.4 973.3,229.6 974.3,231.3 975.3,228.5 976.3,228.6 977.3,228.4 978.3,228.3 979.3,228.4 980.3,228.8 981.3,228.3 982.3,228.4 983.3,228.4 984.3,228.4 985.2,228.9 986.2,230.4 987.2,228.5 988.2,230.7 989.2,228.8 990.2,228.4 991.2,228.4 992.2,228.4 993.2,231.1 994.2,228.4 995.2,228.5 996.2,231.0 997.2,231.8 998.2,228.8 999.2,228.7 1000.2,228.8 1001.2,228.9 1002.2,230.1 1003.2,231.9 1004.2,228.7 1005.2,228.6 1006.2,228.7 1007.2,228.5 1008.2,228.5 1009.2,228.7 1010.2,231.3 1011.2,231.3 1012.2,228.5 1013.2,231.3 1014.2,231.8 1015.2,228.6 1016.2,231.9 1017.2,228.6 1018.2,228.7 1019.1,231.8 1020.1,228.7 1021.1,228.7 1022.1,228.8 1023.1,228.7 1024.1,228.7 1025.1,228.9 1026.1,231.5 1027.1,228.8 1028.1,228.8 1029.1,228.8 1030.1,231.5 1031.1,228.7 1032.1,228.7 1033.1,229.0 1034.1,228.6 1035.1,229.5 1036.1,231.9 1037.1,228.6 1038.1,228.5 1039.1,228.4 1040.1,228.4 1041.1,228.5 1042.1,228.6 1043.1,228.3 1044.1,229.4 1045.1,228.4 1046.1,228.4 1047.1,229.4 1048.1,228.4 1049.1,229.0 1050.1,228.4 1051.1,228.4 1052.0,228.3 1053.0,229.6 1054.0,228.3 1055.0,228.4 1056.0,228.4 1057.0,229.3 1058.0,228.4 1059.0,228.5 1060.0,228.4 1061.0,228.3 1062.0,228.4 1063.0,228.3 1064.0,228.5 1065.0,228.3 1066.0,228.5 1067.0,228.6 1068.0,228.5"/>
    <polyline fill="none" stroke="#ef4444" stroke-width="2.4" points="72.0,228.3 73.0,228.5 74.0,228.5 75.0,229.6 76.0,228.8 77.0,228.3 78.0,228.4 79.0,228.4 80.0,230.5 81.0,228.4 82.0,228.4 83.0,228.5 84.0,228.5 85.0,228.4 86.0,228.4 87.0,228.6 88.0,228.5 88.9,228.6 89.9,228.5 90.9,230.1 91.9,229.1 92.9,228.5 93.9,229.0 94.9,228.7 95.9,228.4 96.9,229.8 97.9,230.5 98.9,228.9 99.9,228.7 100.9,228.5 101.9,228.6 102.9,228.5 103.9,230.7 104.9,228.6 105.9,230.8 106.9,228.6 107.9,228.4 108.9,228.3 109.9,229.4 110.9,228.5 111.9,228.4 112.9,228.3 113.9,228.3 114.9,228.4 115.9,228.5 116.9,228.5 117.9,228.5 118.9,230.4 119.9,228.5 120.9,229.1 121.8,228.5 122.8,230.0 123.8,228.4 124.8,228.4 125.8,228.4 126.8,228.5 127.8,228.7 128.8,228.6 129.8,228.6 130.8,229.3 131.8,228.6 132.8,228.5 133.8,228.6 134.8,228.6 135.8,228.6 136.8,228.7 137.8,228.4 138.8,228.5 139.8,228.4 140.8,228.4 141.8,228.3 142.8,228.3 143.8,228.4 144.8,228.4 145.8,228.2 146.8,228.3 147.8,228.4 148.8,228.4 149.8,230.1 150.8,228.6 151.8,227.7 152.8,228.5 153.8,230.3 154.8,228.4 155.7,228.5 156.7,228.5 157.7,228.5 158.7,228.4 159.7,230.0 160.7,228.4 161.7,228.5 162.7,229.5 163.7,228.5 164.7,228.5 165.7,230.2 166.7,228.5 167.7,228.3 168.7,228.4 169.7,228.5 170.7,230.3 171.7,228.4 172.7,228.3 173.7,228.6 174.7,228.4 175.7,228.4 176.7,228.2 177.7,228.5 178.7,228.4 179.7,228.4 180.7,228.4 181.7,228.3 182.7,228.2 183.7,230.9 184.7,229.6 185.7,228.5 186.7,228.4 187.7,228.5 188.6,228.7 189.6,228.3 190.6,228.4 191.6,228.4 192.6,228.6 193.6,228.7 194.6,228.4 195.6,228.4 196.6,228.4 197.6,228.7 198.6,230.5 199.6,228.4 200.6,228.8 201.6,228.3 202.6,230.3 203.6,230.3 204.6,228.4 205.6,228.3 206.6,228.4 207.6,228.3 208.6,228.4 209.6,228.3 210.6,228.8 211.6,230.2 212.6,228.3 213.6,228.5 214.6,228.4 215.6,228.4 216.6,228.4 217.6,228.3 218.6,229.5 219.6,228.4 220.6,228.7 221.5,228.4 222.5,228.4 223.5,228.3 224.5,228.3 225.5,228.5 226.5,228.5 227.5,228.4 228.5,228.6 229.5,228.4 230.5,229.2 231.5,228.4 232.5,228.3 233.5,228.4 234.5,228.4 235.5,228.4 236.5,228.4 237.5,228.4 238.5,230.2 239.5,229.0 240.5,228.6 241.5,229.6 242.5,228.8 243.5,228.4 244.5,228.4 245.5,228.4 246.5,228.4 247.5,228.4 248.5,228.7 249.5,228.4 250.5,228.4 251.5,228.5 252.5,230.5 253.5,228.5 254.5,228.6 255.4,228.5 256.4,228.6 257.4,228.4 258.4,228.5 259.4,229.2 260.4,228.5 261.4,228.5 262.4,230.0 263.4,228.7 264.4,228.6 265.4,228.4 266.4,228.3 267.4,229.5 268.4,228.5 269.4,230.5 270.4,228.6 271.4,228.3 272.4,228.4 273.4,228.4 274.4,228.4 275.4,228.6 276.4,228.4 277.4,228.3 278.4,228.4 279.4,228.4 280.4,228.4 281.4,228.4 282.4,228.3 283.4,228.3 284.4,228.2 285.4,228.3 286.4,228.3 287.4,228.4 288.3,228.3 289.3,229.3 290.3,228.3 291.3,228.4 292.3,230.9 293.3,228.3 294.3,228.3 295.3,228.3 296.3,228.4 297.3,228.4 298.3,228.3 299.3,228.6 300.3,230.3 301.3,228.3 302.3,228.3 303.3,228.3 304.3,230.3 305.3,228.4 306.3,228.3 307.3,228.9 308.3,228.3 309.3,230.5 310.3,228.4 311.3,229.8 312.3,228.4 313.3,228.4 314.3,228.4 315.3,228.4 316.3,230.2 317.3,228.3 318.3,228.3 319.3,228.4 320.3,228.2 321.2,228.2 322.2,228.3 323.2,228.1 324.2,228.3 325.2,228.6 326.2,228.2 327.2,228.3 328.2,228.3 329.2,228.6 330.2,228.3 331.2,228.4 332.2,230.7 333.2,229.7 334.2,228.3 335.2,228.3 336.2,228.2 337.2,228.2 338.2,228.2 339.2,228.8 340.2,230.9 341.2,228.3 342.2,229.5 343.2,228.2 344.2,228.4 345.2,228.3 346.2,228.6 347.2,228.4 348.2,228.2 349.2,228.3 350.2,228.3 351.2,228.7 352.2,229.7 353.2,228.3 354.2,228.3 355.1,228.2 356.1,228.2 357.1,230.4 358.1,228.3 359.1,228.3 360.1,228.2 361.1,228.3 362.1,228.2 363.1,229.4 364.1,228.2 365.1,228.2 366.1,229.9 367.1,229.0 368.1,228.4 369.1,228.3 370.1,228.2 371.1,228.2 372.1,228.4 373.1,228.2 374.1,228.3 375.1,228.3 376.1,228.4 377.1,228.4 378.1,228.3 379.1,228.4 380.1,228.5 381.1,228.2 382.1,228.3 383.1,228.6 384.1,228.5 385.1,228.3 386.1,229.4 387.1,228.3 388.0,228.3 389.0,228.3 390.0,228.2 391.0,228.2 392.0,228.2 393.0,229.6 394.0,228.2 395.0,228.3 396.0,228.2 397.0,228.3 398.0,228.2 399.0,228.3 400.0,228.4 401.0,228.4 402.0,228.3 403.0,228.2 404.0,228.3 405.0,228.2 406.0,228.2 407.0,229.2 408.0,228.3 409.0,228.3 410.0,230.1 411.0,228.3 412.0,230.4 413.0,228.2 414.0,229.7 415.0,228.4 416.0,228.2 417.0,228.2 418.0,228.3 419.0,228.2 420.0,228.1 420.9,228.6 421.9,228.2 422.9,229.7 423.9,228.3 424.9,228.2 425.9,228.3 426.9,228.4 427.9,228.2 428.9,228.2 429.9,228.3 430.9,228.3 431.9,230.3 432.9,228.8 433.9,229.4 434.9,228.2 435.9,228.6 436.9,228.2 437.9,228.3 438.9,228.4 439.9,228.4 440.9,230.1 441.9,228.3 442.9,228.2 443.9,228.2 444.9,228.2 445.9,228.2 446.9,228.2 447.9,228.2 448.9,228.4 449.9,228.3 450.9,228.2 451.9,230.9 452.9,229.5 453.8,228.4 454.8,229.3 455.8,228.3 456.8,230.5 457.8,228.3 458.8,228.1 459.8,228.2 460.8,228.4 461.8,228.3 462.8,228.2 463.8,228.2 464.8,228.2 465.8,228.2 466.8,229.6 467.8,228.3 468.8,228.5 469.8,228.2 470.8,228.3 471.8,228.3 472.8,228.3 473.8,228.4 474.8,228.2 475.8,228.9 476.8,228.4 477.8,228.3 478.8,228.2 479.8,228.2 480.8,228.2 481.8,230.5 482.8,228.2 483.8,228.2 484.8,228.9 485.8,229.6 486.8,228.3 487.7,228.4 488.7,228.3 489.7,229.3 490.7,228.2 491.7,228.8 492.7,228.3 493.7,228.4 494.7,228.3 495.7,229.8 496.7,228.5 497.7,228.2 498.7,229.3 499.7,228.2 500.7,228.2 501.7,228.5 502.7,228.1 503.7,228.7 504.7,228.2 505.7,228.2 506.7,228.2 507.7,228.2 508.7,228.2 509.7,228.3 510.7,228.4 511.7,228.2 512.7,228.3 513.7,228.5 514.7,228.6 515.7,228.2 516.7,229.0 517.7,228.4 518.7,228.2 519.7,228.2 520.6,228.4 521.6,228.3 522.6,228.2 523.6,229.1 524.6,228.3 525.6,228.3 526.6,228.2 527.6,228.1 528.6,228.2 529.6,228.3 530.6,228.3 531.6,228.3 532.6,228.4 533.6,228.2 534.6,228.4 535.6,230.0 536.6,228.2 537.6,228.2 538.6,230.5 539.6,228.3 540.6,230.3 541.6,228.2 542.6,228.2 543.6,228.4 544.6,228.3 545.6,228.2 546.6,228.8 547.6,228.1 548.6,228.2 549.6,228.7 550.6,228.2 551.6,228.1 552.6,228.3 553.5,228.2 554.5,228.2 555.5,228.1 556.5,228.3 557.5,228.2 558.5,228.2 559.5,228.2 560.5,228.3 561.5,228.2 562.5,228.2 563.5,229.1 564.5,230.5 565.5,228.2 566.5,228.2 567.5,228.2 568.5,228.2 569.5,228.7 570.5,228.3 571.5,228.2 572.5,228.2 573.5,228.2 574.5,228.2 575.5,229.1 576.5,228.2 577.5,228.2 578.5,228.2 579.5,228.1 580.5,228.2 581.5,228.2 582.5,228.2 583.5,228.2 584.5,228.7 585.5,228.1 586.5,230.0 587.4,228.1 588.4,228.2 589.4,228.2 590.4,228.2 591.4,228.6 592.4,228.2 593.4,228.3 594.4,228.5 595.4,228.3 596.4,228.3 597.4,229.6 598.4,228.4 599.4,228.2 600.4,228.2 601.4,228.3 602.4,228.4 603.4,228.3 604.4,228.3 605.4,228.3 606.4,228.2 607.4,229.6 608.4,228.2 609.4,228.2 610.4,228.4 611.4,230.1 612.4,228.2 613.4,228.2 614.4,228.1 615.4,228.2 616.4,228.2 617.4,228.2 618.4,228.3 619.4,228.7 620.3,228.2 621.3,228.3 622.3,228.3 623.3,228.0 624.3,228.4 625.3,230.4 626.3,228.3 627.3,228.3 628.3,230.6 629.3,228.2 630.3,228.2 631.3,230.3 632.3,229.9 633.3,228.2 634.3,229.4 635.3,228.6 636.3,228.3 637.3,228.2 638.3,228.2 639.3,228.6 640.3,230.1 641.3,230.0 642.3,228.2 643.3,228.3 644.3,228.1 645.3,228.5 646.3,228.4 647.3,228.3 648.3,228.2 649.3,228.6 650.3,228.3 651.3,228.3 652.3,228.4 653.2,230.7 654.2,228.3 655.2,228.4 656.2,228.4 657.2,228.2 658.2,228.2 659.2,228.3 660.2,228.4 661.2,228.3 662.2,228.4 663.2,228.7 664.2,228.3 665.2,228.3 666.2,228.3 667.2,228.2 668.2,228.4 669.2,228.3 670.2,228.3 671.2,228.4 672.2,228.3 673.2,228.4 674.2,228.3 675.2,228.3 676.2,229.4 677.2,228.3 678.2,228.7 679.2,229.6 680.2,228.4 681.2,228.3 682.2,228.4 683.2,228.3 684.2,228.4 685.2,228.4 686.2,228.4 687.1,228.3 688.1,228.3 689.1,228.4 690.1,228.3 691.1,228.4 692.1,228.4 693.1,230.3 694.1,228.6 695.1,228.7 696.1,229.2 697.1,229.0 698.1,228.5 699.1,228.5 700.1,228.4 701.1,228.9 702.1,228.5 703.1,228.8 704.1,228.5 705.1,228.5 706.1,228.4 707.1,228.5 708.1,228.5 709.1,228.6 710.1,229.7 711.1,228.4 712.1,228.5 713.1,230.7 714.1,228.5 715.1,228.5 716.1,228.6 717.1,228.6 718.1,228.6 719.1,228.7 720.0,230.0 721.0,228.7 722.0,228.6 723.0,228.6 724.0,228.6 725.0,228.6 726.0,228.5 727.0,228.6 728.0,228.6 729.0,228.6 730.0,229.0 731.0,228.5 732.0,228.5 733.0,228.4 734.0,230.4 735.0,228.4 736.0,228.5 737.0,230.5 738.0,228.5 739.0,228.4 740.0,230.4 741.0,228.5 742.0,228.3 743.0,228.3 744.0,228.3 745.0,228.4 746.0,228.5 747.0,228.3 748.0,228.8 749.0,228.4 750.0,228.4 751.0,229.7 752.0,228.5 752.9,228.6 753.9,228.5 754.9,228.6 755.9,228.5 756.9,228.4 757.9,228.5 758.9,228.6 759.9,228.6 760.9,228.5 761.9,228.6 762.9,228.6 763.9,228.4 764.9,228.6 765.9,228.6 766.9,228.5 767.9,230.3 768.9,230.4 769.9,228.5 770.9,228.6 771.9,228.7 772.9,228.7 773.9,228.6 774.9,230.6 775.9,228.5 776.9,228.6 777.9,229.0 778.9,228.6 779.9,228.6 780.9,228.6 781.9,228.7 782.9,228.6 783.9,228.6 784.9,228.6 785.8,228.7 786.8,229.1 787.8,228.6 788.8,228.4 789.8,228.3 790.8,228.6 791.8,228.4 792.8,228.3 793.8,228.4 794.8,228.4 795.8,229.3 796.8,228.4 797.8,229.5 798.8,228.4 799.8,228.4 800.8,228.5 801.8,228.6 802.8,228.4 803.8,228.8 804.8,230.8 805.8,228.4 806.8,229.0 807.8,228.4 808.8,228.4 809.8,228.5 810.8,228.5 811.8,228.5 812.8,228.5 813.8,228.5 814.8,229.1 815.8,228.6 816.8,228.4 817.8,228.4 818.8,228.4 819.7,228.5 820.7,228.5 821.7,228.4 822.7,228.3 823.7,228.4 824.7,228.5 825.7,228.4 826.7,230.2 827.7,228.3 828.7,228.3 829.7,228.3 830.7,228.3 831.7,228.5 832.7,228.5 833.7,228.5 834.7,228.4 835.7,229.3 836.7,228.4 837.7,228.3 838.7,228.3 839.7,230.2 840.7,228.3 841.7,228.2 842.7,228.3 843.7,228.3 844.7,228.4 845.7,228.4 846.7,228.4 847.7,228.5 848.7,228.3 849.7,228.2 850.7,228.4 851.7,228.3 852.6,228.2 853.6,228.3 854.6,228.2 855.6,228.5 856.6,230.5 857.6,229.7 858.6,228.3 859.6,228.3 860.6,228.3 861.6,228.5 862.6,228.7 863.6,228.5 864.6,228.3 865.6,228.3 866.6,228.3 867.6,228.6 868.6,228.3 869.6,228.2 870.6,228.3 871.6,228.3 872.6,228.3 873.6,228.3 874.6,230.5 875.6,228.4 876.6,228.4 877.6,228.6 878.6,228.4 879.6,228.3 880.6,228.4 881.6,228.4 882.6,228.4 883.6,228.4 884.6,228.4 885.5,229.0 886.5,228.4 887.5,228.4 888.5,230.4 889.5,228.4 890.5,229.0 891.5,230.2 892.5,228.4 893.5,228.5 894.5,228.5 895.5,228.8 896.5,228.5 897.5,228.4 898.5,228.5 899.5,228.5 900.5,228.4 901.5,230.6 902.5,228.5 903.5,230.5 904.5,228.9 905.5,230.2 906.5,230.2 907.5,228.5 908.5,228.5 909.5,228.5 910.5,230.3 911.5,228.4 912.5,228.6 913.5,230.5 914.5,230.2 915.5,228.5 916.5,228.6 917.5,230.0 918.5,228.8 919.4,228.7 920.4,228.9 921.4,228.5 922.4,228.4 923.4,228.4 924.4,228.4 925.4,228.5 926.4,230.4 927.4,230.1 928.4,228.8 929.4,228.4 930.4,228.5 931.4,228.4 932.4,228.4 933.4,228.8 934.4,228.7 935.4,228.4 936.4,228.5 937.4,228.5 938.4,228.3 939.4,228.4 940.4,228.4 941.4,228.3 942.4,229.6 943.4,228.3 944.4,228.4 945.4,228.3 946.4,228.4 947.4,228.4 948.4,228.2 949.4,228.3 950.4,230.2 951.4,228.3 952.3,228.7 953.3,229.1 954.3,228.4 955.3,228.4 956.3,228.4 957.3,228.3 958.3,228.4 959.3,228.6 960.3,228.5 961.3,228.4 962.3,228.5 963.3,228.5 964.3,228.9 965.3,229.6 966.3,228.3 967.3,228.5 968.3,228.4 969.3,228.5 970.3,228.5 971.3,228.4 972.3,228.4 973.3,229.0 974.3,230.4 975.3,228.3 976.3,228.5 977.3,228.4 978.3,228.4 979.3,228.3 980.3,228.6 981.3,228.4 982.3,228.3 983.3,228.4 984.3,228.4 985.2,228.6 986.2,229.4 987.2,228.4 988.2,230.0 989.2,228.5 990.2,228.5 991.2,228.5 992.2,228.4 993.2,230.0 994.2,228.3 995.2,228.5 996.2,230.3 997.2,230.7 998.2,228.6 999.2,228.7 1000.2,228.7 1001.2,228.6 1002.2,229.4 1003.2,230.6 1004.2,228.6 1005.2,228.6 1006.2,228.2 1007.2,228.5 1008.2,228.5 1009.2,228.7 1010.2,230.0 1011.2,230.3 1012.2,228.5 1013.2,230.5 1014.2,231.0 1015.2,228.5 1016.2,230.9 1017.2,228.6 1018.2,228.6 1019.1,230.4 1020.1,228.7 1021.1,228.8 1022.1,228.7 1023.1,228.7 1024.1,228.7 1025.1,228.7 1026.1,230.4 1027.1,228.7 1028.1,228.8 1029.1,228.8 1030.1,230.7 1031.1,228.7 1032.1,228.8 1033.1,228.8 1034.1,228.6 1035.1,228.9 1036.1,230.8 1037.1,228.5 1038.1,228.5 1039.1,228.4 1040.1,228.2 1041.1,228.1 1042.1,228.4 1043.1,228.3 1044.1,228.9 1045.1,228.3 1046.1,228.3 1047.1,228.8 1048.1,228.3 1049.1,228.5 1050.1,228.4 1051.1,228.4 1052.0,228.3 1053.0,229.0 1054.0,228.3 1055.0,228.3 1056.0,228.3 1057.0,228.8 1058.0,228.3 1059.0,228.4 1060.0,228.4 1061.0,228.4 1062.0,228.3 1063.0,228.3 1064.0,228.5 1065.0,228.4 1066.0,228.3 1067.0,228.5 1068.0,228.4"/>
    <polyline fill="none" stroke="#7c3aed" stroke-width="2" stroke-dasharray="6 5" points="72.0,382.1 73.0,370.7 74.0,477.7 75.0,298.6 76.0,355.1 77.0,352.1 78.0,305.8 79.0,230.7 80.0,310.0 81.0,247.5 82.0,244.5 83.0,251.7 84.0,230.1 85.0,284.2 86.0,352.1 87.0,513.8 88.0,418.8 88.9,436.8 89.9,302.2 90.9,349.1 91.9,337.1 92.9,286.0 93.9,423.6 94.9,316.0 95.9,277.0 96.9,393.6 97.9,309.4 98.9,321.4 99.9,432.6 100.9,215.7 101.9,100.9 102.9,365.9 103.9,347.3 104.9,362.9 105.9,335.9 106.9,488.5 107.9,159.8 108.9,163.4 109.9,301.6 110.9,415.2 111.9,161.6 112.9,248.7 113.9,270.4 114.9,179.6 115.9,451.3 116.9,161.6 117.9,227.1 118.9,380.9 119.9,187.4 120.9,361.1 121.8,267.3 122.8,385.7 123.8,284.8 124.8,300.4 125.8,505.9 126.8,230.7 127.8,403.2 128.8,313.0 129.8,222.9 130.8,313.0 131.8,221.7 132.8,246.9 133.8,165.2 134.8,188.0 135.8,235.5 136.8,304.0 137.8,430.2 138.8,183.2 139.8,281.8 140.8,240.3 141.8,251.7 142.8,242.1 143.8,233.7 144.8,134.5 145.8,440.4 146.8,436.2 147.8,269.8 148.8,415.8 149.8,368.9 150.8,487.3 151.8,352.7 152.8,165.8 153.8,327.4 154.8,478.9 155.7,226.5 156.7,347.9 157.7,135.7 158.7,237.9 159.7,338.3 160.7,408.0 161.7,300.4 162.7,299.8 163.7,132.7 164.7,337.1 165.7,352.7 166.7,338.3 167.7,465.7 168.7,253.5 169.7,70.2 170.7,343.1 171.7,289.6 172.7,522.2 173.7,447.0 174.7,191.6 175.7,313.6 176.7,516.8 177.7,254.1 178.7,170.0 179.7,194.0 180.7,203.6 181.7,370.1 182.7,492.1 183.7,327.4 184.7,384.5 185.7,370.7 186.7,242.7 187.7,388.1 188.6,335.3 189.6,283.0 190.6,246.9 191.6,391.2 192.6,343.7 193.6,393.0 194.6,451.9 195.6,373.1 196.6,206.7 197.6,347.9 198.6,322.6 199.6,242.7 200.6,330.5 201.6,352.1 202.6,346.1 203.6,345.5 204.6,474.1 205.6,180.8 206.6,290.8 207.6,280.0 208.6,182.6 209.6,387.5 210.6,379.1 211.6,358.1 212.6,303.4 213.6,370.1 214.6,381.5 215.6,335.3 216.6,322.0 217.6,284.8 218.6,353.9 219.6,263.1 220.6,388.7 221.5,253.5 222.5,232.5 223.5,293.8 224.5,277.0 225.5,292.0 226.5,369.5 227.5,184.4 228.5,438.6 229.5,276.4 230.5,362.9 231.5,316.0 232.5,315.4 233.5,178.4 234.5,380.9 235.5,223.5 236.5,134.5 237.5,465.1 238.5,355.1 239.5,344.9 240.5,390.6 241.5,339.5 242.5,405.6 243.5,210.9 244.5,322.6 245.5,201.8 246.5,266.1 247.5,328.7 248.5,389.3 249.5,273.4 250.5,289.0 251.5,201.8 252.5,329.9 253.5,435.0 254.5,415.8 255.4,332.9 256.4,250.5 257.4,385.1 258.4,217.5 259.4,487.9 260.4,481.3 261.4,173.0 262.4,359.9 263.4,495.1 264.4,120.7 265.4,230.7 266.4,320.8 267.4,332.3 268.4,91.3 269.4,311.8 270.4,473.5 271.4,332.9 272.4,271.6 273.4,162.2 274.4,165.2 275.4,454.9 276.4,350.9 277.4,412.8 278.4,213.9 279.4,150.2 280.4,192.8 281.4,444.0 282.4,218.1 283.4,318.4 284.4,365.3 285.4,352.1 286.4,293.2 287.4,289.0 288.3,436.8 289.3,333.5 290.3,296.8 291.3,82.8 292.3,332.3 293.3,218.1 294.3,310.0 295.3,210.3 296.3,281.8 297.3,210.9 298.3,239.7 299.3,333.5 300.3,341.3 301.3,280.6 302.3,259.5 303.3,246.3 304.3,344.3 305.3,355.1 306.3,219.9 307.3,390.6 308.3,250.5 309.3,313.0 310.3,191.6 311.3,392.4 312.3,293.2 313.3,176.0 314.3,88.9 315.3,400.8 316.3,340.1 317.3,228.9 318.3,234.3 319.3,486.7 320.3,410.4 321.2,324.4 322.2,351.5 323.2,515.6 324.2,289.0 325.2,318.4 326.2,293.2 327.2,158.0 328.2,144.7 329.2,313.6 330.2,188.0 331.2,399.6 332.2,295.6 333.2,312.4 334.2,291.4 335.2,353.9 336.2,334.7 337.2,343.1 338.2,316.0 339.2,332.9 340.2,333.5 341.2,171.2 342.2,320.2 343.2,230.1 344.2,364.1 345.2,178.4 346.2,337.1 347.2,111.1 348.2,272.2 349.2,376.7 350.2,136.3 351.2,332.9 352.2,388.7 353.2,141.7 354.2,289.0 355.1,343.1 356.1,264.9 357.1,337.1 358.1,379.7 359.1,261.3 360.1,221.7 361.1,133.9 362.1,386.3 363.1,408.6 364.1,234.3 365.1,237.9 366.1,358.7 367.1,332.3 368.1,471.7 369.1,275.8 370.1,380.9 371.1,255.9 372.1,353.9 373.1,286.6 374.1,295.6 375.1,204.8 376.1,414.0 377.1,293.8 378.1,472.9 379.1,278.2 380.1,446.4 381.1,391.2 382.1,342.5 383.1,338.3 384.1,474.7 385.1,433.8 386.1,305.2 387.1,357.5 388.0,275.8 389.0,238.5 390.0,242.7 391.0,206.7 392.0,401.4 393.0,325.6 394.0,332.9 395.0,152.0 396.0,247.5 397.0,367.1 398.0,302.2 399.0,147.8 400.0,326.8 401.0,480.1 402.0,200.6 403.0,295.6 404.0,198.8 405.0,276.4 406.0,195.2 407.0,319.0 408.0,170.6 409.0,294.4 410.0,367.1 411.0,317.8 412.0,337.7 413.0,248.1 414.0,402.0 415.0,501.1 416.0,526.4 417.0,224.1 418.0,277.0 419.0,219.3 420.0,373.7 420.9,408.0 421.9,329.3 422.9,432.0 423.9,475.3 424.9,244.5 425.9,176.6 426.9,486.1 427.9,438.0 428.9,322.6 429.9,333.5 430.9,270.4 431.9,357.5 432.9,308.2 433.9,308.8 434.9,343.7 435.9,446.4 436.9,323.8 437.9,165.8 438.9,483.1 439.9,356.9 440.9,394.2 441.9,246.9 442.9,305.8 443.9,275.2 444.9,272.8 445.9,272.2 446.9,285.4 447.9,242.7 448.9,324.4 449.9,341.9 450.9,346.7 451.9,334.1 452.9,287.2 453.8,447.0 454.8,304.0 455.8,125.5 456.8,364.1 457.8,286.0 458.8,425.4 459.8,281.2 460.8,434.4 461.8,326.2 462.8,256.5 463.8,297.4 464.8,260.1 465.8,341.9 466.8,297.4 467.8,58.2 468.8,491.5 469.8,283.0 470.8,324.4 471.8,419.4 472.8,107.5 473.8,396.6 474.8,350.3 475.8,367.1 476.8,352.7 477.8,371.9 478.8,362.9 479.8,368.3 480.8,268.0 481.8,322.6 482.8,278.2 483.8,265.5 484.8,320.8 485.8,302.2 486.8,246.9 487.7,459.1 488.7,176.0 489.7,298.6 490.7,244.5 491.7,473.5 492.7,153.8 493.7,491.5 494.7,418.2 495.7,310.6 496.7,453.7 497.7,144.7 498.7,307.0 499.7,244.5 500.7,334.1 501.7,474.1 502.7,275.8 503.7,319.6 504.7,227.1 505.7,240.3 506.7,318.4 507.7,228.9 508.7,315.4 509.7,222.3 510.7,325.6 511.7,246.3 512.7,158.0 513.7,459.1 514.7,490.3 515.7,237.3 516.7,338.3 517.7,388.1 518.7,377.3 519.7,346.1 520.6,329.9 521.6,403.2 522.6,263.1 523.6,316.0 524.6,242.1 525.6,250.5 526.6,264.9 527.6,468.1 528.6,243.3 529.6,464.5 530.6,195.2 531.6,227.1 532.6,438.6 533.6,364.7 534.6,414.6 535.6,362.3 536.6,353.3 537.6,325.0 538.6,370.7 539.6,434.4 540.6,345.5 541.6,124.9 542.6,319.6 543.6,468.1 544.6,383.3 545.6,286.0 546.6,346.1 547.6,419.4 548.6,308.8 549.6,343.7 550.6,228.9 551.6,337.7 552.6,75.6 553.5,260.1 554.5,188.0 555.5,426.6 556.5,296.8 557.5,246.3 558.5,478.9 559.5,277.6 560.5,410.4 561.5,172.4 562.5,255.9 563.5,507.7 564.5,314.8 565.5,269.2 566.5,162.8 567.5,176.0 568.5,369.5 569.5,325.6 570.5,333.5 571.5,304.6 572.5,246.3 573.5,345.5 574.5,298.0 575.5,501.7 576.5,271.0 577.5,281.2 578.5,197.0 579.5,403.8 580.5,310.6 581.5,338.9 582.5,191.6 583.5,275.8 584.5,423.6 585.5,418.8 586.5,316.6 587.4,283.6 588.4,216.3 589.4,257.1 590.4,164.6 591.4,427.8 592.4,371.9 593.4,154.4 594.4,383.9 595.4,245.1 596.4,280.6 597.4,338.3 598.4,484.3 599.4,251.7 600.4,301.6 601.4,246.3 602.4,332.9 603.4,156.2 604.4,130.9 605.4,306.4 606.4,300.4 607.4,417.6 608.4,268.6 609.4,302.2 610.4,417.6 611.4,342.5 612.4,236.7 613.4,227.7 614.4,542.0 615.4,433.2 616.4,269.8 617.4,339.5 618.4,236.7 619.4,325.0 620.3,248.1 621.3,335.9 622.3,298.0 623.3,378.5 624.3,460.9 625.3,328.7 626.3,231.3 627.3,306.4 628.3,353.9 629.3,334.7 630.3,393.0 631.3,338.9 632.3,353.9 633.3,407.4 634.3,334.1 635.3,320.2 636.3,149.0 637.3,298.0 638.3,235.5 639.3,324.4 640.3,325.0 641.3,365.9 642.3,284.2 643.3,428.4 644.3,387.5 645.3,465.1 646.3,469.9 647.3,160.4 648.3,215.7 649.3,412.8 650.3,172.4 651.3,301.0 652.3,374.9 653.2,330.5 654.2,153.8 655.2,412.2 656.2,254.7 657.2,367.7 658.2,284.2 659.2,246.9 660.2,283.0 661.2,242.7 662.2,328.0 663.2,441.6 664.2,182.6 665.2,228.9 666.2,228.3 667.2,380.9 668.2,242.7 669.2,155.0 670.2,261.3 671.2,299.2 672.2,373.1 673.2,301.6 674.2,211.5 675.2,272.2 676.2,332.9 677.2,331.7 678.2,487.9 679.2,296.8 680.2,133.3 681.2,250.5 682.2,362.3 683.2,242.1 684.2,121.9 685.2,168.8 686.2,234.9 687.1,241.5 688.1,329.3 689.1,127.3 690.1,258.3 691.1,201.8 692.1,329.9 693.1,379.7 694.1,268.6 695.1,318.4 696.1,324.4 697.1,328.7 698.1,206.7 699.1,388.7 700.1,262.5 701.1,326.2 702.1,228.9 703.1,373.7 704.1,201.8 705.1,420.6 706.1,296.8 707.1,284.2 708.1,252.9 709.1,362.9 710.1,388.1 711.1,371.9 712.1,218.7 713.1,346.7 714.1,232.5 715.1,295.6 716.1,219.3 717.1,178.4 718.1,234.9 719.1,398.4 720.0,352.7 721.0,172.4 722.0,238.5 723.0,263.1 724.0,356.9 725.0,313.0 726.0,254.7 727.0,274.6 728.0,397.2 729.0,315.4 730.0,432.6 731.0,388.1 732.0,126.7 733.0,199.4 734.0,338.9 735.0,277.6 736.0,263.7 737.0,327.4 738.0,186.8 739.0,233.1 740.0,320.8 741.0,136.3 742.0,281.8 743.0,244.5 744.0,264.9 745.0,436.8 746.0,317.8 747.0,203.6 748.0,317.2 749.0,197.0 750.0,197.0 751.0,436.2 752.0,212.7 752.9,418.8 753.9,141.1 754.9,359.3 755.9,333.5 756.9,311.8 757.9,280.0 758.9,184.4 759.9,349.7 760.9,334.7 761.9,189.2 762.9,200.6 763.9,422.4 764.9,245.1 765.9,224.7 766.9,260.7 767.9,320.8 768.9,343.7 769.9,272.2 770.9,185.6 771.9,220.5 772.9,135.7 773.9,247.5 774.9,314.2 775.9,272.8 776.9,364.7 777.9,379.1 778.9,284.2 779.9,191.0 780.9,302.8 781.9,125.5 782.9,290.8 783.9,327.4 784.9,408.0 785.8,408.6 786.8,311.2 787.8,179.0 788.8,371.9 789.8,456.7 790.8,364.7 791.8,259.5 792.8,447.6 793.8,188.0 794.8,323.2 795.8,332.9 796.8,180.8 797.8,311.2 798.8,225.9 799.8,257.7 800.8,166.4 801.8,417.0 802.8,346.7 803.8,408.6 804.8,339.5 805.8,401.4 806.8,382.1 807.8,367.1 808.8,319.0 809.8,155.6 810.8,222.9 811.8,211.5 812.8,266.7 813.8,204.2 814.8,356.3 815.8,308.2 816.8,444.0 817.8,312.4 818.8,284.2 819.7,346.7 820.7,135.1 821.7,186.8 822.7,258.3 823.7,241.5 824.7,453.7 825.7,349.7 826.7,350.3 827.7,345.5 828.7,248.1 829.7,394.8 830.7,255.9 831.7,329.3 832.7,513.2 833.7,301.6 834.7,162.8 835.7,334.1 836.7,130.9 837.7,249.9 838.7,378.5 839.7,336.5 840.7,252.3 841.7,457.9 842.7,280.6 843.7,326.8 844.7,406.8 845.7,234.9 846.7,189.8 847.7,327.4 848.7,342.5 849.7,379.7 850.7,218.1 851.7,292.6 852.6,491.5 853.6,490.3 854.6,418.2 855.6,443.4 856.6,320.8 857.6,314.8 858.6,326.2 859.6,254.7 860.6,187.4 861.6,385.7 862.6,329.3 863.6,463.3 864.6,340.1 865.6,308.8 866.6,225.9 867.6,409.2 868.6,381.5 869.6,387.5 870.6,369.5 871.6,230.7 872.6,378.5 873.6,396.6 874.6,322.6 875.6,329.9 876.6,407.4 877.6,388.1 878.6,278.2 879.6,208.5 880.6,261.9 881.6,233.1 882.6,173.0 883.6,165.2 884.6,295.6 885.5,371.9 886.5,254.7 887.5,250.5 888.5,339.5 889.5,129.1 890.5,336.5 891.5,308.8 892.5,255.3 893.5,374.9 894.5,67.2 895.5,466.3 896.5,302.8 897.5,321.4 898.5,243.9 899.5,181.4 900.5,436.2 901.5,321.4 902.5,275.2 903.5,316.6 904.5,333.5 905.5,335.9 906.5,334.7 907.5,382.7 908.5,249.9 909.5,129.1 910.5,341.9 911.5,323.2 912.5,292.6 913.5,327.4 914.5,355.1 915.5,245.1 916.5,54.0 917.5,308.8 918.5,399.6 919.4,331.1 920.4,368.9 921.4,349.7 922.4,386.9 923.4,252.3 924.4,272.8 925.4,100.3 926.4,326.8 927.4,332.9 928.4,356.3 929.4,255.3 930.4,126.7 931.4,266.1 932.4,217.5 933.4,343.1 934.4,445.2 935.4,424.2 936.4,228.3 937.4,225.9 938.4,301.0 939.4,189.8 940.4,163.4 941.4,299.8 942.4,398.4 943.4,295.0 944.4,369.5 945.4,463.3 946.4,227.7 947.4,157.4 948.4,370.1 949.4,394.2 950.4,329.9 951.4,286.6 952.3,396.6 953.3,370.1 954.3,462.7 955.3,252.9 956.3,233.1 957.3,347.9 958.3,159.8 959.3,439.2 960.3,284.8 961.3,237.3 962.3,166.4 963.3,368.9 964.3,343.1 965.3,447.6 966.3,474.1 967.3,171.2 968.3,388.1 969.3,325.0 970.3,295.6 971.3,223.5 972.3,170.0 973.3,343.1 974.3,325.6 975.3,397.8 976.3,353.3 977.3,247.5 978.3,160.4 979.3,358.1 980.3,505.3 981.3,97.9 982.3,313.6 983.3,198.8 984.3,277.0 985.2,441.6 986.2,331.1 987.2,366.5 988.2,305.8 989.2,457.3 990.2,162.8 991.2,146.6 992.2,208.5 993.2,342.5 994.2,318.4 995.2,225.9 996.2,305.2 997.2,342.5 998.2,398.4 999.2,253.5 1000.2,383.3 1001.2,491.5 1002.2,300.4 1003.2,359.3 1004.2,357.5 1005.2,227.7 1006.2,415.2 1007.2,243.3 1008.2,250.5 1009.2,295.0 1010.2,359.9 1011.2,329.3 1012.2,221.7 1013.2,313.0 1014.2,317.2 1015.2,292.0 1016.2,329.3 1017.2,207.3 1018.2,290.2 1019.1,371.9 1020.1,161.6 1021.1,74.4 1022.1,237.9 1023.1,287.8 1024.1,209.1 1025.1,371.9 1026.1,336.5 1027.1,352.1 1028.1,284.2 1029.1,273.4 1030.1,316.0 1031.1,187.4 1032.1,187.4 1033.1,412.8 1034.1,212.7 1035.1,328.0 1036.1,337.1 1037.1,301.6 1038.1,212.1 1039.1,267.3 1040.1,380.9 1041.1,466.9 1042.1,430.8 1043.1,246.3 1044.1,358.7 1045.1,326.2 1046.1,320.8 1047.1,331.1 1048.1,373.7 1049.1,400.2 1050.1,298.6 1051.1,314.8 1052.0,245.1 1053.0,352.1 1054.0,233.1 1055.0,298.6 1056.0,356.9 1057.0,385.7 1058.0,277.6 1059.0,367.1 1060.0,282.4 1061.0,168.2 1062.0,323.2 1063.0,222.3 1064.0,240.9 1065.0,190.4 1066.0,388.7 1067.0,342.5 1068.0,322.6"/>
    <circle cx="79.0" cy="230.7" r="5" fill="#16a34a"><title>Accepted epoch 8, diff 2</title></circle>
    <circle cx="84.0" cy="230.1" r="5" fill="#16a34a"><title>Accepted epoch 13, diff 3</title></circle>
    <circle cx="100.9" cy="215.7" r="5" fill="#16a34a"><title>Accepted epoch 30, diff 27</title></circle>
    <circle cx="101.9" cy="100.9" r="5" fill="#16a34a"><title>Accepted epoch 31, diff 218</title></circle>
    <circle cx="107.9" cy="159.8" r="5" fill="#16a34a"><title>Accepted epoch 37, diff 120</title></circle>
    <circle cx="108.9" cy="163.4" r="5" fill="#16a34a"><title>Accepted epoch 38, diff 114</title></circle>
    <circle cx="111.9" cy="161.6" r="5" fill="#16a34a"><title>Accepted epoch 41, diff 117</title></circle>
    <circle cx="114.9" cy="179.6" r="5" fill="#16a34a"><title>Accepted epoch 44, diff 87</title></circle>
    <circle cx="116.9" cy="161.6" r="5" fill="#16a34a"><title>Accepted epoch 46, diff 117</title></circle>
    <circle cx="117.9" cy="227.1" r="5" fill="#16a34a"><title>Accepted epoch 47, diff 8</title></circle>
    <circle cx="119.9" cy="187.4" r="5" fill="#16a34a"><title>Accepted epoch 49, diff 74</title></circle>
    <circle cx="126.8" cy="230.7" r="5" fill="#16a34a"><title>Accepted epoch 56, diff 2</title></circle>
    <circle cx="129.8" cy="222.9" r="5" fill="#16a34a"><title>Accepted epoch 59, diff 15</title></circle>
    <circle cx="131.8" cy="221.7" r="5" fill="#16a34a"><title>Accepted epoch 61, diff 17</title></circle>
    <circle cx="133.8" cy="165.2" r="5" fill="#16a34a"><title>Accepted epoch 63, diff 111</title></circle>
    <circle cx="134.8" cy="188.0" r="5" fill="#16a34a"><title>Accepted epoch 64, diff 73</title></circle>
    <circle cx="138.8" cy="183.2" r="5" fill="#16a34a"><title>Accepted epoch 68, diff 81</title></circle>
    <circle cx="144.8" cy="134.5" r="5" fill="#16a34a"><title>Accepted epoch 74, diff 162</title></circle>
    <circle cx="152.8" cy="165.8" r="5" fill="#16a34a"><title>Accepted epoch 82, diff 110</title></circle>
    <circle cx="155.7" cy="226.5" r="5" fill="#16a34a"><title>Accepted epoch 85, diff 9</title></circle>
    <circle cx="157.7" cy="135.7" r="5" fill="#16a34a"><title>Accepted epoch 87, diff 160</title></circle>
    <circle cx="163.7" cy="132.7" r="5" fill="#16a34a"><title>Accepted epoch 93, diff 165</title></circle>
    <circle cx="169.7" cy="70.2" r="5" fill="#16a34a"><title>Accepted epoch 99, diff 269</title></circle>
    <circle cx="174.7" cy="191.6" r="5" fill="#16a34a"><title>Accepted epoch 104, diff 67</title></circle>
    <circle cx="178.7" cy="170.0" r="5" fill="#16a34a"><title>Accepted epoch 108, diff 103</title></circle>
    <circle cx="179.7" cy="194.0" r="5" fill="#16a34a"><title>Accepted epoch 109, diff 63</title></circle>
    <circle cx="180.7" cy="203.6" r="5" fill="#16a34a"><title>Accepted epoch 110, diff 47</title></circle>
    <circle cx="196.6" cy="206.7" r="5" fill="#16a34a"><title>Accepted epoch 126, diff 42</title></circle>
    <circle cx="205.6" cy="180.8" r="5" fill="#16a34a"><title>Accepted epoch 135, diff 85</title></circle>
    <circle cx="208.6" cy="182.6" r="5" fill="#16a34a"><title>Accepted epoch 138, diff 82</title></circle>
    <circle cx="227.5" cy="184.4" r="5" fill="#16a34a"><title>Accepted epoch 157, diff 79</title></circle>
    <circle cx="233.5" cy="178.4" r="5" fill="#16a34a"><title>Accepted epoch 163, diff 89</title></circle>
    <circle cx="235.5" cy="223.5" r="5" fill="#16a34a"><title>Accepted epoch 165, diff 14</title></circle>
    <circle cx="236.5" cy="134.5" r="5" fill="#16a34a"><title>Accepted epoch 166, diff 162</title></circle>
    <circle cx="243.5" cy="210.9" r="5" fill="#16a34a"><title>Accepted epoch 173, diff 35</title></circle>
    <circle cx="245.5" cy="201.8" r="5" fill="#16a34a"><title>Accepted epoch 175, diff 50</title></circle>
    <circle cx="251.5" cy="201.8" r="5" fill="#16a34a"><title>Accepted epoch 181, diff 50</title></circle>
    <circle cx="258.4" cy="217.5" r="5" fill="#16a34a"><title>Accepted epoch 188, diff 24</title></circle>
    <circle cx="261.4" cy="173.0" r="5" fill="#16a34a"><title>Accepted epoch 191, diff 98</title></circle>
    <circle cx="264.4" cy="120.7" r="5" fill="#16a34a"><title>Accepted epoch 194, diff 185</title></circle>
    <circle cx="265.4" cy="230.7" r="5" fill="#16a34a"><title>Accepted epoch 195, diff 2</title></circle>
    <circle cx="268.4" cy="91.3" r="5" fill="#16a34a"><title>Accepted epoch 198, diff 234</title></circle>
    <circle cx="273.4" cy="162.2" r="5" fill="#16a34a"><title>Accepted epoch 203, diff 116</title></circle>
    <circle cx="274.4" cy="165.2" r="5" fill="#16a34a"><title>Accepted epoch 204, diff 111</title></circle>
    <circle cx="278.4" cy="213.9" r="5" fill="#16a34a"><title>Accepted epoch 208, diff 30</title></circle>
    <circle cx="279.4" cy="150.2" r="5" fill="#16a34a"><title>Accepted epoch 209, diff 136</title></circle>
    <circle cx="280.4" cy="192.8" r="5" fill="#16a34a"><title>Accepted epoch 210, diff 65</title></circle>
    <circle cx="282.4" cy="218.1" r="5" fill="#16a34a"><title>Accepted epoch 212, diff 23</title></circle>
    <circle cx="291.3" cy="82.8" r="5" fill="#16a34a"><title>Accepted epoch 221, diff 248</title></circle>
    <circle cx="293.3" cy="218.1" r="5" fill="#16a34a"><title>Accepted epoch 223, diff 23</title></circle>
    <circle cx="295.3" cy="210.3" r="5" fill="#16a34a"><title>Accepted epoch 225, diff 36</title></circle>
    <circle cx="297.3" cy="210.9" r="5" fill="#16a34a"><title>Accepted epoch 227, diff 35</title></circle>
    <circle cx="306.3" cy="219.9" r="5" fill="#16a34a"><title>Accepted epoch 236, diff 20</title></circle>
    <circle cx="310.3" cy="191.6" r="5" fill="#16a34a"><title>Accepted epoch 240, diff 67</title></circle>
    <circle cx="313.3" cy="176.0" r="5" fill="#16a34a"><title>Accepted epoch 243, diff 93</title></circle>
    <circle cx="314.3" cy="88.9" r="5" fill="#16a34a"><title>Accepted epoch 244, diff 238</title></circle>
    <circle cx="317.3" cy="228.9" r="5" fill="#16a34a"><title>Accepted epoch 247, diff 5</title></circle>
    <circle cx="327.2" cy="158.0" r="5" fill="#16a34a"><title>Accepted epoch 257, diff 123</title></circle>
    <circle cx="328.2" cy="144.7" r="5" fill="#16a34a"><title>Accepted epoch 258, diff 145</title></circle>
    <circle cx="330.2" cy="188.0" r="5" fill="#16a34a"><title>Accepted epoch 260, diff 73</title></circle>
    <circle cx="341.2" cy="171.2" r="5" fill="#16a34a"><title>Accepted epoch 271, diff 101</title></circle>
    <circle cx="343.2" cy="230.1" r="5" fill="#16a34a"><title>Accepted epoch 273, diff 3</title></circle>
    <circle cx="345.2" cy="178.4" r="5" fill="#16a34a"><title>Accepted epoch 275, diff 89</title></circle>
    <circle cx="347.2" cy="111.1" r="5" fill="#16a34a"><title>Accepted epoch 277, diff 201</title></circle>
    <circle cx="350.2" cy="136.3" r="5" fill="#16a34a"><title>Accepted epoch 280, diff 159</title></circle>
    <circle cx="353.2" cy="141.7" r="5" fill="#16a34a"><title>Accepted epoch 283, diff 150</title></circle>
    <circle cx="360.1" cy="221.7" r="5" fill="#16a34a"><title>Accepted epoch 290, diff 17</title></circle>
    <circle cx="361.1" cy="133.9" r="5" fill="#16a34a"><title>Accepted epoch 291, diff 163</title></circle>
    <circle cx="375.1" cy="204.8" r="5" fill="#16a34a"><title>Accepted epoch 305, diff 45</title></circle>
    <circle cx="391.0" cy="206.7" r="5" fill="#16a34a"><title>Accepted epoch 321, diff 42</title></circle>
    <circle cx="395.0" cy="152.0" r="5" fill="#16a34a"><title>Accepted epoch 325, diff 133</title></circle>
    <circle cx="399.0" cy="147.8" r="5" fill="#16a34a"><title>Accepted epoch 329, diff 140</title></circle>
    <circle cx="402.0" cy="200.6" r="5" fill="#16a34a"><title>Accepted epoch 332, diff 52</title></circle>
    <circle cx="404.0" cy="198.8" r="5" fill="#16a34a"><title>Accepted epoch 334, diff 55</title></circle>
    <circle cx="406.0" cy="195.2" r="5" fill="#16a34a"><title>Accepted epoch 336, diff 61</title></circle>
    <circle cx="408.0" cy="170.6" r="5" fill="#16a34a"><title>Accepted epoch 338, diff 102</title></circle>
    <circle cx="417.0" cy="224.1" r="5" fill="#16a34a"><title>Accepted epoch 347, diff 13</title></circle>
    <circle cx="419.0" cy="219.3" r="5" fill="#16a34a"><title>Accepted epoch 349, diff 21</title></circle>
    <circle cx="425.9" cy="176.6" r="5" fill="#16a34a"><title>Accepted epoch 356, diff 92</title></circle>
    <circle cx="437.9" cy="165.8" r="5" fill="#16a34a"><title>Accepted epoch 368, diff 110</title></circle>
    <circle cx="455.8" cy="125.5" r="5" fill="#16a34a"><title>Accepted epoch 386, diff 177</title></circle>
    <circle cx="467.8" cy="58.2" r="5" fill="#16a34a"><title>Accepted epoch 398, diff 289</title></circle>
    <circle cx="472.8" cy="107.5" r="5" fill="#16a34a"><title>Accepted epoch 403, diff 207</title></circle>
    <circle cx="488.7" cy="176.0" r="5" fill="#16a34a"><title>Accepted epoch 419, diff 93</title></circle>
    <circle cx="492.7" cy="153.8" r="5" fill="#16a34a"><title>Accepted epoch 423, diff 130</title></circle>
    <circle cx="497.7" cy="144.7" r="5" fill="#16a34a"><title>Accepted epoch 428, diff 145</title></circle>
    <circle cx="504.7" cy="227.1" r="5" fill="#16a34a"><title>Accepted epoch 435, diff 8</title></circle>
    <circle cx="507.7" cy="228.9" r="5" fill="#16a34a"><title>Accepted epoch 438, diff 5</title></circle>
    <circle cx="509.7" cy="222.3" r="5" fill="#16a34a"><title>Accepted epoch 440, diff 16</title></circle>
    <circle cx="512.7" cy="158.0" r="5" fill="#16a34a"><title>Accepted epoch 443, diff 123</title></circle>
    <circle cx="530.6" cy="195.2" r="5" fill="#16a34a"><title>Accepted epoch 461, diff 61</title></circle>
    <circle cx="531.6" cy="227.1" r="5" fill="#16a34a"><title>Accepted epoch 462, diff 8</title></circle>
    <circle cx="541.6" cy="124.9" r="5" fill="#16a34a"><title>Accepted epoch 472, diff 178</title></circle>
    <circle cx="550.6" cy="228.9" r="5" fill="#16a34a"><title>Accepted epoch 481, diff 5</title></circle>
    <circle cx="552.6" cy="75.6" r="5" fill="#16a34a"><title>Accepted epoch 483, diff 260</title></circle>
    <circle cx="554.5" cy="188.0" r="5" fill="#16a34a"><title>Accepted epoch 485, diff 73</title></circle>
    <circle cx="561.5" cy="172.4" r="5" fill="#16a34a"><title>Accepted epoch 492, diff 99</title></circle>
    <circle cx="566.5" cy="162.8" r="5" fill="#16a34a"><title>Accepted epoch 497, diff 115</title></circle>
    <circle cx="567.5" cy="176.0" r="5" fill="#16a34a"><title>Accepted epoch 498, diff 93</title></circle>
    <circle cx="578.5" cy="197.0" r="5" fill="#16a34a"><title>Accepted epoch 509, diff 58</title></circle>
    <circle cx="582.5" cy="191.6" r="5" fill="#16a34a"><title>Accepted epoch 513, diff 67</title></circle>
    <circle cx="588.4" cy="216.3" r="5" fill="#16a34a"><title>Accepted epoch 519, diff 26</title></circle>
    <circle cx="590.4" cy="164.6" r="5" fill="#16a34a"><title>Accepted epoch 521, diff 112</title></circle>
    <circle cx="593.4" cy="154.4" r="5" fill="#16a34a"><title>Accepted epoch 524, diff 129</title></circle>
    <circle cx="603.4" cy="156.2" r="5" fill="#16a34a"><title>Accepted epoch 534, diff 126</title></circle>
    <circle cx="604.4" cy="130.9" r="5" fill="#16a34a"><title>Accepted epoch 535, diff 168</title></circle>
    <circle cx="613.4" cy="227.7" r="5" fill="#16a34a"><title>Accepted epoch 544, diff 7</title></circle>
    <circle cx="626.3" cy="231.3" r="5" fill="#16a34a"><title>Accepted epoch 557, diff 1</title></circle>
    <circle cx="636.3" cy="149.0" r="5" fill="#16a34a"><title>Accepted epoch 567, diff 138</title></circle>
    <circle cx="647.3" cy="160.4" r="5" fill="#16a34a"><title>Accepted epoch 578, diff 119</title></circle>
    <circle cx="648.3" cy="215.7" r="5" fill="#16a34a"><title>Accepted epoch 579, diff 27</title></circle>
    <circle cx="650.3" cy="172.4" r="5" fill="#16a34a"><title>Accepted epoch 581, diff 99</title></circle>
    <circle cx="654.2" cy="153.8" r="5" fill="#16a34a"><title>Accepted epoch 585, diff 130</title></circle>
    <circle cx="664.2" cy="182.6" r="5" fill="#16a34a"><title>Accepted epoch 595, diff 82</title></circle>
    <circle cx="665.2" cy="228.9" r="5" fill="#16a34a"><title>Accepted epoch 596, diff 5</title></circle>
    <circle cx="666.2" cy="228.3" r="5" fill="#16a34a"><title>Accepted epoch 597, diff 6</title></circle>
    <circle cx="669.2" cy="155.0" r="5" fill="#16a34a"><title>Accepted epoch 600, diff 128</title></circle>
    <circle cx="674.2" cy="211.5" r="5" fill="#16a34a"><title>Accepted epoch 605, diff 34</title></circle>
    <circle cx="680.2" cy="133.3" r="5" fill="#16a34a"><title>Accepted epoch 611, diff 164</title></circle>
    <circle cx="684.2" cy="121.9" r="5" fill="#16a34a"><title>Accepted epoch 615, diff 183</title></circle>
    <circle cx="685.2" cy="168.8" r="5" fill="#16a34a"><title>Accepted epoch 616, diff 105</title></circle>
    <circle cx="689.1" cy="127.3" r="5" fill="#16a34a"><title>Accepted epoch 620, diff 174</title></circle>
    <circle cx="691.1" cy="201.8" r="5" fill="#16a34a"><title>Accepted epoch 622, diff 50</title></circle>
    <circle cx="698.1" cy="206.7" r="5" fill="#16a34a"><title>Accepted epoch 629, diff 42</title></circle>
    <circle cx="702.1" cy="228.9" r="5" fill="#16a34a"><title>Accepted epoch 633, diff 5</title></circle>
    <circle cx="704.1" cy="201.8" r="5" fill="#16a34a"><title>Accepted epoch 635, diff 50</title></circle>
    <circle cx="712.1" cy="218.7" r="5" fill="#16a34a"><title>Accepted epoch 643, diff 22</title></circle>
    <circle cx="716.1" cy="219.3" r="5" fill="#16a34a"><title>Accepted epoch 647, diff 21</title></circle>
    <circle cx="717.1" cy="178.4" r="5" fill="#16a34a"><title>Accepted epoch 648, diff 89</title></circle>
    <circle cx="721.0" cy="172.4" r="5" fill="#16a34a"><title>Accepted epoch 652, diff 99</title></circle>
    <circle cx="732.0" cy="126.7" r="5" fill="#16a34a"><title>Accepted epoch 663, diff 175</title></circle>
    <circle cx="733.0" cy="199.4" r="5" fill="#16a34a"><title>Accepted epoch 664, diff 54</title></circle>
    <circle cx="738.0" cy="186.8" r="5" fill="#16a34a"><title>Accepted epoch 669, diff 75</title></circle>
    <circle cx="741.0" cy="136.3" r="5" fill="#16a34a"><title>Accepted epoch 672, diff 159</title></circle>
    <circle cx="747.0" cy="203.6" r="5" fill="#16a34a"><title>Accepted epoch 678, diff 47</title></circle>
    <circle cx="749.0" cy="197.0" r="5" fill="#16a34a"><title>Accepted epoch 680, diff 58</title></circle>
    <circle cx="750.0" cy="197.0" r="5" fill="#16a34a"><title>Accepted epoch 681, diff 58</title></circle>
    <circle cx="752.0" cy="212.7" r="5" fill="#16a34a"><title>Accepted epoch 683, diff 32</title></circle>
    <circle cx="753.9" cy="141.1" r="5" fill="#16a34a"><title>Accepted epoch 685, diff 151</title></circle>
    <circle cx="758.9" cy="184.4" r="5" fill="#16a34a"><title>Accepted epoch 690, diff 79</title></circle>
    <circle cx="761.9" cy="189.2" r="5" fill="#16a34a"><title>Accepted epoch 693, diff 71</title></circle>
    <circle cx="762.9" cy="200.6" r="5" fill="#16a34a"><title>Accepted epoch 694, diff 52</title></circle>
    <circle cx="765.9" cy="224.7" r="5" fill="#16a34a"><title>Accepted epoch 697, diff 12</title></circle>
    <circle cx="770.9" cy="185.6" r="5" fill="#16a34a"><title>Accepted epoch 702, diff 77</title></circle>
    <circle cx="771.9" cy="220.5" r="5" fill="#16a34a"><title>Accepted epoch 703, diff 19</title></circle>
    <circle cx="772.9" cy="135.7" r="5" fill="#16a34a"><title>Accepted epoch 704, diff 160</title></circle>
    <circle cx="779.9" cy="191.0" r="5" fill="#16a34a"><title>Accepted epoch 711, diff 68</title></circle>
    <circle cx="781.9" cy="125.5" r="5" fill="#16a34a"><title>Accepted epoch 713, diff 177</title></circle>
    <circle cx="787.8" cy="179.0" r="5" fill="#16a34a"><title>Accepted epoch 719, diff 88</title></circle>
    <circle cx="793.8" cy="188.0" r="5" fill="#16a34a"><title>Accepted epoch 725, diff 73</title></circle>
    <circle cx="796.8" cy="180.8" r="5" fill="#16a34a"><title>Accepted epoch 728, diff 85</title></circle>
    <circle cx="798.8" cy="225.9" r="5" fill="#16a34a"><title>Accepted epoch 730, diff 10</title></circle>
    <circle cx="800.8" cy="166.4" r="5" fill="#16a34a"><title>Accepted epoch 732, diff 109</title></circle>
    <circle cx="809.8" cy="155.6" r="5" fill="#16a34a"><title>Accepted epoch 741, diff 127</title></circle>
    <circle cx="810.8" cy="222.9" r="5" fill="#16a34a"><title>Accepted epoch 742, diff 15</title></circle>
    <circle cx="811.8" cy="211.5" r="5" fill="#16a34a"><title>Accepted epoch 743, diff 34</title></circle>
    <circle cx="813.8" cy="204.2" r="5" fill="#16a34a"><title>Accepted epoch 745, diff 46</title></circle>
    <circle cx="820.7" cy="135.1" r="5" fill="#16a34a"><title>Accepted epoch 752, diff 161</title></circle>
    <circle cx="821.7" cy="186.8" r="5" fill="#16a34a"><title>Accepted epoch 753, diff 75</title></circle>
    <circle cx="834.7" cy="162.8" r="5" fill="#16a34a"><title>Accepted epoch 766, diff 115</title></circle>
    <circle cx="836.7" cy="130.9" r="5" fill="#16a34a"><title>Accepted epoch 768, diff 168</title></circle>
    <circle cx="846.7" cy="189.8" r="5" fill="#16a34a"><title>Accepted epoch 778, diff 70</title></circle>
    <circle cx="850.7" cy="218.1" r="5" fill="#16a34a"><title>Accepted epoch 782, diff 23</title></circle>
    <circle cx="860.6" cy="187.4" r="5" fill="#16a34a"><title>Accepted epoch 792, diff 74</title></circle>
    <circle cx="866.6" cy="225.9" r="5" fill="#16a34a"><title>Accepted epoch 798, diff 10</title></circle>
    <circle cx="871.6" cy="230.7" r="5" fill="#16a34a"><title>Accepted epoch 803, diff 2</title></circle>
    <circle cx="879.6" cy="208.5" r="5" fill="#16a34a"><title>Accepted epoch 811, diff 39</title></circle>
    <circle cx="882.6" cy="173.0" r="5" fill="#16a34a"><title>Accepted epoch 814, diff 98</title></circle>
    <circle cx="883.6" cy="165.2" r="5" fill="#16a34a"><title>Accepted epoch 815, diff 111</title></circle>
    <circle cx="889.5" cy="129.1" r="5" fill="#16a34a"><title>Accepted epoch 821, diff 171</title></circle>
    <circle cx="894.5" cy="67.2" r="5" fill="#16a34a"><title>Accepted epoch 826, diff 274</title></circle>
    <circle cx="899.5" cy="181.4" r="5" fill="#16a34a"><title>Accepted epoch 831, diff 84</title></circle>
    <circle cx="909.5" cy="129.1" r="5" fill="#16a34a"><title>Accepted epoch 841, diff 171</title></circle>
    <circle cx="916.5" cy="54.0" r="5" fill="#16a34a"><title>Accepted epoch 848, diff 296</title></circle>
    <circle cx="925.4" cy="100.3" r="5" fill="#16a34a"><title>Accepted epoch 857, diff 219</title></circle>
    <circle cx="930.4" cy="126.7" r="5" fill="#16a34a"><title>Accepted epoch 862, diff 175</title></circle>
    <circle cx="932.4" cy="217.5" r="5" fill="#16a34a"><title>Accepted epoch 864, diff 24</title></circle>
    <circle cx="936.4" cy="228.3" r="5" fill="#16a34a"><title>Accepted epoch 868, diff 6</title></circle>
    <circle cx="937.4" cy="225.9" r="5" fill="#16a34a"><title>Accepted epoch 869, diff 10</title></circle>
    <circle cx="939.4" cy="189.8" r="5" fill="#16a34a"><title>Accepted epoch 871, diff 70</title></circle>
    <circle cx="940.4" cy="163.4" r="5" fill="#16a34a"><title>Accepted epoch 872, diff 114</title></circle>
    <circle cx="946.4" cy="227.7" r="5" fill="#16a34a"><title>Accepted epoch 878, diff 7</title></circle>
    <circle cx="947.4" cy="157.4" r="5" fill="#16a34a"><title>Accepted epoch 879, diff 124</title></circle>
    <circle cx="958.3" cy="159.8" r="5" fill="#16a34a"><title>Accepted epoch 890, diff 120</title></circle>
    <circle cx="962.3" cy="166.4" r="5" fill="#16a34a"><title>Accepted epoch 894, diff 109</title></circle>
    <circle cx="967.3" cy="171.2" r="5" fill="#16a34a"><title>Accepted epoch 899, diff 101</title></circle>
    <circle cx="971.3" cy="223.5" r="5" fill="#16a34a"><title>Accepted epoch 903, diff 14</title></circle>
    <circle cx="972.3" cy="170.0" r="5" fill="#16a34a"><title>Accepted epoch 904, diff 103</title></circle>
    <circle cx="978.3" cy="160.4" r="5" fill="#16a34a"><title>Accepted epoch 910, diff 119</title></circle>
    <circle cx="981.3" cy="97.9" r="5" fill="#16a34a"><title>Accepted epoch 913, diff 223</title></circle>
    <circle cx="983.3" cy="198.8" r="5" fill="#16a34a"><title>Accepted epoch 915, diff 55</title></circle>
    <circle cx="990.2" cy="162.8" r="5" fill="#16a34a"><title>Accepted epoch 922, diff 115</title></circle>
    <circle cx="991.2" cy="146.6" r="5" fill="#16a34a"><title>Accepted epoch 923, diff 142</title></circle>
    <circle cx="992.2" cy="208.5" r="5" fill="#16a34a"><title>Accepted epoch 924, diff 39</title></circle>
    <circle cx="995.2" cy="225.9" r="5" fill="#16a34a"><title>Accepted epoch 927, diff 10</title></circle>
    <circle cx="1005.2" cy="227.7" r="5" fill="#16a34a"><title>Accepted epoch 937, diff 7</title></circle>
    <circle cx="1012.2" cy="221.7" r="5" fill="#16a34a"><title>Accepted epoch 944, diff 17</title></circle>
    <circle cx="1017.2" cy="207.3" r="5" fill="#16a34a"><title>Accepted epoch 949, diff 41</title></circle>
    <circle cx="1020.1" cy="161.6" r="5" fill="#16a34a"><title>Accepted epoch 952, diff 117</title></circle>
    <circle cx="1021.1" cy="74.4" r="5" fill="#16a34a"><title>Accepted epoch 953, diff 262</title></circle>
    <circle cx="1024.1" cy="209.1" r="5" fill="#16a34a"><title>Accepted epoch 956, diff 38</title></circle>
    <circle cx="1031.1" cy="187.4" r="5" fill="#16a34a"><title>Accepted epoch 963, diff 74</title></circle>
    <circle cx="1032.1" cy="187.4" r="5" fill="#16a34a"><title>Accepted epoch 964, diff 74</title></circle>
    <circle cx="1034.1" cy="212.7" r="5" fill="#16a34a"><title>Accepted epoch 966, diff 32</title></circle>
    <circle cx="1038.1" cy="212.1" r="5" fill="#16a34a"><title>Accepted epoch 970, diff 33</title></circle>
    <circle cx="1061.0" cy="168.2" r="5" fill="#16a34a"><title>Accepted epoch 993, diff 106</title></circle>
    <circle cx="1063.0" cy="222.3" r="5" fill="#16a34a"><title>Accepted epoch 995, diff 16</title></circle>
    <circle cx="1065.0" cy="190.4" r="5" fill="#16a34a"><title>Accepted epoch 997, diff 69</title></circle>
    <g transform="translate(72, 566.0)" font-size="13" fill="#111827">
      <rect x="0" y="-12" width="14" height="4" fill="#2563eb"/><text x="22" y="-7">Candidate avg goals</text>
      <rect x="190" y="-12" width="14" height="4" fill="#ef4444"/><text x="212" y="-7">Baseline avg goals</text>
      <rect x="378" y="-12" width="14" height="4" fill="#7c3aed"/><text x="400" y="-7">Goal diff</text>
      <circle cx="548" cy="-10" r="5" fill="#16a34a"/><text x="562" y="-7">Accepted improvement</text>
    </g>
  </g>
</svg>
