<?xml version="1.0" encoding="UTF-8"?>
<svg xmlns="http://www.w3.org/2000/svg" width="1100" height="620" viewBox="0 0 1100 620">
  <rect width="100%" height="100%" fill="#ffffff"/>
  <text x="72" y="30" font-family="Arial, sans-serif" font-size="22" font-weight="700" fill="#111827">Training progress</text>
  <text x="1068" y="30" text-anchor="end" font-family="Arial, sans-serif" font-size="13" fill="#4b5563">Final champion epoch: 88</text>
  <g font-family="Arial, sans-serif">
    <line x1="72.0" y1="54.0" x2="72.0" y2="542.0" stroke="#eef2f7" stroke-width="1"/>
    <text x="72.0" y="566.0" text-anchor="middle" font-size="12" fill="#4b5563">1</text>
    <line x1="172.6" y1="54.0" x2="172.6" y2="542.0" stroke="#eef2f7" stroke-width="1"/>
    <text x="172.6" y="566.0" text-anchor="middle" font-size="12" fill="#4b5563">11</text>
    <line x1="273.2" y1="54.0" x2="273.2" y2="542.0" stroke="#eef2f7" stroke-width="1"/>
    <text x="273.2" y="566.0" text-anchor="middle" font-size="12" fill="#4b5563">21</text>
    <line x1="373.8" y1="54.0" x2="373.8" y2="542.0" stroke="#eef2f7" stroke-width="1"/>
    <text x="373.8" y="566.0" text-anchor="middle" font-size="12" fill="#4b5563">31</text>
    <line x1="474.4" y1="54.0" x2="474.4" y2="542.0" stroke="#eef2f7" stroke-width="1"/>
    <text x="474.4" y="566.0" text-anchor="middle" font-size="12" fill="#4b5563">41</text>
    <line x1="575.0" y1="54.0" x2="575.0" y2="542.0" stroke="#eef2f7" stroke-width="1"/>
    <text x="575.0" y="566.0" text-anchor="middle" font-size="12" fill="#4b5563">51</text>
    <line x1="675.6" y1="54.0" x2="675.6" y2="542.0" stroke="#eef2f7" stroke-width="1"/>
    <text x="675.6" y="566.0" text-anchor="middle" font-size="12" fill="#4b5563">61</text>
    <line x1="776.2" y1="54.0" x2="776.2" y2="542.0" stroke="#eef2f7" stroke-width="1"/>
    <text x="776.2" y="566.0" text-anchor="middle" font-size="12" fill="#4b5563">71</text>
    <line x1="876.8" y1="54.0" x2="876.8" y2="542.0" stroke="#eef2f7" stroke-width="1"/>
    <text x="876.8" y="566.0" text-anchor="middle" font-size="12" fill="#4b5563">81</text>
    <line x1="977.5" y1="54.0" x2="977.5" y2="542.0" stroke="#eef2f7" stroke-width="1"/>
    <text x="977.5" y="566.0" text-anchor="middle" font-size="12" fill="#4b5563">91</text>
    <line x1="72.0" y1="542.0" x2="1068.0" y2="542.0" stroke="#d8dee9" stroke-width="1" opacity="0.55"/>
    <text x="60.0" y="546.0" text-anchor="end" font-size="12" fill="#4b5563">-439.0</text>
    <line x1="72.0" y1="444.4" x2="1068.0" y2="444.4" stroke="#d8dee9" stroke-width="1" opacity="0.55"/>
    <text x="60.0" y="448.4" text-anchor="end" font-size="12" fill="#4b5563">-290.8</text>
    <line x1="72.0" y1="346.8" x2="1068.0" y2="346.8" stroke="#d8dee9" stroke-width="1" opacity="0.55"/>
    <text x="60.0" y="350.8" text-anchor="end" font-size="12" fill="#4b5563">-142.6</text>
    <line x1="72.0" y1="249.2" x2="1068.0" y2="249.2" stroke="#d8dee9" stroke-width="1" opacity="0.55"/>
    <text x="60.0" y="253.2" text-anchor="end" font-size="12" fill="#4b5563">5.6</text>
    <line x1="72.0" y1="151.6" x2="1068.0" y2="151.6" stroke="#d8dee9" stroke-width="1" opacity="0.55"/>
    <text x="60.0" y="155.6" text-anchor="end" font-size="12" fill="#4b5563">153.8</text>
    <line x1="72.0" y1="54.0" x2="1068.0" y2="54.0" stroke="#d8dee9" stroke-width="1" opacity="0.55"/>
    <text x="60.0" y="58.0" text-anchor="end" font-size="12" fill="#4b5563">302.0</text>
    <line x1="72.0" y1="54.0" x2="72.0" y2="542.0" stroke="#111827" stroke-width="1.4"/>
    <line x1="72.0" y1="542.0" x2="1068.0" y2="542.0" stroke="#111827" stroke-width="1.4"/>
    <text x="570.0" y="596.0" text-anchor="middle" font-size="13" fill="#111827">Epoch</text>
    <text x="20" y="298.0" transform="rotate(-90 20 298.0)" text-anchor="middle" font-size="13" fill="#111827">Goals / goal diff</text>
    <polyline fill="none" stroke="#2563eb" stroke-width="2.4" points="72.0,250.3 82.1,250.6 92.1,252.2 102.2,250.3 112.2,250.5 122.3,250.3 132.4,252.8 142.4,250.2 152.5,251.9 162.5,250.2 172.6,250.2 182.7,250.3 192.7,250.3 202.8,251.9 212.8,250.3 222.9,250.4 233.0,250.5 243.0,250.4 253.1,250.5 263.2,251.3 273.2,251.2 283.3,250.3 293.3,250.2 303.4,252.1 313.5,252.2 323.5,249.8 333.6,249.7 343.6,250.1 353.7,250.0 363.8,249.5 373.8,249.7 383.9,252.9 393.9,249.5 404.0,249.5 414.1,249.5 424.1,249.5 434.2,249.5 444.2,249.7 454.3,249.5 464.4,249.7 474.4,249.5 484.5,249.5 494.5,252.9 504.6,249.5 514.7,252.3 524.7,249.6 534.8,249.7 544.8,249.8 554.9,252.7 565.0,250.2 575.0,250.1 585.1,250.2 595.2,250.0 605.2,252.2 615.3,250.1 625.3,250.3 635.4,249.7 645.5,250.1 655.5,249.5 665.6,249.4 675.6,249.5 685.7,249.2 695.8,249.1 705.8,249.2 715.9,249.0 725.9,250.3 736.0,249.2 746.1,249.1 756.1,252.2 766.2,249.0 776.2,249.0 786.3,249.0 796.4,249.0 806.4,249.7 816.5,249.0 826.5,250.4 836.6,249.0 846.7,250.0 856.7,250.8 866.8,249.0 876.8,249.1 886.9,249.1 897.0,249.0 907.0,249.1 917.1,249.7 927.2,249.0 937.2,249.4 947.3,249.0 957.3,249.2 967.4,249.4 977.5,249.3 987.5,251.5 997.6,249.1 1007.6,252.9 1017.7,249.2 1027.8,249.9 1037.8,250.9 1047.9,249.1 1057.9,249.2 1068.0,249.2"/>
    <polyline fill="none" stroke="#ef4444" stroke-width="2.4" points="72.0,250.6 82.1,250.7 92.1,251.6 102.2,250.4 112.2,250.4 122.3,250.3 132.4,251.4 142.4,250.1 152.5,251.3 162.5,250.2 172.6,250.1 182.7,250.2 192.7,250.2 202.8,251.3 212.8,250.4 222.9,250.4 233.0,250.4 243.0,250.5 253.1,250.5 263.2,250.8 273.2,250.6 283.3,250.4 293.3,250.1 303.4,251.4 313.5,251.4 323.5,249.9 333.6,249.6 343.6,249.7 353.7,249.8 363.8,249.6 373.8,249.5 383.9,251.8 393.9,249.4 404.0,249.4 414.1,249.5 424.1,249.5 434.2,249.4 444.2,249.6 454.3,249.5 464.4,249.6 474.4,249.5 484.5,249.4 494.5,251.5 504.6,249.5 514.7,251.3 524.7,249.5 534.8,249.6 544.8,249.8 554.9,250.5 565.0,250.0 575.0,250.0 585.1,250.1 595.2,250.1 605.2,251.5 615.3,250.0 625.3,250.1 635.4,249.8 645.5,249.8 655.5,249.6 665.6,249.6 675.6,249.5 685.7,249.4 695.8,249.1 705.8,249.2 715.9,249.2 725.9,249.2 736.0,249.1 746.1,249.0 756.1,251.1 766.2,249.1 776.2,249.1 786.3,249.0 796.4,249.0 806.4,249.3 816.5,249.0 826.5,249.4 836.6,249.0 846.7,249.5 856.7,249.6 866.8,249.0 876.8,249.0 886.9,249.1 897.0,249.0 907.0,249.0 917.1,249.5 927.2,249.1 937.2,249.2 947.3,249.0 957.3,249.2 967.4,249.1 977.5,249.1 987.5,249.8 997.6,249.1 1007.6,251.8 1017.7,249.0 1027.8,249.4 1037.8,250.3 1047.9,249.1 1057.9,249.0 1068.0,249.2"/>
    <polyline fill="none" stroke="#7c3aed" stroke-width="2" stroke-dasharray="6 5" points="72.0,135.0 82.1,189.7 92.1,304.3 102.2,121.2 112.2,323.4 122.3,303.6 132.4,388.6 142.4,398.4 152.5,306.9 162.5,246.3 172.6,331.9 182.7,326.6 192.7,310.8 202.8,310.2 212.8,216.7 222.9,208.1 233.0,307.5 243.0,233.8 253.1,241.7 263.2,314.8 273.2,312.8 283.3,146.9 293.3,279.2 303.4,316.8 313.5,337.2 323.5,167.9 333.6,266.7 343.6,393.2 353.7,459.0 363.8,227.9 373.8,459.0 383.9,365.5 393.9,397.8 404.0,343.1 414.1,281.2 424.1,275.9 434.2,307.5 444.2,337.2 454.3,235.8 464.4,354.3 474.4,228.5 484.5,314.1 494.5,388.6 504.6,199.5 514.7,355.0 524.7,304.9 534.8,432.0 544.8,247.6 554.9,476.8 565.0,380.7 575.0,349.7 585.1,373.4 595.2,152.1 605.2,326.0 615.3,355.6 625.3,472.2 635.4,113.9 645.5,457.0 655.5,121.2 665.6,147.5 675.6,239.7 685.7,54.0 695.8,175.2 705.8,304.9 715.9,82.3 725.9,370.8 736.0,358.9 746.1,303.6 756.1,355.6 766.2,158.1 776.2,156.1 786.3,291.7 796.4,259.5 806.4,482.1 816.5,319.4 826.5,355.0 836.6,183.7 846.7,433.3 856.7,370.1 866.8,195.6 876.8,340.5 886.9,297.7 897.0,188.3 907.0,263.4 917.1,496.6 927.2,210.1 937.2,445.8 947.3,247.0 957.3,261.4 967.4,542.0 977.5,413.6 987.5,426.8 997.6,285.2 1007.6,363.5 1017.7,463.6 1027.8,437.3 1037.8,347.7 1047.9,277.3 1057.9,417.5 1068.0,323.4"/>
    <circle cx="72.0" cy="135.0" r="5" fill="#16a34a"><title>Accepted epoch 1, diff 179</title></circle>
    <circle cx="82.1" cy="189.7" r="5" fill="#16a34a"><title>Accepted epoch 2, diff 96</title></circle>
    <circle cx="102.2" cy="121.2" r="5" fill="#16a34a"><title>Accepted epoch 4, diff 200</title></circle>
    <circle cx="162.5" cy="246.3" r="5" fill="#16a34a"><title>Accepted epoch 10, diff 10</title></circle>
    <circle cx="212.8" cy="216.7" r="5" fill="#16a34a"><title>Accepted epoch 15, diff 55</title></circle>
    <circle cx="222.9" cy="208.1" r="5" fill="#16a34a"><title>Accepted epoch 16, diff 68</title></circle>
    <circle cx="243.0" cy="233.8" r="5" fill="#16a34a"><title>Accepted epoch 18, diff 29</title></circle>
    <circle cx="253.1" cy="241.7" r="5" fill="#16a34a"><title>Accepted epoch 19, diff 17</title></circle>
    <circle cx="283.3" cy="146.9" r="5" fill="#16a34a"><title>Accepted epoch 22, diff 161</title></circle>
    <circle cx="323.5" cy="167.9" r="5" fill="#16a34a"><title>Accepted epoch 26, diff 129</title></circle>
    <circle cx="363.8" cy="227.9" r="5" fill="#16a34a"><title>Accepted epoch 30, diff 38</title></circle>
    <circle cx="454.3" cy="235.8" r="5" fill="#16a34a"><title>Accepted epoch 39, diff 26</title></circle>
    <circle cx="474.4" cy="228.5" r="5" fill="#16a34a"><title>Accepted epoch 41, diff 37</title></circle>
    <circle cx="504.6" cy="199.5" r="5" fill="#16a34a"><title>Accepted epoch 44, diff 81</title></circle>
    <circle cx="544.8" cy="247.6" r="5" fill="#16a34a"><title>Accepted epoch 48, diff 8</title></circle>
    <circle cx="595.2" cy="152.1" r="5" fill="#16a34a"><title>Accepted epoch 53, diff 153</title></circle>
    <circle cx="635.4" cy="113.9" r="5" fill="#16a34a"><title>Accepted epoch 57, diff 211</title></circle>
    <circle cx="655.5" cy="121.2" r="5" fill="#16a34a"><title>Accepted epoch 59, diff 200</title></circle>
    <circle cx="665.6" cy="147.5" r="5" fill="#16a34a"><title>Accepted epoch 60, diff 160</title></circle>
    <circle cx="675.6" cy="239.7" r="5" fill="#16a34a"><title>Accepted epoch 61, diff 20</title></circle>
    <circle cx="685.7" cy="54.0" r="5" fill="#16a34a"><title>Accepted epoch 62, diff 302</title></circle>
    <circle cx="695.8" cy="175.2" r="5" fill="#16a34a"><title>Accepted epoch 63, diff 118</title></circle>
    <circle cx="715.9" cy="82.3" r="5" fill="#16a34a"><title>Accepted epoch 65, diff 259</title></circle>
    <circle cx="766.2" cy="158.1" r="5" fill="#16a34a"><title>Accepted epoch 70, diff 144</title></circle>
    <circle cx="776.2" cy="156.1" r="5" fill="#16a34a"><title>Accepted epoch 71, diff 147</title></circle>
    <circle cx="836.6" cy="183.7" r="5" fill="#16a34a"><title>Accepted epoch 77, diff 105</title></circle>
    <circle cx="866.8" cy="195.6" r="5" fill="#16a34a"><title>Accepted epoch 80, diff 87</title></circle>
    <circle cx="897.0" cy="188.3" r="5" fill="#16a34a"><title>Accepted epoch 83, diff 98</title></circle>
    <circle cx="927.2" cy="210.1" r="5" fill="#16a34a"><title>Accepted epoch 86, diff 65</title></circle>
    <circle cx="947.3" cy="247.0" r="5" fill="#16a34a"><title>Accepted epoch 88, diff 9</title></circle>
    <g transform="translate(72, 566.0)" font-size="13" fill="#111827">
      <rect x="0" y="-12" width="14" height="4" fill="#2563eb"/><text x="22" y="-7">Candidate avg goals</text>
      <rect x="190" y="-12" width="14" height="4" fill="#ef4444"/><text x="212" y="-7">Baseline avg goals</text>
      <rect x="378" y="-12" width="14" height="4" fill="#7c3aed"/><text x="400" y="-7">Goal diff</text>
      <circle cx="548" cy="-10" r="5" fill="#16a34a"/><text x="562" y="-7">Accepted improvement</text>
    </g>
  </g>
</svg>
