<?xml version="1.0" encoding="UTF-8"?>
<svg xmlns="http://www.w3.org/2000/svg" width="1100" height="620" viewBox="0 0 1100 620">
  <rect width="100%" height="100%" fill="#ffffff"/>
  <text x="72" y="30" font-family="Arial, sans-serif" font-size="22" font-weight="700" fill="#111827">Training progress</text>
  <text x="1068" y="30" text-anchor="end" font-family="Arial, sans-serif" font-size="13" fill="#4b5563">Final champion epoch: 96</text>
  <g font-family="Arial, sans-serif">
    <line x1="72.0" y1="54.0" x2="72.0" y2="542.0" stroke="#eef2f7" stroke-width="1"/>
    <text x="72.0" y="566.0" text-anchor="middle" font-size="12" fill="#4b5563">1</text>
    <line x1="172.6" y1="54.0" x2="172.6" y2="542.0" stroke="#eef2f7" stroke-width="1"/>
    <text x="172.6" y="566.0" text-anchor="middle" font-size="12" fill="#4b5563">11</text>
    <line x1="273.2" y1="54.0" x2="273.2" y2="542.0" stroke="#eef2f7" stroke-width="1"/>
    <text x="273.2" y="566.0" text-anchor="middle" font-size="12" fill="#4b5563">21</text>
    <line x1="373.8" y1="54.0" x2="373.8" y2="542.0" stroke="#eef2f7" stroke-width="1"/>
    <text x="373.8" y="566.0" text-anchor="middle" font-size="12" fill="#4b5563">31</text>
    <line x1="474.4" y1="54.0" x2="474.4" y2="542.0" stroke="#eef2f7" stroke-width="1"/>
    <text x="474.4" y="566.0" text-anchor="middle" font-size="12" fill="#4b5563">41</text>
    <line x1="575.0" y1="54.0" x2="575.0" y2="542.0" stroke="#eef2f7" stroke-width="1"/>
    <text x="575.0" y="566.0" text-anchor="middle" font-size="12" fill="#4b5563">51</text>
    <line x1="675.6" y1="54.0" x2="675.6" y2="542.0" stroke="#eef2f7" stroke-width="1"/>
    <text x="675.6" y="566.0" text-anchor="middle" font-size="12" fill="#4b5563">61</text>
    <line x1="776.2" y1="54.0" x2="776.2" y2="542.0" stroke="#eef2f7" stroke-width="1"/>
    <text x="776.2" y="566.0" text-anchor="middle" font-size="12" fill="#4b5563">71</text>
    <line x1="876.8" y1="54.0" x2="876.8" y2="542.0" stroke="#eef2f7" stroke-width="1"/>
    <text x="876.8" y="566.0" text-anchor="middle" font-size="12" fill="#4b5563">81</text>
    <line x1="977.5" y1="54.0" x2="977.5" y2="542.0" stroke="#eef2f7" stroke-width="1"/>
    <text x="977.5" y="566.0" text-anchor="middle" font-size="12" fill="#4b5563">91</text>
    <line x1="72.0" y1="542.0" x2="1068.0" y2="542.0" stroke="#d8dee9" stroke-width="1" opacity="0.55"/>
    <text x="60.0" y="546.0" text-anchor="end" font-size="12" fill="#4b5563">-2452.0</text>
    <line x1="72.0" y1="444.4" x2="1068.0" y2="444.4" stroke="#d8dee9" stroke-width="1" opacity="0.55"/>
    <text x="60.0" y="448.4" text-anchor="end" font-size="12" fill="#4b5563">-1449.2</text>
    <line x1="72.0" y1="346.8" x2="1068.0" y2="346.8" stroke="#d8dee9" stroke-width="1" opacity="0.55"/>
    <text x="60.0" y="350.8" text-anchor="end" font-size="12" fill="#4b5563">-446.4</text>
    <line x1="72.0" y1="249.2" x2="1068.0" y2="249.2" stroke="#d8dee9" stroke-width="1" opacity="0.55"/>
    <text x="60.0" y="253.2" text-anchor="end" font-size="12" fill="#4b5563">556.4</text>
    <line x1="72.0" y1="151.6" x2="1068.0" y2="151.6" stroke="#d8dee9" stroke-width="1" opacity="0.55"/>
    <text x="60.0" y="155.6" text-anchor="end" font-size="12" fill="#4b5563">1559.2</text>
    <line x1="72.0" y1="54.0" x2="1068.0" y2="54.0" stroke="#d8dee9" stroke-width="1" opacity="0.55"/>
    <text x="60.0" y="58.0" text-anchor="end" font-size="12" fill="#4b5563">2562.0</text>
    <line x1="72.0" y1="54.0" x2="72.0" y2="542.0" stroke="#111827" stroke-width="1.4"/>
    <line x1="72.0" y1="542.0" x2="1068.0" y2="542.0" stroke="#111827" stroke-width="1.4"/>
    <text x="570.0" y="596.0" text-anchor="middle" font-size="13" fill="#111827">Epoch</text>
    <text x="20" y="298.0" transform="rotate(-90 20 298.0)" text-anchor="middle" font-size="13" fill="#111827">Goals / goal diff</text>
    <polyline fill="none" stroke="#2563eb" stroke-width="2.4" points="72.0,303.1 82.1,303.1 92.1,303.0 102.2,303.1 112.2,303.1 122.3,303.1 132.4,303.1 142.4,303.1 152.5,303.1 162.5,303.1 172.6,303.1 182.7,303.1 192.7,303.1 202.8,303.1 212.8,303.1 222.9,303.1 233.0,303.1 243.0,303.1 253.1,303.1 263.2,303.2 273.2,303.1 283.3,303.1 293.3,303.1 303.4,303.1 313.5,303.1 323.5,303.1 333.6,303.2 343.6,303.1 353.7,303.1 363.8,303.1 373.8,303.1 383.9,303.1 393.9,303.1 404.0,303.1 414.1,303.1 424.1,303.1 434.2,303.1 444.2,303.1 454.3,303.1 464.4,303.1 474.4,303.1 484.5,303.1 494.5,303.1 504.6,303.1 514.7,303.1 524.7,303.1 534.8,303.1 544.8,303.1 554.9,303.1 565.0,303.1 575.0,303.1 585.1,303.1 595.2,303.2 605.2,303.1 615.3,303.1 625.3,303.1 635.4,303.1 645.5,303.1 655.5,303.1 665.6,303.1 675.6,303.1 685.7,303.1 695.8,303.1 705.8,303.2 715.9,303.1 725.9,303.1 736.0,303.1 746.1,303.1 756.1,303.1 766.2,303.1 776.2,303.1 786.3,303.2 796.4,303.1 806.4,303.1 816.5,303.1 826.5,303.1 836.6,303.2 846.7,303.1 856.7,303.0 866.8,303.0 876.8,303.0 886.9,303.1 897.0,303.0 907.0,303.1 917.1,303.0 927.2,303.0 937.2,303.0 947.3,303.1 957.3,303.0 967.4,303.1 977.5,303.1 987.5,303.1 997.6,303.1 1007.6,303.0 1017.7,303.0 1027.8,303.0 1037.8,303.0 1047.9,303.0 1057.9,303.0 1068.0,303.0"/>
    <polyline fill="none" stroke="#ef4444" stroke-width="2.4" points="72.0,303.1 82.1,303.1 92.1,303.1 102.2,303.0 112.2,303.1 122.3,303.1 132.4,303.1 142.4,303.1 152.5,303.1 162.5,303.1 172.6,303.1 182.7,303.1 192.7,303.1 202.8,303.1 212.8,303.1 222.9,303.1 233.0,303.1 243.0,303.1 253.1,303.1 263.2,303.0 273.2,303.1 283.3,303.1 293.3,303.1 303.4,303.1 313.5,303.1 323.5,303.0 333.6,303.0 343.6,303.1 353.7,303.1 363.8,303.1 373.8,303.1 383.9,303.1 393.9,303.1 404.0,303.1 414.1,303.1 424.1,303.1 434.2,303.1 444.2,303.1 454.3,303.1 464.4,303.1 474.4,303.1 484.5,303.1 494.5,303.1 504.6,303.1 514.7,303.1 524.7,303.1 534.8,303.1 544.8,303.1 554.9,303.1 565.0,303.1 575.0,303.1 585.1,303.1 595.2,303.0 605.2,303.1 615.3,303.1 625.3,303.1 635.4,303.1 645.5,303.1 655.5,303.1 665.6,303.1 675.6,303.1 685.7,303.1 695.8,303.1 705.8,303.1 715.9,303.1 725.9,303.1 736.0,303.1 746.1,303.1 756.1,303.1 766.2,303.1 776.2,303.1 786.3,303.1 796.4,303.1 806.4,303.1 816.5,303.1 826.5,303.1 836.6,303.1 846.7,303.1 856.7,303.1 866.8,303.0 876.8,303.0 886.9,303.0 897.0,303.0 907.0,303.0 917.1,303.0 927.2,303.0 937.2,303.0 947.3,303.0 957.3,303.0 967.4,303.0 977.5,303.0 987.5,303.0 997.6,303.0 1007.6,303.0 1017.7,303.0 1027.8,303.0 1037.8,303.0 1047.9,303.0 1057.9,303.0 1068.0,303.0"/>
    <polyline fill="none" stroke="#7c3aed" stroke-width="2" stroke-dasharray="6 5" points="72.0,273.1 82.1,397.9 92.1,287.5 102.2,314.4 112.2,108.4 122.3,424.7 132.4,471.9 142.4,408.0 152.5,234.7 162.5,169.3 172.6,311.5 182.7,385.8 192.7,377.6 202.8,137.7 212.8,95.9 222.9,277.3 233.0,311.5 243.0,151.1 253.1,471.0 263.2,323.1 273.2,269.0 283.3,437.9 293.3,58.0 303.4,255.3 313.5,245.6 323.5,315.5 333.6,324.4 343.6,392.7 353.7,414.9 363.8,181.2 373.8,391.9 383.9,342.0 393.9,326.5 404.0,286.9 414.1,312.1 424.1,362.7 434.2,345.6 444.2,54.0 454.3,130.2 464.4,306.5 474.4,355.8 484.5,472.0 494.5,341.0 504.6,312.1 514.7,371.2 524.7,468.7 534.8,285.5 544.8,266.9 554.9,322.3 565.0,333.0 575.0,416.4 585.1,335.6 595.2,323.5 605.2,408.7 615.3,315.8 625.3,239.5 635.4,440.7 645.5,240.1 655.5,444.2 665.6,337.7 675.6,421.0 685.7,365.6 695.8,404.4 705.8,312.0 715.9,208.8 725.9,521.0 736.0,332.6 746.1,298.4 756.1,303.2 766.2,217.9 776.2,443.3 786.3,311.6 796.4,497.6 806.4,232.7 816.5,489.6 826.5,464.1 836.6,311.3 846.7,340.4 856.7,232.1 866.8,442.1 876.8,349.3 886.9,391.3 897.0,162.6 907.0,328.9 917.1,403.9 927.2,361.6 937.2,383.3 947.3,351.6 957.3,278.4 967.4,315.4 977.5,320.3 987.5,315.8 997.6,321.6 1007.6,251.9 1017.7,542.0 1027.8,250.0 1037.8,384.6 1047.9,331.4 1057.9,347.2 1068.0,414.2"/>
    <circle cx="72.0" cy="273.1" r="5" fill="#16a34a"><title>Accepted epoch 1, diff 311</title></circle>
    <circle cx="92.1" cy="287.5" r="5" fill="#16a34a"><title>Accepted epoch 3, diff 163</title></circle>
    <circle cx="112.2" cy="108.4" r="5" fill="#16a34a"><title>Accepted epoch 5, diff 2003</title></circle>
    <circle cx="152.5" cy="234.7" r="5" fill="#16a34a"><title>Accepted epoch 9, diff 705</title></circle>
    <circle cx="162.5" cy="169.3" r="5" fill="#16a34a"><title>Accepted epoch 10, diff 1377</title></circle>
    <circle cx="202.8" cy="137.7" r="5" fill="#16a34a"><title>Accepted epoch 14, diff 1702</title></circle>
    <circle cx="212.8" cy="95.9" r="5" fill="#16a34a"><title>Accepted epoch 15, diff 2132</title></circle>
    <circle cx="222.9" cy="277.3" r="5" fill="#16a34a"><title>Accepted epoch 16, diff 268</title></circle>
    <circle cx="243.0" cy="151.1" r="5" fill="#16a34a"><title>Accepted epoch 18, diff 1564</title></circle>
    <circle cx="273.2" cy="269.0" r="5" fill="#16a34a"><title>Accepted epoch 21, diff 353</title></circle>
    <circle cx="293.3" cy="58.0" r="5" fill="#16a34a"><title>Accepted epoch 23, diff 2521</title></circle>
    <circle cx="303.4" cy="255.3" r="5" fill="#16a34a"><title>Accepted epoch 24, diff 494</title></circle>
    <circle cx="313.5" cy="245.6" r="5" fill="#16a34a"><title>Accepted epoch 25, diff 593</title></circle>
    <circle cx="363.8" cy="181.2" r="5" fill="#16a34a"><title>Accepted epoch 30, diff 1255</title></circle>
    <circle cx="404.0" cy="286.9" r="5" fill="#16a34a"><title>Accepted epoch 34, diff 169</title></circle>
    <circle cx="444.2" cy="54.0" r="5" fill="#16a34a"><title>Accepted epoch 38, diff 2562</title></circle>
    <circle cx="454.3" cy="130.2" r="5" fill="#16a34a"><title>Accepted epoch 39, diff 1779</title></circle>
    <circle cx="534.8" cy="285.5" r="5" fill="#16a34a"><title>Accepted epoch 47, diff 183</title></circle>
    <circle cx="544.8" cy="266.9" r="5" fill="#16a34a"><title>Accepted epoch 48, diff 375</title></circle>
    <circle cx="625.3" cy="239.5" r="5" fill="#16a34a"><title>Accepted epoch 56, diff 656</title></circle>
    <circle cx="645.5" cy="240.1" r="5" fill="#16a34a"><title>Accepted epoch 58, diff 650</title></circle>
    <circle cx="715.9" cy="208.8" r="5" fill="#16a34a"><title>Accepted epoch 65, diff 972</title></circle>
    <circle cx="746.1" cy="298.4" r="5" fill="#16a34a"><title>Accepted epoch 68, diff 51</title></circle>
    <circle cx="756.1" cy="303.2" r="5" fill="#16a34a"><title>Accepted epoch 69, diff 2</title></circle>
    <circle cx="766.2" cy="217.9" r="5" fill="#16a34a"><title>Accepted epoch 70, diff 878</title></circle>
    <circle cx="806.4" cy="232.7" r="5" fill="#16a34a"><title>Accepted epoch 74, diff 726</title></circle>
    <circle cx="856.7" cy="232.1" r="5" fill="#16a34a"><title>Accepted epoch 79, diff 732</title></circle>
    <circle cx="897.0" cy="162.6" r="5" fill="#16a34a"><title>Accepted epoch 83, diff 1446</title></circle>
    <circle cx="957.3" cy="278.4" r="5" fill="#16a34a"><title>Accepted epoch 89, diff 256</title></circle>
    <circle cx="1007.6" cy="251.9" r="5" fill="#16a34a"><title>Accepted epoch 94, diff 529</title></circle>
    <circle cx="1027.8" cy="250.0" r="5" fill="#16a34a"><title>Accepted epoch 96, diff 548</title></circle>
    <g transform="translate(72, 566.0)" font-size="13" fill="#111827">
      <rect x="0" y="-12" width="14" height="4" fill="#2563eb"/><text x="22" y="-7">Candidate avg goals</text>
      <rect x="190" y="-12" width="14" height="4" fill="#ef4444"/><text x="212" y="-7">Baseline avg goals</text>
      <rect x="378" y="-12" width="14" height="4" fill="#7c3aed"/><text x="400" y="-7">Goal diff</text>
      <circle cx="548" cy="-10" r="5" fill="#16a34a"/><text x="562" y="-7">Accepted improvement</text>
    </g>
  </g>
</svg>
