<?xml version="1.0" encoding="UTF-8"?>
<svg xmlns="http://www.w3.org/2000/svg" width="1100" height="620" viewBox="0 0 1100 620">
  <rect width="100%" height="100%" fill="#ffffff"/>
  <text x="72" y="30" font-family="Arial, sans-serif" font-size="22" font-weight="700" fill="#111827">Training progress</text>
  <text x="1068" y="30" text-anchor="end" font-family="Arial, sans-serif" font-size="13" fill="#4b5563">Final champion epoch: 79</text>
  <g font-family="Arial, sans-serif">
    <line x1="72.0" y1="54.0" x2="72.0" y2="542.0" stroke="#eef2f7" stroke-width="1"/>
    <text x="72.0" y="566.0" text-anchor="middle" font-size="12" fill="#4b5563">1</text>
    <line x1="172.6" y1="54.0" x2="172.6" y2="542.0" stroke="#eef2f7" stroke-width="1"/>
    <text x="172.6" y="566.0" text-anchor="middle" font-size="12" fill="#4b5563">11</text>
    <line x1="273.2" y1="54.0" x2="273.2" y2="542.0" stroke="#eef2f7" stroke-width="1"/>
    <text x="273.2" y="566.0" text-anchor="middle" font-size="12" fill="#4b5563">21</text>
    <line x1="373.8" y1="54.0" x2="373.8" y2="542.0" stroke="#eef2f7" stroke-width="1"/>
    <text x="373.8" y="566.0" text-anchor="middle" font-size="12" fill="#4b5563">31</text>
    <line x1="474.4" y1="54.0" x2="474.4" y2="542.0" stroke="#eef2f7" stroke-width="1"/>
    <text x="474.4" y="566.0" text-anchor="middle" font-size="12" fill="#4b5563">41</text>
    <line x1="575.0" y1="54.0" x2="575.0" y2="542.0" stroke="#eef2f7" stroke-width="1"/>
    <text x="575.0" y="566.0" text-anchor="middle" font-size="12" fill="#4b5563">51</text>
    <line x1="675.6" y1="54.0" x2="675.6" y2="542.0" stroke="#eef2f7" stroke-width="1"/>
    <text x="675.6" y="566.0" text-anchor="middle" font-size="12" fill="#4b5563">61</text>
    <line x1="776.2" y1="54.0" x2="776.2" y2="542.0" stroke="#eef2f7" stroke-width="1"/>
    <text x="776.2" y="566.0" text-anchor="middle" font-size="12" fill="#4b5563">71</text>
    <line x1="876.8" y1="54.0" x2="876.8" y2="542.0" stroke="#eef2f7" stroke-width="1"/>
    <text x="876.8" y="566.0" text-anchor="middle" font-size="12" fill="#4b5563">81</text>
    <line x1="977.5" y1="54.0" x2="977.5" y2="542.0" stroke="#eef2f7" stroke-width="1"/>
    <text x="977.5" y="566.0" text-anchor="middle" font-size="12" fill="#4b5563">91</text>
    <line x1="72.0" y1="542.0" x2="1068.0" y2="542.0" stroke="#d8dee9" stroke-width="1" opacity="0.55"/>
    <text x="60.0" y="546.0" text-anchor="end" font-size="12" fill="#4b5563">-4853.0</text>
    <line x1="72.0" y1="444.4" x2="1068.0" y2="444.4" stroke="#d8dee9" stroke-width="1" opacity="0.55"/>
    <text x="60.0" y="448.4" text-anchor="end" font-size="12" fill="#4b5563">-3076.6</text>
    <line x1="72.0" y1="346.8" x2="1068.0" y2="346.8" stroke="#d8dee9" stroke-width="1" opacity="0.55"/>
    <text x="60.0" y="350.8" text-anchor="end" font-size="12" fill="#4b5563">-1300.2</text>
    <line x1="72.0" y1="249.2" x2="1068.0" y2="249.2" stroke="#d8dee9" stroke-width="1" opacity="0.55"/>
    <text x="60.0" y="253.2" text-anchor="end" font-size="12" fill="#4b5563">476.2</text>
    <line x1="72.0" y1="151.6" x2="1068.0" y2="151.6" stroke="#d8dee9" stroke-width="1" opacity="0.55"/>
    <text x="60.0" y="155.6" text-anchor="end" font-size="12" fill="#4b5563">2252.6</text>
    <line x1="72.0" y1="54.0" x2="1068.0" y2="54.0" stroke="#d8dee9" stroke-width="1" opacity="0.55"/>
    <text x="60.0" y="58.0" text-anchor="end" font-size="12" fill="#4b5563">4029.0</text>
    <line x1="72.0" y1="54.0" x2="72.0" y2="542.0" stroke="#111827" stroke-width="1.4"/>
    <line x1="72.0" y1="542.0" x2="1068.0" y2="542.0" stroke="#111827" stroke-width="1.4"/>
    <text x="570.0" y="596.0" text-anchor="middle" font-size="13" fill="#111827">Epoch</text>
    <text x="20" y="298.0" transform="rotate(-90 20 298.0)" text-anchor="middle" font-size="13" fill="#111827">Goals / goal diff</text>
    <polyline fill="none" stroke="#2563eb" stroke-width="2.4" points="72.0,275.0 82.1,275.0 92.1,275.0 102.2,275.2 112.2,275.0 122.3,275.0 132.4,275.3 142.4,275.1 152.5,275.0 162.5,275.0 172.6,275.0 182.7,275.0 192.7,275.0 202.8,275.0 212.8,275.0 222.9,275.1 233.0,275.0 243.0,275.0 253.1,275.0 263.2,275.1 273.2,275.0 283.3,275.0 293.3,275.0 303.4,275.3 313.5,275.0 323.5,275.0 333.6,275.0 343.6,275.1 353.7,275.0 363.8,275.0 373.8,275.3 383.9,275.1 393.9,275.0 404.0,275.0 414.1,275.4 424.1,275.0 434.2,275.0 444.2,275.1 454.3,275.1 464.4,275.3 474.4,275.3 484.5,275.1 494.5,275.0 504.6,275.0 514.7,275.0 524.7,275.0 534.8,275.1 544.8,275.1 554.9,275.0 565.0,275.0 575.0,275.0 585.1,275.2 595.2,275.0 605.2,275.0 615.3,275.3 625.3,275.0 635.4,275.1 645.5,275.3 655.5,275.0 665.6,275.1 675.6,275.1 685.7,275.1 695.8,275.0 705.8,275.3 715.9,275.1 725.9,275.3 736.0,275.0 746.1,275.0 756.1,275.0 766.2,275.0 776.2,275.3 786.3,275.0 796.4,275.4 806.4,275.0 816.5,275.3 826.5,275.0 836.6,275.0 846.7,275.1 856.7,275.0 866.8,275.3 876.8,275.0 886.9,275.0 897.0,275.0 907.0,275.0 917.1,275.0 927.2,275.0 937.2,275.0 947.3,275.3 957.3,275.0 967.4,275.3 977.5,275.0 987.5,275.0 997.6,275.3 1007.6,275.4 1017.7,275.0 1027.8,275.0 1037.8,275.0 1047.9,275.0 1057.9,275.0 1068.0,275.1"/>
    <polyline fill="none" stroke="#ef4444" stroke-width="2.4" points="72.0,275.0 82.1,275.0 92.1,275.0 102.2,275.1 112.2,275.0 122.3,275.0 132.4,275.2 142.4,275.1 152.5,275.0 162.5,275.0 172.6,275.0 182.7,275.0 192.7,275.0 202.8,275.0 212.8,275.0 222.9,275.1 233.0,275.0 243.0,275.0 253.1,275.0 263.2,275.0 273.2,275.0 283.3,275.0 293.3,275.0 303.4,275.2 313.5,275.0 323.5,275.0 333.6,275.0 343.6,275.1 353.7,275.0 363.8,275.0 373.8,275.2 383.9,275.1 393.9,275.0 404.0,275.0 414.1,275.2 424.1,275.0 434.2,275.0 444.2,275.1 454.3,275.0 464.4,275.2 474.4,275.2 484.5,275.1 494.5,275.0 504.6,275.0 514.7,275.0 524.7,275.0 534.8,275.0 544.8,275.1 554.9,275.0 565.0,275.0 575.0,275.0 585.1,275.1 595.2,275.0 605.2,275.0 615.3,275.2 625.3,275.0 635.4,275.0 645.5,275.2 655.5,275.0 665.6,275.1 675.6,275.1 685.7,275.0 695.8,275.0 705.8,275.2 715.9,275.1 725.9,275.2 736.0,275.0 746.1,275.0 756.1,275.0 766.2,275.0 776.2,275.2 786.3,275.0 796.4,275.2 806.4,275.0 816.5,275.2 826.5,275.0 836.6,275.0 846.7,275.0 856.7,275.0 866.8,275.2 876.8,275.0 886.9,275.0 897.0,275.0 907.0,275.0 917.1,275.0 927.2,275.0 937.2,275.0 947.3,275.2 957.3,275.0 967.4,275.2 977.5,275.0 987.5,275.0 997.6,275.2 1007.6,275.2 1017.7,275.0 1027.8,275.0 1037.8,275.0 1047.9,275.0 1057.9,275.0 1068.0,275.0"/>
    <polyline fill="none" stroke="#7c3aed" stroke-width="2" stroke-dasharray="6 5" points="72.0,194.9 82.1,535.1 92.1,173.6 102.2,284.3 112.2,266.7 122.3,477.3 132.4,286.4 142.4,285.9 152.5,241.7 162.5,326.8 172.6,407.0 182.7,357.7 192.7,430.6 202.8,525.6 212.8,367.6 222.9,285.9 233.0,441.2 243.0,344.3 253.1,541.4 263.2,322.0 273.2,196.6 283.3,389.8 293.3,320.1 303.4,284.1 313.5,321.1 323.5,482.7 333.6,475.0 343.6,287.7 353.7,329.1 363.8,325.9 373.8,294.4 383.9,286.3 393.9,236.6 404.0,299.9 414.1,289.4 424.1,431.7 434.2,521.0 444.2,284.0 454.3,300.6 464.4,285.9 474.4,284.3 484.5,281.7 494.5,420.7 504.6,436.8 514.7,335.9 524.7,313.3 534.8,288.4 544.8,286.6 554.9,382.0 565.0,256.8 575.0,338.5 585.1,286.4 595.2,531.6 605.2,202.9 615.3,286.5 625.3,333.7 635.4,284.9 645.5,285.1 655.5,320.5 665.6,289.6 675.6,288.6 685.7,339.3 695.8,411.3 705.8,283.4 715.9,285.5 725.9,287.2 736.0,345.7 746.1,382.6 756.1,450.7 766.2,497.1 776.2,289.6 786.3,542.0 796.4,286.6 806.4,419.5 816.5,286.8 826.5,294.5 836.6,315.5 846.7,294.2 856.7,54.0 866.8,284.4 876.8,371.5 886.9,378.4 897.0,393.5 907.0,541.7 917.1,311.7 927.2,405.8 937.2,350.9 947.3,284.3 957.3,397.1 967.4,285.5 977.5,437.8 987.5,416.2 997.6,288.5 1007.6,291.8 1017.7,319.1 1027.8,401.9 1037.8,355.7 1047.9,380.6 1057.9,380.2 1068.0,301.7"/>
    <circle cx="72.0" cy="194.9" r="5" fill="#16a34a"><title>Accepted epoch 1, diff 1465</title></circle>
    <circle cx="92.1" cy="173.6" r="5" fill="#16a34a"><title>Accepted epoch 3, diff 1853</title></circle>
    <circle cx="112.2" cy="266.7" r="5" fill="#16a34a"><title>Accepted epoch 5, diff 158</title></circle>
    <circle cx="152.5" cy="241.7" r="5" fill="#16a34a"><title>Accepted epoch 9, diff 612</title></circle>
    <circle cx="273.2" cy="196.6" r="5" fill="#16a34a"><title>Accepted epoch 21, diff 1433</title></circle>
    <circle cx="393.9" cy="236.6" r="5" fill="#16a34a"><title>Accepted epoch 33, diff 706</title></circle>
    <circle cx="565.0" cy="256.8" r="5" fill="#16a34a"><title>Accepted epoch 50, diff 338</title></circle>
    <circle cx="605.2" cy="202.9" r="5" fill="#16a34a"><title>Accepted epoch 54, diff 1318</title></circle>
    <circle cx="856.7" cy="54.0" r="5" fill="#16a34a"><title>Accepted epoch 79, diff 4029</title></circle>
    <g transform="translate(72, 566.0)" font-size="13" fill="#111827">
      <rect x="0" y="-12" width="14" height="4" fill="#2563eb"/><text x="22" y="-7">Candidate avg goals</text>
      <rect x="190" y="-12" width="14" height="4" fill="#ef4444"/><text x="212" y="-7">Baseline avg goals</text>
      <rect x="378" y="-12" width="14" height="4" fill="#7c3aed"/><text x="400" y="-7">Goal diff</text>
      <circle cx="548" cy="-10" r="5" fill="#16a34a"/><text x="562" y="-7">Accepted improvement</text>
    </g>
  </g>
</svg>
