<?xml version="1.0" encoding="UTF-8"?>
<svg xmlns="http://www.w3.org/2000/svg" width="1100" height="620" viewBox="0 0 1100 620">
  <rect width="100%" height="100%" fill="#ffffff"/>
  <text x="72" y="30" font-family="Arial, sans-serif" font-size="22" font-weight="700" fill="#111827">Training progress</text>
  <text x="1068" y="30" text-anchor="end" font-family="Arial, sans-serif" font-size="13" fill="#4b5563">Final champion epoch: 98</text>
  <g font-family="Arial, sans-serif">
    <line x1="72.0" y1="54.0" x2="72.0" y2="542.0" stroke="#eef2f7" stroke-width="1"/>
    <text x="72.0" y="566.0" text-anchor="middle" font-size="12" fill="#4b5563">1</text>
    <line x1="172.6" y1="54.0" x2="172.6" y2="542.0" stroke="#eef2f7" stroke-width="1"/>
    <text x="172.6" y="566.0" text-anchor="middle" font-size="12" fill="#4b5563">11</text>
    <line x1="273.2" y1="54.0" x2="273.2" y2="542.0" stroke="#eef2f7" stroke-width="1"/>
    <text x="273.2" y="566.0" text-anchor="middle" font-size="12" fill="#4b5563">21</text>
    <line x1="373.8" y1="54.0" x2="373.8" y2="542.0" stroke="#eef2f7" stroke-width="1"/>
    <text x="373.8" y="566.0" text-anchor="middle" font-size="12" fill="#4b5563">31</text>
    <line x1="474.4" y1="54.0" x2="474.4" y2="542.0" stroke="#eef2f7" stroke-width="1"/>
    <text x="474.4" y="566.0" text-anchor="middle" font-size="12" fill="#4b5563">41</text>
    <line x1="575.0" y1="54.0" x2="575.0" y2="542.0" stroke="#eef2f7" stroke-width="1"/>
    <text x="575.0" y="566.0" text-anchor="middle" font-size="12" fill="#4b5563">51</text>
    <line x1="675.6" y1="54.0" x2="675.6" y2="542.0" stroke="#eef2f7" stroke-width="1"/>
    <text x="675.6" y="566.0" text-anchor="middle" font-size="12" fill="#4b5563">61</text>
    <line x1="776.2" y1="54.0" x2="776.2" y2="542.0" stroke="#eef2f7" stroke-width="1"/>
    <text x="776.2" y="566.0" text-anchor="middle" font-size="12" fill="#4b5563">71</text>
    <line x1="876.8" y1="54.0" x2="876.8" y2="542.0" stroke="#eef2f7" stroke-width="1"/>
    <text x="876.8" y="566.0" text-anchor="middle" font-size="12" fill="#4b5563">81</text>
    <line x1="977.5" y1="54.0" x2="977.5" y2="542.0" stroke="#eef2f7" stroke-width="1"/>
    <text x="977.5" y="566.0" text-anchor="middle" font-size="12" fill="#4b5563">91</text>
    <line x1="72.0" y1="542.0" x2="1068.0" y2="542.0" stroke="#d8dee9" stroke-width="1" opacity="0.55"/>
    <text x="60.0" y="546.0" text-anchor="end" font-size="12" fill="#4b5563">-5267.0</text>
    <line x1="72.0" y1="444.4" x2="1068.0" y2="444.4" stroke="#d8dee9" stroke-width="1" opacity="0.55"/>
    <text x="60.0" y="448.4" text-anchor="end" font-size="12" fill="#4b5563">-3867.2</text>
    <line x1="72.0" y1="346.8" x2="1068.0" y2="346.8" stroke="#d8dee9" stroke-width="1" opacity="0.55"/>
    <text x="60.0" y="350.8" text-anchor="end" font-size="12" fill="#4b5563">-2467.4</text>
    <line x1="72.0" y1="249.2" x2="1068.0" y2="249.2" stroke="#d8dee9" stroke-width="1" opacity="0.55"/>
    <text x="60.0" y="253.2" text-anchor="end" font-size="12" fill="#4b5563">-1067.6</text>
    <line x1="72.0" y1="151.6" x2="1068.0" y2="151.6" stroke="#d8dee9" stroke-width="1" opacity="0.55"/>
    <text x="60.0" y="155.6" text-anchor="end" font-size="12" fill="#4b5563">332.2</text>
    <line x1="72.0" y1="54.0" x2="1068.0" y2="54.0" stroke="#d8dee9" stroke-width="1" opacity="0.55"/>
    <text x="60.0" y="58.0" text-anchor="end" font-size="12" fill="#4b5563">1732.0</text>
    <line x1="72.0" y1="54.0" x2="72.0" y2="542.0" stroke="#111827" stroke-width="1.4"/>
    <line x1="72.0" y1="542.0" x2="1068.0" y2="542.0" stroke="#111827" stroke-width="1.4"/>
    <text x="570.0" y="596.0" text-anchor="middle" font-size="13" fill="#111827">Epoch</text>
    <text x="20" y="298.0" transform="rotate(-90 20 298.0)" text-anchor="middle" font-size="13" fill="#111827">Goals / goal diff</text>
    <polyline fill="none" stroke="#2563eb" stroke-width="2.4" points="72.0,174.3 82.1,174.3 92.1,174.5 102.2,174.3 112.2,174.3 122.3,174.3 132.4,174.3 142.4,174.4 152.5,174.3 162.5,174.3 172.6,174.3 182.7,174.3 192.7,174.3 202.8,174.3 212.8,174.3 222.9,174.3 233.0,174.3 243.0,174.6 253.1,174.5 263.2,174.3 273.2,174.3 283.3,174.3 293.3,174.3 303.4,174.3 313.5,174.3 323.5,174.5 333.6,174.3 343.6,174.4 353.7,174.3 363.8,174.3 373.8,174.3 383.9,174.3 393.9,174.3 404.0,174.3 414.1,174.3 424.1,174.3 434.2,174.3 444.2,174.3 454.3,174.3 464.4,174.3 474.4,174.3 484.5,174.3 494.5,174.5 504.6,174.3 514.7,174.3 524.7,174.3 534.8,174.4 544.8,174.3 554.9,174.3 565.0,174.3 575.0,174.3 585.1,174.6 595.2,174.3 605.2,174.5 615.3,174.4 625.3,174.3 635.4,174.3 645.5,174.4 655.5,174.6 665.6,174.3 675.6,174.6 685.7,174.3 695.8,174.3 705.8,174.3 715.9,174.5 725.9,174.3 736.0,174.3 746.1,174.3 756.1,174.3 766.2,174.3 776.2,174.3 786.3,174.3 796.4,174.3 806.4,174.6 816.5,174.3 826.5,174.3 836.6,174.3 846.7,174.3 856.7,174.3 866.8,174.3 876.8,174.3 886.9,174.3 897.0,174.3 907.0,174.3 917.1,174.4 927.2,174.3 937.2,174.3 947.3,174.3 957.3,174.3 967.4,174.3 977.5,174.3 987.5,174.3 997.6,174.3 1007.6,174.3 1017.7,174.3 1027.8,174.3 1037.8,174.3 1047.9,174.3 1057.9,174.3 1068.0,174.3"/>
    <polyline fill="none" stroke="#ef4444" stroke-width="2.4" points="72.0,174.3 82.1,174.3 92.1,174.4 102.2,174.3 112.2,174.3 122.3,174.3 132.4,174.3 142.4,174.3 152.5,174.3 162.5,174.3 172.6,174.3 182.7,174.3 192.7,174.3 202.8,174.3 212.8,174.3 222.9,174.3 233.0,174.3 243.0,174.5 253.1,174.5 263.2,174.3 273.2,174.3 283.3,174.3 293.3,174.3 303.4,174.3 313.5,174.3 323.5,174.4 333.6,174.3 343.6,174.3 353.7,174.3 363.8,174.3 373.8,174.3 383.9,174.3 393.9,174.3 404.0,174.3 414.1,174.3 424.1,174.3 434.2,174.3 444.2,174.3 454.3,174.3 464.4,174.3 474.4,174.3 484.5,174.3 494.5,174.4 504.6,174.3 514.7,174.3 524.7,174.3 534.8,174.3 544.8,174.3 554.9,174.3 565.0,174.3 575.0,174.3 585.1,174.5 595.2,174.3 605.2,174.4 615.3,174.3 625.3,174.3 635.4,174.3 645.5,174.3 655.5,174.5 665.6,174.3 675.6,174.5 685.7,174.3 695.8,174.3 705.8,174.3 715.9,174.4 725.9,174.3 736.0,174.3 746.1,174.3 756.1,174.3 766.2,174.3 776.2,174.3 786.3,174.3 796.4,174.3 806.4,174.5 816.5,174.3 826.5,174.3 836.6,174.3 846.7,174.3 856.7,174.3 866.8,174.3 876.8,174.3 886.9,174.3 897.0,174.3 907.0,174.3 917.1,174.3 927.2,174.3 937.2,174.3 947.3,174.3 957.3,174.3 967.4,174.3 977.5,174.3 987.5,174.3 997.6,174.3 1007.6,174.3 1017.7,174.3 1027.8,174.3 1037.8,174.3 1047.9,174.3 1057.9,174.3 1068.0,174.3"/>
    <polyline fill="none" stroke="#7c3aed" stroke-width="2" stroke-dasharray="6 5" points="72.0,172.4 82.1,264.6 92.1,187.4 102.2,358.0 112.2,387.1 122.3,328.7 132.4,434.4 142.4,215.6 152.5,222.2 162.5,335.9 172.6,150.4 182.7,542.0 192.7,238.1 202.8,229.8 212.8,297.4 222.9,243.5 233.0,224.5 243.0,189.7 253.1,183.7 263.2,164.4 273.2,472.3 283.3,152.2 293.3,289.4 303.4,193.7 313.5,167.8 323.5,187.3 333.6,409.9 343.6,220.2 353.7,144.1 363.8,237.9 373.8,260.1 383.9,254.5 393.9,321.2 404.0,54.0 414.1,171.3 424.1,260.6 434.2,228.9 444.2,146.2 454.3,138.9 464.4,431.6 474.4,287.2 484.5,190.2 494.5,186.5 504.6,501.1 514.7,299.4 524.7,226.2 534.8,202.4 544.8,249.9 554.9,262.5 565.0,480.1 575.0,154.9 585.1,188.1 595.2,383.7 605.2,184.9 615.3,206.9 625.3,506.6 635.4,347.2 645.5,194.5 655.5,184.7 665.6,372.0 675.6,187.3 685.7,182.8 695.8,134.1 705.8,156.0 715.9,183.8 725.9,342.0 736.0,209.3 746.1,374.5 756.1,155.1 766.2,112.3 776.2,253.1 786.3,280.7 796.4,58.9 806.4,187.0 816.5,221.8 826.5,311.9 836.6,150.0 846.7,118.5 856.7,255.9 866.8,327.0 876.8,403.0 886.9,105.2 897.0,252.8 907.0,168.7 917.1,199.2 927.2,392.2 937.2,302.2 947.3,137.3 957.3,120.4 967.4,168.1 977.5,494.7 987.5,101.6 997.6,297.3 1007.6,156.1 1017.7,113.7 1027.8,421.3 1037.8,110.9 1047.9,65.3 1057.9,496.0 1068.0,244.8"/>
    <circle cx="72.0" cy="172.4" r="5" fill="#16a34a"><title>Accepted epoch 1, diff 34</title></circle>
    <circle cx="172.6" cy="150.4" r="5" fill="#16a34a"><title>Accepted epoch 11, diff 349</title></circle>
    <circle cx="263.2" cy="164.4" r="5" fill="#16a34a"><title>Accepted epoch 20, diff 149</title></circle>
    <circle cx="283.3" cy="152.2" r="5" fill="#16a34a"><title>Accepted epoch 22, diff 324</title></circle>
    <circle cx="313.5" cy="167.8" r="5" fill="#16a34a"><title>Accepted epoch 25, diff 100</title></circle>
    <circle cx="353.7" cy="144.1" r="5" fill="#16a34a"><title>Accepted epoch 29, diff 440</title></circle>
    <circle cx="404.0" cy="54.0" r="5" fill="#16a34a"><title>Accepted epoch 34, diff 1732</title></circle>
    <circle cx="414.1" cy="171.3" r="5" fill="#16a34a"><title>Accepted epoch 35, diff 49</title></circle>
    <circle cx="444.2" cy="146.2" r="5" fill="#16a34a"><title>Accepted epoch 38, diff 410</title></circle>
    <circle cx="454.3" cy="138.9" r="5" fill="#16a34a"><title>Accepted epoch 39, diff 515</title></circle>
    <circle cx="575.0" cy="154.9" r="5" fill="#16a34a"><title>Accepted epoch 51, diff 285</title></circle>
    <circle cx="695.8" cy="134.1" r="5" fill="#16a34a"><title>Accepted epoch 63, diff 583</title></circle>
    <circle cx="705.8" cy="156.0" r="5" fill="#16a34a"><title>Accepted epoch 64, diff 269</title></circle>
    <circle cx="756.1" cy="155.1" r="5" fill="#16a34a"><title>Accepted epoch 69, diff 282</title></circle>
    <circle cx="766.2" cy="112.3" r="5" fill="#16a34a"><title>Accepted epoch 70, diff 896</title></circle>
    <circle cx="796.4" cy="58.9" r="5" fill="#16a34a"><title>Accepted epoch 73, diff 1662</title></circle>
    <circle cx="836.6" cy="150.0" r="5" fill="#16a34a"><title>Accepted epoch 77, diff 355</title></circle>
    <circle cx="846.7" cy="118.5" r="5" fill="#16a34a"><title>Accepted epoch 78, diff 807</title></circle>
    <circle cx="886.9" cy="105.2" r="5" fill="#16a34a"><title>Accepted epoch 82, diff 998</title></circle>
    <circle cx="907.0" cy="168.7" r="5" fill="#16a34a"><title>Accepted epoch 84, diff 87</title></circle>
    <circle cx="947.3" cy="137.3" r="5" fill="#16a34a"><title>Accepted epoch 88, diff 537</title></circle>
    <circle cx="957.3" cy="120.4" r="5" fill="#16a34a"><title>Accepted epoch 89, diff 780</title></circle>
    <circle cx="967.4" cy="168.1" r="5" fill="#16a34a"><title>Accepted epoch 90, diff 95</title></circle>
    <circle cx="987.5" cy="101.6" r="5" fill="#16a34a"><title>Accepted epoch 92, diff 1050</title></circle>
    <circle cx="1007.6" cy="156.1" r="5" fill="#16a34a"><title>Accepted epoch 94, diff 267</title></circle>
    <circle cx="1017.7" cy="113.7" r="5" fill="#16a34a"><title>Accepted epoch 95, diff 876</title></circle>
    <circle cx="1037.8" cy="110.9" r="5" fill="#16a34a"><title>Accepted epoch 97, diff 916</title></circle>
    <circle cx="1047.9" cy="65.3" r="5" fill="#16a34a"><title>Accepted epoch 98, diff 1570</title></circle>
    <g transform="translate(72, 566.0)" font-size="13" fill="#111827">
      <rect x="0" y="-12" width="14" height="4" fill="#2563eb"/><text x="22" y="-7">Candidate avg goals</text>
      <rect x="190" y="-12" width="14" height="4" fill="#ef4444"/><text x="212" y="-7">Baseline avg goals</text>
      <rect x="378" y="-12" width="14" height="4" fill="#7c3aed"/><text x="400" y="-7">Goal diff</text>
      <circle cx="548" cy="-10" r="5" fill="#16a34a"/><text x="562" y="-7">Accepted improvement</text>
    </g>
  </g>
</svg>
