<?xml version="1.0" encoding="UTF-8"?>
<svg xmlns="http://www.w3.org/2000/svg" width="1100" height="620" viewBox="0 0 1100 620">
  <rect width="100%" height="100%" fill="#ffffff"/>
  <text x="72" y="30" font-family="Arial, sans-serif" font-size="22" font-weight="700" fill="#111827">Training progress</text>
  <text x="1068" y="30" text-anchor="end" font-family="Arial, sans-serif" font-size="13" fill="#4b5563">Final champion epoch: 96</text>
  <g font-family="Arial, sans-serif">
    <line x1="72.0" y1="54.0" x2="72.0" y2="542.0" stroke="#eef2f7" stroke-width="1"/>
    <text x="72.0" y="566.0" text-anchor="middle" font-size="12" fill="#4b5563">1</text>
    <line x1="172.6" y1="54.0" x2="172.6" y2="542.0" stroke="#eef2f7" stroke-width="1"/>
    <text x="172.6" y="566.0" text-anchor="middle" font-size="12" fill="#4b5563">11</text>
    <line x1="273.2" y1="54.0" x2="273.2" y2="542.0" stroke="#eef2f7" stroke-width="1"/>
    <text x="273.2" y="566.0" text-anchor="middle" font-size="12" fill="#4b5563">21</text>
    <line x1="373.8" y1="54.0" x2="373.8" y2="542.0" stroke="#eef2f7" stroke-width="1"/>
    <text x="373.8" y="566.0" text-anchor="middle" font-size="12" fill="#4b5563">31</text>
    <line x1="474.4" y1="54.0" x2="474.4" y2="542.0" stroke="#eef2f7" stroke-width="1"/>
    <text x="474.4" y="566.0" text-anchor="middle" font-size="12" fill="#4b5563">41</text>
    <line x1="575.0" y1="54.0" x2="575.0" y2="542.0" stroke="#eef2f7" stroke-width="1"/>
    <text x="575.0" y="566.0" text-anchor="middle" font-size="12" fill="#4b5563">51</text>
    <line x1="675.6" y1="54.0" x2="675.6" y2="542.0" stroke="#eef2f7" stroke-width="1"/>
    <text x="675.6" y="566.0" text-anchor="middle" font-size="12" fill="#4b5563">61</text>
    <line x1="776.2" y1="54.0" x2="776.2" y2="542.0" stroke="#eef2f7" stroke-width="1"/>
    <text x="776.2" y="566.0" text-anchor="middle" font-size="12" fill="#4b5563">71</text>
    <line x1="876.8" y1="54.0" x2="876.8" y2="542.0" stroke="#eef2f7" stroke-width="1"/>
    <text x="876.8" y="566.0" text-anchor="middle" font-size="12" fill="#4b5563">81</text>
    <line x1="977.5" y1="54.0" x2="977.5" y2="542.0" stroke="#eef2f7" stroke-width="1"/>
    <text x="977.5" y="566.0" text-anchor="middle" font-size="12" fill="#4b5563">91</text>
    <line x1="72.0" y1="542.0" x2="1068.0" y2="542.0" stroke="#d8dee9" stroke-width="1" opacity="0.55"/>
    <text x="60.0" y="546.0" text-anchor="end" font-size="12" fill="#4b5563">-1647.0</text>
    <line x1="72.0" y1="444.4" x2="1068.0" y2="444.4" stroke="#d8dee9" stroke-width="1" opacity="0.55"/>
    <text x="60.0" y="448.4" text-anchor="end" font-size="12" fill="#4b5563">-1058.4</text>
    <line x1="72.0" y1="346.8" x2="1068.0" y2="346.8" stroke="#d8dee9" stroke-width="1" opacity="0.55"/>
    <text x="60.0" y="350.8" text-anchor="end" font-size="12" fill="#4b5563">-469.8</text>
    <line x1="72.0" y1="249.2" x2="1068.0" y2="249.2" stroke="#d8dee9" stroke-width="1" opacity="0.55"/>
    <text x="60.0" y="253.2" text-anchor="end" font-size="12" fill="#4b5563">118.8</text>
    <line x1="72.0" y1="151.6" x2="1068.0" y2="151.6" stroke="#d8dee9" stroke-width="1" opacity="0.55"/>
    <text x="60.0" y="155.6" text-anchor="end" font-size="12" fill="#4b5563">707.4</text>
    <line x1="72.0" y1="54.0" x2="1068.0" y2="54.0" stroke="#d8dee9" stroke-width="1" opacity="0.55"/>
    <text x="60.0" y="58.0" text-anchor="end" font-size="12" fill="#4b5563">1296.0</text>
    <line x1="72.0" y1="54.0" x2="72.0" y2="542.0" stroke="#111827" stroke-width="1.4"/>
    <line x1="72.0" y1="542.0" x2="1068.0" y2="542.0" stroke="#111827" stroke-width="1.4"/>
    <text x="570.0" y="596.0" text-anchor="middle" font-size="13" fill="#111827">Epoch</text>
    <text x="20" y="298.0" transform="rotate(-90 20 298.0)" text-anchor="middle" font-size="13" fill="#111827">Goals / goal diff</text>
    <polyline fill="none" stroke="#2563eb" stroke-width="2.4" points="72.0,267.9 82.1,267.9 92.1,267.9 102.2,267.9 112.2,267.9 122.3,267.9 132.4,267.9 142.4,267.9 152.5,267.9 162.5,268.6 172.6,267.8 182.7,268.6 192.7,268.0 202.8,267.9 212.8,267.9 222.9,267.9 233.0,267.9 243.0,267.9 253.1,267.9 263.2,267.9 273.2,267.9 283.3,268.0 293.3,268.6 303.4,267.9 313.5,267.9 323.5,267.9 333.6,267.9 343.6,268.1 353.7,267.9 363.8,267.9 373.8,267.9 383.9,267.9 393.9,267.9 404.0,267.9 414.1,267.9 424.1,267.9 434.2,267.9 444.2,267.9 454.3,267.9 464.4,267.9 474.4,267.9 484.5,268.6 494.5,268.2 504.6,267.9 514.7,267.9 524.7,267.9 534.8,267.9 544.8,267.9 554.9,267.9 565.0,267.9 575.0,267.9 585.1,267.9 595.2,267.9 605.2,267.9 615.3,267.9 625.3,267.9 635.4,267.9 645.5,267.9 655.5,267.9 665.6,267.9 675.6,267.9 685.7,267.9 695.8,267.9 705.8,268.3 715.9,267.9 725.9,267.9 736.0,267.9 746.1,267.9 756.1,267.9 766.2,267.9 776.2,268.0 786.3,268.5 796.4,268.4 806.4,267.9 816.5,267.9 826.5,268.1 836.6,268.6 846.7,267.9 856.7,267.9 866.8,268.2 876.8,267.9 886.9,267.9 897.0,267.9 907.0,267.9 917.1,267.9 927.2,267.9 937.2,267.9 947.3,267.9 957.3,268.2 967.4,267.9 977.5,267.9 987.5,267.9 997.6,267.9 1007.6,267.9 1017.7,268.8 1027.8,267.9 1037.8,268.6 1047.9,267.9 1057.9,267.9 1068.0,268.4"/>
    <polyline fill="none" stroke="#ef4444" stroke-width="2.4" points="72.0,267.9 82.1,267.9 92.1,267.9 102.2,267.9 112.2,267.9 122.3,267.9 132.4,267.9 142.4,267.9 152.5,267.9 162.5,268.3 172.6,267.9 182.7,268.3 192.7,267.9 202.8,267.9 212.8,267.9 222.9,267.9 233.0,267.9 243.0,267.9 253.1,267.9 263.2,267.9 273.2,267.9 283.3,267.9 293.3,268.3 303.4,267.9 313.5,267.9 323.5,267.9 333.6,267.9 343.6,268.0 353.7,267.9 363.8,267.9 373.8,267.9 383.9,267.9 393.9,267.9 404.0,267.9 414.1,267.9 424.1,267.9 434.2,267.9 444.2,267.9 454.3,267.9 464.4,267.9 474.4,267.9 484.5,268.3 494.5,268.0 504.6,267.9 514.7,267.9 524.7,267.9 534.8,267.9 544.8,267.9 554.9,267.9 565.0,267.9 575.0,267.9 585.1,267.9 595.2,267.9 605.2,267.9 615.3,267.9 625.3,267.9 635.4,267.9 645.5,267.9 655.5,267.9 665.6,267.9 675.6,267.9 685.7,267.9 695.8,267.9 705.8,268.0 715.9,267.9 725.9,267.9 736.0,267.9 746.1,267.9 756.1,267.9 766.2,267.9 776.2,267.9 786.3,268.2 796.4,268.1 806.4,267.9 816.5,267.9 826.5,268.0 836.6,268.2 846.7,267.9 856.7,267.9 866.8,268.0 876.8,267.9 886.9,267.9 897.0,267.9 907.0,267.9 917.1,267.9 927.2,267.9 937.2,267.9 947.3,267.9 957.3,267.9 967.4,267.9 977.5,267.9 987.5,267.9 997.6,267.9 1007.6,267.9 1017.7,268.4 1027.8,267.9 1037.8,268.4 1047.9,267.9 1057.9,267.9 1068.0,267.8"/>
    <polyline fill="none" stroke="#7c3aed" stroke-width="2" stroke-dasharray="6 5" points="72.0,264.6 82.1,396.7 92.1,144.2 102.2,234.1 112.2,204.6 122.3,301.4 132.4,209.9 142.4,313.8 152.5,465.4 162.5,296.9 172.6,113.7 182.7,301.2 192.7,337.2 202.8,286.1 212.8,225.5 222.9,347.8 233.0,221.5 243.0,229.8 253.1,411.0 263.2,232.8 273.2,350.6 283.3,337.9 293.3,300.1 303.4,483.8 313.5,271.6 323.5,284.7 333.6,257.0 343.6,363.7 353.7,158.6 363.8,311.0 373.8,275.9 383.9,209.2 393.9,406.9 404.0,408.8 414.1,279.2 424.1,282.0 434.2,266.9 444.2,234.2 454.3,515.1 464.4,330.4 474.4,376.7 484.5,294.6 494.5,297.6 504.6,187.6 514.7,444.2 524.7,54.0 534.8,264.1 544.8,147.9 554.9,335.2 565.0,291.9 575.0,232.4 585.1,264.9 595.2,278.8 605.2,193.0 615.3,430.6 625.3,284.7 635.4,235.7 645.5,439.0 655.5,527.1 665.6,370.4 675.6,504.4 685.7,317.8 695.8,518.0 705.8,305.4 715.9,352.6 725.9,419.0 736.0,341.2 746.1,362.9 756.1,473.4 766.2,542.0 776.2,319.5 786.3,304.5 796.4,297.1 806.4,381.7 816.5,290.6 826.5,309.7 836.6,304.9 846.7,224.8 856.7,383.8 866.8,293.4 876.8,363.4 886.9,309.9 897.0,247.7 907.0,448.1 917.1,303.2 927.2,255.0 937.2,233.7 947.3,381.2 957.3,298.4 967.4,381.7 977.5,242.2 987.5,322.3 997.6,396.9 1007.6,322.1 1017.7,304.7 1027.8,142.7 1037.8,293.9 1047.9,435.2 1057.9,289.1 1068.0,325.9"/>
    <circle cx="72.0" cy="264.6" r="5" fill="#16a34a"><title>Accepted epoch 1, diff 26</title></circle>
    <circle cx="92.1" cy="144.2" r="5" fill="#16a34a"><title>Accepted epoch 3, diff 752</title></circle>
    <circle cx="102.2" cy="234.1" r="5" fill="#16a34a"><title>Accepted epoch 4, diff 210</title></circle>
    <circle cx="112.2" cy="204.6" r="5" fill="#16a34a"><title>Accepted epoch 5, diff 388</title></circle>
    <circle cx="132.4" cy="209.9" r="5" fill="#16a34a"><title>Accepted epoch 7, diff 356</title></circle>
    <circle cx="172.6" cy="113.7" r="5" fill="#16a34a"><title>Accepted epoch 11, diff 936</title></circle>
    <circle cx="212.8" cy="225.5" r="5" fill="#16a34a"><title>Accepted epoch 15, diff 262</title></circle>
    <circle cx="233.0" cy="221.5" r="5" fill="#16a34a"><title>Accepted epoch 17, diff 286</title></circle>
    <circle cx="243.0" cy="229.8" r="5" fill="#16a34a"><title>Accepted epoch 18, diff 236</title></circle>
    <circle cx="263.2" cy="232.8" r="5" fill="#16a34a"><title>Accepted epoch 20, diff 218</title></circle>
    <circle cx="333.6" cy="257.0" r="5" fill="#16a34a"><title>Accepted epoch 27, diff 72</title></circle>
    <circle cx="353.7" cy="158.6" r="5" fill="#16a34a"><title>Accepted epoch 29, diff 665</title></circle>
    <circle cx="383.9" cy="209.2" r="5" fill="#16a34a"><title>Accepted epoch 32, diff 360</title></circle>
    <circle cx="434.2" cy="266.9" r="5" fill="#16a34a"><title>Accepted epoch 37, diff 12</title></circle>
    <circle cx="444.2" cy="234.2" r="5" fill="#16a34a"><title>Accepted epoch 38, diff 209</title></circle>
    <circle cx="504.6" cy="187.6" r="5" fill="#16a34a"><title>Accepted epoch 44, diff 490</title></circle>
    <circle cx="524.7" cy="54.0" r="5" fill="#16a34a"><title>Accepted epoch 46, diff 1296</title></circle>
    <circle cx="534.8" cy="264.1" r="5" fill="#16a34a"><title>Accepted epoch 47, diff 29</title></circle>
    <circle cx="544.8" cy="147.9" r="5" fill="#16a34a"><title>Accepted epoch 48, diff 730</title></circle>
    <circle cx="575.0" cy="232.4" r="5" fill="#16a34a"><title>Accepted epoch 51, diff 220</title></circle>
    <circle cx="585.1" cy="264.9" r="5" fill="#16a34a"><title>Accepted epoch 52, diff 24</title></circle>
    <circle cx="605.2" cy="193.0" r="5" fill="#16a34a"><title>Accepted epoch 54, diff 458</title></circle>
    <circle cx="635.4" cy="235.7" r="5" fill="#16a34a"><title>Accepted epoch 57, diff 200</title></circle>
    <circle cx="846.7" cy="224.8" r="5" fill="#16a34a"><title>Accepted epoch 78, diff 266</title></circle>
    <circle cx="897.0" cy="247.7" r="5" fill="#16a34a"><title>Accepted epoch 83, diff 128</title></circle>
    <circle cx="927.2" cy="255.0" r="5" fill="#16a34a"><title>Accepted epoch 86, diff 84</title></circle>
    <circle cx="937.2" cy="233.7" r="5" fill="#16a34a"><title>Accepted epoch 87, diff 212</title></circle>
    <circle cx="977.5" cy="242.2" r="5" fill="#16a34a"><title>Accepted epoch 91, diff 161</title></circle>
    <circle cx="1027.8" cy="142.7" r="5" fill="#16a34a"><title>Accepted epoch 96, diff 761</title></circle>
    <g transform="translate(72, 566.0)" font-size="13" fill="#111827">
      <rect x="0" y="-12" width="14" height="4" fill="#2563eb"/><text x="22" y="-7">Candidate avg goals</text>
      <rect x="190" y="-12" width="14" height="4" fill="#ef4444"/><text x="212" y="-7">Baseline avg goals</text>
      <rect x="378" y="-12" width="14" height="4" fill="#7c3aed"/><text x="400" y="-7">Goal diff</text>
      <circle cx="548" cy="-10" r="5" fill="#16a34a"/><text x="562" y="-7">Accepted improvement</text>
    </g>
  </g>
</svg>
