<?xml version="1.0" encoding="UTF-8"?>
<svg xmlns="http://www.w3.org/2000/svg" width="900" height="480" viewBox="0 0 900 480">
  <rect width="100%" height="100%" fill="#ffffff"/>
  <text x="72" y="34" font-family="Arial, sans-serif" font-size="20" font-weight="700" fill="#111827">Improvement per session</text>
  <text x="868" y="34" text-anchor="end" font-family="Arial, sans-serif" font-size="12" fill="#6b7280">3/5 sessions improved baseline</text>
  <line x1="72.0" y1="408.0" x2="868.0" y2="408.0" stroke="#e5e7eb" stroke-width="1"/>
  <text x="64.0" y="412.0" text-anchor="end" font-family="Arial, sans-serif" font-size="11" fill="#6b7280">0</text>
  <line x1="72.0" y1="337.2" x2="868.0" y2="337.2" stroke="#e5e7eb" stroke-width="1"/>
  <text x="64.0" y="341.2" text-anchor="end" font-family="Arial, sans-serif" font-size="11" fill="#6b7280">615</text>
  <line x1="72.0" y1="266.4" x2="868.0" y2="266.4" stroke="#e5e7eb" stroke-width="1"/>
  <text x="64.0" y="270.4" text-anchor="end" font-family="Arial, sans-serif" font-size="11" fill="#6b7280">1230</text>
  <line x1="72.0" y1="195.6" x2="868.0" y2="195.6" stroke="#e5e7eb" stroke-width="1"/>
  <text x="64.0" y="199.6" text-anchor="end" font-family="Arial, sans-serif" font-size="11" fill="#6b7280">1844</text>
  <line x1="72.0" y1="124.8" x2="868.0" y2="124.8" stroke="#e5e7eb" stroke-width="1"/>
  <text x="64.0" y="128.8" text-anchor="end" font-family="Arial, sans-serif" font-size="11" fill="#6b7280">2459</text>
  <line x1="72.0" y1="54.0" x2="868.0" y2="54.0" stroke="#e5e7eb" stroke-width="1"/>
  <text x="64.0" y="58.0" text-anchor="end" font-family="Arial, sans-serif" font-size="11" fill="#6b7280">3074</text>
  <line x1="72.0" y1="54.0" x2="72.0" y2="408.0" stroke="#374151" stroke-width="1.4"/>
  <line x1="72.0" y1="408.0" x2="868.0" y2="408.0" stroke="#374151" stroke-width="1.4"/>
  <rect x="111.6" y="404.0" width="80.0" height="4" fill="#d1d5db" rx="2"/>
  <text x="151.6" y="398.0" text-anchor="middle" font-family="Arial, sans-serif" font-size="11" fill="#9ca3af">—</text>
  <text x="151.6" y="428.0" text-anchor="middle" font-family="Arial, sans-serif" font-size="11" fill="#374151">session-1</text>
  <rect x="270.8" y="345.8" width="80.0" height="62.2" fill="#16a54a" rx="3"/>
  <text x="310.8" y="339.8" text-anchor="middle" font-family="Arial, sans-serif" font-size="12" font-weight="600" fill="#111827">+540</text>
  <text x="310.8" y="428.0" text-anchor="middle" font-family="Arial, sans-serif" font-size="11" fill="#374151">session-2</text>
  <rect x="430.0" y="100.2" width="80.0" height="307.8" fill="#166e4a" rx="3"/>
  <text x="470.0" y="94.2" text-anchor="middle" font-family="Arial, sans-serif" font-size="12" font-weight="600" fill="#111827">+2673</text>
  <text x="470.0" y="428.0" text-anchor="middle" font-family="Arial, sans-serif" font-size="11" fill="#374151">session-3</text>
  <rect x="589.2" y="404.0" width="80.0" height="4" fill="#d1d5db" rx="2"/>
  <text x="629.2" y="398.0" text-anchor="middle" font-family="Arial, sans-serif" font-size="11" fill="#9ca3af">—</text>
  <text x="629.2" y="428.0" text-anchor="middle" font-family="Arial, sans-serif" font-size="11" fill="#374151">session-4</text>
  <rect x="748.4" y="367.1" width="80.0" height="40.9" fill="#16aa4a" rx="3"/>
  <text x="788.4" y="361.1" text-anchor="middle" font-family="Arial, sans-serif" font-size="12" font-weight="600" fill="#111827">+355</text>
  <text x="788.4" y="428.0" text-anchor="middle" font-family="Arial, sans-serif" font-size="11" fill="#374151">session-6</text>
  <text x="14" y="231.0" transform="rotate(-90 14 231.0)" text-anchor="middle" font-family="Arial, sans-serif" font-size="12" fill="#374151">Goal diff vs prev baseline</text>
</svg>
