<?xml version="1.0" encoding="UTF-8"?>
<svg xmlns="http://www.w3.org/2000/svg" width="1100" height="620" viewBox="0 0 1100 620">
  <rect width="100%" height="100%" fill="#ffffff"/>
  <text x="72" y="30" font-family="Arial, sans-serif" font-size="22" font-weight="700" fill="#111827">Training progress</text>
  <text x="1068" y="30" text-anchor="end" font-family="Arial, sans-serif" font-size="13" fill="#4b5563">Final champion epoch: 44</text>
  <g font-family="Arial, sans-serif">
    <line x1="72.0" y1="54.0" x2="72.0" y2="542.0" stroke="#eef2f7" stroke-width="1"/>
    <text x="72.0" y="566.0" text-anchor="middle" font-size="12" fill="#4b5563">1</text>
    <line x1="173.6" y1="54.0" x2="173.6" y2="542.0" stroke="#eef2f7" stroke-width="1"/>
    <text x="173.6" y="566.0" text-anchor="middle" font-size="12" fill="#4b5563">6</text>
    <line x1="275.3" y1="54.0" x2="275.3" y2="542.0" stroke="#eef2f7" stroke-width="1"/>
    <text x="275.3" y="566.0" text-anchor="middle" font-size="12" fill="#4b5563">11</text>
    <line x1="376.9" y1="54.0" x2="376.9" y2="542.0" stroke="#eef2f7" stroke-width="1"/>
    <text x="376.9" y="566.0" text-anchor="middle" font-size="12" fill="#4b5563">16</text>
    <line x1="478.5" y1="54.0" x2="478.5" y2="542.0" stroke="#eef2f7" stroke-width="1"/>
    <text x="478.5" y="566.0" text-anchor="middle" font-size="12" fill="#4b5563">21</text>
    <line x1="580.2" y1="54.0" x2="580.2" y2="542.0" stroke="#eef2f7" stroke-width="1"/>
    <text x="580.2" y="566.0" text-anchor="middle" font-size="12" fill="#4b5563">26</text>
    <line x1="681.8" y1="54.0" x2="681.8" y2="542.0" stroke="#eef2f7" stroke-width="1"/>
    <text x="681.8" y="566.0" text-anchor="middle" font-size="12" fill="#4b5563">31</text>
    <line x1="783.4" y1="54.0" x2="783.4" y2="542.0" stroke="#eef2f7" stroke-width="1"/>
    <text x="783.4" y="566.0" text-anchor="middle" font-size="12" fill="#4b5563">36</text>
    <line x1="885.1" y1="54.0" x2="885.1" y2="542.0" stroke="#eef2f7" stroke-width="1"/>
    <text x="885.1" y="566.0" text-anchor="middle" font-size="12" fill="#4b5563">41</text>
    <line x1="986.7" y1="54.0" x2="986.7" y2="542.0" stroke="#eef2f7" stroke-width="1"/>
    <text x="986.7" y="566.0" text-anchor="middle" font-size="12" fill="#4b5563">46</text>
    <line x1="72.0" y1="542.0" x2="1068.0" y2="542.0" stroke="#d8dee9" stroke-width="1" opacity="0.55"/>
    <text x="60.0" y="546.0" text-anchor="end" font-size="12" fill="#4b5563">-9712.0</text>
    <line x1="72.0" y1="444.4" x2="1068.0" y2="444.4" stroke="#d8dee9" stroke-width="1" opacity="0.55"/>
    <text x="60.0" y="448.4" text-anchor="end" font-size="12" fill="#4b5563">-7015.0</text>
    <line x1="72.0" y1="346.8" x2="1068.0" y2="346.8" stroke="#d8dee9" stroke-width="1" opacity="0.55"/>
    <text x="60.0" y="350.8" text-anchor="end" font-size="12" fill="#4b5563">-4318.0</text>
    <line x1="72.0" y1="249.2" x2="1068.0" y2="249.2" stroke="#d8dee9" stroke-width="1" opacity="0.55"/>
    <text x="60.0" y="253.2" text-anchor="end" font-size="12" fill="#4b5563">-1621.0</text>
    <line x1="72.0" y1="151.6" x2="1068.0" y2="151.6" stroke="#d8dee9" stroke-width="1" opacity="0.55"/>
    <text x="60.0" y="155.6" text-anchor="end" font-size="12" fill="#4b5563">1076.0</text>
    <line x1="72.0" y1="54.0" x2="1068.0" y2="54.0" stroke="#d8dee9" stroke-width="1" opacity="0.55"/>
    <text x="60.0" y="58.0" text-anchor="end" font-size="12" fill="#4b5563">3773.0</text>
    <line x1="72.0" y1="54.0" x2="72.0" y2="542.0" stroke="#111827" stroke-width="1.4"/>
    <line x1="72.0" y1="542.0" x2="1068.0" y2="542.0" stroke="#111827" stroke-width="1.4"/>
    <text x="570.0" y="596.0" text-anchor="middle" font-size="13" fill="#111827">Epoch</text>
    <text x="20" y="298.0" transform="rotate(-90 20 298.0)" text-anchor="middle" font-size="13" fill="#111827">Goals / goal diff</text>
    <polyline fill="none" stroke="#2563eb" stroke-width="2.4" points="72.0,190.3 92.3,190.5 112.7,190.4 133.0,190.4 153.3,190.3 173.6,190.4 194.0,190.4 214.3,190.3 234.6,190.3 254.9,190.3 275.3,190.4 295.6,190.3 315.9,190.3 336.2,190.5 356.6,190.5 376.9,190.3 397.2,190.5 417.6,190.5 437.9,190.3 458.2,190.3 478.5,190.5 498.9,190.3 519.2,190.3 539.5,190.3 559.8,190.3 580.2,190.3 600.5,190.4 620.8,190.5 641.1,190.5 661.5,190.3 681.8,190.3 702.1,190.3 722.4,190.3 742.8,190.4 763.1,190.3 783.4,190.3 803.8,190.4 824.1,190.3 844.4,190.4 864.7,190.3 885.1,190.3 905.4,190.3 925.7,190.3 946.0,190.3 966.4,190.4 986.7,190.3 1007.0,190.3 1027.3,190.5 1047.7,190.3 1068.0,190.3"/>
    <polyline fill="none" stroke="#ef4444" stroke-width="2.4" points="72.0,190.3 92.3,190.4 112.7,190.3 133.0,190.3 153.3,190.3 173.6,190.3 194.0,190.3 214.3,190.3 234.6,190.3 254.9,190.3 275.3,190.4 295.6,190.3 315.9,190.3 336.2,190.5 356.6,190.4 376.9,190.3 397.2,190.4 417.6,190.5 437.9,190.3 458.2,190.3 478.5,190.4 498.9,190.3 519.2,190.3 539.5,190.3 559.8,190.3 580.2,190.3 600.5,190.3 620.8,190.4 641.1,190.4 661.5,190.3 681.8,190.3 702.1,190.3 722.4,190.3 742.8,190.4 763.1,190.3 783.4,190.3 803.8,190.4 824.1,190.3 844.4,190.3 864.7,190.3 885.1,190.3 905.4,190.3 925.7,190.3 946.0,190.3 966.4,190.3 986.7,190.3 1007.0,190.3 1027.3,190.4 1047.7,190.3 1068.0,190.3"/>
    <polyline fill="none" stroke="#7c3aed" stroke-width="2" stroke-dasharray="6 5" points="72.0,233.0 92.3,196.9 112.7,199.9 133.0,197.4 153.3,227.2 173.6,200.0 194.0,198.2 214.3,511.0 234.6,249.3 254.9,54.0 275.3,196.5 295.6,317.8 315.9,247.0 336.2,196.3 356.6,204.1 376.9,478.9 397.2,196.5 417.6,195.2 437.9,240.3 458.2,246.8 478.5,203.6 498.9,372.5 519.2,236.3 539.5,389.2 559.8,213.2 580.2,447.1 600.5,200.5 620.8,196.5 641.1,196.3 661.5,341.0 681.8,392.8 702.1,251.9 722.4,217.6 742.8,195.8 763.1,215.8 783.4,542.0 803.8,196.6 824.1,381.0 844.4,202.2 864.7,141.3 885.1,220.6 905.4,492.2 925.7,252.8 946.0,60.4 966.4,204.2 986.7,537.5 1007.0,360.1 1027.3,197.4 1047.7,283.6 1068.0,210.1"/>
    <circle cx="254.9" cy="54.0" r="5" fill="#16a34a"><title>Accepted epoch 10, diff 3773</title></circle>
    <circle cx="864.7" cy="141.3" r="5" fill="#16a34a"><title>Accepted epoch 40, diff 1361</title></circle>
    <circle cx="946.0" cy="60.4" r="5" fill="#16a34a"><title>Accepted epoch 44, diff 3596</title></circle>
    <g transform="translate(72, 566.0)" font-size="13" fill="#111827">
      <rect x="0" y="-12" width="14" height="4" fill="#2563eb"/><text x="22" y="-7">Candidate avg goals</text>
      <rect x="190" y="-12" width="14" height="4" fill="#ef4444"/><text x="212" y="-7">Baseline avg goals</text>
      <rect x="378" y="-12" width="14" height="4" fill="#7c3aed"/><text x="400" y="-7">Goal diff</text>
      <circle cx="548" cy="-10" r="5" fill="#16a34a"/><text x="562" y="-7">Accepted improvement</text>
    </g>
  </g>
</svg>
