<svg xmlns="http://www.w3.org/2000/svg" viewBox="0 0 880 660" font-family="ui-monospace,Menlo,monospace"><rect width="880" height="520" fill="#2a6318"/><rect x="0" y="0" width="80" height="520" fill="black" fill-opacity="0.06"/><rect x="80" y="0" width="80" height="520" fill="white" fill-opacity="0.025"/><rect x="160" y="0" width="80" height="520" fill="black" fill-opacity="0.06"/><rect x="240" y="0" width="80" height="520" fill="white" fill-opacity="0.025"/><rect x="320" y="0" width="80" height="520" fill="black" fill-opacity="0.06"/><rect x="400" y="0" width="80" height="520" fill="white" fill-opacity="0.025"/><rect x="480" y="0" width="80" height="520" fill="black" fill-opacity="0.06"/><rect x="560" y="0" width="80" height="520" fill="white" fill-opacity="0.025"/><rect x="640" y="0" width="80" height="520" fill="black" fill-opacity="0.06"/><rect x="720" y="0" width="80" height="520" fill="white" fill-opacity="0.025"/><rect x="800" y="0" width="80" height="520" fill="black" fill-opacity="0.06"/><rect x="18" y="8" width="844" height="504" fill="none" stroke="rgba(255,255,255,0.82)" stroke-width="2"/><line x1="440" y1="8" x2="440" y2="512" stroke="rgba(255,255,255,0.82)" stroke-width="2"/><circle cx="440" cy="260" r="62" fill="none" stroke="rgba(255,255,255,0.82)" stroke-width="2"/><circle cx="440" cy="260" r="3" fill="rgba(255,255,255,0.8)"/><rect x="18" y="172" width="106" height="176" fill="none" stroke="rgba(255,255,255,0.82)" stroke-width="2"/><rect x="756" y="172" width="106" height="176" fill="none" stroke="rgba(255,255,255,0.82)" stroke-width="2"/><rect x="18" y="214" width="54" height="92" fill="none" stroke="rgba(255,255,255,0.82)" stroke-width="2"/><rect x="808" y="214" width="54" height="92" fill="none" stroke="rgba(255,255,255,0.82)" stroke-width="2"/><rect x="-8" y="195" width="26" height="130" fill="rgba(255,255,255,0.1)" stroke="rgba(255,255,255,0.9)" stroke-width="3"/><rect x="862" y="195" width="26" height="130" fill="rgba(255,255,255,0.1)" stroke="rgba(255,255,255,0.9)" stroke-width="3"/><circle cx="18" cy="260" r="552" fill="none" stroke="#ff6b35" stroke-width="1" stroke-opacity="0.18" stroke-dasharray="4,4"/><circle cx="18" cy="260" r="693" fill="none" stroke="#ff6b35" stroke-width="1" stroke-opacity="0.18" stroke-dasharray="4,4"/><circle cx="18" cy="260" r="54" fill="none" stroke="#5b9bff" stroke-width="1" stroke-opacity="0.18" stroke-dasharray="4,4"/><circle cx="18" cy="260" r="228" fill="none" stroke="#5b9bff" stroke-width="1" stroke-opacity="0.18" stroke-dasharray="4,4"/><circle cx="18" cy="260" r="117" fill="none" stroke="#5b9bff" stroke-width="1" stroke-opacity="0.18" stroke-dasharray="4,4"/><circle cx="18" cy="260" r="239" fill="none" stroke="#5b9bff" stroke-width="1" stroke-opacity="0.18" stroke-dasharray="4,4"/><circle cx="18" cy="260" r="395" fill="none" stroke="#84cc16" stroke-width="1" stroke-opacity="0.18" stroke-dasharray="4,4"/><circle cx="18" cy="260" r="472" fill="none" stroke="#84cc16" stroke-width="1" stroke-opacity="0.18" stroke-dasharray="4,4"/><circle cx="18" cy="260" r="0" fill="none" stroke="#fbbf24" stroke-width="1" stroke-opacity="0.18" stroke-dasharray="4,4"/><circle cx="18" cy="260" r="200" fill="none" stroke="#fbbf24" stroke-width="1" stroke-opacity="0.18" stroke-dasharray="4,4"/><line x1="607" y1="246" x2="607" y2="268" stroke="#ff6b35" stroke-width="1" stroke-opacity="0.22" stroke-dasharray="2,3"/><circle cx="607" cy="246" r="186" fill="#ff6b35" fill-opacity="0.05" stroke="#ff6b35" stroke-width="1" stroke-opacity="0.25"/><circle cx="607" cy="246" r="142" fill="none" stroke="#ff6b35" stroke-width="2" stroke-opacity="0.5" stroke-dasharray="6,3"/><circle cx="607" cy="246" r="13" fill="#ff6b35" stroke="white" stroke-width="2.5"/><text x="607" y="250" fill="white" font-size="10" font-weight="bold" text-anchor="middle">FWD</text><line x1="199" y1="233" x2="199" y2="373" stroke="#5b9bff" stroke-width="1" stroke-opacity="0.22" stroke-dasharray="2,3"/><circle cx="199" cy="308" r="200" fill="#5b9bff" fill-opacity="0.05" stroke="#5b9bff" stroke-width="1" stroke-opacity="0.25"/><circle cx="199" cy="308" r="26" fill="none" stroke="#5b9bff" stroke-width="2" stroke-opacity="0.5" stroke-dasharray="6,3"/><circle cx="199" cy="308" r="13" fill="#5b9bff" stroke="white" stroke-width="2.5"/><text x="199" y="311" fill="white" font-size="10" font-weight="bold" text-anchor="middle">MID-T</text><line x1="188" y1="0" x2="188" y2="255" stroke="#5b9bff" stroke-width="1" stroke-opacity="0.22" stroke-dasharray="2,3"/><circle cx="188" cy="61" r="20" fill="#5b9bff" fill-opacity="0.05" stroke="#5b9bff" stroke-width="1" stroke-opacity="0.25"/><circle cx="188" cy="61" r="79" fill="none" stroke="#5b9bff" stroke-width="2" stroke-opacity="0.5" stroke-dasharray="6,3"/><circle cx="188" cy="61" r="13" fill="#5b9bff" stroke="white" stroke-width="2.5"/><text x="188" y="65" fill="white" font-size="10" font-weight="bold" text-anchor="middle">MID-B</text><line x1="465" y1="389" x2="465" y2="480" stroke="#84cc16" stroke-width="1" stroke-opacity="0.22" stroke-dasharray="2,3"/><circle cx="465" cy="411" r="20" fill="#84cc16" fill-opacity="0.05" stroke="#84cc16" stroke-width="1" stroke-opacity="0.25"/><circle cx="465" cy="411" r="116" fill="none" stroke="#84cc16" stroke-width="2" stroke-opacity="0.5" stroke-dasharray="6,3"/><circle cx="465" cy="411" r="13" fill="#84cc16" stroke="white" stroke-width="2.5"/><text x="465" y="415" fill="white" font-size="10" font-weight="bold" text-anchor="middle">DEF</text><line x1="39" y1="130" x2="39" y2="390" stroke="#fbbf24" stroke-width="1" stroke-opacity="0.22" stroke-dasharray="2,3"/><circle cx="39" cy="260" r="60" fill="#fbbf24" fill-opacity="0.05" stroke="#fbbf24" stroke-width="1" stroke-opacity="0.25"/><circle cx="39" cy="260" r="200" fill="none" stroke="#fbbf24" stroke-width="2" stroke-opacity="0.5" stroke-dasharray="6,3"/><circle cx="39" cy="260" r="13" fill="#fbbf24" stroke="white" stroke-width="2.5"/><text x="39" y="264" fill="white" font-size="10" font-weight="bold" text-anchor="middle">GK</text><text x="10" y="22" fill="rgba(255,255,255,0.95)" font-size="16" font-weight="bold">phoenix-rovers</text><text x="10" y="38" fill="rgba(255,255,255,0.7)" font-size="11">phoenix-rovers: champion after 2 adaptive anneal sessions</text><text x="870" y="22" fill="rgba(255,255,255,0.55)" font-size="9" text-anchor="end">solid: preferred · faint: own_goal min/max · dashed ring: opponent pref</text><rect y="520" width="880" height="140" fill="#0a0a0a"/><text x="10" y="538" fill="white" font-size="11" font-weight="bold">Spatial preferences (min / preferred / max)</text><text x="10" y="556" fill="rgba(255,255,255,0.55)" font-size="9">slot     own_goal              side                 ball                 teammate           opponent</text><text x="10" y="575" fill="#ff6b35" font-size="10" xml:space="preserve">FWD      552/ 589/ 693      246/ 246/ 268         0/ 186/ 223        68/  88/  88      77/ 142/ 321</text><text x="10" y="589" fill="#5b9bff" font-size="10" xml:space="preserve">MID-T     54/ 187/ 228      233/ 308/ 373         0/ 368/ 612        72/  83/  88       0/  26/  44</text><text x="10" y="603" fill="#5b9bff" font-size="10" xml:space="preserve">MID-B    117/ 170/ 239        0/  61/ 255         0/   0/   3         3/  89/ 215      11/  79/ 279</text><text x="10" y="617" fill="#84cc16" font-size="10" xml:space="preserve">DEF      395/ 472/ 472      389/ 411/ 480        13/  13/  22        33/ 343/ 377      44/ 116/ 215</text><text x="10" y="631" fill="#fbbf24" font-size="10" xml:space="preserve">GK         0/   0/ 200      130/ 260/ 390         0/  60/ 200       173/ 263/ 301      79/ 258/ 285</text></svg>