<svg xmlns="http://www.w3.org/2000/svg" viewBox="0 0 880 660" font-family="ui-monospace,Menlo,monospace"><rect width="880" height="520" fill="#2a6318"/><rect x="0" y="0" width="80" height="520" fill="black" fill-opacity="0.06"/><rect x="80" y="0" width="80" height="520" fill="white" fill-opacity="0.025"/><rect x="160" y="0" width="80" height="520" fill="black" fill-opacity="0.06"/><rect x="240" y="0" width="80" height="520" fill="white" fill-opacity="0.025"/><rect x="320" y="0" width="80" height="520" fill="black" fill-opacity="0.06"/><rect x="400" y="0" width="80" height="520" fill="white" fill-opacity="0.025"/><rect x="480" y="0" width="80" height="520" fill="black" fill-opacity="0.06"/><rect x="560" y="0" width="80" height="520" fill="white" fill-opacity="0.025"/><rect x="640" y="0" width="80" height="520" fill="black" fill-opacity="0.06"/><rect x="720" y="0" width="80" height="520" fill="white" fill-opacity="0.025"/><rect x="800" y="0" width="80" height="520" fill="black" fill-opacity="0.06"/><rect x="18" y="8" width="844" height="504" fill="none" stroke="rgba(255,255,255,0.82)" stroke-width="2"/><line x1="440" y1="8" x2="440" y2="512" stroke="rgba(255,255,255,0.82)" stroke-width="2"/><circle cx="440" cy="260" r="62" fill="none" stroke="rgba(255,255,255,0.82)" stroke-width="2"/><circle cx="440" cy="260" r="3" fill="rgba(255,255,255,0.8)"/><rect x="18" y="172" width="106" height="176" fill="none" stroke="rgba(255,255,255,0.82)" stroke-width="2"/><rect x="756" y="172" width="106" height="176" fill="none" stroke="rgba(255,255,255,0.82)" stroke-width="2"/><rect x="18" y="214" width="54" height="92" fill="none" stroke="rgba(255,255,255,0.82)" stroke-width="2"/><rect x="808" y="214" width="54" height="92" fill="none" stroke="rgba(255,255,255,0.82)" stroke-width="2"/><rect x="-8" y="195" width="26" height="130" fill="rgba(255,255,255,0.1)" stroke="rgba(255,255,255,0.9)" stroke-width="3"/><rect x="862" y="195" width="26" height="130" fill="rgba(255,255,255,0.1)" stroke="rgba(255,255,255,0.9)" stroke-width="3"/><circle cx="18" cy="260" r="516" fill="none" stroke="#ff6b35" stroke-width="1" stroke-opacity="0.18" stroke-dasharray="4,4"/><circle cx="18" cy="260" r="627" fill="none" stroke="#ff6b35" stroke-width="1" stroke-opacity="0.18" stroke-dasharray="4,4"/><circle cx="18" cy="260" r="0" fill="none" stroke="#5b9bff" stroke-width="1" stroke-opacity="0.18" stroke-dasharray="4,4"/><circle cx="18" cy="260" r="228" fill="none" stroke="#5b9bff" stroke-width="1" stroke-opacity="0.18" stroke-dasharray="4,4"/><circle cx="18" cy="260" r="156" fill="none" stroke="#5b9bff" stroke-width="1" stroke-opacity="0.18" stroke-dasharray="4,4"/><circle cx="18" cy="260" r="217" fill="none" stroke="#5b9bff" stroke-width="1" stroke-opacity="0.18" stroke-dasharray="4,4"/><circle cx="18" cy="260" r="432" fill="none" stroke="#84cc16" stroke-width="1" stroke-opacity="0.18" stroke-dasharray="4,4"/><circle cx="18" cy="260" r="667" fill="none" stroke="#84cc16" stroke-width="1" stroke-opacity="0.18" stroke-dasharray="4,4"/><circle cx="18" cy="260" r="0" fill="none" stroke="#fbbf24" stroke-width="1" stroke-opacity="0.18" stroke-dasharray="4,4"/><circle cx="18" cy="260" r="331" fill="none" stroke="#fbbf24" stroke-width="1" stroke-opacity="0.18" stroke-dasharray="4,4"/><line x1="644" y1="246" x2="644" y2="284" stroke="#ff6b35" stroke-width="1" stroke-opacity="0.22" stroke-dasharray="2,3"/><circle cx="644" cy="246" r="200" fill="#ff6b35" fill-opacity="0.05" stroke="#ff6b35" stroke-width="1" stroke-opacity="0.25"/><circle cx="644" cy="246" r="118" fill="none" stroke="#ff6b35" stroke-width="2" stroke-opacity="0.5" stroke-dasharray="6,3"/><circle cx="644" cy="246" r="13" fill="#ff6b35" stroke="white" stroke-width="2.5"/><text x="644" y="249" fill="white" font-size="10" font-weight="bold" text-anchor="middle">FWD</text><line x1="202" y1="268" x2="202" y2="373" stroke="#5b9bff" stroke-width="1" stroke-opacity="0.22" stroke-dasharray="2,3"/><circle cx="202" cy="295" r="200" fill="#5b9bff" fill-opacity="0.05" stroke="#5b9bff" stroke-width="1" stroke-opacity="0.25"/><circle cx="202" cy="295" r="24" fill="none" stroke="#5b9bff" stroke-width="2" stroke-opacity="0.5" stroke-dasharray="6,3"/><circle cx="202" cy="295" r="13" fill="#5b9bff" stroke="white" stroke-width="2.5"/><text x="202" y="298" fill="white" font-size="10" font-weight="bold" text-anchor="middle">MID-T</text><line x1="188" y1="0" x2="188" y2="252" stroke="#5b9bff" stroke-width="1" stroke-opacity="0.22" stroke-dasharray="2,3"/><circle cx="188" cy="77" r="20" fill="#5b9bff" fill-opacity="0.05" stroke="#5b9bff" stroke-width="1" stroke-opacity="0.25"/><circle cx="188" cy="77" r="79" fill="none" stroke="#5b9bff" stroke-width="2" stroke-opacity="0.5" stroke-dasharray="6,3"/><circle cx="188" cy="77" r="13" fill="#5b9bff" stroke="white" stroke-width="2.5"/><text x="188" y="80" fill="white" font-size="10" font-weight="bold" text-anchor="middle">MID-B</text><line x1="587" y1="389" x2="587" y2="480" stroke="#84cc16" stroke-width="1" stroke-opacity="0.22" stroke-dasharray="2,3"/><circle cx="587" cy="389" r="21" fill="#84cc16" fill-opacity="0.05" stroke="#84cc16" stroke-width="1" stroke-opacity="0.25"/><circle cx="587" cy="389" r="113" fill="none" stroke="#84cc16" stroke-width="2" stroke-opacity="0.5" stroke-dasharray="6,3"/><circle cx="587" cy="389" r="13" fill="#84cc16" stroke="white" stroke-width="2.5"/><text x="587" y="392" fill="white" font-size="10" font-weight="bold" text-anchor="middle">DEF</text><line x1="117" y1="40" x2="117" y2="219" stroke="#fbbf24" stroke-width="1" stroke-opacity="0.22" stroke-dasharray="2,3"/><circle cx="117" cy="40" r="143" fill="#fbbf24" fill-opacity="0.05" stroke="#fbbf24" stroke-width="1" stroke-opacity="0.25"/><circle cx="117" cy="40" r="200" fill="none" stroke="#fbbf24" stroke-width="2" stroke-opacity="0.5" stroke-dasharray="6,3"/><circle cx="117" cy="40" r="13" fill="#fbbf24" stroke="white" stroke-width="2.5"/><text x="117" y="44" fill="white" font-size="10" font-weight="bold" text-anchor="middle">GK</text><text x="10" y="22" fill="rgba(255,255,255,0.95)" font-size="16" font-weight="bold">phoenix-rovers</text><text x="10" y="38" fill="rgba(255,255,255,0.7)" font-size="11">Phoenix Rovers — energetic, comeback-prone</text><text x="870" y="22" fill="rgba(255,255,255,0.55)" font-size="9" text-anchor="end">solid: preferred · faint: own_goal min/max · dashed ring: opponent pref</text><rect y="520" width="880" height="140" fill="#0a0a0a"/><text x="10" y="538" fill="white" font-size="11" font-weight="bold">Spatial preferences (min / preferred / max)</text><text x="10" y="556" fill="rgba(255,255,255,0.55)" font-size="9">slot     own_goal              side                 ball                 teammate           opponent</text><text x="10" y="575" fill="#ff6b35" font-size="10" xml:space="preserve">FWD      516/ 627/ 627      246/ 246/ 284         0/ 204/ 275        68/ 130/ 130     110/ 118/ 297</text><text x="10" y="589" fill="#5b9bff" font-size="10" xml:space="preserve">MID-T      0/ 187/ 228      268/ 295/ 373        26/ 335/ 612        68/  68/  72      22/  24/  63</text><text x="10" y="603" fill="#5b9bff" font-size="10" xml:space="preserve">MID-B    156/ 170/ 217        0/  77/ 252         0/   0/   3         3/ 132/ 215      11/  79/ 287</text><text x="10" y="617" fill="#84cc16" font-size="10" xml:space="preserve">DEF      432/ 583/ 667      389/ 389/ 480        13/  21/  21        47/ 327/ 377      33/ 113/ 242</text><text x="10" y="631" fill="#fbbf24" font-size="10" xml:space="preserve">GK         0/  99/ 331       40/  40/ 219         0/ 143/ 260       152/ 263/ 330      61/ 258/ 312</text></svg>