<?xml version="1.0" encoding="UTF-8"?>
<svg xmlns="http://www.w3.org/2000/svg" width="1100" height="620" viewBox="0 0 1100 620">
  <rect width="100%" height="100%" fill="#ffffff"/>
  <text x="72" y="30" font-family="Arial, sans-serif" font-size="22" font-weight="700" fill="#111827">Training progress</text>
  <text x="1068" y="30" text-anchor="end" font-family="Arial, sans-serif" font-size="13" fill="#4b5563">Final champion epoch: 89</text>
  <g font-family="Arial, sans-serif">
    <line x1="72.0" y1="54.0" x2="72.0" y2="542.0" stroke="#eef2f7" stroke-width="1"/>
    <text x="72.0" y="566.0" text-anchor="middle" font-size="12" fill="#4b5563">1</text>
    <line x1="172.6" y1="54.0" x2="172.6" y2="542.0" stroke="#eef2f7" stroke-width="1"/>
    <text x="172.6" y="566.0" text-anchor="middle" font-size="12" fill="#4b5563">11</text>
    <line x1="273.2" y1="54.0" x2="273.2" y2="542.0" stroke="#eef2f7" stroke-width="1"/>
    <text x="273.2" y="566.0" text-anchor="middle" font-size="12" fill="#4b5563">21</text>
    <line x1="373.8" y1="54.0" x2="373.8" y2="542.0" stroke="#eef2f7" stroke-width="1"/>
    <text x="373.8" y="566.0" text-anchor="middle" font-size="12" fill="#4b5563">31</text>
    <line x1="474.4" y1="54.0" x2="474.4" y2="542.0" stroke="#eef2f7" stroke-width="1"/>
    <text x="474.4" y="566.0" text-anchor="middle" font-size="12" fill="#4b5563">41</text>
    <line x1="575.0" y1="54.0" x2="575.0" y2="542.0" stroke="#eef2f7" stroke-width="1"/>
    <text x="575.0" y="566.0" text-anchor="middle" font-size="12" fill="#4b5563">51</text>
    <line x1="675.6" y1="54.0" x2="675.6" y2="542.0" stroke="#eef2f7" stroke-width="1"/>
    <text x="675.6" y="566.0" text-anchor="middle" font-size="12" fill="#4b5563">61</text>
    <line x1="776.2" y1="54.0" x2="776.2" y2="542.0" stroke="#eef2f7" stroke-width="1"/>
    <text x="776.2" y="566.0" text-anchor="middle" font-size="12" fill="#4b5563">71</text>
    <line x1="876.8" y1="54.0" x2="876.8" y2="542.0" stroke="#eef2f7" stroke-width="1"/>
    <text x="876.8" y="566.0" text-anchor="middle" font-size="12" fill="#4b5563">81</text>
    <line x1="977.5" y1="54.0" x2="977.5" y2="542.0" stroke="#eef2f7" stroke-width="1"/>
    <text x="977.5" y="566.0" text-anchor="middle" font-size="12" fill="#4b5563">91</text>
    <line x1="72.0" y1="542.0" x2="1068.0" y2="542.0" stroke="#d8dee9" stroke-width="1" opacity="0.55"/>
    <text x="60.0" y="546.0" text-anchor="end" font-size="12" fill="#4b5563">-2352.0</text>
    <line x1="72.0" y1="444.4" x2="1068.0" y2="444.4" stroke="#d8dee9" stroke-width="1" opacity="0.55"/>
    <text x="60.0" y="448.4" text-anchor="end" font-size="12" fill="#4b5563">-1446.6</text>
    <line x1="72.0" y1="346.8" x2="1068.0" y2="346.8" stroke="#d8dee9" stroke-width="1" opacity="0.55"/>
    <text x="60.0" y="350.8" text-anchor="end" font-size="12" fill="#4b5563">-541.2</text>
    <line x1="72.0" y1="249.2" x2="1068.0" y2="249.2" stroke="#d8dee9" stroke-width="1" opacity="0.55"/>
    <text x="60.0" y="253.2" text-anchor="end" font-size="12" fill="#4b5563">364.2</text>
    <line x1="72.0" y1="151.6" x2="1068.0" y2="151.6" stroke="#d8dee9" stroke-width="1" opacity="0.55"/>
    <text x="60.0" y="155.6" text-anchor="end" font-size="12" fill="#4b5563">1269.6</text>
    <line x1="72.0" y1="54.0" x2="1068.0" y2="54.0" stroke="#d8dee9" stroke-width="1" opacity="0.55"/>
    <text x="60.0" y="58.0" text-anchor="end" font-size="12" fill="#4b5563">2175.0</text>
    <line x1="72.0" y1="54.0" x2="72.0" y2="542.0" stroke="#111827" stroke-width="1.4"/>
    <line x1="72.0" y1="542.0" x2="1068.0" y2="542.0" stroke="#111827" stroke-width="1.4"/>
    <text x="570.0" y="596.0" text-anchor="middle" font-size="13" fill="#111827">Epoch</text>
    <text x="20" y="298.0" transform="rotate(-90 20 298.0)" text-anchor="middle" font-size="13" fill="#111827">Goals / goal diff</text>
    <polyline fill="none" stroke="#2563eb" stroke-width="2.4" points="72.0,288.3 82.1,288.2 92.1,288.2 102.2,288.2 112.2,288.2 122.3,288.2 132.4,288.2 142.4,288.2 152.5,288.2 162.5,288.3 172.6,288.2 182.7,288.2 192.7,288.2 202.8,288.2 212.8,288.2 222.9,288.2 233.0,288.2 243.0,288.2 253.1,288.2 263.2,288.2 273.2,288.2 283.3,288.2 293.3,288.2 303.4,288.2 313.5,288.2 323.5,288.2 333.6,288.2 343.6,288.2 353.7,288.2 363.8,288.2 373.8,288.3 383.9,288.2 393.9,288.2 404.0,288.2 414.1,288.2 424.1,288.2 434.2,288.2 444.2,288.3 454.3,288.2 464.4,288.2 474.4,288.2 484.5,288.2 494.5,288.3 504.6,288.2 514.7,288.2 524.7,288.2 534.8,288.2 544.8,288.3 554.9,288.2 565.0,288.2 575.0,288.2 585.1,288.3 595.2,288.2 605.2,288.2 615.3,288.2 625.3,288.2 635.4,288.2 645.5,288.2 655.5,288.2 665.6,288.2 675.6,288.3 685.7,288.2 695.8,288.2 705.8,288.2 715.9,288.2 725.9,288.2 736.0,288.3 746.1,288.2 756.1,288.2 766.2,288.2 776.2,288.2 786.3,288.2 796.4,288.2 806.4,288.2 816.5,288.2 826.5,288.2 836.6,288.2 846.7,288.2 856.7,288.2 866.8,288.2 876.8,288.2 886.9,288.2 897.0,288.2 907.0,288.2 917.1,288.2 927.2,288.2 937.2,288.2 947.3,288.2 957.3,288.2 967.4,288.2 977.5,288.2 987.5,288.2 997.6,288.2 1007.6,288.2 1017.7,288.2 1027.8,288.2 1037.8,288.2 1047.9,288.3 1057.9,288.2 1068.0,288.2"/>
    <polyline fill="none" stroke="#ef4444" stroke-width="2.4" points="72.0,288.1 82.1,288.2 92.1,288.2 102.2,288.2 112.2,288.2 122.3,288.2 132.4,288.2 142.4,288.2 152.5,288.2 162.5,288.3 172.6,288.2 182.7,288.2 192.7,288.2 202.8,288.2 212.8,288.2 222.9,288.2 233.0,288.2 243.0,288.2 253.1,288.2 263.2,288.2 273.2,288.2 283.3,288.2 293.3,288.2 303.4,288.2 313.5,288.2 323.5,288.2 333.6,288.2 343.6,288.2 353.7,288.2 363.8,288.2 373.8,288.2 383.9,288.2 393.9,288.2 404.0,288.2 414.1,288.2 424.1,288.2 434.2,288.2 444.2,288.2 454.3,288.2 464.4,288.2 474.4,288.2 484.5,288.2 494.5,288.1 504.6,288.2 514.7,288.2 524.7,288.2 534.8,288.2 544.8,288.1 554.9,288.2 565.0,288.2 575.0,288.2 585.1,288.2 595.2,288.2 605.2,288.2 615.3,288.2 625.3,288.2 635.4,288.2 645.5,288.2 655.5,288.2 665.6,288.2 675.6,288.2 685.7,288.2 695.8,288.2 705.8,288.2 715.9,288.2 725.9,288.2 736.0,288.3 746.1,288.2 756.1,288.2 766.2,288.2 776.2,288.2 786.3,288.2 796.4,288.2 806.4,288.1 816.5,288.2 826.5,288.2 836.6,288.2 846.7,288.2 856.7,288.2 866.8,288.2 876.8,288.2 886.9,288.2 897.0,288.2 907.0,288.2 917.1,288.2 927.2,288.2 937.2,288.2 947.3,288.2 957.3,288.2 967.4,288.2 977.5,288.2 987.5,288.2 997.6,288.2 1007.6,288.2 1017.7,288.2 1027.8,288.2 1037.8,288.2 1047.9,288.2 1057.9,288.2 1068.0,288.2"/>
    <polyline fill="none" stroke="#7c3aed" stroke-width="2" stroke-dasharray="6 5" points="72.0,302.5 82.1,521.5 92.1,134.1 102.2,213.2 112.2,335.0 122.3,300.2 132.4,287.0 142.4,316.8 152.5,169.6 162.5,294.7 172.6,355.5 182.7,291.4 192.7,245.4 202.8,423.1 212.8,272.7 222.9,276.2 233.0,353.4 243.0,301.6 253.1,391.4 263.2,283.9 273.2,286.6 283.3,274.0 293.3,462.7 303.4,329.0 313.5,243.4 323.5,159.6 333.6,339.7 343.6,441.5 353.7,443.1 363.8,295.1 373.8,298.7 383.9,352.4 393.9,215.7 404.0,214.2 414.1,314.7 424.1,166.0 434.2,230.7 444.2,302.0 454.3,464.5 464.4,224.8 474.4,507.5 484.5,182.6 494.5,305.2 504.6,383.6 514.7,111.0 524.7,193.4 534.8,54.0 544.8,303.6 554.9,322.8 565.0,451.0 575.0,216.2 585.1,301.4 595.2,302.7 605.2,274.9 615.3,295.5 625.3,237.0 635.4,301.0 645.5,542.0 655.5,297.0 665.6,298.7 675.6,296.8 685.7,435.7 695.8,504.1 705.8,347.0 715.9,217.2 725.9,343.2 736.0,296.8 746.1,406.7 756.1,402.0 766.2,287.6 776.2,316.3 786.3,406.8 796.4,163.8 806.4,300.1 816.5,232.6 826.5,213.1 836.6,355.1 846.7,380.6 856.7,268.5 866.8,236.9 876.8,394.7 886.9,408.3 897.0,99.9 907.0,317.0 917.1,453.9 927.2,308.5 937.2,409.7 947.3,215.7 957.3,159.1 967.4,371.6 977.5,499.6 987.5,352.2 997.6,395.0 1007.6,497.2 1017.7,318.2 1027.8,394.7 1037.8,393.3 1047.9,295.1 1057.9,538.2 1068.0,314.3"/>
    <circle cx="92.1" cy="134.1" r="5" fill="#16a34a"><title>Accepted epoch 3, diff 1432</title></circle>
    <circle cx="102.2" cy="213.2" r="5" fill="#16a34a"><title>Accepted epoch 4, diff 698</title></circle>
    <circle cx="132.4" cy="287.0" r="5" fill="#16a34a"><title>Accepted epoch 7, diff 14</title></circle>
    <circle cx="152.5" cy="169.6" r="5" fill="#16a34a"><title>Accepted epoch 9, diff 1103</title></circle>
    <circle cx="192.7" cy="245.4" r="5" fill="#16a34a"><title>Accepted epoch 13, diff 399</title></circle>
    <circle cx="212.8" cy="272.7" r="5" fill="#16a34a"><title>Accepted epoch 15, diff 146</title></circle>
    <circle cx="222.9" cy="276.2" r="5" fill="#16a34a"><title>Accepted epoch 16, diff 114</title></circle>
    <circle cx="263.2" cy="283.9" r="5" fill="#16a34a"><title>Accepted epoch 20, diff 42</title></circle>
    <circle cx="273.2" cy="286.6" r="5" fill="#16a34a"><title>Accepted epoch 21, diff 17</title></circle>
    <circle cx="283.3" cy="274.0" r="5" fill="#16a34a"><title>Accepted epoch 22, diff 134</title></circle>
    <circle cx="313.5" cy="243.4" r="5" fill="#16a34a"><title>Accepted epoch 25, diff 418</title></circle>
    <circle cx="323.5" cy="159.6" r="5" fill="#16a34a"><title>Accepted epoch 26, diff 1195</title></circle>
    <circle cx="393.9" cy="215.7" r="5" fill="#16a34a"><title>Accepted epoch 33, diff 675</title></circle>
    <circle cx="404.0" cy="214.2" r="5" fill="#16a34a"><title>Accepted epoch 34, diff 689</title></circle>
    <circle cx="424.1" cy="166.0" r="5" fill="#16a34a"><title>Accepted epoch 36, diff 1136</title></circle>
    <circle cx="434.2" cy="230.7" r="5" fill="#16a34a"><title>Accepted epoch 37, diff 536</title></circle>
    <circle cx="464.4" cy="224.8" r="5" fill="#16a34a"><title>Accepted epoch 40, diff 591</title></circle>
    <circle cx="484.5" cy="182.6" r="5" fill="#16a34a"><title>Accepted epoch 42, diff 982</title></circle>
    <circle cx="514.7" cy="111.0" r="5" fill="#16a34a"><title>Accepted epoch 45, diff 1646</title></circle>
    <circle cx="524.7" cy="193.4" r="5" fill="#16a34a"><title>Accepted epoch 46, diff 882</title></circle>
    <circle cx="534.8" cy="54.0" r="5" fill="#16a34a"><title>Accepted epoch 47, diff 2175</title></circle>
    <circle cx="575.0" cy="216.2" r="5" fill="#16a34a"><title>Accepted epoch 51, diff 670</title></circle>
    <circle cx="605.2" cy="274.9" r="5" fill="#16a34a"><title>Accepted epoch 54, diff 126</title></circle>
    <circle cx="625.3" cy="237.0" r="5" fill="#16a34a"><title>Accepted epoch 56, diff 477</title></circle>
    <circle cx="715.9" cy="217.2" r="5" fill="#16a34a"><title>Accepted epoch 65, diff 661</title></circle>
    <circle cx="766.2" cy="287.6" r="5" fill="#16a34a"><title>Accepted epoch 70, diff 8</title></circle>
    <circle cx="796.4" cy="163.8" r="5" fill="#16a34a"><title>Accepted epoch 73, diff 1156</title></circle>
    <circle cx="816.5" cy="232.6" r="5" fill="#16a34a"><title>Accepted epoch 75, diff 518</title></circle>
    <circle cx="826.5" cy="213.1" r="5" fill="#16a34a"><title>Accepted epoch 76, diff 699</title></circle>
    <circle cx="856.7" cy="268.5" r="5" fill="#16a34a"><title>Accepted epoch 79, diff 185</title></circle>
    <circle cx="866.8" cy="236.9" r="5" fill="#16a34a"><title>Accepted epoch 80, diff 478</title></circle>
    <circle cx="897.0" cy="99.9" r="5" fill="#16a34a"><title>Accepted epoch 83, diff 1749</title></circle>
    <circle cx="947.3" cy="215.7" r="5" fill="#16a34a"><title>Accepted epoch 88, diff 675</title></circle>
    <circle cx="957.3" cy="159.1" r="5" fill="#16a34a"><title>Accepted epoch 89, diff 1200</title></circle>
    <g transform="translate(72, 566.0)" font-size="13" fill="#111827">
      <rect x="0" y="-12" width="14" height="4" fill="#2563eb"/><text x="22" y="-7">Candidate avg goals</text>
      <rect x="190" y="-12" width="14" height="4" fill="#ef4444"/><text x="212" y="-7">Baseline avg goals</text>
      <rect x="378" y="-12" width="14" height="4" fill="#7c3aed"/><text x="400" y="-7">Goal diff</text>
      <circle cx="548" cy="-10" r="5" fill="#16a34a"/><text x="562" y="-7">Accepted improvement</text>
    </g>
  </g>
</svg>
