<?xml version="1.0" encoding="UTF-8"?>
<svg xmlns="http://www.w3.org/2000/svg" width="1100" height="620" viewBox="0 0 1100 620">
  <rect width="100%" height="100%" fill="#ffffff"/>
  <text x="72" y="30" font-family="Arial, sans-serif" font-size="22" font-weight="700" fill="#111827">Training progress</text>
  <text x="1068" y="30" text-anchor="end" font-family="Arial, sans-serif" font-size="13" fill="#4b5563">Final champion epoch: 0</text>
  <g font-family="Arial, sans-serif">
    <line x1="72.0" y1="54.0" x2="72.0" y2="542.0" stroke="#eef2f7" stroke-width="1"/>
    <text x="72.0" y="566.0" text-anchor="middle" font-size="12" fill="#4b5563">1</text>
    <line x1="321.0" y1="54.0" x2="321.0" y2="542.0" stroke="#eef2f7" stroke-width="1"/>
    <text x="321.0" y="566.0" text-anchor="middle" font-size="12" fill="#4b5563">2</text>
    <line x1="570.0" y1="54.0" x2="570.0" y2="542.0" stroke="#eef2f7" stroke-width="1"/>
    <text x="570.0" y="566.0" text-anchor="middle" font-size="12" fill="#4b5563">3</text>
    <line x1="819.0" y1="54.0" x2="819.0" y2="542.0" stroke="#eef2f7" stroke-width="1"/>
    <text x="819.0" y="566.0" text-anchor="middle" font-size="12" fill="#4b5563">4</text>
    <line x1="1068.0" y1="54.0" x2="1068.0" y2="542.0" stroke="#eef2f7" stroke-width="1"/>
    <text x="1068.0" y="566.0" text-anchor="middle" font-size="12" fill="#4b5563">5</text>
    <line x1="72.0" y1="542.0" x2="1068.0" y2="542.0" stroke="#d8dee9" stroke-width="1" opacity="0.55"/>
    <text x="60.0" y="546.0" text-anchor="end" font-size="12" fill="#4b5563">-7787.0</text>
    <line x1="72.0" y1="444.4" x2="1068.0" y2="444.4" stroke="#d8dee9" stroke-width="1" opacity="0.55"/>
    <text x="60.0" y="448.4" text-anchor="end" font-size="12" fill="#4b5563">-6228.3</text>
    <line x1="72.0" y1="346.8" x2="1068.0" y2="346.8" stroke="#d8dee9" stroke-width="1" opacity="0.55"/>
    <text x="60.0" y="350.8" text-anchor="end" font-size="12" fill="#4b5563">-4669.7</text>
    <line x1="72.0" y1="249.2" x2="1068.0" y2="249.2" stroke="#d8dee9" stroke-width="1" opacity="0.55"/>
    <text x="60.0" y="253.2" text-anchor="end" font-size="12" fill="#4b5563">-3111.0</text>
    <line x1="72.0" y1="151.6" x2="1068.0" y2="151.6" stroke="#d8dee9" stroke-width="1" opacity="0.55"/>
    <text x="60.0" y="155.6" text-anchor="end" font-size="12" fill="#4b5563">-1552.3</text>
    <line x1="72.0" y1="54.0" x2="1068.0" y2="54.0" stroke="#d8dee9" stroke-width="1" opacity="0.55"/>
    <text x="60.0" y="58.0" text-anchor="end" font-size="12" fill="#4b5563">6.3</text>
    <line x1="72.0" y1="54.0" x2="72.0" y2="542.0" stroke="#111827" stroke-width="1.4"/>
    <line x1="72.0" y1="542.0" x2="1068.0" y2="542.0" stroke="#111827" stroke-width="1.4"/>
    <text x="570.0" y="596.0" text-anchor="middle" font-size="13" fill="#111827">Epoch</text>
    <text x="20" y="298.0" transform="rotate(-90 20 298.0)" text-anchor="middle" font-size="13" fill="#111827">Goals / goal diff</text>
    <polyline fill="none" stroke="#2563eb" stroke-width="2.4" points="72.0,54.2 321.0,54.0 570.0,54.0 819.0,54.1 1068.0,54.0"/>
    <polyline fill="none" stroke="#ef4444" stroke-width="2.4" points="72.0,54.1 321.0,54.0 570.0,54.0 819.0,54.0 1068.0,54.0"/>
    <polyline fill="none" stroke="#7c3aed" stroke-width="2" stroke-dasharray="6 5" points="72.0,63.4 321.0,542.0 570.0,126.2 819.0,70.1 1068.0,99.5"/>
    <g transform="translate(72, 566.0)" font-size="13" fill="#111827">
      <rect x="0" y="-12" width="14" height="4" fill="#2563eb"/><text x="22" y="-7">Candidate avg goals</text>
      <rect x="190" y="-12" width="14" height="4" fill="#ef4444"/><text x="212" y="-7">Baseline avg goals</text>
      <rect x="378" y="-12" width="14" height="4" fill="#7c3aed"/><text x="400" y="-7">Goal diff</text>
      <circle cx="548" cy="-10" r="5" fill="#16a34a"/><text x="562" y="-7">Accepted improvement</text>
    </g>
  </g>
</svg>
