<svg xmlns="http://www.w3.org/2000/svg" viewBox="0 0 880 660" font-family="ui-monospace,Menlo,monospace"><rect width="880" height="520" fill="#2a6318"/><rect x="0" y="0" width="80" height="520" fill="black" fill-opacity="0.06"/><rect x="80" y="0" width="80" height="520" fill="white" fill-opacity="0.025"/><rect x="160" y="0" width="80" height="520" fill="black" fill-opacity="0.06"/><rect x="240" y="0" width="80" height="520" fill="white" fill-opacity="0.025"/><rect x="320" y="0" width="80" height="520" fill="black" fill-opacity="0.06"/><rect x="400" y="0" width="80" height="520" fill="white" fill-opacity="0.025"/><rect x="480" y="0" width="80" height="520" fill="black" fill-opacity="0.06"/><rect x="560" y="0" width="80" height="520" fill="white" fill-opacity="0.025"/><rect x="640" y="0" width="80" height="520" fill="black" fill-opacity="0.06"/><rect x="720" y="0" width="80" height="520" fill="white" fill-opacity="0.025"/><rect x="800" y="0" width="80" height="520" fill="black" fill-opacity="0.06"/><rect x="18" y="8" width="844" height="504" fill="none" stroke="rgba(255,255,255,0.82)" stroke-width="2"/><line x1="440" y1="8" x2="440" y2="512" stroke="rgba(255,255,255,0.82)" stroke-width="2"/><circle cx="440" cy="260" r="62" fill="none" stroke="rgba(255,255,255,0.82)" stroke-width="2"/><circle cx="440" cy="260" r="3" fill="rgba(255,255,255,0.8)"/><rect x="18" y="172" width="106" height="176" fill="none" stroke="rgba(255,255,255,0.82)" stroke-width="2"/><rect x="756" y="172" width="106" height="176" fill="none" stroke="rgba(255,255,255,0.82)" stroke-width="2"/><rect x="18" y="214" width="54" height="92" fill="none" stroke="rgba(255,255,255,0.82)" stroke-width="2"/><rect x="808" y="214" width="54" height="92" fill="none" stroke="rgba(255,255,255,0.82)" stroke-width="2"/><rect x="-8" y="195" width="26" height="130" fill="rgba(255,255,255,0.1)" stroke="rgba(255,255,255,0.9)" stroke-width="3"/><rect x="862" y="195" width="26" height="130" fill="rgba(255,255,255,0.1)" stroke="rgba(255,255,255,0.9)" stroke-width="3"/><circle cx="18" cy="260" r="378" fill="none" stroke="#ff6b35" stroke-width="1" stroke-opacity="0.18" stroke-dasharray="4,4"/><circle cx="18" cy="260" r="439" fill="none" stroke="#ff6b35" stroke-width="1" stroke-opacity="0.18" stroke-dasharray="4,4"/><circle cx="18" cy="260" r="503" fill="none" stroke="#5b9bff" stroke-width="1" stroke-opacity="0.18" stroke-dasharray="4,4"/><circle cx="18" cy="260" r="586" fill="none" stroke="#5b9bff" stroke-width="1" stroke-opacity="0.18" stroke-dasharray="4,4"/><circle cx="18" cy="260" r="261" fill="none" stroke="#5b9bff" stroke-width="1" stroke-opacity="0.18" stroke-dasharray="4,4"/><circle cx="18" cy="260" r="900" fill="none" stroke="#5b9bff" stroke-width="1" stroke-opacity="0.18" stroke-dasharray="4,4"/><circle cx="18" cy="260" r="155" fill="none" stroke="#84cc16" stroke-width="1" stroke-opacity="0.18" stroke-dasharray="4,4"/><circle cx="18" cy="260" r="696" fill="none" stroke="#84cc16" stroke-width="1" stroke-opacity="0.18" stroke-dasharray="4,4"/><circle cx="18" cy="260" r="53" fill="none" stroke="#fbbf24" stroke-width="1" stroke-opacity="0.18" stroke-dasharray="4,4"/><circle cx="18" cy="260" r="215" fill="none" stroke="#fbbf24" stroke-width="1" stroke-opacity="0.18" stroke-dasharray="4,4"/><line x1="405" y1="234" x2="405" y2="283" stroke="#ff6b35" stroke-width="1" stroke-opacity="0.22" stroke-dasharray="2,3"/><circle cx="405" cy="283" r="52" fill="#ff6b35" fill-opacity="0.05" stroke="#ff6b35" stroke-width="1" stroke-opacity="0.25"/><circle cx="405" cy="283" r="88" fill="none" stroke="#ff6b35" stroke-width="2" stroke-opacity="0.5" stroke-dasharray="6,3"/><circle cx="405" cy="283" r="13" fill="#ff6b35" stroke="white" stroke-width="2.5"/><text x="405" y="287" fill="white" font-size="10" font-weight="bold" text-anchor="middle">FWD</text><line x1="601" y1="160" x2="601" y2="488" stroke="#5b9bff" stroke-width="1" stroke-opacity="0.22" stroke-dasharray="2,3"/><circle cx="601" cy="322" r="82" fill="#5b9bff" fill-opacity="0.05" stroke="#5b9bff" stroke-width="1" stroke-opacity="0.25"/><circle cx="601" cy="322" r="96" fill="none" stroke="#5b9bff" stroke-width="2" stroke-opacity="0.5" stroke-dasharray="6,3"/><circle cx="601" cy="322" r="13" fill="#5b9bff" stroke="white" stroke-width="2.5"/><text x="601" y="326" fill="white" font-size="10" font-weight="bold" text-anchor="middle">MID-T</text><line x1="530" y1="258" x2="530" y2="423" stroke="#5b9bff" stroke-width="1" stroke-opacity="0.22" stroke-dasharray="2,3"/><circle cx="530" cy="346" r="20" fill="#5b9bff" fill-opacity="0.05" stroke="#5b9bff" stroke-width="1" stroke-opacity="0.25"/><circle cx="530" cy="346" r="148" fill="none" stroke="#5b9bff" stroke-width="2" stroke-opacity="0.5" stroke-dasharray="6,3"/><circle cx="530" cy="346" r="13" fill="#5b9bff" stroke="white" stroke-width="2.5"/><text x="530" y="350" fill="white" font-size="10" font-weight="bold" text-anchor="middle">MID-B</text><line x1="656" y1="144" x2="656" y2="205" stroke="#84cc16" stroke-width="1" stroke-opacity="0.22" stroke-dasharray="2,3"/><circle cx="656" cy="176" r="200" fill="#84cc16" fill-opacity="0.05" stroke="#84cc16" stroke-width="1" stroke-opacity="0.25"/><circle cx="656" cy="176" r="64" fill="none" stroke="#84cc16" stroke-width="2" stroke-opacity="0.5" stroke-dasharray="6,3"/><circle cx="656" cy="176" r="13" fill="#84cc16" stroke="white" stroke-width="2.5"/><text x="656" y="179" fill="white" font-size="10" font-weight="bold" text-anchor="middle">DEF</text><line x1="120" y1="3" x2="120" y2="42" stroke="#fbbf24" stroke-width="1" stroke-opacity="0.22" stroke-dasharray="2,3"/><circle cx="120" cy="20" r="200" fill="#fbbf24" fill-opacity="0.05" stroke="#fbbf24" stroke-width="1" stroke-opacity="0.25"/><circle cx="120" cy="20" r="200" fill="none" stroke="#fbbf24" stroke-width="2" stroke-opacity="0.5" stroke-dasharray="6,3"/><circle cx="120" cy="20" r="13" fill="#fbbf24" stroke="white" stroke-width="2.5"/><text x="120" y="24" fill="white" font-size="10" font-weight="bold" text-anchor="middle">GK</text><text x="10" y="22" fill="rgba(255,255,255,0.95)" font-size="16" font-weight="bold">nebula-rangers</text><text x="10" y="38" fill="rgba(255,255,255,0.7)" font-size="11">nebula-rangers: GK-only training, 100 epochs</text><text x="870" y="22" fill="rgba(255,255,255,0.55)" font-size="9" text-anchor="end">solid: preferred · faint: own_goal min/max · dashed ring: opponent pref</text><rect y="520" width="880" height="140" fill="#0a0a0a"/><text x="10" y="538" fill="white" font-size="11" font-weight="bold">Spatial preferences (min / preferred / max)</text><text x="10" y="556" fill="rgba(255,255,255,0.55)" font-size="9">slot     own_goal              side                 ball                 teammate           opponent</text><text x="10" y="575" fill="#ff6b35" font-size="10" xml:space="preserve">FWD      378/ 388/ 439      234/ 283/ 283        52/  52/  55         0/ 255/ 339      86/  88/ 394</text><text x="10" y="589" fill="#5b9bff" font-size="10" xml:space="preserve">MID-T    503/ 586/ 586      160/ 322/ 488        66/  82/  91        64/ 229/ 302       0/  96/ 236</text><text x="10" y="603" fill="#5b9bff" font-size="10" xml:space="preserve">MID-B    261/ 520/ 900      258/ 346/ 423        17/  20/  84         0/  73/ 338       7/ 148/ 233</text><text x="10" y="617" fill="#84cc16" font-size="10" xml:space="preserve">DEF      155/ 644/ 696      144/ 176/ 205       119/ 322/ 597         4/  59/  60       7/  64/ 217</text><text x="10" y="631" fill="#fbbf24" font-size="10" xml:space="preserve">GK        53/ 102/ 215        3/   3/  42       364/ 374/ 374        23/ 309/ 384     264/ 264/ 353</text></svg>