<?xml version="1.0" encoding="UTF-8"?>
<svg xmlns="http://www.w3.org/2000/svg" width="1100" height="620" viewBox="0 0 1100 620">
  <rect width="100%" height="100%" fill="#ffffff"/>
  <text x="72" y="30" font-family="Arial, sans-serif" font-size="22" font-weight="700" fill="#111827">Training progress</text>
  <text x="1068" y="30" text-anchor="end" font-family="Arial, sans-serif" font-size="13" fill="#4b5563">Final champion epoch: 998</text>
  <g font-family="Arial, sans-serif">
    <line x1="72.0" y1="54.0" x2="72.0" y2="542.0" stroke="#eef2f7" stroke-width="1"/>
    <text x="72.0" y="566.0" text-anchor="middle" font-size="12" fill="#4b5563">1</text>
    <line x1="171.7" y1="54.0" x2="171.7" y2="542.0" stroke="#eef2f7" stroke-width="1"/>
    <text x="171.7" y="566.0" text-anchor="middle" font-size="12" fill="#4b5563">101</text>
    <line x1="271.4" y1="54.0" x2="271.4" y2="542.0" stroke="#eef2f7" stroke-width="1"/>
    <text x="271.4" y="566.0" text-anchor="middle" font-size="12" fill="#4b5563">201</text>
    <line x1="371.1" y1="54.0" x2="371.1" y2="542.0" stroke="#eef2f7" stroke-width="1"/>
    <text x="371.1" y="566.0" text-anchor="middle" font-size="12" fill="#4b5563">301</text>
    <line x1="470.8" y1="54.0" x2="470.8" y2="542.0" stroke="#eef2f7" stroke-width="1"/>
    <text x="470.8" y="566.0" text-anchor="middle" font-size="12" fill="#4b5563">401</text>
    <line x1="570.5" y1="54.0" x2="570.5" y2="542.0" stroke="#eef2f7" stroke-width="1"/>
    <text x="570.5" y="566.0" text-anchor="middle" font-size="12" fill="#4b5563">501</text>
    <line x1="670.2" y1="54.0" x2="670.2" y2="542.0" stroke="#eef2f7" stroke-width="1"/>
    <text x="670.2" y="566.0" text-anchor="middle" font-size="12" fill="#4b5563">601</text>
    <line x1="769.9" y1="54.0" x2="769.9" y2="542.0" stroke="#eef2f7" stroke-width="1"/>
    <text x="769.9" y="566.0" text-anchor="middle" font-size="12" fill="#4b5563">701</text>
    <line x1="869.6" y1="54.0" x2="869.6" y2="542.0" stroke="#eef2f7" stroke-width="1"/>
    <text x="869.6" y="566.0" text-anchor="middle" font-size="12" fill="#4b5563">801</text>
    <line x1="969.3" y1="54.0" x2="969.3" y2="542.0" stroke="#eef2f7" stroke-width="1"/>
    <text x="969.3" y="566.0" text-anchor="middle" font-size="12" fill="#4b5563">901</text>
    <line x1="72.0" y1="542.0" x2="1068.0" y2="542.0" stroke="#d8dee9" stroke-width="1" opacity="0.55"/>
    <text x="60.0" y="546.0" text-anchor="end" font-size="12" fill="#4b5563">-535.0</text>
    <line x1="72.0" y1="444.4" x2="1068.0" y2="444.4" stroke="#d8dee9" stroke-width="1" opacity="0.55"/>
    <text x="60.0" y="448.4" text-anchor="end" font-size="12" fill="#4b5563">-360.4</text>
    <line x1="72.0" y1="346.8" x2="1068.0" y2="346.8" stroke="#d8dee9" stroke-width="1" opacity="0.55"/>
    <text x="60.0" y="350.8" text-anchor="end" font-size="12" fill="#4b5563">-185.8</text>
    <line x1="72.0" y1="249.2" x2="1068.0" y2="249.2" stroke="#d8dee9" stroke-width="1" opacity="0.55"/>
    <text x="60.0" y="253.2" text-anchor="end" font-size="12" fill="#4b5563">-11.2</text>
    <line x1="72.0" y1="151.6" x2="1068.0" y2="151.6" stroke="#d8dee9" stroke-width="1" opacity="0.55"/>
    <text x="60.0" y="155.6" text-anchor="end" font-size="12" fill="#4b5563">163.4</text>
    <line x1="72.0" y1="54.0" x2="1068.0" y2="54.0" stroke="#d8dee9" stroke-width="1" opacity="0.55"/>
    <text x="60.0" y="58.0" text-anchor="end" font-size="12" fill="#4b5563">338.0</text>
    <line x1="72.0" y1="54.0" x2="72.0" y2="542.0" stroke="#111827" stroke-width="1.4"/>
    <line x1="72.0" y1="542.0" x2="1068.0" y2="542.0" stroke="#111827" stroke-width="1.4"/>
    <text x="570.0" y="596.0" text-anchor="middle" font-size="13" fill="#111827">Epoch</text>
    <text x="20" y="298.0" transform="rotate(-90 20 298.0)" text-anchor="middle" font-size="13" fill="#111827">Goals / goal diff</text>
    <polyline fill="none" stroke="#2563eb" stroke-width="2.4" points="72.0,239.7 73.0,239.7 74.0,239.7 75.0,239.8 76.0,239.8 77.0,239.8 78.0,239.8 79.0,239.9 80.0,239.7 81.0,239.7 82.0,239.6 83.0,239.7 84.0,240.1 85.0,242.9 86.0,240.8 87.0,239.5 88.0,239.6 88.9,239.7 89.9,240.6 90.9,239.6 91.9,239.6 92.9,239.6 93.9,239.6 94.9,239.6 95.9,242.0 96.9,239.6 97.9,239.6 98.9,242.5 99.9,239.6 100.9,242.9 101.9,240.1 102.9,239.6 103.9,240.1 104.9,239.9 105.9,239.9 106.9,242.3 107.9,239.6 108.9,242.3 109.9,239.6 110.9,242.9 111.9,239.6 112.9,239.6 113.9,239.7 114.9,240.2 115.9,239.7 116.9,239.8 117.9,239.9 118.9,242.4 119.9,239.6 120.9,239.6 121.8,240.1 122.8,239.8 123.8,240.0 124.8,239.6 125.8,241.9 126.8,242.4 127.8,239.6 128.8,239.6 129.8,239.7 130.8,241.4 131.8,239.7 132.8,239.6 133.8,241.0 134.8,242.5 135.8,239.7 136.8,239.7 137.8,239.6 138.8,239.7 139.8,240.6 140.8,239.6 141.8,239.6 142.8,239.8 143.8,239.7 144.8,240.3 145.8,239.6 146.8,239.6 147.8,242.9 148.8,240.1 149.8,240.0 150.8,239.6 151.8,239.5 152.8,241.5 153.8,242.0 154.8,239.6 155.7,239.7 156.7,239.6 157.7,240.1 158.7,240.2 159.7,239.6 160.7,239.8 161.7,239.6 162.7,239.6 163.7,239.5 164.7,239.6 165.7,242.8 166.7,239.7 167.7,242.5 168.7,239.9 169.7,239.7 170.7,239.8 171.7,239.7 172.7,242.9 173.7,239.8 174.7,240.1 175.7,241.5 176.7,239.7 177.7,239.8 178.7,240.1 179.7,240.3 180.7,242.3 181.7,239.7 182.7,239.8 183.7,239.8 184.7,240.2 185.7,239.7 186.7,239.7 187.7,239.7 188.6,239.7 189.6,239.7 190.6,239.8 191.6,239.7 192.6,239.7 193.6,239.7 194.6,239.7 195.6,239.9 196.6,240.0 197.6,239.8 198.6,239.9 199.6,240.1 200.6,239.9 201.6,239.7 202.6,239.6 203.6,239.9 204.6,239.7 205.6,239.7 206.6,239.9 207.6,239.5 208.6,239.7 209.6,239.7 210.6,239.5 211.6,239.5 212.6,239.6 213.6,239.8 214.6,239.7 215.6,239.7 216.6,239.6 217.6,239.5 218.6,239.8 219.6,240.1 220.6,239.6 221.5,242.9 222.5,242.7 223.5,239.7 224.5,239.7 225.5,239.9 226.5,240.6 227.5,240.0 228.5,242.3 229.5,240.1 230.5,242.4 231.5,240.0 232.5,239.8 233.5,240.2 234.5,240.0 235.5,239.8 236.5,242.3 237.5,239.7 238.5,240.0 239.5,242.4 240.5,239.8 241.5,239.7 242.5,240.9 243.5,239.7 244.5,240.6 245.5,240.3 246.5,239.7 247.5,239.7 248.5,239.7 249.5,239.8 250.5,239.7 251.5,239.7 252.5,239.7 253.5,239.7 254.5,239.7 255.4,239.8 256.4,239.7 257.4,239.8 258.4,242.4 259.4,240.1 260.4,239.8 261.4,240.4 262.4,242.3 263.4,239.7 264.4,239.9 265.4,239.9 266.4,239.8 267.4,239.9 268.4,239.7 269.4,239.7 270.4,239.7 271.4,240.0 272.4,242.8 273.4,239.6 274.4,239.7 275.4,239.8 276.4,239.7 277.4,240.2 278.4,239.7 279.4,239.8 280.4,241.2 281.4,240.1 282.4,239.9 283.4,239.7 284.4,239.6 285.4,239.8 286.4,239.7 287.4,239.6 288.3,239.7 289.3,239.7 290.3,239.9 291.3,242.5 292.3,242.1 293.3,240.0 294.3,239.6 295.3,239.9 296.3,239.7 297.3,242.2 298.3,239.8 299.3,239.8 300.3,239.6 301.3,239.8 302.3,242.9 303.3,239.7 304.3,240.7 305.3,239.6 306.3,242.4 307.3,239.8 308.3,242.9 309.3,239.6 310.3,239.6 311.3,240.2 312.3,242.6 313.3,239.8 314.3,239.6 315.3,239.6 316.3,242.9 317.3,240.0 318.3,241.8 319.3,239.6 320.3,239.6 321.2,242.4 322.2,239.6 323.2,240.3 324.2,239.6 325.2,239.6 326.2,239.6 327.2,239.7 328.2,240.2 329.2,239.7 330.2,240.8 331.2,241.3 332.2,239.6 333.2,239.5 334.2,241.1 335.2,239.6 336.2,239.7 337.2,241.7 338.2,239.7 339.2,239.6 340.2,239.8 341.2,241.4 342.2,239.6 343.2,239.6 344.2,239.7 345.2,239.7 346.2,239.8 347.2,240.0 348.2,240.0 349.2,240.0 350.2,240.7 351.2,240.0 352.2,240.2 353.2,240.1 354.2,240.0 355.1,240.1 356.1,239.9 357.1,240.2 358.1,240.1 359.1,239.9 360.1,240.0 361.1,239.9 362.1,240.3 363.1,242.9 364.1,239.7 365.1,239.7 366.1,239.6 367.1,239.6 368.1,239.8 369.1,239.6 370.1,239.6 371.1,241.7 372.1,239.6 373.1,240.4 374.1,239.8 375.1,239.7 376.1,239.7 377.1,239.6 378.1,239.7 379.1,240.7 380.1,239.8 381.1,240.2 382.1,240.7 383.1,239.8 384.1,240.1 385.1,239.9 386.1,240.0 387.1,239.8 388.0,240.0 389.0,239.8 390.0,239.8 391.0,239.9 392.0,239.8 393.0,239.8 394.0,239.8 395.0,239.8 396.0,242.2 397.0,242.3 398.0,239.7 399.0,240.1 400.0,239.7 401.0,239.7 402.0,239.7 403.0,239.9 404.0,239.9 405.0,241.6 406.0,239.7 407.0,240.2 408.0,240.3 409.0,239.7 410.0,239.7 411.0,240.0 412.0,239.9 413.0,239.7 414.0,240.1 415.0,239.8 416.0,242.1 417.0,239.7 418.0,240.0 419.0,242.4 420.0,239.7 420.9,241.5 421.9,240.1 422.9,240.6 423.9,239.7 424.9,239.8 425.9,240.0 426.9,240.9 427.9,239.8 428.9,239.8 429.9,239.9 430.9,239.7 431.9,239.9 432.9,239.9 433.9,240.8 434.9,239.7 435.9,242.6 436.9,240.6 437.9,239.8 438.9,242.2 439.9,241.1 440.9,239.9 441.9,242.9 442.9,242.4 443.9,242.6 444.9,239.9 445.9,242.0 446.9,241.6 447.9,242.9 448.9,239.8 449.9,239.9 450.9,239.9 451.9,240.1 452.9,240.4 453.8,239.8 454.8,240.6 455.8,239.9 456.8,239.9 457.8,239.9 458.8,239.8 459.8,240.1 460.8,240.2 461.8,239.8 462.8,239.8 463.8,240.0 464.8,239.8 465.8,239.9 466.8,239.9 467.8,239.9 468.8,240.0 469.8,242.2 470.8,239.8 471.8,239.9 472.8,240.1 473.8,239.9 474.8,239.8 475.8,241.8 476.8,239.9 477.8,240.8 478.8,242.1 479.8,239.9 480.8,239.9 481.8,239.9 482.8,242.9 483.8,240.0 484.8,241.7 485.8,240.0 486.8,240.1 487.7,242.3 488.7,240.0 489.7,240.1 490.7,240.2 491.7,240.3 492.7,240.2 493.7,240.1 494.7,240.4 495.7,240.4 496.7,240.1 497.7,240.0 498.7,240.3 499.7,240.3 500.7,240.6 501.7,240.0 502.7,240.4 503.7,240.3 504.7,240.1 505.7,240.5 506.7,242.4 507.7,240.3 508.7,239.9 509.7,240.0 510.7,240.1 511.7,239.9 512.7,239.9 513.7,239.8 514.7,240.1 515.7,239.9 516.7,240.2 517.7,239.8 518.7,239.8 519.7,240.2 520.6,241.0 521.6,239.8 522.6,239.8 523.6,239.8 524.6,240.0 525.6,239.8 526.6,241.7 527.6,239.9 528.6,239.8 529.6,239.8 530.6,239.9 531.6,239.9 532.6,239.9 533.6,239.8 534.6,242.8 535.6,239.8 536.6,240.0 537.6,239.8 538.6,239.8 539.6,239.8 540.6,239.8 541.6,239.7 542.6,239.7 543.6,239.9 544.6,239.7 545.6,241.7 546.6,240.2 547.6,239.8 548.6,242.9 549.6,240.0 550.6,239.8 551.6,239.8 552.6,239.7 553.5,239.8 554.5,239.7 555.5,239.8 556.5,239.8 557.5,239.7 558.5,239.8 559.5,239.7 560.5,239.6 561.5,242.9 562.5,239.8 563.5,239.6 564.5,240.5 565.5,240.0 566.5,242.9 567.5,240.9 568.5,241.5 569.5,239.7 570.5,239.7 571.5,242.9 572.5,240.3 573.5,240.4 574.5,239.8 575.5,239.8 576.5,239.7 577.5,239.7 578.5,240.3 579.5,239.7 580.5,239.7 581.5,239.7 582.5,239.8 583.5,240.1 584.5,239.7 585.5,240.1 586.5,240.2 587.4,239.9 588.4,242.2 589.4,240.0 590.4,240.3 591.4,240.3 592.4,242.4 593.4,242.2 594.4,240.2 595.4,240.2 596.4,240.0 597.4,240.1 598.4,242.5 599.4,239.9 600.4,240.5 601.4,239.8 602.4,239.7 603.4,239.7 604.4,239.7 605.4,240.1 606.4,239.7 607.4,242.5 608.4,239.8 609.4,239.8 610.4,239.7 611.4,239.7 612.4,239.7 613.4,239.7 614.4,240.0 615.4,239.6 616.4,240.3 617.4,239.7 618.4,239.6 619.4,239.7 620.3,239.8 621.3,239.7 622.3,240.8 623.3,242.9 624.3,239.6 625.3,239.7 626.3,239.6 627.3,239.7 628.3,242.5 629.3,240.2 630.3,239.9 631.3,239.9 632.3,239.9 633.3,239.8 634.3,239.9 635.3,240.1 636.3,240.0 637.3,240.3 638.3,239.9 639.3,242.9 640.3,240.7 641.3,240.4 642.3,240.3 643.3,242.9 644.3,240.1 645.3,239.9 646.3,240.1 647.3,242.9 648.3,239.8 649.3,239.6 650.3,242.5 651.3,239.6 652.3,239.6 653.2,239.9 654.2,239.6 655.2,239.6 656.2,240.5 657.2,239.6 658.2,239.6 659.2,239.7 660.2,239.8 661.2,240.4 662.2,240.9 663.2,242.5 664.2,242.5 665.2,240.4 666.2,239.6 667.2,239.7 668.2,239.7 669.2,239.6 670.2,239.9 671.2,239.6 672.2,239.6 673.2,241.2 674.2,240.7 675.2,239.7 676.2,242.9 677.2,239.8 678.2,239.5 679.2,240.2 680.2,239.5 681.2,239.6 682.2,239.8 683.2,239.6 684.2,239.7 685.2,242.4 686.2,239.6 687.1,239.6 688.1,239.8 689.1,240.3 690.1,240.5 691.1,239.6 692.1,242.4 693.1,239.7 694.1,239.8 695.1,239.7 696.1,239.7 697.1,239.8 698.1,239.6 699.1,241.9 700.1,239.6 701.1,239.9 702.1,239.8 703.1,239.7 704.1,239.6 705.1,242.9 706.1,239.8 707.1,239.6 708.1,239.8 709.1,241.6 710.1,239.5 711.1,239.8 712.1,240.4 713.1,239.5 714.1,242.2 715.1,239.6 716.1,239.5 717.1,239.6 718.1,240.0 719.1,242.9 720.0,241.4 721.0,239.5 722.0,239.5 723.0,242.5 724.0,239.5 725.0,239.5 726.0,239.5 727.0,239.8 728.0,239.6 729.0,239.7 730.0,242.1 731.0,240.7 732.0,239.6 733.0,241.7 734.0,240.5 735.0,240.2 736.0,239.6 737.0,239.6 738.0,239.7 739.0,239.6 740.0,239.5 741.0,239.7 742.0,239.6 743.0,239.7 744.0,240.4 745.0,239.8 746.0,239.6 747.0,239.6 748.0,242.4 749.0,239.9 750.0,239.7 751.0,240.1 752.0,239.7 752.9,239.5 753.9,241.0 754.9,240.1 755.9,239.7 756.9,239.7 757.9,239.8 758.9,239.6 759.9,239.6 760.9,239.6 761.9,239.8 762.9,239.6 763.9,239.6 764.9,239.7 765.9,240.5 766.9,240.0 767.9,239.8 768.9,240.6 769.9,239.9 770.9,240.2 771.9,239.7 772.9,239.9 773.9,239.8 774.9,240.2 775.9,239.9 776.9,240.7 777.9,239.8 778.9,240.3 779.9,240.2 780.9,240.1 781.9,240.3 782.9,239.9 783.9,242.9 784.9,239.8 785.8,240.6 786.8,239.8 787.8,240.0 788.8,242.9 789.8,239.7 790.8,239.8 791.8,239.8 792.8,239.8 793.8,239.7 794.8,240.1 795.8,241.8 796.8,242.6 797.8,239.8 798.8,239.7 799.8,239.6 800.8,239.6 801.8,239.7 802.8,239.7 803.8,240.6 804.8,239.7 805.8,241.6 806.8,239.6 807.8,239.6 808.8,239.6 809.8,239.8 810.8,239.7 811.8,239.8 812.8,239.6 813.8,242.4 814.8,239.7 815.8,241.5 816.8,239.9 817.8,239.6 818.8,239.5 819.7,239.6 820.7,239.8 821.7,239.5 822.7,239.5 823.7,239.5 824.7,241.3 825.7,239.6 826.7,242.4 827.7,239.9 828.7,239.7 829.7,239.6 830.7,241.0 831.7,240.1 832.7,239.6 833.7,239.6 834.7,239.6 835.7,240.8 836.7,239.9 837.7,240.2 838.7,242.3 839.7,239.8 840.7,239.6 841.7,239.6 842.7,239.7 843.7,239.7 844.7,242.4 845.7,239.6 846.7,239.9 847.7,242.3 848.7,239.9 849.7,239.7 850.7,242.3 851.7,239.8 852.6,239.8 853.6,239.8 854.6,239.8 855.6,239.9 856.6,239.8 857.6,240.1 858.6,242.5 859.6,239.8 860.6,240.1 861.6,239.8 862.6,242.0 863.6,239.8 864.6,242.5 865.6,239.6 866.6,242.5 867.6,240.0 868.6,239.5 869.6,239.6 870.6,239.6 871.6,241.1 872.6,239.5 873.6,239.5 874.6,239.6 875.6,239.5 876.6,239.9 877.6,239.6 878.6,239.5 879.6,239.5 880.6,239.5 881.6,239.8 882.6,239.6 883.6,239.6 884.6,239.5 885.5,239.5 886.5,239.6 887.5,239.6 888.5,239.7 889.5,239.7 890.5,239.5 891.5,239.4 892.5,239.8 893.5,239.6 894.5,239.7 895.5,239.6 896.5,240.4 897.5,239.5 898.5,239.5 899.5,239.5 900.5,239.5 901.5,239.5 902.5,239.6 903.5,241.5 904.5,240.4 905.5,239.7 906.5,239.7 907.5,239.7 908.5,239.8 909.5,239.7 910.5,239.7 911.5,241.6 912.5,239.7 913.5,239.7 914.5,239.6 915.5,239.7 916.5,241.6 917.5,239.6 918.5,240.0 919.4,242.7 920.4,242.3 921.4,239.8 922.4,239.6 923.4,240.0 924.4,239.6 925.4,239.8 926.4,239.6 927.4,239.6 928.4,241.6 929.4,239.9 930.4,239.7 931.4,239.7 932.4,239.7 933.4,239.6 934.4,241.0 935.4,240.0 936.4,239.6 937.4,239.6 938.4,239.7 939.4,239.6 940.4,239.5 941.4,239.9 942.4,240.1 943.4,239.6 944.4,239.6 945.4,242.5 946.4,239.5 947.4,239.7 948.4,239.6 949.4,242.4 950.4,241.0 951.4,239.6 952.3,240.0 953.3,239.6 954.3,239.6 955.3,239.5 956.3,240.0 957.3,239.9 958.3,240.0 959.3,239.6 960.3,239.6 961.3,240.6 962.3,239.6 963.3,239.9 964.3,239.5 965.3,239.9 966.3,239.6 967.3,239.6 968.3,239.5 969.3,240.2 970.3,239.6 971.3,242.8 972.3,240.5 973.3,239.7 974.3,239.5 975.3,239.7 976.3,242.8 977.3,239.5 978.3,239.6 979.3,239.7 980.3,242.9 981.3,239.5 982.3,242.9 983.3,240.1 984.3,239.7 985.2,241.8 986.2,239.8 987.2,242.5 988.2,239.6 989.2,239.7 990.2,239.6 991.2,239.6 992.2,239.7 993.2,240.0 994.2,239.6 995.2,239.7 996.2,242.6 997.2,240.1 998.2,240.5 999.2,241.5 1000.2,239.6 1001.2,239.6 1002.2,239.6 1003.2,239.8 1004.2,241.7 1005.2,239.6 1006.2,240.6 1007.2,239.7 1008.2,239.6 1009.2,239.7 1010.2,240.1 1011.2,241.6 1012.2,239.6 1013.2,240.3 1014.2,239.9 1015.2,239.8 1016.2,240.7 1017.2,239.7 1018.2,242.8 1019.1,239.6 1020.1,239.8 1021.1,239.6 1022.1,239.5 1023.1,239.5 1024.1,239.6 1025.1,239.6 1026.1,240.0 1027.1,239.5 1028.1,239.6 1029.1,239.6 1030.1,239.6 1031.1,239.6 1032.1,239.6 1033.1,242.5 1034.1,239.5 1035.1,242.4 1036.1,239.6 1037.1,239.8 1038.1,240.1 1039.1,239.7 1040.1,239.6 1041.1,239.6 1042.1,239.6 1043.1,239.8 1044.1,239.6 1045.1,239.7 1046.1,242.9 1047.1,239.9 1048.1,240.0 1049.1,241.4 1050.1,239.8 1051.1,239.7 1052.0,239.7 1053.0,239.8 1054.0,242.8 1055.0,239.7 1056.0,241.3 1057.0,239.7 1058.0,239.6 1059.0,242.9 1060.0,241.4 1061.0,239.6 1062.0,239.6 1063.0,240.4 1064.0,239.6 1065.0,239.7 1066.0,239.6 1067.0,242.9 1068.0,239.8"/>
    <polyline fill="none" stroke="#ef4444" stroke-width="2.4" points="72.0,239.7 73.0,239.6 74.0,239.7 75.0,239.7 76.0,239.7 77.0,239.8 78.0,239.7 79.0,239.8 80.0,239.7 81.0,239.7 82.0,239.7 83.0,239.5 84.0,239.7 85.0,242.0 86.0,240.0 87.0,239.7 88.0,239.6 88.9,239.6 89.9,240.1 90.9,239.6 91.9,239.6 92.9,239.6 93.9,239.6 94.9,239.6 95.9,240.9 96.9,239.6 97.9,239.6 98.9,241.7 99.9,239.6 100.9,241.9 101.9,239.8 102.9,239.6 103.9,239.7 104.9,239.7 105.9,239.6 106.9,241.2 107.9,239.6 108.9,241.2 109.9,239.6 110.9,242.0 111.9,239.5 112.9,239.6 113.9,239.5 114.9,239.8 115.9,239.7 116.9,239.7 117.9,239.8 118.9,241.4 119.9,239.6 120.9,239.6 121.8,239.8 122.8,239.7 123.8,239.8 124.8,239.6 125.8,241.1 126.8,241.2 127.8,239.6 128.8,239.6 129.8,239.5 130.8,240.4 131.8,239.5 132.8,239.6 133.8,240.4 134.8,241.4 135.8,239.5 136.8,239.6 137.8,239.5 138.8,239.6 139.8,240.0 140.8,239.6 141.8,239.5 142.8,239.8 143.8,239.6 144.8,240.0 145.8,239.6 146.8,239.6 147.8,241.8 148.8,239.8 149.8,239.8 150.8,239.6 151.8,239.6 152.8,240.3 153.8,240.9 154.8,239.6 155.7,239.5 156.7,239.6 157.7,239.8 158.7,239.8 159.7,239.5 160.7,239.4 161.7,239.6 162.7,239.5 163.7,239.6 164.7,239.6 165.7,241.7 166.7,239.7 167.7,241.6 168.7,239.8 169.7,239.8 170.7,239.7 171.7,239.7 172.7,241.6 173.7,239.7 174.7,239.8 175.7,240.6 176.7,239.7 177.7,239.8 178.7,239.8 179.7,239.9 180.7,241.2 181.7,239.7 182.7,239.8 183.7,239.7 184.7,239.9 185.7,239.8 186.7,239.8 187.7,239.7 188.6,239.8 189.6,239.8 190.6,239.7 191.6,239.8 192.6,239.8 193.6,239.7 194.6,239.6 195.6,239.8 196.6,239.9 197.6,239.8 198.6,239.9 199.6,240.0 200.6,239.8 201.6,239.8 202.6,239.6 203.6,239.8 204.6,239.7 205.6,239.6 206.6,239.7 207.6,239.6 208.6,239.6 209.6,239.6 210.6,239.6 211.6,239.5 212.6,239.4 213.6,239.7 214.6,239.5 215.6,239.6 216.6,239.5 217.6,239.6 218.6,239.6 219.6,239.9 220.6,239.6 221.5,241.8 222.5,241.3 223.5,239.7 224.5,239.8 225.5,239.8 226.5,240.1 227.5,240.0 228.5,241.5 229.5,240.1 230.5,241.6 231.5,239.9 232.5,239.8 233.5,240.0 234.5,239.9 235.5,239.8 236.5,241.4 237.5,239.8 238.5,239.9 239.5,241.4 240.5,239.7 241.5,239.7 242.5,240.0 243.5,239.7 244.5,240.0 245.5,240.0 246.5,239.7 247.5,239.7 248.5,239.7 249.5,239.6 250.5,239.7 251.5,239.7 252.5,239.6 253.5,239.8 254.5,239.8 255.4,239.7 256.4,239.8 257.4,239.8 258.4,241.3 259.4,240.0 260.4,239.9 261.4,240.1 262.4,241.5 263.4,239.8 264.4,239.7 265.4,239.6 266.4,239.6 267.4,239.9 268.4,239.8 269.4,239.8 270.4,239.8 271.4,239.8 272.4,241.1 273.4,239.7 274.4,239.6 275.4,239.8 276.4,239.6 277.4,239.9 278.4,239.7 279.4,239.6 280.4,240.5 281.4,239.8 282.4,239.6 283.4,239.7 284.4,239.7 285.4,239.6 286.4,239.7 287.4,239.7 288.3,239.5 289.3,239.6 290.3,239.8 291.3,241.3 292.3,241.0 293.3,239.8 294.3,239.7 295.3,239.5 296.3,239.6 297.3,241.3 298.3,239.7 299.3,239.7 300.3,239.7 301.3,239.7 302.3,241.8 303.3,239.6 304.3,240.1 305.3,239.7 306.3,241.2 307.3,239.6 308.3,241.9 309.3,239.6 310.3,239.6 311.3,239.8 312.3,241.5 313.3,239.6 314.3,239.6 315.3,239.6 316.3,242.0 317.3,239.9 318.3,240.9 319.3,239.6 320.3,239.6 321.2,241.3 322.2,239.6 323.2,239.7 324.2,239.6 325.2,239.6 326.2,239.6 327.2,239.6 328.2,239.8 329.2,239.6 330.2,240.3 331.2,240.6 332.2,239.7 333.2,239.6 334.2,240.6 335.2,239.6 336.2,239.7 337.2,241.1 338.2,239.7 339.2,239.7 340.2,239.7 341.2,240.6 342.2,239.7 343.2,239.7 344.2,239.6 345.2,239.7 346.2,239.9 347.2,239.9 348.2,240.0 349.2,240.0 350.2,240.1 351.2,240.0 352.2,240.1 353.2,240.0 354.2,240.0 355.1,240.0 356.1,240.0 357.1,240.1 358.1,239.9 359.1,239.9 360.1,239.9 361.1,239.9 362.1,239.9 363.1,241.7 364.1,239.8 365.1,239.6 366.1,239.6 367.1,239.6 368.1,239.6 369.1,239.6 370.1,239.6 371.1,240.8 372.1,239.6 373.1,240.1 374.1,239.7 375.1,239.6 376.1,239.7 377.1,239.7 378.1,239.8 379.1,240.2 380.1,239.8 381.1,239.8 382.1,240.4 383.1,239.7 384.1,239.9 385.1,239.8 386.1,239.8 387.1,239.7 388.0,239.9 389.0,239.7 390.0,239.7 391.0,239.8 392.0,239.7 393.0,239.8 394.0,239.8 395.0,239.8 396.0,241.7 397.0,241.2 398.0,239.8 399.0,239.9 400.0,239.7 401.0,239.7 402.0,239.7 403.0,239.8 404.0,239.8 405.0,240.6 406.0,239.8 407.0,239.4 408.0,239.9 409.0,239.7 410.0,239.7 411.0,239.8 412.0,239.8 413.0,239.7 414.0,239.6 415.0,239.6 416.0,240.8 417.0,239.7 418.0,239.8 419.0,241.5 420.0,239.7 420.9,240.4 421.9,239.9 422.9,240.2 423.9,239.8 424.9,239.7 425.9,239.8 426.9,240.1 427.9,239.8 428.9,239.8 429.9,239.8 430.9,239.8 431.9,239.8 432.9,239.7 433.9,240.1 434.9,239.7 435.9,241.4 436.9,240.1 437.9,239.7 438.9,241.1 439.9,240.2 440.9,239.9 441.9,241.1 442.9,241.2 443.9,241.4 444.9,239.9 445.9,241.1 446.9,240.6 447.9,242.2 448.9,239.7 449.9,239.8 450.9,239.5 451.9,240.0 452.9,240.0 453.8,239.7 454.8,240.2 455.8,239.7 456.8,239.7 457.8,239.7 458.8,239.7 459.8,240.0 460.8,239.8 461.8,239.8 462.8,239.8 463.8,239.9 464.8,239.8 465.8,239.8 466.8,239.8 467.8,239.8 468.8,239.8 469.8,241.4 470.8,239.8 471.8,239.8 472.8,240.0 473.8,239.8 474.8,239.8 475.8,240.8 476.8,239.8 477.8,240.3 478.8,241.3 479.8,239.9 480.8,239.9 481.8,239.9 482.8,242.2 483.8,240.0 484.8,240.8 485.8,240.0 486.8,240.0 487.7,241.4 488.7,240.0 489.7,240.1 490.7,239.9 491.7,240.2 492.7,240.1 493.7,240.0 494.7,240.2 495.7,240.2 496.7,240.0 497.7,240.0 498.7,240.0 499.7,240.2 500.7,240.2 501.7,240.0 502.7,240.1 503.7,240.1 504.7,240.1 505.7,240.2 506.7,241.8 507.7,240.1 508.7,240.0 509.7,239.8 510.7,239.9 511.7,239.9 512.7,239.9 513.7,239.8 514.7,240.0 515.7,239.8 516.7,240.0 517.7,239.8 518.7,239.8 519.7,239.8 520.6,240.3 521.6,239.9 522.6,239.8 523.6,239.9 524.6,240.0 525.6,239.8 526.6,240.6 527.6,239.9 528.6,239.8 529.6,239.9 530.6,239.8 531.6,239.9 532.6,239.9 533.6,239.9 534.6,241.2 535.6,239.8 536.6,239.9 537.6,239.8 538.6,239.7 539.6,239.9 540.6,239.8 541.6,239.8 542.6,239.8 543.6,239.6 544.6,239.7 545.6,240.8 546.6,239.9 547.6,239.7 548.6,241.8 549.6,239.8 550.6,239.7 551.6,239.7 552.6,239.7 553.5,239.6 554.5,239.7 555.5,239.7 556.5,239.7 557.5,239.7 558.5,239.6 559.5,239.7 560.5,239.7 561.5,241.9 562.5,239.7 563.5,239.7 564.5,239.8 565.5,239.7 566.5,241.9 567.5,240.3 568.5,240.7 569.5,239.7 570.5,239.6 571.5,241.9 572.5,239.9 573.5,240.0 574.5,239.7 575.5,239.6 576.5,239.7 577.5,239.7 578.5,239.7 579.5,239.7 580.5,239.7 581.5,239.7 582.5,239.7 583.5,239.9 584.5,239.8 585.5,239.9 586.5,240.0 587.4,239.9 588.4,241.4 589.4,240.0 590.4,240.1 591.4,240.2 592.4,241.7 593.4,241.3 594.4,240.0 595.4,240.0 596.4,240.0 597.4,240.0 598.4,241.7 599.4,239.9 600.4,240.0 601.4,239.7 602.4,239.7 603.4,239.7 604.4,239.8 605.4,239.9 606.4,239.7 607.4,241.6 608.4,239.8 609.4,239.7 610.4,239.7 611.4,239.7 612.4,239.7 613.4,239.7 614.4,239.9 615.4,239.7 616.4,239.9 617.4,239.7 618.4,239.7 619.4,239.6 620.3,239.7 621.3,239.6 622.3,240.2 623.3,242.1 624.3,239.6 625.3,239.6 626.3,239.7 627.3,239.8 628.3,241.5 629.3,240.0 630.3,239.9 631.3,239.9 632.3,239.8 633.3,239.8 634.3,239.9 635.3,240.0 636.3,239.9 637.3,240.1 638.3,240.0 639.3,241.7 640.3,240.2 641.3,240.1 642.3,240.1 643.3,241.8 644.3,239.9 645.3,239.9 646.3,240.0 647.3,242.0 648.3,239.9 649.3,239.7 650.3,241.6 651.3,239.6 652.3,239.6 653.2,239.7 654.2,239.5 655.2,239.5 656.2,239.9 657.2,239.5 658.2,239.6 659.2,239.6 660.2,239.7 661.2,239.9 662.2,240.3 663.2,241.7 664.2,241.6 665.2,240.0 666.2,239.7 667.2,239.6 668.2,239.6 669.2,239.6 670.2,239.7 671.2,239.6 672.2,239.5 673.2,240.6 674.2,240.1 675.2,239.4 676.2,241.7 677.2,239.4 678.2,239.6 679.2,239.8 680.2,239.6 681.2,239.6 682.2,239.7 683.2,239.6 684.2,239.7 685.2,241.1 686.2,239.6 687.1,239.6 688.1,239.7 689.1,239.9 690.1,240.2 691.1,239.6 692.1,241.7 693.1,239.6 694.1,239.7 695.1,239.6 696.1,239.7 697.1,239.6 698.1,239.5 699.1,241.3 700.1,239.6 701.1,239.8 702.1,239.7 703.1,239.7 704.1,239.6 705.1,241.8 706.1,239.6 707.1,239.6 708.1,239.6 709.1,240.9 710.1,239.6 711.1,239.4 712.1,239.7 713.1,239.5 714.1,241.1 715.1,239.5 716.1,239.5 717.1,239.4 718.1,239.7 719.1,240.9 720.0,240.8 721.0,239.6 722.0,239.6 723.0,241.6 724.0,239.5 725.0,239.5 726.0,239.5 727.0,239.6 728.0,239.5 729.0,239.6 730.0,241.0 731.0,240.0 732.0,239.6 733.0,241.1 734.0,240.1 735.0,239.6 736.0,239.5 737.0,239.6 738.0,239.5 739.0,239.6 740.0,239.6 741.0,239.7 742.0,239.6 743.0,239.5 744.0,239.9 745.0,239.6 746.0,239.6 747.0,239.5 748.0,241.1 749.0,239.6 750.0,239.4 751.0,239.8 752.0,239.4 752.9,239.7 753.9,240.3 754.9,239.8 755.9,239.6 756.9,239.6 757.9,239.6 758.9,239.6 759.9,239.6 760.9,239.6 761.9,239.7 762.9,239.6 763.9,239.6 764.9,239.7 765.9,240.1 766.9,239.9 767.9,239.8 768.9,240.3 769.9,239.9 770.9,240.0 771.9,239.8 772.9,239.8 773.9,239.7 774.9,240.0 775.9,239.8 776.9,240.0 777.9,239.8 778.9,239.9 779.9,240.0 780.9,239.9 781.9,239.9 782.9,239.8 783.9,242.0 784.9,239.8 785.8,240.2 786.8,239.7 787.8,239.9 788.8,242.2 789.8,239.7 790.8,239.8 791.8,239.7 792.8,239.7 793.8,239.8 794.8,240.0 795.8,241.1 796.8,241.8 797.8,239.8 798.8,239.7 799.8,239.6 800.8,239.6 801.8,239.6 802.8,239.7 803.8,240.2 804.8,239.7 805.8,241.0 806.8,239.6 807.8,239.6 808.8,239.6 809.8,239.6 810.8,239.5 811.8,239.7 812.8,239.6 813.8,241.2 814.8,239.6 815.8,240.7 816.8,239.7 817.8,239.6 818.8,239.6 819.7,239.5 820.7,239.6 821.7,239.5 822.7,239.5 823.7,239.5 824.7,240.3 825.7,239.5 826.7,241.2 827.7,239.3 828.7,239.5 829.7,239.5 830.7,240.3 831.7,239.8 832.7,239.5 833.7,239.5 834.7,239.5 835.7,240.2 836.7,239.7 837.7,239.8 838.7,241.2 839.7,239.6 840.7,239.5 841.7,239.5 842.7,239.4 843.7,239.7 844.7,241.3 845.7,239.6 846.7,239.7 847.7,241.2 848.7,239.8 849.7,239.7 850.7,241.5 851.7,239.7 852.6,239.7 853.6,239.8 854.6,239.7 855.6,239.8 856.6,239.8 857.6,239.8 858.6,241.4 859.6,239.8 860.6,239.8 861.6,239.8 862.6,241.2 863.6,239.7 864.6,241.7 865.6,239.8 866.6,241.2 867.6,239.8 868.6,239.6 869.6,239.5 870.6,239.6 871.6,240.6 872.6,239.5 873.6,239.5 874.6,239.4 875.6,239.5 876.6,239.7 877.6,239.6 878.6,239.5 879.6,239.5 880.6,239.5 881.6,239.7 882.6,239.4 883.6,239.5 884.6,239.5 885.5,239.5 886.5,239.5 887.5,239.5 888.5,239.3 889.5,239.6 890.5,239.5 891.5,239.6 892.5,239.7 893.5,239.5 894.5,239.6 895.5,239.4 896.5,239.7 897.5,239.6 898.5,239.5 899.5,239.5 900.5,239.6 901.5,239.5 902.5,239.6 903.5,240.9 904.5,239.8 905.5,239.7 906.5,239.7 907.5,239.6 908.5,239.8 909.5,239.7 910.5,239.6 911.5,240.9 912.5,239.7 913.5,239.7 914.5,239.6 915.5,239.6 916.5,240.4 917.5,239.6 918.5,239.7 919.4,241.8 920.4,241.3 921.4,239.7 922.4,239.6 923.4,239.7 924.4,239.6 925.4,239.7 926.4,239.5 927.4,239.6 928.4,240.9 929.4,239.7 930.4,239.6 931.4,239.6 932.4,239.7 933.4,239.5 934.4,240.2 935.4,239.7 936.4,239.6 937.4,239.6 938.4,239.6 939.4,239.6 940.4,239.6 941.4,239.7 942.4,239.8 943.4,239.6 944.4,239.5 945.4,241.6 946.4,239.5 947.4,239.6 948.4,239.6 949.4,241.5 950.4,240.6 951.4,239.6 952.3,239.8 953.3,239.6 954.3,239.5 955.3,239.6 956.3,239.8 957.3,239.5 958.3,239.8 959.3,239.5 960.3,239.5 961.3,239.9 962.3,239.5 963.3,239.7 964.3,239.6 965.3,239.6 966.3,239.5 967.3,239.5 968.3,239.5 969.3,239.9 970.3,239.5 971.3,241.9 972.3,240.0 973.3,239.6 974.3,239.5 975.3,239.6 976.3,239.8 977.3,239.6 978.3,239.5 979.3,239.7 980.3,241.8 981.3,239.5 982.3,241.8 983.3,239.8 984.3,239.7 985.2,240.9 986.2,239.6 987.2,241.5 988.2,239.5 989.2,239.4 990.2,239.6 991.2,239.5 992.2,239.6 993.2,239.7 994.2,239.5 995.2,239.6 996.2,241.6 997.2,239.7 998.2,239.9 999.2,241.0 1000.2,239.5 1001.2,239.5 1002.2,239.6 1003.2,239.6 1004.2,240.7 1005.2,239.6 1006.2,240.0 1007.2,239.6 1008.2,239.7 1009.2,239.6 1010.2,239.9 1011.2,240.7 1012.2,239.7 1013.2,239.8 1014.2,239.8 1015.2,239.7 1016.2,240.0 1017.2,239.6 1018.2,241.0 1019.1,239.6 1020.1,239.8 1021.1,239.6 1022.1,239.6 1023.1,239.6 1024.1,239.5 1025.1,239.5 1026.1,239.7 1027.1,239.6 1028.1,239.5 1029.1,239.5 1030.1,239.5 1031.1,239.6 1032.1,239.6 1033.1,241.5 1034.1,239.6 1035.1,241.6 1036.1,239.6 1037.1,239.6 1038.1,239.5 1039.1,239.6 1040.1,239.6 1041.1,239.5 1042.1,239.6 1043.1,239.6 1044.1,239.6 1045.1,239.7 1046.1,241.9 1047.1,239.8 1048.1,239.8 1049.1,240.8 1050.1,239.8 1051.1,239.8 1052.0,239.8 1053.0,239.7 1054.0,241.1 1055.0,239.7 1056.0,240.6 1057.0,239.7 1058.0,239.7 1059.0,241.7 1060.0,240.6 1061.0,239.6 1062.0,239.6 1063.0,239.9 1064.0,239.6 1065.0,239.6 1066.0,239.6 1067.0,241.6 1068.0,239.7"/>
    <polyline fill="none" stroke="#7c3aed" stroke-width="2" stroke-dasharray="6 5" points="72.0,253.6 73.0,291.6 74.0,233.4 75.0,278.7 76.0,311.7 77.0,301.1 78.0,341.9 79.0,392.7 80.0,267.0 81.0,225.6 82.0,201.6 83.0,387.7 84.0,407.3 85.0,338.5 86.0,338.0 87.0,132.8 88.0,242.4 88.9,272.0 89.9,345.2 90.9,265.3 91.9,248.5 92.9,273.7 93.9,281.5 94.9,211.1 95.9,357.5 96.9,270.9 97.9,186.5 98.9,319.5 99.9,224.5 100.9,345.2 101.9,464.9 102.9,248.0 103.9,428.5 104.9,455.4 105.9,495.6 106.9,355.9 107.9,164.7 108.9,347.5 109.9,257.5 110.9,337.4 111.9,341.9 112.9,265.9 113.9,414.0 114.9,463.2 115.9,304.4 116.9,403.4 117.9,412.9 118.9,340.8 119.9,280.4 120.9,191.0 121.8,420.7 122.8,305.0 123.8,391.1 124.8,220.0 125.8,325.7 126.8,356.4 127.8,160.8 128.8,208.3 129.8,402.3 130.8,339.1 131.8,358.7 132.8,282.6 133.8,335.2 134.8,352.5 135.8,391.1 136.8,345.2 137.8,273.1 138.8,301.1 139.8,344.7 140.8,321.8 141.8,340.2 142.8,289.3 143.8,326.2 144.8,432.4 145.8,229.5 146.8,237.3 147.8,350.8 148.8,420.7 149.8,420.7 150.8,241.8 151.8,180.3 152.8,365.4 153.8,348.6 154.8,267.0 155.7,432.4 156.7,249.6 157.7,448.6 158.7,395.5 159.7,306.1 160.7,478.8 161.7,288.8 162.7,350.8 163.7,236.2 164.7,202.7 165.7,353.1 166.7,188.2 167.7,330.7 168.7,358.7 169.7,187.6 170.7,319.5 171.7,253.0 172.7,378.2 173.7,286.5 174.7,485.0 175.7,329.0 176.7,302.2 177.7,253.0 178.7,482.7 179.7,407.8 180.7,354.2 181.7,264.2 182.7,234.6 183.7,319.5 184.7,435.2 185.7,179.2 186.7,188.2 187.7,213.9 188.6,194.3 189.6,174.2 190.6,282.1 191.6,226.2 192.6,170.8 193.6,245.2 194.6,294.4 195.6,327.9 196.6,357.5 197.6,210.5 198.6,268.1 199.6,349.1 200.6,313.9 201.6,125.6 202.6,239.0 203.6,344.7 204.6,247.4 205.6,337.4 206.6,413.4 207.6,184.8 208.6,349.1 209.6,332.4 210.6,133.4 211.6,251.9 212.6,415.7 213.6,347.5 214.6,383.8 215.6,390.0 216.6,344.1 217.6,214.4 218.6,421.8 219.6,474.9 220.6,238.5 221.5,355.3 222.5,381.0 223.5,246.9 224.5,229.0 225.5,339.1 226.5,352.5 227.5,242.9 228.5,327.9 229.5,314.5 230.5,326.2 231.5,298.8 232.5,254.1 233.5,438.6 234.5,362.6 235.5,329.6 236.5,335.7 237.5,157.4 238.5,353.6 239.5,338.0 240.5,319.5 241.5,237.3 242.5,333.5 243.5,315.6 244.5,308.3 245.5,416.2 246.5,273.7 247.5,256.9 248.5,266.4 249.5,447.0 250.5,197.1 251.5,242.9 252.5,344.7 253.5,200.5 254.5,235.1 255.4,283.2 256.4,151.3 257.4,190.4 258.4,353.1 259.4,369.8 260.4,109.3 261.4,401.7 262.4,331.3 263.4,141.2 264.4,392.2 265.4,464.9 266.4,439.1 267.4,305.0 268.4,211.1 269.4,210.0 270.4,185.9 271.4,431.3 272.4,413.4 273.4,162.4 274.4,363.1 275.4,287.1 276.4,325.1 277.4,440.8 278.4,248.0 279.4,414.5 280.4,312.8 281.4,491.1 282.4,473.2 283.4,226.2 284.4,131.1 285.4,403.4 286.4,211.1 287.4,162.4 288.3,420.1 289.3,312.3 290.3,357.5 291.3,364.2 292.3,360.3 293.3,364.2 294.3,193.7 295.3,455.9 296.3,313.4 297.3,339.1 298.3,368.7 299.3,269.8 300.3,134.5 301.3,338.5 302.3,356.4 303.3,371.5 304.3,331.3 305.3,185.4 306.3,360.3 307.3,469.3 308.3,348.0 309.3,272.0 310.3,197.1 311.3,410.1 312.3,352.5 313.3,359.2 314.3,204.4 315.3,289.9 316.3,333.5 317.3,382.1 318.3,330.7 319.3,256.4 320.3,193.7 321.2,349.7 322.2,292.1 323.2,363.1 324.2,297.7 325.2,208.8 326.2,201.6 327.2,335.7 328.2,396.1 329.2,336.3 330.2,331.8 331.2,309.5 332.2,144.0 333.2,171.9 334.2,317.8 335.2,226.7 336.2,232.9 337.2,308.9 338.2,316.2 339.2,102.1 340.2,369.3 341.2,326.2 342.2,140.6 343.2,206.0 344.2,316.7 345.2,208.8 346.2,138.4 347.2,307.2 348.2,187.6 349.2,314.5 350.2,338.5 351.2,202.7 352.2,396.1 353.2,311.7 354.2,255.2 355.1,355.3 356.1,161.3 357.1,296.0 358.1,412.3 359.1,241.3 360.1,400.0 361.1,189.3 362.1,395.0 363.1,361.4 364.1,84.2 365.1,317.3 366.1,240.1 367.1,235.7 368.1,353.1 369.1,261.9 370.1,259.2 371.1,332.4 372.1,250.2 373.1,414.0 374.1,325.7 375.1,383.2 376.1,230.1 377.1,128.3 378.1,179.2 379.1,332.4 380.1,281.0 381.1,374.3 382.1,362.0 383.1,290.5 384.1,385.5 385.1,267.5 386.1,448.1 387.1,360.3 388.0,410.1 389.0,367.0 390.0,307.8 391.0,341.3 392.0,299.4 393.0,236.2 394.0,229.0 395.0,213.3 396.0,291.0 397.0,356.4 398.0,189.8 399.0,473.2 400.0,335.7 401.0,316.7 402.0,216.1 403.0,310.6 404.0,403.9 405.0,336.8 406.0,151.3 407.0,333.5 408.0,384.9 409.0,292.7 410.0,249.6 411.0,434.1 412.0,291.0 413.0,241.8 414.0,382.7 415.0,392.7 416.0,379.9 417.0,242.9 418.0,444.7 419.0,335.7 420.0,199.9 420.9,357.0 421.9,424.6 422.9,351.4 423.9,228.4 424.9,305.5 425.9,360.3 426.9,331.3 427.9,235.7 428.9,249.1 429.9,334.1 430.9,145.7 431.9,385.5 432.9,435.8 433.9,310.0 434.9,213.3 435.9,363.1 436.9,338.0 437.9,373.2 438.9,351.4 439.9,335.2 440.9,325.7 441.9,415.7 442.9,362.6 443.9,362.6 444.9,283.2 445.9,334.1 446.9,347.5 447.9,315.6 448.9,334.1 449.9,376.0 450.9,399.5 451.9,382.1 452.9,416.8 453.8,320.1 454.8,402.3 455.8,429.6 456.8,427.4 457.8,437.5 458.8,299.4 459.8,380.5 460.8,402.3 461.8,198.2 462.8,274.2 463.8,345.8 464.8,233.4 465.8,355.3 466.8,374.3 467.8,341.3 468.8,438.0 469.8,323.4 470.8,229.0 471.8,349.1 472.8,327.3 473.8,313.9 474.8,229.5 475.8,341.3 476.8,344.7 477.8,332.4 478.8,318.4 479.8,285.4 480.8,254.7 481.8,238.5 482.8,317.8 483.8,272.6 484.8,335.2 485.8,217.8 486.8,284.3 487.7,332.9 488.7,211.1 489.7,261.4 490.7,395.5 491.7,295.5 492.7,313.9 493.7,302.8 494.7,387.7 495.7,464.9 496.7,282.1 497.7,326.8 498.7,422.4 499.7,381.0 500.7,332.4 501.7,269.8 502.7,440.3 503.7,416.8 504.7,261.9 505.7,423.5 506.7,301.1 507.7,445.9 508.7,198.8 509.7,403.4 510.7,422.4 511.7,215.5 512.7,221.7 513.7,236.8 514.7,313.9 515.7,320.6 516.7,443.6 517.7,180.3 518.7,249.6 519.7,407.3 520.6,317.3 521.6,117.2 522.6,244.6 523.6,122.2 524.6,263.6 525.6,266.4 526.6,356.4 527.6,250.8 528.6,290.5 529.6,203.3 530.6,269.8 531.6,210.5 532.6,262.5 533.6,208.8 534.6,403.4 535.6,256.9 536.6,320.1 537.6,186.5 538.6,267.0 539.6,136.7 540.6,234.6 541.6,129.5 542.6,141.2 543.6,427.4 544.6,174.2 545.6,326.8 546.6,441.9 547.6,281.5 548.6,355.3 549.6,455.4 550.6,347.5 551.6,365.9 552.6,293.2 553.5,396.1 554.5,244.6 555.5,320.6 556.5,286.5 557.5,335.7 558.5,353.6 559.5,225.6 560.5,179.2 561.5,343.6 562.5,336.8 563.5,186.5 564.5,326.8 565.5,479.4 566.5,350.3 567.5,306.7 568.5,325.7 569.5,234.0 570.5,300.0 571.5,339.1 572.5,403.4 573.5,409.0 574.5,312.3 575.5,353.1 576.5,259.7 577.5,254.1 578.5,359.2 579.5,268.7 580.5,279.3 581.5,178.1 582.5,315.6 583.5,448.6 584.5,231.8 585.5,363.7 586.5,398.3 587.4,207.7 588.4,325.1 589.4,249.1 590.4,401.7 591.4,316.7 592.4,308.9 593.4,327.9 594.4,411.2 595.4,407.8 596.4,235.1 597.4,369.8 598.4,325.1 599.4,193.7 600.4,353.6 601.4,248.0 602.4,239.6 603.4,269.8 604.4,132.8 605.4,392.2 606.4,225.1 607.4,326.8 608.4,259.2 609.4,358.7 610.4,289.9 611.4,211.6 612.4,255.2 613.4,245.2 614.4,273.7 615.4,152.9 616.4,429.6 617.4,246.3 618.4,208.8 619.4,306.1 620.3,305.5 621.3,297.7 622.3,329.6 623.3,327.3 624.3,257.5 625.3,315.0 626.3,215.0 627.3,228.4 628.3,339.6 629.3,443.1 630.3,327.9 631.3,270.9 632.3,307.2 633.3,242.9 634.3,209.4 635.3,392.7 636.3,354.7 637.3,399.5 638.3,166.4 639.3,362.6 640.3,352.5 641.3,423.5 642.3,437.5 643.3,354.7 644.3,352.5 645.3,263.6 646.3,323.4 647.3,332.9 648.3,203.8 649.3,164.1 650.3,329.6 651.3,198.8 652.3,239.0 653.2,471.0 654.2,373.7 655.2,313.4 656.2,354.7 657.2,301.6 658.2,231.8 659.2,336.8 660.2,320.1 661.2,337.4 662.2,310.6 663.2,326.2 664.2,334.1 665.2,391.1 666.2,220.6 667.2,332.9 668.2,299.4 669.2,286.0 670.2,445.3 671.2,173.1 672.2,296.6 673.2,309.5 674.2,315.6 675.2,463.2 676.2,359.8 677.2,347.5 678.2,206.6 679.2,425.7 680.2,210.0 681.2,309.5 682.2,301.1 683.2,203.3 684.2,281.5 685.2,376.5 686.2,242.9 687.1,240.1 688.1,361.4 689.1,379.9 690.1,350.3 691.1,273.1 692.1,312.3 693.1,288.8 694.1,317.8 695.1,369.8 696.1,280.4 697.1,398.9 698.1,360.3 699.1,308.9 700.1,254.1 701.1,358.1 702.1,356.4 703.1,295.5 704.1,217.8 705.1,354.7 706.1,441.9 707.1,237.9 708.1,467.7 709.1,306.1 710.1,150.7 711.1,431.3 712.1,367.6 713.1,202.1 714.1,357.0 715.1,384.9 716.1,166.4 717.1,419.6 718.1,452.0 719.1,442.5 720.0,305.5 721.0,116.6 722.0,137.8 723.0,336.3 724.0,245.2 725.0,215.0 726.0,213.9 727.0,411.8 728.0,344.1 729.0,301.6 730.0,349.1 731.0,308.9 732.0,289.9 733.0,302.2 734.0,391.1 735.0,377.1 736.0,387.7 737.0,257.5 738.0,398.9 739.0,241.3 740.0,218.3 741.0,254.1 742.0,235.1 743.0,496.2 744.0,355.9 745.0,418.5 746.0,246.3 747.0,329.6 748.0,371.5 749.0,441.9 750.0,476.0 751.0,422.9 752.0,487.8 752.9,90.3 753.9,307.2 754.9,434.7 755.9,411.8 756.9,247.4 757.9,448.1 758.9,211.1 759.9,211.1 760.9,260.3 761.9,365.9 762.9,240.7 763.9,254.7 764.9,212.8 765.9,365.4 766.9,321.2 767.9,248.5 768.9,373.7 769.9,284.3 770.9,435.2 771.9,159.1 772.9,374.3 773.9,357.5 774.9,452.6 775.9,350.3 776.9,330.7 777.9,291.0 778.9,391.6 779.9,480.0 780.9,414.5 781.9,392.7 782.9,362.0 783.9,334.1 784.9,275.4 785.8,345.8 786.8,314.5 787.8,305.5 788.8,320.6 789.8,312.8 790.8,231.2 791.8,308.3 792.8,372.6 793.8,117.2 794.8,375.4 795.8,312.3 796.8,320.1 797.8,276.5 798.8,204.4 799.8,298.3 800.8,255.8 801.8,338.5 802.8,255.2 803.8,381.0 804.8,286.0 805.8,303.9 806.8,199.9 807.8,270.3 808.8,207.7 809.8,422.9 810.8,417.3 811.8,366.5 812.8,192.1 813.8,362.6 814.8,363.7 815.8,322.9 816.8,454.8 817.8,264.2 818.8,204.4 819.7,295.5 820.7,445.3 821.7,207.7 822.7,231.2 823.7,211.6 824.7,339.1 825.7,343.0 826.7,357.0 827.7,411.2 828.7,457.6 829.7,270.9 830.7,313.9 831.7,425.7 832.7,327.9 833.7,326.8 834.7,381.6 835.7,327.3 836.7,431.9 837.7,396.1 838.7,359.2 839.7,428.0 840.7,268.1 841.7,270.9 842.7,530.8 843.7,310.0 844.7,352.5 845.7,233.4 846.7,431.3 847.7,356.4 848.7,289.3 849.7,235.1 850.7,320.1 851.7,301.6 852.6,307.8 853.6,208.3 854.6,388.3 855.6,303.9 856.6,220.6 857.6,477.2 858.6,344.7 859.6,306.1 860.6,409.0 861.6,297.2 862.6,326.2 863.6,335.7 864.6,330.7 865.6,54.0 866.6,374.9 867.6,403.4 868.6,173.1 869.6,357.0 870.6,228.4 871.6,317.3 872.6,286.5 873.6,213.3 874.6,420.7 875.6,205.5 876.6,375.4 877.6,269.8 878.6,283.2 879.6,243.5 880.6,199.3 881.6,403.9 882.6,436.9 883.6,308.9 884.6,291.6 885.5,213.9 886.5,279.8 887.5,339.6 888.5,431.9 889.5,358.7 890.5,284.9 891.5,87.0 892.5,369.8 893.5,340.2 894.5,362.6 895.5,394.4 896.5,338.5 897.5,116.0 898.5,319.5 899.5,234.0 900.5,206.0 901.5,229.5 902.5,226.2 903.5,313.9 904.5,362.0 905.5,225.1 906.5,321.2 907.5,330.1 908.5,276.5 909.5,255.8 910.5,278.2 911.5,307.8 912.5,221.7 913.5,183.1 914.5,234.6 915.5,360.9 916.5,356.4 917.5,311.7 918.5,484.4 919.4,336.8 920.4,346.4 921.4,359.2 922.4,206.0 923.4,478.8 924.4,247.4 925.4,368.7 926.4,347.5 927.4,306.1 928.4,311.1 929.4,397.2 930.4,330.1 931.4,291.0 932.4,280.4 933.4,274.8 934.4,319.0 935.4,488.3 936.4,175.9 937.4,191.5 938.4,359.2 939.4,321.2 940.4,171.4 941.4,429.6 942.4,486.7 943.4,288.2 944.4,357.0 945.4,336.3 946.4,244.6 947.4,330.1 948.4,283.7 949.4,327.3 950.4,329.0 951.4,285.4 952.3,400.0 953.3,286.5 954.3,272.0 955.3,204.9 956.3,432.4 957.3,386.0 958.3,452.0 959.3,282.1 960.3,317.3 961.3,334.6 962.3,367.6 963.3,393.3 964.3,193.7 965.3,480.5 966.3,342.4 967.3,330.7 968.3,213.3 969.3,433.6 970.3,302.2 971.3,339.6 972.3,379.3 973.3,379.3 974.3,210.5 975.3,337.4 976.3,542.0 977.3,97.0 978.3,378.8 979.3,311.1 980.3,358.7 981.3,227.3 982.3,351.9 983.3,482.7 984.3,293.8 985.2,332.4 986.2,447.0 987.2,349.1 988.2,350.8 989.2,422.9 990.2,297.2 991.2,291.0 992.2,301.1 993.2,440.8 994.2,339.6 995.2,335.7 996.2,343.0 997.2,430.8 998.2,348.0 999.2,296.6 1000.2,276.5 1001.2,330.7 1002.2,204.4 1003.2,445.9 1004.2,337.4 1005.2,322.9 1006.2,358.1 1007.2,319.5 1008.2,226.7 1009.2,300.0 1010.2,435.8 1011.2,329.6 1012.2,187.0 1013.2,365.4 1014.2,379.3 1015.2,251.3 1016.2,315.0 1017.2,354.7 1018.2,417.3 1019.1,292.7 1020.1,312.8 1021.1,173.1 1022.1,221.1 1023.1,68.5 1024.1,313.9 1025.1,360.3 1026.1,480.0 1027.1,181.5 1028.1,292.7 1029.1,259.2 1030.1,384.9 1031.1,225.6 1032.1,182.0 1033.1,340.8 1034.1,184.2 1035.1,322.9 1036.1,265.3 1037.1,363.7 1038.1,382.1 1039.1,277.6 1040.1,274.2 1041.1,346.9 1042.1,273.1 1043.1,467.1 1044.1,265.3 1045.1,241.8 1046.1,339.6 1047.1,264.2 1048.1,382.7 1049.1,311.7 1050.1,247.4 1051.1,133.9 1052.0,204.4 1053.0,389.4 1054.0,408.4 1055.0,183.1 1056.0,303.9 1057.0,267.5 1058.0,204.9 1059.0,367.0 1060.0,326.2 1061.0,195.4 1062.0,226.7 1063.0,406.2 1064.0,213.9 1065.0,370.4 1066.0,225.1 1067.0,369.3 1068.0,358.1"/>
    <circle cx="74.0" cy="233.4" r="5" fill="#16a34a"><title>Accepted epoch 3, diff 17</title></circle>
    <circle cx="81.0" cy="225.6" r="5" fill="#16a34a"><title>Accepted epoch 10, diff 31</title></circle>
    <circle cx="82.0" cy="201.6" r="5" fill="#16a34a"><title>Accepted epoch 11, diff 74</title></circle>
    <circle cx="87.0" cy="132.8" r="5" fill="#16a34a"><title>Accepted epoch 16, diff 197</title></circle>
    <circle cx="88.0" cy="242.4" r="5" fill="#16a34a"><title>Accepted epoch 17, diff 1</title></circle>
    <circle cx="94.9" cy="211.1" r="5" fill="#16a34a"><title>Accepted epoch 24, diff 57</title></circle>
    <circle cx="97.9" cy="186.5" r="5" fill="#16a34a"><title>Accepted epoch 27, diff 101</title></circle>
    <circle cx="99.9" cy="224.5" r="5" fill="#16a34a"><title>Accepted epoch 29, diff 33</title></circle>
    <circle cx="107.9" cy="164.7" r="5" fill="#16a34a"><title>Accepted epoch 37, diff 140</title></circle>
    <circle cx="120.9" cy="191.0" r="5" fill="#16a34a"><title>Accepted epoch 50, diff 93</title></circle>
    <circle cx="124.8" cy="220.0" r="5" fill="#16a34a"><title>Accepted epoch 54, diff 41</title></circle>
    <circle cx="127.8" cy="160.8" r="5" fill="#16a34a"><title>Accepted epoch 57, diff 147</title></circle>
    <circle cx="128.8" cy="208.3" r="5" fill="#16a34a"><title>Accepted epoch 58, diff 62</title></circle>
    <circle cx="145.8" cy="229.5" r="5" fill="#16a34a"><title>Accepted epoch 75, diff 24</title></circle>
    <circle cx="146.8" cy="237.3" r="5" fill="#16a34a"><title>Accepted epoch 76, diff 10</title></circle>
    <circle cx="150.8" cy="241.8" r="5" fill="#16a34a"><title>Accepted epoch 80, diff 2</title></circle>
    <circle cx="151.8" cy="180.3" r="5" fill="#16a34a"><title>Accepted epoch 81, diff 112</title></circle>
    <circle cx="163.7" cy="236.2" r="5" fill="#16a34a"><title>Accepted epoch 93, diff 12</title></circle>
    <circle cx="164.7" cy="202.7" r="5" fill="#16a34a"><title>Accepted epoch 94, diff 72</title></circle>
    <circle cx="166.7" cy="188.2" r="5" fill="#16a34a"><title>Accepted epoch 96, diff 98</title></circle>
    <circle cx="169.7" cy="187.6" r="5" fill="#16a34a"><title>Accepted epoch 99, diff 99</title></circle>
    <circle cx="182.7" cy="234.6" r="5" fill="#16a34a"><title>Accepted epoch 112, diff 15</title></circle>
    <circle cx="185.7" cy="179.2" r="5" fill="#16a34a"><title>Accepted epoch 115, diff 114</title></circle>
    <circle cx="186.7" cy="188.2" r="5" fill="#16a34a"><title>Accepted epoch 116, diff 98</title></circle>
    <circle cx="187.7" cy="213.9" r="5" fill="#16a34a"><title>Accepted epoch 117, diff 52</title></circle>
    <circle cx="188.6" cy="194.3" r="5" fill="#16a34a"><title>Accepted epoch 118, diff 87</title></circle>
    <circle cx="189.6" cy="174.2" r="5" fill="#16a34a"><title>Accepted epoch 119, diff 123</title></circle>
    <circle cx="191.6" cy="226.2" r="5" fill="#16a34a"><title>Accepted epoch 121, diff 30</title></circle>
    <circle cx="192.6" cy="170.8" r="5" fill="#16a34a"><title>Accepted epoch 122, diff 129</title></circle>
    <circle cx="197.6" cy="210.5" r="5" fill="#16a34a"><title>Accepted epoch 127, diff 58</title></circle>
    <circle cx="201.6" cy="125.6" r="5" fill="#16a34a"><title>Accepted epoch 131, diff 210</title></circle>
    <circle cx="202.6" cy="239.0" r="5" fill="#16a34a"><title>Accepted epoch 132, diff 7</title></circle>
    <circle cx="207.6" cy="184.8" r="5" fill="#16a34a"><title>Accepted epoch 137, diff 104</title></circle>
    <circle cx="210.6" cy="133.4" r="5" fill="#16a34a"><title>Accepted epoch 140, diff 196</title></circle>
    <circle cx="217.6" cy="214.4" r="5" fill="#16a34a"><title>Accepted epoch 147, diff 51</title></circle>
    <circle cx="220.6" cy="238.5" r="5" fill="#16a34a"><title>Accepted epoch 150, diff 8</title></circle>
    <circle cx="224.5" cy="229.0" r="5" fill="#16a34a"><title>Accepted epoch 154, diff 25</title></circle>
    <circle cx="237.5" cy="157.4" r="5" fill="#16a34a"><title>Accepted epoch 167, diff 153</title></circle>
    <circle cx="241.5" cy="237.3" r="5" fill="#16a34a"><title>Accepted epoch 171, diff 10</title></circle>
    <circle cx="250.5" cy="197.1" r="5" fill="#16a34a"><title>Accepted epoch 180, diff 82</title></circle>
    <circle cx="253.5" cy="200.5" r="5" fill="#16a34a"><title>Accepted epoch 183, diff 76</title></circle>
    <circle cx="254.5" cy="235.1" r="5" fill="#16a34a"><title>Accepted epoch 184, diff 14</title></circle>
    <circle cx="256.4" cy="151.3" r="5" fill="#16a34a"><title>Accepted epoch 186, diff 164</title></circle>
    <circle cx="257.4" cy="190.4" r="5" fill="#16a34a"><title>Accepted epoch 187, diff 94</title></circle>
    <circle cx="260.4" cy="109.3" r="5" fill="#16a34a"><title>Accepted epoch 190, diff 239</title></circle>
    <circle cx="263.4" cy="141.2" r="5" fill="#16a34a"><title>Accepted epoch 193, diff 182</title></circle>
    <circle cx="268.4" cy="211.1" r="5" fill="#16a34a"><title>Accepted epoch 198, diff 57</title></circle>
    <circle cx="269.4" cy="210.0" r="5" fill="#16a34a"><title>Accepted epoch 199, diff 59</title></circle>
    <circle cx="270.4" cy="185.9" r="5" fill="#16a34a"><title>Accepted epoch 200, diff 102</title></circle>
    <circle cx="273.4" cy="162.4" r="5" fill="#16a34a"><title>Accepted epoch 203, diff 144</title></circle>
    <circle cx="283.4" cy="226.2" r="5" fill="#16a34a"><title>Accepted epoch 213, diff 30</title></circle>
    <circle cx="284.4" cy="131.1" r="5" fill="#16a34a"><title>Accepted epoch 214, diff 200</title></circle>
    <circle cx="286.4" cy="211.1" r="5" fill="#16a34a"><title>Accepted epoch 216, diff 57</title></circle>
    <circle cx="287.4" cy="162.4" r="5" fill="#16a34a"><title>Accepted epoch 217, diff 144</title></circle>
    <circle cx="294.3" cy="193.7" r="5" fill="#16a34a"><title>Accepted epoch 224, diff 88</title></circle>
    <circle cx="300.3" cy="134.5" r="5" fill="#16a34a"><title>Accepted epoch 230, diff 194</title></circle>
    <circle cx="305.3" cy="185.4" r="5" fill="#16a34a"><title>Accepted epoch 235, diff 103</title></circle>
    <circle cx="310.3" cy="197.1" r="5" fill="#16a34a"><title>Accepted epoch 240, diff 82</title></circle>
    <circle cx="314.3" cy="204.4" r="5" fill="#16a34a"><title>Accepted epoch 244, diff 69</title></circle>
    <circle cx="320.3" cy="193.7" r="5" fill="#16a34a"><title>Accepted epoch 250, diff 88</title></circle>
    <circle cx="325.2" cy="208.8" r="5" fill="#16a34a"><title>Accepted epoch 255, diff 61</title></circle>
    <circle cx="326.2" cy="201.6" r="5" fill="#16a34a"><title>Accepted epoch 256, diff 74</title></circle>
    <circle cx="332.2" cy="144.0" r="5" fill="#16a34a"><title>Accepted epoch 262, diff 177</title></circle>
    <circle cx="333.2" cy="171.9" r="5" fill="#16a34a"><title>Accepted epoch 263, diff 127</title></circle>
    <circle cx="335.2" cy="226.7" r="5" fill="#16a34a"><title>Accepted epoch 265, diff 29</title></circle>
    <circle cx="336.2" cy="232.9" r="5" fill="#16a34a"><title>Accepted epoch 266, diff 18</title></circle>
    <circle cx="339.2" cy="102.1" r="5" fill="#16a34a"><title>Accepted epoch 269, diff 252</title></circle>
    <circle cx="342.2" cy="140.6" r="5" fill="#16a34a"><title>Accepted epoch 272, diff 183</title></circle>
    <circle cx="343.2" cy="206.0" r="5" fill="#16a34a"><title>Accepted epoch 273, diff 66</title></circle>
    <circle cx="345.2" cy="208.8" r="5" fill="#16a34a"><title>Accepted epoch 275, diff 61</title></circle>
    <circle cx="346.2" cy="138.4" r="5" fill="#16a34a"><title>Accepted epoch 276, diff 187</title></circle>
    <circle cx="348.2" cy="187.6" r="5" fill="#16a34a"><title>Accepted epoch 278, diff 99</title></circle>
    <circle cx="351.2" cy="202.7" r="5" fill="#16a34a"><title>Accepted epoch 281, diff 72</title></circle>
    <circle cx="356.1" cy="161.3" r="5" fill="#16a34a"><title>Accepted epoch 286, diff 146</title></circle>
    <circle cx="359.1" cy="241.3" r="5" fill="#16a34a"><title>Accepted epoch 289, diff 3</title></circle>
    <circle cx="361.1" cy="189.3" r="5" fill="#16a34a"><title>Accepted epoch 291, diff 96</title></circle>
    <circle cx="364.1" cy="84.2" r="5" fill="#16a34a"><title>Accepted epoch 294, diff 284</title></circle>
    <circle cx="366.1" cy="240.1" r="5" fill="#16a34a"><title>Accepted epoch 296, diff 5</title></circle>
    <circle cx="367.1" cy="235.7" r="5" fill="#16a34a"><title>Accepted epoch 297, diff 13</title></circle>
    <circle cx="376.1" cy="230.1" r="5" fill="#16a34a"><title>Accepted epoch 306, diff 23</title></circle>
    <circle cx="377.1" cy="128.3" r="5" fill="#16a34a"><title>Accepted epoch 307, diff 205</title></circle>
    <circle cx="378.1" cy="179.2" r="5" fill="#16a34a"><title>Accepted epoch 308, diff 114</title></circle>
    <circle cx="393.0" cy="236.2" r="5" fill="#16a34a"><title>Accepted epoch 323, diff 12</title></circle>
    <circle cx="394.0" cy="229.0" r="5" fill="#16a34a"><title>Accepted epoch 324, diff 25</title></circle>
    <circle cx="395.0" cy="213.3" r="5" fill="#16a34a"><title>Accepted epoch 325, diff 53</title></circle>
    <circle cx="398.0" cy="189.8" r="5" fill="#16a34a"><title>Accepted epoch 328, diff 95</title></circle>
    <circle cx="402.0" cy="216.1" r="5" fill="#16a34a"><title>Accepted epoch 332, diff 48</title></circle>
    <circle cx="406.0" cy="151.3" r="5" fill="#16a34a"><title>Accepted epoch 336, diff 164</title></circle>
    <circle cx="413.0" cy="241.8" r="5" fill="#16a34a"><title>Accepted epoch 343, diff 2</title></circle>
    <circle cx="420.0" cy="199.9" r="5" fill="#16a34a"><title>Accepted epoch 350, diff 77</title></circle>
    <circle cx="423.9" cy="228.4" r="5" fill="#16a34a"><title>Accepted epoch 354, diff 26</title></circle>
    <circle cx="427.9" cy="235.7" r="5" fill="#16a34a"><title>Accepted epoch 358, diff 13</title></circle>
    <circle cx="430.9" cy="145.7" r="5" fill="#16a34a"><title>Accepted epoch 361, diff 174</title></circle>
    <circle cx="434.9" cy="213.3" r="5" fill="#16a34a"><title>Accepted epoch 365, diff 53</title></circle>
    <circle cx="461.8" cy="198.2" r="5" fill="#16a34a"><title>Accepted epoch 392, diff 80</title></circle>
    <circle cx="464.8" cy="233.4" r="5" fill="#16a34a"><title>Accepted epoch 395, diff 17</title></circle>
    <circle cx="470.8" cy="229.0" r="5" fill="#16a34a"><title>Accepted epoch 401, diff 25</title></circle>
    <circle cx="474.8" cy="229.5" r="5" fill="#16a34a"><title>Accepted epoch 405, diff 24</title></circle>
    <circle cx="481.8" cy="238.5" r="5" fill="#16a34a"><title>Accepted epoch 412, diff 8</title></circle>
    <circle cx="485.8" cy="217.8" r="5" fill="#16a34a"><title>Accepted epoch 416, diff 45</title></circle>
    <circle cx="488.7" cy="211.1" r="5" fill="#16a34a"><title>Accepted epoch 419, diff 57</title></circle>
    <circle cx="508.7" cy="198.8" r="5" fill="#16a34a"><title>Accepted epoch 439, diff 79</title></circle>
    <circle cx="511.7" cy="215.5" r="5" fill="#16a34a"><title>Accepted epoch 442, diff 49</title></circle>
    <circle cx="512.7" cy="221.7" r="5" fill="#16a34a"><title>Accepted epoch 443, diff 38</title></circle>
    <circle cx="513.7" cy="236.8" r="5" fill="#16a34a"><title>Accepted epoch 444, diff 11</title></circle>
    <circle cx="517.7" cy="180.3" r="5" fill="#16a34a"><title>Accepted epoch 448, diff 112</title></circle>
    <circle cx="521.6" cy="117.2" r="5" fill="#16a34a"><title>Accepted epoch 452, diff 225</title></circle>
    <circle cx="523.6" cy="122.2" r="5" fill="#16a34a"><title>Accepted epoch 454, diff 216</title></circle>
    <circle cx="529.6" cy="203.3" r="5" fill="#16a34a"><title>Accepted epoch 460, diff 71</title></circle>
    <circle cx="531.6" cy="210.5" r="5" fill="#16a34a"><title>Accepted epoch 462, diff 58</title></circle>
    <circle cx="533.6" cy="208.8" r="5" fill="#16a34a"><title>Accepted epoch 464, diff 61</title></circle>
    <circle cx="537.6" cy="186.5" r="5" fill="#16a34a"><title>Accepted epoch 468, diff 101</title></circle>
    <circle cx="539.6" cy="136.7" r="5" fill="#16a34a"><title>Accepted epoch 470, diff 190</title></circle>
    <circle cx="540.6" cy="234.6" r="5" fill="#16a34a"><title>Accepted epoch 471, diff 15</title></circle>
    <circle cx="541.6" cy="129.5" r="5" fill="#16a34a"><title>Accepted epoch 472, diff 203</title></circle>
    <circle cx="542.6" cy="141.2" r="5" fill="#16a34a"><title>Accepted epoch 473, diff 182</title></circle>
    <circle cx="544.6" cy="174.2" r="5" fill="#16a34a"><title>Accepted epoch 475, diff 123</title></circle>
    <circle cx="559.5" cy="225.6" r="5" fill="#16a34a"><title>Accepted epoch 490, diff 31</title></circle>
    <circle cx="560.5" cy="179.2" r="5" fill="#16a34a"><title>Accepted epoch 491, diff 114</title></circle>
    <circle cx="563.5" cy="186.5" r="5" fill="#16a34a"><title>Accepted epoch 494, diff 101</title></circle>
    <circle cx="569.5" cy="234.0" r="5" fill="#16a34a"><title>Accepted epoch 500, diff 16</title></circle>
    <circle cx="581.5" cy="178.1" r="5" fill="#16a34a"><title>Accepted epoch 512, diff 116</title></circle>
    <circle cx="584.5" cy="231.8" r="5" fill="#16a34a"><title>Accepted epoch 515, diff 20</title></circle>
    <circle cx="587.4" cy="207.7" r="5" fill="#16a34a"><title>Accepted epoch 518, diff 63</title></circle>
    <circle cx="596.4" cy="235.1" r="5" fill="#16a34a"><title>Accepted epoch 527, diff 14</title></circle>
    <circle cx="599.4" cy="193.7" r="5" fill="#16a34a"><title>Accepted epoch 530, diff 88</title></circle>
    <circle cx="602.4" cy="239.6" r="5" fill="#16a34a"><title>Accepted epoch 533, diff 6</title></circle>
    <circle cx="604.4" cy="132.8" r="5" fill="#16a34a"><title>Accepted epoch 535, diff 197</title></circle>
    <circle cx="606.4" cy="225.1" r="5" fill="#16a34a"><title>Accepted epoch 537, diff 32</title></circle>
    <circle cx="611.4" cy="211.6" r="5" fill="#16a34a"><title>Accepted epoch 542, diff 56</title></circle>
    <circle cx="615.4" cy="152.9" r="5" fill="#16a34a"><title>Accepted epoch 546, diff 161</title></circle>
    <circle cx="618.4" cy="208.8" r="5" fill="#16a34a"><title>Accepted epoch 549, diff 61</title></circle>
    <circle cx="626.3" cy="215.0" r="5" fill="#16a34a"><title>Accepted epoch 557, diff 50</title></circle>
    <circle cx="627.3" cy="228.4" r="5" fill="#16a34a"><title>Accepted epoch 558, diff 26</title></circle>
    <circle cx="634.3" cy="209.4" r="5" fill="#16a34a"><title>Accepted epoch 565, diff 60</title></circle>
    <circle cx="638.3" cy="166.4" r="5" fill="#16a34a"><title>Accepted epoch 569, diff 137</title></circle>
    <circle cx="648.3" cy="203.8" r="5" fill="#16a34a"><title>Accepted epoch 579, diff 70</title></circle>
    <circle cx="649.3" cy="164.1" r="5" fill="#16a34a"><title>Accepted epoch 580, diff 141</title></circle>
    <circle cx="651.3" cy="198.8" r="5" fill="#16a34a"><title>Accepted epoch 582, diff 79</title></circle>
    <circle cx="652.3" cy="239.0" r="5" fill="#16a34a"><title>Accepted epoch 583, diff 7</title></circle>
    <circle cx="658.2" cy="231.8" r="5" fill="#16a34a"><title>Accepted epoch 589, diff 20</title></circle>
    <circle cx="666.2" cy="220.6" r="5" fill="#16a34a"><title>Accepted epoch 597, diff 40</title></circle>
    <circle cx="671.2" cy="173.1" r="5" fill="#16a34a"><title>Accepted epoch 602, diff 125</title></circle>
    <circle cx="678.2" cy="206.6" r="5" fill="#16a34a"><title>Accepted epoch 609, diff 65</title></circle>
    <circle cx="680.2" cy="210.0" r="5" fill="#16a34a"><title>Accepted epoch 611, diff 59</title></circle>
    <circle cx="683.2" cy="203.3" r="5" fill="#16a34a"><title>Accepted epoch 614, diff 71</title></circle>
    <circle cx="687.1" cy="240.1" r="5" fill="#16a34a"><title>Accepted epoch 618, diff 5</title></circle>
    <circle cx="704.1" cy="217.8" r="5" fill="#16a34a"><title>Accepted epoch 635, diff 45</title></circle>
    <circle cx="707.1" cy="237.9" r="5" fill="#16a34a"><title>Accepted epoch 638, diff 9</title></circle>
    <circle cx="710.1" cy="150.7" r="5" fill="#16a34a"><title>Accepted epoch 641, diff 165</title></circle>
    <circle cx="713.1" cy="202.1" r="5" fill="#16a34a"><title>Accepted epoch 644, diff 73</title></circle>
    <circle cx="716.1" cy="166.4" r="5" fill="#16a34a"><title>Accepted epoch 647, diff 137</title></circle>
    <circle cx="721.0" cy="116.6" r="5" fill="#16a34a"><title>Accepted epoch 652, diff 226</title></circle>
    <circle cx="722.0" cy="137.8" r="5" fill="#16a34a"><title>Accepted epoch 653, diff 188</title></circle>
    <circle cx="725.0" cy="215.0" r="5" fill="#16a34a"><title>Accepted epoch 656, diff 50</title></circle>
    <circle cx="726.0" cy="213.9" r="5" fill="#16a34a"><title>Accepted epoch 657, diff 52</title></circle>
    <circle cx="739.0" cy="241.3" r="5" fill="#16a34a"><title>Accepted epoch 670, diff 3</title></circle>
    <circle cx="740.0" cy="218.3" r="5" fill="#16a34a"><title>Accepted epoch 671, diff 44</title></circle>
    <circle cx="742.0" cy="235.1" r="5" fill="#16a34a"><title>Accepted epoch 673, diff 14</title></circle>
    <circle cx="752.9" cy="90.3" r="5" fill="#16a34a"><title>Accepted epoch 684, diff 273</title></circle>
    <circle cx="758.9" cy="211.1" r="5" fill="#16a34a"><title>Accepted epoch 690, diff 57</title></circle>
    <circle cx="759.9" cy="211.1" r="5" fill="#16a34a"><title>Accepted epoch 691, diff 57</title></circle>
    <circle cx="762.9" cy="240.7" r="5" fill="#16a34a"><title>Accepted epoch 694, diff 4</title></circle>
    <circle cx="764.9" cy="212.8" r="5" fill="#16a34a"><title>Accepted epoch 696, diff 54</title></circle>
    <circle cx="771.9" cy="159.1" r="5" fill="#16a34a"><title>Accepted epoch 703, diff 150</title></circle>
    <circle cx="790.8" cy="231.2" r="5" fill="#16a34a"><title>Accepted epoch 722, diff 21</title></circle>
    <circle cx="793.8" cy="117.2" r="5" fill="#16a34a"><title>Accepted epoch 725, diff 225</title></circle>
    <circle cx="798.8" cy="204.4" r="5" fill="#16a34a"><title>Accepted epoch 730, diff 69</title></circle>
    <circle cx="806.8" cy="199.9" r="5" fill="#16a34a"><title>Accepted epoch 738, diff 77</title></circle>
    <circle cx="808.8" cy="207.7" r="5" fill="#16a34a"><title>Accepted epoch 740, diff 63</title></circle>
    <circle cx="812.8" cy="192.1" r="5" fill="#16a34a"><title>Accepted epoch 744, diff 91</title></circle>
    <circle cx="818.8" cy="204.4" r="5" fill="#16a34a"><title>Accepted epoch 750, diff 69</title></circle>
    <circle cx="821.7" cy="207.7" r="5" fill="#16a34a"><title>Accepted epoch 753, diff 63</title></circle>
    <circle cx="822.7" cy="231.2" r="5" fill="#16a34a"><title>Accepted epoch 754, diff 21</title></circle>
    <circle cx="823.7" cy="211.6" r="5" fill="#16a34a"><title>Accepted epoch 755, diff 56</title></circle>
    <circle cx="845.7" cy="233.4" r="5" fill="#16a34a"><title>Accepted epoch 777, diff 17</title></circle>
    <circle cx="849.7" cy="235.1" r="5" fill="#16a34a"><title>Accepted epoch 781, diff 14</title></circle>
    <circle cx="853.6" cy="208.3" r="5" fill="#16a34a"><title>Accepted epoch 785, diff 62</title></circle>
    <circle cx="856.6" cy="220.6" r="5" fill="#16a34a"><title>Accepted epoch 788, diff 40</title></circle>
    <circle cx="865.6" cy="54.0" r="5" fill="#16a34a"><title>Accepted epoch 797, diff 338</title></circle>
    <circle cx="868.6" cy="173.1" r="5" fill="#16a34a"><title>Accepted epoch 800, diff 125</title></circle>
    <circle cx="870.6" cy="228.4" r="5" fill="#16a34a"><title>Accepted epoch 802, diff 26</title></circle>
    <circle cx="873.6" cy="213.3" r="5" fill="#16a34a"><title>Accepted epoch 805, diff 53</title></circle>
    <circle cx="875.6" cy="205.5" r="5" fill="#16a34a"><title>Accepted epoch 807, diff 67</title></circle>
    <circle cx="880.6" cy="199.3" r="5" fill="#16a34a"><title>Accepted epoch 812, diff 78</title></circle>
    <circle cx="885.5" cy="213.9" r="5" fill="#16a34a"><title>Accepted epoch 817, diff 52</title></circle>
    <circle cx="891.5" cy="87.0" r="5" fill="#16a34a"><title>Accepted epoch 823, diff 279</title></circle>
    <circle cx="897.5" cy="116.0" r="5" fill="#16a34a"><title>Accepted epoch 829, diff 227</title></circle>
    <circle cx="899.5" cy="234.0" r="5" fill="#16a34a"><title>Accepted epoch 831, diff 16</title></circle>
    <circle cx="900.5" cy="206.0" r="5" fill="#16a34a"><title>Accepted epoch 832, diff 66</title></circle>
    <circle cx="901.5" cy="229.5" r="5" fill="#16a34a"><title>Accepted epoch 833, diff 24</title></circle>
    <circle cx="902.5" cy="226.2" r="5" fill="#16a34a"><title>Accepted epoch 834, diff 30</title></circle>
    <circle cx="905.5" cy="225.1" r="5" fill="#16a34a"><title>Accepted epoch 837, diff 32</title></circle>
    <circle cx="912.5" cy="221.7" r="5" fill="#16a34a"><title>Accepted epoch 844, diff 38</title></circle>
    <circle cx="913.5" cy="183.1" r="5" fill="#16a34a"><title>Accepted epoch 845, diff 107</title></circle>
    <circle cx="914.5" cy="234.6" r="5" fill="#16a34a"><title>Accepted epoch 846, diff 15</title></circle>
    <circle cx="922.4" cy="206.0" r="5" fill="#16a34a"><title>Accepted epoch 854, diff 66</title></circle>
    <circle cx="936.4" cy="175.9" r="5" fill="#16a34a"><title>Accepted epoch 868, diff 120</title></circle>
    <circle cx="937.4" cy="191.5" r="5" fill="#16a34a"><title>Accepted epoch 869, diff 92</title></circle>
    <circle cx="940.4" cy="171.4" r="5" fill="#16a34a"><title>Accepted epoch 872, diff 128</title></circle>
    <circle cx="955.3" cy="204.9" r="5" fill="#16a34a"><title>Accepted epoch 887, diff 68</title></circle>
    <circle cx="964.3" cy="193.7" r="5" fill="#16a34a"><title>Accepted epoch 896, diff 88</title></circle>
    <circle cx="968.3" cy="213.3" r="5" fill="#16a34a"><title>Accepted epoch 900, diff 53</title></circle>
    <circle cx="974.3" cy="210.5" r="5" fill="#16a34a"><title>Accepted epoch 906, diff 58</title></circle>
    <circle cx="977.3" cy="97.0" r="5" fill="#16a34a"><title>Accepted epoch 909, diff 261</title></circle>
    <circle cx="981.3" cy="227.3" r="5" fill="#16a34a"><title>Accepted epoch 913, diff 28</title></circle>
    <circle cx="1002.2" cy="204.4" r="5" fill="#16a34a"><title>Accepted epoch 934, diff 69</title></circle>
    <circle cx="1008.2" cy="226.7" r="5" fill="#16a34a"><title>Accepted epoch 940, diff 29</title></circle>
    <circle cx="1012.2" cy="187.0" r="5" fill="#16a34a"><title>Accepted epoch 944, diff 100</title></circle>
    <circle cx="1021.1" cy="173.1" r="5" fill="#16a34a"><title>Accepted epoch 953, diff 125</title></circle>
    <circle cx="1022.1" cy="221.1" r="5" fill="#16a34a"><title>Accepted epoch 954, diff 39</title></circle>
    <circle cx="1023.1" cy="68.5" r="5" fill="#16a34a"><title>Accepted epoch 955, diff 312</title></circle>
    <circle cx="1027.1" cy="181.5" r="5" fill="#16a34a"><title>Accepted epoch 959, diff 110</title></circle>
    <circle cx="1031.1" cy="225.6" r="5" fill="#16a34a"><title>Accepted epoch 963, diff 31</title></circle>
    <circle cx="1032.1" cy="182.0" r="5" fill="#16a34a"><title>Accepted epoch 964, diff 109</title></circle>
    <circle cx="1034.1" cy="184.2" r="5" fill="#16a34a"><title>Accepted epoch 966, diff 105</title></circle>
    <circle cx="1045.1" cy="241.8" r="5" fill="#16a34a"><title>Accepted epoch 977, diff 2</title></circle>
    <circle cx="1051.1" cy="133.9" r="5" fill="#16a34a"><title>Accepted epoch 983, diff 195</title></circle>
    <circle cx="1052.0" cy="204.4" r="5" fill="#16a34a"><title>Accepted epoch 984, diff 69</title></circle>
    <circle cx="1055.0" cy="183.1" r="5" fill="#16a34a"><title>Accepted epoch 987, diff 107</title></circle>
    <circle cx="1058.0" cy="204.9" r="5" fill="#16a34a"><title>Accepted epoch 990, diff 68</title></circle>
    <circle cx="1061.0" cy="195.4" r="5" fill="#16a34a"><title>Accepted epoch 993, diff 85</title></circle>
    <circle cx="1062.0" cy="226.7" r="5" fill="#16a34a"><title>Accepted epoch 994, diff 29</title></circle>
    <circle cx="1064.0" cy="213.9" r="5" fill="#16a34a"><title>Accepted epoch 996, diff 52</title></circle>
    <circle cx="1066.0" cy="225.1" r="5" fill="#16a34a"><title>Accepted epoch 998, diff 32</title></circle>
    <g transform="translate(72, 566.0)" font-size="13" fill="#111827">
      <rect x="0" y="-12" width="14" height="4" fill="#2563eb"/><text x="22" y="-7">Candidate avg goals</text>
      <rect x="190" y="-12" width="14" height="4" fill="#ef4444"/><text x="212" y="-7">Baseline avg goals</text>
      <rect x="378" y="-12" width="14" height="4" fill="#7c3aed"/><text x="400" y="-7">Goal diff</text>
      <circle cx="548" cy="-10" r="5" fill="#16a34a"/><text x="562" y="-7">Accepted improvement</text>
    </g>
  </g>
</svg>
