<?xml version="1.0" encoding="UTF-8"?>
<svg xmlns="http://www.w3.org/2000/svg" width="1100" height="620" viewBox="0 0 1100 620">
  <rect width="100%" height="100%" fill="#ffffff"/>
  <text x="72" y="30" font-family="Arial, sans-serif" font-size="22" font-weight="700" fill="#111827">Training progress</text>
  <text x="1068" y="30" text-anchor="end" font-family="Arial, sans-serif" font-size="13" fill="#4b5563">Final champion epoch: 99</text>
  <g font-family="Arial, sans-serif">
    <line x1="72.0" y1="54.0" x2="72.0" y2="542.0" stroke="#eef2f7" stroke-width="1"/>
    <text x="72.0" y="566.0" text-anchor="middle" font-size="12" fill="#4b5563">1</text>
    <line x1="172.6" y1="54.0" x2="172.6" y2="542.0" stroke="#eef2f7" stroke-width="1"/>
    <text x="172.6" y="566.0" text-anchor="middle" font-size="12" fill="#4b5563">11</text>
    <line x1="273.2" y1="54.0" x2="273.2" y2="542.0" stroke="#eef2f7" stroke-width="1"/>
    <text x="273.2" y="566.0" text-anchor="middle" font-size="12" fill="#4b5563">21</text>
    <line x1="373.8" y1="54.0" x2="373.8" y2="542.0" stroke="#eef2f7" stroke-width="1"/>
    <text x="373.8" y="566.0" text-anchor="middle" font-size="12" fill="#4b5563">31</text>
    <line x1="474.4" y1="54.0" x2="474.4" y2="542.0" stroke="#eef2f7" stroke-width="1"/>
    <text x="474.4" y="566.0" text-anchor="middle" font-size="12" fill="#4b5563">41</text>
    <line x1="575.0" y1="54.0" x2="575.0" y2="542.0" stroke="#eef2f7" stroke-width="1"/>
    <text x="575.0" y="566.0" text-anchor="middle" font-size="12" fill="#4b5563">51</text>
    <line x1="675.6" y1="54.0" x2="675.6" y2="542.0" stroke="#eef2f7" stroke-width="1"/>
    <text x="675.6" y="566.0" text-anchor="middle" font-size="12" fill="#4b5563">61</text>
    <line x1="776.2" y1="54.0" x2="776.2" y2="542.0" stroke="#eef2f7" stroke-width="1"/>
    <text x="776.2" y="566.0" text-anchor="middle" font-size="12" fill="#4b5563">71</text>
    <line x1="876.8" y1="54.0" x2="876.8" y2="542.0" stroke="#eef2f7" stroke-width="1"/>
    <text x="876.8" y="566.0" text-anchor="middle" font-size="12" fill="#4b5563">81</text>
    <line x1="977.5" y1="54.0" x2="977.5" y2="542.0" stroke="#eef2f7" stroke-width="1"/>
    <text x="977.5" y="566.0" text-anchor="middle" font-size="12" fill="#4b5563">91</text>
    <line x1="72.0" y1="542.0" x2="1068.0" y2="542.0" stroke="#d8dee9" stroke-width="1" opacity="0.55"/>
    <text x="60.0" y="546.0" text-anchor="end" font-size="12" fill="#4b5563">-1550.0</text>
    <line x1="72.0" y1="444.4" x2="1068.0" y2="444.4" stroke="#d8dee9" stroke-width="1" opacity="0.55"/>
    <text x="60.0" y="448.4" text-anchor="end" font-size="12" fill="#4b5563">-1151.8</text>
    <line x1="72.0" y1="346.8" x2="1068.0" y2="346.8" stroke="#d8dee9" stroke-width="1" opacity="0.55"/>
    <text x="60.0" y="350.8" text-anchor="end" font-size="12" fill="#4b5563">-753.6</text>
    <line x1="72.0" y1="249.2" x2="1068.0" y2="249.2" stroke="#d8dee9" stroke-width="1" opacity="0.55"/>
    <text x="60.0" y="253.2" text-anchor="end" font-size="12" fill="#4b5563">-355.4</text>
    <line x1="72.0" y1="151.6" x2="1068.0" y2="151.6" stroke="#d8dee9" stroke-width="1" opacity="0.55"/>
    <text x="60.0" y="155.6" text-anchor="end" font-size="12" fill="#4b5563">42.8</text>
    <line x1="72.0" y1="54.0" x2="1068.0" y2="54.0" stroke="#d8dee9" stroke-width="1" opacity="0.55"/>
    <text x="60.0" y="58.0" text-anchor="end" font-size="12" fill="#4b5563">441.0</text>
    <line x1="72.0" y1="54.0" x2="72.0" y2="542.0" stroke="#111827" stroke-width="1.4"/>
    <line x1="72.0" y1="542.0" x2="1068.0" y2="542.0" stroke="#111827" stroke-width="1.4"/>
    <text x="570.0" y="596.0" text-anchor="middle" font-size="13" fill="#111827">Epoch</text>
    <text x="20" y="298.0" transform="rotate(-90 20 298.0)" text-anchor="middle" font-size="13" fill="#111827">Goals / goal diff</text>
    <polyline fill="none" stroke="#2563eb" stroke-width="2.4" points="72.0,161.0 82.1,160.6 92.1,162.0 102.2,160.8 112.2,160.6 122.3,160.6 132.4,160.6 142.4,161.7 152.5,160.6 162.5,160.6 172.6,160.6 182.7,160.6 192.7,160.6 202.8,160.6 212.8,160.7 222.9,161.9 233.0,160.7 243.0,160.6 253.1,160.6 263.2,160.6 273.2,160.7 283.3,160.6 293.3,160.6 303.4,160.8 313.5,160.7 323.5,160.6 333.6,160.6 343.6,160.9 353.7,160.6 363.8,160.6 373.8,160.6 383.9,160.7 393.9,160.7 404.0,160.7 414.1,160.6 424.1,160.6 434.2,160.6 444.2,160.9 454.3,160.9 464.4,160.6 474.4,160.9 484.5,160.6 494.5,161.1 504.6,160.6 514.7,160.6 524.7,160.7 534.8,160.6 544.8,162.1 554.9,160.7 565.0,160.6 575.0,160.6 585.1,160.7 595.2,160.6 605.2,160.6 615.3,160.6 625.3,160.6 635.4,160.7 645.5,160.8 655.5,161.3 665.6,160.7 675.6,160.6 685.7,160.6 695.8,161.1 705.8,160.6 715.9,160.6 725.9,160.6 736.0,161.9 746.1,161.9 756.1,160.6 766.2,160.6 776.2,160.6 786.3,160.6 796.4,160.7 806.4,160.6 816.5,160.6 826.5,160.7 836.6,160.6 846.7,160.7 856.7,160.8 866.8,160.6 876.8,160.6 886.9,160.6 897.0,160.6 907.0,160.6 917.1,160.6 927.2,160.6 937.2,160.6 947.3,160.6 957.3,160.6 967.4,160.6 977.5,161.3 987.5,160.6 997.6,160.6 1007.6,160.8 1017.7,160.6 1027.8,160.6 1037.8,160.9 1047.9,160.6 1057.9,160.6 1068.0,161.8"/>
    <polyline fill="none" stroke="#ef4444" stroke-width="2.4" points="72.0,160.8 82.1,160.6 92.1,161.0 102.2,160.6 112.2,160.6 122.3,160.6 132.4,160.5 142.4,161.3 152.5,160.6 162.5,160.6 172.6,160.6 182.7,160.6 192.7,160.6 202.8,160.6 212.8,160.6 222.9,161.5 233.0,160.6 243.0,160.6 253.1,160.6 263.2,160.6 273.2,160.6 283.3,160.6 293.3,160.6 303.4,160.6 313.5,160.6 323.5,160.6 333.6,160.6 343.6,160.7 353.7,160.6 363.8,160.6 373.8,160.6 383.9,160.6 393.9,160.6 404.0,160.6 414.1,160.6 424.1,160.6 434.2,160.6 444.2,160.7 454.3,160.7 464.4,160.5 474.4,160.7 484.5,160.6 494.5,160.7 504.6,160.6 514.7,160.6 524.7,160.6 534.8,160.6 544.8,161.7 554.9,160.5 565.0,160.6 575.0,160.6 585.1,160.5 595.2,160.5 605.2,160.6 615.3,160.6 625.3,160.6 635.4,160.6 645.5,160.4 655.5,161.0 665.6,160.6 675.6,160.6 685.7,160.5 695.8,160.7 705.8,160.6 715.9,160.6 725.9,160.6 736.0,161.5 746.1,161.3 756.1,160.6 766.2,160.5 776.2,160.6 786.3,160.6 796.4,160.6 806.4,160.6 816.5,160.6 826.5,160.7 836.6,160.6 846.7,160.6 856.7,160.7 866.8,160.6 876.8,160.6 886.9,160.6 897.0,160.6 907.0,160.6 917.1,160.6 927.2,160.6 937.2,160.6 947.3,160.6 957.3,160.6 967.4,160.6 977.5,160.9 987.5,160.6 997.6,160.6 1007.6,160.6 1017.7,160.6 1027.8,160.6 1037.8,160.7 1047.9,160.6 1057.9,160.6 1068.0,161.0"/>
    <polyline fill="none" stroke="#7c3aed" stroke-width="2" stroke-dasharray="6 5" points="72.0,213.8 82.1,115.5 92.1,264.1 102.2,279.2 112.2,195.2 122.3,440.5 132.4,303.8 142.4,198.9 152.5,247.9 162.5,154.2 172.6,293.5 182.7,287.8 192.7,71.9 202.8,252.5 212.8,379.0 222.9,201.1 233.0,287.3 243.0,168.2 253.1,398.9 263.2,531.2 273.2,307.9 283.3,471.7 293.3,314.8 303.4,239.3 313.5,389.8 323.5,271.2 333.6,288.8 343.6,213.6 353.7,235.9 363.8,184.1 373.8,516.0 383.9,348.9 393.9,316.8 404.0,307.2 414.1,459.6 424.1,344.9 434.2,460.6 444.2,241.3 454.3,205.0 464.4,347.6 474.4,229.0 484.5,156.7 494.5,202.5 504.6,437.3 514.7,262.8 524.7,330.0 534.8,169.2 544.8,205.2 554.9,288.1 565.0,285.4 575.0,146.4 585.1,248.9 595.2,294.7 605.2,425.6 615.3,463.6 625.3,237.8 635.4,354.0 645.5,208.2 655.5,190.8 665.6,275.8 675.6,194.9 685.7,410.4 695.8,203.5 705.8,332.2 715.9,302.5 725.9,414.1 736.0,202.0 746.1,215.8 756.1,209.2 766.2,400.6 776.2,107.2 786.3,232.9 796.4,542.0 806.4,159.6 816.5,253.0 826.5,359.6 836.6,300.6 846.7,372.6 856.7,266.7 866.8,338.1 876.8,54.0 886.9,274.6 897.0,304.7 907.0,214.8 917.1,176.8 927.2,382.2 937.2,378.8 947.3,155.2 957.3,125.1 967.4,384.9 977.5,194.9 987.5,165.8 997.6,131.2 1007.6,227.0 1017.7,225.3 1027.8,228.8 1037.8,223.9 1047.9,422.6 1057.9,141.3 1068.0,240.5"/>
    <circle cx="82.1" cy="115.5" r="5" fill="#16a34a"><title>Accepted epoch 2, diff 190</title></circle>
    <circle cx="162.5" cy="154.2" r="5" fill="#16a34a"><title>Accepted epoch 10, diff 32</title></circle>
    <circle cx="192.7" cy="71.9" r="5" fill="#16a34a"><title>Accepted epoch 13, diff 368</title></circle>
    <circle cx="484.5" cy="156.7" r="5" fill="#16a34a"><title>Accepted epoch 42, diff 22</title></circle>
    <circle cx="575.0" cy="146.4" r="5" fill="#16a34a"><title>Accepted epoch 51, diff 64</title></circle>
    <circle cx="776.2" cy="107.2" r="5" fill="#16a34a"><title>Accepted epoch 71, diff 224</title></circle>
    <circle cx="806.4" cy="159.6" r="5" fill="#16a34a"><title>Accepted epoch 74, diff 10</title></circle>
    <circle cx="876.8" cy="54.0" r="5" fill="#16a34a"><title>Accepted epoch 81, diff 441</title></circle>
    <circle cx="947.3" cy="155.2" r="5" fill="#16a34a"><title>Accepted epoch 88, diff 28</title></circle>
    <circle cx="957.3" cy="125.1" r="5" fill="#16a34a"><title>Accepted epoch 89, diff 151</title></circle>
    <circle cx="997.6" cy="131.2" r="5" fill="#16a34a"><title>Accepted epoch 93, diff 126</title></circle>
    <circle cx="1057.9" cy="141.3" r="5" fill="#16a34a"><title>Accepted epoch 99, diff 85</title></circle>
    <g transform="translate(72, 566.0)" font-size="13" fill="#111827">
      <rect x="0" y="-12" width="14" height="4" fill="#2563eb"/><text x="22" y="-7">Candidate avg goals</text>
      <rect x="190" y="-12" width="14" height="4" fill="#ef4444"/><text x="212" y="-7">Baseline avg goals</text>
      <rect x="378" y="-12" width="14" height="4" fill="#7c3aed"/><text x="400" y="-7">Goal diff</text>
      <circle cx="548" cy="-10" r="5" fill="#16a34a"/><text x="562" y="-7">Accepted improvement</text>
    </g>
  </g>
</svg>
