<?xml version="1.0" encoding="UTF-8"?>
<svg xmlns="http://www.w3.org/2000/svg" width="1100" height="620" viewBox="0 0 1100 620">
  <rect width="100%" height="100%" fill="#ffffff"/>
  <text x="72" y="30" font-family="Arial, sans-serif" font-size="22" font-weight="700" fill="#111827">Training progress</text>
  <text x="1068" y="30" text-anchor="end" font-family="Arial, sans-serif" font-size="13" fill="#4b5563">Final champion epoch: 97</text>
  <g font-family="Arial, sans-serif">
    <line x1="72.0" y1="54.0" x2="72.0" y2="542.0" stroke="#eef2f7" stroke-width="1"/>
    <text x="72.0" y="566.0" text-anchor="middle" font-size="12" fill="#4b5563">1</text>
    <line x1="172.6" y1="54.0" x2="172.6" y2="542.0" stroke="#eef2f7" stroke-width="1"/>
    <text x="172.6" y="566.0" text-anchor="middle" font-size="12" fill="#4b5563">11</text>
    <line x1="273.2" y1="54.0" x2="273.2" y2="542.0" stroke="#eef2f7" stroke-width="1"/>
    <text x="273.2" y="566.0" text-anchor="middle" font-size="12" fill="#4b5563">21</text>
    <line x1="373.8" y1="54.0" x2="373.8" y2="542.0" stroke="#eef2f7" stroke-width="1"/>
    <text x="373.8" y="566.0" text-anchor="middle" font-size="12" fill="#4b5563">31</text>
    <line x1="474.4" y1="54.0" x2="474.4" y2="542.0" stroke="#eef2f7" stroke-width="1"/>
    <text x="474.4" y="566.0" text-anchor="middle" font-size="12" fill="#4b5563">41</text>
    <line x1="575.0" y1="54.0" x2="575.0" y2="542.0" stroke="#eef2f7" stroke-width="1"/>
    <text x="575.0" y="566.0" text-anchor="middle" font-size="12" fill="#4b5563">51</text>
    <line x1="675.6" y1="54.0" x2="675.6" y2="542.0" stroke="#eef2f7" stroke-width="1"/>
    <text x="675.6" y="566.0" text-anchor="middle" font-size="12" fill="#4b5563">61</text>
    <line x1="776.2" y1="54.0" x2="776.2" y2="542.0" stroke="#eef2f7" stroke-width="1"/>
    <text x="776.2" y="566.0" text-anchor="middle" font-size="12" fill="#4b5563">71</text>
    <line x1="876.8" y1="54.0" x2="876.8" y2="542.0" stroke="#eef2f7" stroke-width="1"/>
    <text x="876.8" y="566.0" text-anchor="middle" font-size="12" fill="#4b5563">81</text>
    <line x1="977.5" y1="54.0" x2="977.5" y2="542.0" stroke="#eef2f7" stroke-width="1"/>
    <text x="977.5" y="566.0" text-anchor="middle" font-size="12" fill="#4b5563">91</text>
    <line x1="72.0" y1="542.0" x2="1068.0" y2="542.0" stroke="#d8dee9" stroke-width="1" opacity="0.55"/>
    <text x="60.0" y="546.0" text-anchor="end" font-size="12" fill="#4b5563">-1063.0</text>
    <line x1="72.0" y1="444.4" x2="1068.0" y2="444.4" stroke="#d8dee9" stroke-width="1" opacity="0.55"/>
    <text x="60.0" y="448.4" text-anchor="end" font-size="12" fill="#4b5563">-687.4</text>
    <line x1="72.0" y1="346.8" x2="1068.0" y2="346.8" stroke="#d8dee9" stroke-width="1" opacity="0.55"/>
    <text x="60.0" y="350.8" text-anchor="end" font-size="12" fill="#4b5563">-311.8</text>
    <line x1="72.0" y1="249.2" x2="1068.0" y2="249.2" stroke="#d8dee9" stroke-width="1" opacity="0.55"/>
    <text x="60.0" y="253.2" text-anchor="end" font-size="12" fill="#4b5563">63.8</text>
    <line x1="72.0" y1="151.6" x2="1068.0" y2="151.6" stroke="#d8dee9" stroke-width="1" opacity="0.55"/>
    <text x="60.0" y="155.6" text-anchor="end" font-size="12" fill="#4b5563">439.4</text>
    <line x1="72.0" y1="54.0" x2="1068.0" y2="54.0" stroke="#d8dee9" stroke-width="1" opacity="0.55"/>
    <text x="60.0" y="58.0" text-anchor="end" font-size="12" fill="#4b5563">815.0</text>
    <line x1="72.0" y1="54.0" x2="72.0" y2="542.0" stroke="#111827" stroke-width="1.4"/>
    <line x1="72.0" y1="542.0" x2="1068.0" y2="542.0" stroke="#111827" stroke-width="1.4"/>
    <text x="570.0" y="596.0" text-anchor="middle" font-size="13" fill="#111827">Epoch</text>
    <text x="20" y="298.0" transform="rotate(-90 20 298.0)" text-anchor="middle" font-size="13" fill="#111827">Goals / goal diff</text>
    <polyline fill="none" stroke="#2563eb" stroke-width="2.4" points="72.0,265.5 82.1,265.4 92.1,265.6 102.2,265.5 112.2,265.6 122.3,265.6 132.4,265.5 142.4,265.5 152.5,265.5 162.5,265.5 172.6,265.6 182.7,265.5 192.7,265.5 202.8,265.5 212.8,265.5 222.9,265.5 233.0,265.5 243.0,265.5 253.1,265.5 263.2,265.5 273.2,265.5 283.3,265.6 293.3,265.5 303.4,265.5 313.5,265.5 323.5,265.6 333.6,265.5 343.6,265.5 353.7,265.5 363.8,265.5 373.8,265.5 383.9,265.5 393.9,265.6 404.0,265.5 414.1,265.5 424.1,265.5 434.2,265.7 444.2,265.4 454.3,265.5 464.4,265.5 474.4,265.6 484.5,265.5 494.5,265.5 504.6,265.6 514.7,265.5 524.7,265.5 534.8,265.5 544.8,265.5 554.9,265.5 565.0,265.5 575.0,265.6 585.1,265.5 595.2,265.6 605.2,265.5 615.3,265.5 625.3,265.5 635.4,265.5 645.5,265.5 655.5,265.5 665.6,265.5 675.6,265.5 685.7,265.5 695.8,265.7 705.8,265.7 715.9,265.5 725.9,265.5 736.0,265.5 746.1,265.5 756.1,265.5 766.2,265.5 776.2,265.5 786.3,265.5 796.4,265.5 806.4,265.5 816.5,265.5 826.5,265.5 836.6,265.5 846.7,265.5 856.7,265.5 866.8,265.6 876.8,265.5 886.9,265.6 897.0,265.5 907.0,265.5 917.1,265.7 927.2,265.5 937.2,265.5 947.3,265.6 957.3,265.5 967.4,265.6 977.5,265.5 987.5,265.4 997.6,265.5 1007.6,265.5 1017.7,265.5 1027.8,265.5 1037.8,265.5 1047.9,265.5 1057.9,265.5 1068.0,265.6"/>
    <polyline fill="none" stroke="#ef4444" stroke-width="2.4" points="72.0,265.5 82.1,265.5 92.1,265.5 102.2,265.5 112.2,265.4 122.3,265.4 132.4,265.5 142.4,265.5 152.5,265.5 162.5,265.5 172.6,265.5 182.7,265.5 192.7,265.5 202.8,265.5 212.8,265.5 222.9,265.5 233.0,265.5 243.0,265.5 253.1,265.5 263.2,265.5 273.2,265.5 283.3,265.2 293.3,265.5 303.4,265.5 313.5,265.5 323.5,265.4 333.6,265.5 343.6,265.5 353.7,265.5 363.8,265.5 373.8,265.5 383.9,265.5 393.9,265.5 404.0,265.5 414.1,265.5 424.1,265.5 434.2,265.5 444.2,265.5 454.3,265.5 464.4,265.5 474.4,265.5 484.5,265.5 494.5,265.5 504.6,265.5 514.7,265.5 524.7,265.5 534.8,265.5 544.8,265.5 554.9,265.4 565.0,265.5 575.0,265.5 585.1,265.5 595.2,265.5 605.2,265.5 615.3,265.5 625.3,265.4 635.4,265.5 645.5,265.5 655.5,265.5 665.6,265.4 675.6,265.5 685.7,265.5 695.8,265.4 705.8,265.4 715.9,265.5 725.9,265.5 736.0,265.5 746.1,265.5 756.1,265.5 766.2,265.5 776.2,265.5 786.3,265.5 796.4,265.5 806.4,265.5 816.5,265.5 826.5,265.5 836.6,265.5 846.7,265.5 856.7,265.5 866.8,265.4 876.8,265.5 886.9,265.4 897.0,265.5 907.0,265.5 917.1,265.2 927.2,265.5 937.2,265.5 947.3,265.5 957.3,265.5 967.4,265.5 977.5,265.5 987.5,265.5 997.6,265.5 1007.6,265.5 1017.7,265.5 1027.8,265.5 1037.8,265.5 1047.9,265.5 1057.9,265.5 1068.0,265.5"/>
    <polyline fill="none" stroke="#7c3aed" stroke-width="2" stroke-dasharray="6 5" points="72.0,179.5 82.1,253.3 92.1,275.7 102.2,271.2 112.2,283.7 122.3,284.5 132.4,273.1 142.4,227.8 152.5,336.2 162.5,252.5 172.6,280.3 182.7,501.5 192.7,400.6 202.8,304.0 212.8,136.4 222.9,380.9 233.0,213.8 243.0,366.1 253.1,302.2 263.2,426.6 273.2,264.5 283.3,306.8 293.3,252.3 303.4,54.0 313.5,248.1 323.5,284.2 333.6,314.6 343.6,293.8 353.7,380.1 363.8,258.8 373.8,249.4 383.9,167.0 393.9,282.4 404.0,262.7 414.1,350.5 424.1,137.4 434.2,286.0 444.2,249.4 454.3,136.4 464.4,367.6 474.4,277.5 484.5,363.0 494.5,307.1 504.6,282.7 514.7,242.1 524.7,322.9 534.8,403.2 544.8,421.2 554.9,281.6 565.0,241.1 575.0,274.1 585.1,286.8 595.2,279.6 605.2,312.6 615.3,272.3 625.3,286.8 635.4,278.5 645.5,542.0 655.5,440.1 665.6,277.2 675.6,97.7 685.7,248.4 695.8,289.2 705.8,297.7 715.9,406.1 725.9,344.3 736.0,229.9 746.1,360.1 756.1,462.2 766.2,334.4 776.2,427.7 786.3,317.0 796.4,299.8 806.4,177.7 816.5,318.3 826.5,387.1 836.6,282.4 846.7,288.1 856.7,182.1 866.8,280.6 876.8,160.8 886.9,285.5 897.0,358.8 907.0,492.1 917.1,307.4 927.2,192.8 937.2,261.6 947.3,281.6 957.3,203.7 967.4,279.0 977.5,245.3 987.5,251.0 997.6,354.6 1007.6,275.4 1017.7,307.9 1027.8,170.7 1037.8,254.1 1047.9,296.7 1057.9,333.3 1068.0,282.9"/>
    <circle cx="72.0" cy="179.5" r="5" fill="#16a34a"><title>Accepted epoch 1, diff 332</title></circle>
    <circle cx="82.1" cy="253.3" r="5" fill="#16a34a"><title>Accepted epoch 2, diff 48</title></circle>
    <circle cx="142.4" cy="227.8" r="5" fill="#16a34a"><title>Accepted epoch 8, diff 146</title></circle>
    <circle cx="162.5" cy="252.5" r="5" fill="#16a34a"><title>Accepted epoch 10, diff 51</title></circle>
    <circle cx="212.8" cy="136.4" r="5" fill="#16a34a"><title>Accepted epoch 15, diff 498</title></circle>
    <circle cx="233.0" cy="213.8" r="5" fill="#16a34a"><title>Accepted epoch 17, diff 200</title></circle>
    <circle cx="273.2" cy="264.5" r="5" fill="#16a34a"><title>Accepted epoch 21, diff 5</title></circle>
    <circle cx="293.3" cy="252.3" r="5" fill="#16a34a"><title>Accepted epoch 23, diff 52</title></circle>
    <circle cx="303.4" cy="54.0" r="5" fill="#16a34a"><title>Accepted epoch 24, diff 815</title></circle>
    <circle cx="313.5" cy="248.1" r="5" fill="#16a34a"><title>Accepted epoch 25, diff 68</title></circle>
    <circle cx="363.8" cy="258.8" r="5" fill="#16a34a"><title>Accepted epoch 30, diff 27</title></circle>
    <circle cx="373.8" cy="249.4" r="5" fill="#16a34a"><title>Accepted epoch 31, diff 63</title></circle>
    <circle cx="383.9" cy="167.0" r="5" fill="#16a34a"><title>Accepted epoch 32, diff 380</title></circle>
    <circle cx="404.0" cy="262.7" r="5" fill="#16a34a"><title>Accepted epoch 34, diff 12</title></circle>
    <circle cx="424.1" cy="137.4" r="5" fill="#16a34a"><title>Accepted epoch 36, diff 494</title></circle>
    <circle cx="444.2" cy="249.4" r="5" fill="#16a34a"><title>Accepted epoch 38, diff 63</title></circle>
    <circle cx="454.3" cy="136.4" r="5" fill="#16a34a"><title>Accepted epoch 39, diff 498</title></circle>
    <circle cx="514.7" cy="242.1" r="5" fill="#16a34a"><title>Accepted epoch 45, diff 91</title></circle>
    <circle cx="565.0" cy="241.1" r="5" fill="#16a34a"><title>Accepted epoch 50, diff 95</title></circle>
    <circle cx="675.6" cy="97.7" r="5" fill="#16a34a"><title>Accepted epoch 61, diff 647</title></circle>
    <circle cx="685.7" cy="248.4" r="5" fill="#16a34a"><title>Accepted epoch 62, diff 67</title></circle>
    <circle cx="736.0" cy="229.9" r="5" fill="#16a34a"><title>Accepted epoch 67, diff 138</title></circle>
    <circle cx="806.4" cy="177.7" r="5" fill="#16a34a"><title>Accepted epoch 74, diff 339</title></circle>
    <circle cx="856.7" cy="182.1" r="5" fill="#16a34a"><title>Accepted epoch 79, diff 322</title></circle>
    <circle cx="876.8" cy="160.8" r="5" fill="#16a34a"><title>Accepted epoch 81, diff 404</title></circle>
    <circle cx="927.2" cy="192.8" r="5" fill="#16a34a"><title>Accepted epoch 86, diff 281</title></circle>
    <circle cx="937.2" cy="261.6" r="5" fill="#16a34a"><title>Accepted epoch 87, diff 16</title></circle>
    <circle cx="957.3" cy="203.7" r="5" fill="#16a34a"><title>Accepted epoch 89, diff 239</title></circle>
    <circle cx="977.5" cy="245.3" r="5" fill="#16a34a"><title>Accepted epoch 91, diff 79</title></circle>
    <circle cx="987.5" cy="251.0" r="5" fill="#16a34a"><title>Accepted epoch 92, diff 57</title></circle>
    <circle cx="1027.8" cy="170.7" r="5" fill="#16a34a"><title>Accepted epoch 96, diff 366</title></circle>
    <circle cx="1037.8" cy="254.1" r="5" fill="#16a34a"><title>Accepted epoch 97, diff 45</title></circle>
    <g transform="translate(72, 566.0)" font-size="13" fill="#111827">
      <rect x="0" y="-12" width="14" height="4" fill="#2563eb"/><text x="22" y="-7">Candidate avg goals</text>
      <rect x="190" y="-12" width="14" height="4" fill="#ef4444"/><text x="212" y="-7">Baseline avg goals</text>
      <rect x="378" y="-12" width="14" height="4" fill="#7c3aed"/><text x="400" y="-7">Goal diff</text>
      <circle cx="548" cy="-10" r="5" fill="#16a34a"/><text x="562" y="-7">Accepted improvement</text>
    </g>
  </g>
</svg>
